# Blender v3.4.1 OBJ File: ''
# www.blender.org
mtllib roadTile_301.mtl
o roadTile_301
v 0.754448 0.630000 0.000000
v 1.468970 0.630000 0.000000
v 1.312500 0.630000 -0.077164
v 0.945430 0.630000 -0.322432
v 0.613515 0.630000 -0.613515
v 0.322432 0.630000 -0.945430
v 0.077164 0.630000 -1.312500
v 0.000000 0.630000 -1.468970
v 0.000000 0.630000 -0.754448
v 0.024925 0.630000 -0.717145
v 0.348350 0.630000 -0.348350
v 0.717145 0.630000 -0.024925
v 0.754448 0.600000 0.000000
v 0.754448 0.000000 0.000000
v 1.468970 0.000000 -0.000000
v 0.717145 0.600000 -0.024925
v 0.348350 0.600000 -0.348350
v 0.024925 0.600000 -0.717145
v 0.000000 0.600000 -0.754448
v 0.000000 0.000000 -1.468970
v 0.000000 0.000000 -0.754448
v 0.077164 0.000000 -1.312500
v 0.322432 0.000000 -0.945430
v 0.613515 0.000000 -0.613515
v 0.945430 0.000000 -0.322432
v 1.312500 0.000000 -0.077164
v 0.000000 0.000000 0.000000
v 0.000000 0.600000 0.000000
vt -0.000000 0.754448
vt -0.322432 0.945430
vt -0.613515 0.613515
vt 0.717145 0.024925
vt 0.754448 -0.000000
vt 0.945430 0.322432
vt 1.468970 0.000000
vt 1.312500 0.077164
vt 0.613515 0.613515
vt 0.348350 0.348350
vt -0.000000 -0.000000
vt -0.754448 -0.000000
vt -0.000000 1.468970
vt 0.000000 0.754448
vt 0.077164 1.312500
vt 0.024925 0.717145
vt 0.322432 0.945430
vt -1.468970 0.000000
vt -0.754448 0.000000
vt -0.754448 0.600000
vt -1.468970 0.630000
vt 1.468970 0.630000
vt 0.754448 0.630000
vt 0.754448 0.600000
vt 0.522744 0.600000
vt 0.522744 0.630000
vt 0.032220 0.630000
vt 0.032220 0.600000
vt -0.032220 0.600000
vt -0.032220 0.630000
vt -0.522744 0.630000
vt -0.522744 0.600000
vt -0.754448 0.630000
vt 0.627300 0.600000
vt 0.627300 0.630000
vt 0.582436 0.630000
vt 0.582436 0.600000
vt 1.317480 0.000000
vt 1.317480 0.630000
vt 1.143020 0.630000
vt 1.143020 0.000000
vt 1.048430 0.000000
vt 1.048430 0.630000
vt 0.606963 0.630000
vt 0.606963 0.000000
vt 0.498218 0.000000
vt 0.498218 0.630000
vt 0.056746 0.630000
vt 0.056746 0.000000
vt -0.056746 0.000000
vt -0.056746 0.630000
vt -0.498218 0.630000
vt -0.498218 0.000000
vt -0.606963 0.000000
vt -0.606963 0.630000
vt -1.048430 0.630000
vt -1.048430 0.000000
vt -1.468970 0.000000
vt -1.312500 0.077164
vt -0.945430 0.322432
vt 0.000000 1.468970
vt -0.077164 1.312500
vt -1.143020 0.000000
vt -1.143020 0.630000
vt -1.317480 0.630000
vt -1.317480 0.000000
vt 0.754448 0.000000
vt 1.468970 0.000000
vt -0.582436 0.600000
vt -0.582436 0.630000
vt -0.627300 0.630000
vt -0.627300 0.600000
vt 0.000000 0.000000
vt 0.717145 0.024925
vt 0.348350 0.348350
vt 0.000000 0.600000
vt 0.024925 0.717145
vt 0.000000 0.754448
vt 0.754448 0.000000
vn -0.0000 -1.0000 -0.0000
vn -0.0000 1.0000 0.0000
vn -1.0000 -0.0000 0.0000
vn 0.0000 -0.0000 1.0000
vn -0.6088 0.0000 0.7934
vn -0.7071 0.0000 0.7071
vn -0.7934 0.0000 0.6088
vn -0.5556 0.0000 0.8315
vn 0.8969 0.0000 -0.4423
vn 0.8660 0.0000 -0.5000
vn 0.7934 0.0000 -0.6088
vn 0.7071 0.0000 -0.7071
vn 0.6088 0.0000 -0.7934
vn 0.5000 0.0000 -0.8660
vn 0.4423 0.0000 -0.8969
vn -0.8315 0.0000 0.5556
usemtl Stone.257
s 1
f 21/1/1 23/2/1 24/3/1
f 12/4/2 1/5/2 4/6/2
f 1/5/2 2/7/2 3/8/2
f 1/5/2 3/8/2 4/6/2
f 4/6/2 5/9/2 11/10/2 12/4/2
f 27/11/1 21/1/1 24/3/1 14/12/1
f 8/13/2 9/14/2 7/15/2
f 9/14/2 10/16/2 6/17/2
f 7/15/2 9/14/2 6/17/2
f 20/18/3 21/19/3 19/20/3 8/21/3
f 2/22/4 1/23/4 13/24/4
f 16/25/5 12/26/5 11/27/6 17/28/6
f 17/29/6 11/30/6 10/31/7 18/32/7
f 19/20/3 9/33/3 8/21/3
f 5/9/2 6/17/2 10/16/2 11/10/2
f 13/34/8 1/35/8 12/36/5 16/37/5
f 20/38/9 8/39/9 7/40/10 22/41/10
f 22/42/10 7/43/10 6/44/11 23/45/11
f 23/46/11 6/47/11 5/48/12 24/49/12
f 24/50/12 5/51/12 4/52/13 25/53/13
f 25/54/13 4/55/13 3/56/14 26/57/14
f 15/58/1 14/12/1 26/59/1
f 26/59/1 14/12/1 25/60/1
f 21/1/1 20/61/1 22/62/1
f 21/1/1 22/62/1 23/2/1
f 25/60/1 14/12/1 24/3/1
f 26/63/14 3/64/14 2/65/15 15/66/15
f 13/24/4 14/67/4 15/68/4 2/22/4
f 18/69/7 10/70/7 9/71/16 19/72/16
usemtl Asphalt.210
f 28/73/2 16/74/2 17/75/2
f 21/19/3 27/11/3 28/76/3 19/20/3
f 27/11/4 14/67/4 13/24/4 28/76/4
f 18/77/2 19/78/2 28/73/2
f 28/73/2 13/79/2 16/74/2
f 17/75/2 18/77/2 28/73/2
