# Blender v3.4.1 OBJ File: ''
# www.blender.org
mtllib roadTile_142.mtl
o roadTile_142
v 3.000000 0.600000 -2.250000
v 3.000000 0.630000 -2.250000
v 2.250000 0.630000 -2.250000
v 2.250000 0.600000 -2.250000
v 3.000000 0.630000 -0.375000
v 3.000000 0.550000 -0.375000
v 3.000000 0.000000 -0.375000
v 3.000000 0.000000 -2.625000
v 3.000000 0.550000 -2.625000
v 3.000000 0.630000 -2.625000
v 3.000000 0.300000 -2.250000
v 3.000000 0.300000 -0.750000
v 3.000000 0.600000 -0.750000
v 3.000000 0.630000 -0.750000
v 2.625000 0.630000 -0.375000
v 2.625000 0.550000 -0.375000
v 2.625000 0.630000 0.000000
v 2.250000 0.630000 -0.750000
v 2.250000 0.630000 0.000000
v 2.625000 0.550000 0.000000
v 0.375000 0.630000 0.000000
v 0.375000 0.550000 0.000000
v 0.375000 0.000000 -0.000000
v 2.625000 0.000000 -0.000000
v 0.750000 0.630000 0.000000
v 0.375000 0.630000 -0.375000
v 0.375000 0.550000 -0.375000
v 0.000000 0.630000 -0.375000
v 0.750000 0.630000 -0.750000
v 0.000000 0.630000 -0.750000
v 0.000000 0.550000 -0.375000
v 0.000000 0.000000 -2.625000
v 0.000000 0.000000 -0.375000
v 0.000000 0.600000 -0.750000
v 0.000000 0.300000 -0.750000
v 0.000000 0.300000 -2.250000
v 0.000000 0.600000 -2.250000
v 0.000000 0.630000 -2.250000
v 0.000000 0.630000 -2.625000
v 0.000000 0.550000 -2.625000
v 0.000000 0.000000 0.000000
v 0.000000 0.000000 -3.000000
v 0.375000 0.000000 -3.000000
v 2.625000 0.000000 -3.000000
v 3.000000 0.000000 -3.000000
v 3.000000 0.000000 -0.000000
v 0.000000 0.550000 0.000000
v 0.000000 0.550000 -3.000000
v 0.375000 0.550000 -2.625000
v 0.375000 0.550000 -3.000000
v 0.375000 0.630000 -2.625000
v 0.375000 0.630000 -3.000000
v 0.750000 0.630000 -2.250000
v 0.750000 0.630000 -3.000000
v 2.625000 0.630000 -3.000000
v 2.625000 0.550000 -3.000000
v 2.250000 0.630000 -3.000000
v 2.625000 0.630000 -2.625000
v 2.625000 0.550000 -2.625000
v 3.000000 0.550000 -3.000000
v 0.750000 0.600000 -2.250000
v 0.750000 0.600000 -0.750000
v 2.250000 0.600000 -0.750000
v 3.000000 0.550000 0.000000
vt 0.375000 -0.000000
vt 2.625000 -0.000000
vt 0.750000 0.300000
vt 2.625000 0.375000
vt 3.000000 0.750000
vt 2.250000 0.750000
vt 2.625000 -0.000000
vt 2.625000 0.550000
vt 2.250000 0.630000
vt 0.375000 0.375000
vt 0.750000 0.000000
vt 0.750000 0.750000
vt -2.625000 -0.000000
vt -0.375000 -0.000000
vt -2.250000 0.300000
vt 0.375000 2.625000
vt 0.000000 2.250000
vt 0.750000 2.250000
vt -0.375000 -0.000000
vt -0.375000 0.550000
vt -0.750000 0.630000
vt 2.625000 2.625000
vt 2.250000 3.000000
vt 2.250000 2.250000
vt -3.000000 0.630000
vt -2.250000 0.600000
vt -2.250000 0.630000
vt 2.250000 0.600000
vt 3.000000 0.630000
vt 2.250000 0.630000
vt -0.000000 0.630000
vt 0.750000 0.600000
vt 0.750000 0.630000
vt -0.750000 0.600000
vt 0.000000 0.630000
vt -0.750000 0.630000
vt -0.375000 0.630000
vt -0.750000 0.630000
vt -0.750000 0.600000
vt -0.375000 0.550000
vt -2.250000 0.600000
vt -2.625000 0.550000
vt 0.375000 0.630000
vt 0.375000 0.550000
vt 0.750000 0.600000
vt 0.750000 0.630000
vt 0.750000 0.630000
vt 0.375000 -0.000000
vt 2.250000 0.300000
vt 0.375000 0.550000
vt 0.375000 0.630000
vt 0.000000 0.630000
vt 0.000000 0.550000
vt 2.250000 0.000000
vt 2.625000 0.000000
vt 3.000000 0.375000
vt -0.000000 0.600000
vt -0.000000 0.630000
vt -0.750000 0.630000
vt -0.750000 0.600000
vt 0.375000 0.630000
vt 0.375000 0.550000
vt -2.250000 0.630000
vt -2.625000 -0.000000
vt 2.625000 0.630000
vt 0.375000 0.550000
vt 0.375000 0.630000
vt 0.000000 0.630000
vt 0.000000 0.550000
vt 0.000000 0.750000
vt 0.000000 0.375000
vt 0.375000 0.000000
vt 2.625000 0.550000
vt 2.250000 0.600000
vt -2.250000 0.630000
vt -2.625000 0.630000
vt -0.750000 0.300000
vt -0.000000 0.550000
vt -0.000000 0.630000
vt -0.375000 0.630000
vt -0.375000 0.550000
vt -2.625000 0.550000
vt -2.625000 0.630000
vt -3.000000 0.630000
vt -3.000000 0.550000
vt 0.750000 3.000000
vt 0.375000 3.000000
vt 0.000000 2.625000
vt -2.625000 0.630000
vt -2.625000 0.550000
vt -0.375000 0.630000
vt -2.625000 0.550000
vt -2.625000 0.630000
vt -3.000000 0.630000
vt -3.000000 0.550000
vt 3.000000 2.250000
vt 3.000000 2.625000
vt 2.625000 3.000000
vt 3.000000 0.550000
vt 3.000000 0.630000
vt 2.625000 0.630000
vt 2.625000 0.550000
vt 0.750000 2.272180
vt 2.250000 2.272180
vt 2.250000 3.022780
vt 0.750000 3.022780
vt 0.000000 0.630000
vt 0.000000 0.600000
vt 0.750000 0.600000
vt 0.750000 0.630000
vt -0.000000 0.550000
vt -0.000000 0.630000
vt -0.375000 0.630000
vt -0.375000 0.550000
vt 3.000000 0.550000
vt 3.000000 0.630000
vt 2.625000 0.630000
vt 2.625000 0.550000
vt -0.750000 0.025180
vt -2.250000 0.025180
vt -2.250000 -0.725420
vt -0.750000 -0.725420
vt -3.000000 0.630000
vt -3.000000 0.600000
vt -2.250000 0.600000
vt -2.250000 0.630000
vt 2.625000 0.630000
vt 2.250000 0.630000
vt 2.250000 0.600000
vt 3.000000 0.600000
vt 3.000000 0.630000
vt 2.250000 0.630000
vt -2.625000 3.000000
vt -3.000000 2.625000
vt -2.625000 0.000000
vt 2.625000 0.000000
vt 3.000000 0.000000
vt 3.000000 0.375000
vt 2.625000 0.375000
vt -0.000000 2.625000
vt -0.375000 3.000000
vt -0.375000 0.000000
vt -0.000000 0.000000
vt -0.000000 0.375000
vt 0.000000 3.000000
vt -3.000000 0.375000
vt -3.000000 0.000000
vt -3.000000 3.000000
vt 0.000000 0.375000
vt 0.000000 0.000000
vt 0.375000 0.000000
vt 0.375000 0.375000
vt 0.000000 0.550000
vt -3.000000 0.550000
vt -3.000000 -0.000000
vt 0.375000 3.000000
vt 0.000000 3.000000
vt 0.000000 2.625000
vt 0.375000 2.625000
vt 3.000000 -0.000000
vt 3.000000 0.550000
vt 3.000000 3.000000
vt 2.625000 3.000000
vt 2.625000 2.625000
vt 3.000000 2.625000
vt 3.000000 -0.000000
vt 3.000000 0.550000
vt -3.000000 0.550000
vt -3.000000 -0.000000
vt -0.000000 -0.000000
vt -0.000000 0.550000
vt 0.000000 0.550000
vt 0.000000 -0.000000
vt 2.250000 2.250000
vt 2.250000 0.750000
vt 3.000000 0.750000
vt 3.000000 2.250000
vt 0.750000 0.750000
vt 0.750000 2.250000
vt 0.000000 0.750000
vt 0.000000 2.250000
vn 1.0000 -0.0000 0.0000
vn 0.0000 1.0000 0.0000
vn 0.0000 -0.0000 1.0000
vn -1.0000 0.0000 0.0000
vn 0.0000 0.0000 -1.0000
vn -0.0000 0.9998 0.0200
vn 0.0000 0.9992 0.0400
vn 0.0000 0.9992 -0.0400
vn 0.0000 0.9998 -0.0200
vn 0.0000 -1.0000 -0.0000
usemtl Stone.121
s 1
f 7/1/1 8/2/1 12/3/1
f 15/4/2 14/5/2 18/6/2
f 24/7/3 20/8/3 19/9/3
f 26/10/2 25/11/2 29/12/2
f 32/13/4 33/14/4 36/15/4
f 51/16/2 38/17/2 53/18/2
f 43/19/5 50/20/5 54/21/5
f 58/22/2 57/23/2 3/24/2
f 57/25/4 4/26/4 3/27/4
f 61/28/1 54/29/1 53/30/1
f 25/31/1 62/32/1 29/33/1
f 63/34/4 19/35/4 18/36/4
f 28/37/4 30/38/4 34/39/4 31/40/4
f 36/15/4 37/41/4 40/42/4 32/13/4
f 5/43/1 6/44/1 13/45/1 14/46/1
f 19/9/3 25/47/3 23/48/3 24/7/3
f 8/2/1 11/49/1 12/3/1
f 16/50/1 15/51/1 17/52/1 20/53/1
f 19/54/2 17/55/2 15/4/2
f 15/4/2 5/56/2 14/5/2
f 18/6/2 19/54/2 15/4/2
f 34/57/5 30/58/5 29/59/5 62/60/5
f 25/47/3 21/61/3 22/62/3
f 22/62/3 23/48/3 25/47/3
f 54/21/5 57/63/5 44/64/5 43/19/5
f 20/8/3 17/65/3 19/9/3
f 27/66/3 26/67/3 28/68/3 31/69/3
f 30/70/2 28/71/2 26/10/2
f 26/10/2 21/72/2 25/11/2
f 29/12/2 30/70/2 26/10/2
f 9/73/1 1/74/1 11/49/1 8/2/1
f 37/41/4 38/75/4 39/76/4 40/42/4
f 13/45/1 6/44/1 7/1/1 12/3/1
f 33/14/4 35/77/4 36/15/4
f 31/40/4 34/39/4 35/77/4 33/14/4
f 40/78/5 39/79/5 51/80/5 49/81/5
f 49/82/4 51/83/4 52/84/4 50/85/4
f 54/86/2 52/87/2 51/16/2
f 51/16/2 39/88/2 38/17/2
f 53/18/2 54/86/2 51/16/2
f 57/63/5 55/89/5 56/90/5
f 56/90/5 44/64/5 57/63/5
f 50/20/5 52/91/5 54/21/5
f 59/92/5 58/93/5 10/94/5 9/95/5
f 2/96/2 10/97/2 58/22/2
f 58/22/2 55/98/2 57/23/2
f 3/24/2 2/96/2 58/22/2
f 56/99/1 55/100/1 58/101/1 59/102/1
f 61/103/6 4/104/6 57/105/7 54/106/7
f 38/107/3 37/108/3 61/109/3 53/110/3
f 22/111/4 21/112/4 26/113/4 27/114/4
f 6/115/3 5/116/3 15/117/3 16/118/3
f 25/119/8 19/120/8 63/121/9 62/122/9
f 14/123/5 13/124/5 63/125/5 18/126/5
f 10/127/1 2/128/1 1/74/1 9/73/1
f 4/129/3 1/130/3 2/131/3 3/132/3
usemtl Grass.048
f 44/133/10 8/134/10 24/135/10
f 20/136/2 64/137/2 6/138/2 16/139/2
f 32/140/10 43/141/10 24/135/10 23/142/10
f 23/142/10 41/143/10 33/144/10
f 32/140/10 42/145/10 43/141/10
f 23/142/10 33/144/10 32/140/10
f 7/146/10 46/147/10 24/135/10
f 43/141/10 44/133/10 24/135/10
f 44/133/10 45/148/10 8/134/10
f 8/134/10 7/146/10 24/135/10
f 31/149/2 47/150/2 22/151/2 27/152/2
f 41/143/4 47/153/4 31/40/4 33/14/4
f 48/154/4 42/155/4 32/13/4 40/42/4
f 50/156/2 48/157/2 40/158/2 49/159/2
f 45/160/1 60/161/1 9/73/1 8/2/1
f 60/162/2 56/163/2 59/164/2 9/165/2
f 46/166/3 64/167/3 20/8/3 24/7/3
f 47/153/3 41/143/3 23/48/3 22/62/3
f 60/168/5 45/169/5 44/64/5 56/90/5
f 42/170/5 48/171/5 50/20/5 43/19/5
f 64/172/1 46/173/1 7/1/1 6/44/1
usemtl Asphalt.094
f 34/39/4 37/41/4 36/15/4 35/77/4
f 4/174/6 63/175/9 13/176/2 1/177/2
f 62/178/9 63/175/9 4/174/6 61/179/6
f 34/180/2 62/178/9 61/179/6 37/181/2
f 1/74/1 13/45/1 12/3/1 11/49/1
