# Blender v3.4.1 OBJ File: ''
# www.blender.org
mtllib roadTile_002.mtl
o roadTile_002
v 0.000000 0.630000 0.000000
v 0.000000 0.000000 0.000000
v 3.000000 0.000000 -0.000000
v 3.000000 0.630000 0.000000
v 0.000000 0.000000 -3.000000
v 0.000000 0.630000 -3.000000
v 3.000000 0.000000 -3.000000
v 3.000000 0.630000 -3.000000
vt -3.000000 3.000000
vt -3.000000 0.000000
vt -0.000000 -0.000000
vt 0.000000 3.000000
vt -0.000000 0.630000
vt -3.000000 0.630000
vt -3.000000 0.000000
vt -0.000000 0.000000
vt -0.000000 0.630000
vt -0.000000 -0.000000
vt 3.000000 -0.000000
vt 3.000000 0.630000
vt 3.000000 3.000000
vt 0.000000 3.000000
vt 0.000000 -0.000000
vt 3.000000 0.000000
vt 3.000000 0.630000
vt 0.000000 0.630000
vt 3.000000 0.000000
vt -3.000000 0.630000
vt -3.000000 0.000000
vn 0.0000 -1.0000 -0.0000
vn 0.0000 0.0000 -1.0000
vn 1.0000 0.0000 0.0000
vn 0.0000 1.0000 0.0000
vn 0.0000 -0.0000 1.0000
vn -1.0000 -0.0000 0.0000
usemtl Stone
s 1
f 7/1/1 3/2/1 2/3/1 5/4/1
f 6/5/2 8/6/2 7/7/2 5/8/2
f 4/9/3 3/10/3 7/11/3 8/12/3
f 8/13/4 6/14/4 1/15/4 4/16/4
f 4/17/5 1/18/5 2/3/5 3/19/5
f 6/20/6 5/21/6 2/3/6 1/18/6
