# Blender v3.4.1 OBJ File: ''
# www.blender.org
mtllib roadTile_232.mtl
o roadTile_232
v 0.000000 1.150000 -1.875000
v 3.000000 0.600000 -1.875000
v 3.000000 0.630000 -1.875000
v 0.000000 1.180000 -1.875000
v 0.000000 1.150000 -0.375000
v 3.000000 0.600000 -0.375000
v 0.000000 0.850000 -1.875000
v 0.000000 0.850000 -0.375000
v 0.000000 0.000000 -2.250000
v 0.000000 0.000000 0.000000
v 0.000000 1.180000 0.000000
v 0.000000 1.180000 -0.375000
v 0.000000 1.180000 -2.250000
v 3.000000 0.000000 -0.000000
v 3.000000 0.000000 -2.250000
v 3.000000 0.630000 0.000000
v 3.000000 0.630000 -0.375000
v 3.000000 0.630000 -2.250000
v 3.000000 0.300000 -1.875000
v 3.000000 0.300000 -0.375000
vt 0.000000 0.000000
vt 2.250000 0.000000
vt 1.875000 0.300000
vt -3.000000 0.630000
vt -3.000000 0.600000
vt -0.000000 1.150000
vt -0.000000 1.180000
vt 1.875000 0.212787
vt 1.875000 -2.837210
vt 2.250000 -2.837210
vt 2.250000 0.212787
vt 0.000000 0.000000
vt -0.000000 1.180000
vt -0.375000 0.850000
vt -0.375000 1.180000
vt -0.375000 1.150000
vt -1.875000 1.180000
vt -2.250000 1.180000
vt -1.875000 1.150000
vt -2.250000 0.000000
vt -1.875000 0.850000
vt 0.375000 -2.837210
vt 0.375000 0.212787
vt 0.000000 0.212787
vt 0.000000 -2.837210
vt 3.000000 0.630000
vt 0.000000 1.180000
vt 0.000000 1.150000
vt 3.000000 0.600000
vt 0.375000 0.600000
vt 0.375000 0.630000
vt 0.000000 0.630000
vt 0.375000 0.300000
vt 2.250000 0.630000
vt 1.875000 0.630000
vt 1.875000 0.600000
vt -0.000000 0.000000
vt -0.000000 1.180000
vt -3.000000 0.630000
vt -3.000000 0.000000
vt 3.000000 0.630000
vt 3.000000 0.000000
vt -3.000000 2.250000
vt -3.000000 0.000000
vt -0.000000 2.250000
vt 0.375000 -2.842620
vt 1.875000 -2.842620
vt 1.875000 0.207377
vt 0.375000 0.207377
vn 1.0000 0.0000 0.0000
vn -0.0000 0.0000 -1.0000
vn 0.1803 0.9836 0.0000
vn -1.0000 0.0000 -0.0000
vn 0.0000 0.0000 1.0000
vn 0.0000 -1.0000 -0.0000
usemtl Stone.188
s 1
f 14/1/1 15/2/1 19/3/1
f 17/4/2 6/5/2 5/6/2 12/7/2
f 4/8/3 3/9/3 18/10/3 13/11/3
f 10/12/4 11/13/4 8/14/4
f 11/13/4 12/15/4 5/16/4
f 5/16/4 8/14/4 11/13/4
f 4/17/4 13/18/4 1/19/4
f 13/18/4 9/20/4 7/21/4
f 1/19/4 13/18/4 7/21/4
f 17/22/3 12/23/3 11/24/3 16/25/3
f 3/26/5 4/27/5 1/28/5 2/29/5
f 6/30/1 17/31/1 16/32/1
f 16/32/1 14/1/1 20/33/1 6/30/1
f 18/34/1 3/35/1 2/36/1
f 9/20/4 10/12/4 8/14/4 7/21/4
f 19/3/1 20/33/1 14/1/1
f 9/37/2 13/38/2 18/39/2 15/40/2
f 2/36/1 19/3/1 15/2/1 18/34/1
f 16/41/5 11/13/5 10/12/5 14/42/5
f 15/43/6 14/44/6 10/12/6 9/45/6
usemtl Asphalt.157
f 5/16/4 1/19/4 7/21/4 8/14/4
f 6/46/3 2/47/3 1/48/3 5/49/3
f 19/3/1 2/36/1 6/30/1 20/33/1
