# Blender v3.4.1 OBJ File: ''
# www.blender.org
mtllib roadTile_266.mtl
o roadTile_266
v 3.000000 0.000000 -0.000000
v 3.000000 0.000000 -3.000000
v 3.000000 0.630000 -3.000000
v 3.000000 0.630000 -1.875000
v 3.000000 0.600000 -1.875000
v 3.000000 0.300000 -1.875000
v 3.000000 0.300000 -1.125000
v 3.000000 0.600000 -1.125000
v 3.000000 0.630000 -1.125000
v 3.000000 0.630000 0.000000
v 0.000000 0.000000 -3.000000
v 0.000000 0.000000 -0.000000
v 1.125000 0.630000 -3.000000
v 1.125000 0.600001 -3.000000
v 1.125000 0.315000 -3.000000
v 1.875000 0.315000 -3.000000
v 1.875000 0.600001 -3.000000
v 1.875000 0.630000 -3.000000
v 0.000000 0.630000 -3.000000
v 1.125000 0.630000 -1.875000
v 1.125000 0.600000 -1.875000
v 0.000000 0.630000 -1.875000
v 0.000000 0.600000 -1.875000
v 0.000000 0.630000 0.000000
v 0.000000 0.630000 -1.125000
v 0.000000 0.600000 -1.125000
v 0.000000 0.300000 -1.125000
v 0.000000 0.300000 -1.875000
v 1.875000 0.630000 0.000000
v 1.875000 0.600000 0.000000
v 1.875000 0.315000 0.000000
v 1.125000 0.315000 0.000000
v 1.125000 0.600000 0.000000
v 1.125000 0.630000 0.000000
v 1.875000 0.630000 -1.125000
v 1.875000 0.600000 -1.125000
v 1.875000 0.600000 -1.875000
v 1.125000 0.600000 -1.125000
v 1.875000 0.630000 -1.875000
v 1.125000 0.630000 -1.125000
vt 0.000000 0.000000
vt 3.000000 0.000000
vt 1.125000 0.300000
vt -1.875000 0.315000
vt -3.000000 -0.000000
vt -0.000000 -0.000000
vt -1.125000 0.300000
vt -1.875000 0.300000
vt -3.000000 0.000000
vt 1.125000 0.315000
vt 0.000000 0.000000
vt 3.000000 0.000000
vt -0.000000 0.630000
vt -1.125000 0.600000
vt -1.125000 0.315000
vt 3.000000 0.630000
vt 1.875000 0.630000
vt 1.875000 0.600000
vt 1.125000 0.630000
vt 0.000000 0.630000
vt 1.125000 0.600000
vt -1.875000 0.600000
vt -3.000000 0.630000
vt 1.875000 0.300000
vt 1.125000 0.600000
vt 1.125000 0.630000
vt -0.000000 0.630000
vt -0.000000 0.600000
vt -1.125000 0.630000
vt -1.875000 0.600000
vt -3.000000 0.630000
vt -1.875000 0.630000
vt 3.000000 0.630000
vt 1.875000 0.600000
vt 1.875000 0.315000
vt 0.000000 3.000000
vt 0.000000 1.875000
vt 1.125000 1.875000
vt 1.125000 3.000000
vt 1.125000 0.600000
vt 1.125000 0.630000
vt 0.000000 0.630000
vt 0.000000 0.600000
vt 0.000000 0.600000
vt 0.000000 0.630000
vt -1.125000 0.630000
vt -1.125000 0.600000
vt -0.000000 0.630000
vt -1.125000 0.630000
vt -1.125000 0.600000
vt -1.875000 0.630000
vt 1.875000 0.630000
vt 1.125000 0.600000
vt 1.125000 0.630000
vt 3.000000 0.000000
vt 3.000000 1.125000
vt 1.875000 1.125000
vt 1.875000 0.000000
vt -1.875000 0.600000
vt -1.875000 0.630000
vt -3.000000 0.630000
vt -3.000000 0.600000
vt 3.000000 0.600000
vt 3.000000 0.630000
vt 1.875000 0.630000
vt 1.875000 0.600000
vt 3.000000 1.875000
vt 3.000000 3.000000
vt 1.875000 3.000000
vt 1.875000 1.875000
vt 0.000000 0.600000
vt 0.000000 0.630000
vt -1.125000 0.630000
vt -1.125000 0.600000
vt -1.875000 0.600000
vt -1.875000 0.630000
vt -3.000000 0.630000
vt -3.000000 0.600000
vt 3.000000 0.600000
vt 3.000000 0.630000
vt 1.875000 0.630000
vt 1.875000 0.600000
vt 0.000000 1.125000
vt 0.000000 0.000000
vt 1.125000 0.000000
vt 1.125000 1.125000
vt 0.000000 3.000000
vt -3.000000 3.000000
vt -3.000000 0.000000
vt -0.000000 1.125000
vt 1.125000 1.125000
vt 1.125000 1.875000
vt -0.000000 1.875000
vt 1.125000 0.000000
vt 1.875000 0.000000
vt 1.875000 1.125000
vt 1.875000 1.875000
vt 1.125000 3.000000
vt 1.875000 3.000000
vt 3.000000 1.125000
vt 3.000000 1.875000
vn 1.0000 -0.0000 0.0000
vn 0.0000 0.0000 -1.0000
vn -1.0000 0.0000 0.0000
vn 0.0000 -0.0000 1.0000
vn 0.0000 1.0000 0.0000
vn 0.0000 -1.0000 -0.0000
usemtl Stone.222
s 1
f 1/1/1 2/2/1 7/3/1
f 16/4/2 2/5/2 11/6/2
f 27/7/3 28/8/3 11/9/3
f 32/10/4 12/11/4 1/12/4
f 11/6/2 19/13/2 14/14/2 15/15/2
f 3/16/1 4/17/1 5/18/1
f 9/19/1 10/20/1 8/21/1
f 23/22/3 19/23/3 11/9/3 28/8/3
f 2/2/1 6/24/1 7/3/1
f 38/25/1 40/26/1 34/27/1 33/28/1
f 19/13/2 13/29/2 14/14/2
f 17/30/2 3/31/2 2/5/2 16/4/2
f 18/32/2 3/31/2 17/30/2
f 1/12/4 10/33/4 30/34/4 31/35/4
f 11/6/2 15/15/2 16/4/2
f 19/36/5 22/37/5 20/38/5 13/39/5
f 21/40/4 20/41/4 22/42/4 23/43/4
f 26/44/2 25/45/2 40/46/2 38/47/2
f 5/18/1 6/24/1 2/2/1 3/16/1
f 24/48/3 25/49/3 26/50/3
f 22/51/3 19/23/3 23/22/3
f 26/50/3 27/7/3 12/11/3 24/48/3
f 12/11/3 27/7/3 11/9/3
f 10/33/4 29/52/4 30/34/4
f 33/53/4 24/48/4 12/11/4 32/10/4
f 34/54/4 24/48/4 33/53/4
f 1/12/4 31/35/4 32/10/4
f 10/55/5 9/56/5 35/57/5 29/58/5
f 36/59/2 35/60/2 9/61/2 8/62/2
f 5/63/4 4/64/4 39/65/4 37/66/4
f 4/67/5 3/68/5 18/69/5 39/70/5
f 8/21/1 10/20/1 1/1/1 7/3/1
f 30/71/3 29/72/3 35/73/3 36/74/3
f 37/75/3 39/76/3 18/77/3 17/78/3
f 14/79/1 13/80/1 20/81/1 21/82/1
f 25/83/5 24/84/5 34/85/5 40/86/5
f 12/11/6 11/87/6 2/88/6 1/89/6
usemtl Asphalt.180
f 6/24/1 5/18/1 8/21/1 7/3/1
f 31/35/4 30/34/4 33/53/4 32/10/4
f 26/90/5 38/91/5 21/92/5 23/93/5
f 38/91/5 33/94/5 30/95/5 36/96/5
f 21/92/5 38/91/5 36/96/5 37/97/5
f 15/15/2 14/14/2 17/30/2 16/4/2
f 27/7/3 26/50/3 23/22/3 28/8/3
f 14/98/5 21/92/5 37/97/5 17/99/5
f 36/96/5 8/100/5 5/101/5 37/97/5
