# Blender v3.4.1 OBJ File: ''
# www.blender.org
mtllib roadTile_258.mtl
o roadTile_258
v 0.000000 0.000000 -0.000000
v 0.000000 0.000000 -3.000000
v 3.000000 0.000000 -3.000000
v 3.000000 0.000000 -0.000000
v 0.000000 1.650000 0.000000
v 0.000000 1.650000 -0.750000
v 0.000000 0.600000 -0.750000
v 0.000000 0.300000 -0.750000
v 0.000000 0.300000 -2.250000
v 0.000000 0.600000 -2.250000
v 0.000000 1.650000 -2.250000
v 0.000000 1.650000 -3.000000
v 3.000000 0.630000 0.000000
v 3.000000 0.630000 -0.750000
v 3.000000 0.630000 -3.000000
v 3.000000 0.630000 -2.250000
v 3.000000 0.600000 -2.250000
v 3.000000 0.300000 -2.250000
v 3.000000 0.300000 -0.750000
v 3.000000 0.600000 -0.750000
vt -2.250000 0.300000
vt -3.000000 0.000000
vt -0.000000 0.000000
vt 2.250000 0.300000
vt 0.750000 0.300000
vt 0.000000 -0.000000
vt -3.000000 1.650000
vt -2.250000 0.600000
vt -2.250000 1.650000
vt -0.750000 0.600000
vt -0.750000 0.300000
vt -3.000000 0.630000
vt -3.000000 -0.000000
vt -0.000000 -0.000000
vt -0.000000 1.650000
vt -0.000000 1.650000
vt -0.750000 1.650000
vt 3.000000 0.630000
vt 2.250000 0.630000
vt 2.250000 0.600000
vt 0.750000 0.630000
vt -0.000000 0.630000
vt 0.750000 0.600000
vt 3.000000 -0.000000
vt -3.000000 0.630000
vt -3.000000 0.600000
vt -0.000000 0.600000
vt -0.000000 1.650000
vt 3.000000 -0.000000
vt 3.000000 0.630000
vt 3.000000 -2.637520
vt 3.000000 0.531139
vt 2.250000 0.531139
vt 2.250000 -2.637520
vt 0.750000 -2.637520
vt 0.750000 0.531139
vt 0.000000 0.531139
vt -0.000000 -2.637520
vt 0.000000 0.600000
vt 3.000000 0.600000
vt 3.000000 0.630000
vt 0.000000 1.650000
vt -3.000000 0.000000
vt 0.000000 3.000000
vt -3.000000 3.000000
vt 0.000000 0.750000
vt 3.000000 0.750000
vt 3.000000 2.250000
vt 0.000000 2.250000
vn -1.0000 0.0000 0.0000
vn 1.0000 -0.0000 0.0000
vn 0.0000 0.0000 -1.0000
vn 0.0000 -0.0000 1.0000
vn 0.3219 0.9468 0.0000
vn 0.0000 -1.0000 -0.0000
vn 0.0000 1.0000 0.0000
usemtl Stone.214
s 1
f 9/1/1 2/2/1 1/3/1
f 18/4/2 19/5/2 4/6/2
f 12/7/1 2/2/1 10/8/1 11/9/1
f 7/10/1 8/11/1 1/3/1
f 9/1/1 10/8/1 2/2/1
f 1/3/1 8/11/1 9/1/1
f 15/12/3 3/13/3 2/14/3 12/15/3
f 5/16/1 6/17/1 7/10/1 1/3/1
f 15/18/2 16/19/2 17/20/2
f 14/21/2 13/22/2 20/23/2
f 17/20/2 18/4/2 3/24/2 15/18/2
f 3/24/2 18/4/2 4/6/2
f 14/25/3 20/26/3 7/27/3 6/28/3
f 1/3/4 4/29/4 13/30/4 5/16/4
f 15/31/5 12/32/5 11/33/5 16/34/5
f 14/35/5 6/36/5 5/37/5 13/38/5
f 10/39/4 17/40/4 16/41/4 11/42/4
f 20/23/2 13/22/2 4/6/2 19/5/2
f 4/43/6 1/3/6 2/44/6 3/45/6
usemtl Asphalt.175
f 8/11/1 7/10/1 10/8/1 9/1/1
f 7/46/7 20/47/7 17/48/7 10/49/7
f 18/4/2 17/20/2 20/23/2 19/5/2
