# Blender v3.4.1 OBJ File: ''
# www.blender.org
mtllib roadTile_094.mtl
o roadTile_094
v 3.000000 0.630000 -0.937500
v 1.500000 0.630000 -0.937500
v 1.500000 0.630000 -1.125000
v 3.000000 0.630000 -1.125000
v 3.000000 0.630000 -1.875000
v 1.500000 0.630000 -1.875000
v 1.500000 0.630000 -2.062500
v 3.000000 0.630000 -2.062500
v 3.000000 0.630000 -3.000000
v 0.000000 0.630000 -3.000000
v 0.000000 0.630000 0.000000
v 3.000000 0.630000 0.000000
v 3.000000 0.570000 -0.937500
v 1.500000 0.570000 -0.937500
v 3.000000 0.000000 0.000000
v 3.000000 0.000000 -3.000000
v 3.000000 0.570000 -2.062500
v 3.000000 0.570000 -1.875000
v 3.000000 0.570000 -1.125000
v 0.000000 0.000000 -0.000000
v 0.000000 0.000000 -3.000000
v 1.500000 0.570000 -2.062500
v 1.500000 0.570000 -1.875000
v 1.500000 0.570000 -1.125000
vt 3.000000 -0.000000
vt 1.875000 0.570000
vt 1.125000 0.570000
vt 3.000000 0.000000
vt 3.000000 0.937500
vt 1.500000 0.937500
vt 0.000000 0.000000
vt 1.500000 1.125000
vt 3.000000 2.062500
vt 3.000000 3.000000
vt 1.500000 2.062500
vt 0.000000 3.000000
vt 1.500000 1.875000
vt 3.000000 0.630000
vt 2.062500 0.630000
vt 2.062500 0.570000
vt -0.000000 -0.000000
vt 0.937500 0.570000
vt -3.000000 3.000000
vt -3.000000 -0.000000
vt -0.000000 0.000000
vt 0.000000 3.000000
vt 3.000000 0.630000
vt 0.000000 0.630000
vt 3.000000 0.000000
vt -3.000000 0.630000
vt -3.000000 -0.000000
vt -0.000000 0.630000
vt -3.000000 0.630000
vt -3.000000 0.000000
vt -0.000000 0.000000
vt 1.875000 0.630000
vt 1.125000 0.630000
vt 0.937500 0.630000
vt 0.000000 0.630000
vt 3.000000 1.875000
vt 3.000000 1.125000
vt 1.125000 0.570000
vt 1.125000 0.630000
vt 0.937500 0.630000
vt 0.937500 0.570000
vt 3.000000 0.570000
vt 3.000000 0.630000
vt 1.500000 0.630000
vt 1.500000 0.570000
vt 3.000000 0.570000
vt 3.000000 0.630000
vt 1.500000 0.630000
vt 1.500000 0.570000
vt 2.062500 0.570000
vt 2.062500 0.630000
vt 1.875000 0.630000
vt 1.875000 0.570000
vt -1.500000 0.570000
vt -1.500000 0.630000
vt -3.000000 0.630000
vt -3.000000 0.570000
vt 3.000000 0.937500
vt 3.000000 1.125000
vt 1.500000 1.125000
vt 1.500000 0.937500
vt 1.500000 1.875000
vt 3.000000 1.875000
vt 3.000000 2.062500
vt 1.500000 2.062500
vt -1.500000 0.570000
vt -1.500000 0.630000
vt -3.000000 0.630000
vt -3.000000 0.570000
vn 1.0000 0.0000 0.0000
vn 0.0000 1.0000 0.0000
vn 0.0000 -1.0000 -0.0000
vn -0.0000 -0.0000 1.0000
vn -1.0000 -0.0000 0.0000
vn 0.0000 0.0000 -1.0000
usemtl Stone.074
s 1
f 16/1/1 18/2/1 19/3/1
f 12/4/2 1/5/2 2/6/2
f 11/7/2 12/4/2 2/6/2
f 11/7/2 2/6/2 3/8/2
f 8/9/2 9/10/2 7/11/2
f 9/10/2 10/12/2 7/11/2
f 6/13/2 7/11/2 10/12/2
f 9/14/1 8/15/1 17/16/1 16/1/1
f 15/17/1 16/1/1 19/3/1
f 13/18/1 15/17/1 19/3/1
f 10/12/2 11/7/2 3/8/2 6/13/2
f 16/19/3 15/20/3 20/21/3 21/22/3
f 16/1/1 17/16/1 18/2/1
f 12/23/4 11/24/4 20/21/4 15/25/4
f 20/21/5 11/24/5 10/26/5 21/27/5
f 10/28/6 9/29/6 16/30/6 21/31/6
f 18/2/1 5/32/1 4/33/1 19/3/1
f 13/18/1 1/34/1 12/35/1 15/17/1
f 5/36/2 6/13/2 3/8/2 4/37/2
usemtl Grey_Asphalt.006
f 24/38/1 3/39/1 2/40/1 14/41/1
f 19/42/4 4/43/4 3/44/4 24/45/4
f 17/46/4 8/47/4 7/48/4 22/49/4
f 22/50/1 7/51/1 6/52/1 23/53/1
f 23/54/6 6/55/6 5/56/6 18/57/6
f 13/58/2 19/59/2 24/60/2 14/61/2
f 23/62/2 18/63/2 17/64/2 22/65/2
f 14/66/6 2/67/6 1/68/6 13/69/6
