# Blender v3.4.1 OBJ File: ''
# www.blender.org
mtllib roadTile_262.mtl
o roadTile_262
v 0.000000 1.700000 -1.875000
v 0.000000 1.400000 -1.875000
v 0.000000 1.400000 -0.375000
v 0.000000 1.700000 -0.375000
v 0.000000 1.100000 -2.250000
v 0.000000 1.100000 0.000000
v 0.000000 1.730000 0.000000
v 0.000000 1.730000 -0.375000
v 0.000000 1.730000 -1.875000
v 0.000000 1.730000 -2.250000
v 3.000000 0.000000 -0.000000
v 3.000000 0.000000 -2.250000
v 3.000000 1.730000 0.000000
v 3.000000 1.730000 -0.375000
v 3.000000 1.730000 -2.250000
v 3.000000 1.730000 -1.875000
v 3.000000 1.700000 -1.875000
v 3.000000 1.400000 -1.875000
v 3.000000 1.400000 -0.375000
v 3.000000 1.700000 -0.375000
vt 3.000000 0.375000
vt 3.000000 1.875000
vt 0.000000 1.875000
vt 0.000000 0.375000
vt 1.875000 1.700000
vt 0.375000 1.700000
vt 0.375000 1.400000
vt 1.875000 1.400000
vt -0.375000 1.700000
vt -1.875000 1.700000
vt -1.875000 1.400000
vt -0.375000 1.400000
vt -2.250000 1.100000
vt 0.000000 1.875000
vt 3.000000 1.875000
vt 3.000000 2.250000
vt 0.000000 2.250000
vt -2.250000 1.730000
vt -0.000000 1.730000
vt -0.375000 1.730000
vt -1.875000 1.730000
vt 0.000000 1.100000
vt -3.000000 1.730000
vt -3.000000 -0.000000
vt -0.000000 1.100000
vt -0.000000 1.730000
vt 0.375000 1.730000
vt 0.000000 1.730000
vt 2.250000 0.000000
vt 2.250000 1.730000
vt 1.875000 1.730000
vt 0.000000 0.000000
vt 3.000000 0.375000
vt 0.000000 0.375000
vt 0.000000 0.000000
vt 3.000000 0.000000
vt -3.000000 1.730000
vt -3.000000 1.700000
vt -0.000000 1.700000
vt -0.000000 1.730000
vt -2.250000 -2.816630
vt -0.000000 -2.816630
vt 0.000000 0.378680
vt -2.250000 0.378680
vt 0.000000 1.730000
vt 0.000000 1.700000
vt 3.000000 1.700000
vt 3.000000 1.730000
vt 3.000000 0.000000
vt 3.000000 1.730000
vn 0.0000 1.0000 0.0000
vn 1.0000 0.0000 0.0000
vn -1.0000 0.0000 -0.0000
vn 0.0000 0.0000 -1.0000
vn -0.3443 -0.9389 -0.0000
vn 0.0000 0.0000 1.0000
usemtl Asphalt.179
s 1
f 20/1/1 17/2/1 1/3/1 4/4/1
f 17/5/2 20/6/2 19/7/2 18/8/2
f 4/9/3 1/10/3 2/11/3 3/12/3
usemtl Stone.218
f 3/12/3 2/11/3 5/13/3
f 9/14/1 16/15/1 15/16/1 10/17/1
f 1/10/3 10/18/3 5/13/3 2/11/3
f 7/19/3 8/20/3 4/9/3
f 9/21/3 10/18/3 1/10/3
f 6/22/3 3/12/3 5/13/3
f 15/23/4 12/24/4 5/25/4 10/26/4
f 20/6/2 14/27/2 13/28/2
f 12/29/2 15/30/2 18/8/2
f 15/30/2 16/31/2 17/5/2
f 17/5/2 18/8/2 15/30/2
f 20/6/2 13/28/2 19/7/2
f 13/28/2 11/32/2 19/7/2
f 4/9/3 3/12/3 6/22/3 7/19/3
f 14/33/1 8/34/1 7/35/1 13/36/1
f 14/37/4 20/38/4 4/39/4 8/40/4
f 12/41/5 11/42/5 6/43/5 5/44/5
f 9/45/6 1/46/6 17/47/6 16/48/6
f 19/7/2 11/32/2 12/29/2 18/8/2
f 6/22/6 11/49/6 13/50/6 7/19/6
