# Blender v3.4.1 OBJ File: ''
# www.blender.org
mtllib roadTile_280.mtl
o roadTile_280
v 1.402940 0.600000 -1.137780
v 1.500000 0.600000 -1.125000
v 3.000000 0.600000 -1.125000
v 3.000000 0.600000 -1.875000
v 1.500000 0.600000 -1.875000
v 1.402940 0.600000 -1.862220
v 1.312500 0.600000 -1.824760
v 1.234830 0.600000 -1.765170
v 1.175240 0.600000 -1.687500
v 1.137780 0.600000 -1.597060
v 1.125000 0.600000 -1.500000
v 1.137780 0.600000 -1.402940
v 1.175240 0.600000 -1.312500
v 1.234830 0.600000 -1.234840
v 1.312500 0.600000 -1.175240
v 1.402940 0.630000 -1.137780
v 1.500000 0.630000 -1.125000
v 1.402940 0.630000 -1.862220
v 1.500000 0.630000 -1.875000
v 3.000000 0.630000 -1.875000
v 3.000000 0.630000 -3.000000
v 0.000000 0.630000 -3.000000
v 0.000000 0.630000 0.000000
v 3.000000 0.630000 0.000000
v 3.000000 0.630000 -1.125000
v 1.312500 0.630000 -1.175240
v 1.234830 0.630000 -1.234840
v 1.175240 0.630000 -1.312500
v 1.137780 0.630000 -1.402940
v 1.125000 0.630000 -1.500000
v 1.137780 0.630000 -1.597060
v 1.175240 0.630000 -1.687500
v 1.234830 0.630000 -1.765170
v 1.312500 0.630000 -1.824760
v 3.000000 0.000000 0.000000
v 3.000000 0.000000 -3.000000
v 3.000000 0.300000 -1.875000
v 3.000000 0.300000 -1.125000
v 0.000000 0.000000 -3.000000
v 0.000000 0.000000 -0.000000
vt 1.312500 1.175240
vt 1.402940 1.137780
vt 1.234830 1.234840
vt 1.500000 1.125000
vt 1.875000 0.300000
vt 1.875000 0.600000
vt 1.125000 0.600000
vt 1.125000 0.300000
vt 1.402940 1.862220
vt 1.312500 1.824760
vt 1.137780 1.597060
vt 1.234830 1.765170
vt 1.175240 1.687500
vt 1.125000 1.500000
vt 1.137780 1.402940
vt 1.175240 1.312500
vt 1.500000 1.875000
vt 3.000000 1.875000
vt 3.000000 1.125000
vt 1.125000 1.500000
vt 1.137780 1.597060
vt 0.000000 3.000000
vt 0.000000 -0.000000
vt 3.000000 -0.000000
vt 1.731900 0.600000
vt 1.731900 0.630000
vt 1.634010 0.630000
vt 1.634010 0.600000
vt 1.500000 1.875000
vt 3.000000 1.875000
vt 3.000000 3.000000
vt 0.000000 0.000000
vt 3.000000 0.000000
vt 1.500000 1.125000
vt 3.000000 1.125000
vt 1.402940 1.862220
vt 1.402940 1.137780
vt 1.312500 1.175240
vt 1.312500 1.824760
vt 1.234830 1.765170
vt 1.234830 1.234840
vt 1.175240 1.312500
vt 1.175240 1.687500
vt 1.137780 1.402940
vt 2.008790 0.600000
vt 2.008790 0.630000
vt 1.910900 0.630000
vt 1.910900 0.600000
vt 2.152120 0.600000
vt 2.152120 0.630000
vt 2.054220 0.630000
vt 2.054220 0.600000
vt 2.152120 0.600000
vt 2.152120 0.630000
vt 2.054220 0.630000
vt 2.054220 0.600000
vt 2.008790 0.600000
vt 2.008790 0.630000
vt 1.910900 0.630000
vt 1.910900 0.600000
vt 1.731900 0.600000
vt 1.731900 0.630000
vt 1.634010 0.630000
vt 1.634010 0.600000
vt 1.340330 0.600000
vt 1.340330 0.630000
vt 1.242430 0.630000
vt 1.242430 0.600000
vt 0.860742 0.600000
vt 0.860742 0.630000
vt 0.762847 0.630000
vt 0.762847 0.600000
vt 0.325835 0.600000
vt 0.325835 0.630000
vt 0.227941 0.630000
vt 0.227941 0.600000
vt -0.227940 0.600000
vt -0.227940 0.630000
vt -0.325835 0.630000
vt -0.325835 0.600000
vt -0.762847 0.600000
vt -0.762847 0.630000
vt -0.860741 0.630000
vt -0.860741 0.600000
vt 3.000000 0.600000
vt 3.000000 0.630000
vt 1.500000 0.630000
vt 1.500000 0.600000
vt 3.000000 0.630000
vt -0.000000 0.630000
vt -0.000000 0.000000
vt 3.000000 0.000000
vt 0.000000 0.630000
vt 3.000000 0.630000
vt 1.875000 0.630000
vt 1.125000 0.630000
vt -0.000000 0.630000
vt -3.000000 0.630000
vt -3.000000 0.000000
vt -0.000000 0.000000
vt -1.500000 0.600000
vt -1.500000 0.630000
vt -3.000000 0.630000
vt -3.000000 0.600000
vt -0.000000 3.000000
vt -3.000000 3.000000
vt -3.000000 0.000000
vt -3.000000 -0.000000
vt -3.000000 0.630000
vt -1.242430 0.600000
vt -1.242430 0.630000
vt -1.340330 0.630000
vt -1.340330 0.600000
vn 0.0000 1.0000 0.0000
vn 1.0000 -0.0000 0.0000
vn 0.0654 0.0000 0.9979
vn 0.2588 0.0000 0.9659
vn 0.5000 0.0000 0.8660
vn 0.7071 0.0000 0.7071
vn 0.8660 0.0000 0.5000
vn 0.9659 0.0000 0.2588
vn 0.9659 0.0000 -0.2588
vn 0.8660 0.0000 -0.5000
vn 0.7071 0.0000 -0.7071
vn 0.5000 0.0000 -0.8660
vn 0.2588 0.0000 -0.9659
vn 0.0000 0.0000 1.0000
vn 0.0000 0.0000 -1.0000
vn 0.0654 0.0000 -0.9979
vn 0.0000 -1.0000 -0.0000
vn -1.0000 0.0000 -0.0000
usemtl Asphalt.192
s 1
f 15/1/1 1/2/1 14/3/1
f 1/2/1 2/4/1 14/3/1
f 37/5/2 4/6/2 3/7/2 38/8/2
f 6/9/1 7/10/1 10/11/1
f 7/10/1 8/12/1 9/13/1
f 10/11/1 7/10/1 9/13/1
f 10/11/1 11/14/1 12/15/1
f 12/15/1 13/16/1 14/3/1
f 10/11/1 12/15/1 6/9/1
f 12/15/1 14/3/1 6/9/1
f 14/3/1 2/4/1 5/17/1 6/9/1
f 4/18/1 5/17/1 2/4/1 3/19/1
usemtl Stone.236
f 30/20/1 31/21/1 22/22/1
f 35/23/2 36/24/2 38/8/2
f 5/25/3 19/26/3 18/27/4 6/28/4
f 19/29/1 20/30/1 21/31/1
f 23/32/1 24/33/1 17/34/1
f 24/33/1 25/35/1 17/34/1
f 19/29/1 21/31/1 22/22/1
f 18/36/1 19/29/1 22/22/1
f 23/32/1 17/34/1 16/37/1
f 23/32/1 16/37/1 26/38/1
f 34/39/1 18/36/1 22/22/1
f 33/40/1 34/39/1 22/22/1
f 23/32/1 26/38/1 27/41/1
f 23/32/1 27/41/1 28/42/1
f 32/43/1 33/40/1 22/22/1
f 31/21/1 32/43/1 22/22/1
f 22/22/1 23/32/1 30/20/1
f 23/32/1 28/42/1 29/44/1
f 23/32/1 29/44/1 30/20/1
f 6/45/4 18/46/4 34/47/5 7/48/5
f 7/49/5 34/50/5 33/51/6 8/52/6
f 8/53/6 33/54/6 32/55/7 9/56/7
f 9/57/7 32/58/7 31/59/8 10/60/8
f 10/61/8 31/62/8 30/63/2 11/64/2
f 11/65/2 30/66/2 29/67/9 12/68/9
f 12/69/9 29/70/9 28/71/10 13/72/10
f 13/73/10 28/74/10 27/75/11 14/76/11
f 14/77/11 27/78/11 26/79/12 15/80/12
f 15/81/12 26/82/12 16/83/13 1/84/13
f 4/85/14 20/86/14 19/87/3 5/88/3
f 24/89/14 23/90/14 40/91/14 35/92/14
f 3/7/2 24/93/2 35/23/2 38/8/2
f 21/94/2 20/95/2 4/6/2
f 25/96/2 24/93/2 3/7/2
f 36/24/2 37/5/2 38/8/2
f 22/97/15 21/98/15 36/99/15 39/100/15
f 2/101/16 17/102/16 25/103/15 3/104/15
f 40/91/17 39/105/17 36/106/17 35/107/17
f 39/108/18 40/91/18 23/90/18 22/109/18
f 1/110/13 16/111/13 17/112/16 2/113/16
f 4/6/2 37/5/2 36/24/2 21/94/2
