# Blender v3.4.1 OBJ File: ''
# www.blender.org
mtllib roadTile_291.mtl
o roadTile_291
v 0.750000 0.600000 0.000000
v 0.750000 0.300000 0.000000
v 2.250000 0.300000 0.000000
v 2.250000 0.600000 0.000000
v 0.000000 0.000000 0.000000
v 3.000000 0.000000 -0.000000
v 3.000000 0.630000 0.000000
v 2.250000 0.630000 0.000000
v 0.750000 0.630000 0.000000
v 0.000000 0.630000 0.000000
v 0.000000 0.000000 -3.000000
v 3.000000 0.000000 -3.000000
v 0.000000 0.630000 -3.000000
v 0.750000 0.630000 -3.000000
v 0.750000 0.600001 -3.000000
v 2.250000 0.600000 -0.750000
v 3.000000 0.600000 -0.750000
v 3.000000 0.600000 -2.250000
v 2.250000 0.600000 -2.250000
v 2.250000 0.600001 -3.000000
v 2.250000 0.630000 -0.750000
v 3.000000 0.630000 -0.750000
v 3.000000 0.630000 -3.000000
v 3.000000 0.630000 -2.250000
v 3.000000 0.300000 -2.250000
v 3.000000 0.300000 -0.750000
v 0.750000 0.300000 -3.000000
v 2.250000 0.300000 -3.000000
v 2.250000 0.630000 -3.000000
v 2.250000 0.630000 -2.250000
vt 2.250000 0.600000
vt 0.750000 0.600000
vt 0.750000 0.300000
vt 2.250000 0.300000
vt 2.250000 3.000000
vt 0.750000 3.000000
vt 2.250000 2.250000
vt 0.750000 0.000000
vt 2.250000 0.000000
vt 2.250000 0.750000
vt -0.750000 0.600000
vt -2.250000 0.600000
vt -2.250000 0.300000
vt -0.750000 0.300000
vt 3.000000 2.250000
vt 3.000000 0.750000
vt 2.250000 0.600000
vt 0.750000 0.600000
vt 0.750000 0.300000
vt 2.250000 0.300000
vt 0.000000 0.000000
vt 3.000000 0.000000
vt 3.000000 0.000000
vt 0.000000 0.000000
vt -3.000000 0.000000
vt -0.000000 0.000000
vt -0.000000 0.630000
vt 3.000000 0.630000
vt 2.250000 0.630000
vt 0.750000 0.630000
vt 0.000000 0.630000
vt -3.000000 0.630000
vt -3.000000 0.000000
vt 0.000000 3.000000
vt 0.000000 0.000000
vt 0.750000 0.000000
vt 0.750000 3.000000
vt 3.000000 0.600000
vt 3.000000 0.630000
vt 0.000000 0.630000
vt 0.000000 0.600000
vt 2.250000 0.630000
vt 2.250000 0.600000
vt 3.000000 0.600000
vt 3.000000 0.630000
vt -0.750000 0.630000
vt -0.750000 0.600000
vt -0.000000 0.600000
vt -0.000000 0.630000
vt 2.250000 0.000000
vt 3.000000 0.000000
vt 3.000000 0.750000
vt 2.250000 0.750000
vt -3.000000 0.630000
vt -3.000000 0.600000
vt -2.250000 0.600000
vt -2.250000 0.630000
vt -3.000000 0.630000
vt 3.000000 0.630000
vt 2.250000 0.630000
vt 0.750000 0.630000
vt 0.000000 0.630000
vt -0.750000 0.630000
vt -2.250000 0.630000
vt -3.000000 0.630000
vt -3.000000 0.600000
vt -2.250000 0.600000
vt -2.250000 0.630000
vt -3.000000 3.000000
vt -3.000000 0.000000
vt -0.000000 3.000000
vt 2.250000 2.250000
vt 3.000000 2.250000
vt 3.000000 3.000000
vt 2.250000 3.000000
vn 1.0000 -0.0000 0.0000
vn 0.0000 1.0000 0.0000
vn 0.0000 0.0000 -1.0000
vn 0.0000 -0.0000 1.0000
vn -1.0000 0.0000 -0.0000
vn -0.0000 -1.0000 -0.0000
usemtl Asphalt.200
s 1
f 18/1/1 17/2/1 26/3/1 25/4/1
f 20/5/2 15/6/2 19/7/2
f 1/8/2 4/9/2 16/10/2
f 1/8/2 16/10/2 19/7/2 15/6/2
f 15/11/3 20/12/3 28/13/3 27/14/3
f 18/15/2 19/7/2 16/10/2 17/16/2
f 4/17/4 1/18/4 2/19/4 3/20/4
usemtl Stone.247
f 5/21/4 6/22/4 2/19/4
f 12/23/1 26/3/1 6/24/1
f 28/13/3 12/25/3 11/26/3
f 11/26/3 13/27/3 15/11/3 27/14/3
f 7/28/4 8/29/4 4/17/4
f 9/30/4 10/31/4 1/18/4
f 4/17/4 3/20/4 6/22/4 7/28/4
f 6/22/4 3/20/4 2/19/4
f 13/32/5 11/33/5 5/21/5 10/31/5
f 13/34/2 10/35/2 9/36/2 14/37/2
f 15/38/1 14/39/1 9/40/1 1/41/1
f 30/42/4 19/43/4 18/44/4 24/45/4
f 21/46/5 16/47/5 4/48/5 8/49/5
f 8/50/2 7/51/2 22/52/2 21/53/2
f 29/54/5 20/55/5 19/56/5 30/57/5
f 23/58/3 12/25/3 28/13/3 20/12/3
f 23/59/1 24/60/1 18/1/1
f 22/61/1 7/62/1 17/2/1
f 18/1/1 25/4/1 12/23/1 23/59/1
f 12/23/1 25/4/1 26/3/1
f 14/63/3 15/11/3 13/27/3
f 1/18/4 10/31/4 5/21/4 2/19/4
f 20/12/3 29/64/3 23/58/3
f 11/26/3 27/14/3 28/13/3
f 22/65/3 17/66/3 16/67/3 21/68/3
f 12/69/6 6/70/6 5/21/6 11/71/6
f 30/72/2 24/73/2 23/74/2 29/75/2
f 17/2/1 7/62/1 6/24/1 26/3/1
