# Blender v3.4.1 OBJ File: ''
# www.blender.org
mtllib roadTile_176.mtl
o roadTile_176
v 3.000000 0.455000 -3.000000
v 3.000000 0.000000 -3.000000
v 0.000000 0.000000 -3.000000
v 0.000000 0.550000 -3.000000
v 3.000000 0.550000 -3.000000
v 3.000000 0.000000 -0.000000
v 3.000000 0.455000 0.000000
v 0.000000 0.000000 0.000000
v 0.000000 0.000000 -0.750000
v 0.000000 0.000000 -2.250000
v 0.000000 0.550000 0.000000
v 3.000000 0.550000 0.000000
v 0.000000 0.550000 -0.750000
v 0.000000 0.455000 -0.750000
v 2.250000 0.550000 -0.750000
v 2.250000 0.455000 -0.750000
v 2.347890 0.550000 -0.743584
v 2.347890 0.455000 -0.743584
v 2.993580 0.550000 -0.097895
v 2.974440 0.550000 -0.194114
v 2.942910 0.550000 -0.287013
v 2.899520 0.550000 -0.375000
v 2.845020 0.550000 -0.456571
v 2.780330 0.550000 -0.530330
v 2.706570 0.550000 -0.595015
v 2.625000 0.550000 -0.649519
v 2.537010 0.550000 -0.692910
v 2.444110 0.550000 -0.724444
v 2.993580 0.455000 -0.097895
v 2.993580 0.455000 -2.902110
v 2.974440 0.455000 -2.805890
v 2.942910 0.455000 -2.712990
v 2.899520 0.455000 -2.625000
v 2.845020 0.455000 -2.543430
v 2.780330 0.455000 -2.469670
v 2.706570 0.455000 -2.404980
v 2.625000 0.455000 -2.350480
v 2.537010 0.455000 -2.307090
v 2.444110 0.455000 -2.275560
v 2.347890 0.455000 -2.256420
v 2.250000 0.455000 -2.250000
v 0.000000 0.455000 -2.250000
v 2.444110 0.455000 -0.724444
v 2.537010 0.455000 -0.692910
v 2.625000 0.455000 -0.649519
v 2.706570 0.455000 -0.595015
v 2.780330 0.455000 -0.530330
v 2.845020 0.455000 -0.456571
v 2.899520 0.455000 -0.375000
v 2.942910 0.455000 -0.287013
v 2.974440 0.455000 -0.194114
v 2.993580 0.550000 -2.902110
v 0.000000 0.550000 -2.250000
v 2.250000 0.550000 -2.250000
v 2.347890 0.550000 -2.256420
v 2.444110 0.550000 -2.275560
v 2.537010 0.550000 -2.307090
v 2.625000 0.550000 -2.350480
v 2.706570 0.550000 -2.404980
v 2.780330 0.550000 -2.469670
v 2.845020 0.550000 -2.543430
v 2.899520 0.550000 -2.625000
v 2.942910 0.550000 -2.712990
v 2.974440 0.550000 -2.805890
vt 2.706570 0.595015
vt 2.537010 0.692910
vt 2.993580 0.097895
vt 2.899520 2.625000
vt 2.974440 2.805890
vt 2.625000 2.350480
vt -2.250000 0.455000
vt -2.250000 0.550000
vt -3.000000 0.550000
vt -3.000000 0.550000
vt -3.000000 0.455000
vt -0.000000 0.550000
vt 0.000000 0.000000
vt 3.000000 0.000000
vt 3.000000 0.455000
vt 0.000000 0.550000
vt -0.946097 0.455000
vt -0.946097 0.550000
vt -1.044200 0.550000
vt -1.044200 0.455000
vt -3.000000 0.000000
vt -0.000000 0.750000
vt -0.000000 2.250000
vt -0.000000 3.000000
vt -3.000000 3.000000
vt 3.000000 0.550000
vt -3.000000 0.000000
vt -2.250000 0.000000
vt -0.750000 0.550000
vt -0.750000 0.455000
vt -2.196130 0.455000
vt -2.196130 0.550000
vt -2.294230 0.550000
vt -2.294230 0.455000
vt -0.098105 0.455000
vt -0.098105 0.550000
vt -0.196209 0.550000
vt -0.196209 0.455000
vt 2.444110 0.724444
vt 2.347890 0.743584
vt 2.250000 0.750000
vt 0.000000 0.750000
vt 0.000000 0.000000
vt 3.000000 0.000000
vt 2.974440 0.194114
vt 2.845020 0.456571
vt 2.942910 0.287013
vt 2.899520 0.375000
vt 2.780330 0.530330
vt 2.625000 0.649519
vt -2.157710 0.455000
vt -2.157710 0.550000
vt -2.255820 0.550000
vt -2.255820 0.455000
vt 3.718730 0.455000
vt 3.718730 0.550000
vt 3.620620 0.550000
vt 3.620620 0.455000
vt 0.000000 0.550000
vt 0.000000 0.455000
vt 2.250000 0.455000
vt 2.250000 0.550000
vt 0.000000 3.000000
vt 0.000000 2.250000
vt 2.250000 2.250000
vt 2.347890 2.256420
vt 2.444110 2.275560
vt 2.537010 2.307090
vt 2.706570 2.404980
vt 2.780330 2.469670
vt 2.845020 2.543430
vt 2.942910 2.712990
vt 2.993580 2.902110
vt 3.000000 3.000000
vt -0.389901 0.455000
vt -0.389901 0.550000
vt -0.488006 0.550000
vt -0.488006 0.455000
vt -0.674186 0.455000
vt -0.674186 0.550000
vt -0.772291 0.550000
vt -0.772291 0.455000
vt 3.143960 0.455000
vt 3.143960 0.550000
vt 3.045860 0.550000
vt 3.045860 0.455000
vt 3.393880 0.455000
vt 3.393880 0.550000
vt 3.295780 0.550000
vt 3.295780 0.455000
vt 3.586570 0.455000
vt 3.586570 0.550000
vt 3.488460 0.550000
vt 3.488460 0.455000
vt -1.642590 0.455000
vt -1.642590 0.550000
vt -1.740690 0.550000
vt -1.740690 0.455000
vt 3.189790 0.455000
vt 3.189790 0.550000
vt 3.091680 0.550000
vt 3.091680 0.455000
vt 3.788100 0.455000
vt 3.788100 0.550000
vt 3.690000 0.550000
vt 3.690000 0.455000
vt 3.793490 0.455000
vt 3.793490 0.550000
vt 3.695390 0.550000
vt 3.695390 0.455000
vt 3.734820 0.455000
vt 3.734820 0.550000
vt 3.636720 0.550000
vt 3.636720 0.455000
vt 3.613080 0.455000
vt 3.613080 0.550000
vt 3.514980 0.550000
vt 3.514980 0.455000
vt -0.750000 -0.000000
vt 3.430360 0.455000
vt 3.430360 0.550000
vt 3.332260 0.550000
vt 3.332260 0.455000
vt -0.000000 0.550000
vt -2.250000 0.550000
vt -2.250000 0.455000
vt -0.000000 0.455000
vt -2.081540 0.455000
vt -2.081540 0.550000
vt -2.179650 0.550000
vt -2.179650 0.455000
vt -1.968910 0.455000
vt -1.968910 0.550000
vt -2.067020 0.550000
vt -2.067020 0.455000
vt -3.000000 0.000000
vt -0.000000 0.000000
vt -1.821750 0.455000
vt -1.821750 0.550000
vt -1.919860 0.550000
vt -1.919860 0.455000
vt -1.434480 0.455000
vt -1.434480 0.550000
vt -1.532580 0.550000
vt -1.532580 0.455000
vt -1.200980 0.455000
vt -1.200980 0.550000
vt -1.299090 0.550000
vt -1.299090 0.455000
vt 2.841090 0.455000
vt 2.841090 0.550000
vt 2.742990 0.550000
vt 2.742990 0.455000
vt 2.490440 0.455000
vt 2.490440 0.550000
vt 2.392340 0.550000
vt 2.392340 0.455000
vt 2.537010 2.307090
vt 2.444110 2.275560
vt 2.444110 0.724444
vt 2.537010 0.692910
vt 2.347890 0.743584
vt 2.347890 2.256420
vt 2.250000 2.250000
vt 2.250000 0.750000
vt 2.993580 0.097895
vt 3.000000 0.000000
vt 3.000000 3.000000
vt 2.993580 2.902110
vt 2.974440 0.194114
vt 2.974440 2.805890
vt 2.942910 0.287013
vt 2.942910 2.712990
vt 2.899520 0.375000
vt 2.899520 2.625000
vt 2.845020 0.456571
vt 2.845020 2.543430
vt 2.780330 0.530330
vt 2.780330 2.469670
vt 2.706570 0.595015
vt 2.706570 2.404980
vt 2.625000 2.350480
vt 2.625000 0.649519
vt 0.000000 2.250000
vt 0.000000 0.750000
vt -0.000000 0.455000
vt -0.000000 0.000000
vt 3.000000 0.000000
vt 3.000000 0.455000
vn -0.0000 1.0000 -0.0000
vn -1.0000 -0.0000 0.0000
vn 0.0000 0.0000 -1.0000
vn 0.0000 -0.0000 1.0000
vn 0.8660 -0.0000 -0.5000
vn 0.9239 -0.0000 -0.3827
vn 0.0000 -1.0000 -0.0000
vn 0.0327 0.0000 -0.9995
vn 0.1305 0.0000 -0.9914
vn 0.9914 0.0000 -0.1305
vn 0.9979 0.0000 -0.0654
vn 0.2588 0.0000 -0.9659
vn 0.7071 0.0000 0.7071
vn 0.6088 0.0000 0.7934
vn 0.0327 0.0000 0.9995
vn 0.9659 -0.0000 -0.2588
vn 0.3827 0.0000 0.9239
vn 0.2588 0.0000 0.9659
vn 0.5000 0.0000 0.8660
vn 0.6088 0.0000 -0.7934
vn 0.7071 -0.0000 -0.7071
vn 0.9979 0.0000 0.0654
vn 0.9914 0.0000 0.1305
vn 0.7934 0.0000 0.6088
vn 0.8660 0.0000 0.5000
vn 0.9239 0.0000 0.3827
vn 0.9659 0.0000 0.2588
vn 0.3827 0.0000 -0.9239
vn 0.5000 0.0000 -0.8660
vn 0.7934 -0.0000 -0.6088
vn 0.1305 0.0000 0.9914
vn 1.0000 0.0000 0.0000
usemtl Grass.082
s 1
f 25/1/1 27/2/1 19/3/1
f 62/4/1 64/5/1 58/6/1
f 42/7/2 53/8/2 4/9/2
f 5/10/3 1/11/3 4/12/3
f 8/13/4 6/14/4 7/15/4 11/16/4
f 49/17/5 22/18/5 21/19/6 50/20/6
f 6/21/7 8/13/7 9/22/7
f 10/23/7 3/24/7 2/25/7
f 12/26/4 11/16/4 7/15/4
f 3/27/2 10/28/2 42/7/2 4/9/2
f 11/16/2 13/29/2 14/30/2
f 16/31/8 15/32/8 17/33/9 18/34/9
f 29/35/10 19/36/10 12/37/11 7/38/11
f 28/39/1 17/40/1 15/41/1
f 15/41/1 13/42/1 11/43/1
f 11/43/1 12/44/1 15/41/1
f 12/44/1 19/3/1 15/41/1
f 19/3/1 20/45/1 23/46/1
f 20/45/1 21/47/1 23/46/1
f 21/47/1 22/48/1 23/46/1
f 23/46/1 24/49/1 25/1/1
f 25/1/1 26/50/1 27/2/1
f 27/2/1 28/39/1 19/3/1
f 28/39/1 15/41/1 19/3/1
f 23/46/1 25/1/1 19/3/1
f 18/51/9 17/52/9 28/53/12 43/54/12
f 9/22/7 10/23/7 2/25/7 6/21/7
f 35/55/13 60/56/13 59/57/14 36/58/14
f 53/59/4 42/60/4 41/61/15 54/62/15
f 4/63/1 53/64/1 54/65/1
f 54/65/1 55/66/1 56/67/1
f 56/67/1 57/68/1 58/6/1
f 58/6/1 59/69/1 60/70/1
f 60/70/1 61/71/1 62/4/1
f 62/4/1 63/72/1 64/5/1
f 64/5/1 52/73/1 5/74/1
f 5/74/1 4/63/1 54/65/1
f 54/65/1 56/67/1 5/74/1
f 56/67/1 58/6/1 64/5/1
f 5/74/1 56/67/1 64/5/1
f 58/6/1 60/70/1 62/4/1
f 51/75/16 20/76/16 19/77/10 29/78/10
f 50/79/6 21/80/6 20/81/16 51/82/16
f 38/83/17 57/84/17 56/85/18 39/86/18
f 37/87/19 58/88/19 57/89/17 38/90/17
f 36/91/14 59/92/14 58/93/19 37/94/19
f 46/95/20 25/96/20 24/97/21 47/98/21
f 1/99/22 5/100/22 52/101/23 30/102/23
f 34/103/24 61/104/24 60/105/13 35/106/13
f 33/107/25 62/108/25 61/109/24 34/110/24
f 32/111/26 63/112/26 62/113/25 33/114/25
f 31/115/27 64/116/27 63/117/26 32/118/26
f 8/13/2 11/16/2 14/30/2 9/119/2
f 30/120/23 52/121/23 64/122/27 31/123/27
f 13/124/3 15/125/8 16/126/8 14/127/3
f 43/128/12 28/129/12 27/130/28 44/131/28
f 44/132/28 27/133/28 26/134/29 45/135/29
f 4/12/3 1/11/3 2/136/3 3/137/3
f 45/138/29 26/139/29 25/140/20 46/141/20
f 47/142/21 24/143/21 23/144/30 48/145/30
f 48/146/30 23/147/30 22/148/5 49/149/5
f 39/150/18 56/151/18 55/152/31 40/153/31
f 40/154/31 55/155/31 54/156/15 41/157/15
usemtl Water.016
f 38/158/1 39/159/1 43/160/1 44/161/1
f 18/162/1 40/163/1 41/164/1 16/165/1
f 29/166/1 7/167/1 1/168/1
f 29/166/1 1/168/1 30/169/1
f 51/170/1 29/166/1 31/171/1
f 29/166/1 30/169/1 31/171/1
f 50/172/1 51/170/1 32/173/1
f 51/170/1 31/171/1 32/173/1
f 49/174/1 50/172/1 33/175/1
f 50/172/1 32/173/1 33/175/1
f 48/176/1 49/174/1 33/175/1
f 48/176/1 33/175/1 34/177/1
f 47/178/1 48/176/1 35/179/1
f 48/176/1 34/177/1 35/179/1
f 46/180/1 47/178/1 36/181/1
f 47/178/1 35/179/1 36/181/1
f 36/181/1 37/182/1 45/183/1 46/180/1
f 37/182/1 38/158/1 44/161/1 45/183/1
f 39/159/1 40/163/1 18/162/1 43/160/1
f 41/164/1 42/184/1 14/185/1 16/165/1
f 42/7/2 10/28/2 9/119/2 14/30/2
f 7/186/32 6/187/32 2/188/32 1/189/32
