# Blender v3.4.1 OBJ File: ''
# www.blender.org
mtllib roadTile_113.mtl
o roadTile_113
v 0.000000 0.600000 0.000000
v 0.000000 0.300000 0.000000
v 3.000000 0.300000 0.000000
v 3.000000 0.600000 0.000000
v 0.000000 0.600000 -2.250000
v 0.000000 0.300000 -2.250000
v 3.000000 0.600001 -3.000000
v 0.750000 0.600001 -3.000000
v 0.750000 0.600000 -2.250000
v 3.000000 0.300000 -3.000000
v 0.750000 0.300000 -3.000000
v 3.000000 0.000000 -3.000000
v 0.375000 0.000000 -3.000000
v 0.375000 0.630000 -3.000000
v 0.750000 0.630000 -3.000000
v 3.000000 0.000000 0.000000
v 0.000000 0.000000 -0.000000
v 0.000000 0.000000 -2.625000
v 0.375000 0.000000 -2.625000
v 0.000000 0.630000 -2.625000
v 0.000000 0.630000 -2.250000
v 0.375000 0.630000 -2.625000
v 0.750000 0.630000 -2.250000
vt -0.000000 0.300000
vt -0.000000 0.600000
vt -2.250000 0.600000
vt -2.250000 0.300000
vt 3.000000 3.000000
vt 0.750000 3.000000
vt 0.750000 2.250000
vt 0.000000 2.250000
vt 0.000000 0.000000
vt 3.000000 0.000000
vt -3.000000 0.600000
vt -3.000000 0.300000
vt -0.750000 0.300000
vt -0.750000 0.600000
vt 3.000000 0.600000
vt 3.000000 0.300000
vt 3.000000 0.600000
vt 0.000000 0.600000
vt 0.000000 0.300000
vt 3.000000 0.300000
vt 0.000000 0.000000
vt -0.000000 2.625000
vt -0.375000 2.625000
vt 0.750000 3.000000
vt 0.375000 3.000000
vt 0.375000 2.625000
vt -0.000000 0.630000
vt -0.000000 0.600000
vt 0.750000 0.600000
vt 0.750000 0.630000
vt -0.375000 0.000000
vt -0.375000 0.630000
vt -0.000000 0.000000
vt -0.000000 0.630000
vt -0.375000 0.630000
vt -0.375000 0.000000
vt -3.000000 0.000000
vt -2.625000 0.630000
vt -2.625000 0.000000
vt -0.750000 0.630000
vt -0.375000 3.000000
vt -3.000000 3.000000
vt 2.250000 0.630000
vt 2.250000 0.600000
vt 3.000000 0.600000
vt 3.000000 0.630000
vt -3.000000 -0.000000
vt -2.625000 0.000000
vt -2.625000 0.630000
vt -3.000000 0.630000
vt -3.000000 0.000000
vt -2.250000 0.630000
vt 3.000000 0.000000
vt 0.000000 2.625000
vt 0.000000 2.250000
vt 0.750000 2.250000
vt 0.000000 0.000000
vt 3.000000 0.000000
vn -1.0000 0.0000 -0.0000
vn 0.0000 1.0000 0.0000
vn 0.0000 0.0000 -1.0000
vn -0.0000 -0.0000 1.0000
vn 1.0000 0.0000 0.0000
vn -0.0000 -1.0000 -0.0000
usemtl Asphalt.067
s 1
f 2/1/1 1/2/1 5/3/1 6/4/1
f 7/5/2 8/6/2 9/7/2
f 9/7/2 5/8/2 1/9/2
f 9/7/2 1/9/2 4/10/2 7/5/2
f 7/11/3 10/12/3 11/13/3 8/14/3
f 4/15/4 1/2/4 2/1/4 3/16/4
f 7/17/5 4/18/5 3/19/5 10/20/5
usemtl Stone.093
f 17/21/6 18/22/6 19/23/6
f 17/21/1 2/1/1 6/4/1
f 15/24/2 14/25/2 22/26/2
f 21/27/4 5/28/4 9/29/4 23/30/4
f 8/14/3 11/13/3 13/31/3 14/32/3
f 18/33/3 20/34/3 22/35/3 19/36/3
f 10/12/3 12/37/3 11/13/3
f 12/37/3 13/31/3 11/13/3
f 5/3/1 20/38/1 18/39/1 6/4/1
f 14/32/3 15/40/3 8/14/3
f 13/41/6 12/42/6 19/23/6
f 23/43/5 9/44/5 8/45/5 15/46/5
f 16/47/6 17/21/6 19/23/6 12/42/6
f 19/48/1 22/49/1 14/50/1 13/51/1
f 21/52/1 20/38/1 5/3/1
f 18/39/1 17/21/1 6/4/1
f 16/53/4 3/16/4 2/1/4 17/21/4
f 20/54/2 21/55/2 22/26/2
f 21/55/2 23/56/2 22/26/2
f 23/56/2 15/24/2 22/26/2
f 16/57/5 12/58/5 10/20/5 3/19/5
