# Blender v3.4.1 OBJ File: ''
# www.blender.org
mtllib roadTile_272.mtl
o roadTile_272
v 3.000000 0.455000 0.000000
v 3.000000 0.000000 -0.000000
v 3.000000 0.000000 -3.000000
v 3.000000 0.455000 -3.000000
v 0.750000 0.455000 0.000000
v 0.750000 0.000000 -0.000000
v 0.375000 0.630000 0.000000
v 0.375000 0.550000 0.000000
v 0.375000 0.000000 -0.000000
v 0.750000 0.630000 0.000000
v 0.371792 0.550000 -0.048947
v 0.371792 0.630000 -0.048947
v 0.000000 0.550000 0.000000
v 0.362222 0.550000 -0.097057
v 0.346455 0.550000 -0.143506
v 0.324760 0.550000 -0.187500
v 0.297508 0.550000 -0.228286
v 0.265165 0.550000 -0.265165
v 0.228286 0.550000 -0.297508
v 0.187500 0.550000 -0.324760
v 0.143506 0.550000 -0.346455
v 0.097057 0.550000 -0.362222
v 0.048947 0.550000 -0.371792
v 0.000000 0.550000 -0.375000
v 0.000000 0.000000 0.000000
v 0.000000 0.000000 -0.375000
v 0.000000 0.000000 -0.750000
v 0.000000 0.000000 -3.000000
v 0.000000 0.630000 -0.375000
v 0.000000 0.630000 -0.750000
v 0.000000 0.455000 -0.750000
v 0.048947 0.630000 -0.371792
v 0.097057 0.630000 -0.362222
v 0.143506 0.630000 -0.346455
v 0.187500 0.630000 -0.324760
v 0.228286 0.630000 -0.297508
v 0.265165 0.630000 -0.265165
v 0.297508 0.630000 -0.228286
v 0.324760 0.630000 -0.187500
v 0.346455 0.630000 -0.143506
v 0.362222 0.630000 -0.097057
v 0.743584 0.630000 -0.097894
v 0.724444 0.630000 -0.194114
v 0.692910 0.630000 -0.287013
v 0.649519 0.630000 -0.375000
v 0.595015 0.630000 -0.456571
v 0.530330 0.630000 -0.530330
v 0.456571 0.630000 -0.595015
v 0.375000 0.630000 -0.649519
v 0.287013 0.630000 -0.692910
v 0.194114 0.630000 -0.724444
v 0.097895 0.630000 -0.743584
v 0.743584 0.455000 -0.097895
v 0.724444 0.455000 -0.194114
v 0.692910 0.455000 -0.287013
v 0.649519 0.455000 -0.375000
v 0.595015 0.455000 -0.456571
v 0.530330 0.455000 -0.530330
v 0.456571 0.455000 -0.595015
v 0.375000 0.455000 -0.649519
v 0.287013 0.455000 -0.692910
v 0.194114 0.455000 -0.724444
v 0.097895 0.455000 -0.743584
v 0.000000 0.455000 -3.000000
vt 3.000000 3.000000
vt 0.530330 0.530330
vt 0.595015 0.456571
vt 3.000000 0.455000
vt 0.750000 0.455000
vt 0.750000 0.000000
vt 3.000000 0.000000
vt 3.000000 0.455000
vt 0.000000 0.455000
vt 0.000000 0.000000
vt 3.000000 0.000000
vt -3.000000 -0.000000
vt -0.000000 -0.000000
vt -0.000000 0.455000
vt -3.000000 0.455000
vt -0.750000 0.000000
vt -0.750000 0.455000
vt -3.000000 0.455000
vt -3.000000 0.000000
vt 3.000000 0.000000
vt 0.000000 3.000000
vt 0.456571 0.595015
vt 0.287013 0.692910
vt 0.194114 0.724444
vt 0.000000 0.750000
vt 0.097895 0.743584
vt 0.743584 0.097895
vt 0.750000 0.000000
vt 0.724444 0.194114
vt 0.375000 0.649519
vt 0.692910 0.287013
vt 0.649519 0.375000
vt -0.024526 0.630000
vt -0.024526 0.550000
vt 0.024526 0.550000
vt 0.024526 0.630000
vt -0.750000 0.630000
vt -0.375000 0.550000
vt -0.375000 0.630000
vt -0.375000 0.000000
vt 0.649519 0.375000
vt 0.324760 0.187500
vt 0.346455 0.143506
vt 0.692910 0.287013
vt -0.049052 0.455000
vt 0.049052 0.455000
vt 0.049052 0.630000
vt -0.049052 0.630000
vt 0.375000 0.000000
vt 0.375000 0.550000
vt -0.024526 0.630000
vt -0.024526 0.550000
vt 0.024526 0.550000
vt 0.024526 0.630000
vt -0.024526 0.630000
vt -0.024526 0.550000
vt 0.024526 0.550000
vt 0.024526 0.630000
vt -0.024526 0.630000
vt -0.024526 0.550000
vt 0.024526 0.550000
vt 0.024526 0.630000
vt -0.024526 0.630000
vt -0.024526 0.550000
vt 0.024526 0.550000
vt 0.024526 0.630000
vt -0.024526 0.630000
vt -0.024526 0.550000
vt 0.024526 0.550000
vt 0.024526 0.630000
vt -0.024526 0.630000
vt -0.024526 0.550000
vt 0.024526 0.550000
vt 0.024526 0.630000
vt -0.024526 0.630000
vt -0.024526 0.550000
vt 0.024526 0.550000
vt 0.024526 0.630000
vt 0.530330 0.530330
vt 0.456571 0.595015
vt 0.228286 0.297508
vt 0.265165 0.265165
vt 0.362222 0.097057
vt 0.724444 0.194114
vt 0.750000 0.000000
vt 0.743584 0.097895
vt 0.371792 0.048947
vt 0.375000 0.000000
vt 0.595015 0.456571
vt 0.297508 0.228286
vt 0.097057 0.362222
vt 0.143506 0.346455
vt 0.287013 0.692910
vt 0.194114 0.724444
vt 0.187500 0.324760
vt 0.375000 0.649519
vt 0.048947 0.371792
vt 0.097895 0.743584
vt 0.750000 0.630000
vt 0.375000 0.630000
vt 0.000000 0.750000
vt 0.000000 0.375000
vt -0.024526 0.630000
vt -0.024526 0.550000
vt 0.024526 0.550000
vt 0.024526 0.630000
vt -0.024526 0.630000
vt -0.024526 0.550000
vt 0.024526 0.550000
vt 0.024526 0.630000
vt -0.049052 0.455000
vt 0.049052 0.455000
vt 0.049052 0.630000
vt -0.049052 0.630000
vt -0.049052 0.455000
vt 0.049052 0.455000
vt 0.049052 0.630000
vt -0.049052 0.630000
vt -0.049052 0.455000
vt 0.049052 0.455000
vt 0.049052 0.630000
vt -0.049052 0.630000
vt -0.049052 0.455000
vt 0.049052 0.455000
vt 0.049052 0.630000
vt -0.049052 0.630000
vt -0.049052 0.455000
vt 0.049052 0.455000
vt 0.049052 0.630000
vt -0.049052 0.630000
vt -0.049052 0.455000
vt 0.049052 0.455000
vt 0.049052 0.630000
vt -0.049052 0.630000
vt -0.049052 0.455000
vt 0.049052 0.455000
vt 0.049052 0.630000
vt -0.049052 0.630000
vt -0.049052 0.455000
vt 0.049052 0.455000
vt 0.049052 0.630000
vt -0.049052 0.630000
vt -0.049052 0.455000
vt 0.049052 0.455000
vt 0.049052 0.630000
vt -0.049052 0.630000
vt -0.049052 0.455000
vt 0.049052 0.455000
vt 0.049052 0.630000
vt -0.049052 0.630000
vt -0.049052 0.455000
vt 0.049052 0.455000
vt 0.049052 0.630000
vt -0.049052 0.630000
vt -0.024526 0.630000
vt -0.024526 0.550000
vt 0.024526 0.550000
vt 0.024526 0.630000
vt -0.024526 0.630000
vt -0.024526 0.550000
vt 0.024526 0.550000
vt 0.024526 0.630000
vt 0.097057 0.362222
vt 0.048947 0.371792
vt 0.000000 0.000000
vt -0.000000 0.750000
vt -3.000000 3.000000
vt -0.750000 0.000000
vt 0.000000 0.375000
vt 0.375000 0.000000
vt 0.371792 0.048947
vt 0.362222 0.097057
vt 0.346455 0.143506
vt 0.324760 0.187500
vt 0.297508 0.228286
vt 0.265165 0.265165
vt 0.228286 0.297508
vt 0.187500 0.324760
vt 0.143506 0.346455
vt -0.375000 0.000000
vt -0.000000 0.375000
vt -0.000000 -0.000000
vt -0.000000 3.000000
vt -3.000000 0.000000
vt 0.000000 0.550000
vn -0.0000 1.0000 0.0000
vn 0.0000 -0.0000 1.0000
vn 1.0000 0.0000 0.0000
vn 0.0000 0.0000 -1.0000
vn -1.0000 -0.0000 -0.0000
vn -0.0654 0.0000 0.9979
vn -0.1305 0.0000 0.9914
vn 0.9979 0.0000 -0.0654
vn 0.9914 0.0000 -0.1305
vn -0.2588 0.0000 0.9659
vn -0.3827 0.0000 0.9239
vn -0.5000 0.0000 0.8660
vn -0.6088 0.0000 0.7934
vn -0.7934 -0.0000 0.6088
vn -0.8660 -0.0000 0.5000
vn -0.9239 -0.0000 0.3827
vn -0.9659 0.0000 0.2588
vn -0.9914 0.0000 0.1305
vn -0.9979 0.0000 0.0654
vn 0.9659 0.0000 -0.2588
vn 0.9239 0.0000 -0.3827
vn 0.8660 0.0000 -0.5000
vn 0.7934 0.0000 -0.6088
vn 0.7071 0.0000 -0.7071
vn 0.6088 0.0000 -0.7934
vn 0.5000 0.0000 -0.8660
vn 0.3827 0.0000 -0.9239
vn 0.2588 0.0000 -0.9659
vn 0.1305 0.0000 -0.9914
vn 0.0654 0.0000 -0.9979
vn -0.7071 -0.0000 0.7071
vn 0.0000 -1.0000 -0.0000
usemtl Water.046
s 1
f 4/1/1 58/2/1 57/3/1
f 1/4/2 5/5/2 6/6/2 2/7/2
f 4/8/3 1/9/3 2/10/3 3/11/3
f 3/12/4 28/13/4 64/14/4 4/15/4
f 27/16/5 31/17/5 64/18/5 28/19/5
f 1/20/1 4/1/1 57/3/1
f 4/1/1 64/21/1 59/22/1
f 61/23/1 64/21/1 62/24/1
f 64/21/1 31/25/1 63/26/1
f 64/21/1 63/26/1 62/24/1
f 53/27/1 5/28/1 1/20/1
f 54/29/1 53/27/1 1/20/1
f 64/21/1 61/23/1 60/30/1
f 64/21/1 60/30/1 59/22/1
f 55/31/1 54/29/1 1/20/1
f 56/32/1 55/31/1 1/20/1
f 4/1/1 59/22/1 58/2/1
f 57/3/1 56/32/1 1/20/1
usemtl Stone.228
f 29/33/6 24/34/6 23/35/7 32/36/7
f 30/37/5 31/17/5 24/38/5 29/39/5
f 26/40/5 24/38/5 31/17/5 27/16/5
f 45/41/1 39/42/1 40/43/1 44/44/1
f 5/45/8 53/46/9 42/47/9 10/48/8
f 9/49/2 6/6/2 5/5/2 8/50/2
f 32/51/7 23/52/7 22/53/10 33/54/10
f 33/55/10 22/56/10 21/57/11 34/58/11
f 34/59/11 21/60/11 20/61/12 35/62/12
f 35/63/12 20/64/12 19/65/13 36/66/13
f 38/67/14 17/68/14 16/69/15 39/70/15
f 39/71/15 16/72/15 15/73/16 40/74/16
f 40/75/16 15/76/16 14/77/17 41/78/17
f 47/79/1 48/80/1 36/81/1 37/82/1
f 40/43/1 41/83/1 43/84/1 44/44/1
f 10/85/1 42/86/1 12/87/1 7/88/1
f 41/83/1 12/87/1 42/86/1 43/84/1
f 45/41/1 46/89/1 38/90/1 39/42/1
f 47/79/1 37/82/1 38/90/1 46/89/1
f 33/91/1 34/92/1 50/93/1 51/94/1
f 35/95/1 36/81/1 48/80/1 49/96/1
f 50/93/1 34/92/1 35/95/1 49/96/1
f 32/97/1 33/91/1 51/94/1 52/98/1
f 5/5/2 10/99/2 7/100/2 8/50/2
f 30/101/1 29/102/1 32/97/1 52/98/1
f 12/103/18 11/104/18 8/105/19 7/106/19
f 41/107/17 14/108/17 11/109/18 12/110/18
f 53/111/9 54/112/20 43/113/20 42/114/9
f 54/115/20 55/116/21 44/117/21 43/118/20
f 55/119/21 56/120/22 45/121/22 44/122/21
f 56/123/22 57/124/23 46/125/23 45/126/22
f 57/127/23 58/128/24 47/129/24 46/130/23
f 58/131/24 59/132/25 48/133/25 47/134/24
f 59/135/25 60/136/26 49/137/26 48/138/25
f 60/139/26 61/140/27 50/141/27 49/142/26
f 61/143/27 62/144/28 51/145/28 50/146/27
f 62/147/28 63/148/29 52/149/29 51/150/28
f 63/151/29 31/152/30 30/153/30 52/154/29
f 36/155/13 19/156/13 18/157/31 37/158/31
f 37/159/31 18/160/31 17/161/14 38/162/14
usemtl Grass.123
f 22/163/1 23/164/1 13/165/1
f 27/166/32 3/167/32 6/168/32
f 24/169/1 13/165/1 23/164/1
f 13/165/1 8/170/1 11/171/1
f 14/172/1 13/165/1 11/171/1
f 14/172/1 15/173/1 13/165/1
f 15/173/1 16/174/1 13/165/1
f 16/174/1 17/175/1 13/165/1
f 17/175/1 18/176/1 13/165/1
f 18/176/1 19/177/1 13/165/1
f 19/177/1 20/178/1 13/165/1
f 20/178/1 21/179/1 13/165/1
f 21/179/1 22/163/1 13/165/1
f 6/168/32 9/180/32 26/181/32
f 9/180/32 25/182/32 26/181/32
f 26/181/32 27/166/32 6/168/32
f 27/166/32 28/183/32 3/167/32
f 3/167/32 2/184/32 6/168/32
f 13/185/2 25/182/2 9/49/2 8/50/2
f 25/182/5 13/185/5 24/38/5 26/40/5
