# Blender v3.4.1 OBJ File: ''
# www.blender.org
mtllib roadTile_090.mtl
o roadTile_090
v 3.000000 0.300000 0.000000
v 0.000000 0.300000 0.000000
v 0.000000 0.000000 -0.000000
v 3.000000 0.000000 0.000000
v 0.000000 0.600000 0.000000
v 3.000000 0.600000 0.000000
v 0.000000 0.600000 -2.250000
v 0.000000 0.300000 -2.250000
v 3.000000 0.600001 -3.000000
v 0.750000 0.600001 -3.000000
v 0.750000 0.600000 -2.250000
v 3.000000 0.300000 -3.000000
v 0.750000 0.300000 -3.000000
v 3.000000 0.000000 -3.000000
v 0.000000 0.000000 -3.000000
v 0.000000 1.730000 -3.000000
v 0.750000 1.730000 -3.000000
v 0.000000 1.730000 -2.250000
v 0.750000 1.730000 -2.250000
vt -0.750000 0.300000
vt -3.000000 0.000000
vt 0.000000 0.000000
vt -2.250000 0.300000
vt -2.250000 0.600000
vt -3.000000 0.000000
vt 2.250000 1.730000
vt 2.250000 0.600000
vt 3.000000 0.600000
vt 3.000000 1.730000
vt 0.000000 1.730000
vt -0.750000 1.730000
vt -0.750000 0.600000
vt -3.000000 1.730000
vt -2.250000 1.730000
vt -3.000000 0.300000
vt -0.000000 1.730000
vt -0.000000 0.600000
vt 0.750000 0.600000
vt 0.750000 1.730000
vt 0.000000 0.000000
vt 3.000000 0.000000
vt 3.000000 0.300000
vt 0.000000 0.300000
vt 3.000000 0.000000
vt 3.000000 0.300000
vt 0.000000 0.300000
vt -0.000000 0.000000
vt -0.000000 3.000000
vt -3.000000 3.000000
vt -3.000000 0.000000
vt 0.750000 3.000000
vt 0.000000 3.000000
vt 0.000000 2.250000
vt 0.750000 2.250000
vt 3.000000 0.600000
vt 0.000000 0.600000
vt 3.000000 3.000000
vt 0.750000 3.000000
vt 0.750000 2.250000
vt 0.000000 2.250000
vt 0.000000 0.000000
vt 3.000000 0.600000
vt 0.000000 0.600000
vt 3.000000 0.000000
vt -3.000000 0.600000
vn 0.0000 0.0000 -1.0000
vn -1.0000 0.0000 -0.0000
vn 1.0000 0.0000 0.0000
vn 0.0000 -0.0000 1.0000
vn -0.0000 -1.0000 -0.0000
vn 0.0000 1.0000 0.0000
usemtl Stone.070
s 1
f 13/1/1 14/2/1 15/3/1
f 8/4/2 7/5/2 15/6/2
f 19/7/3 11/8/3 10/9/3 17/10/3
f 15/3/1 16/11/1 17/12/1 10/13/1
f 16/14/2 15/6/2 7/5/2 18/15/2
f 10/13/1 13/1/1 15/3/1
f 13/1/1 12/16/1 14/2/1
f 18/17/4 7/18/4 11/19/4 19/20/4
f 4/21/3 14/22/3 12/23/3 1/24/3
f 4/25/4 1/26/4 2/27/4 3/28/4
f 15/6/2 3/28/2 8/4/2
f 3/28/2 2/27/2 8/4/2
f 15/29/5 14/30/5 4/31/5 3/28/5
f 17/32/6 16/33/6 18/34/6 19/35/6
usemtl Asphalt.054
f 6/36/4 5/37/4 2/27/4 1/26/4
f 2/27/2 5/37/2 7/5/2 8/4/2
f 9/38/6 10/39/6 11/40/6
f 11/40/6 7/41/6 5/42/6
f 9/43/3 6/44/3 1/24/3 12/23/3
f 11/40/6 5/42/6 6/45/6 9/38/6
f 9/46/1 12/16/1 13/1/1 10/13/1
