# Blender v3.4.1 OBJ File: ''
# www.blender.org
mtllib roadTile_191.mtl
o roadTile_191
v 0.000000 0.000000 -2.625000
v 0.000000 0.000000 -0.375000
v 0.000000 1.650000 -0.375000
v 0.000000 1.730000 -0.375000
v 0.000000 1.730000 -0.750000
v 0.000000 0.600000 -0.750000
v 0.000000 0.300000 -0.750000
v 0.000000 0.300000 -2.250000
v 0.000000 0.600000 -2.250000
v 0.000000 1.730000 -2.250000
v 0.000000 1.730000 -2.625000
v 0.000000 1.650000 -2.625000
v 3.000000 0.000000 -0.000000
v 0.000000 0.000000 -0.000000
v 0.000000 0.000000 -3.000000
v 3.000000 0.000000 -3.000000
v 3.000000 0.000000 -2.625000
v 3.000000 0.000000 -0.375000
v 3.000000 0.550000 0.000000
v 0.000000 1.650000 0.000000
v 3.000000 0.550000 -0.375000
v 3.000000 0.550000 -2.625000
v 3.000000 0.630000 -2.625000
v 3.000000 0.630000 -2.250000
v 3.000000 0.600000 -2.250000
v 3.000000 0.300000 -2.250000
v 3.000000 0.300000 -0.750000
v 3.000000 0.600000 -0.750000
v 3.000000 0.630000 -0.750000
v 3.000000 0.630000 -0.375000
v 3.000000 0.550000 -3.000000
v 0.000000 1.650000 -3.000000
vt -2.625000 -0.000000
vt -0.375000 -0.000000
vt -2.250000 0.300000
vt 0.375000 -0.000000
vt 2.625000 -0.000000
vt 0.750000 0.300000
vt -0.375000 1.650000
vt -0.750000 0.600000
vt -0.375000 1.730000
vt -0.750000 1.730000
vt -0.750000 0.300000
vt -2.625000 1.730000
vt -2.625000 1.650000
vt -2.250000 1.730000
vt -2.250000 0.600000
vt 0.750000 -2.599750
vt 0.750000 0.595561
vt 0.375000 0.595561
vt 0.375000 -2.599750
vt 2.625000 0.630000
vt 2.250000 0.630000
vt 2.250000 0.600000
vt 2.625000 0.550000
vt 2.250000 0.300000
vt 3.000000 0.630000
vt 0.000000 1.730000
vt 0.000000 0.600000
vt 3.000000 0.600000
vt 0.750000 0.600000
vt 0.375000 0.550000
vt -0.000000 0.600000
vt -0.000000 1.730000
vt -3.000000 0.630000
vt -3.000000 0.600000
vt 2.250000 0.595561
vt 2.250000 -2.599750
vt 2.625000 -2.599750
vt 2.625000 0.595561
vt 3.000000 0.630000
vt 0.000000 1.730000
vt 0.000000 1.650000
vt 3.000000 0.550000
vt -0.000000 1.650000
vt -0.000000 1.730000
vt -3.000000 0.630000
vt -3.000000 0.550000
vt 0.750000 0.630000
vt 0.375000 0.630000
vt -0.000000 -0.000000
vt -0.000000 1.650000
vt 0.000000 0.568020
vt 0.000000 -2.627290
vt 0.375000 -2.627290
vt 0.375000 0.568020
vt -3.000000 0.550000
vt -3.000000 -0.000000
vt -0.000000 -0.000000
vt -0.000000 1.650000
vt 3.000000 -0.000000
vt 3.000000 0.550000
vt 3.000000 -0.000000
vt 3.000000 0.550000
vt 2.625000 -2.627290
vt 3.000000 -2.627290
vt 3.000000 0.568020
vt 2.625000 0.568020
vt -3.000000 1.650000
vt -3.000000 0.000000
vt 0.000000 0.550000
vt 0.000000 -0.000000
vt -3.000000 3.000000
vt -3.000000 2.625000
vt -0.000000 2.625000
vt -0.000000 3.000000
vt -3.000000 0.375000
vt -0.000000 0.375000
vt -3.000000 0.000000
vt 0.000000 2.250000
vt 0.000000 0.750000
vt 3.000000 0.750000
vt 3.000000 2.250000
vn -1.0000 -0.0000 -0.0000
vn 1.0000 -0.0000 0.0000
vn 0.3443 0.9389 0.0000
vn 0.0000 -0.0000 1.0000
vn 0.0000 0.0000 -1.0000
vn 0.0000 -1.0000 -0.0000
vn 0.0000 1.0000 0.0000
usemtl Stone.149
s 1
f 1/1/1 2/2/1 8/3/1
f 18/4/2 17/5/2 27/6/2
f 2/2/1 3/7/1 6/8/1
f 3/7/1 4/9/1 5/10/1
f 2/2/1 6/8/1 7/11/1
f 5/10/1 6/8/1 3/7/1
f 11/12/1 12/13/1 10/14/1
f 12/13/1 1/1/1 9/15/1
f 9/15/1 1/1/1 8/3/1
f 9/15/1 10/14/1 12/13/1
f 2/2/1 7/11/1 8/3/1
f 29/16/3 5/17/3 4/18/3 30/19/3
f 23/20/2 24/21/2 25/22/2 22/23/2
f 22/23/2 25/22/2 26/24/2 17/5/2
f 17/5/2 26/24/2 27/6/2
f 24/25/4 10/26/4 9/27/4 25/28/4
f 27/6/2 28/29/2 21/30/2 18/4/2
f 6/31/5 5/32/5 29/33/5 28/34/5
f 10/35/3 24/36/3 23/37/3 11/38/3
f 30/39/4 4/40/4 3/41/4 21/42/4
f 12/43/5 11/44/5 23/45/5 22/46/5
f 28/29/2 29/47/2 30/48/2 21/30/2
usemtl Grass.097
f 14/49/1 20/50/1 3/7/1 2/2/1
f 20/51/3 19/52/3 21/53/3 3/54/3
f 31/55/5 16/56/5 15/57/5 32/58/5
f 14/49/4 13/59/4 19/60/4 20/50/4
f 16/61/2 31/62/2 22/23/2 17/5/2
f 22/63/3 31/64/3 32/65/3 12/66/3
f 32/67/1 15/68/1 1/1/1 12/13/1
f 19/69/2 13/70/2 18/4/2 21/30/2
f 16/71/6 17/72/6 1/73/6 15/74/6
f 17/72/6 18/75/6 2/76/6 1/73/6
f 14/49/6 2/76/6 18/75/6 13/77/6
usemtl Asphalt.122
f 26/24/2 25/22/2 28/29/2 27/6/2
f 7/11/1 6/8/1 9/15/1 8/3/1
f 9/78/7 6/79/7 28/80/7 25/81/7
