# Blender v3.4.1 OBJ File: ''
# www.blender.org
mtllib roadTile_229.mtl
o roadTile_229
v 0.000000 1.150000 -1.875000
v 0.000000 0.850000 -1.875000
v 0.000000 0.850000 -0.375000
v 0.000000 1.150000 -0.375000
v 0.000000 0.550000 -2.250000
v 0.000000 0.550000 0.000000
v 0.000000 1.180000 0.000000
v 0.000000 1.180000 -0.375000
v 0.000000 1.180000 -1.875000
v 0.000000 1.180000 -2.250000
v 3.000000 0.000000 -0.000000
v 3.000000 0.000000 -2.250000
v 3.000000 0.630000 0.000000
v 3.000000 0.630000 -2.250000
v 3.000000 0.630000 -1.875000
v 3.000000 0.600000 -1.875000
v 3.000000 0.300000 -1.875000
v 3.000000 0.300000 -0.375000
v 3.000000 0.600000 -0.375000
v 3.000000 0.630000 -0.375000
vt 1.875000 0.300000
vt 1.875000 0.600000
vt 0.375000 0.600000
vt 0.375000 0.300000
vt 0.375000 -2.842620
vt 1.875000 -2.842620
vt 1.875000 0.207377
vt 0.375000 0.207377
vt -0.375000 1.150000
vt -1.875000 1.150000
vt -1.875000 0.850000
vt -0.375000 0.850000
vt -2.250000 0.550000
vt 0.000000 0.550000
vt 0.000000 0.000000
vt 2.250000 0.000000
vt 0.375000 -2.837210
vt 0.375000 0.212787
vt 0.000000 0.212787
vt 0.000000 -2.837210
vt 2.250000 0.630000
vt -0.000000 1.180000
vt -0.375000 1.180000
vt -1.875000 1.180000
vt -2.250000 1.180000
vt 0.000000 0.630000
vt 1.875000 0.212787
vt 1.875000 -2.837210
vt 2.250000 -2.837210
vt 2.250000 0.212787
vt -0.000000 0.550000
vt -0.000000 1.180000
vt -3.000000 0.630000
vt -3.000000 0.000000
vt 1.875000 0.630000
vt 0.375000 0.630000
vt 3.000000 0.630000
vt 3.000000 -0.000000
vt -2.250000 -2.950820
vt -0.000000 -2.950820
vt 0.000000 0.099180
vt -2.250000 0.099180
vt 3.000000 0.630000
vt 0.000000 1.180000
vt 0.000000 1.150000
vt 3.000000 0.600000
vt -3.000000 0.630000
vt -3.000000 0.600000
vt -0.000000 1.150000
vt -0.000000 1.180000
vn 1.0000 -0.0000 0.0000
vn 0.1803 0.9836 0.0000
vn -1.0000 0.0000 -0.0000
vn 0.0000 0.0000 -1.0000
vn 0.0000 -0.0000 1.0000
vn -0.1803 -0.9836 -0.0000
usemtl Asphalt.154
s 1
f 17/1/1 16/2/1 19/3/1 18/4/1
f 19/5/2 16/6/2 1/7/2 4/8/2
f 4/9/3 1/10/3 2/11/3 3/12/3
usemtl Stone.185
f 5/13/3 6/14/3 2/11/3
f 11/15/1 12/16/1 18/4/1
f 20/17/2 8/18/2 7/19/2 13/20/2
f 16/2/1 17/1/1 12/16/1 14/21/1
f 7/22/3 8/23/3 4/9/3
f 9/24/3 10/25/3 1/10/3
f 19/3/1 13/26/1 11/15/1 18/4/1
f 6/14/3 3/12/3 2/11/3
f 9/27/2 15/28/2 14/29/2 10/30/2
f 5/31/4 10/32/4 14/33/4 12/34/4
f 1/10/3 10/25/3 5/13/3 2/11/3
f 14/21/1 15/35/1 16/2/1
f 20/36/1 13/26/1 19/3/1
f 12/16/1 17/1/1 18/4/1
f 4/9/3 3/12/3 6/14/3 7/22/3
f 13/37/5 7/22/5 6/14/5 11/38/5
f 12/39/6 11/40/6 6/41/6 5/42/6
f 15/43/5 9/44/5 1/45/5 16/46/5
f 20/47/4 19/48/4 4/49/4 8/50/4
