# Blender v3.4.1 OBJ File: ''
# www.blender.org
mtllib roadTile_299.mtl
o roadTile_299
v 2.437500 0.000000 0.000000
v 2.437500 0.000000 -1.875000
v 2.437500 0.630000 -1.875000
v 2.437500 0.630000 -1.312500
v 2.437500 0.600000 -1.312500
v 2.437500 0.300000 -1.312500
v 2.437500 0.300000 -0.562500
v 2.437500 0.600000 -0.562500
v 2.437500 0.630000 -0.562500
v 2.437500 0.630000 0.000000
v 0.000000 0.000000 -2.437500
v 1.875000 0.000000 -2.437500
v 1.879810 0.000000 -2.364080
v 1.894170 0.000000 -2.291910
v 1.917820 0.000000 -2.222240
v 1.950360 0.000000 -2.156250
v 1.991240 0.000000 -2.095070
v 2.039750 0.000000 -2.039750
v 2.095070 0.000000 -1.991240
v 2.156250 0.000000 -1.950360
v 2.222240 0.000000 -1.917820
v 2.291910 0.000000 -1.894170
v 2.364080 0.000000 -1.879810
v 2.119340 0.000000 -0.020853
v 1.806630 0.000000 -0.083056
v 1.504710 0.000000 -0.185544
v 1.218750 0.000000 -0.326563
v 0.953644 0.000000 -0.503701
v 0.713927 0.000000 -0.713927
v 0.503701 0.000000 -0.953644
v 0.326563 0.000000 -1.218750
v 0.185544 0.000000 -1.504710
v 0.083056 0.000000 -1.806630
v 0.020853 0.000000 -2.119340
v 0.000000 0.630000 -2.437500
v 0.562500 0.630000 -2.437500
v 0.562500 0.600000 -2.437500
v 0.562500 0.300000 -2.437500
v 1.312500 0.300000 -2.437500
v 1.312500 0.600000 -2.437500
v 1.312500 0.630000 -2.437500
v 1.875000 0.630000 -2.437500
v 0.020853 0.630000 -2.119340
v 0.083056 0.630000 -1.806630
v 0.185544 0.630000 -1.504710
v 0.326563 0.630000 -1.218750
v 0.503701 0.630000 -0.953644
v 0.713927 0.630000 -0.713927
v 0.953644 0.630000 -0.503701
v 1.218750 0.630000 -0.326563
v 1.504710 0.630000 -0.185544
v 1.806630 0.630000 -0.083056
v 2.119340 0.630000 -0.020853
v 2.192760 0.630000 -0.578541
v 1.952210 0.630000 -0.626389
v 1.719970 0.630000 -0.705226
v 1.500000 0.630000 -0.813702
v 1.296070 0.630000 -0.949963
v 1.111670 0.630000 -1.111670
v 0.949963 0.630000 -1.296070
v 0.813702 0.630000 -1.500000
v 0.705226 0.630000 -1.719970
v 0.626389 0.630000 -1.952210
v 0.578541 0.630000 -2.192760
v 2.192760 0.600000 -0.578541
v 0.578541 0.600000 -2.192760
v 0.626389 0.600000 -1.952210
v 0.705226 0.600000 -1.719970
v 0.813702 0.600000 -1.500000
v 0.949963 0.600000 -1.296070
v 1.111670 0.600000 -1.111670
v 1.296070 0.600000 -0.949963
v 1.500000 0.600000 -0.813702
v 1.719970 0.600000 -0.705226
v 1.952210 0.600000 -0.626389
v 2.290660 0.600000 -1.322120
v 2.146330 0.600000 -1.350830
v 2.006980 0.600000 -1.398140
v 1.875000 0.600000 -1.463220
v 1.752640 0.600000 -1.544980
v 1.642000 0.600000 -1.642000
v 1.544980 0.600000 -1.752640
v 1.463220 0.600000 -1.875000
v 1.398140 0.600000 -2.006980
v 1.350830 0.600000 -2.146330
v 1.322120 0.600000 -2.290660
v 2.290660 0.630000 -1.322120
v 2.364080 0.630000 -1.879810
v 2.291910 0.630000 -1.894170
v 2.222240 0.630000 -1.917820
v 2.156250 0.630000 -1.950360
v 2.095070 0.630000 -1.991240
v 2.039750 0.630000 -2.039750
v 1.991240 0.630000 -2.095070
v 1.950360 0.630000 -2.156250
v 1.917820 0.630000 -2.222240
v 1.894170 0.630000 -2.291910
v 1.879810 0.630000 -2.364080
v 1.322120 0.630000 -2.290660
v 1.350830 0.630000 -2.146330
v 1.398140 0.630000 -2.006980
v 1.463220 0.630000 -1.875000
v 1.544980 0.630000 -1.752640
v 1.642000 0.630000 -1.642000
v 1.752640 0.630000 -1.544980
v 1.875000 0.630000 -1.463220
v 2.006980 0.630000 -1.398140
v 2.146330 0.630000 -1.350830
vt 0.000000 -0.000000
vt 1.875000 -0.000000
vt 0.562500 0.300000
vt -1.875000 0.000000
vt 0.000000 0.000000
vt -1.312500 0.300000
vt 1.875000 0.630000
vt 1.312500 0.630000
vt 1.312500 0.600000
vt 0.562500 0.630000
vt 0.000000 0.630000
vt 0.562500 0.600000
vt -1.312500 0.600000
vt -1.875000 0.630000
vt 1.312500 0.300000
vt -2.156250 1.950360
vt -2.222240 1.917820
vt -1.504710 0.185544
vt -1.218750 0.326563
vt -2.291910 1.894170
vt -1.806630 0.083056
vt -2.364080 1.879810
vt -2.119340 0.020853
vt -2.095070 1.991240
vt -0.953644 0.503701
vt -2.039750 2.039750
vt -0.713927 0.713927
vt -2.437500 -0.000000
vt -2.437500 1.875000
vt -1.917820 2.222240
vt -0.185544 1.504710
vt -0.083056 1.806630
vt -1.894170 2.291910
vt 0.326563 1.218750
vt 0.813702 1.500000
vt 0.705226 1.719970
vt 0.185544 1.504710
vt 1.218750 0.326563
vt 1.500000 0.813702
vt 1.296070 0.949963
vt 0.953644 0.503701
vt 0.000000 2.437500
vt -1.875000 2.437500
vt -1.879810 2.364080
vt -0.020853 2.119340
vt 0.000000 0.630000
vt -0.562500 0.630000
vt -0.562500 0.600000
vt -1.312500 0.630000
vt -0.562500 0.300000
vt -2.199280 0.600000
vt -2.199280 0.630000
vt -2.346440 0.630000
vt -2.346440 0.600000
vt 2.437500 -0.000000
vt 2.437500 0.562500
vt 2.192760 0.578541
vt 2.119340 0.020853
vt 1.952210 0.626389
vt 1.806630 0.083056
vt 2.291910 1.894170
vt 2.222240 1.917820
vt 2.006980 1.398140
vt 2.146330 1.350830
vt 1.719970 0.705226
vt 1.504710 0.185544
vt 1.642000 1.642000
vt 1.752640 1.544980
vt 2.095070 1.991240
vt 2.039750 2.039750
vt 2.156250 1.950360
vt 1.875000 1.463220
vt 1.463220 1.875000
vt 1.544980 1.752640
vt 1.991240 2.095070
vt 1.950360 2.156250
vt 0.503701 0.953644
vt 0.949963 1.296070
vt 0.626389 1.952210
vt 0.083056 1.806630
vt -1.991240 2.095070
vt -0.503701 0.953644
vt -0.326563 1.218750
vt -1.950360 2.156250
vt -1.841550 0.600000
vt -1.841550 0.630000
vt -1.988710 0.630000
vt -1.988710 0.600000
vt 1.684050 -0.000000
vt 1.684050 0.630000
vt 1.365210 0.630000
vt 1.365210 -0.000000
vt -1.755710 -0.000000
vt -1.755710 0.630000
vt -2.074550 0.630000
vt -2.074550 -0.000000
vt -0.948628 -0.000000
vt -0.948628 0.630000
vt -1.267470 0.630000
vt -1.267470 -0.000000
vt -0.513085 -0.000000
vt -0.513085 0.630000
vt -0.831925 0.630000
vt -0.831925 -0.000000
vt -0.066034 -0.000000
vt -0.066034 0.630000
vt -0.384874 0.630000
vt -0.384874 -0.000000
vt 0.384874 -0.000000
vt 0.384874 0.630000
vt 0.066034 0.630000
vt 0.066034 -0.000000
vt 0.831925 -0.000000
vt 0.831925 0.630000
vt 0.513085 0.630000
vt 0.513085 -0.000000
vt 1.267470 -0.000000
vt 1.267470 0.630000
vt 0.948628 0.630000
vt 0.948628 -0.000000
vt 1.598210 0.600000
vt 1.598210 0.630000
vt 1.451050 0.630000
vt 1.451050 0.600000
vt -1.365210 -0.000000
vt -1.365210 0.630000
vt -1.684050 0.630000
vt -1.684050 -0.000000
vt 2.432280 0.000000
vt 2.432280 0.630000
vt 2.113440 0.630000
vt 2.113440 -0.000000
vt 2.364080 1.879810
vt 2.290660 1.322120
vt 1.111670 1.111670
vt 0.713927 0.713927
vt 1.917820 2.222240
vt 1.398140 2.006980
vt -2.150230 0.600000
vt -2.150230 0.630000
vt -2.395490 0.630000
vt -2.395490 0.600000
vt 2.395490 0.600000
vt 2.395490 0.630000
vt 2.150230 0.630000
vt 2.150230 0.600000
vt 2.037760 0.600000
vt 2.037760 0.630000
vt 1.792500 0.630000
vt 1.792500 0.600000
vt 1.647260 0.600000
vt 1.647260 0.630000
vt 1.402000 0.630000
vt 1.402000 0.600000
vt 1.230680 0.600000
vt 1.230680 0.630000
vt 0.985418 0.630000
vt 0.985418 0.600000
vt 0.795136 0.600000
vt 0.795136 0.630000
vt 0.549874 0.630000
vt 0.549874 0.600000
vt 0.348085 0.600000
vt 0.348085 0.630000
vt 0.102823 0.630000
vt 0.102823 0.600000
vt -0.102823 0.600000
vt -0.102823 0.630000
vt -0.348085 0.630000
vt -0.348085 0.600000
vt -0.549874 0.600000
vt -0.549874 0.630000
vt -0.795136 0.630000
vt -0.795136 0.600000
vt -0.985418 0.600000
vt -0.985418 0.630000
vt -1.230680 0.630000
vt -1.230680 0.600000
vt -1.402000 0.600000
vt -1.402000 0.630000
vt -1.647260 0.630000
vt -1.647260 0.600000
vt -1.792500 0.600000
vt -1.792500 0.630000
vt -2.037760 0.630000
vt -2.037760 0.600000
vt 1.312500 2.437500
vt 1.322120 2.290660
vt 1.879810 2.364080
vt 1.875000 2.437500
vt 1.894170 2.291910
vt 1.350830 2.146330
vt 2.437500 1.312500
vt 2.437500 1.875000
vt 0.578541 2.192760
vt 0.020853 2.119340
vt -0.000000 2.437500
vt 0.562500 2.437500
vt 2.346440 0.600000
vt 2.346440 0.630000
vt 2.199280 0.630000
vt 2.199280 0.600000
vt -2.236070 -0.000000
vt -2.236070 0.630000
vt -2.309650 0.630000
vt -2.309650 -0.000000
vt -1.878340 0.000000
vt -1.878340 0.630000
vt -1.951920 0.630000
vt -1.951920 0.000000
vt -1.487840 0.000000
vt -1.487840 0.630000
vt -1.561420 0.630000
vt -1.561420 0.000000
vt -1.071260 0.000000
vt -1.071260 0.630000
vt -1.144840 0.630000
vt -1.144840 0.000000
vt -0.635715 0.000000
vt -0.635715 0.630000
vt -0.709294 0.630000
vt -0.709294 0.000000
vt -0.188665 0.000000
vt -0.188665 0.630000
vt -0.262243 0.630000
vt -0.262243 0.000000
vt 0.262243 0.000000
vt 0.262243 0.630000
vt 0.188665 0.630000
vt 0.188665 0.000000
vt 0.709294 0.000000
vt 0.709294 0.630000
vt 0.635715 0.630000
vt 0.635715 0.000000
vt 1.144840 0.000000
vt 1.144840 0.630000
vt 1.071260 0.630000
vt 1.071260 0.000000
vt 1.561420 0.000000
vt 1.561420 0.630000
vt 1.487840 0.630000
vt 1.487840 0.000000
vt 1.951920 0.000000
vt 1.951920 0.630000
vt 1.878340 0.630000
vt 1.878340 0.000000
vt 2.309650 0.000000
vt 2.309650 0.630000
vt 2.236070 0.630000
vt 2.236070 0.000000
vt 1.988710 0.600000
vt 1.988710 0.630000
vt 1.841550 0.630000
vt 1.841550 0.600000
vt -2.113440 0.000000
vt -2.113440 0.630000
vt -2.432280 0.630000
vt -2.432280 0.000000
vt -1.451050 0.600000
vt -1.451050 0.630000
vt -1.598210 0.630000
vt -1.598210 0.600000
vt -1.034470 0.600000
vt -1.034470 0.630000
vt -1.181630 0.630000
vt -1.181630 0.600000
vt -0.598926 0.600000
vt -0.598926 0.630000
vt -0.746083 0.630000
vt -0.746083 0.600000
vt -0.151876 0.600000
vt -0.151876 0.630000
vt -0.299033 0.630000
vt -0.299033 0.600000
vt 0.299033 0.600000
vt 0.299033 0.630000
vt 0.151876 0.630000
vt 0.151876 0.600000
vt 0.746083 0.600000
vt 0.746083 0.630000
vt 0.598926 0.630000
vt 0.598926 0.600000
vt 1.181630 0.600000
vt 1.181630 0.630000
vt 1.034470 0.630000
vt 1.034470 0.600000
vt 2.074550 -0.000000
vt 2.074550 0.630000
vt 1.755710 0.630000
vt 1.755710 -0.000000
vt 1.350830 2.146330
vt 1.322120 2.290660
vt 0.578541 2.192760
vt 0.626389 1.952210
vt 1.296070 0.949963
vt 1.752640 1.544980
vt 1.642000 1.642000
vt 1.111670 1.111670
vt 2.192760 0.578541
vt 2.290660 1.322120
vt 2.146330 1.350830
vt 1.952210 0.626389
vt 2.437500 0.562500
vt 2.437500 1.312500
vt 0.562500 2.437500
vt 1.312500 2.437500
vt 1.500000 0.813702
vt 1.875000 1.463220
vt 1.544980 1.752640
vt 0.949963 1.296070
vt 0.813702 1.500000
vt 1.463220 1.875000
vt 1.398140 2.006980
vt 0.705226 1.719970
vt 2.006980 1.398140
vt 1.719970 0.705226
vn 1.0000 0.0000 0.0000
vn 0.0000 0.0000 -1.0000
vn 0.0000 -1.0000 -0.0000
vn -0.0000 1.0000 0.0000
vn -0.9914 0.0000 0.1305
vn -0.9979 0.0000 0.0654
vn -0.9659 0.0000 0.2588
vn -0.2588 -0.0000 0.9659
vn -0.3827 -0.0000 0.9239
vn -0.8660 -0.0000 0.5000
vn -0.9239 -0.0000 0.3827
vn -0.7934 -0.0000 0.6088
vn -0.7071 -0.0000 0.7071
vn -0.6088 -0.0000 0.7934
vn -0.5000 -0.0000 0.8660
vn -0.0654 -0.0000 0.9979
vn -0.1305 -0.0000 0.9914
vn 0.1305 0.0000 -0.9914
vn 0.0654 0.0000 -0.9979
vn 0.9979 0.0000 -0.0654
vn 0.9914 0.0000 -0.1305
vn 0.9659 0.0000 -0.2588
vn 0.9239 0.0000 -0.3827
vn 0.8660 0.0000 -0.5000
vn 0.7934 0.0000 -0.6088
vn 0.7071 0.0000 -0.7071
vn 0.6088 0.0000 -0.7934
vn 0.5000 0.0000 -0.8660
vn 0.3827 0.0000 -0.9239
vn 0.2588 0.0000 -0.9659
vn 0.2589 0.0000 -0.9659
vn 0.6087 0.0000 -0.7934
vn 0.7934 0.0000 -0.6087
vn -0.7934 0.0000 0.6087
vn -0.6087 0.0000 0.7934
usemtl Stone.255
s 1
f 1/1/1 2/2/1 7/3/1
f 12/4/2 11/5/2 39/6/2
f 3/7/1 4/8/1 5/9/1
f 9/10/1 10/11/1 8/12/1
f 40/13/2 42/14/2 12/4/2 39/6/2
f 2/2/1 6/15/1 7/3/1
f 20/16/3 21/17/3 26/18/3 27/19/3
f 21/17/3 22/20/3 25/21/3 26/18/3
f 22/20/3 23/22/3 24/23/3 25/21/3
f 19/24/3 20/16/3 27/19/3 28/25/3
f 18/26/3 19/24/3 28/25/3 29/27/3
f 1/28/3 24/23/3 23/22/3 2/29/3
f 15/30/3 32/31/3 33/32/3 14/33/3
f 46/34/4 61/35/4 62/36/4 45/37/4
f 50/38/4 57/39/4 58/40/4 49/41/4
f 11/42/3 12/43/3 13/44/3 34/45/3
f 5/9/1 6/15/1 2/2/1 3/7/1
f 35/46/2 36/47/2 37/48/2
f 41/49/2 42/14/2 40/13/2
f 37/48/2 38/50/2 11/5/2 35/46/2
f 11/5/2 38/50/2 39/6/2
f 86/51/5 99/52/5 41/53/6 40/54/6
f 10/55/4 9/56/4 54/57/4 53/58/4
f 53/58/4 54/57/4 55/59/4 52/60/4
f 89/61/4 90/62/4 107/63/4 108/64/4
f 56/65/4 57/39/4 50/38/4 51/66/4
f 104/67/4 105/68/4 92/69/4 93/70/4
f 91/71/4 92/69/4 105/68/4 106/72/4
f 102/73/4 103/74/4 94/75/4 95/76/4
f 47/77/4 60/78/4 61/35/4 46/34/4
f 62/36/4 63/79/4 44/80/4 45/37/4
f 13/44/3 14/33/3 33/32/3 34/45/3
f 17/81/3 30/82/3 31/83/3 16/84/3
f 85/85/7 100/86/7 99/87/5 86/88/5
f 25/89/8 52/90/8 51/91/9 26/92/9
f 33/93/7 44/94/7 43/95/5 34/96/5
f 31/97/10 46/98/10 45/99/11 32/100/11
f 30/101/12 47/102/12 46/103/10 31/104/10
f 29/105/13 48/106/13 47/107/12 30/108/12
f 28/109/14 49/110/14 48/111/13 29/112/13
f 27/113/15 50/114/15 49/115/14 28/116/14
f 26/117/9 51/118/9 50/119/15 27/120/15
f 77/121/8 108/122/8 107/123/9 78/124/9
f 32/125/11 45/126/11 44/127/7 33/128/7
f 1/129/16 10/130/16 53/131/17 24/132/17
f 18/26/3 29/27/3 30/82/3 17/81/3
f 88/133/4 89/61/4 108/64/4 87/134/4
f 49/41/4 58/40/4 59/135/4 48/136/4
f 102/73/4 95/76/4 96/137/4 101/138/4
f 16/84/3 31/83/3 32/31/3 15/30/3
f 55/59/4 56/65/4 51/66/4 52/60/4
f 65/139/18 54/140/18 9/141/19 8/142/19
f 37/143/20 36/144/20 64/145/21 66/146/21
f 66/147/21 64/148/21 63/149/22 67/150/22
f 67/151/22 63/152/22 62/153/23 68/154/23
f 68/155/23 62/156/23 61/157/24 69/158/24
f 69/159/24 61/160/24 60/161/25 70/162/25
f 70/163/25 60/164/25 59/165/26 71/166/26
f 71/167/26 59/168/26 58/169/27 72/170/27
f 72/171/27 58/172/27 57/173/28 73/174/28
f 73/175/28 57/176/28 56/177/29 74/178/29
f 74/179/29 56/180/29 55/181/30 75/182/30
f 75/183/30 55/184/30 54/185/18 65/186/18
f 41/187/4 99/188/4 98/189/4 42/190/4
f 96/137/4 97/191/4 100/192/4 101/138/4
f 97/191/4 98/189/4 99/188/4 100/192/4
f 4/193/4 3/194/4 88/133/4 87/134/4
f 104/67/4 93/70/4 94/75/4 103/74/4
f 48/136/4 59/135/4 60/78/4 47/77/4
f 107/63/4 90/62/4 91/71/4 106/72/4
f 63/79/4 64/195/4 43/196/4 44/80/4
f 8/12/1 10/11/1 1/1/1 7/3/1
f 35/197/4 43/196/4 64/195/4 36/198/4
f 5/199/16 4/200/16 87/201/17 76/202/17
f 23/203/18 88/204/18 3/205/19 2/206/19
f 22/207/31 89/208/31 88/209/18 23/210/18
f 21/211/29 90/212/29 89/213/31 22/214/31
f 20/215/28 91/216/28 90/217/29 21/218/29
f 19/219/32 92/220/32 91/221/28 20/222/28
f 18/223/26 93/224/26 92/225/32 19/226/32
f 17/227/33 94/228/33 93/229/26 18/230/26
f 16/231/24 95/232/24 94/233/33 17/234/33
f 15/235/23 96/236/23 95/237/24 16/238/24
f 14/239/22 97/240/22 96/241/23 15/242/23
f 13/243/21 98/244/21 97/245/22 14/246/22
f 12/247/20 42/248/20 98/249/21 13/250/21
f 76/251/17 87/252/17 108/253/8 77/254/8
f 34/255/5 43/256/5 35/257/6 11/258/6
f 84/259/11 101/260/11 100/261/7 85/262/7
f 83/263/10 102/264/10 101/265/11 84/266/11
f 82/267/34 103/268/34 102/269/10 83/270/10
f 81/271/13 104/272/13 103/273/34 82/274/34
f 80/275/35 105/276/35 104/277/13 81/278/13
f 79/279/15 106/280/15 105/281/35 80/282/35
f 78/283/9 107/284/9 106/285/15 79/286/15
f 24/287/17 53/288/17 52/289/8 25/290/8
usemtl Asphalt.208
f 85/291/4 86/292/4 66/293/4 67/294/4
f 72/295/4 80/296/4 81/297/4 71/298/4
f 65/299/4 76/300/4 77/301/4 75/302/4
f 8/303/4 5/304/4 76/300/4 65/299/4
f 37/305/4 66/293/4 86/292/4 40/306/4
f 73/307/4 79/308/4 80/296/4 72/295/4
f 82/309/4 70/310/4 71/298/4 81/297/4
f 69/311/4 83/312/4 84/313/4 68/314/4
f 84/313/4 85/291/4 67/294/4 68/314/4
f 37/48/2 40/13/2 39/6/2 38/50/2
f 5/9/1 8/12/1 7/3/1 6/15/1
f 78/315/4 79/308/4 73/307/4 74/316/4
f 70/310/4 82/309/4 83/312/4 69/311/4
f 77/301/4 78/315/4 74/316/4 75/302/4
