# Blender v3.4.1 OBJ File: ''
# www.blender.org
mtllib roadTile_297.mtl
o roadTile_297
v 1.884150 0.600000 -2.528140
v 1.875000 0.600000 -2.625000
v 0.375000 0.600000 -2.625000
v 0.381827 0.600000 -2.326910
v 0.429783 0.600000 -2.032630
v 0.517946 0.600000 -1.747790
v 0.644626 0.600000 -1.477870
v 0.807391 0.600000 -1.228050
v 1.003120 0.600000 -1.003120
v 1.228050 0.600000 -0.807391
v 1.477870 0.600000 -0.644626
v 1.747790 0.600000 -0.517946
v 2.032630 0.600000 -0.429783
v 2.326910 0.600000 -0.381827
v 2.625000 0.600000 -0.375000
v 2.625000 0.600000 -1.875000
v 2.528140 0.600000 -1.884150
v 2.433190 0.600000 -1.905370
v 2.341650 0.600000 -1.938320
v 2.254960 0.600000 -1.982480
v 2.174490 0.600000 -2.037170
v 2.101510 0.600000 -2.101510
v 2.037170 0.600000 -2.174490
v 1.982480 0.600000 -2.254960
v 1.938320 0.600000 -2.341650
v 1.905370 0.600000 -2.433190
v 1.884150 0.630000 -2.528140
v 1.875000 0.630000 -2.625000
v 1.905370 0.630000 -2.433190
v 1.938320 0.630000 -2.341650
v 1.982480 0.630000 -2.254960
v 2.037170 0.630000 -2.174490
v 2.101510 0.630000 -2.101510
v 2.174490 0.630000 -2.037170
v 2.254960 0.630000 -1.982480
v 2.341650 0.630000 -1.938320
v 2.433190 0.630000 -1.905370
v 2.528140 0.630000 -1.884150
v 2.625000 0.630000 -1.875000
v 2.625000 0.000000 0.000000
v 2.625000 0.000000 -2.250000
v 2.625000 0.630000 -2.250000
v 2.625000 0.300000 -1.875000
v 2.625000 0.300000 -0.375000
v 2.625000 0.630000 -0.375000
v 2.625000 0.630000 0.000000
v 0.000000 0.000000 -2.625000
v 2.250000 0.000000 -2.625000
v 2.253210 0.000000 -2.576050
v 2.262780 0.000000 -2.527940
v 2.278550 0.000000 -2.481490
v 2.300240 0.000000 -2.437500
v 2.327490 0.000000 -2.396710
v 2.359830 0.000000 -2.359830
v 2.396710 0.000000 -2.327490
v 2.437500 0.000000 -2.300240
v 2.481490 0.000000 -2.278550
v 2.527940 0.000000 -2.262780
v 2.576050 0.000000 -2.253210
v 2.282370 0.000000 -0.022457
v 1.945600 0.000000 -0.089445
v 1.620460 0.000000 -0.199816
v 1.312500 0.000000 -0.351683
v 1.027000 0.000000 -0.542447
v 0.768845 0.000000 -0.768845
v 0.542447 0.000000 -1.027000
v 0.351683 0.000000 -1.312500
v 0.199816 0.000000 -1.620460
v 0.089445 0.000000 -1.945600
v 0.022457 0.000000 -2.282370
v 0.000000 0.630000 -2.625000
v 0.375000 0.630000 -2.625000
v 0.375000 0.300000 -2.625000
v 1.875000 0.300000 -2.625000
v 2.250000 0.630000 -2.625000
v 0.022457 0.630000 -2.282370
v 0.089445 0.630000 -1.945600
v 0.199816 0.630000 -1.620460
v 0.351683 0.630000 -1.312500
v 0.542447 0.630000 -1.027000
v 0.768845 0.630000 -0.768845
v 1.027000 0.630000 -0.542447
v 1.312500 0.630000 -0.351683
v 1.620460 0.630000 -0.199816
v 1.945600 0.630000 -0.089445
v 2.282370 0.630000 -0.022457
v 2.326910 0.630000 -0.381827
v 2.032630 0.630000 -0.429783
v 1.747790 0.630000 -0.517946
v 1.477870 0.630000 -0.644626
v 1.228050 0.630000 -0.807391
v 1.003120 0.630000 -1.003120
v 0.807391 0.630000 -1.228050
v 0.644626 0.630000 -1.477870
v 0.517946 0.630000 -1.747790
v 0.429783 0.630000 -2.032630
v 0.381827 0.630000 -2.326910
v 2.576050 0.630000 -2.253210
v 2.527940 0.630000 -2.262780
v 2.481490 0.630000 -2.278550
v 2.437500 0.630000 -2.300240
v 2.396710 0.630000 -2.327490
v 2.359830 0.630000 -2.359830
v 2.327490 0.630000 -2.396710
v 2.300240 0.630000 -2.437500
v 2.278550 0.630000 -2.481490
v 2.262780 0.630000 -2.527940
v 2.253210 0.630000 -2.576050
vt 1.747790 0.517946
vt 2.341650 1.938320
vt 2.254960 1.982480
vt 1.477870 0.644626
vt 2.174490 2.037170
vt 1.228050 0.807391
vt 2.037170 2.174490
vt 0.807391 1.228050
vt 1.003120 1.003120
vt 2.101510 2.101510
vt 1.982480 2.254960
vt 0.644626 1.477870
vt 0.429783 2.032630
vt 0.517946 1.747790
vt 1.938320 2.341650
vt 1.905370 2.433190
vt 1.884150 2.528140
vt 0.381827 2.326910
vt 0.375000 2.625000
vt 1.875000 2.625000
vt -0.375000 0.600000
vt -1.875000 0.600000
vt -1.875000 0.300000
vt -0.375000 0.300000
vt 2.032630 0.429783
vt 2.433190 1.905370
vt 2.625000 0.375000
vt 2.625000 1.875000
vt 2.528140 1.884150
vt 2.326910 0.381827
vt 1.875000 0.600000
vt 0.375000 0.600000
vt 0.375000 0.300000
vt 1.875000 0.300000
vt 0.000000 0.000000
vt 2.250000 0.000000
vt -2.250000 0.000000
vt -0.000000 0.000000
vt 0.644626 1.477870
vt 0.517946 1.747790
vt 0.199816 1.620460
vt 0.351683 1.312500
vt 2.396710 2.327490
vt 2.359830 2.359830
vt 2.101510 2.101510
vt 2.174490 2.037170
vt 2.481490 2.278550
vt 2.437500 2.300240
vt 2.254960 1.982480
vt 2.341650 1.938320
vt 2.262780 2.527940
vt 2.253210 2.576050
vt 1.884150 2.528140
vt 1.905370 2.433190
vt 0.429783 2.032630
vt 0.089445 1.945600
vt -2.276010 0.000000
vt -2.276010 0.630000
vt -2.619380 0.630000
vt -2.619380 0.000000
vt 2.619380 0.000000
vt 2.619380 0.630000
vt 2.276010 0.630000
vt 2.276010 0.000000
vt -2.615720 0.630000
vt -2.615720 0.600000
vt -2.317560 0.600000
vt -2.317560 0.630000
vt 0.098257 0.630000
vt 0.098257 0.600000
vt 0.396424 0.600000
vt 0.396424 0.630000
vt -2.235210 0.630000
vt -2.235210 0.600000
vt -1.937040 0.600000
vt -1.937040 0.630000
vt -0.750776 0.630000
vt -0.750776 0.600000
vt -0.653484 0.600000
vt -0.653484 0.630000
vt -1.814660 0.630000
vt -1.814660 0.600000
vt -1.516490 0.600000
vt -1.516490 0.630000
vt -1.362150 0.630000
vt -1.362150 0.600000
vt -1.063980 0.600000
vt -1.063980 0.630000
vt -0.886360 0.630000
vt -0.886360 0.600000
vt -0.588193 0.600000
vt -0.588193 0.630000
vt 1.109260 0.630000
vt 1.109260 0.600000
vt 1.206550 0.600000
vt 1.206550 0.630000
vt 1.959110 0.630000
vt 1.959110 0.600000
vt 2.056400 0.600000
vt 2.056400 0.630000
vt 0.000000 0.630000
vt 2.250000 0.630000
vt 1.875000 0.630000
vt 0.375000 0.630000
vt -2.250000 0.630000
vt -2.576050 2.253210
vt -2.625000 2.250000
vt -2.625000 0.000000
vt -2.282370 0.022457
vt -2.481490 2.278550
vt -2.527940 2.262780
vt -1.945600 0.089445
vt -1.620460 0.199816
vt -2.253210 2.576050
vt -2.262780 2.527940
vt -0.089445 1.945600
vt -0.022457 2.282370
vt -2.437500 2.300240
vt -1.312500 0.351683
vt -2.359830 2.359830
vt -2.396710 2.327490
vt -1.027000 0.542447
vt -0.768845 0.768845
vt -2.300240 2.437500
vt -0.351683 1.312500
vt -0.199816 1.620460
vt -2.278550 2.481490
vt -2.327490 2.396710
vt -0.542447 1.027000
vt -2.250000 2.625000
vt -0.000000 2.625000
vt -0.000000 0.630000
vt -0.375000 0.630000
vt -1.875000 0.630000
vt -1.470230 0.000000
vt -1.470230 0.630000
vt -1.813600 0.630000
vt -1.813600 0.000000
vt 2.625000 0.000000
vt 2.625000 0.375000
vt 2.326910 0.381827
vt 2.282370 0.022457
vt 2.625000 2.250000
vt 2.576050 2.253210
vt 2.528140 1.884150
vt 2.625000 1.875000
vt 1.945600 0.089445
vt 2.032630 0.429783
vt 1.747790 0.517946
vt 1.620460 0.199816
vt 1.477870 0.644626
vt 1.312500 0.351683
vt 1.228050 0.807391
vt 1.003120 1.003120
vt 0.768845 0.768845
vt 1.027000 0.542447
vt 0.807391 1.228050
vt 0.542447 1.027000
vt 1.938320 2.341650
vt 2.278550 2.481490
vt 0.381827 2.326910
vt 0.022457 2.282370
vt -1.021600 0.000000
vt -1.021600 0.630000
vt -1.364970 0.630000
vt -1.364970 0.000000
vt -1.206550 0.630000
vt -1.206550 0.600000
vt -1.109260 0.600000
vt -1.109260 0.630000
vt -0.552553 0.000000
vt -0.552553 0.630000
vt -0.895919 0.630000
vt -0.895919 0.000000
vt -0.071113 0.000000
vt -0.071113 0.630000
vt -0.414480 0.630000
vt -0.414480 0.000000
vt 2.339780 0.630000
vt 2.339780 0.600000
vt 2.437070 0.600000
vt 2.437070 0.630000
vt -2.437070 0.630000
vt -2.437070 0.600000
vt -2.339780 0.600000
vt -2.339780 0.630000
vt 0.414480 0.000000
vt 0.414480 0.630000
vt 0.071113 0.630000
vt 0.071113 0.000000
vt 0.895919 0.000000
vt 0.895919 0.630000
vt 0.552553 0.630000
vt 0.552553 0.000000
vt 1.364970 0.000000
vt 1.364970 0.630000
vt 1.021600 0.630000
vt 1.021600 0.000000
vt 1.813600 0.000000
vt 1.813600 0.630000
vt 1.470230 0.630000
vt 1.470230 0.000000
vt 2.234130 -0.000000
vt 2.234130 0.630000
vt 1.890770 0.630000
vt 1.890770 -0.000000
vt -2.056400 0.630000
vt -2.056400 0.600000
vt -1.959110 0.600000
vt -1.959110 0.630000
vt -1.644060 0.630000
vt -1.644060 0.600000
vt -1.546770 0.600000
vt -1.546770 0.630000
vt -0.283926 0.630000
vt -0.283926 0.600000
vt -0.186634 0.600000
vt -0.186634 0.630000
vt 0.186634 0.630000
vt 0.186634 0.600000
vt 0.283926 0.600000
vt 0.283926 0.630000
vt 0.653484 0.630000
vt 0.653484 0.600000
vt 0.750776 0.600000
vt 0.750776 0.630000
vt 0.000000 2.625000
vt 0.375000 2.625000
vt -0.396424 0.630000
vt -0.396424 0.600000
vt -0.098257 0.600000
vt -0.098257 0.630000
vt 1.546770 0.630000
vt 1.546770 0.600000
vt 1.644060 0.600000
vt 1.644060 0.630000
vt 0.588193 0.630000
vt 0.588193 0.600000
vt 0.886360 0.600000
vt 0.886360 0.630000
vt 1.063980 0.630000
vt 1.063980 0.600000
vt 1.362150 0.600000
vt 1.362150 0.630000
vt 1.516490 0.630000
vt 1.516490 0.600000
vt 1.814660 0.600000
vt 1.814660 0.630000
vt 1.937040 0.630000
vt 1.937040 0.600000
vt 2.235210 0.600000
vt 2.235210 0.630000
vt 2.317560 0.630000
vt 2.317560 0.600000
vt 2.615720 0.600000
vt 2.615720 0.630000
vt 2.250000 2.625000
vt 1.875000 2.625000
vt 1.982480 2.254960
vt 2.037170 2.174490
vt 2.327490 2.396710
vt 2.300240 2.437500
vt 2.527940 2.262780
vt 2.433190 1.905370
vt -1.890770 0.000000
vt -1.890770 0.630000
vt -2.234130 0.630000
vt -2.234130 0.000000
vt -2.423170 0.000000
vt -2.423170 0.630000
vt -2.472220 0.630000
vt -2.472220 0.000000
vt -2.037920 0.000000
vt -2.037920 0.630000
vt -2.086980 0.630000
vt -2.086980 0.000000
vt -1.617390 0.000000
vt -1.617390 0.630000
vt -1.666440 0.630000
vt -1.666440 0.000000
vt -1.168760 0.000000
vt -1.168760 0.630000
vt -1.217810 0.630000
vt -1.217810 0.000000
vt -0.699710 0.000000
vt -0.699710 0.630000
vt -0.748762 0.630000
vt -0.748762 0.000000
vt -0.218271 0.000000
vt -0.218271 0.630000
vt -0.267323 0.630000
vt -0.267323 0.000000
vt 0.267323 0.000000
vt 0.267323 0.630000
vt 0.218271 0.630000
vt 0.218271 0.000000
vt 0.748762 0.000000
vt 0.748762 0.630000
vt 0.699710 0.630000
vt 0.699710 0.000000
vt 1.217810 0.000000
vt 1.217810 0.630000
vt 1.168760 0.630000
vt 1.168760 0.000000
vt 1.666440 0.000000
vt 1.666440 0.630000
vt 1.617390 0.630000
vt 1.617390 0.000000
vt 2.086980 0.000000
vt 2.086980 0.630000
vt 2.037920 0.630000
vt 2.037920 0.000000
vt 2.472220 0.000000
vt 2.472220 0.630000
vt 2.423170 0.630000
vt 2.423170 0.000000
vn 0.0000 1.0000 0.0000
vn 0.0000 0.0000 -1.0000
vn 1.0000 -0.0000 0.0000
vn -0.9914 -0.0000 0.1305
vn -0.9979 0.0000 0.0654
vn -0.0654 -0.0000 0.9979
vn -0.1305 -0.0000 0.9914
vn 0.0229 0.0000 -0.9997
vn 0.0921 0.0000 -0.9958
vn 0.7071 0.0000 -0.7071
vn 0.7980 0.0000 -0.6026
vn 0.2288 0.0000 -0.9735
vn -0.8608 0.0000 0.5090
vn -0.7901 0.0000 0.6129
vn 0.3611 0.0000 -0.9325
vn 0.4865 0.0000 -0.8737
vn 0.6026 0.0000 -0.7980
vn -0.5090 0.0000 0.8608
vn -0.3971 0.0000 0.9178
vn -0.2789 0.0000 0.9603
vn -0.1564 0.0000 0.9877
vn -0.0000 -1.0000 -0.0000
vn -0.9239 -0.0000 0.3827
vn -0.9659 -0.0000 0.2588
vn -0.8660 -0.0000 0.5000
vn -0.9178 0.0000 0.3971
vn -0.7934 -0.0000 0.6088
vn -0.7071 -0.0000 0.7071
vn -0.0940 0.0000 0.9956
vn -0.9956 0.0000 0.0940
vn -0.9877 0.0000 0.1564
vn -0.6088 -0.0000 0.7934
vn -0.5000 -0.0000 0.8660
vn -0.3827 -0.0000 0.9239
vn -0.2588 -0.0000 0.9659
vn -0.9603 0.0000 0.2789
vn -0.6129 0.0000 0.7901
vn 0.8737 0.0000 -0.4865
vn 0.9325 0.0000 -0.3611
vn 0.9735 0.0000 -0.2288
vn 0.9958 0.0000 -0.0921
vn 0.9997 0.0000 -0.0229
vn 0.1305 0.0000 -0.9914
vn 0.0654 0.0000 -0.9979
vn 0.2588 0.0000 -0.9659
vn 0.3827 0.0000 -0.9239
vn 0.4999 0.0000 -0.8661
vn 0.6087 0.0000 -0.7934
vn 0.7934 0.0000 -0.6087
vn 0.8661 0.0000 -0.4999
vn 0.9239 0.0000 -0.3827
vn 0.9659 0.0000 -0.2588
vn 0.9914 0.0000 -0.1305
vn 0.9979 0.0000 -0.0654
usemtl Asphalt.206
s 1
f 12/1/1 19/2/1 20/3/1 11/4/1
f 11/4/1 20/3/1 21/5/1 10/6/1
f 23/7/1 8/8/1 9/9/1 22/10/1
f 24/11/1 7/12/1 8/8/1 23/7/1
f 5/13/1 6/14/1 25/15/1 26/16/1
f 26/16/1 1/17/1 4/18/1 5/13/1
f 3/19/1 4/18/1 1/17/1 2/20/1
f 3/21/2 2/22/2 74/23/2 73/24/2
f 13/25/1 18/26/1 19/2/1 12/1/1
f 25/15/1 6/14/1 7/12/1 24/11/1
f 15/27/1 16/28/1 17/29/1 14/30/1
f 14/30/1 17/29/1 18/26/1 13/25/1
f 10/6/1 21/5/1 22/10/1 9/9/1
f 16/31/3 15/32/3 44/33/3 43/34/3
usemtl Stone.253
f 40/35/3 41/36/3 44/33/3
f 48/37/2 47/38/2 74/23/2
f 94/39/1 95/40/1 78/41/1 79/42/1
f 102/43/1 103/44/1 33/45/1 34/46/1
f 100/47/1 101/48/1 35/49/1 36/50/1
f 107/51/1 108/52/1 27/53/1 29/54/1
f 95/40/1 96/55/1 77/56/1 78/41/1
f 70/57/4 76/58/4 71/59/5 47/60/5
f 40/61/6 46/62/6 86/63/7 60/64/7
f 45/65/8 15/66/8 14/67/9 87/68/9
f 92/69/10 9/70/10 8/71/11 93/72/11
f 87/73/9 14/74/9 13/75/12 88/76/12
f 31/77/13 24/78/13 23/79/14 32/80/14
f 88/81/12 13/82/12 12/83/15 89/84/15
f 89/85/15 12/86/15 11/87/16 90/88/16
f 90/89/16 11/90/16 10/91/17 91/92/17
f 35/93/18 20/94/18 19/95/19 36/96/19
f 37/97/20 18/98/20 17/99/21 38/100/21
f 15/32/3 46/101/3 40/35/3 44/33/3
f 42/102/3 39/103/3 16/31/3
f 45/104/3 46/101/3 15/32/3
f 2/22/2 75/105/2 48/37/2 74/23/2
f 41/36/3 43/34/3 44/33/3
f 59/106/22 41/107/22 40/108/22 60/109/22
f 57/110/22 58/111/22 61/112/22 62/113/22
f 58/111/22 59/106/22 60/109/22 61/112/22
f 49/114/22 50/115/22 69/116/22 70/117/22
f 56/118/22 57/110/22 62/113/22 63/119/22
f 54/120/22 55/121/22 64/122/22 65/123/22
f 52/124/22 67/125/22 68/126/22 51/127/22
f 53/128/22 66/129/22 67/125/22 52/124/22
f 54/120/22 65/123/22 66/129/22 53/128/22
f 48/130/22 49/114/22 70/117/22 47/131/22
f 55/121/22 56/118/22 63/119/22 64/122/22
f 16/31/3 43/34/3 41/36/3 42/102/3
f 71/132/2 72/133/2 3/21/2
f 28/134/2 75/105/2 2/22/2
f 47/38/2 73/24/2 74/23/2
f 68/135/23 78/136/23 77/137/24 69/138/24
f 46/139/1 45/140/1 87/141/1 86/142/1
f 42/143/1 98/144/1 38/145/1 39/146/1
f 85/147/1 88/148/1 89/149/1 84/150/1
f 89/149/1 90/151/1 83/152/1 84/150/1
f 91/153/1 92/154/1 81/155/1 82/156/1
f 3/21/2 73/24/2 47/38/2 71/132/2
f 81/155/1 92/154/1 93/157/1 80/158/1
f 80/158/1 93/157/1 94/39/1 79/42/1
f 90/151/1 91/153/1 82/156/1 83/152/1
f 30/159/1 106/160/1 107/51/1 29/54/1
f 96/55/1 97/161/1 76/162/1 77/56/1
f 86/142/1 87/141/1 88/148/1 85/147/1
f 67/163/25 79/164/25 78/165/23 68/166/23
f 30/167/26 25/168/26 24/169/13 31/170/13
f 66/171/27 80/172/27 79/173/25 67/174/25
f 65/175/28 81/176/28 80/177/27 66/178/27
f 38/179/21 17/180/21 16/181/29 39/182/29
f 28/183/30 2/184/30 1/185/31 27/186/31
f 64/187/32 82/188/32 81/189/28 65/190/28
f 63/191/33 83/192/33 82/193/32 64/194/32
f 62/195/34 84/196/34 83/197/33 63/198/33
f 61/199/35 85/200/35 84/201/34 62/202/34
f 60/203/7 86/204/7 85/205/35 61/206/35
f 27/207/31 1/208/31 26/209/36 29/210/36
f 29/211/36 26/212/36 25/213/26 30/214/26
f 32/215/14 23/216/14 22/217/28 33/218/28
f 33/219/28 22/220/28 21/221/37 34/222/37
f 34/223/37 21/224/37 20/225/18 35/226/18
f 71/227/1 76/162/1 97/161/1 72/228/1
f 91/229/17 10/230/17 9/231/10 92/232/10
f 36/233/19 19/234/19 18/235/20 37/236/20
f 93/237/11 8/238/11 7/239/38 94/240/38
f 94/241/38 7/242/38 6/243/39 95/244/39
f 95/245/39 6/246/39 5/247/40 96/248/40
f 96/249/40 5/250/40 4/251/41 97/252/41
f 97/253/41 4/254/41 3/255/42 72/256/42
f 108/52/1 75/257/1 28/258/1 27/53/1
f 51/127/22 68/126/22 69/116/22 50/115/22
f 31/259/1 32/260/1 104/261/1 105/262/1
f 31/259/1 105/262/1 106/160/1 30/159/1
f 33/45/1 103/44/1 104/261/1 32/260/1
f 102/43/1 34/46/1 35/49/1 101/48/1
f 98/144/1 99/263/1 37/264/1 38/145/1
f 99/263/1 100/47/1 36/50/1 37/264/1
f 69/265/24 77/266/24 76/267/4 70/268/4
f 59/269/43 98/270/43 42/271/44 41/272/44
f 58/273/45 99/274/45 98/275/43 59/276/43
f 57/277/46 100/278/46 99/279/45 58/280/45
f 56/281/47 101/282/47 100/283/46 57/284/46
f 55/285/48 102/286/48 101/287/47 56/288/47
f 54/289/10 103/290/10 102/291/48 55/292/48
f 53/293/49 104/294/49 103/295/10 54/296/10
f 52/297/50 105/298/50 104/299/49 53/300/49
f 51/301/51 106/302/51 105/303/50 52/304/50
f 50/305/52 107/306/52 106/307/51 51/308/51
f 49/309/53 108/310/53 107/311/52 50/312/52
f 48/313/54 75/314/54 108/315/53 49/316/53
