# Blender v3.4.1 OBJ File: ''
# www.blender.org
mtllib roadTile_127.mtl
o roadTile_127
v 1.097070 0.315000 -3.000000
v 1.097070 0.600001 -3.000000
v 2.839190 0.600001 -3.000000
v 2.839190 0.315000 -3.000000
v 3.000000 0.000000 -3.000000
v 0.747630 0.000000 -3.000000
v 0.747630 0.630000 -3.000000
v 1.097070 0.630000 -3.000000
v 2.839190 0.630000 -3.000000
v 3.000000 0.630000 -3.000000
v 3.000000 0.000000 0.000000
v 0.747630 0.000000 -0.000000
v 0.592300 0.000000 -0.375000
v 0.000000 0.000000 -0.375000
v 0.000000 0.000000 -2.625000
v 0.592300 0.000000 -2.625000
v 3.000000 0.000000 -2.598840
v 2.876200 0.000000 -2.437500
v 2.688890 0.000000 -1.985290
v 2.625000 0.000000 -1.500000
v 2.688890 0.000000 -1.014710
v 2.876200 0.000000 -0.562500
v 3.000000 0.000000 -0.401164
v 0.747630 0.630000 0.000000
v 3.000000 0.630000 0.000000
v 2.839190 0.630000 0.000000
v 2.839190 0.600000 0.000000
v 2.839190 0.315000 0.000000
v 1.097070 0.315000 0.000000
v 1.097070 0.600000 0.000000
v 1.097070 0.630000 0.000000
v 0.592300 0.630000 -0.375000
v 0.877778 0.630000 -0.529429
v 0.848739 0.630000 -0.750000
v 0.000000 0.630000 -0.750000
v 0.000000 0.630000 -0.375000
v 0.877778 0.600000 -0.529429
v 0.848739 0.600000 -0.750000
v 0.877778 0.600000 -2.470570
v 0.848739 0.600000 -2.250000
v 0.000000 0.600000 -2.250000
v 0.000000 0.600000 -0.750000
v 2.551440 0.600000 -0.375000
v 2.326670 0.600000 -0.917657
v 2.250000 0.600000 -1.500000
v 2.326670 0.600000 -2.082340
v 2.551440 0.600000 -2.625000
v 0.848739 0.630000 -2.250000
v 0.877778 0.630000 -2.470570
v 0.000000 0.630000 -2.250000
v 0.592300 0.630000 -2.625000
v 0.000000 0.630000 -2.625000
v 0.000000 0.275000 -0.750000
v 0.000000 0.275000 -2.250000
v 2.551440 0.630000 -0.375000
v 3.000000 0.630000 -0.401164
v 2.876200 0.630000 -0.562500
v 2.688890 0.630000 -1.014710
v 2.625000 0.630000 -1.500000
v 2.688890 0.630000 -1.985290
v 2.876200 0.630000 -2.437500
v 3.000000 0.630000 -2.598840
v 2.551440 0.630000 -2.625000
v 2.326670 0.630000 -2.082340
v 2.250000 0.630000 -1.500000
v 2.326670 0.630000 -0.917657
vt 1.097070 0.315000
vt 2.839190 0.315000
vt 2.839190 0.600000
vt 1.097070 0.600000
vt 1.097070 0.000000
vt 2.551440 0.375000
vt 2.326670 0.917657
vt 0.877778 0.529429
vt 0.848739 2.250000
vt 2.250000 1.500000
vt 2.326670 2.082340
vt 0.877778 2.470570
vt 0.848739 0.750000
vt 2.839190 3.000000
vt 1.097070 3.000000
vt 2.551440 2.625000
vt 2.839190 0.000000
vt -2.250000 0.600000
vt -2.250000 0.275000
vt -0.750000 0.275000
vt -0.750000 0.600000
vt 0.000000 0.750000
vt 0.000000 2.250000
vt -2.839190 0.315000
vt -1.097070 0.315000
vt -1.097070 0.600000
vt -2.839190 0.600000
vt -3.000000 0.000000
vt -0.592300 2.625000
vt -2.688890 1.985290
vt -2.625000 1.500000
vt 0.747630 0.000000
vt 3.000000 0.000000
vt 0.848739 2.250000
vt 0.877778 2.470570
vt 0.592300 2.625000
vt -2.625000 0.000000
vt -0.000000 2.625000
vt -0.592300 0.375000
vt 0.000000 0.375000
vt -0.747630 0.000000
vt -0.747630 0.630000
vt -1.097070 0.630000
vt -2.839190 0.630000
vt -3.000000 0.630000
vt -3.000000 0.401164
vt -3.000000 0.000000
vt -2.876200 0.562500
vt -0.747630 0.000000
vt 2.319270 0.000000
vt 2.319270 0.630000
vt 1.829800 0.630000
vt 1.829800 0.000000
vt -2.876200 2.437500
vt -0.747630 3.000000
vt 2.625000 1.500000
vt 2.688890 1.985290
vt 2.326670 2.082340
vt 2.250000 1.500000
vt -3.000000 3.000000
vt -3.000000 2.598840
vt 1.097070 0.630000
vt 0.747630 0.630000
vt 3.000000 0.630000
vt 2.839190 0.630000
vt 0.877778 0.529429
vt 0.848739 0.750000
vt 0.592300 0.375000
vt 0.000000 2.250000
vt 0.000000 2.625000
vt 0.747630 3.000000
vt 1.097070 3.000000
vt 3.191470 0.600000
vt 3.191470 0.630000
vt 2.618420 0.630000
vt 2.618420 0.600000
vt 0.747630 0.000000
vt 1.097070 0.000000
vt -0.000000 0.630000
vt -0.000000 0.000000
vt 0.592300 0.000000
vt 0.592300 0.630000
vt 0.000000 0.630000
vt 0.000000 0.600000
vt 0.848739 0.600000
vt 0.848739 0.630000
vt -2.688890 1.014710
vt 0.000000 0.750000
vt 0.000000 0.375000
vt 3.000000 2.598840
vt 3.000000 3.000000
vt 2.839190 3.000000
vt 2.551440 2.625000
vt -0.606115 0.600000
vt -0.606115 0.630000
vt -1.193480 0.630000
vt -1.193480 0.600000
vt 0.629940 0.600000
vt 0.629940 0.630000
vt 0.042572 0.630000
vt 0.042572 0.600000
vt -0.750000 0.630000
vt -0.375000 0.630000
vt -0.375000 0.000000
vt -2.250000 0.630000
vt -2.625000 0.630000
vt -0.592300 0.630000
vt -0.592300 0.000000
vt -0.000000 0.000000
vt -0.000000 0.630000
vt -0.000000 0.600000
vt -0.000000 0.630000
vt -0.848739 0.630000
vt -0.848739 0.600000
vt 0.410326 0.630000
vt 0.410326 0.600000
vt 0.632801 0.600000
vt 0.632801 0.630000
vt 0.153217 0.600000
vt 0.153217 0.630000
vt -0.419832 0.630000
vt -0.419832 0.600000
vt 0.286106 0.000000
vt 0.286106 0.630000
vt -0.119791 0.630000
vt -0.119791 0.000000
vt 3.000000 0.401164
vt 2.876200 0.562500
vt 2.551440 0.375000
vt 2.876200 2.437500
vt 2.326670 0.917657
vt 2.688890 1.014710
vt 2.839190 0.000000
vt 3.000000 -0.000000
vt 1.728390 0.600000
vt 1.728390 0.630000
vt 1.255710 0.630000
vt 1.255710 0.600000
vt 0.401164 0.000000
vt 0.401164 0.630000
vt -0.000000 0.630000
vt -0.000000 0.000000
vt -1.304660 0.000000
vt -1.304660 0.630000
vt -1.508020 0.630000
vt -1.508020 0.000000
vt -0.091519 0.000000
vt -0.091519 0.630000
vt -0.580993 0.630000
vt -0.580993 0.000000
vt 1.144540 0.000000
vt 1.144540 0.630000
vt 0.655063 0.630000
vt 0.655063 0.000000
vt 3.352630 0.000000
vt 3.352630 0.630000
vt 2.863160 0.630000
vt 2.863160 0.000000
vt 3.888080 0.000000
vt 3.888080 0.630000
vt 3.684720 0.630000
vt 3.684720 0.000000
vt 2.598840 0.630000
vt 2.598840 0.000000
vt 3.000000 0.000000
vt 3.000000 0.630000
vt -3.635770 0.600000
vt -3.635770 0.630000
vt -4.108450 0.630000
vt -4.108450 0.600000
vt -2.814210 0.600000
vt -2.814210 0.630000
vt -3.401580 0.630000
vt -3.401580 0.600000
vt -1.780850 0.600000
vt -1.780850 0.630000
vt -2.368220 0.630000
vt -2.368220 0.600000
vt 2.564010 0.630000
vt 2.341530 0.630000
vt 2.341530 0.600000
vt 2.564010 0.600000
vt -3.057740 0.000000
vt -2.651850 0.000000
vt -2.651850 0.630000
vt -3.057740 0.630000
vn -0.0000 -0.0000 1.0000
vn -0.0000 1.0000 0.0000
vn -1.0000 0.0000 -0.0000
vn 0.0000 0.0000 -1.0000
vn -0.0000 -1.0000 -0.0000
vn 0.9659 -0.0000 0.2588
vn 1.0000 -0.0000 -0.0000
vn 0.9239 0.0000 0.3827
vn -0.9659 0.0000 0.2588
vn -0.8660 0.0000 0.5000
vn 0.9659 0.0000 -0.2588
vn 0.9914 0.0000 -0.1305
vn 0.9239 0.0000 -0.3827
vn -0.9239 -0.0000 0.3827
vn -0.7934 0.0000 0.6088
vn 0.8660 -0.0000 -0.5000
vn 0.7933 0.0000 -0.6088
vn 0.8660 -0.0000 0.5000
vn 0.7934 0.0000 0.6088
vn -0.8660 0.0000 -0.5000
vn -0.7934 0.0000 -0.6088
vn -0.9659 0.0000 -0.2588
vn 0.9914 0.0000 0.1305
vn -0.9239 0.0000 -0.3827
usemtl Asphalt.081
s 1
f 29/1/1 28/2/1 27/3/1 30/4/1
f 30/5/2 43/6/2 44/7/2 37/8/2
f 40/9/2 45/10/2 46/11/2 39/12/2
f 45/10/2 38/13/2 37/8/2 44/7/2
f 3/14/2 2/15/2 47/16/2
f 40/9/2 38/13/2 45/10/2
f 30/5/2 27/17/2 43/6/2
f 41/18/3 54/19/3 53/20/3 42/21/3
f 42/22/2 38/13/2 40/9/2 41/23/2
f 47/16/2 2/15/2 39/12/2 46/11/2
f 4/24/4 1/25/4 2/26/4 3/27/4
usemtl Stone.107
f 1/25/4 4/24/4 5/28/4
f 16/29/5 19/30/5 20/31/5
f 29/1/1 12/32/1 11/33/1
f 48/34/2 49/35/2 51/36/2
f 53/20/3 54/19/3 15/37/3
f 15/38/5 16/29/5 13/39/5 14/40/5
f 6/41/4 7/42/4 1/25/4
f 7/42/4 8/43/4 2/26/4
f 2/26/4 1/25/4 7/42/4
f 9/44/4 10/45/4 3/27/4
f 10/45/4 5/28/4 4/24/4
f 3/27/4 10/45/4 4/24/4
f 6/41/4 1/25/4 5/28/4
f 23/46/5 11/47/5 22/48/5
f 11/47/5 12/49/5 22/48/5
f 19/50/6 60/51/6 59/52/7 20/53/7
f 18/54/5 19/30/5 16/29/5 6/55/5
f 59/56/2 60/57/2 64/58/2 65/59/2
f 6/55/5 5/60/5 18/54/5
f 5/60/5 17/61/5 18/54/5
f 31/62/1 24/63/1 30/4/1
f 24/63/1 12/32/1 29/1/1
f 30/4/1 24/63/1 29/1/1
f 11/33/1 25/64/1 28/2/1
f 25/64/1 26/65/1 27/3/1
f 27/3/1 28/2/1 25/64/1
f 28/2/1 29/1/1 11/33/1
f 33/66/2 34/67/2 32/68/2
f 50/69/2 48/34/2 51/36/2 52/70/2
f 7/71/2 51/36/2 49/35/2 8/72/2
f 2/73/8 8/74/8 49/75/6 39/76/6
f 24/77/2 31/78/2 33/66/2 32/68/2
f 36/79/1 14/80/1 13/81/1 32/82/1
f 50/83/1 41/84/1 40/85/1 48/86/1
f 22/48/5 12/49/5 13/39/5 21/87/5
f 35/88/2 36/89/2 32/68/2 34/67/2
f 62/90/2 10/91/2 9/92/2 63/93/2
f 44/94/9 66/95/9 65/96/3 45/97/3
f 43/98/10 55/99/10 66/100/9 44/101/9
f 35/102/3 42/21/3 36/103/3
f 20/31/5 21/87/5 13/39/5 16/29/5
f 14/104/3 36/103/3 42/21/3 53/20/3
f 41/18/3 50/105/3 52/106/3
f 14/104/3 53/20/3 15/37/3
f 51/107/4 16/108/4 15/109/4 52/110/4
f 42/111/4 35/112/4 34/113/4 38/114/4
f 33/115/11 37/116/11 38/117/12 34/118/12
f 37/119/11 33/120/11 31/121/13 30/122/13
f 12/123/14 24/124/14 32/125/14 13/126/14
f 52/106/3 15/37/3 54/19/3 41/18/3
f 56/127/2 57/128/2 55/129/2
f 60/57/2 61/130/2 63/93/2 64/58/2
f 66/131/2 58/132/2 59/56/2 65/59/2
f 57/128/2 58/132/2 66/131/2 55/129/2
f 56/127/2 55/129/2 26/133/2 25/134/2
f 61/130/2 62/90/2 63/93/2
f 27/135/15 26/136/15 55/137/10 43/138/10
f 23/139/7 56/140/7 25/141/7 11/142/7
f 22/143/16 57/144/16 56/145/17 23/146/17
f 21/147/11 58/148/11 57/149/16 22/150/16
f 20/151/7 59/152/7 58/153/11 21/154/11
f 18/155/18 61/156/18 60/157/6 19/158/6
f 17/159/19 62/160/19 61/161/18 18/162/18
f 62/163/7 17/164/7 5/165/7 10/166/7
f 47/167/20 63/168/20 9/169/21 3/170/21
f 46/171/22 64/172/22 63/173/20 47/174/20
f 45/175/3 65/176/3 64/177/22 46/178/22
f 49/179/6 48/180/23 40/181/23 39/182/6
f 6/183/24 16/184/24 51/185/24 7/186/24
