# Blender v3.4.1 OBJ File: ''
# www.blender.org
mtllib roadTile_045.mtl
o roadTile_045
v 0.750000 1.730000 -0.750000
v 0.750000 0.600000 -0.750000
v 0.750000 0.600001 -3.000000
v 0.750000 1.730000 -3.000000
v 3.000000 0.600000 -0.750000
v 3.000000 1.730000 -0.750000
v 3.000000 0.600001 -3.000000
v 3.000000 0.300000 -3.000000
v 0.750000 0.300000 -3.000000
v 3.000000 0.300000 -0.750000
v 3.000000 1.730000 -0.375000
v 3.000000 1.650000 -0.375000
v 3.000000 0.000000 -0.375000
v 3.000000 0.000000 -3.000000
v 0.375000 1.730000 -3.000000
v 0.375000 1.730000 -0.375000
v 0.375000 0.000000 -3.000000
v 0.375000 1.650000 -3.000000
v 3.000000 0.000000 0.000000
v 0.000000 0.000000 -0.000000
v 0.000000 0.000000 -3.000000
v 3.000000 1.650000 0.000000
v 0.375000 1.650000 -0.375000
v 0.000000 1.650000 -3.000000
v 0.000000 1.650000 0.000000
vt 0.375000 0.000000
vt 3.000000 0.000000
vt 0.750000 0.300000
vt 0.750000 0.750000
vt 0.375000 3.000000
vt 0.375000 0.375000
vt -0.375000 0.000000
vt -0.375000 1.650000
vt -0.750000 0.600000
vt -3.000000 1.730000
vt -3.000000 0.600000
vt -0.750000 0.600000
vt -0.750000 1.730000
vt 0.750000 0.600000
vt 0.750000 1.730000
vt 0.375000 1.650000
vt 0.375000 1.730000
vt 3.000000 0.300000
vt 0.750000 3.000000
vt 3.000000 0.375000
vt 3.000000 0.750000
vt -3.000000 0.300000
vt -3.000000 0.000000
vt -0.750000 0.300000
vt -0.375000 1.730000
vt -0.750000 1.730000
vt 3.000000 1.650000
vt 3.000000 1.730000
vt 0.375000 1.730000
vt 0.375000 1.650000
vt -0.375000 1.650000
vt -0.375000 1.730000
vt -3.000000 1.730000
vt -3.000000 1.650000
vt 3.000000 1.730000
vt 0.750000 1.730000
vt 0.750000 0.600000
vt 3.000000 0.600000
vt 3.000000 0.750000
vt 3.000000 3.000000
vt 0.750000 3.000000
vt 0.750000 0.750000
vt -3.000000 0.600000
vt 3.000000 0.600000
vt -0.000000 0.000000
vt -0.000000 3.000000
vt -0.375000 3.000000
vt 0.375000 0.375000
vt 0.000000 3.000000
vt 0.000000 0.000000
vt -3.000000 0.000000
vt -0.000000 1.650000
vt -3.000000 1.650000
vt -3.000000 0.375000
vt -3.000000 -0.000000
vt 3.000000 0.000000
vt 3.000000 0.375000
vt 0.375000 3.000000
vt -0.000000 0.000000
vt -0.000000 1.650000
vt -3.000000 3.000000
vt 0.000000 1.650000
vt 0.000000 0.000000
vt 3.000000 1.650000
vt 3.000000 0.000000
vn 1.0000 0.0000 0.0000
vn 0.0000 1.0000 0.0000
vn -0.0000 0.0000 -1.0000
vn 0.0000 0.0000 1.0000
vn -1.0000 0.0000 0.0000
vn -0.0000 -1.0000 -0.0000
usemtl Stone.025
s 1
f 13/1/1 14/2/1 10/3/1
f 1/4/2 15/5/2 16/6/2
f 17/7/3 18/8/3 3/9/3
f 6/10/3 5/11/3 2/12/3 1/13/3
f 5/14/1 6/15/1 12/16/1
f 6/15/1 11/17/1 12/16/1
f 12/16/1 13/1/1 5/14/1
f 5/14/1 13/1/1 10/3/1
f 14/2/1 8/18/1 10/3/1
f 1/4/2 4/19/2 15/5/2
f 16/6/2 11/20/2 1/4/2
f 11/20/2 6/21/2 1/4/2
f 8/22/3 14/23/3 9/24/3
f 14/23/3 17/7/3 9/24/3
f 18/8/3 15/25/3 4/26/3
f 18/8/3 4/26/3 3/9/3
f 3/9/3 9/24/3 17/7/3
f 12/27/4 11/28/4 16/29/4 23/30/4
f 23/31/5 16/32/5 15/33/5 18/34/5
f 4/35/1 1/36/1 2/37/1 3/38/1
usemtl Asphalt.014
f 5/39/2 7/40/2 3/41/2 2/42/2
f 3/9/3 7/43/3 8/22/3 9/24/3
f 7/44/1 5/14/1 10/3/1 8/18/1
usemtl Grass.032
f 20/45/6 21/46/6 17/47/6
f 23/48/2 24/49/2 25/50/2
f 21/51/5 20/45/5 25/52/5 24/53/5
f 13/54/6 19/55/6 20/45/6
f 22/56/2 12/57/2 23/48/2
f 23/48/2 18/58/2 24/49/2
f 25/50/2 22/56/2 23/48/2
f 21/59/3 24/60/3 18/8/3 17/7/3
f 13/54/6 20/45/6 17/47/6 14/61/6
f 22/62/1 19/63/1 13/1/1 12/16/1
f 22/64/4 25/52/4 20/45/4 19/65/4
