# Blender v3.4.1 OBJ File: ''
# www.blender.org
mtllib roadTile_018.mtl
o roadTile_018
v 2.250000 0.730000 -0.937500
v 0.750000 1.280000 -0.562500
v 0.750000 1.375000 -0.562500
v 2.250000 0.825000 -0.937500
v 3.000000 0.455000 -0.750000
v 3.000000 0.455000 -2.250000
v 2.250000 0.730000 -2.437500
v 1.500000 1.005000 -2.250000
v 0.750000 1.280000 -2.062500
v 0.000000 1.555000 -2.250000
v 0.000000 1.555000 -0.750000
v 3.000000 0.550000 -0.750000
v 0.000000 1.650000 -0.750000
v 0.000000 1.650000 0.000000
v 3.000000 0.550000 0.000000
v 0.000000 1.375000 -0.750000
v 0.000000 1.375000 -2.250000
v 0.000000 1.650000 -2.250000
v 0.000000 1.650000 -3.000000
v 0.000000 0.000000 -3.000000
v 0.000000 0.000000 -0.000000
v 0.750000 1.375000 -2.062500
v 2.250000 0.825000 -2.437500
v 3.000000 0.550000 -2.250000
v 3.000000 0.275000 -2.250000
v 3.000000 0.275000 -0.750000
v 3.000000 0.000000 -0.000000
v 3.000000 0.000000 -3.000000
v 3.000000 0.550000 -3.000000
vt 1.227840 1.375000
vt 2.000920 1.005000
vt 2.774000 0.825000
vt 0.750000 0.535316
vt 0.562500 -0.263511
vt 2.062500 -0.263511
vt 2.250000 0.535316
vt 2.437500 -1.861170
vt 2.250000 -1.062340
vt 0.937500 -1.861170
vt -2.728530 0.550000
vt -2.728530 0.455000
vt -1.955440 0.730000
vt -1.955440 0.825000
vt -0.591181 1.375000
vt -0.591181 1.280000
vt 0.181902 1.555000
vt 0.181902 1.650000
vt 0.227377 1.375000
vt -0.545705 1.650000
vt -0.545705 1.555000
vt 0.227377 1.280000
vt 2.364720 0.550000
vt 1.591640 0.825000
vt 1.591640 0.730000
vt 2.364720 0.455000
vt 1.227840 1.280000
vt 2.774000 0.730000
vt -2.410200 0.825000
vt -2.410200 0.730000
vt -0.864033 1.280000
vt -0.864033 1.375000
vt -0.750000 1.375000
vt -0.750000 1.555000
vt -2.250000 1.555000
vt -2.250000 1.375000
vt 2.250000 0.275000
vt 2.250000 0.455000
vt 0.750000 0.455000
vt 0.750000 0.275000
vt 2.250000 -2.659990
vt 0.750000 -2.659990
vt 0.562500 -0.230807
vt -0.000000 -2.627290
vt 0.937500 -1.828460
vt 0.000000 -0.000000
vt 3.000000 -0.000000
vt 2.437500 -1.828460
vt 3.000000 0.568020
vt 2.062500 -0.230807
vt -3.000000 -0.000000
vt -0.000000 -0.000000
vt 0.000000 0.550000
vt 0.750000 0.568020
vt -0.000000 0.568020
vt 0.750000 -2.627290
vt 0.000000 1.650000
vt -0.750000 1.650000
vt -2.250000 1.650000
vt -3.000000 1.650000
vt 3.000000 0.550000
vt 3.000000 -0.000000
vt 3.000000 0.550000
vt 2.250000 0.550000
vt 0.750000 0.550000
vt -3.000000 0.550000
vt -3.000000 -0.000000
vt -0.000000 -0.000000
vt -0.000000 1.650000
vt 2.250000 -2.627290
vt 3.000000 -2.627290
vt 2.250000 0.568020
vt -3.000000 0.000000
vt 0.000000 3.000000
vt -3.000000 3.000000
vt -88.582703 -41.824402
vt -81.200798 -10.374500
vt -88.582703 21.075399
vn 0.2425 0.0000 0.9701
vn 0.3443 0.9389 0.0000
vn 0.2425 0.0000 -0.9701
vn -0.2425 0.0000 0.9701
vn -0.2425 0.0000 -0.9701
vn -1.0000 -0.0000 0.0000
vn 1.0000 0.0000 0.0000
vn 0.0000 -0.0000 1.0000
vn 0.0000 0.0000 -1.0000
vn 0.0000 -1.0000 -0.0000
vn -0.3443 -0.9389 -0.0000
usemtl Alternate_Dirt.005
s 1
f 22/1/1 8/2/1 23/3/1
f 11/4/2 2/5/2 9/6/2 10/7/2
f 7/8/2 8/9/2 1/10/2
f 12/11/3 5/12/3 1/13/3 4/14/3
f 3/15/3 2/16/3 11/17/3 13/18/3
f 22/19/4 18/20/4 10/21/4 9/22/4
f 24/23/4 23/24/4 7/25/4 6/26/4
f 9/27/1 8/2/1 22/1/1
f 8/2/1 7/28/1 23/3/1
f 4/29/5 1/30/5 2/31/5 3/32/5
f 1/10/2 8/9/2 9/6/2 2/5/2
f 16/33/6 11/34/6 10/35/6 17/36/6
f 25/37/7 6/38/7 5/39/7 26/40/7
f 6/41/2 7/8/2 1/10/2 5/42/2
usemtl Grass.006
f 3/43/2 15/44/2 4/45/2
f 26/40/7 27/46/7 28/47/7
f 23/48/2 19/49/2 22/50/2
f 16/33/6 17/36/6 20/51/6 21/52/6
f 5/39/7 15/53/7 27/46/7 26/40/7
f 3/43/2 13/54/2 14/55/2
f 14/55/2 15/44/2 3/43/2
f 15/44/2 12/56/2 4/45/2
f 14/57/6 13/58/6 11/34/6
f 14/57/6 11/34/6 16/33/6
f 21/52/6 14/57/6 16/33/6
f 18/59/6 19/60/6 10/35/6
f 19/60/6 20/51/6 17/36/6
f 10/35/6 19/60/6 17/36/6
f 15/61/8 14/57/8 21/52/8 27/62/8
f 29/63/7 24/64/7 6/38/7
f 12/65/7 15/53/7 5/39/7
f 28/47/7 29/63/7 6/38/7 25/37/7
f 28/47/7 25/37/7 26/40/7
f 29/66/9 28/67/9 20/68/9 19/69/9
f 23/48/2 24/70/2 29/71/2
f 29/71/2 19/49/2 23/48/2
f 19/49/2 18/72/2 22/50/2
f 27/73/10 21/52/10 20/74/10 28/75/10
usemtl FrontColor
f 8/76/11 9/77/11 10/78/11
