# Blender v3.4.1 OBJ File: ''
# www.blender.org
mtllib roadTile_058.mtl
o roadTile_058
v 3.000000 0.300000 0.000000
v 0.000000 0.300000 0.000000
v 0.000000 0.000000 -0.000000
v 3.000000 0.000000 0.000000
v 0.000000 0.300000 -3.000000
v 3.000000 0.300000 -3.000000
v 0.000000 0.000000 -3.000000
v 0.000000 0.600001 -3.000000
v 0.000000 0.600000 0.000000
v 3.000000 0.600001 -3.000000
v 3.000000 0.600000 0.000000
v 3.000000 0.000000 -3.000000
vt -3.000000 0.000000
vt -0.000000 0.000000
vt -0.000000 0.300000
vt -3.000000 0.300000
vt 0.000000 0.000000
vt 3.000000 0.000000
vt 3.000000 0.300000
vt 0.000000 0.300000
vt -3.000000 0.000000
vt 0.000000 0.000000
vt 0.000000 0.300000
vt -3.000000 0.300000
vt -0.000000 3.000000
vt -3.000000 3.000000
vt -3.000000 0.000000
vt 3.000000 0.000000
vt 3.000000 0.300000
vt 118.110001 118.110001
vt 0.000000 118.110001
vt 0.000000 0.000000
vt 118.110001 0.000000
vt -0.000000 0.600000
vt -3.000000 0.600000
vt 0.000000 0.600000
vt -3.000000 0.600000
vt 3.000000 3.000000
vt 0.000000 3.000000
vt 0.000000 0.000000
vt 3.000000 -0.000000
vt 3.000000 0.600000
vt 3.000000 0.600000
vt 0.000000 0.600000
vn -1.0000 0.0000 -0.0000
vn 1.0000 0.0000 0.0000
vn 0.0000 0.0000 -1.0000
vn -0.0000 -1.0000 -0.0000
vn -0.0000 -0.0000 1.0000
vn 0.0000 1.0000 0.0000
usemtl Stone.038
s 1
f 7/1/1 3/2/1 2/3/1 5/4/1
f 4/5/2 12/6/2 6/7/2 1/8/2
f 12/9/3 7/10/3 5/11/3 6/12/3
f 7/13/4 12/14/4 4/15/4 3/2/4
f 4/16/5 1/17/5 2/3/5 3/2/5
usemtl FrontColor.004
f 6/18/6 5/19/6 2/20/6 1/21/6
usemtl Asphalt.027
f 9/22/1 8/23/1 5/4/1 2/3/1
f 6/12/3 5/11/3 8/24/3 10/25/3
f 10/26/6 8/27/6 9/28/6 11/29/6
f 11/30/5 9/22/5 2/3/5 1/17/5
f 10/31/2 11/32/2 1/8/2 6/7/2
