# Blender v3.4.1 OBJ File: ''
# www.blender.org
mtllib roadTile_004.mtl
o roadTile_004
v 3.000000 0.000000 -0.000000
v 3.000000 0.000000 -3.000000
v 3.000000 0.550000 -3.000000
v 3.000000 0.550000 0.000000
v 0.000000 0.000000 0.000000
v 0.000000 0.000000 -3.000000
v 0.000000 1.650000 0.000000
v 0.000000 0.550000 -3.000000
vt -3.000000 3.000000
vt -3.000000 0.000000
vt -0.000000 -0.000000
vt 0.000000 3.000000
vt -0.000000 0.550000
vt -3.000000 0.550000
vt -3.000000 0.000000
vt -0.000000 0.000000
vt 0.000000 1.650000
vt -3.000000 0.550000
vt -3.000000 0.000000
vt 3.000000 0.550000
vt 3.000000 -0.000000
vt -3.000000 -2.627290
vt -0.000000 -2.627290
vt -0.000000 0.568020
vt -0.000000 -2.627290
vt -0.000000 0.550000
vt -0.000000 -0.000000
vt 3.000000 -0.000000
vt 3.000000 0.550000
vn 0.0000 -1.0000 -0.0000
vn 0.0000 0.0000 -1.0000
vn -1.0000 -0.0000 0.0000
vn 0.0000 -0.0000 1.0000
vn 0.0000 0.9389 -0.3442
vn -0.0000 0.9389 -0.3443
vn 0.3442 0.9389 -0.0000
vn 0.3443 0.9389 0.0000
vn 1.0000 0.0000 0.0000
usemtl Stone.002
s 1
f 2/1/1 1/2/1 5/3/1 6/4/1
f 8/5/2 3/6/2 2/7/2 6/8/2
f 5/3/3 7/9/3 8/10/3 6/11/3
f 4/12/4 7/9/4 5/3/4 1/13/4
f 3/14/5 8/15/6 7/16/7 4/17/8
f 4/18/9 1/19/9 2/20/9 3/21/9
