# Blender v3.4.1 OBJ File: ''
# www.blender.org
mtllib roadTile_001.mtl
o roadTile_001.002
v 0.000000 0.455000 -3.000000
v 0.000000 0.000000 -3.000000
v 0.000000 0.000000 -0.000000
v 0.000000 0.455000 0.000000
v 3.000000 0.455000 -3.000000
v 3.000000 0.000000 -3.000000
v 3.000000 0.455000 0.000000
v 3.000000 0.000000 0.000000
vt 3.000000 0.455000
vt 0.000000 0.455000
vt 0.000000 0.000000
vt 3.000000 0.000000
vt 3.000000 0.455000
vt -0.000000 0.455000
vt -0.000000 0.000000
vt 3.000000 0.000000
vt -0.000000 3.000000
vt -3.000000 3.000000
vt -3.000000 -0.000000
vt 0.000000 3.000000
vt -0.000000 0.000000
vt 3.000000 -0.000000
vt 3.000000 3.000000
vt -3.000000 0.455000
vt -3.000000 -0.000000
vt -0.000000 0.455000
vt -3.000000 0.455000
vt -3.000000 -0.000000
vt -0.000000 -0.000000
vn 1.0000 0.0000 0.0000
vn -0.0000 -0.0000 1.0000
vn -0.0000 -1.0000 -0.0000
vn 0.0000 1.0000 0.0000
vn -1.0000 0.0000 -0.0000
vn 0.0000 0.0000 -1.0000
usemtl Water.002
s 1
f 5/1/1 7/2/1 8/3/1 6/4/1
f 7/5/2 4/6/2 3/7/2 8/8/2
f 2/9/3 6/10/3 8/11/3 3/7/3
f 1/12/4 4/13/4 7/14/4 5/15/4
f 4/6/5 1/16/5 2/17/5 3/7/5
f 1/18/6 5/19/6 6/20/6 2/21/6
