# Blender v3.4.1 OBJ File: ''
# www.blender.org
mtllib roadTile_056.mtl
o roadTile_056
v 0.000000 0.600000 0.000000
v 0.000000 0.600000 -2.250000
v 0.000000 0.300000 -2.250000
v 0.000000 0.300000 0.000000
v 3.000000 0.600001 -3.000000
v 0.750000 0.600001 -3.000000
v 0.750000 0.600000 -2.250000
v 3.000000 0.600000 0.000000
v 3.000000 0.300000 -3.000000
v 0.750000 0.300000 -3.000000
v 3.000000 0.000000 -3.000000
v 0.375000 0.000000 -3.000000
v 0.375000 0.550000 -3.000000
v 0.375000 0.630000 -3.000000
v 0.750000 0.630000 -3.000000
v 3.000000 0.000000 0.000000
v 0.000000 0.000000 -0.000000
v 0.000000 0.000000 -2.625000
v 0.000000 0.000000 -3.000000
v 3.000000 0.300000 0.000000
v 0.000000 0.630000 -2.625000
v 0.000000 0.550000 -2.625000
v 0.000000 0.630000 -2.250000
v 0.375000 0.630000 -2.625000
v 0.375000 0.550000 -2.625000
v 0.750000 0.630000 -2.250000
v 0.000000 0.550000 -3.000000
vt 3.000000 3.000000
vt 0.750000 3.000000
vt 0.750000 2.250000
vt 0.000000 2.250000
vt 0.000000 0.000000
vt 3.000000 0.000000
vt 3.000000 0.600000
vt 0.000000 0.600000
vt 0.000000 0.300000
vt 3.000000 0.300000
vt 3.000000 0.600000
vt 0.000000 0.600000
vt 0.000000 0.300000
vt 3.000000 0.300000
vt -3.000000 0.600000
vt -3.000000 0.300000
vt -0.750000 0.300000
vt -0.750000 0.600000
vt -2.250000 0.600000
vt -2.250000 0.300000
vt 0.750000 3.000000
vt 0.375000 3.000000
vt 0.375000 2.625000
vt -2.625000 0.550000
vt -2.625000 0.000000
vt -2.625000 0.550000
vt -2.625000 0.630000
vt -3.000000 0.630000
vt -3.000000 0.550000
vt -3.000000 0.000000
vt -0.375000 0.000000
vt -0.375000 0.630000
vt -0.750000 0.630000
vt -0.375000 0.550000
vt -0.000000 0.000000
vt -2.625000 0.630000
vt -2.250000 0.630000
vt 0.000000 2.625000
vt 0.000000 2.250000
vt 0.750000 2.250000
vt 0.000000 0.000000
vt 3.000000 0.000000
vt -0.000000 0.630000
vt -0.000000 0.600000
vt 0.750000 0.600000
vt 0.750000 0.630000
vt 2.250000 0.630000
vt 2.250000 0.600000
vt 3.000000 0.600000
vt 3.000000 0.630000
vt 0.000000 0.550000
vt 0.000000 0.630000
vt -0.375000 0.630000
vt -0.375000 0.550000
vt 3.000000 0.000000
vt -3.000000 0.000000
vt -0.000000 2.625000
vt -0.375000 3.000000
vt 0.375000 3.000000
vt 0.000000 3.000000
vt 0.000000 2.625000
vt 0.375000 2.625000
vt -3.000000 3.000000
vt -0.000000 3.000000
vt 0.000000 0.000000
vt 0.000000 0.550000
vt -3.000000 0.550000
vt -3.000000 0.000000
vn 0.0000 1.0000 0.0000
vn 1.0000 0.0000 0.0000
vn -0.0000 -0.0000 1.0000
vn 0.0000 0.0000 -1.0000
vn -1.0000 0.0000 -0.0000
vn -0.0000 -1.0000 -0.0000
usemtl Asphalt.025
s 1
f 5/1/1 6/2/1 7/3/1
f 7/3/1 2/4/1 1/5/1
f 7/3/1 1/5/1 8/6/1 5/1/1
f 5/7/2 8/8/2 20/9/2 9/10/2
f 8/11/3 1/12/3 4/13/3 20/14/3
f 5/15/4 9/16/4 10/17/4 6/18/4
f 4/13/5 1/12/5 2/19/5 3/20/5
usemtl Stone.036
f 15/21/1 14/22/1 24/23/1
f 22/24/5 18/25/5 3/20/5 2/19/5
f 25/26/5 24/27/5 14/28/5 13/29/5
f 9/16/4 11/30/4 10/17/4
f 11/30/4 12/31/4 10/17/4
f 14/32/4 15/33/4 6/18/4 13/34/4
f 18/25/5 17/35/5 3/20/5
f 17/35/5 4/13/5 3/20/5
f 10/17/4 12/31/4 13/34/4 6/18/4
f 21/36/5 22/24/5 2/19/5 23/37/5
f 21/38/1 23/39/1 24/23/1
f 23/39/1 26/40/1 24/23/1
f 26/40/1 15/21/1 24/23/1
f 16/41/2 11/42/2 9/10/2 20/9/2
f 23/43/3 2/44/3 7/45/3 26/46/3
f 26/47/2 7/48/2 6/49/2 15/50/2
f 22/51/4 21/52/4 24/53/4 25/54/4
f 16/55/3 20/14/3 4/13/3 17/35/3
usemtl Grass.043
f 16/56/6 18/57/6 12/58/6
f 13/59/1 27/60/1 22/61/1 25/62/1
f 12/58/6 11/63/6 16/56/6
f 16/56/6 17/35/6 18/57/6
f 18/57/6 19/64/6 12/58/6
f 19/65/4 27/66/4 13/34/4 12/31/4
f 27/67/5 19/68/5 18/25/5 22/24/5
