# Blender v3.4.1 OBJ File: ''
# www.blender.org
mtllib roadTile_180.mtl
o roadTile_180
v 0.591492 0.883120 -0.750000
v 0.591492 0.883120 -0.375000
v 0.591492 0.000000 -0.375000
v 0.591492 0.000000 -0.750000
v 0.000000 1.100000 -2.250000
v 0.591492 0.883120 -2.250000
v 0.591492 0.883120 -2.625000
v 0.591492 0.883120 -3.000000
v 3.000000 0.000000 -3.000000
v 3.000000 0.000000 -2.625000
v 3.000000 0.000000 -0.375000
v 3.000000 0.000000 -0.000000
v 0.591492 0.883120 0.000000
v 0.000000 1.100000 -0.750000
v 0.000000 0.000000 -2.250000
v 0.591492 0.000000 -2.250000
v 0.000000 0.000000 -0.750000
v 0.000000 0.000000 -0.375000
v 0.000000 1.650000 -0.375000
v 0.000000 1.730000 -0.375000
v 0.000000 1.730000 -0.750000
v 0.000000 1.700000 -0.750000
v 0.000000 1.400000 -0.750000
v 0.000000 1.400000 -2.250000
v 0.000000 1.700000 -2.250000
v 0.000000 1.730000 -2.250000
v 0.000000 1.730000 -2.625000
v 0.000000 1.650000 -2.625000
v 0.000000 0.000000 -2.625000
v 0.591492 0.000000 -0.000000
v 0.000000 0.000000 -0.000000
v 3.000000 0.550000 0.000000
v 0.000000 1.650000 0.000000
v 3.000000 0.550000 -0.375000
v 3.000000 0.550000 -2.625000
v 3.000000 0.630000 -2.625000
v 3.000000 0.630000 -2.250000
v 3.000000 0.600000 -2.250000
v 3.000000 0.300000 -2.250000
v 3.000000 0.300000 -0.750000
v 3.000000 0.600000 -0.750000
v 3.000000 0.630000 -0.750000
v 3.000000 0.630000 -0.375000
v 3.000000 0.550000 -3.000000
v 0.000000 0.000000 -3.000000
v 0.000000 1.650000 -3.000000
v 0.591492 0.000000 -3.000000
v 0.591492 0.000000 -2.625000
vt 0.375000 0.000000
vt 2.625000 0.000000
vt 0.750000 0.300000
vt 0.000000 0.000000
vt 0.591492 0.000000
vt 0.591492 0.883120
vt 0.000000 1.100000
vt 2.250000 0.595561
vt 2.250000 -2.599750
vt 2.625000 -2.599750
vt 2.625000 0.595561
vt -0.000000 0.000000
vt -0.000000 1.100000
vt -0.591492 0.883120
vt -0.591492 0.000000
vt -0.750000 1.100000
vt -0.750000 0.000000
vt -0.375000 0.000000
vt -2.625000 1.730000
vt -2.625000 1.650000
vt -2.250000 1.700000
vt -2.250000 1.730000
vt -0.375000 1.650000
vt -2.625000 0.000000
vt -2.250000 0.000000
vt -2.250000 1.100000
vt -0.750000 1.700000
vt -0.750000 1.400000
vt -2.250000 1.400000
vt 0.750000 -2.599750
vt 0.750000 0.595561
vt 0.375000 0.595561
vt 0.375000 -2.599750
vt 3.000000 0.630000
vt 0.000000 1.730000
vt 0.000000 1.700000
vt 3.000000 0.600000
vt 0.750000 0.600000
vt 0.375000 0.550000
vt -0.375000 1.730000
vt -0.750000 1.730000
vt 2.625000 0.630000
vt 2.250000 0.630000
vt 2.250000 0.600000
vt 2.625000 0.550000
vt 2.250000 0.300000
vt -3.000000 0.630000
vt -3.000000 0.600000
vt -0.000000 1.700000
vt -0.000000 1.730000
vt 3.000000 0.630000
vt 0.000000 1.730000
vt -0.000000 1.650000
vt 3.000000 0.550000
vt 0.000000 1.650000
vt 0.000000 1.730000
vt -3.000000 0.630000
vt -3.000000 0.550000
vt 0.750000 0.630000
vt 0.375000 0.630000
vt 0.750000 0.000000
vt 0.750000 0.883120
vt 0.375000 0.883120
vt 0.375000 0.000000
vt 2.250000 0.883120
vt 2.250000 0.000000
vt 2.625000 0.000000
vt 2.625000 0.883120
vt 0.591492 0.883120
vt 3.000000 0.550000
vt 0.000000 1.650000
vt -3.000000 0.550000
vt -3.000000 -0.000000
vt -0.591492 0.883120
vt -0.750000 -0.251320
vt -0.750000 0.378680
vt -2.250000 0.378680
vt -2.250000 -0.251320
vt -3.000000 -2.816630
vt -2.625000 -2.816630
vt -2.625000 -0.251320
vt -3.000000 -0.251320
vt -0.375000 -0.251320
vt -0.375000 -2.816630
vt -0.591492 0.375000
vt -0.591492 0.000000
vt -0.000000 0.000000
vt -0.000000 0.375000
vt -0.000000 0.750000
vt -0.591492 0.750000
vt -0.000000 -0.000000
vt -0.000000 0.550000
vt 3.000000 0.000000
vt 0.591492 -0.000000
vt -0.000000 2.250000
vt -0.000000 2.625000
vt -0.591492 2.625000
vt -0.591492 2.250000
vt -0.591492 -0.000000
vt -0.000000 -0.000000
vt -0.000000 1.650000
vt 3.000000 0.000000
vt 3.000000 0.550000
vt -3.000000 0.000000
vt -3.000000 1.650000
vt 0.000000 0.883120
vt 0.000000 0.000000
vt 3.000000 0.000000
vt 3.000000 0.883120
vt -0.000000 -0.251320
vt -0.000000 -2.816630
vt 2.625000 -2.627290
vt 3.000000 -2.627290
vt 3.000000 0.568020
vt 2.625000 0.568020
vt -0.000000 3.000000
vt -0.591492 3.000000
vt 0.375000 0.568020
vt 0.000000 0.568020
vt 0.000000 -2.627290
vt 0.375000 -2.627290
vt 0.750000 -2.610080
vt 2.250000 -2.610080
vt 2.250000 0.585233
vt 0.750000 0.585233
vn 1.0000 -0.0000 0.0000
vn -0.0000 -0.0000 1.0000
vn 0.3443 0.9389 0.0000
vn -0.0000 0.0000 -1.0000
vn -1.0000 -0.0000 -0.0000
vn -0.3443 -0.9389 -0.0000
vn 0.0000 -1.0000 -0.0000
usemtl Stone.142
s 1
f 11/1/1 10/2/1 40/3/1
f 15/4/2 16/5/2 6/6/2 5/7/2
f 26/8/3 37/9/3 36/10/3 27/11/3
f 17/12/4 14/13/4 1/14/4 4/15/4
f 14/16/5 17/17/5 18/18/5
f 27/19/5 28/20/5 25/21/5 26/22/5
f 14/16/5 18/18/5 19/23/5
f 29/24/5 15/25/5 5/26/5
f 19/23/5 22/27/5 23/28/5
f 28/20/5 29/24/5 5/26/5
f 24/29/5 25/21/5 28/20/5
f 14/16/5 19/23/5 23/28/5
f 24/29/5 28/20/5 5/26/5
f 42/30/3 21/31/3 20/32/3 43/33/3
f 37/34/2 26/35/2 25/36/2 38/37/2
f 40/3/1 41/38/1 34/39/1 11/1/1
f 20/40/5 21/41/5 22/27/5 19/23/5
f 36/42/1 37/43/1 38/44/1 35/45/1
f 10/2/1 39/46/1 40/3/1
f 24/29/5 5/26/5 14/16/5 23/28/5
f 42/47/4 41/48/4 22/49/4 21/50/4
f 43/51/2 20/52/2 19/53/2 34/54/2
f 35/45/1 38/44/1 39/46/1 10/2/1
f 28/55/4 27/56/4 36/57/4 35/58/4
f 41/38/1 42/59/1 43/60/1 34/39/1
f 4/61/1 1/62/1 2/63/1 3/64/1
f 6/65/1 16/66/1 48/67/1 7/68/1
usemtl Grass.086
f 13/69/2 32/70/2 33/71/2
f 44/72/4 9/73/4 8/74/4
f 1/75/6 14/76/6 5/77/6 6/78/6
f 9/79/6 10/80/6 7/81/6 8/82/6
f 6/78/6 7/81/6 10/80/6
f 2/83/6 1/75/6 11/84/6
f 1/75/6 6/78/6 10/80/6 11/84/6
f 3/85/7 30/86/7 31/87/7 18/88/7
f 17/89/7 4/90/7 3/85/7 18/88/7
f 12/91/1 11/1/1 34/39/1 32/92/1
f 13/69/2 12/93/2 32/70/2
f 33/71/2 31/87/2 13/69/2
f 31/87/2 30/94/2 13/69/2
f 15/95/7 29/96/7 48/97/7 16/98/7
f 47/99/4 45/100/4 8/74/4
f 45/100/4 46/101/4 8/74/4
f 46/101/4 44/72/4 8/74/4
f 10/2/1 9/102/1 44/103/1 35/45/1
f 45/104/5 29/24/5 28/20/5 46/105/5
f 18/18/5 31/87/5 33/71/5 19/23/5
f 13/106/1 30/107/1 3/64/1 2/63/1
f 47/108/1 8/109/1 7/68/1 48/67/1
f 13/110/6 2/83/6 11/84/6 12/111/6
f 35/112/3 44/113/3 46/114/3 28/115/3
f 29/96/7 45/116/7 47/117/7 48/97/7
f 19/118/3 33/119/3 32/120/3 34/121/3
usemtl Asphalt.115
f 23/28/5 22/27/5 25/21/5 24/29/5
f 39/46/1 38/44/1 41/38/1 40/3/1
f 41/122/3 38/123/3 25/124/3 22/125/3
