# Blender v3.4.1 OBJ File: ''
# www.blender.org
mtllib roadTile_227.mtl
o roadTile_227
v 0.000000 1.100000 -0.375000
v 0.000000 1.100000 0.000000
v 3.000000 1.100000 0.000000
v 3.000000 1.100000 -0.375000
v 0.000000 0.470000 -2.250000
v 0.000000 0.470000 0.000000
v 0.000000 1.070000 -0.375000
v 0.000000 0.770000 -0.375000
v 0.000000 0.770000 -1.875000
v 0.000000 1.070000 -1.875000
v 0.000000 1.100000 -1.875000
v 0.000000 1.100000 -2.250000
v 1.718180 0.470000 0.000000
v 1.718180 0.470000 -2.250000
v 3.000000 0.000000 -0.000000
v 3.000000 0.000000 -2.250000
v 3.000000 1.100000 -2.250000
v 3.000000 1.100000 -1.875000
v 3.000000 1.070000 -1.875000
v 3.000000 0.770000 -1.875000
v 3.000000 0.770000 -0.375000
v 3.000000 1.070000 -0.375000
vt -2.250000 0.470000
vt 0.000000 0.470000
vt -1.875000 0.770000
vt 1.718180 0.470000
vt 3.000000 -0.000000
vt 3.000000 1.100000
vt -1.718180 0.470000
vt -0.000000 0.470000
vt -0.000000 1.100000
vt -1.875000 1.070000
vt -2.250000 1.100000
vt -0.000000 1.100000
vt -0.375000 1.100000
vt -0.375000 1.070000
vt -1.875000 1.100000
vt 0.000000 0.000000
vt 2.250000 0.000000
vt 1.875000 0.770000
vt 0.375000 0.770000
vt -0.375000 0.770000
vt -2.250000 -2.816630
vt -0.000000 -2.816630
vt -0.000000 -1.451360
vt -2.250000 -1.451360
vt -3.000000 1.100000
vt -3.000000 1.070000
vt -0.000000 1.070000
vt -0.000000 1.100000
vt -3.000000 1.100000
vt -3.000000 0.000000
vt 2.250000 1.100000
vt 1.875000 1.100000
vt 1.875000 1.070000
vt 0.375000 1.100000
vt 0.000000 1.100000
vt 0.375000 1.070000
vt 0.000000 1.100000
vt 0.000000 1.070000
vt 3.000000 1.070000
vt 3.000000 1.100000
vt -1.718180 2.250000
vt -1.718180 0.000000
vt -0.000000 0.000000
vt -0.000000 2.250000
vt 0.000000 1.875000
vt 3.000000 1.875000
vt 3.000000 2.250000
vt 0.000000 2.250000
vt 3.000000 0.375000
vt 0.000000 0.375000
vt 0.000000 0.000000
vt 3.000000 0.000000
vt 3.000000 0.375000
vt 3.000000 1.875000
vt 0.000000 1.875000
vt 0.000000 0.375000
vn -1.0000 -0.0000 -0.0000
vn 0.0000 -0.0000 1.0000
vn -0.0000 0.0000 -1.0000
vn 1.0000 0.0000 0.0000
vn -0.3443 -0.9389 -0.0000
vn 0.0000 -1.0000 -0.0000
vn 0.0000 1.0000 0.0000
usemtl Stone.183
s 1
f 5/1/1 6/2/1 9/3/1
f 13/4/2 15/5/2 3/6/2
f 14/7/3 5/8/3 12/9/3
f 10/10/1 12/11/1 5/1/1 9/3/1
f 2/12/1 1/13/1 7/14/1
f 11/15/1 12/11/1 10/10/1
f 15/16/4 16/17/4 20/18/4 21/19/4
f 6/2/1 8/20/1 9/3/1
f 16/21/5 15/22/5 13/23/5 14/24/5
f 3/6/2 2/12/2 13/4/2
f 2/12/2 6/2/2 13/4/2
f 4/25/3 22/26/3 7/27/3 1/28/3
f 12/9/3 17/29/3 14/7/3
f 17/29/3 16/30/3 14/7/3
f 16/17/4 17/31/4 20/18/4
f 17/31/4 18/32/4 19/33/4
f 19/33/4 20/18/4 17/31/4
f 4/34/4 3/35/4 22/36/4
f 3/35/4 15/16/4 21/19/4
f 22/36/4 3/35/4 21/19/4
f 11/37/2 10/38/2 19/39/2 18/40/2
f 7/14/1 8/20/1 6/2/1 2/12/1
f 14/41/6 13/42/6 6/43/6 5/44/6
f 11/45/7 18/46/7 17/47/7 12/48/7
f 4/49/7 1/50/7 2/51/7 3/52/7
usemtl Asphalt.152
f 7/14/1 10/10/1 9/3/1 8/20/1
f 22/53/7 19/54/7 10/55/7 7/56/7
f 19/33/4 22/36/4 21/19/4 20/18/4
