# Blender v3.4.1 OBJ File: ''
# www.blender.org
mtllib roadTile_285.mtl
o roadTile_285
v 0.000000 0.000000 0.000000
v 0.000000 0.000000 -3.000000
v 3.000000 0.000000 -3.000000
v 3.000000 0.000000 -0.000000
v 0.000000 0.600000 -1.703930
v 0.000000 0.300000 -1.703930
v 0.000000 0.300000 -3.000000
v 0.000000 0.630000 0.000000
v 0.000000 0.630000 -1.703930
v 0.000000 0.600001 -3.000000
v 0.754448 0.600001 -3.000000
v 0.754448 0.300000 -3.000000
v 0.754448 0.630000 -3.000000
v 3.000000 0.630000 -3.000000
v 1.125000 0.630000 -2.752400
v 1.125000 0.600001 -2.752400
v 3.000000 0.630000 -2.250000
v 1.564940 0.630000 -2.535450
v 2.029430 0.630000 -2.377780
v 2.510530 0.630000 -2.282080
v 3.000000 0.600000 -2.250000
v 3.000000 0.300000 -2.250000
v 3.000000 0.300000 -0.750000
v 3.000000 0.600000 -0.750000
v 3.000000 0.630000 -0.750000
v 3.000000 0.630000 0.000000
v 2.510530 0.600000 -2.282080
v 2.029430 0.600000 -2.377780
v 1.564940 0.600000 -2.535450
v 0.375000 0.600000 -1.453370
v 0.990912 0.600000 -1.149630
v 1.641200 0.600000 -0.928889
v 2.314740 0.600000 -0.794914
v 0.375000 0.630000 -1.453370
v 2.314740 0.630000 -0.794914
v 1.641200 0.630000 -0.928889
v 0.990912 0.630000 -1.149630
vt 2.029430 2.377780
vt 2.510530 2.282080
vt 3.000000 3.000000
vt 0.750000 0.300000
vt 0.000000 0.000000
vt 3.000000 0.000000
vt 0.000000 0.000000
vt 1.641200 0.928889
vt 0.990912 1.149630
vt -2.257790 0.600000
vt -2.257790 0.630000
vt -2.944520 0.630000
vt -2.944520 0.600000
vt -1.703930 0.630000
vt -1.703930 0.600000
vt 0.000000 0.630000
vt 0.750000 0.600000
vt 0.000000 0.630000
vt -1.703930 0.300000
vt -3.000000 0.300000
vt -3.000000 0.000000
vt 0.000000 0.000000
vt 3.000000 0.630000
vt 3.000000 0.000000
vt -3.000000 0.000000
vt -0.000000 0.000000
vt -0.754448 0.300000
vt -0.000000 0.300000
vt -0.754448 0.600000
vt -0.754448 0.630000
vt -3.000000 0.630000
vt 0.946655 0.600000
vt 0.946655 0.630000
vt 0.495646 0.630000
vt 0.495646 0.600000
vt 3.000000 2.250000
vt 0.754448 3.000000
vt 1.125000 2.752400
vt 1.564940 2.535450
vt 3.000000 0.630000
vt 2.250000 0.630000
vt 2.250000 0.600000
vt 0.750000 0.630000
vt 2.250000 0.300000
vt 2.017080 0.600000
vt 2.017080 0.630000
vt 1.526550 0.630000
vt 1.526550 0.600000
vt 1.157420 0.600000
vt 1.157420 0.630000
vt 0.666892 0.630000
vt 0.666892 0.600000
vt 0.282148 0.600000
vt 0.282148 0.630000
vt -0.208376 0.630000
vt -0.208376 0.600000
vt 0.306480 0.600000
vt 0.306480 0.630000
vt -0.380253 0.630000
vt -0.380253 0.600000
vt -0.568787 0.600000
vt -0.568787 0.630000
vt -1.255520 0.630000
vt -1.255520 0.600000
vt 0.375000 1.453370
vt 0.000000 1.703930
vt 3.000000 0.000000
vt 3.000000 0.750000
vt 2.314740 0.794914
vt -0.593751 0.600000
vt -0.593751 0.630000
vt -1.039410 0.630000
vt -1.039410 0.600000
vt 2.846420 0.600000
vt 2.846420 0.630000
vt 2.355900 0.630000
vt 2.355900 0.600000
vt -1.428450 0.600000
vt -1.428450 0.630000
vt -2.115180 0.630000
vt -2.115180 0.600000
vt -3.000000 0.000000
vt -0.000000 3.000000
vt -3.000000 3.000000
vt -0.000000 0.600000
vt 2.314740 0.794914
vt 2.510530 2.282080
vt 2.029430 2.377780
vt 1.641200 0.928889
vt 0.754448 3.000000
vt 0.000000 3.000000
vt 0.000000 1.703930
vt 1.564940 2.535450
vt 1.125000 2.752400
vt 0.375000 1.453370
vt 0.990912 1.149630
vt 3.000000 0.750000
vt 3.000000 2.250000
vt -3.000000 0.600000
vn 0.0000 1.0000 0.0000
vn 1.0000 -0.0000 0.0000
vn 0.1305 0.0000 -0.9914
vn 0.0654 0.0000 -0.9979
vn -1.0000 0.0000 0.0000
vn 0.0000 -0.0000 1.0000
vn 0.0000 0.0000 -1.0000
vn 0.5556 0.0000 -0.8315
vn 0.5000 0.0000 -0.8660
vn -0.1305 0.0000 0.9914
vn -0.2588 0.0000 0.9659
vn -0.3827 0.0000 0.9239
vn -0.5000 0.0000 0.8660
vn 0.3827 0.0000 -0.9239
vn 0.2588 0.0000 -0.9659
vn -0.5556 0.0000 0.8315
vn -0.0654 0.0000 0.9979
vn 0.0000 -1.0000 -0.0000
usemtl Stone.241
s 1
f 19/1/1 20/2/1 14/3/1
f 23/4/2 4/5/2 3/6/2
f 8/7/1 36/8/1 37/9/1
f 33/10/3 35/11/3 25/12/4 24/13/4
f 9/14/5 5/15/5 8/16/5
f 24/17/2 26/18/2 4/5/2 23/4/2
f 6/19/5 7/20/5 2/21/5
f 2/21/5 1/22/5 6/19/5
f 26/23/6 8/16/6 1/22/6 4/24/6
f 1/22/5 8/16/5 5/15/5 6/19/5
f 3/25/7 2/26/7 12/27/7
f 2/26/7 7/28/7 12/27/7
f 11/29/7 13/30/7 14/31/7
f 5/32/8 9/33/8 34/34/9 30/35/9
f 20/2/1 17/36/1 14/3/1
f 14/3/1 13/37/1 15/38/1
f 15/38/1 18/39/1 14/3/1
f 18/39/1 19/1/1 14/3/1
f 14/40/2 17/41/2 21/42/2
f 25/43/2 26/18/2 24/17/2
f 3/6/2 14/40/2 21/42/2 22/44/2
f 3/6/2 22/44/2 23/4/2
f 27/45/10 20/46/10 19/47/11 28/48/11
f 28/49/11 19/50/11 18/51/12 29/52/12
f 29/53/12 18/54/12 15/55/13 16/56/13
f 30/57/9 34/58/9 37/59/14 31/60/14
f 12/27/7 11/29/7 14/31/7 3/25/7
f 31/61/14 37/62/14 36/63/15 32/64/15
f 34/65/1 9/66/1 8/7/1
f 8/7/1 26/67/1 36/8/1
f 26/67/1 25/68/1 35/69/1
f 26/67/1 35/69/1 36/8/1
f 37/9/1 34/65/1 8/7/1
f 16/70/13 15/71/13 13/72/16 11/73/16
f 21/74/17 17/75/17 20/76/10 27/77/10
f 32/78/15 36/79/15 35/80/3 33/81/3
f 4/82/18 1/22/18 2/83/18 3/84/18
usemtl Asphalt.194
f 10/85/7 11/29/7 12/27/7 7/28/7
f 33/86/1 27/87/1 28/88/1 32/89/1
f 11/90/1 10/91/1 5/92/1
f 29/93/1 16/94/1 30/95/1 31/96/1
f 24/97/1 21/98/1 27/87/1 33/86/1
f 32/89/1 28/88/1 29/93/1 31/96/1
f 5/15/5 10/99/5 7/20/5 6/19/5
f 5/92/1 30/95/1 16/94/1 11/90/1
f 22/44/2 21/42/2 24/17/2 23/4/2
