# Blender v3.4.1 OBJ File: ''
# www.blender.org
mtllib roadTile_281.mtl
o roadTile_281
v 3.000000 0.000000 -0.000000
v 0.000000 0.000000 0.000000
v 0.000000 0.000000 -3.000000
v 3.000000 0.000000 -3.000000
v 3.000000 0.630000 0.000000
v 0.000000 0.630000 0.000000
v 3.000000 0.300000 -3.000000
v 3.000000 0.300000 -1.703930
v 3.000000 0.600000 -1.703930
v 3.000000 0.630000 -1.703930
v 0.000000 0.630000 -3.000000
v 1.703930 0.630000 -3.000000
v 1.703930 0.600001 -3.000000
v 1.703930 0.300000 -3.000000
v 2.804000 0.630000 -1.834890
v 2.287690 0.630000 -2.287690
v 1.834890 0.630000 -2.804000
v 2.804000 0.600000 -1.834890
v 3.000000 0.600001 -3.000000
v 1.834890 0.600001 -2.804000
v 2.287690 0.600000 -2.287690
vt 3.000000 -0.000000
vt 3.000000 0.300000
vt 1.703930 0.300000
vt 1.834890 2.804000
vt 0.000000 0.000000
vt 2.287690 2.287690
vt 0.000000 0.630000
vt 0.000000 0.000000
vt 3.000000 0.000000
vt 3.000000 0.630000
vt 0.898330 0.600000
vt 0.898330 0.630000
vt 0.211598 0.630000
vt 0.211598 0.600000
vt 1.703930 0.630000
vt -0.000000 0.630000
vt 1.703930 0.600000
vt -0.000000 -0.000000
vt -1.703930 0.300000
vt -3.000000 0.300000
vt -3.000000 0.000000
vt -0.000000 0.000000
vt -0.000000 0.630000
vt -1.703930 0.630000
vt -1.703930 0.600000
vt -0.211598 0.600000
vt -0.211598 0.630000
vt -0.898330 0.630000
vt -0.898330 0.600000
vt 0.000000 3.000000
vt 3.000000 0.000000
vt 2.804000 1.834890
vt 1.703930 3.000000
vt 3.000000 1.703930
vt -3.000000 3.000000
vt -3.000000 0.000000
vt -0.000000 3.000000
vt -3.000000 0.630000
vt -3.000000 0.000000
vt 1.547750 0.600000
vt 1.547750 0.630000
vt 1.312030 0.630000
vt 1.312030 0.600000
vt -1.312030 0.600000
vt -1.312030 0.630000
vt -1.547750 0.630000
vt -1.547750 0.600000
vt 2.287690 2.287690
vt 3.000000 3.000000
vt 1.834890 2.804000
vt 2.804000 1.834890
vt 3.000000 1.703930
vt 1.703930 3.000000
vt -3.000000 0.600000
vt 3.000000 0.600000
vn 1.0000 0.0000 0.0000
vn 0.0000 1.0000 0.0000
vn 0.0000 -0.0000 1.0000
vn 0.7934 0.0000 -0.6088
vn 0.7071 0.0000 -0.7071
vn 0.0000 0.0000 -1.0000
vn 0.6088 0.0000 -0.7934
vn 0.0000 -1.0000 -0.0000
vn -1.0000 -0.0000 0.0000
vn 0.8315 0.0000 -0.5556
vn 0.5556 0.0000 -0.8315
usemtl Stone.237
s 1
f 4/1/1 7/2/1 8/3/1
f 17/4/2 6/5/2 16/6/2
f 6/7/3 2/8/3 1/9/3 5/10/3
f 20/11/4 17/12/4 16/13/5 21/14/5
f 10/15/1 5/16/1 9/17/1
f 1/18/1 4/1/1 8/3/1
f 14/19/6 7/20/6 4/21/6
f 4/21/6 3/22/6 14/19/6
f 9/17/1 5/16/1 1/18/1 8/3/1
f 11/23/6 12/24/6 13/25/6
f 21/26/5 16/27/5 15/28/7 18/29/7
f 11/30/2 6/5/2 17/4/2
f 6/5/2 5/31/2 15/32/2
f 11/30/2 17/4/2 12/33/2
f 5/31/2 10/34/2 15/32/2
f 15/32/2 16/6/2 6/5/2
f 4/35/8 1/36/8 2/8/8 3/37/8
f 11/23/6 13/25/6 14/19/6 3/22/6
f 6/7/9 11/38/9 3/39/9 2/8/9
f 13/40/10 12/41/10 17/42/4 20/43/4
f 18/44/7 15/45/7 10/46/11 9/47/11
usemtl Asphalt.193
f 21/48/2 19/49/2 20/50/2
f 21/48/2 18/51/2 19/49/2
f 18/51/2 9/52/2 19/49/2
f 19/49/2 13/53/2 20/50/2
f 13/25/6 19/54/6 7/20/6 14/19/6
f 19/55/1 9/17/1 8/3/1 7/2/1
