# Blender v3.4.1 OBJ File: ''
# www.blender.org
mtllib roadTile_173.mtl
o roadTile_173
v 2.250000 0.550000 0.000000
v 2.250000 0.455000 0.000000
v 2.250000 0.000000 -0.000000
v 3.000000 0.000000 -0.000000
v 3.000000 0.550000 0.000000
v 2.256420 0.550000 -0.097895
v 2.256420 0.455000 -0.097895
v 3.000000 0.550000 -0.750000
v 2.902110 0.550000 -0.743584
v 2.805890 0.550000 -0.724444
v 2.712990 0.550000 -0.692910
v 2.625000 0.550000 -0.649519
v 2.543430 0.550000 -0.595015
v 2.469670 0.550000 -0.530330
v 2.404980 0.550000 -0.456571
v 2.350480 0.550000 -0.375000
v 2.307090 0.550000 -0.287013
v 2.275560 0.550000 -0.194114
v 3.000000 0.000000 -0.750000
v 3.000000 0.455000 -0.750000
v 0.750000 0.000000 0.000000
v 0.000000 0.000000 -0.000000
v 0.000000 0.000000 -0.750000
v 0.000000 0.000000 -2.250000
v 0.000000 0.000000 -3.000000
v 0.750000 0.000000 -3.000000
v 2.250000 0.000000 -3.000000
v 3.000000 0.000000 -3.000000
v 3.000000 0.000000 -2.250000
v 0.750000 0.455000 0.000000
v 0.750000 0.550000 0.000000
v 0.000000 0.550000 0.000000
v 0.097895 0.455000 -2.256420
v 0.000000 0.455000 -2.250000
v 0.000000 0.455000 -0.750000
v 0.097895 0.455000 -0.743584
v 0.194114 0.455000 -0.724444
v 0.287013 0.455000 -0.692910
v 0.375000 0.455000 -0.649519
v 0.456571 0.455000 -0.595015
v 0.530330 0.455000 -0.530330
v 0.595015 0.455000 -0.456571
v 0.649519 0.455000 -0.375000
v 0.692910 0.455000 -0.287013
v 0.724444 0.455000 -0.194114
v 0.743584 0.455000 -0.097895
v 2.275560 0.455000 -0.194114
v 2.307090 0.455000 -0.287013
v 2.350480 0.455000 -0.375000
v 2.404980 0.455000 -0.456571
v 2.469670 0.455000 -0.530330
v 2.543430 0.455000 -0.595015
v 2.625000 0.455000 -0.649519
v 2.712990 0.455000 -0.692910
v 2.805890 0.455000 -0.724444
v 2.902110 0.455000 -0.743584
v 3.000000 0.455000 -2.250000
v 2.902110 0.455000 -2.256420
v 2.805890 0.455000 -2.275560
v 2.712990 0.455000 -2.307090
v 2.625000 0.455000 -2.350480
v 2.543430 0.455000 -2.404980
v 2.469670 0.455000 -2.469670
v 2.404980 0.455000 -2.543430
v 2.350480 0.455000 -2.625000
v 2.307090 0.455000 -2.712990
v 2.275560 0.455000 -2.805890
v 2.256420 0.455000 -2.902110
v 2.250000 0.455000 -3.000000
v 0.750000 0.455000 -3.000000
v 0.743584 0.455000 -2.902110
v 0.724444 0.455000 -2.805890
v 0.692910 0.455000 -2.712990
v 0.649519 0.455000 -2.625000
v 0.595015 0.455000 -2.543430
v 0.530330 0.455000 -2.469670
v 0.456571 0.455000 -2.404980
v 0.375000 0.455000 -2.350480
v 0.287013 0.455000 -2.307090
v 0.194114 0.455000 -2.275560
v 0.097895 0.550000 -2.256420
v 0.000000 0.550000 -2.250000
v 0.000000 0.550000 -3.000000
v 0.194114 0.550000 -2.275560
v 0.287013 0.550000 -2.307090
v 0.375000 0.550000 -2.350480
v 0.456571 0.550000 -2.404980
v 0.530330 0.550000 -2.469670
v 0.595015 0.550000 -2.543430
v 0.649519 0.550000 -2.625000
v 0.692910 0.550000 -2.712990
v 0.724444 0.550000 -2.805890
v 0.743584 0.550000 -2.902110
v 0.750000 0.550000 -3.000000
v 0.000000 0.550000 -0.750000
v 0.097895 0.550000 -0.743584
v 0.743584 0.550000 -0.097895
v 0.724444 0.550000 -0.194114
v 0.692910 0.550000 -0.287013
v 0.649519 0.550000 -0.375000
v 0.595015 0.550000 -0.456571
v 0.530330 0.550000 -0.530330
v 0.456571 0.550000 -0.595015
v 0.375000 0.550000 -0.649519
v 0.287013 0.550000 -0.692910
v 0.194114 0.550000 -0.724444
v 2.250000 0.550000 -3.000000
v 3.000000 0.550000 -3.000000
v 2.256420 0.550000 -2.902110
v 2.275560 0.550000 -2.805890
v 2.307090 0.550000 -2.712990
v 2.350480 0.550000 -2.625000
v 2.404980 0.550000 -2.543430
v 2.469670 0.550000 -2.469670
v 2.543430 0.550000 -2.404980
v 2.625000 0.550000 -2.350480
v 2.712990 0.550000 -2.307090
v 2.805890 0.550000 -2.275560
v 2.902110 0.550000 -2.256420
v 3.000000 0.550000 -2.250000
vt 2.275560 0.194114
vt 2.256420 0.097895
vt 3.000000 0.000000
vt 0.750000 0.455000
vt 0.750000 0.550000
vt 0.000000 0.550000
vt 0.750000 0.455000
vt 0.750000 0.550000
vt -0.000000 0.550000
vt 0.724444 2.805890
vt 0.743584 2.902110
vt 0.000000 3.000000
vt -2.250000 0.455000
vt -2.250000 0.550000
vt -3.000000 0.550000
vt 0.194114 0.724444
vt 0.097895 0.743584
vt -0.000000 0.000000
vt -2.250000 0.455000
vt -2.250000 0.550000
vt -3.000000 0.550000
vt 2.805890 2.275560
vt 2.902110 2.256420
vt 3.000000 3.000000
vt 3.000000 0.550000
vt 2.250000 0.550000
vt 2.250000 0.455000
vt -3.000000 0.000000
vt -2.250000 0.000000
vt -2.791740 0.455000
vt -2.791740 0.550000
vt -2.889840 0.550000
vt -2.889840 0.455000
vt 2.250000 0.000000
vt 3.000000 0.750000
vt 2.902110 0.743584
vt 2.805890 0.724444
vt 2.712990 0.692910
vt 2.625000 0.649519
vt 2.543430 0.595015
vt 2.469670 0.530330
vt 2.404980 0.456571
vt 2.350480 0.375000
vt 2.307090 0.287013
vt 3.000000 -0.000000
vt 3.000000 0.550000
vt 2.250000 0.455000
vt 2.250000 -0.000000
vt -2.250000 0.000000
vt -0.750000 -0.000000
vt -0.000000 0.750000
vt 0.000000 0.000000
vt -0.000000 2.250000
vt -0.000000 3.000000
vt -0.750000 3.000000
vt -2.250000 3.000000
vt -3.000000 3.000000
vt -3.000000 2.250000
vt -3.000000 0.750000
vt -3.000000 0.000000
vt -3.000000 0.000000
vt -2.250000 0.000000
vt -0.915266 0.455000
vt -0.915266 0.550000
vt -1.013370 0.550000
vt -1.013370 0.455000
vt 0.326534 0.455000
vt 0.326534 0.550000
vt 0.228430 0.550000
vt 0.228430 0.455000
vt 0.049052 0.455000
vt 0.049052 0.550000
vt -0.049052 0.550000
vt -0.049052 0.455000
vt 0.750000 3.000000
vt 0.000000 2.250000
vt 0.097895 2.256420
vt 0.194114 2.275560
vt 0.287013 2.307090
vt 0.375000 2.350480
vt 0.456571 2.404980
vt 0.530330 2.469670
vt 0.595015 2.543430
vt 0.649519 2.625000
vt 0.692910 2.712990
vt 0.750000 0.000000
vt 0.049052 0.455000
vt 0.049052 0.550000
vt -0.049052 0.550000
vt -0.049052 0.455000
vt -0.750000 0.550000
vt -0.750000 0.455000
vt -0.000000 0.000000
vt -0.000000 0.550000
vt -0.750000 0.455000
vt -0.750000 0.000000
vt 0.049052 0.455000
vt 0.049052 0.550000
vt -0.049052 0.550000
vt -0.049052 0.455000
vt 0.000000 0.750000
vt 0.750000 0.000000
vt 0.743584 0.097895
vt 0.724444 0.194114
vt 0.692910 0.287013
vt 0.649519 0.375000
vt 0.595015 0.456571
vt 0.530330 0.530330
vt 0.456571 0.595015
vt 0.375000 0.649519
vt 0.287013 0.692910
vt 3.000000 0.000000
vt 2.250000 0.000000
vt -2.206470 0.455000
vt -2.206470 0.550000
vt -2.304570 0.550000
vt -2.304570 0.455000
vt -2.893300 0.455000
vt -2.893300 0.550000
vt -2.991410 0.550000
vt -2.991410 0.455000
vt -2.944520 0.455000
vt -2.944520 0.550000
vt -3.042630 0.550000
vt -3.042630 0.455000
vt 0.049052 0.455000
vt 0.049052 0.550000
vt -0.049052 0.550000
vt -0.049052 0.455000
vt 0.245262 0.455000
vt 0.245262 0.550000
vt 0.147157 0.550000
vt 0.147157 0.455000
vt 0.049052 0.455000
vt 0.049052 0.550000
vt -0.049052 0.550000
vt -0.049052 0.455000
vt 0.049052 0.455000
vt 0.049052 0.550000
vt -0.049052 0.550000
vt -0.049052 0.455000
vt 0.049052 0.455000
vt 0.049052 0.550000
vt -0.049052 0.550000
vt -0.049052 0.455000
vt 0.049052 0.455000
vt 0.049052 0.550000
vt -0.049052 0.550000
vt -0.049052 0.455000
vt -0.750000 0.550000
vt 0.000000 -0.000000
vt 0.750000 -0.000000
vt 0.049052 0.455000
vt 0.049052 0.550000
vt -0.049052 0.550000
vt -0.049052 0.455000
vt 3.042630 0.455000
vt 3.042630 0.550000
vt 2.944520 0.550000
vt 2.944520 0.455000
vt 2.991410 0.455000
vt 2.991410 0.550000
vt 2.893300 0.550000
vt 2.893300 0.455000
vt 2.889840 0.455000
vt 2.889840 0.550000
vt 2.791740 0.550000
vt 2.791740 0.455000
vt 2.739670 0.455000
vt 2.739670 0.550000
vt 2.641570 0.550000
vt 2.641570 0.455000
vt 0.049052 0.455000
vt 0.049052 0.550000
vt -0.049052 0.550000
vt -0.049052 0.455000
vt 2.543460 0.455000
vt 2.543460 0.550000
vt 2.445360 0.550000
vt 2.445360 0.455000
vt 2.027090 0.455000
vt 2.027090 0.550000
vt 1.928990 0.550000
vt 1.928990 0.455000
vt 1.715760 0.455000
vt 1.715760 0.550000
vt 1.617660 0.550000
vt 1.617660 0.455000
vt 1.375920 0.455000
vt 1.375920 0.550000
vt 1.277810 0.550000
vt 1.277810 0.455000
vt 1.013370 0.455000
vt 1.013370 0.550000
vt 0.915266 0.550000
vt 0.915266 0.455000
vt 0.634323 0.455000
vt 0.634323 0.550000
vt 0.536219 0.550000
vt 0.536219 0.455000
vt -0.750000 0.000000
vt 3.000000 2.250000
vt 2.250000 3.000000
vt 2.256420 2.902110
vt 2.275560 2.805890
vt 2.307090 2.712990
vt 2.350480 2.625000
vt 2.404980 2.543430
vt 2.469670 2.469670
vt 2.543430 2.404980
vt 2.625000 2.350480
vt 2.712990 2.307090
vt -2.748320 0.455000
vt -2.748320 0.550000
vt -2.846420 0.550000
vt -2.846420 0.455000
vt -2.308030 0.455000
vt -2.308030 0.550000
vt -2.406140 0.550000
vt -2.406140 0.455000
vt -1.827420 0.455000
vt -1.827420 0.550000
vt -1.925520 0.550000
vt -1.925520 0.455000
vt -1.314700 0.455000
vt -1.314700 0.550000
vt -1.412800 0.550000
vt -1.412800 0.455000
vt -0.778646 0.455000
vt -0.778646 0.550000
vt -0.876750 0.550000
vt -0.876750 0.455000
vt -0.228430 0.455000
vt -0.228430 0.550000
vt -0.326534 0.550000
vt -0.326534 0.455000
vt 0.876750 0.455000
vt 0.876750 0.550000
vt 0.778646 0.550000
vt 0.778646 0.455000
vt 1.412800 0.455000
vt 1.412800 0.550000
vt 1.314700 0.550000
vt 1.314700 0.455000
vt 1.925520 0.455000
vt 1.925520 0.550000
vt 1.827420 0.550000
vt 1.827420 0.455000
vt 2.406140 0.455000
vt 2.406140 0.550000
vt 2.308030 0.550000
vt 2.308030 0.455000
vt 2.250000 0.550000
vt 2.846420 0.455000
vt 2.846420 0.550000
vt 2.748320 0.550000
vt 2.748320 0.455000
vt -0.536219 0.455000
vt -0.536219 0.550000
vt -0.634323 0.550000
vt -0.634323 0.455000
vt -1.277810 0.455000
vt -1.277810 0.550000
vt -1.375920 0.550000
vt -1.375920 0.455000
vt -1.617660 0.455000
vt -1.617660 0.550000
vt -1.715760 0.550000
vt -1.715760 0.455000
vt 2.304570 0.455000
vt 2.304570 0.550000
vt 2.206470 0.550000
vt 2.206470 0.455000
vt -1.928990 0.455000
vt -1.928990 0.550000
vt -2.027090 0.550000
vt -2.027090 0.455000
vt -2.445360 0.455000
vt -2.445360 0.550000
vt -2.543460 0.550000
vt -2.543460 0.455000
vt -2.641570 0.455000
vt -2.641570 0.550000
vt -2.739670 0.550000
vt -2.739670 0.455000
vt -0.147157 0.455000
vt -0.147157 0.550000
vt -0.245262 0.550000
vt -0.245262 0.455000
vt 0.049052 0.455000
vt 0.049052 0.550000
vt -0.049052 0.550000
vt -0.049052 0.455000
vt 0.049052 0.455000
vt 0.049052 0.550000
vt -0.049052 0.550000
vt -0.049052 0.455000
vt 2.712990 0.692910
vt 2.805890 0.724444
vt 2.805890 2.275560
vt 2.712990 2.307090
vt 3.000000 2.250000
vt 2.902110 2.256420
vt 2.902110 0.743584
vt 3.000000 0.750000
vt 0.724444 0.194114
vt 2.275560 0.194114
vt 2.307090 0.287013
vt 0.692910 0.287013
vt 0.649519 0.375000
vt 2.350480 0.375000
vt 2.404980 2.543430
vt 2.350480 2.625000
vt 0.649519 2.625000
vt 0.595015 2.543430
vt 0.530330 2.469670
vt 0.456571 2.404980
vt 0.530330 0.530330
vt 0.456571 0.595015
vt 2.469670 2.469670
vt 0.375000 0.649519
vt 0.375000 2.350480
vt 0.595015 0.456571
vt 2.404980 0.456571
vt 2.543430 2.404980
vt 2.543430 0.595015
vt 2.625000 0.649519
vt 2.625000 2.350480
vt 2.469670 0.530330
vt 0.194114 0.724444
vt 0.287013 0.692910
vt 0.287013 2.307090
vt 0.194114 2.275560
vt 2.307090 2.712990
vt 0.692910 2.712990
vt 2.256420 0.097895
vt 0.743584 0.097895
vt 0.000000 2.250000
vt 0.000000 0.750000
vt 0.097895 0.743584
vt 0.097895 2.256420
vt 2.275560 2.805890
vt 0.724444 2.805890
vt 2.256420 2.902110
vt 2.250000 3.000000
vt 0.750000 3.000000
vt 0.743584 2.902110
vt 2.250000 0.000000
vt 0.750000 0.000000
vn -0.0000 1.0000 0.0000
vn 1.0000 -0.0000 0.0000
vn -0.0000 -0.0000 1.0000
vn -1.0000 -0.0000 -0.0000
vn -0.0000 0.0000 -1.0000
vn -0.3827 0.0000 -0.9239
vn -0.2588 0.0000 -0.9659
vn 0.0000 -1.0000 -0.0000
vn -0.9659 -0.0000 -0.2588
vn -0.9239 -0.0000 -0.3827
vn -0.6088 0.0000 0.7934
vn -0.7071 0.0000 0.7071
vn 0.7071 0.0000 -0.7071
vn 0.7934 0.0000 -0.6088
vn 0.8660 0.0000 -0.5000
vn 0.9239 0.0000 -0.3827
vn 0.9659 0.0000 -0.2588
vn 0.9914 0.0000 -0.1305
vn -0.7071 0.0000 -0.7071
vn -0.6088 0.0000 -0.7934
vn -0.1305 0.0000 -0.9914
vn -0.0654 0.0000 -0.9979
vn 0.1305 0.0000 0.9914
vn 0.0654 0.0000 0.9979
vn 0.6088 0.0000 -0.7934
vn 0.5000 0.0000 -0.8660
vn 0.3827 0.0000 -0.9239
vn 0.2588 0.0000 -0.9659
vn 0.1305 0.0000 -0.9914
vn 0.9979 0.0000 0.0654
vn 0.9914 0.0000 0.1305
vn 0.9659 0.0000 0.2588
vn 0.9239 0.0000 0.3827
vn 0.8660 0.0000 0.5000
vn 0.9979 0.0000 -0.0654
vn 0.7934 0.0000 0.6088
vn 0.7071 0.0000 0.7071
vn 0.6088 0.0000 0.7934
vn 0.5000 0.0000 0.8660
vn 0.3827 0.0000 0.9239
vn 0.2588 0.0000 0.9659
vn -0.9914 0.0000 0.1305
vn -0.9979 0.0000 0.0654
vn -0.9659 0.0000 0.2588
vn -0.9239 0.0000 0.3827
vn -0.8660 0.0000 0.5000
vn -0.7934 0.0000 0.6088
vn -0.5000 0.0000 0.8660
vn -0.3827 0.0000 0.9239
vn -0.2588 0.0000 0.9659
vn -0.1305 0.0000 0.9914
vn -0.0654 0.0000 0.9979
vn -0.9914 0.0000 -0.1305
vn -0.8660 -0.0000 -0.5000
vn -0.7934 -0.0000 -0.6088
vn -0.5000 0.0000 -0.8660
vn -0.9979 0.0000 -0.0654
vn 0.0654 0.0000 -0.9979
usemtl Grass.079
s 1
f 18/1/1 6/2/1 5/3/1
f 20/4/2 8/5/2 5/6/2
f 30/7/3 31/8/3 32/9/3
f 92/10/1 93/11/1 83/12/1
f 34/13/4 82/14/4 83/15/4
f 106/16/1 96/17/1 32/18/1
f 69/19/5 107/20/5 108/21/5
f 118/22/1 119/23/1 108/24/1
f 5/25/3 1/26/3 2/27/3
f 25/28/4 24/29/4 34/13/4 83/15/4
f 54/30/6 11/31/6 10/32/7 55/33/7
f 1/34/1 5/3/1 6/2/1
f 5/3/1 8/35/1 9/36/1
f 10/37/1 5/3/1 9/36/1
f 10/37/1 11/38/1 5/3/1
f 11/38/1 12/39/1 5/3/1
f 12/39/1 13/40/1 5/3/1
f 13/40/1 14/41/1 5/3/1
f 14/41/1 15/42/1 5/3/1
f 15/42/1 16/43/1 5/3/1
f 16/43/1 17/44/1 5/3/1
f 17/44/1 18/1/1 5/3/1
f 28/45/2 108/46/2 57/47/2 29/48/2
f 3/49/8 21/50/8 23/51/8
f 21/50/8 22/52/8 23/51/8
f 23/51/8 24/53/8 3/49/8
f 24/53/8 25/54/8 26/55/8
f 27/56/8 28/57/8 29/58/8
f 24/53/8 26/55/8 27/56/8
f 19/59/8 4/60/8 3/49/8
f 27/56/8 29/58/8 19/59/8
f 28/61/5 27/62/5 69/19/5 108/21/5
f 47/63/9 18/64/9 17/65/10 48/66/10
f 24/53/8 27/56/8 19/59/8 3/49/8
f 62/67/11 115/68/11 114/69/12 63/70/12
f 41/71/13 102/72/13 101/73/14 42/74/14
f 94/75/1 83/12/1 93/11/1
f 83/12/1 82/76/1 81/77/1
f 84/78/1 83/12/1 81/77/1
f 84/78/1 85/79/1 83/12/1
f 85/79/1 86/80/1 83/12/1
f 86/80/1 87/81/1 83/12/1
f 87/81/1 88/82/1 83/12/1
f 88/82/1 89/83/1 83/12/1
f 89/83/1 90/84/1 83/12/1
f 90/84/1 91/85/1 83/12/1
f 91/85/1 92/10/1 83/12/1
f 22/52/3 21/86/3 30/7/3 32/9/3
f 43/87/15 100/88/15 99/89/16 44/90/16
f 32/9/4 95/91/4 35/92/4
f 25/93/5 83/94/5 70/95/5 26/96/5
f 45/97/17 98/98/17 97/99/18 46/100/18
f 95/101/1 32/18/1 96/17/1
f 32/18/1 31/102/1 97/103/1
f 98/104/1 32/18/1 97/103/1
f 98/104/1 99/105/1 32/18/1
f 99/105/1 100/106/1 32/18/1
f 100/106/1 101/107/1 32/18/1
f 101/107/1 102/108/1 32/18/1
f 102/108/1 103/109/1 32/18/1
f 103/109/1 104/110/1 32/18/1
f 104/110/1 105/111/1 32/18/1
f 105/111/1 106/16/1 32/18/1
f 4/112/3 5/25/3 2/27/3 3/113/3
f 51/114/19 14/115/19 13/116/20 52/117/20
f 55/118/7 10/119/7 9/120/21 56/121/21
f 56/122/21 9/123/21 8/124/22 20/125/22
f 42/126/14 101/127/14 100/128/15 43/129/15
f 33/130/23 81/131/23 82/132/24 34/133/24
f 40/134/25 103/135/25 102/136/13 41/137/13
f 39/138/26 104/139/26 103/140/25 40/141/25
f 38/142/27 105/143/27 104/144/26 39/145/26
f 37/146/28 106/147/28 105/148/27 38/149/27
f 83/94/5 94/150/5 70/95/5
f 4/151/2 19/152/2 20/4/2 5/6/2
f 36/153/29 96/154/29 106/155/28 37/156/28
f 70/157/30 94/158/30 93/159/31 71/160/31
f 71/161/31 93/162/31 92/163/32 72/164/32
f 72/165/32 92/166/32 91/167/33 73/168/33
f 73/169/33 91/170/33 90/171/34 74/172/34
f 46/173/18 97/174/18 31/175/35 30/176/35
f 74/177/34 90/178/34 89/179/36 75/180/36
f 76/181/37 88/182/37 87/183/38 77/184/38
f 77/185/38 87/186/38 86/187/39 78/188/39
f 78/189/39 86/190/39 85/191/40 79/192/40
f 79/193/40 85/194/40 84/195/41 80/196/41
f 80/197/41 84/198/41 81/199/23 33/200/23
f 22/52/4 32/9/4 35/92/4 23/201/4
f 120/202/1 108/24/1 119/23/1
f 108/24/1 107/203/1 109/204/1
f 110/205/1 108/24/1 109/204/1
f 110/205/1 111/206/1 108/24/1
f 111/206/1 112/207/1 108/24/1
f 112/207/1 113/208/1 108/24/1
f 113/208/1 114/209/1 108/24/1
f 114/209/1 115/210/1 108/24/1
f 115/210/1 116/211/1 108/24/1
f 116/211/1 117/212/1 108/24/1
f 117/212/1 118/22/1 108/24/1
f 68/213/42 109/214/42 107/215/43 69/216/43
f 67/217/44 110/218/44 109/219/42 68/220/42
f 66/221/45 111/222/45 110/223/44 67/224/44
f 65/225/46 112/226/46 111/227/45 66/228/45
f 64/229/47 113/230/47 112/231/46 65/232/46
f 63/233/12 114/234/12 113/235/47 64/236/47
f 61/237/48 116/238/48 115/239/11 62/240/11
f 60/241/49 117/242/49 116/243/48 61/244/48
f 59/245/50 118/246/50 117/247/49 60/248/49
f 58/249/51 119/250/51 118/251/50 59/252/50
f 108/46/2 120/253/2 57/47/2
f 57/254/52 120/255/52 119/256/51 58/257/51
f 7/258/53 6/259/53 18/260/9 47/261/9
f 48/262/10 17/263/10 16/264/54 49/265/54
f 49/266/54 16/267/54 15/268/55 50/269/55
f 75/270/36 89/271/36 88/272/37 76/273/37
f 50/274/55 15/275/55 14/276/19 51/277/19
f 52/278/20 13/279/20 12/280/56 53/281/56
f 53/282/56 12/283/56 11/284/6 54/285/6
f 2/286/57 1/287/57 6/288/53 7/289/53
f 35/290/58 95/291/58 96/292/29 36/293/29
f 44/294/16 99/295/16 98/296/17 45/297/17
usemtl Water.013
f 54/298/1 55/299/1 59/300/1 60/301/1
f 57/302/1 58/303/1 56/304/1 20/305/1
f 45/306/1 47/307/1 48/308/1 44/309/1
f 43/310/1 44/309/1 48/308/1 49/311/1
f 64/312/1 65/313/1 74/314/1 75/315/1
f 76/316/1 77/317/1 41/318/1
f 77/317/1 40/319/1 41/318/1
f 75/315/1 76/316/1 63/320/1
f 39/321/1 40/319/1 77/317/1 78/322/1
f 42/323/1 50/324/1 41/318/1
f 62/325/1 52/326/1 53/327/1 61/328/1
f 41/318/1 50/324/1 51/329/1
f 42/323/1 43/310/1 49/311/1 50/324/1
f 61/328/1 53/327/1 54/298/1 60/301/1
f 37/330/1 38/331/1 79/332/1 80/333/1
f 65/313/1 66/334/1 73/335/1 74/314/1
f 55/299/1 56/304/1 58/303/1 59/300/1
f 7/336/1 47/307/1 45/306/1 46/337/1
f 34/338/1 35/339/1 36/340/1 33/341/1
f 36/340/1 37/330/1 80/333/1 33/341/1
f 63/320/1 64/312/1 75/315/1
f 62/325/1 63/320/1 52/326/1
f 52/326/1 63/320/1 51/329/1
f 38/331/1 39/321/1 78/322/1 79/332/1
f 66/334/1 67/342/1 72/343/1 73/335/1
f 68/344/1 69/345/1 70/346/1 71/347/1
f 67/342/1 68/344/1 71/347/1 72/343/1
f 34/13/4 24/29/4 23/201/4 35/92/4
f 69/19/5 27/62/5 26/96/5 70/95/5
f 51/329/1 63/320/1 76/316/1 41/318/1
f 2/348/1 7/336/1 46/337/1 30/349/1
f 20/4/2 19/152/2 29/48/2 57/47/2
f 30/7/3 21/86/3 3/113/3 2/27/3
