# Blender v3.4.1 OBJ File: ''
# www.blender.org
mtllib roadTile_100.mtl
o roadTile_100
v 3.000000 0.630000 -3.000000
v 0.461802 0.630000 -3.000000
v 0.603002 0.630000 -2.876170
v 1.031250 0.630000 -2.590020
v 1.493180 0.630000 -2.362220
v 1.980900 0.630000 -2.196670
v 2.486050 0.630000 -2.096190
v 3.000000 0.630000 -2.062500
v 3.000000 0.000000 -3.000000
v 0.000000 0.000000 -3.000000
v 0.000000 0.630000 -3.000000
v 0.178038 0.630000 -3.000000
v 0.178038 0.570000 -3.000000
v 0.461802 0.570000 -3.000000
v 3.000000 0.000000 -0.000000
v 3.000000 0.570000 -2.062500
v 3.000000 0.570000 -1.875000
v 3.000000 0.630000 -1.875000
v 3.000000 0.630000 -1.125000
v 3.000000 0.570000 -1.125000
v 3.000000 0.570000 -0.937500
v 3.000000 0.630000 -0.937500
v 3.000000 0.630000 0.000000
v 0.000000 0.000000 0.000000
v 0.000000 0.630000 0.000000
v 0.000000 0.630000 -1.928960
v 0.000000 0.570000 -1.928960
v 0.000000 0.570000 -2.160720
v 0.000000 0.630000 -2.160720
v 2.339210 0.630000 -0.980810
v 1.689730 0.630000 -1.110000
v 1.062670 0.630000 -1.322860
v 0.468750 0.630000 -1.615750
v 2.339210 0.570000 -0.980810
v 0.468750 0.570000 -1.615750
v 1.062670 0.570000 -1.322860
v 1.689730 0.570000 -1.110000
v 2.363680 0.570000 -1.166710
v 1.738260 0.570000 -1.291110
v 1.134420 0.570000 -1.496090
v 0.562500 0.570000 -1.778130
v 0.032288 0.570000 -2.132400
v 2.363680 0.630000 -1.166710
v 0.032288 0.630000 -2.132400
v 0.562500 0.630000 -1.778130
v 1.134420 0.630000 -1.496090
v 1.738260 0.630000 -1.291110
v 2.461580 0.630000 -1.910290
v 1.932370 0.630000 -2.015560
v 1.421430 0.630000 -2.189000
v 0.937500 0.630000 -2.427650
v 0.488859 0.630000 -2.727420
v 2.461580 0.570000 -1.910290
v 0.488859 0.570000 -2.727420
v 0.937500 0.570000 -2.427650
v 1.421430 0.570000 -2.189000
v 1.932370 0.570000 -2.015560
v 2.486050 0.570000 -2.096190
v 1.980900 0.570000 -2.196670
v 1.493180 0.570000 -2.362220
v 1.031250 0.570000 -2.590020
v 0.603002 0.570000 -2.876170
vt 1.980900 2.196670
vt 2.486050 2.096190
vt 3.000000 3.000000
vt -3.000000 0.000000
vt -0.000000 0.000000
vt -0.461802 0.570000
vt 3.000000 -0.000000
vt 1.875000 0.570000
vt 1.125000 0.570000
vt 1.689730 1.110000
vt 1.062670 1.322860
vt 0.000000 0.000000
vt 3.000000 2.062500
vt 0.461802 3.000000
vt 0.603002 2.876170
vt 1.031250 2.590020
vt 1.493180 2.362220
vt -0.000000 0.630000
vt -1.928960 0.630000
vt -1.928960 0.570000
vt 0.000000 0.000000
vt -0.000000 0.630000
vt -0.178038 0.570000
vt -0.178038 0.630000
vt 3.000000 0.630000
vt 2.062500 0.630000
vt 2.062500 0.570000
vt -0.000000 -0.000000
vt 0.937500 0.570000
vt -2.160720 0.570000
vt -2.160720 0.630000
vt -3.000000 0.630000
vt -3.000000 0.000000
vt -3.000000 3.000000
vt -3.000000 0.000000
vt 0.000000 3.000000
vt 3.000000 0.630000
vt 3.000000 -0.000000
vt 3.000000 0.000000
vt 3.000000 0.937500
vt 2.339210 0.980810
vt 0.468750 1.615750
vt 0.000000 1.928960
vt 0.937500 0.630000
vt 0.000000 0.630000
vt 2.363680 1.166710
vt 2.461580 1.910290
vt 1.932370 2.015560
vt 1.738260 1.291110
vt 0.178038 3.000000
vt -0.000000 3.000000
vt 0.488859 2.727420
vt 0.000000 2.160720
vt 0.032288 2.132400
vt 1.421430 2.189000
vt 0.937500 2.427650
vt 0.562500 1.778130
vt 1.134420 1.496090
vt 3.000000 1.125000
vt 3.000000 1.875000
vt -3.000000 0.630000
vt -0.461802 0.630000
vt 1.875000 0.630000
vt 1.125000 0.630000
vt 1.169680 0.570000
vt 1.169680 0.630000
vt 0.654629 0.630000
vt 0.654629 0.570000
vt 0.562500 1.778130
vt 0.032288 2.132400
vt -0.000000 1.928960
vt 0.468750 1.615750
vt 2.858680 0.570000
vt 2.858680 0.630000
vt 2.343630 0.630000
vt 2.343630 0.570000
vt -0.000000 2.160720
vt 1.493180 2.362220
vt 1.031250 2.590020
vt 0.937500 2.427650
vt 1.421430 2.189000
vt 3.000000 1.875000
vt 3.000000 2.062500
vt 2.486050 2.096190
vt 2.461580 1.910290
vt 1.980900 2.196670
vt 1.932370 2.015560
vt 0.294217 0.570000
vt 0.294217 0.630000
vt -0.367989 0.630000
vt -0.367989 0.570000
vt -0.581050 0.570000
vt -0.581050 0.630000
vt -1.243260 0.630000
vt -1.243260 0.570000
vt -1.440710 0.570000
vt -1.440710 0.630000
vt -2.102920 0.630000
vt -2.102920 0.570000
vt 2.920000 0.570000
vt 2.920000 0.630000
vt 2.282320 0.630000
vt 2.282320 0.570000
vt -2.331370 0.570000
vt -2.331370 0.630000
vt -2.870950 0.630000
vt -2.870950 0.570000
vt 0.603002 2.876170
vt 0.488859 2.727420
vt 1.134420 1.496090
vt 1.062670 1.322860
vt 1.844180 0.570000
vt 1.844180 0.630000
vt 1.430770 0.630000
vt 1.430770 0.570000
vt -1.381720 0.570000
vt -1.381720 0.630000
vt -1.424660 0.630000
vt -1.424660 0.570000
vt 1.689730 1.110000
vt 1.738260 1.291110
vt -0.520172 0.570000
vt -0.520172 0.630000
vt -1.157850 0.630000
vt -1.157850 0.570000
vt 1.230990 0.570000
vt 1.230990 0.630000
vt 0.593313 0.630000
vt 0.593313 0.570000
vt 2.090650 0.570000
vt 2.090650 0.630000
vt 1.452970 0.630000
vt 1.452970 0.570000
vt 0.461802 3.000000
vt 0.178038 3.000000
vt 2.339210 0.980810
vt 2.363680 1.166710
vt 3.000000 1.125000
vt 3.000000 0.937500
vt 0.355726 0.570000
vt 0.355726 0.630000
vt -0.281954 0.630000
vt -0.281954 0.570000
vt -0.642366 0.570000
vt -0.642366 0.630000
vt -1.181940 0.630000
vt -1.181940 0.570000
vt 1.071670 0.570000
vt 1.071670 0.630000
vt 0.507909 0.630000
vt 0.507909 0.570000
vt 0.232902 0.570000
vt 0.232902 0.630000
vt -0.306674 0.630000
vt -0.306674 0.570000
vt 1.108800 0.570000
vt 1.108800 0.630000
vt 0.569225 0.630000
vt 0.569225 0.570000
vt -1.502030 0.570000
vt -1.502030 0.630000
vt -2.041600 0.630000
vt -2.041600 0.570000
vt -2.270050 0.570000
vt -2.270050 0.630000
vt -2.932260 0.630000
vt -2.932260 0.570000
vt 2.029340 0.570000
vt 2.029340 0.630000
vt 1.514290 0.630000
vt 1.514290 0.570000
vt 0.294411 0.570000
vt 0.294411 0.630000
vt -0.220639 0.630000
vt -0.220639 0.570000
vt -0.581488 0.570000
vt -0.581488 0.630000
vt -1.096540 0.630000
vt -1.096540 0.570000
vt -1.443030 0.570000
vt -1.443030 0.630000
vt -1.630840 0.630000
vt -1.630840 0.570000
vn -0.0000 1.0000 0.0000
vn 0.0000 0.0000 -1.0000
vn 1.0000 0.0000 0.0000
vn -1.0000 0.0000 0.0000
vn 0.0000 -1.0000 -0.0000
vn 0.0000 -0.0000 1.0000
vn -0.2588 0.0000 0.9659
vn -0.3827 0.0000 0.9239
vn -0.0654 0.0000 0.9979
vn -0.1305 0.0000 0.9914
vn 0.5000 0.0000 -0.8660
vn 0.3827 0.0000 -0.9239
vn 0.2588 0.0000 -0.9659
vn 0.1305 0.0000 -0.9914
vn 0.0654 0.0000 -0.9979
vn 0.6593 0.0000 -0.7518
vn 0.6088 0.0000 -0.7934
vn -0.6088 0.0000 0.7933
vn -0.6594 0.0000 0.7518
vn -0.5000 0.0000 0.8660
vn 0.5556 0.0000 -0.8315
vn -0.6088 0.0000 0.7934
vn -0.6593 0.0000 0.7518
usemtl Stone.080
s 1
f 6/1/1 7/2/1 1/3/1
f 9/4/2 10/5/2 14/6/2
f 9/7/3 17/8/3 20/9/3
f 31/10/1 32/11/1 25/12/1
f 8/13/1 1/3/1 7/2/1
f 1/3/1 2/14/1 3/15/1
f 4/16/1 1/3/1 3/15/1
f 4/16/1 5/17/1 1/3/1
f 5/17/1 6/1/1 1/3/1
f 25/18/4 26/19/4 27/20/4 24/21/4
f 10/5/2 11/22/2 13/23/2
f 11/22/2 12/24/2 13/23/2
f 10/5/2 13/23/2 14/6/2
f 1/25/3 8/26/3 16/27/3 9/7/3
f 15/28/3 9/7/3 20/9/3
f 21/29/3 15/28/3 20/9/3
f 28/30/4 29/31/4 11/32/4 10/33/4
f 9/34/5 15/35/5 24/21/5 10/36/5
f 9/7/3 16/27/3 17/8/3
f 23/37/6 25/18/6 24/21/6 15/38/6
f 10/33/4 24/21/4 27/20/4
f 28/30/4 10/33/4 27/20/4
f 25/12/1 23/39/1 31/10/1
f 23/39/1 22/40/1 30/41/1
f 23/39/1 30/41/1 31/10/1
f 33/42/1 26/43/1 25/12/1
f 32/11/1 33/42/1 25/12/1
f 21/29/3 22/44/3 23/45/3 15/28/3
f 43/46/1 48/47/1 49/48/1 47/49/1
f 12/50/1 11/51/1 52/52/1
f 11/51/1 29/53/1 52/52/1
f 29/53/1 44/54/1 52/52/1
f 50/55/1 51/56/1 45/57/1 46/58/1
f 49/48/1 50/55/1 46/58/1 47/49/1
f 19/59/1 18/60/1 48/47/1 43/46/1
f 51/56/1 52/52/1 44/54/1 45/57/1
f 1/61/2 9/4/2 14/6/2 2/62/2
f 17/8/3 18/63/3 19/64/3 20/9/3
usemtl Grey_Asphalt.012
f 59/65/7 6/66/7 5/67/8 60/68/8
f 41/69/1 42/70/1 27/71/1 35/72/1
f 16/73/9 8/74/9 7/75/10 58/76/10
f 42/70/1 28/77/1 27/71/1
f 60/78/1 61/79/1 55/80/1 56/81/1
f 17/82/1 16/83/1 58/84/1 53/85/1
f 53/85/1 58/84/1 59/86/1 57/87/1
f 35/88/11 33/89/11 32/90/12 36/91/12
f 36/92/12 32/93/12 31/94/13 37/95/13
f 37/96/13 31/97/13 30/98/14 34/99/14
f 20/100/9 19/101/9 43/102/10 38/103/10
f 53/104/14 48/105/14 18/106/15 17/107/15
f 61/79/1 62/108/1 54/109/1 55/80/1
f 40/110/1 41/69/1 35/72/1 36/111/1
f 13/112/16 12/113/16 52/114/17 54/115/17
f 42/116/18 44/117/18 29/118/19 28/119/19
f 37/120/1 39/121/1 40/110/1 36/111/1
f 41/122/20 45/123/20 44/124/18 42/125/18
f 39/126/7 47/127/7 46/128/8 40/129/8
f 38/130/10 43/131/10 47/132/7 39/133/7
f 62/108/1 14/134/1 54/109/1
f 14/134/1 13/135/1 54/109/1
f 59/86/1 60/78/1 56/81/1 57/87/1
f 34/136/1 38/137/1 39/121/1 37/120/1
f 20/138/1 38/137/1 34/136/1 21/139/1
f 40/140/8 46/141/8 45/142/20 41/143/20
f 56/144/12 50/145/12 49/146/13 57/147/13
f 27/148/21 26/149/21 33/150/11 35/151/11
f 55/152/11 51/153/11 50/154/12 56/155/12
f 54/156/17 52/157/17 51/158/11 55/159/11
f 57/160/13 49/161/13 48/162/14 53/163/14
f 34/164/14 30/165/14 22/166/15 21/167/15
f 58/168/10 7/169/10 6/170/7 59/171/7
f 60/172/8 5/173/8 4/174/20 61/175/20
f 61/176/20 4/177/20 3/178/22 62/179/22
f 62/180/22 3/181/22 2/182/23 14/183/23
