# Blender v3.4.1 OBJ File: ''
# www.blender.org
mtllib roadTile_022.mtl
o roadTile_022
v 2.535670 0.455000 -2.506750
v 2.250000 0.455000 -3.000000
v 0.750000 0.455000 -3.000000
v 0.998188 0.455000 -1.898550
v 1.956180 0.455000 -0.971142
v 3.000000 0.455000 -0.750000
v 3.000000 0.455000 -2.250000
v 2.535670 0.550000 -2.506750
v 2.250000 0.550000 -3.000000
v 3.000000 0.550000 -2.250000
v 3.000000 0.000000 -3.000000
v 3.000000 0.550000 -3.000000
v 3.000000 0.300000 -2.250000
v 3.000000 0.300000 -0.750000
v 3.000000 0.550000 -0.750000
v 3.000000 0.550000 0.000000
v 3.000000 0.000000 0.000000
v 0.000000 0.000000 -3.000000
v 0.000000 0.550000 -3.000000
v 0.750000 0.550000 -3.000000
v 0.750000 0.300000 -3.000000
v 2.250000 0.300000 -3.000000
v 0.000000 0.000000 0.000000
v 0.000000 0.550000 0.000000
v 1.956180 0.550000 -0.971142
v 0.998188 0.550000 -1.898550
vt 0.998188 1.898550
vt 1.956180 0.971142
vt 2.535670 2.506750
vt 1.005990 0.550000
vt 1.005990 0.455000
vt 1.536570 0.455000
vt 1.536570 0.550000
vt -0.730004 0.550000
vt -0.730004 0.455000
vt 0.603348 0.455000
vt 0.603348 0.550000
vt 2.250000 3.000000
vt 0.750000 3.000000
vt 3.000000 2.250000
vt 3.000000 0.750000
vt -2.779420 0.550000
vt -2.779420 0.455000
vt -1.712430 0.455000
vt -1.712430 0.550000
vt -1.468380 0.550000
vt -1.468380 0.455000
vt -0.898378 0.455000
vt -0.898378 0.550000
vt 1.632690 0.550000
vt 1.632690 0.455000
vt 2.761760 0.455000
vt 2.761760 0.550000
vt -0.750000 0.455000
vt -2.250000 0.455000
vt -2.250000 0.300000
vt -0.750000 0.300000
vt 2.250000 0.455000
vt 0.750000 0.455000
vt 0.750000 0.300000
vt 2.250000 0.300000
vt 3.000000 0.000000
vt 0.000000 0.000000
vt -3.000000 0.000000
vt -0.000000 0.000000
vt 1.956180 0.971142
vt 0.998188 1.898550
vt 0.000000 0.000000
vt 3.000000 3.000000
vt 2.535670 2.506750
vt 3.000000 2.250000
vt 3.000000 0.550000
vt -3.000000 0.550000
vt 2.250000 0.550000
vt 0.750000 0.550000
vt 0.000000 0.550000
vt -0.000000 0.550000
vt -2.250000 0.550000
vt -0.750000 0.550000
vt -0.000000 -0.000000
vt -0.000000 3.000000
vt -3.000000 3.000000
vt -3.000000 -0.000000
vt 0.750000 3.000000
vt 0.000000 3.000000
vt 3.000000 0.000000
vt 3.000000 0.750000
vt 0.000000 0.550000
vt 3.000000 0.000000
vt 3.000000 0.550000
vt -3.000000 0.550000
vt -3.000000 0.000000
vt 2.250000 3.000000
vn -0.0000 1.0000 0.0000
vn -0.4839 0.0000 0.8751
vn 0.6955 0.0000 -0.7185
vn 0.2073 0.0000 -0.9783
vn -0.8653 0.0000 0.5012
vn 0.9755 0.0000 -0.2198
vn 0.0000 0.0000 -1.0000
vn 1.0000 0.0000 0.0000
vn 0.0000 -1.0000 -0.0000
vn 0.0000 -0.0000 1.0000
vn -1.0000 -0.0000 0.0000
usemtl Alternate_Dirt.008
s 1
f 4/1/1 5/2/1 1/3/1
f 8/4/2 1/5/2 7/6/2 10/7/2
f 25/8/3 5/9/3 4/10/3 26/11/3
f 2/12/1 3/13/1 4/1/1 1/3/1
f 7/14/1 1/3/1 5/2/1 6/15/1
f 15/16/4 6/17/4 5/18/4 25/19/4
f 9/20/5 2/21/5 1/22/5 8/23/5
f 26/24/6 4/25/6 3/26/6 20/27/6
f 3/28/7 2/29/7 22/30/7 21/31/7
f 7/32/8 6/33/8 14/34/8 13/35/8
usemtl Grass.010
f 11/36/8 14/34/8 17/37/8
f 11/38/7 18/39/7 21/31/7
f 25/40/1 26/41/1 24/42/1
f 12/43/1 8/44/1 10/45/1
f 7/32/8 13/35/8 11/36/8 12/46/8
f 2/29/7 12/47/7 11/38/7 22/30/7
f 12/46/8 10/48/8 7/32/8
f 15/49/8 16/50/8 6/33/8
f 3/28/7 21/31/7 18/39/7 19/51/7
f 11/36/8 13/35/8 14/34/8
f 9/52/7 12/47/7 2/29/7
f 6/33/8 16/50/8 17/37/8 14/34/8
f 19/51/7 20/53/7 3/28/7
f 21/31/7 22/30/7 11/38/7
f 23/54/9 18/55/9 11/56/9 17/57/9
f 26/41/1 20/58/1 19/59/1
f 24/42/1 16/60/1 25/40/1
f 16/60/1 15/61/1 25/40/1
f 26/41/1 19/59/1 24/42/1
f 24/62/10 23/54/10 17/63/10 16/64/10
f 19/65/11 18/66/11 23/54/11 24/62/11
f 12/43/1 9/67/1 8/44/1
