# Blender v3.4.1 OBJ File: ''
# www.blender.org
mtllib roadTile_097.mtl
o roadTile_097
v 0.000000 0.630000 -3.000000
v 0.000000 0.630000 -0.461802
v 0.215767 0.630000 -0.215767
v 0.461802 0.630000 0.000000
v 3.000000 0.630000 0.000000
v 3.000000 0.630000 -3.000000
v 0.000000 0.000000 -3.000000
v 0.000000 0.000000 0.000000
v 0.000000 0.630000 0.000000
v 0.000000 0.630000 -0.178038
v 0.000000 0.570000 -0.178038
v 0.000000 0.570000 -0.461802
v 3.000000 0.000000 -0.000000
v 3.000000 0.000000 -3.000000
v 0.461802 0.570000 0.000000
v 0.178038 0.570000 0.000000
v 0.178038 0.630000 0.000000
v 0.215767 0.570000 -0.215767
v 0.083185 0.570000 -0.083184
v 0.083185 0.630000 -0.083184
vt 0.461802 -0.000000
vt 3.000000 0.000000
vt 3.000000 3.000000
vt 0.000000 0.000000
vt -0.178038 0.570000
vt -0.461802 0.570000
vt 0.461802 0.570000
vt 0.178038 0.570000
vt -0.000000 -0.000000
vt 0.083185 0.083185
vt -0.000000 0.178038
vt -0.000000 3.000000
vt 0.000000 0.461802
vt 0.215767 0.215767
vt 3.000000 0.630000
vt 0.461802 0.630000
vt 3.000000 -0.000000
vt -3.000000 0.000000
vt 0.000000 0.630000
vt -0.178038 0.630000
vt 0.178038 0.630000
vt -3.000000 3.000000
vt -3.000000 0.000000
vt 0.000000 3.000000
vt -0.461802 0.630000
vt -3.000000 0.630000
vt 0.000000 0.630000
vt -0.000000 0.000000
vt 3.000000 0.000000
vt 3.000000 0.630000
vt 0.178038 -0.000000
vt -0.000000 0.630000
vt -3.000000 0.630000
vt -3.000000 0.000000
vt -0.000000 0.000000
vt 0.178038 0.000000
vt 0.461802 0.000000
vt 0.215767 0.215767
vt 0.133856 0.570000
vt 0.133856 0.630000
vt 0.007694 0.630000
vt 0.007694 0.570000
vt -0.007694 0.570000
vt -0.007694 0.630000
vt -0.133856 0.630000
vt -0.133856 0.570000
vt -0.019957 0.570000
vt -0.019957 0.630000
vt -0.347201 0.630000
vt -0.347201 0.570000
vt 0.000000 0.461802
vt 0.000000 0.178038
vt 0.083185 0.083185
vt 0.347201 0.570000
vt 0.347201 0.630000
vt 0.019957 0.630000
vt 0.019957 0.570000
vn 0.0000 1.0000 0.0000
vn -1.0000 0.0000 0.0000
vn 0.0000 -0.0000 1.0000
vn 0.0000 -1.0000 -0.0000
vn 1.0000 0.0000 0.0000
vn 0.0000 0.0000 -1.0000
vn 0.7518 0.0000 -0.6593
vn 0.7071 0.0000 -0.7071
vn 0.6593 0.0000 -0.7518
vn -0.7071 -0.0000 0.7071
vn -0.7518 -0.0000 0.6593
vn -0.6593 -0.0000 0.7518
usemtl Stone.077
s 1
f 4/1/1 5/2/1 6/3/1
f 8/4/2 11/5/2 12/6/2
f 15/7/3 16/8/3 8/4/3
f 9/9/1 20/10/1 10/11/1
f 6/3/1 1/12/1 2/13/1
f 2/13/1 3/14/1 6/3/1
f 3/14/1 4/1/1 6/3/1
f 5/15/3 4/16/3 15/7/3 13/17/3
f 7/18/2 8/4/2 12/6/2
f 8/4/2 9/19/2 11/5/2
f 9/19/2 10/20/2 11/5/2
f 8/4/3 13/17/3 15/7/3
f 16/8/3 17/21/3 9/19/3
f 16/8/3 9/19/3 8/4/3
f 14/22/4 13/23/4 8/4/4 7/24/4
f 12/6/2 2/25/2 1/26/2 7/18/2
f 5/27/5 13/28/5 14/29/5 6/30/5
f 9/9/1 17/31/1 20/10/1
f 1/32/6 6/33/6 14/34/6 7/35/6
usemtl Grey_Asphalt.009
f 16/36/1 15/37/1 18/38/1
f 11/39/7 10/40/7 20/41/8 19/42/8
f 19/43/8 20/44/8 17/45/9 16/46/9
f 18/47/10 3/48/10 2/49/11 12/50/11
f 18/38/1 12/51/1 11/52/1
f 11/52/1 19/53/1 18/38/1
f 19/53/1 16/36/1 18/38/1
f 15/54/12 4/55/12 3/56/10 18/57/10
