# Blender v3.4.1 OBJ File: ''
# www.blender.org
mtllib roadTile_238.mtl
o roadTile_238
v 0.000000 1.730000 0.000000
v 0.000000 0.000000 -0.000000
v 3.000000 0.000000 -0.000000
v 3.000000 0.630000 0.000000
v 0.000000 1.730000 -0.750000
v 0.000000 0.600000 -0.750000
v 0.000000 0.300000 -0.750000
v 0.000000 0.300000 -2.250000
v 0.000000 0.600000 -2.250000
v 0.000000 1.730000 -2.250000
v 0.000000 1.730000 -3.000000
v 0.000000 0.000000 -3.000000
v 3.000000 0.630000 -0.750000
v 3.000000 0.600000 -0.750000
v 3.000000 0.630000 -2.250000
v 3.000000 0.600000 -2.250000
v 3.000000 0.300000 -2.250000
v 3.000000 0.300000 -0.750000
v 3.000000 0.000000 -3.000000
v 3.000000 0.630000 -3.000000
vt -2.250000 0.300000
vt -3.000000 0.000000
vt -0.000000 0.000000
vt 0.750000 0.300000
vt 0.000000 -0.000000
vt 3.000000 -0.000000
vt 3.000000 0.630000
vt 2.250000 0.600000
vt 2.250000 0.300000
vt -3.000000 1.730000
vt -2.250000 0.600000
vt -2.250000 1.730000
vt -0.750000 0.600000
vt -0.750000 0.300000
vt 3.000000 0.630000
vt 0.000000 1.730000
vt 3.000000 -0.000000
vt 2.250000 0.630000
vt 0.750000 0.600000
vt 0.000000 0.630000
vt 0.750000 0.630000
vt -0.750000 1.730000
vt -0.000000 -0.000000
vt -0.000000 1.730000
vt -3.000000 0.630000
vt -3.000000 -0.000000
vt 3.000000 0.630000
vt 0.000000 1.730000
vt 0.000000 0.600000
vt 3.000000 0.600000
vt 3.000000 -2.599750
vt 3.000000 0.595561
vt 2.250000 0.595561
vt 2.250000 -2.599750
vt 0.000000 0.595561
vt 0.000000 -2.599750
vt 0.750000 -2.599750
vt 0.750000 0.595561
vt -0.000000 0.600000
vt -0.000000 1.730000
vt -3.000000 0.630000
vt -3.000000 0.600000
vt -3.000000 3.000000
vt -3.000000 0.000000
vt -0.000000 3.000000
vt 0.000000 2.250000
vt 0.000000 0.750000
vt 3.000000 0.750000
vt 3.000000 2.250000
vn -1.0000 -0.0000 -0.0000
vn 1.0000 -0.0000 0.0000
vn 0.0000 -0.0000 1.0000
vn -0.0000 0.0000 -1.0000
vn 0.3443 0.9389 0.0000
vn 0.0000 -1.0000 -0.0000
vn 0.0000 1.0000 0.0000
usemtl Stone.194
s 1
f 8/1/1 12/2/1 2/3/1
f 18/4/2 3/5/2 19/6/2
f 19/6/2 20/7/2 16/8/2 17/9/2
f 11/10/1 12/2/1 9/11/1 10/12/1
f 6/13/1 7/14/1 2/3/1
f 8/1/1 9/11/1 12/2/1
f 2/3/1 7/14/1 8/1/1
f 4/15/3 1/16/3 2/3/3 3/17/3
f 20/7/2 15/18/2 16/8/2
f 14/19/2 4/20/2 3/5/2 18/4/2
f 13/21/2 4/20/2 14/19/2
f 6/13/1 2/3/1 1/16/1 5/22/1
f 19/6/2 17/9/2 18/4/2
f 12/23/4 11/24/4 20/25/4 19/26/4
f 15/27/3 10/28/3 9/29/3 16/30/3
f 20/31/5 11/32/5 10/33/5 15/34/5
f 1/35/5 4/36/5 13/37/5 5/38/5
f 6/39/4 5/40/4 13/41/4 14/42/4
f 19/43/6 3/44/6 2/3/6 12/45/6
usemtl Asphalt.161
f 9/46/7 6/47/7 14/48/7 16/49/7
f 7/14/1 6/13/1 9/11/1 8/1/1
f 17/9/2 16/8/2 14/19/2 18/4/2
