# Blender v3.4.1 OBJ File: ''
# www.blender.org
mtllib roadTile_218.mtl
o roadTile_218
v 3.000000 0.600000 -0.375000
v 2.340000 1.260000 -0.375000
v 2.340000 1.260000 0.000000
v 3.000000 0.600000 0.000000
v 0.000000 1.260000 -0.375000
v 0.000000 0.600000 -0.375000
v 0.000000 1.260000 0.000000
v 0.000000 1.260000 -2.250000
v 0.000000 0.000000 -2.250000
v 0.000000 0.000000 0.000000
v 0.000000 0.300000 -0.375000
v 0.000000 0.300000 -1.875000
v 0.000000 0.600000 -1.875000
v 0.000000 1.260000 -1.875000
v 2.340000 1.260000 -2.250000
v 3.000000 0.600000 -2.250000
v 3.000000 0.000000 -2.250000
v 2.340000 1.260000 -1.875000
v 3.000000 0.600000 -1.875000
v 3.000000 0.300000 -0.375000
v 3.000000 0.300000 -1.875000
v 3.000000 0.000000 -0.000000
vt -2.340000 1.260000
vt -0.000000 0.600000
vt -0.000000 1.260000
vt -2.250000 0.000000
vt 0.000000 0.000000
vt -0.375000 0.300000
vt 0.000000 0.600000
vt 2.340000 1.260000
vt 0.000000 1.260000
vt 0.000000 0.000000
vt 2.250000 0.000000
vt 0.375000 0.300000
vt 3.000000 0.000000
vt 3.000000 0.600000
vt 2.340000 1.260000
vt 2.340000 0.375000
vt 0.000000 0.375000
vt 0.000000 0.000000
vt 2.340000 0.000000
vt -3.000000 0.600000
vt -0.000000 2.250000
vt -3.000000 2.250000
vt -3.000000 0.000000
vt -1.875000 1.260000
vt -2.250000 1.260000
vt -1.875000 0.600000
vt 0.000000 1.260000
vt -0.375000 0.600000
vt -0.375000 1.260000
vt -1.875000 0.300000
vt -2.340000 1.260000
vt -3.000000 0.600000
vt -3.000000 -0.000000
vt 3.000000 0.600000
vt 0.000000 1.875000
vt 2.340000 1.875000
vt 2.340000 2.250000
vt 0.000000 2.250000
vt 2.250000 0.600000
vt 1.875000 0.600000
vt 1.875000 0.300000
vt 2.250000 -0.763675
vt 1.875000 -0.763675
vt 1.875000 -1.697060
vt 2.250000 -1.697060
vt 0.000000 0.600000
vt 0.375000 0.600000
vt -0.000000 -0.000000
vt -0.000000 1.260000
vt 0.000000 -1.697060
vt 0.375000 -1.697060
vt 0.375000 -0.763675
vt -0.000000 -0.763675
vt 3.000000 0.375000
vt 3.000000 1.875000
vt 0.000000 1.875000
vt 0.000000 0.375000
vn 0.0000 0.0000 -1.0000
vn -1.0000 -0.0000 -0.0000
vn 0.0000 -0.0000 1.0000
vn 1.0000 -0.0000 0.0000
vn 0.0000 1.0000 0.0000
vn 0.0000 -1.0000 -0.0000
vn 0.7071 0.7071 0.0000
usemtl Stone.174
s 1
f 2/1/1 6/2/1 5/3/1
f 9/4/2 10/5/2 11/6/2
f 13/7/3 18/8/3 14/9/3
f 22/10/4 17/11/4 20/12/4
f 22/13/3 4/14/3 3/15/3
f 2/16/5 5/17/5 7/18/5 3/19/5
f 2/1/1 1/20/1 6/2/1
f 9/21/6 17/22/6 22/23/6 10/5/6
f 14/24/2 8/25/2 13/26/2
f 8/25/2 9/4/2 13/26/2
f 10/5/2 7/27/2 6/28/2
f 7/27/2 5/29/2 6/28/2
f 6/28/2 11/6/2 10/5/2
f 12/30/2 13/26/2 9/4/2
f 11/6/2 12/30/2 9/4/2
f 10/5/3 22/13/3 3/15/3 7/27/3
f 15/31/1 16/32/1 17/33/1
f 13/7/3 19/34/3 18/8/3
f 14/35/5 18/36/5 15/37/5 8/38/5
f 16/39/4 19/40/4 21/41/4 17/11/4
f 17/11/4 21/41/4 20/12/4
f 15/42/7 18/43/7 19/44/7 16/45/7
f 4/46/4 22/10/4 20/12/4 1/47/4
f 15/31/1 17/33/1 9/48/1 8/49/1
f 4/50/7 1/51/7 2/52/7 3/53/7
usemtl Asphalt.143
f 1/54/5 19/55/5 13/56/5 6/57/5
f 6/28/2 13/26/2 12/30/2 11/6/2
f 19/40/4 1/47/4 20/12/4 21/41/4
