# Blender v3.4.1 OBJ File: ''
# www.blender.org
mtllib roadTile_139.mtl
o roadTile_139
v 1.875000 1.230000 -2.625000
v 1.884150 1.230000 -2.528140
v 1.884150 1.260000 -2.528140
v 1.875000 1.260000 -2.625000
v 0.375000 1.230000 -2.625000
v 0.381827 1.230000 -2.326910
v 0.429783 1.230000 -2.032630
v 0.517946 1.230000 -1.747790
v 0.644626 1.230000 -1.477870
v 0.807391 1.230000 -1.228050
v 1.003120 1.230000 -1.003120
v 1.228050 1.230000 -0.807391
v 1.477870 1.230000 -0.644626
v 1.747790 1.230000 -0.517946
v 2.032630 1.230000 -0.429783
v 2.326910 1.230000 -0.381827
v 2.625000 1.230000 -0.375000
v 2.625000 1.230000 -1.875000
v 2.528140 1.230000 -1.884150
v 2.433190 1.230000 -1.905370
v 2.341650 1.230000 -1.938320
v 2.254960 1.230000 -1.982480
v 2.174490 1.230000 -2.037170
v 2.101510 1.230000 -2.101510
v 2.037170 1.230000 -2.174490
v 1.982480 1.230000 -2.254960
v 1.938320 1.230000 -2.341650
v 1.905370 1.230000 -2.433190
v 1.875000 0.930000 -2.625000
v 0.375000 0.930000 -2.625000
v 2.250000 0.630000 -2.625000
v 0.000000 0.630000 -2.625000
v 0.000000 1.260000 -2.625000
v 0.375000 1.260000 -2.625000
v 2.250000 1.260000 -2.625000
v 0.022457 0.630000 -2.282370
v 0.089445 0.630000 -1.945600
v 0.199816 0.630000 -1.620460
v 0.351683 0.630000 -1.312500
v 1.257580 0.630000 -1.787910
v 1.787910 0.630000 -1.257580
v 1.945600 0.630000 -0.089445
v 2.282370 0.630000 -0.022457
v 2.253210 0.630000 -2.576050
v 2.253210 1.260000 -2.576050
v 2.625000 1.260000 -1.875000
v 2.625000 1.260000 -2.250000
v 2.576050 1.260000 -2.253210
v 2.527940 1.260000 -2.262780
v 2.481490 1.260000 -2.278550
v 2.437500 1.260000 -2.300240
v 2.396710 1.260000 -2.327490
v 2.359830 1.260000 -2.359830
v 2.327490 1.260000 -2.396710
v 2.300240 1.260000 -2.437500
v 2.278550 1.260000 -2.481490
v 2.262780 1.260000 -2.527940
v 1.905370 1.260000 -2.433190
v 1.938320 1.260000 -2.341650
v 1.982480 1.260000 -2.254960
v 2.037170 1.260000 -2.174490
v 2.101510 1.260000 -2.101510
v 2.174490 1.260000 -2.037170
v 2.254960 1.260000 -1.982480
v 2.341650 1.260000 -1.938320
v 2.433190 1.260000 -1.905370
v 2.528140 1.260000 -1.884150
v 2.625000 0.630000 0.000000
v 2.625000 0.630000 -2.250000
v 2.625000 0.930000 -1.875000
v 2.625000 0.930000 -0.375000
v 2.625000 1.260000 -0.375000
v 2.625000 1.260000 0.000000
v 2.576050 0.630000 -2.253210
v 2.527940 0.630000 -2.262780
v 2.481490 0.630000 -2.278550
v 2.437500 0.630000 -2.300240
v 2.396710 0.630000 -2.327490
v 2.359830 0.630000 -2.359830
v 2.327490 0.630000 -2.396710
v 2.300240 0.630000 -2.437500
v 2.278550 0.630000 -2.481490
v 2.262780 0.630000 -2.527940
v 2.282370 1.260000 -0.022457
v 0.022457 1.260000 -2.282370
v 0.089445 1.260000 -1.945600
v 0.199816 1.260000 -1.620460
v 0.351683 1.260000 -1.312500
v 0.542447 1.260000 -1.027000
v 0.768845 1.260000 -0.768845
v 1.027000 1.260000 -0.542447
v 1.312500 1.260000 -0.351683
v 1.620460 1.260000 -0.199816
v 1.945600 1.260000 -0.089444
v 2.326910 1.260000 -0.381827
v 2.032630 1.260000 -0.429783
v 1.747790 1.260000 -0.517946
v 1.477870 1.260000 -0.644626
v 1.228050 1.260000 -0.807391
v 1.003120 1.260000 -1.003120
v 0.807391 1.260000 -1.228050
v 0.644626 1.260000 -1.477870
v 0.517946 1.260000 -1.747790
v 0.429783 1.260000 -2.032630
v 0.381827 1.260000 -2.326910
v 0.542447 0.630000 -1.027000
v 0.859835 0.630000 -1.390170
v 1.257580 0.000000 -1.787910
v 0.859835 0.000000 -1.390170
v 1.787910 0.000000 -1.257580
v 1.390170 0.630000 -0.859835
v 1.390170 0.000000 -0.859835
v 1.620460 0.630000 -0.199816
v 1.312500 0.630000 -0.351683
v 1.027000 0.630000 -0.542447
v 0.768845 0.630000 -0.768845
vt -2.250000 0.630000
vt -0.000000 0.630000
vt -1.875000 0.930000
vt -2.250000 2.625000
vt -0.022457 2.282370
vt -0.000000 2.625000
vt -0.089445 1.945600
vt -0.199816 1.620460
vt -0.351683 1.312500
vt -1.257580 1.787910
vt -1.787910 1.257580
vt -1.945600 0.089445
vt -2.282370 0.022457
vt -2.253210 2.576050
vt 0.000000 0.630000
vt 2.250000 0.630000
vt 0.375000 0.930000
vt -2.625000 0.000000
vt -2.576050 2.253210
vt -2.625000 2.250000
vt -2.527940 2.262780
vt -2.481490 2.278550
vt -2.437500 2.300240
vt -2.396710 2.327490
vt -2.359830 2.359830
vt -2.327490 2.396710
vt -2.300240 2.437500
vt -2.278550 2.481490
vt -2.262780 2.527940
vt -0.859835 1.390170
vt -0.542447 1.027000
vt -1.312500 0.351683
vt -1.390170 0.859835
vt -1.620460 0.199816
vt -1.027000 0.542447
vt -0.375000 1.230000
vt -0.375000 0.930000
vt -0.000000 1.260000
vt -0.768845 0.768845
vt 0.748762 0.630000
vt 0.748762 1.260000
vt 0.699710 1.260000
vt 0.699710 0.630000
vt 2.262780 2.527940
vt 2.253210 2.576050
vt 1.884150 2.528140
vt 1.905370 2.433190
vt 1.945600 0.089445
vt 2.032630 0.429783
vt 1.747790 0.517946
vt 1.620460 0.199816
vt 1.982480 2.254960
vt 2.300240 2.437500
vt 2.278550 2.481490
vt 1.938320 2.341650
vt 2.101510 2.101510
vt 2.359830 2.359830
vt 2.327490 2.396710
vt 2.037170 2.174490
vt 0.644626 1.477870
vt 0.517946 1.747790
vt 0.199816 1.620460
vt 0.351683 1.312500
vt 2.472220 0.630000
vt 2.472220 1.260000
vt 2.423170 1.260000
vt 2.423170 0.630000
vt 1.875000 1.230000
vt 1.875000 0.930000
vt 2.250000 1.260000
vt -0.375000 1.260000
vt -1.875000 1.260000
vt -2.250000 1.260000
vt -1.875000 1.230000
vt 0.375000 1.230000
vt 0.000000 1.260000
vt -0.396424 1.260000
vt -0.396424 1.230000
vt -0.098257 1.230000
vt -0.098257 1.260000
vt 2.250000 2.625000
vt 1.875000 2.625000
vt 2.396710 2.327490
vt 2.174490 2.037170
vt 2.254960 1.982480
vt 2.437500 2.300240
vt 2.481490 2.278550
vt 2.341650 1.938320
vt 2.576050 2.253210
vt 2.527940 2.262780
vt 2.433190 1.905370
vt 2.528140 1.884150
vt 1.875000 1.260000
vt 0.375000 1.260000
vt -0.750776 1.260000
vt -0.750776 1.230000
vt -0.653484 1.230000
vt -0.653484 1.260000
vt 1.217810 0.630000
vt 1.217810 1.260000
vt 1.168760 1.260000
vt 1.168760 0.630000
vt -0.886360 1.260000
vt -0.886360 1.230000
vt -0.588193 1.230000
vt -0.588193 1.260000
vt 0.375000 0.000000
vt 0.375000 0.630000
vt -0.375000 0.630000
vt -0.375000 0.000000
vt 2.153490 0.000000
vt 2.153490 0.630000
vt 1.590990 0.630000
vt 1.590990 0.000000
vt -0.699710 0.630000
vt -0.699710 1.260000
vt -0.748762 1.260000
vt -0.748762 0.630000
vt -1.168760 0.630000
vt -1.168760 1.260000
vt -1.217810 1.260000
vt -1.217810 0.630000
vt -1.617390 0.630000
vt -1.617390 1.260000
vt -1.666440 1.260000
vt -1.666440 0.630000
vt -1.590990 -0.000000
vt -1.590990 0.630000
vt -2.153490 0.630000
vt -2.153490 -0.000000
vt -1.890770 0.630000
vt -1.890770 1.260000
vt -2.234130 1.260000
vt -2.234130 0.630000
vt 2.619380 0.630000
vt 2.619380 1.260000
vt 2.276010 1.260000
vt 2.276010 0.630000
vt 2.625000 0.000000
vt 2.625000 0.375000
vt 2.326910 0.381827
vt 2.282370 0.022457
vt 1.477870 0.644626
vt 1.312500 0.351683
vt 1.228050 0.807391
vt 1.027000 0.542447
vt 1.003120 1.003120
vt 0.768845 0.768845
vt 0.807391 1.228050
vt 0.542447 1.027000
vt 0.429783 2.032630
vt 0.089445 1.945600
vt 2.625000 2.250000
vt 2.625000 1.875000
vt 0.381827 2.326910
vt 0.022457 2.282370
vt -2.423170 0.630000
vt -2.423170 1.260000
vt -2.472220 1.260000
vt -2.472220 0.630000
vt -2.276010 0.630000
vt -2.276010 1.260000
vt -2.619380 1.260000
vt -2.619380 0.630000
vt -1.206550 1.260000
vt -1.206550 1.230000
vt -1.109260 1.230000
vt -1.109260 1.260000
vt -2.037920 0.630000
vt -2.037920 1.260000
vt -2.086980 1.260000
vt -2.086980 0.630000
vt -1.021600 0.630000
vt -1.021600 1.260000
vt -1.364970 1.260000
vt -1.364970 0.630000
vt -0.552553 0.630000
vt -0.552553 1.260000
vt -0.895919 1.260000
vt -0.895919 0.630000
vt -1.470230 0.630000
vt -1.470230 1.260000
vt -1.813600 1.260000
vt -1.813600 0.630000
vt -0.218271 0.630000
vt -0.218271 1.260000
vt -0.267323 1.260000
vt -0.267323 0.630000
vt 0.267323 0.630000
vt 0.267323 1.260000
vt 0.218271 1.260000
vt 0.218271 0.630000
vt 0.414480 0.630000
vt 0.414480 1.260000
vt 0.071113 1.260000
vt 0.071113 0.630000
vt -0.071113 0.630000
vt -0.071113 1.260000
vt -0.414480 1.260000
vt -0.414480 0.630000
vt 0.895919 0.630000
vt 0.895919 1.260000
vt 0.552553 1.260000
vt 0.552553 0.630000
vt 1.364970 0.630000
vt 1.364970 1.260000
vt 1.021600 1.260000
vt 1.021600 0.630000
vt 1.813600 0.630000
vt 1.813600 1.260000
vt 1.470230 1.260000
vt 1.470230 0.630000
vt 2.234130 0.630000
vt 2.234130 1.260000
vt 1.890770 1.260000
vt 1.890770 0.630000
vt 0.000000 2.625000
vt 0.375000 2.625000
vt -2.437070 1.260000
vt -2.437070 1.230000
vt -2.339780 1.230000
vt -2.339780 1.260000
vt -2.615720 1.260000
vt -2.615720 1.230000
vt -2.317560 1.230000
vt -2.317560 1.260000
vt -2.235210 1.260000
vt -2.235210 1.230000
vt -1.937040 1.230000
vt -1.937040 1.260000
vt -1.814660 1.260000
vt -1.814660 1.230000
vt -1.516490 1.230000
vt -1.516490 1.260000
vt -1.362150 1.260000
vt -1.362150 1.230000
vt -1.063980 1.230000
vt -1.063980 1.260000
vt 0.098257 1.260000
vt 0.098257 1.230000
vt 0.396424 1.230000
vt 0.396424 1.260000
vt 0.375000 0.000000
vt 0.375000 0.630000
vt -0.375000 0.630000
vt -0.375000 0.000000
vt 1.666440 0.630000
vt 1.666440 1.260000
vt 1.617390 1.260000
vt 1.617390 0.630000
vt 0.588193 1.260000
vt 0.588193 1.230000
vt 0.886360 1.230000
vt 0.886360 1.260000
vt 1.063980 1.260000
vt 1.063980 1.230000
vt 1.362150 1.230000
vt 1.362150 1.260000
vt 1.516490 1.260000
vt 1.516490 1.230000
vt 1.814660 1.230000
vt 1.814660 1.260000
vt 1.937040 1.260000
vt 1.937040 1.230000
vt 2.235210 1.230000
vt 2.235210 1.260000
vt 2.317560 1.260000
vt 2.317560 1.230000
vt 2.615720 1.230000
vt 2.615720 1.260000
vt 2.339780 1.260000
vt 2.339780 1.230000
vt 2.437070 1.230000
vt 2.437070 1.260000
vt 1.959110 1.260000
vt 1.959110 1.230000
vt 2.056400 1.230000
vt 2.056400 1.260000
vt 1.546770 1.260000
vt 1.546770 1.230000
vt 1.644060 1.230000
vt 1.644060 1.260000
vt 1.109260 1.260000
vt 1.109260 1.230000
vt 1.206550 1.230000
vt 1.206550 1.260000
vt 0.653484 1.260000
vt 0.653484 1.230000
vt 0.750776 1.230000
vt 0.750776 1.260000
vt 0.186634 1.260000
vt 0.186634 1.230000
vt 0.283926 1.230000
vt 0.283926 1.260000
vt -0.283926 1.260000
vt -0.283926 1.230000
vt -0.186634 1.230000
vt -0.186634 1.260000
vt -1.257580 1.787910
vt -1.787910 1.257580
vt -1.390170 0.859835
vt -0.859835 1.390170
vt 2.086980 0.630000
vt 2.086980 1.260000
vt 2.037920 1.260000
vt 2.037920 0.630000
vt -1.644060 1.260000
vt -1.644060 1.230000
vt -1.546770 1.230000
vt -1.546770 1.260000
vt -2.056400 1.260000
vt -2.056400 1.230000
vt -1.959110 1.230000
vt -1.959110 1.260000
vt 2.625000 0.375000
vt 2.625000 1.875000
vt 2.528140 1.884150
vt 2.326910 0.381827
vt 2.433190 1.905370
vt 2.032630 0.429783
vt 2.341650 1.938320
vt 1.747790 0.517946
vt 2.254960 1.982480
vt 1.477870 0.644626
vt 2.174490 2.037170
vt 1.228050 0.807391
vt 2.037170 2.174490
vt 0.807391 1.228050
vt 1.003120 1.003120
vt 2.101510 2.101510
vt 1.982480 2.254960
vt 0.644626 1.477870
vt 0.429783 2.032630
vt 0.517946 1.747790
vt 1.938320 2.341650
vt 1.905370 2.433190
vt 0.375000 2.625000
vt 0.381827 2.326910
vt 1.884150 2.528140
vt 1.875000 2.625000
vn -0.0000 0.0000 -1.0000
vn 0.0000 -1.0000 -0.0000
vn 1.0000 -0.0000 0.0000
vn 0.8661 0.0000 -0.4999
vn 0.7934 0.0000 -0.6087
vn -0.0000 1.0000 0.0000
vn 0.9979 0.0000 -0.0654
vn 0.9914 0.0000 -0.1305
vn 0.6026 0.0000 -0.7980
vn 0.7071 0.0000 -0.7071
vn -0.8608 0.0000 0.5090
vn -0.7901 0.0000 0.6129
vn 0.9239 0.0000 -0.3827
vn 0.4865 0.0000 -0.8737
vn -0.7071 -0.0000 0.7071
vn 0.7071 -0.0000 0.7071
vn 0.6087 0.0000 -0.7934
vn 0.4999 0.0000 -0.8661
vn 0.3827 0.0000 -0.9239
vn 0.2588 0.0000 -0.9659
vn -0.7071 0.0000 -0.7071
vn -0.9659 -0.0000 0.2588
vn -0.9914 -0.0000 0.1305
vn -0.0654 -0.0000 0.9979
vn -0.1305 -0.0000 0.9914
vn 0.1305 0.0000 -0.9914
vn 0.0654 0.0000 -0.9979
vn -0.9979 -0.0000 0.0654
vn -0.9178 0.0000 0.3971
vn -0.8660 -0.0000 0.5000
vn -0.9239 -0.0000 0.3827
vn -0.7934 -0.0000 0.6088
vn -0.6088 -0.0000 0.7934
vn -0.5000 -0.0000 0.8660
vn -0.3827 -0.0000 0.9239
vn -0.2588 -0.0000 0.9659
vn -0.9956 0.0000 0.0940
vn -0.9877 0.0000 0.1564
vn 0.0229 0.0000 -0.9997
vn 0.0921 0.0000 -0.9958
vn 0.2288 0.0000 -0.9735
vn 0.3611 0.0000 -0.9325
vn 0.7980 0.0000 -0.6026
vn 0.9659 0.0000 -0.2588
vn 0.8737 0.0000 -0.4865
vn 0.9325 0.0000 -0.3611
vn 0.9735 0.0000 -0.2288
vn 0.9958 0.0000 -0.0921
vn 0.9997 0.0000 -0.0229
vn -0.1564 0.0000 0.9877
vn -0.0940 0.0000 0.9956
vn -0.2789 0.0000 0.9603
vn -0.3971 0.0000 0.9178
vn -0.5090 0.0000 0.8608
vn -0.6129 0.0000 0.7901
vn -0.9603 0.0000 0.2789
usemtl Stone.119
s 1
f 31/1/1 32/2/1 29/3/1
f 31/4/2 36/5/2 32/6/2
f 36/5/2 31/4/2 37/7/2
f 37/7/2 31/4/2 38/8/2
f 38/8/2 31/4/2 39/9/2
f 39/9/2 31/4/2 40/10/2
f 40/10/2 31/4/2 41/11/2
f 41/11/2 31/4/2 42/12/2
f 42/12/2 31/4/2 43/13/2
f 43/13/2 31/4/2 44/14/2
f 68/15/3 69/16/3 71/17/3
f 68/18/2 74/19/2 69/20/2
f 68/18/2 75/21/2 74/19/2
f 68/18/2 76/22/2 75/21/2
f 68/18/2 77/23/2 76/22/2
f 68/18/2 78/24/2 77/23/2
f 68/18/2 79/25/2 78/24/2
f 68/18/2 80/26/2 79/25/2
f 68/18/2 81/27/2 80/26/2
f 43/13/2 81/27/2 68/18/2
f 43/13/2 82/28/2 81/27/2
f 43/13/2 83/29/2 82/28/2
f 43/13/2 44/14/2 83/29/2
f 39/9/2 107/30/2 106/31/2
f 39/9/2 40/10/2 107/30/2
f 114/32/2 111/33/2 113/34/2
f 115/35/2 111/33/2 114/32/2
f 5/36/1 30/37/1 32/2/1 33/38/1
f 106/31/2 107/30/2 116/39/2
f 81/40/4 55/41/4 54/42/5 80/43/5
f 57/44/6 45/45/6 3/46/6 58/47/6
f 94/48/6 96/49/6 97/50/6 93/51/6
f 60/52/6 55/53/6 56/54/6 59/55/6
f 62/56/6 53/57/6 54/58/6 61/59/6
f 102/60/6 103/61/6 87/62/6 88/63/6
f 31/64/7 35/65/7 45/66/8 44/67/8
f 18/68/3 70/69/3 69/16/3 47/70/3
f 33/38/1 34/71/1 5/36/1
f 4/72/1 35/73/1 1/74/1
f 17/75/3 73/76/3 68/15/3 71/17/3
f 32/2/1 30/37/1 29/3/1
f 99/77/9 12/78/9 11/79/10 100/80/10
f 45/45/6 35/81/6 4/82/6 3/46/6
f 60/52/6 61/59/6 54/58/6 55/53/6
f 52/83/6 63/84/6 64/85/6 51/86/6
f 52/83/6 53/57/6 62/56/6 63/84/6
f 50/87/6 51/86/6 64/85/6 65/88/6
f 48/89/6 49/90/6 66/91/6 67/92/6
f 49/90/6 50/87/6 65/88/6 66/91/6
f 1/74/1 35/73/1 31/1/1 29/3/1
f 47/70/3 46/93/3 18/68/3
f 72/94/3 73/76/3 17/75/3
f 41/11/2 42/12/2 113/34/2 111/33/2
f 69/16/3 70/69/3 71/17/3
f 60/95/11 26/96/11 25/97/12 61/98/12
f 82/99/13 56/100/13 55/101/4 81/102/4
f 98/103/14 13/104/14 12/105/9 99/106/9
f 112/107/15 111/108/15 107/109/15 109/110/15
f 110/111/16 41/112/16 111/113/16 112/114/16
f 78/115/17 52/116/17 51/117/18 77/118/18
f 77/119/18 51/120/18 50/121/19 76/122/19
f 76/123/19 50/124/19 49/125/20 75/126/20
f 109/127/21 107/128/21 40/129/21 108/130/21
f 37/131/22 86/132/22 85/133/23 36/134/23
f 68/135/24 73/136/24 84/137/25 43/138/25
f 73/139/6 72/140/6 95/141/6 84/142/6
f 84/142/6 95/141/6 96/49/6 94/48/6
f 59/55/6 56/54/6 57/44/6 58/47/6
f 97/50/6 98/143/6 92/144/6 93/51/6
f 98/143/6 99/145/6 91/146/6 92/144/6
f 99/145/6 100/147/6 90/148/6 91/146/6
f 115/35/2 116/39/2 107/30/2 111/33/2
f 90/148/6 100/147/6 101/149/6 89/150/6
f 89/150/6 101/149/6 102/60/6 88/63/6
f 103/61/6 104/151/6 86/152/6 87/62/6
f 47/153/6 48/89/6 67/92/6 46/154/6
f 104/151/6 105/155/6 85/156/6 86/152/6
f 74/157/26 48/158/26 47/159/27 69/160/27
f 36/161/23 85/162/23 33/163/28 32/164/28
f 59/165/29 27/166/29 26/167/11 60/168/11
f 75/169/20 49/170/20 48/171/26 74/172/26
f 39/173/30 88/174/30 87/175/31 38/176/31
f 106/177/32 89/178/32 88/179/30 39/180/30
f 38/181/31 87/182/31 86/183/22 37/184/22
f 79/185/10 53/186/10 52/187/17 78/188/17
f 80/189/5 54/190/5 53/191/10 79/192/10
f 115/193/33 91/194/33 90/195/15 116/196/15
f 116/197/15 90/198/15 89/199/32 106/200/32
f 114/201/34 92/202/34 91/203/33 115/204/33
f 113/205/35 93/206/35 92/207/34 114/208/34
f 42/209/36 94/210/36 93/211/35 113/212/35
f 43/213/25 84/214/25 94/215/36 42/216/36
f 33/217/6 85/156/6 105/155/6 34/218/6
f 4/219/37 1/220/37 2/221/38 3/222/38
f 72/223/39 17/224/39 16/225/40 95/226/40
f 95/227/40 16/228/40 15/229/41 96/230/41
f 96/231/41 15/232/41 14/233/42 97/234/42
f 97/235/42 14/236/42 13/237/14 98/238/14
f 100/239/10 11/240/10 10/241/43 101/242/43
f 108/243/10 40/244/10 41/245/10 110/246/10
f 83/247/44 57/248/44 56/249/13 82/250/13
f 101/251/43 10/252/43 9/253/45 102/254/45
f 102/255/45 9/256/45 8/257/46 103/258/46
f 103/259/46 8/260/46 7/261/47 104/262/47
f 104/263/47 7/264/47 6/265/48 105/266/48
f 105/267/48 6/268/48 5/269/49 34/270/49
f 67/271/50 19/272/50 18/273/51 46/274/51
f 66/275/52 20/276/52 19/277/50 67/278/50
f 65/279/53 21/280/53 20/281/52 66/282/52
f 64/283/54 22/284/54 21/285/53 65/286/53
f 63/287/55 23/288/55 22/289/54 64/290/54
f 62/291/15 24/292/15 23/293/55 63/294/55
f 61/295/12 25/296/12 24/297/15 62/298/15
f 108/299/2 110/300/2 112/301/2 109/302/2
f 44/303/8 45/304/8 57/305/44 83/306/44
f 58/307/56 28/308/56 27/309/29 59/310/29
f 3/311/38 2/312/38 28/313/56 58/314/56
usemtl Asphalt.092
f 17/315/6 18/316/6 19/317/6 16/318/6
f 16/318/6 19/317/6 20/319/6 15/320/6
f 15/320/6 20/319/6 21/321/6 14/322/6
f 14/322/6 21/321/6 22/323/6 13/324/6
f 13/324/6 22/323/6 23/325/6 12/326/6
f 25/327/6 10/328/6 11/329/6 24/330/6
f 26/331/6 9/332/6 10/328/6 25/327/6
f 7/333/6 8/334/6 27/335/6 28/336/6
f 27/335/6 8/334/6 9/332/6 26/331/6
f 5/337/6 6/338/6 2/339/6 1/340/6
f 28/336/6 2/339/6 6/338/6 7/333/6
f 12/326/6 23/325/6 24/330/6 11/329/6
f 5/36/1 1/74/1 29/3/1 30/37/1
f 18/68/3 17/75/3 71/17/3 70/69/3
