# Blender v3.4.1 OBJ File: ''
# www.blender.org
mtllib roadTile_167.mtl
o roadTile_167
v 0.097895 0.550000 -0.743584
v 0.194114 0.550000 -0.724444
v 0.194114 0.455000 -0.724444
v 0.097895 0.455000 -0.743584
v 0.000000 0.550000 0.000000
v 0.750000 0.550000 0.000000
v 0.743584 0.550000 -0.097895
v 0.724444 0.550000 -0.194114
v 0.692910 0.550000 -0.287013
v 0.649519 0.550000 -0.375000
v 0.595015 0.550000 -0.456571
v 0.530330 0.550000 -0.530330
v 0.456571 0.550000 -0.595015
v 0.375000 0.550000 -0.649519
v 0.287013 0.550000 -0.692910
v 0.000000 0.550000 -0.750000
v 0.000000 0.000000 0.000000
v 0.750000 0.000000 -0.000000
v 0.750000 0.455000 0.000000
v 0.000000 0.000000 -0.750000
v 0.000000 0.000000 -2.250000
v 0.000000 0.000000 -3.000000
v 0.750000 0.000000 -3.000000
v 3.000000 0.000000 -3.000000
v 3.000000 0.000000 -0.000000
v 0.000000 0.455000 -0.750000
v 0.000000 0.455000 -2.250000
v 0.000000 0.550000 -2.250000
v 0.000000 0.550000 -3.000000
v 0.097895 0.550000 -2.256420
v 0.097895 0.455000 -2.256420
v 0.194114 0.550000 -2.275560
v 0.287013 0.550000 -2.307090
v 0.375000 0.550000 -2.350480
v 0.456571 0.550000 -2.404980
v 0.530330 0.550000 -2.469670
v 0.595015 0.550000 -2.543430
v 0.649519 0.550000 -2.625000
v 0.692910 0.550000 -2.712990
v 0.724444 0.550000 -2.805890
v 0.743584 0.550000 -2.902110
v 0.750000 0.550000 -3.000000
v 0.194114 0.455000 -2.275560
v 0.287013 0.455000 -0.692910
v 0.375000 0.455000 -0.649519
v 0.456571 0.455000 -0.595015
v 0.530330 0.455000 -0.530330
v 0.595015 0.455000 -0.456571
v 0.649519 0.455000 -0.375000
v 0.692910 0.455000 -0.287013
v 0.724444 0.455000 -0.194114
v 0.743584 0.455000 -0.097895
v 3.000000 0.455000 0.000000
v 3.000000 0.455000 -3.000000
v 0.750000 0.455000 -3.000000
v 0.743584 0.455000 -2.902110
v 0.724444 0.455000 -2.805890
v 0.692910 0.455000 -2.712990
v 0.649519 0.455000 -2.625000
v 0.595015 0.455000 -2.543430
v 0.530330 0.455000 -2.469670
v 0.456571 0.455000 -2.404980
v 0.375000 0.455000 -2.350480
v 0.287013 0.455000 -2.307090
vt 0.194114 0.724444
vt 0.097895 0.743584
vt 0.000000 0.000000
vt 0.750000 0.455000
vt 0.750000 0.550000
vt 0.000000 0.550000
vt -2.250000 0.455000
vt -2.250000 0.550000
vt -3.000000 0.550000
vt 0.724444 2.805890
vt 0.743584 2.902110
vt 0.000000 3.000000
vt 1.375920 0.455000
vt 1.375920 0.550000
vt 1.277810 0.550000
vt 1.277810 0.455000
vt 0.000000 0.750000
vt 0.750000 0.000000
vt 0.743584 0.097895
vt 0.724444 0.194114
vt 0.692910 0.287013
vt 0.649519 0.375000
vt 0.595015 0.456571
vt 0.530330 0.530330
vt 0.456571 0.595015
vt 0.375000 0.649519
vt 0.287013 0.692910
vt -0.750000 0.000000
vt -0.000000 -0.000000
vt -0.000000 0.750000
vt -0.000000 2.250000
vt -0.000000 3.000000
vt -0.750000 3.000000
vt 2.027090 0.455000
vt 2.027090 0.550000
vt 1.928990 0.550000
vt 1.928990 0.455000
vt -0.750000 0.550000
vt -0.750000 0.455000
vt -3.000000 0.000000
vt -2.250000 0.000000
vt 2.739670 0.455000
vt 2.739670 0.550000
vt 2.641570 0.550000
vt 2.641570 0.455000
vt -0.000000 0.550000
vt -0.750000 0.455000
vt -0.750000 -0.000000
vt -0.000000 -0.000000
vt 0.634323 0.455000
vt 0.634323 0.550000
vt 0.536219 0.550000
vt 0.536219 0.455000
vt 0.750000 3.000000
vt 0.000000 2.250000
vt 0.097895 2.256420
vt 0.194114 2.275560
vt 0.287013 2.307090
vt 0.375000 2.350480
vt 0.456571 2.404980
vt 0.530330 2.469670
vt 0.595015 2.543430
vt 0.649519 2.625000
vt 0.692910 2.712990
vt 2.991410 0.455000
vt 2.991410 0.550000
vt 2.893300 0.550000
vt 2.893300 0.455000
vt 0.049052 0.455000
vt 0.049052 0.550000
vt -0.049052 0.550000
vt -0.049052 0.455000
vt 0.049052 0.455000
vt 0.049052 0.550000
vt -0.049052 0.550000
vt -0.049052 0.455000
vt 0.049052 0.455000
vt 0.049052 0.550000
vt -0.049052 0.550000
vt -0.049052 0.455000
vt 0.049052 0.455000
vt 0.049052 0.550000
vt -0.049052 0.550000
vt -0.049052 0.455000
vt 0.049052 0.455000
vt 0.049052 0.550000
vt -0.049052 0.550000
vt -0.049052 0.455000
vt 1.013370 0.455000
vt 1.013370 0.550000
vt 0.915266 0.550000
vt 0.915266 0.455000
vt 0.049052 0.455000
vt 0.049052 0.550000
vt -0.049052 0.550000
vt -0.049052 0.455000
vt 0.049052 0.455000
vt 0.049052 0.550000
vt -0.049052 0.550000
vt -0.049052 0.455000
vt 0.049052 0.455000
vt 0.049052 0.550000
vt -0.049052 0.550000
vt -0.049052 0.455000
vt 0.049052 0.455000
vt 0.049052 0.550000
vt -0.049052 0.550000
vt -0.049052 0.455000
vt -0.750000 0.000000
vt 0.049052 0.455000
vt 0.049052 0.550000
vt -0.049052 0.550000
vt -0.049052 0.455000
vt -0.750000 0.550000
vt 0.750000 0.000000
vt 3.042630 0.455000
vt 3.042630 0.550000
vt 2.944520 0.550000
vt 2.944520 0.455000
vt 0.245262 0.455000
vt 0.245262 0.550000
vt 0.147157 0.550000
vt 0.147157 0.455000
vt 2.889840 0.455000
vt 2.889840 0.550000
vt 2.791740 0.550000
vt 2.791740 0.455000
vt 0.049052 0.455000
vt 0.049052 0.550000
vt -0.049052 0.550000
vt -0.049052 0.455000
vt 2.543460 0.455000
vt 2.543460 0.550000
vt 2.445360 0.550000
vt 2.445360 0.455000
vt -3.000000 3.000000
vt -3.000000 0.000000
vt 1.715760 0.455000
vt 1.715760 0.550000
vt 1.617660 0.550000
vt 1.617660 0.455000
vt 2.304570 0.455000
vt 2.304570 0.550000
vt 2.206470 0.550000
vt 2.206470 0.455000
vt 0.049052 0.455000
vt 0.049052 0.550000
vt -0.049052 0.550000
vt -0.049052 0.455000
vt 0.724444 0.194114
vt 0.743584 0.097895
vt 3.000000 0.000000
vt 0.000000 2.250000
vt 0.000000 0.750000
vt 0.097895 0.743584
vt 0.097895 2.256420
vt 3.000000 3.000000
vt 0.595015 2.543430
vt 0.595015 0.456571
vt 0.194114 0.724444
vt 0.287013 0.692910
vt 0.287013 2.307090
vt 0.194114 2.275560
vt 0.375000 0.649519
vt 0.375000 2.350480
vt 0.456571 0.595015
vt 0.456571 2.404980
vt 0.530330 2.469670
vt 0.530330 0.530330
vt 0.649519 2.625000
vt 0.649519 0.375000
vt 0.692910 2.712990
vt 0.692910 0.287013
vt 0.724444 2.805890
vt 0.750000 3.000000
vt 0.743584 2.902110
vt 0.750000 0.000000
vt 3.000000 0.455000
vt 3.000000 0.000000
vt 3.000000 0.455000
vt 0.000000 0.455000
vt 0.000000 0.000000
vt 3.000000 0.000000
vt -3.000000 0.455000
vt -3.000000 -0.000000
vn -0.0000 1.0000 0.0000
vn 0.0000 -0.0000 1.0000
vn -1.0000 -0.0000 -0.0000
vn 0.5000 0.0000 0.8660
vn 0.3827 0.0000 0.9239
vn 0.0000 -1.0000 -0.0000
vn 0.7071 0.0000 0.7071
vn 0.6088 0.0000 0.7934
vn 0.9239 0.0000 0.3827
vn 0.8660 0.0000 0.5000
vn 0.0000 0.0000 -1.0000
vn 0.2588 0.0000 0.9659
vn 0.1305 0.0000 0.9914
vn 0.9914 0.0000 0.1305
vn 0.9659 0.0000 0.2588
vn 0.2588 0.0000 -0.9659
vn 0.3827 0.0000 -0.9239
vn 0.5000 0.0000 -0.8660
vn 0.6088 0.0000 -0.7934
vn 0.7071 0.0000 -0.7071
vn 0.7934 0.0000 -0.6088
vn 0.0654 0.0000 -0.9979
vn 0.1305 0.0000 -0.9914
vn 0.8660 0.0000 -0.5000
vn 0.9239 0.0000 -0.3827
vn 0.9659 0.0000 -0.2588
vn 0.9914 0.0000 -0.1305
vn 0.9979 0.0000 0.0654
vn 0.0654 0.0000 0.9979
vn 0.9979 0.0000 -0.0654
vn 0.7934 0.0000 0.6088
vn 1.0000 0.0000 0.0000
usemtl Grass.073
s 1
f 2/1/1 1/2/1 5/3/1
f 19/4/2 6/5/2 5/6/2
f 27/7/3 28/8/3 29/9/3
f 40/10/1 41/11/1 29/12/1
f 63/13/4 34/14/4 33/15/5 64/16/5
f 16/17/1 5/3/1 1/2/1
f 5/3/1 6/18/1 7/19/1
f 8/20/1 5/3/1 7/19/1
f 8/20/1 9/21/1 5/3/1
f 9/21/1 10/22/1 5/3/1
f 10/22/1 11/23/1 5/3/1
f 11/23/1 12/24/1 5/3/1
f 12/24/1 13/25/1 5/3/1
f 13/25/1 14/26/1 5/3/1
f 14/26/1 15/27/1 5/3/1
f 15/27/1 2/1/1 5/3/1
f 18/28/6 17/29/6 20/30/6
f 21/31/6 22/32/6 23/33/6
f 18/28/6 20/30/6 21/31/6
f 61/34/7 36/35/7 35/36/8 62/37/8
f 21/31/6 23/33/6 18/28/6
f 16/38/3 26/39/3 5/6/3
f 22/40/3 21/41/3 27/7/3 29/9/3
f 58/42/9 39/43/9 38/44/10 59/45/10
f 29/46/11 55/47/11 23/48/11 22/49/11
f 43/50/12 32/51/12 30/52/13 31/53/13
f 42/54/1 29/12/1 41/11/1
f 29/12/1 28/55/1 30/56/1
f 32/57/1 29/12/1 30/56/1
f 32/57/1 33/58/1 29/12/1
f 33/58/1 34/59/1 29/12/1
f 34/59/1 35/60/1 29/12/1
f 35/60/1 36/61/1 29/12/1
f 36/61/1 37/62/1 29/12/1
f 37/62/1 38/63/1 29/12/1
f 38/63/1 39/64/1 29/12/1
f 39/64/1 40/10/1 29/12/1
f 56/65/14 41/66/14 40/67/15 57/68/15
f 3/69/16 2/70/16 15/71/17 44/72/17
f 44/73/17 15/74/17 14/75/18 45/76/18
f 45/77/18 14/78/18 13/79/19 46/80/19
f 46/81/19 13/82/19 12/83/20 47/84/20
f 47/85/20 12/86/20 11/87/21 48/88/21
f 64/89/5 33/90/5 32/91/12 43/92/12
f 26/93/22 16/94/22 1/95/23 4/96/23
f 48/97/21 11/98/21 10/99/24 49/100/24
f 49/101/24 10/102/24 9/103/25 50/104/25
f 50/105/25 9/106/25 8/107/26 51/108/26
f 5/6/3 26/39/3 20/109/3 17/29/3
f 51/110/26 8/111/26 7/112/27 52/113/27
f 42/114/11 55/47/11 29/46/11
f 17/29/2 18/115/2 19/4/2 5/6/2
f 55/116/28 42/117/28 41/118/14 56/119/14
f 31/120/13 30/121/13 28/122/29 27/123/29
f 57/124/15 40/125/15 39/126/9 58/127/9
f 52/128/27 7/129/27 6/130/30 19/131/30
f 59/132/10 38/133/10 37/134/31 60/135/31
f 23/33/6 24/136/6 25/137/6 18/28/6
f 62/138/8 35/139/8 34/140/4 63/141/4
f 60/142/31 37/143/31 36/144/7 61/145/7
f 4/146/23 1/147/23 2/148/16 3/149/16
usemtl Water.010
f 51/150/1 52/151/1 53/152/1
f 27/153/1 26/154/1 4/155/1 31/156/1
f 53/152/1 54/157/1 60/158/1 48/159/1
f 3/160/1 44/161/1 64/162/1 43/163/1
f 44/161/1 45/164/1 63/165/1 64/162/1
f 45/164/1 46/166/1 62/167/1 63/165/1
f 61/168/1 62/167/1 47/169/1
f 62/167/1 46/166/1 47/169/1
f 60/158/1 61/168/1 48/159/1
f 61/168/1 47/169/1 48/159/1
f 59/170/1 60/158/1 54/157/1
f 31/156/1 4/155/1 3/160/1 43/163/1
f 48/159/1 49/171/1 53/152/1
f 58/172/1 59/170/1 54/157/1
f 49/171/1 50/173/1 53/152/1
f 57/174/1 58/172/1 54/157/1
f 50/173/1 51/150/1 53/152/1
f 54/157/1 55/175/1 56/176/1
f 56/176/1 57/174/1 54/157/1
f 52/151/1 19/177/1 53/152/1
f 53/178/2 19/4/2 18/115/2 25/179/2
f 54/180/32 53/181/32 25/182/32 24/183/32
f 54/184/11 24/185/11 23/48/11 55/47/11
f 26/39/3 27/7/3 21/41/3 20/109/3
