# Blender v3.4.1 OBJ File: ''
# www.blender.org
mtllib roadTile_089.mtl
o roadTile_089
v 0.000000 0.630000 -3.000000
v 0.000000 1.730000 0.000000
v 0.750000 1.730000 0.000000
v 0.750000 0.630000 -3.000000
v 0.000000 0.000000 -0.000000
v 0.000000 0.000000 -3.000000
v 3.000000 0.300000 0.000000
v 0.750000 0.300000 0.000000
v 0.750000 0.600000 0.000000
v 3.000000 0.000000 0.000000
v 3.000000 0.600000 0.000000
v 3.000000 0.300000 -3.000000
v 3.000000 0.600001 -3.000000
v 3.000000 0.000000 -3.000000
v 0.750000 0.600001 -3.000000
v 0.750000 0.300000 -3.000000
vt -3.000000 0.000000
vt 0.000000 0.000000
vt -0.750000 0.300000
vt 0.000000 0.600000
vt 3.000000 0.600000
vt 3.000000 0.630000
vt 0.000000 1.730000
vt 3.000000 0.000000
vt 3.000000 0.300000
vt 0.750000 0.300000
vt -0.000000 0.000000
vt 0.750000 0.600000
vt -0.000000 3.000000
vt -3.000000 3.000000
vt -3.000000 0.000000
vt 0.000000 1.730000
vt 0.750000 1.730000
vt 0.000000 0.630000
vt -0.750000 0.630000
vt -0.750000 0.600000
vt -3.000000 0.300000
vt 0.000000 0.000000
vt 3.000000 0.000000
vt 3.000000 0.300000
vt 0.000000 0.300000
vt -0.750000 -2.599750
vt 0.000000 -2.599750
vt -0.000000 0.595561
vt -0.750000 0.595561
vt -3.000000 0.630000
vt -3.000000 0.000000
vt 0.750000 0.000000
vt 3.000000 0.000000
vt 3.000000 3.000000
vt 0.750000 3.000000
vt -3.000000 0.600000
vt 3.000000 0.600000
vt 3.000000 0.600000
vt 0.000000 0.600000
vn 0.0000 0.0000 -1.0000
vn 1.0000 0.0000 0.0000
vn -0.0000 -0.0000 1.0000
vn -0.0000 -1.0000 -0.0000
vn 0.0000 0.9389 -0.3443
vn -1.0000 0.0000 -0.0000
vn 0.0000 1.0000 0.0000
usemtl Stone.069
s 1
f 14/1/1 6/2/1 16/3/1
f 9/4/2 15/5/2 4/6/2 3/7/2
f 10/8/3 7/9/3 8/10/3
f 5/11/3 10/8/3 8/10/3
f 8/10/3 9/12/3 5/11/3
f 6/13/4 14/14/4 10/15/4 5/11/4
f 2/16/3 5/11/3 9/12/3 3/17/3
f 1/18/1 4/19/1 15/20/1
f 12/21/1 14/1/1 16/3/1
f 15/20/1 16/3/1 6/2/1 1/18/1
f 10/22/2 14/23/2 12/24/2 7/25/2
f 4/26/5 1/27/5 2/28/5 3/29/5
f 1/30/6 6/31/6 5/11/6 2/16/6
usemtl Asphalt.053
f 9/32/7 11/33/7 13/34/7 15/35/7
f 15/20/1 13/36/1 12/21/1 16/3/1
f 11/37/3 9/12/3 8/10/3 7/9/3
f 13/38/2 11/39/2 7/25/2 12/24/2
