# Blender v3.4.1 OBJ File: ''
# www.blender.org
mtllib roadTile_199.mtl
o roadTile_199
v 3.000000 1.730000 -2.250000
v 3.000000 1.730000 -3.000000
v 0.000000 1.730000 -3.000000
v 0.000000 1.730000 -2.250000
v 3.000000 1.730000 0.000000
v 3.000000 0.000000 -0.000000
v 3.000000 0.000000 -3.000000
v 3.000000 1.700000 -2.250000
v 3.000000 1.400000 -2.250000
v 3.000000 1.400000 -0.750000
v 3.000000 1.700000 -0.750000
v 3.000000 1.730000 -0.750000
v 0.000000 1.730000 0.000000
v 0.000000 1.100000 0.000000
v 1.270000 1.100000 0.000000
v 1.413580 1.090590 0.000000
v 1.554700 1.062520 0.000000
v 1.690950 1.016270 0.000000
v 1.820000 0.952628 0.000000
v 1.939640 0.872689 0.000000
v 2.047820 0.777817 0.000000
v 2.142690 0.669638 0.000000
v 2.222630 0.550000 0.000000
v 2.286270 0.420952 0.000000
v 2.332520 0.284701 0.000000
v 2.360590 0.143579 0.000000
v 2.370000 0.000000 -0.000000
v 0.000000 1.100001 -3.000000
v 0.000000 1.730000 -0.750000
v 0.000000 1.700000 -0.750000
v 0.000000 1.400000 -0.750000
v 0.000000 1.400000 -2.250000
v 0.000000 1.700000 -2.250000
v 2.370000 0.000000 -3.000000
v 2.360590 0.143579 -3.000000
v 2.332520 0.284701 -3.000000
v 2.286270 0.420952 -3.000000
v 2.222630 0.550000 -3.000000
v 2.142690 0.669638 -3.000000
v 2.047820 0.777817 -3.000000
v 1.939640 0.872689 -3.000000
v 1.820000 0.952628 -3.000000
v 1.690950 1.016271 -3.000000
v 1.554700 1.062521 -3.000000
v 1.413580 1.090590 -3.000000
v 1.270000 1.100001 -3.000000
vt 1.939640 0.872689
vt 2.047820 0.777817
vt 3.000000 1.730000
vt -3.000000 1.100000
vt 0.000000 1.100000
vt -0.750000 1.400000
vt -3.000000 1.730000
vt -2.047820 0.777817
vt -1.939640 0.872689
vt -0.000000 -0.882893
vt -3.000000 -0.882893
vt -3.000000 -1.026780
vt -0.000000 -1.026780
vt 0.750000 1.730000
vt 0.000000 1.730000
vt 0.750000 1.700000
vt 0.000000 0.000000
vt 0.750000 1.400000
vt 3.000000 0.000000
vt 3.000000 1.730000
vt 2.250000 1.400000
vt 2.250000 1.730000
vt 2.250000 1.700000
vt 0.000000 1.730000
vt 1.413580 1.090590
vt 1.270000 1.100000
vt 2.370000 -0.000000
vt 3.000000 0.000000
vt 2.360590 0.143579
vt 2.286270 0.420952
vt 2.332520 0.284701
vt 1.554700 1.062520
vt 1.690950 1.016270
vt 1.820000 0.952628
vt 2.222630 0.550000
vt 2.142690 0.669638
vt -2.250000 1.730000
vt -3.000000 1.730000
vt -2.250000 1.700000
vt -2.250000 1.400000
vt -0.750000 1.730000
vt -0.750000 1.700000
vt -0.000000 1.100000
vt -0.000000 1.730000
vt -1.270000 1.100000
vt -1.413580 1.090590
vt -3.000000 0.000000
vt -2.286270 0.420952
vt -2.370000 0.000000
vt -2.360590 0.143579
vt -2.332520 0.284701
vt -1.554700 1.062520
vt -1.690950 1.016270
vt -2.222630 0.550000
vt -2.142690 0.669638
vt -1.820000 0.952628
vt -0.000000 -0.011118
vt -3.000000 -0.011118
vt -3.000000 -0.155005
vt -0.000000 -0.155005
vt -0.000000 -0.336285
vt -3.000000 -0.336285
vt -3.000000 -0.480172
vt -0.000000 -0.480172
vt -0.000000 -0.489763
vt -3.000000 -0.489763
vt -3.000000 -0.633650
vt -0.000000 -0.633650
vt -0.000000 -0.175821
vt -3.000000 -0.175821
vt -3.000000 -0.319708
vt -0.000000 -0.319708
vt -3.000000 3.000000
vt -3.000000 0.000000
vt -2.370000 0.000000
vt -2.370000 3.000000
vt -0.000000 -0.633631
vt -3.000000 -0.633631
vt -3.000000 -0.777518
vt -0.000000 -0.777518
vt -0.000000 -0.765426
vt -3.000000 -0.765426
vt -3.000000 -0.909313
vt -0.000000 -0.909313
vt 0.000000 2.250000
vt 3.000000 2.250000
vt 3.000000 3.000000
vt 0.000000 3.000000
vt -0.000000 -0.984023
vt -3.000000 -0.984023
vt -3.000000 -1.127910
vt -0.000000 -1.127910
vt -0.000000 -1.067080
vt -3.000000 -1.067080
vt -3.000000 -1.210970
vt -0.000000 -1.210970
vt -0.000000 -1.130660
vt -3.000000 -1.130660
vt -3.000000 -1.274540
vt -0.000000 -1.274540
vt -0.000000 -1.173650
vt -3.000000 -1.173650
vt -3.000000 -1.317540
vt -0.000000 -1.317540
vt -0.000000 -1.195340
vt -3.000000 -1.195340
vt -3.000000 -1.339220
vt -0.000000 -1.339220
vt 0.000000 0.000000
vt -0.000000 3.000000
vt -1.270000 3.000000
vt -1.270000 0.000000
vt 3.000000 0.750000
vt 0.000000 0.750000
vt 0.000000 0.000000
vt 3.000000 0.000000
vt -3.000000 1.730000
vt -3.000000 1.700000
vt -0.000000 1.700000
vt -0.000000 1.730000
vt 0.000000 1.730000
vt 0.000000 1.700000
vt 3.000000 1.700000
vt 3.000000 1.730000
vt 3.000000 0.750000
vt 3.000000 2.250000
vt 0.000000 2.250000
vt 0.000000 0.750000
vn -0.0000 -0.0000 1.0000
vn -1.0000 -0.0000 -0.0000
vn -0.0000 0.0000 -1.0000
vn -0.6088 -0.7934 -0.0000
vn -0.7071 -0.7071 -0.0000
vn 1.0000 0.0000 0.0000
vn -0.9914 -0.1305 -0.0000
vn -0.9979 -0.0654 -0.0000
vn -0.9239 -0.3827 -0.0000
vn -0.9659 -0.2588 -0.0000
vn -0.8660 -0.5000 -0.0000
vn -0.0000 -1.0000 -0.0000
vn -0.7934 -0.6088 -0.0000
vn 0.0000 1.0000 0.0000
vn -0.5000 -0.8660 -0.0000
vn -0.3827 -0.9239 -0.0000
vn -0.2588 -0.9659 -0.0000
vn -0.1305 -0.9914 -0.0000
vn -0.0654 -0.9979 -0.0000
usemtl Stone.155
s 1
f 20/1/1 21/2/1 5/3/1
f 28/4/2 14/5/2 31/6/2
f 2/7/3 40/8/3 41/9/3
f 20/10/4 41/11/4 40/12/5 21/13/5
f 12/14/6 5/15/6 11/16/6
f 5/15/6 6/17/6 10/18/6
f 11/16/6 5/15/6 10/18/6
f 7/19/6 2/20/6 9/21/6
f 2/20/6 1/22/6 8/23/6
f 2/20/6 8/23/6 9/21/6
f 5/3/1 13/24/1 16/25/1
f 13/24/1 14/5/1 15/26/1
f 13/24/1 15/26/1 16/25/1
f 27/27/1 6/28/1 26/29/1
f 6/28/1 5/3/1 24/30/1
f 26/29/1 6/28/1 25/31/1
f 25/31/1 6/28/1 24/30/1
f 5/3/1 16/25/1 17/32/1
f 5/3/1 17/32/1 18/33/1
f 5/3/1 18/33/1 19/34/1
f 23/35/1 24/30/1 5/3/1
f 22/36/1 23/35/1 5/3/1
f 5/3/1 19/34/1 20/1/1
f 21/2/1 22/36/1 5/3/1
f 4/37/2 3/38/2 33/39/2
f 9/21/6 10/18/6 6/17/6 7/19/6
f 33/39/2 3/38/2 28/4/2 32/40/2
f 13/24/2 29/41/2 30/42/2
f 31/6/2 32/40/2 28/4/2
f 28/43/3 3/44/3 46/45/3
f 3/44/3 2/7/3 45/46/3
f 46/45/3 3/44/3 45/46/3
f 2/7/3 7/47/3 37/48/3
f 7/47/3 34/49/3 35/50/3
f 7/47/3 35/50/3 36/51/3
f 7/47/3 36/51/3 37/48/3
f 44/52/3 45/46/3 2/7/3
f 43/53/3 44/52/3 2/7/3
f 2/7/3 37/48/3 38/54/3
f 2/7/3 38/54/3 39/55/3
f 42/56/3 43/53/3 2/7/3
f 41/9/3 42/56/3 2/7/3
f 2/7/3 39/55/3 40/8/3
f 26/57/7 35/58/7 34/59/8 27/60/8
f 24/61/9 37/62/9 36/63/10 25/64/10
f 30/42/2 31/6/2 14/5/2 13/24/2
f 23/65/11 38/66/11 37/67/9 24/68/9
f 25/69/10 36/70/10 35/71/7 26/72/7
f 7/73/12 6/74/12 27/75/12 34/76/12
f 22/77/13 39/78/13 38/79/11 23/80/11
f 21/81/5 40/82/5 39/83/13 22/84/13
f 4/85/14 1/86/14 2/87/14 3/88/14
f 19/89/15 42/90/15 41/91/4 20/92/4
f 18/93/16 43/94/16 42/95/15 19/96/15
f 17/97/17 44/98/17 43/99/16 18/100/16
f 16/101/18 45/102/18 44/103/17 17/104/17
f 15/105/19 46/106/19 45/107/18 16/108/18
f 14/109/12 28/110/12 46/111/12 15/112/12
f 12/113/14 29/114/14 13/115/14 5/116/14
f 12/117/3 11/118/3 30/119/3 29/120/3
f 4/121/1 33/122/1 8/123/1 1/124/1
usemtl Asphalt.128
f 11/125/14 8/126/14 33/127/14 30/128/14
f 30/42/2 33/39/2 32/40/2 31/6/2
f 8/23/6 11/16/6 10/18/6 9/21/6
