# Blender v3.4.1 OBJ File: ''
# www.blender.org
mtllib roadTile_031.mtl
o roadTile_031
v 3.000000 0.000000 -0.000000
v 1.500000 0.000000 0.000000
v 0.000000 0.000000 -0.375000
v 0.000000 0.000000 -2.625000
v 1.500000 0.000000 -3.000000
v 3.000000 0.000000 -3.000000
v 1.500000 0.630000 0.000000
v 1.500000 0.550000 0.000000
v 3.000000 0.630000 0.000000
v 0.000000 0.630000 -0.375000
v 0.000000 0.550000 -0.375000
v 0.000000 0.630000 -0.750000
v 3.000000 0.630000 -0.750000
v 0.000000 0.600000 -0.750000
v 0.000000 0.300000 -0.750000
v 0.000000 0.300000 -2.250000
v 0.000000 0.600000 -2.250000
v 0.000000 0.630000 -2.250000
v 0.000000 0.630000 -2.625000
v 0.000000 0.550000 -2.625000
v 0.000000 0.000000 -0.000000
v 0.000000 0.550000 0.000000
v 3.000000 0.600000 -0.750000
v 3.000000 0.600000 -2.250000
v 3.000000 0.630000 -2.250000
v 3.000000 0.630000 -3.000000
v 3.000000 0.300000 -2.250000
v 3.000000 0.300000 -0.750000
v 1.500000 0.550000 -3.000000
v 1.500000 0.630000 -3.000000
v 0.000000 0.000000 -3.000000
v 0.000000 0.550000 -3.000000
vt 1.500000 0.000000
vt 3.000000 0.000000
vt 3.000000 0.750000
vt -2.625000 0.000000
vt -0.375000 0.000000
vt -2.250000 0.300000
vt -0.000000 0.000000
vt 3.000000 0.000000
vt 2.250000 0.300000
vt -1.500000 0.550000
vt -1.500000 0.630000
vt -3.000000 0.630000
vt 1.500000 3.000000
vt 0.000000 2.250000
vt 3.000000 2.250000
vt -2.250000 0.600000
vt -2.625000 0.550000
vt 3.000000 0.630000
vt 1.500000 0.630000
vt 1.500000 0.550000
vt -3.000000 0.000000
vt -1.500000 0.000000
vt 0.000000 0.750000
vt 0.000000 0.375000
vt -2.250000 0.630000
vt -2.625000 0.630000
vt 0.750000 0.600000
vt -0.000000 0.630000
vt 0.750000 0.300000
vt -0.375000 0.550000
vt -0.750000 0.600000
vt -0.750000 0.300000
vt -3.000000 0.630000
vt -3.000000 0.600000
vt -0.000000 0.600000
vt -0.000000 0.630000
vt 0.750000 0.630000
vt 2.250000 0.600000
vt 3.000000 0.630000
vt -0.000000 2.625000
vt -1.500000 3.000000
vt -1.500000 0.000000
vt -0.000000 0.375000
vt 2.250000 0.630000
vt -0.375000 0.630000
vt -0.750000 0.630000
vt 0.000000 0.630000
vt 0.000000 0.600000
vt 3.000000 0.600000
vt 3.000000 0.630000
vt 1.455210 0.550000
vt 1.455210 0.630000
vt -0.090951 0.630000
vt -0.090951 0.550000
vt 3.000000 3.000000
vt 0.000000 2.625000
vt -0.636656 0.550000
vt -0.636656 0.630000
vt -2.182820 0.630000
vt -2.182820 0.550000
vt 3.000000 0.000000
vt 1.500000 0.000000
vt -3.000000 3.000000
vt -3.000000 0.000000
vt -0.000000 0.000000
vt 0.000000 0.375000
vt 0.000000 0.000000
vt 1.500000 0.000000
vt -0.000000 3.000000
vt 0.000000 3.000000
vt 0.000000 2.625000
vt 1.500000 3.000000
vt -3.000000 0.550000
vt -3.000000 0.000000
vt -0.000000 0.550000
vt -0.000000 0.000000
vt -0.000000 0.550000
vt -3.580740 21.653500
vt -3.580740 0.000000
vt 57.291901 0.000000
vt 57.291901 21.653500
vt -85.937798 21.653500
vt -85.937798 0.000000
vt -25.065201 0.000000
vt -25.065201 21.653500
vt 3.000000 0.750000
vt 3.000000 2.250000
vt 0.000000 2.250000
vt 0.000000 0.750000
vn -0.0000 1.0000 0.0000
vn -1.0000 0.0000 0.0000
vn 1.0000 -0.0000 0.0000
vn -0.1222 -0.0000 -0.9925
vn 0.0000 0.0000 -1.0000
vn 0.0000 -0.0000 1.0000
vn -0.1222 -0.0000 0.9925
vn -0.0000 -1.0000 -0.0000
vn -0.2425 -0.0000 0.9701
vn -0.2425 0.0000 -0.9701
usemtl Stone.014
s 1
f 7/1/1 9/2/1 13/3/1
f 4/4/2 3/5/2 16/6/2
f 1/7/3 6/8/3 27/9/3
f 29/10/4 30/11/4 26/12/5
f 30/13/1 18/14/1 25/15/1
f 16/6/2 17/16/2 20/17/2 4/4/2
f 9/18/6 7/19/7 8/20/7
f 6/21/5 5/22/5 29/10/4 26/12/5
f 13/3/1 12/23/1 7/1/1
f 12/23/1 10/24/1 7/1/1
f 17/16/2 18/25/2 19/26/2 20/17/2
f 23/27/3 9/28/3 1/7/3 28/29/3
f 11/30/2 14/31/2 15/32/2 3/5/2
f 3/5/2 15/32/2 16/6/2
f 13/33/5 23/34/5 14/35/5 12/36/5
f 13/37/3 9/28/3 23/27/3
f 24/38/3 27/9/3 6/8/3 26/39/3
f 4/40/8 5/41/8 2/42/8 3/43/8
f 26/39/3 25/44/3 24/38/3
f 27/9/3 28/29/3 1/7/3
f 10/45/2 12/46/2 14/31/2 11/30/2
f 18/47/6 17/48/6 24/49/6 25/50/6
f 8/51/7 7/52/7 10/53/9 11/54/9
f 25/15/1 26/55/1 30/13/1
f 30/13/1 19/56/1 18/14/1
f 20/57/10 19/58/10 30/59/4 29/60/4
f 1/61/6 9/18/6 8/20/7 2/62/6
f 5/41/8 6/63/8 1/64/8 2/42/8
usemtl Grass.019
f 21/65/8 3/43/8 2/42/8
f 11/66/1 22/67/1 8/68/1
f 4/40/8 31/69/8 5/41/8
f 32/70/1 20/71/1 29/72/1
f 32/73/2 31/74/2 4/4/2 20/17/2
f 11/30/2 3/5/2 21/65/2 22/75/2
f 22/75/6 21/65/6 2/62/6 8/20/6
f 29/10/5 5/22/5 31/76/5 32/77/5
usemtl FrontColor.001
f 11/78/9 3/79/9 2/80/9 8/81/9
f 29/82/10 5/83/10 4/84/10 20/85/10
usemtl Asphalt.004
f 24/38/3 23/27/3 28/29/3 27/9/3
f 14/31/2 17/16/2 16/6/2 15/32/2
f 23/86/1 24/87/1 17/88/1 14/89/1
