# Blender v3.4.1 OBJ File: ''
# www.blender.org
mtllib roadTile_124.mtl
o roadTile_124
v 3.000000 0.000000 -3.000000
v 3.000000 0.000000 0.000000
v 0.000000 0.000000 -0.000000
v 0.000000 0.000000 -2.625000
v 0.375000 0.000000 -2.625000
v 0.375000 0.000000 -3.000000
v 3.000000 0.300000 -3.000000
v 3.000000 0.300000 0.000000
v 0.375000 1.730000 -3.000000
v 0.750000 1.730000 -3.000000
v 0.750000 0.600001 -3.000000
v 0.750000 0.300000 -3.000000
v 0.375000 1.730000 -2.625000
v 0.000000 1.730000 -2.250000
v 0.750000 1.730000 -2.250000
v 0.000000 1.730000 -2.625000
v 0.000000 0.600000 -2.250000
v 0.750000 0.600000 -2.250000
v 3.000000 0.600001 -3.000000
v 0.000000 0.600000 0.000000
v 3.000000 0.600000 0.000000
v 0.000000 0.300000 0.000000
v 0.000000 0.300000 -2.250000
vt 0.000000 0.000000
vt -0.000000 2.625000
vt -0.375000 2.625000
vt -0.750000 0.600000
vt -0.750000 0.300000
vt -0.375000 0.000000
vt 0.750000 3.000000
vt 0.375000 3.000000
vt 0.375000 2.625000
vt -2.250000 0.300000
vt -2.250000 0.600000
vt -2.625000 0.000000
vt -0.375000 3.000000
vt -3.000000 3.000000
vt -2.625000 0.000000
vt -2.625000 1.730000
vt -3.000000 1.730000
vt -3.000000 0.000000
vt -3.000000 0.300000
vt -3.000000 0.000000
vt -0.375000 1.730000
vt -0.750000 1.730000
vt -0.000000 1.730000
vt -0.000000 0.600000
vt 0.750000 0.600000
vt 0.750000 1.730000
vt 0.000000 2.625000
vt 0.000000 2.250000
vt 0.750000 2.250000
vt 3.000000 0.000000
vt 3.000000 0.300000
vt 0.000000 0.300000
vt -3.000000 -0.000000
vt 2.250000 1.730000
vt 2.250000 0.600000
vt 3.000000 0.600000
vt 3.000000 1.730000
vt -2.250000 1.730000
vt -2.625000 1.730000
vt 0.000000 0.000000
vt 3.000000 0.000000
vt 3.000000 0.300000
vt 0.000000 0.300000
vt 0.000000 0.000000
vt 0.000000 1.730000
vt -0.375000 1.730000
vt -0.375000 0.000000
vt 0.750000 2.250000
vt 0.000000 0.000000
vt 3.000000 0.000000
vt 3.000000 3.000000
vt -0.000000 0.600000
vt 0.750000 3.000000
vt 0.000000 2.250000
vt 3.000000 0.600000
vt 3.000000 0.600000
vt 0.000000 0.600000
vt -3.000000 0.600000
vn -0.0000 -1.0000 -0.0000
vn 0.0000 0.0000 -1.0000
vn 0.0000 1.0000 0.0000
vn -1.0000 0.0000 -0.0000
vn 0.0000 -0.0000 1.0000
vn 1.0000 0.0000 0.0000
usemtl Stone.104
s 1
f 3/1/1 4/2/1 5/3/1
f 11/4/2 12/5/2 6/6/2
f 10/7/3 9/8/3 13/9/3
f 23/10/4 17/11/4 4/12/4
f 6/13/1 1/14/1 5/3/1
f 5/15/4 13/16/4 9/17/4 6/18/4
f 7/19/2 1/20/2 12/5/2
f 1/20/2 6/6/2 12/5/2
f 6/6/2 9/21/2 11/4/2
f 9/21/2 10/22/2 11/4/2
f 14/23/5 17/24/5 18/25/5 15/26/5
f 16/27/3 14/28/3 13/9/3
f 14/28/3 15/29/3 13/9/3
f 15/29/3 10/7/3 13/9/3
f 2/30/5 8/31/5 22/32/5 3/1/5
f 2/33/1 3/1/1 5/3/1 1/14/1
f 15/34/6 18/35/6 11/36/6 10/37/6
f 14/38/4 16/39/4 17/11/4
f 16/39/4 4/12/4 17/11/4
f 4/12/4 3/1/4 23/10/4
f 3/1/4 22/32/4 23/10/4
f 2/40/6 1/41/6 7/42/6 8/43/6
f 4/44/2 16/45/2 13/46/2 5/47/2
usemtl Asphalt.078
f 18/48/3 20/49/3 21/50/3 19/51/3
f 22/32/4 20/52/4 17/11/4 23/10/4
f 19/51/3 11/53/3 18/48/3
f 18/48/3 17/54/3 20/49/3
f 21/55/5 20/52/5 22/32/5 8/31/5
f 19/56/6 21/57/6 8/43/6 7/42/6
f 19/58/2 7/19/2 12/5/2 11/4/2
