# Blender v3.4.1 OBJ File: ''
# www.blender.org
mtllib roadTile_061.mtl
o roadTile_061
v 3.000000 0.600000 -0.750000
v 0.750000 0.600000 -0.750000
v 0.750000 0.630000 -0.750000
v 3.000000 0.630000 -0.750000
v 3.000000 0.600001 -3.000000
v 0.750000 0.600001 -3.000000
v 3.000000 0.300000 -3.000000
v 0.750000 0.300000 -3.000000
v 3.000000 0.300000 -0.750000
v 3.000000 0.630000 0.000000
v 3.000000 0.000000 0.000000
v 3.000000 0.000000 -3.000000
v 0.750000 0.630000 -3.000000
v 0.000000 0.630000 -3.000000
v 0.000000 0.630000 0.000000
v 0.000000 0.000000 -3.000000
v 0.000000 0.000000 -0.000000
vt 0.750000 0.750000
vt 0.000000 3.000000
vt -0.000000 0.000000
vt -0.000000 3.000000
vt -3.000000 3.000000
vt -3.000000 -0.000000
vt -0.000000 0.000000
vt 3.000000 0.000000
vt 3.000000 0.300000
vt 0.750000 0.300000
vt 0.750000 0.600000
vt 0.750000 0.630000
vt 0.000000 0.630000
vt 0.000000 0.000000
vt -0.750000 0.600000
vt -0.750000 0.300000
vt 0.000000 -0.000000
vt 0.000000 0.630000
vt 0.750000 3.000000
vt 3.000000 -0.000000
vt 3.000000 0.750000
vt -3.000000 0.300000
vt -3.000000 0.000000
vt -0.750000 0.630000
vt -0.000000 0.630000
vt -3.000000 0.630000
vt -3.000000 0.000000
vt 3.000000 0.630000
vt 3.000000 0.000000
vt -3.000000 0.630000
vt -3.000000 0.600000
vt -0.750000 0.600000
vt -0.750000 0.630000
vt 3.000000 0.630000
vt 0.750000 0.630000
vt 0.750000 0.600000
vt 3.000000 0.600000
vt 3.000000 0.750000
vt 3.000000 3.000000
vt 0.750000 3.000000
vt 0.750000 0.750000
vt -3.000000 0.600000
vt 3.000000 0.600000
vn 0.0000 1.0000 0.0000
vn -0.0000 -1.0000 -0.0000
vn 1.0000 0.0000 0.0000
vn 0.0000 0.0000 -1.0000
vn -1.0000 0.0000 -0.0000
vn -0.0000 -0.0000 1.0000
usemtl Stone.041
s 1
f 3/1/1 14/2/1 15/3/1
f 16/4/2 12/5/2 11/6/2 17/7/2
f 12/8/3 7/9/3 9/10/3
f 1/11/3 4/12/3 10/13/3
f 11/14/3 12/8/3 9/10/3
f 6/15/4 8/16/4 16/17/4 14/18/4
f 3/1/1 13/19/1 14/2/1
f 15/3/1 10/20/1 3/1/1
f 10/20/1 4/21/1 3/1/1
f 7/22/4 12/23/4 8/16/4
f 12/23/4 16/17/4 8/16/4
f 14/18/4 13/24/4 6/15/4
f 17/7/5 15/25/5 14/26/5 16/27/5
f 10/13/3 11/14/3 9/10/3 1/11/3
f 10/28/6 15/25/6 17/7/6 11/29/6
f 4/30/4 1/31/4 2/32/4 3/33/4
f 13/34/3 3/35/3 2/36/3 6/37/3
usemtl Asphalt.030
f 1/38/1 5/39/1 6/40/1 2/41/1
f 6/15/4 5/42/4 7/22/4 8/16/4
f 5/43/3 1/11/3 9/10/3 7/9/3
