# Blender v3.4.1 OBJ File: ''
# www.blender.org
mtllib roadTile_263.mtl
o roadTile_263
v 3.000000 0.000000 -0.750000
v 3.000000 0.000000 -2.250000
v 3.000000 1.650000 -2.250000
v 3.000000 1.650000 -0.750000
v 3.000000 0.000000 -0.000000
v 0.000000 0.000000 0.000000
v 0.000000 0.000000 -3.000000
v 3.000000 0.000000 -3.000000
v 3.000000 0.000000 -2.625000
v 3.000000 0.000000 -0.375000
v 0.000000 1.650000 0.000000
v 3.000000 1.650000 0.000000
v 0.000000 1.650000 -3.000000
v 3.000000 1.650000 -0.375000
v 3.000000 1.650000 -2.625000
v 3.000000 1.650000 -3.000000
vt 0.750000 1.650000
vt 0.750000 0.000000
vt 2.250000 0.000000
vt 2.250000 1.650000
vt -3.000000 0.750000
vt -3.000000 0.375000
vt -0.000000 -0.000000
vt 0.000000 -0.000000
vt 3.000000 0.375000
vt 3.000000 0.750000
vt 3.000000 0.000000
vt 3.000000 1.650000
vt 2.625000 1.650000
vt 2.625000 0.000000
vt -3.000000 0.000000
vt 3.000000 2.250000
vt 0.000000 3.000000
vt 0.000000 3.000000
vt -3.000000 3.000000
vt -3.000000 2.625000
vt -3.000000 2.250000
vt -3.000000 1.650000
vt -3.000000 0.000000
vt 0.000000 1.650000
vt 0.000000 1.650000
vt 0.000000 0.000000
vt 0.375000 0.000000
vt 0.375000 1.650000
vt 3.000000 3.000000
vt 3.000000 2.625000
vt 3.000000 0.000000
vt 3.000000 1.650000
vt 3.000000 0.000000
vt -0.000000 1.650000
vt -3.000000 1.650000
vt -3.000000 0.000000
vt -0.000000 0.000000
vn 1.0000 0.0000 0.0000
vn 0.0000 -1.0000 -0.0000
vn -0.0000 1.0000 0.0000
vn -1.0000 -0.0000 0.0000
vn 0.0000 -0.0000 1.0000
vn 0.0000 0.0000 -1.0000
usemtl Water.043
s 1
f 4/1/1 1/2/1 2/3/1 3/4/1
usemtl Grass.120
f 1/5/2 10/6/2 6/7/2
f 11/8/3 14/9/3 4/10/3
f 8/11/1 16/12/1 15/13/1 9/14/1
f 10/6/2 5/15/2 6/7/2
f 4/10/3 3/16/3 13/17/3 11/8/3
f 7/18/2 8/19/2 9/20/2
f 9/20/2 2/21/2 7/18/2
f 13/22/4 7/23/4 6/7/4 11/24/4
f 12/25/1 5/26/1 10/27/1 14/28/1
f 16/29/3 13/17/3 15/30/3
f 15/30/3 13/17/3 3/16/3
f 11/8/3 12/31/3 14/9/3
f 2/21/2 1/5/2 6/7/2 7/18/2
f 12/32/5 11/24/5 6/7/5 5/33/5
f 13/34/6 16/35/6 8/36/6 7/37/6
usemtl Stone.219
f 3/4/1 2/3/1 9/14/1 15/13/1
f 1/2/1 4/1/1 14/28/1 10/27/1
