# Blender v3.4.1 OBJ File: ''
# www.blender.org
mtllib roadTile_128.mtl
o roadTile_128
v 2.315140 0.630000 -0.892522
v 2.437500 0.630000 -0.974279
v 2.437500 0.600000 -0.974279
v 2.315140 0.600000 -0.892522
v 2.107480 0.630000 -0.684857
v 2.025720 0.630000 -0.562500
v 1.960640 0.630000 -0.430519
v 1.913330 0.630000 -0.291171
v 1.884620 0.630000 -0.146842
v 1.875000 0.630000 0.000000
v 2.437500 0.630000 0.000000
v 2.442310 0.630000 -0.073421
v 2.456670 0.630000 -0.145586
v 2.480320 0.630000 -0.215259
v 2.512860 0.630000 -0.281250
v 2.553740 0.630000 -0.342428
v 2.602250 0.630000 -0.397748
v 2.657570 0.630000 -0.446261
v 2.718750 0.630000 -0.487139
v 2.784740 0.630000 -0.519682
v 2.854410 0.630000 -0.543333
v 2.926580 0.630000 -0.557688
v 3.000000 0.630000 -0.562500
v 3.000000 0.630000 -1.125000
v 2.853160 0.630000 -1.115380
v 2.708830 0.630000 -1.086670
v 2.569480 0.630000 -1.039360
v 2.204500 0.630000 -0.795495
v 2.107480 0.600000 -0.684857
v 2.025720 0.600000 -0.562500
v 2.204500 0.600000 -0.795495
v 3.000000 0.600000 -1.125000
v 3.000000 0.600000 -1.875000
v 0.000000 0.600000 -1.875000
v 0.000000 0.600000 -1.125000
v 1.501490 0.600000 -1.125000
v 1.376200 0.600000 -0.937500
v 1.267730 0.600000 -0.717531
v 1.188890 0.600000 -0.485286
v 1.141040 0.600000 -0.244737
v 1.125000 0.600000 0.000000
v 1.875000 0.600000 0.000000
v 1.884620 0.600000 -0.146842
v 1.913330 0.600000 -0.291171
v 1.960640 0.600000 -0.430519
v 2.569480 0.600000 -1.039360
v 2.708830 0.600000 -1.086670
v 2.853160 0.600000 -1.115380
v 3.000000 0.300000 -1.125000
v 3.000000 0.300000 -1.875000
v 3.000000 0.000000 -0.562500
v 3.000000 0.000000 -2.437500
v 3.000000 0.630000 -2.437500
v 3.000000 0.630000 -1.875000
v 2.926580 0.000000 -0.557688
v 2.854410 0.000000 -0.543333
v 2.784740 0.000000 -0.519682
v 2.718750 0.000000 -0.487139
v 2.657570 0.000000 -0.446261
v 2.602250 0.000000 -0.397748
v 2.553740 0.000000 -0.342428
v 2.512860 0.000000 -0.281250
v 2.480320 0.000000 -0.215259
v 2.456670 0.000000 -0.145586
v 2.442310 0.000000 -0.073421
v 2.437500 0.000000 0.000000
v 0.562500 0.000000 0.000000
v 0.583353 0.000000 -0.318158
v 0.631956 0.000000 -0.562500
v 0.000000 0.000000 -0.562500
v 0.000000 0.000000 -2.437500
v 0.562500 0.630000 0.000000
v 1.875000 0.300000 0.000000
v 1.125000 0.300000 0.000000
v 1.125000 0.630000 0.000000
v 0.583353 0.630000 -0.318158
v 0.000000 0.630000 -0.562500
v 0.631956 0.630000 -0.562500
v 1.141040 0.630000 -0.244737
v 1.188890 0.630000 -0.485286
v 1.215100 0.630000 -0.562500
v 1.267730 0.630000 -0.717531
v 1.376200 0.630000 -0.937500
v 1.501490 0.630000 -1.125000
v 0.000000 0.630000 -1.125000
v 0.000000 0.630000 -2.437500
v 0.000000 0.300000 -1.125000
v 0.000000 0.300000 -1.875000
v 0.000000 0.630000 -1.875000
vt 0.562500 0.000000
vt 2.437500 0.000000
vt 1.125000 0.300000
vt -2.657570 0.446261
vt -2.602250 0.397748
vt -0.631956 0.562500
vt 0.562500 0.000000
vt 2.437500 0.000000
vt 1.875000 0.300000
vt 0.631956 0.562500
vt 1.267730 0.717531
vt 1.376200 0.937500
vt -1.875000 0.300000
vt -2.437500 0.000000
vt -0.562500 0.000000
vt 1.086950 0.600000
vt 0.923229 0.630000
vt 0.841688 0.600000
vt 1.449500 0.600000
vt 1.449500 0.630000
vt 1.204240 0.630000
vt 1.204240 0.600000
vt 2.784740 0.519682
vt 2.569480 1.039360
vt 2.437500 0.974279
vt 2.718750 0.487139
vt 1.913330 0.291171
vt 2.456670 0.145586
vt 2.480320 0.215259
vt 1.960640 0.430519
vt 2.854410 0.543333
vt 2.708830 1.086670
vt 2.512860 0.281250
vt 2.025720 0.562500
vt 0.562500 0.000000
vt 1.125000 0.000000
vt 1.141040 0.244737
vt 0.583353 0.318158
vt 2.657570 0.446261
vt 2.315140 0.892522
vt 2.442310 0.073421
vt 1.884620 0.146842
vt 2.553740 0.342428
vt 2.107480 0.684857
vt 2.602250 0.397748
vt 2.204500 0.795495
vt -3.000000 2.437500
vt 0.000000 2.437500
vt 1.875000 0.000000
vt 2.437500 0.000000
vt -1.904460 0.600000
vt -1.904460 0.630000
vt -2.051620 0.630000
vt -2.051620 0.600000
vt -2.868780 0.600000
vt -2.868780 0.630000
vt -3.015930 0.630000
vt -3.015930 0.600000
vt -1.593130 0.600000
vt -1.593130 0.630000
vt -1.740290 0.630000
vt -1.740290 0.600000
vt 1.188890 0.485286
vt -2.442310 0.073421
vt -2.437500 0.000000
vt -0.562500 0.000000
vt -0.583353 0.318158
vt 3.000000 1.125000
vt 2.853160 1.115380
vt 2.926580 0.557688
vt 3.000000 0.562500
vt -2.767210 0.600000
vt -2.767210 0.630000
vt -2.914370 0.630000
vt -2.914370 0.600000
vt 1.875000 0.600000
vt 2.437500 0.630000
vt 2.437500 0.630000
vt 1.875000 0.630000
vt 1.875000 0.600000
vt 1.125000 0.630000
vt 0.562500 0.630000
vt 1.125000 0.600000
vt 1.875000 0.300000
vt -1.875000 0.600000
vt -2.437500 0.630000
vt -3.000000 0.562500
vt -2.926580 0.557688
vt -2.854410 0.543333
vt 0.000000 0.562500
vt -2.480320 0.215259
vt -2.456670 0.145586
vt -2.784740 0.519682
vt -2.718750 0.487139
vt -2.512860 0.281250
vt -2.553740 0.342428
vt -2.617040 0.600000
vt -2.617040 0.630000
vt -2.764200 0.630000
vt -2.764200 0.600000
vt 3.030370 0.000000
vt 3.030370 0.630000
vt 2.956790 0.630000
vt 2.956790 -0.000000
vt 2.979150 0.000000
vt 2.979150 0.630000
vt 2.905570 0.630000
vt 2.905570 0.000000
vt 2.877580 0.000000
vt 2.877580 0.630000
vt 2.804000 0.630000
vt 2.804000 0.000000
vt 2.727410 0.000000
vt 2.727410 0.630000
vt 2.653830 0.630000
vt 2.653830 0.000000
vt 2.531200 0.000000
vt 2.531200 0.630000
vt 2.457620 0.630000
vt 2.457620 0.000000
vt 2.292310 0.000000
vt 2.292310 0.630000
vt 2.218730 0.630000
vt 2.218730 0.000000
vt 2.014830 0.000000
vt 2.014830 0.630000
vt 1.941250 0.630000
vt 1.941250 0.000000
vt 1.703500 -0.000000
vt 1.703500 0.630000
vt 1.629920 0.630000
vt 1.629920 -0.000000
vt 1.363660 -0.000000
vt 1.363660 0.630000
vt 1.290080 0.630000
vt 1.290080 -0.000000
vt 1.001110 -0.000000
vt 1.001110 0.630000
vt 0.927529 0.630000
vt 0.927529 -0.000000
vt 0.622060 -0.000000
vt 0.622060 0.630000
vt 0.548482 0.630000
vt 0.548482 -0.000000
vt 1.125000 0.630000
vt 0.562500 0.630000
vt 1.125000 0.600000
vt -1.125000 0.600000
vt -1.125000 0.300000
vt -0.562500 0.630000
vt 1.875000 0.630000
vt 1.125000 0.300000
vt 0.232999 -0.000000
vt 0.232999 0.630000
vt 0.159420 0.630000
vt 0.159420 0.000000
vt 0.000000 1.125000
vt 0.000000 0.562500
vt 1.501490 1.125000
vt 1.215100 0.562500
vt -0.036789 0.000000
vt -0.036789 0.630000
vt -0.355630 0.630000
vt -0.355630 0.000000
vt -1.875000 0.630000
vt -1.125000 0.630000
vt 0.631956 0.000000
vt 0.631956 0.630000
vt 0.000000 0.630000
vt 0.000000 0.000000
vt 0.000000 0.000000
vt 0.000000 0.630000
vt -3.000000 0.630000
vt -3.000000 0.000000
vt 0.000000 1.875000
vt 3.000000 1.875000
vt 3.000000 2.437500
vt 0.000000 2.437500
vt 3.000000 0.600000
vt 3.000000 0.630000
vt 0.000000 0.630000
vt 0.000000 0.600000
vt 0.000000 0.600000
vt 0.000000 0.630000
vt -1.501490 0.630000
vt -1.501490 0.600000
vt 1.544080 0.630000
vt 1.544080 0.600000
vt 1.769580 0.600000
vt 1.769580 0.630000
vt 1.086950 0.630000
vt 0.841688 0.630000
vt -2.420830 0.600000
vt -2.420830 0.630000
vt -2.567990 0.630000
vt -2.567990 0.600000
vt 0.707902 0.600000
vt 0.707902 0.630000
vt 0.462640 0.630000
vt 0.462640 0.600000
vt 0.318840 0.600000
vt 0.318840 0.630000
vt 0.073578 0.630000
vt 0.073578 0.600000
vt -0.425851 0.000000
vt -0.425851 0.630000
vt -0.674980 0.630000
vt -0.674980 0.000000
vt -0.122631 0.600000
vt -0.122631 0.630000
vt -0.269788 0.630000
vt -0.269788 0.600000
vt -0.511692 0.600000
vt -0.511692 0.630000
vt -0.658849 0.630000
vt -0.658849 0.600000
vt -0.890740 0.600000
vt -0.890740 0.630000
vt -1.037900 0.630000
vt -1.037900 0.600000
vt -1.253290 0.600000
vt -1.253290 0.630000
vt -1.400440 0.630000
vt -1.400440 0.600000
vt -2.920000 0.600000
vt -2.920000 0.630000
vt -3.067160 0.630000
vt -3.067160 0.600000
vt -2.181940 0.600000
vt -2.181940 0.630000
vt -2.329100 0.630000
vt -2.329100 0.600000
vt 1.913330 0.291171
vt 1.960640 0.430519
vt 1.267730 0.717531
vt 1.188890 0.485286
vt 2.853160 1.115380
vt 3.000000 1.125000
vt 3.000000 1.875000
vt -0.000000 1.875000
vt 1.501490 1.125000
vt -0.000000 1.125000
vt 2.708830 1.086670
vt 2.569480 1.039360
vt 2.437500 0.974279
vt 2.315140 0.892522
vt 2.204500 0.795495
vt 1.125000 0.000000
vt 1.875000 0.000000
vt 1.884620 0.146842
vt 1.141040 0.244737
vt 2.107480 0.684857
vt 2.025720 0.562500
vt 1.376200 0.937500
vn 1.0000 0.0000 0.0000
vn -0.0000 -1.0000 -0.0000
vn 0.0000 -0.0000 1.0000
vn 0.0000 1.0000 0.0000
vn -1.0000 0.0000 0.0000
vn 0.9239 0.0000 0.3827
vn 0.9469 0.0000 0.3214
vn 0.9659 0.0000 0.2588
vn 0.8660 0.0000 0.5000
vn -0.7934 0.0000 -0.6088
vn -0.7071 0.0000 -0.7071
vn -0.2588 0.0000 -0.9659
vn -0.1305 0.0000 -0.9914
vn -0.8660 0.0000 -0.5000
vn -0.3827 0.0000 -0.9239
vn -0.5000 0.0000 -0.8660
vn 0.0654 -0.0000 0.9979
vn 0.1305 -0.0000 0.9914
vn 0.2588 -0.0000 0.9659
vn 0.3827 -0.0000 0.9239
vn 0.5000 -0.0000 0.8660
vn 0.6088 -0.0000 0.7934
vn 0.7071 -0.0000 0.7071
vn 0.7934 -0.0000 0.6088
vn 0.9914 -0.0000 0.1305
vn 0.9979 -0.0000 0.0654
vn -0.9979 -0.0000 -0.0654
vn -0.9914 -0.0000 -0.1305
vn 0.0000 0.0000 -1.0000
vn 0.8315 0.0000 0.5556
vn -0.6088 0.0000 -0.7934
vn -0.9808 0.0000 -0.1951
vn -0.9659 0.0000 -0.2588
vn -0.9239 0.0000 -0.3827
vn -0.0654 0.0000 -0.9979
usemtl Stone.108
s 1
f 51/1/1 52/2/1 49/3/1
f 59/4/2 60/5/2 69/6/2
f 67/7/3 66/8/3 73/9/3
f 78/10/4 82/11/4 83/12/4
f 88/13/5 71/14/5 70/15/5
f 38/16/6 81/17/7 39/18/8
f 37/19/9 83/20/9 82/21/6 38/22/6
f 20/23/4 27/24/4 2/25/4 19/26/4
f 8/27/4 13/28/4 14/29/4 7/30/4
f 20/23/4 21/31/4 26/32/4 27/24/4
f 7/30/4 14/29/4 15/33/4 6/34/4
f 72/35/4 75/36/4 79/37/4 76/38/4
f 18/39/4 19/26/4 2/25/4 1/40/4
f 12/41/4 13/28/4 8/27/4 9/42/4
f 15/33/4 16/43/4 5/44/4 6/34/4
f 17/45/4 28/46/4 5/44/4 16/43/4
f 52/47/2 59/4/2 69/6/2 71/48/2
f 10/49/4 11/50/4 12/41/4 9/42/4
f 29/51/10 5/52/10 28/53/11 31/54/11
f 47/55/12 26/56/12 25/57/13 48/58/13
f 30/59/14 6/60/14 5/61/10 29/62/10
f 79/37/4 80/63/4 78/10/4 76/38/4
f 65/64/2 66/65/2 67/66/2 68/67/2
f 24/68/4 25/69/4 22/70/4 23/71/4
f 18/39/4 1/40/4 28/46/4 17/45/4
f 46/72/15 27/73/15 26/74/12 47/75/12
f 42/76/3 73/9/3 66/8/3 11/77/3
f 53/78/1 54/79/1 33/80/1
f 24/81/1 23/82/1 32/83/1
f 33/80/1 50/84/1 52/2/1 53/78/1
f 52/2/1 50/84/1 49/3/1
f 34/85/5 86/86/5 71/14/5 88/13/5
f 52/47/2 51/87/2 55/88/2
f 52/47/2 55/88/2 56/89/2
f 69/6/2 70/90/2 71/48/2
f 63/91/2 64/92/2 69/6/2
f 52/47/2 56/89/2 57/93/2
f 52/47/2 57/93/2 58/94/2
f 62/95/2 63/91/2 69/6/2
f 61/96/2 62/95/2 69/6/2
f 52/47/2 58/94/2 59/4/2
f 60/5/2 61/96/2 69/6/2
f 3/97/16 2/98/16 27/99/15 46/100/15
f 51/101/17 23/102/17 22/103/18 55/104/18
f 55/105/18 22/106/18 21/107/19 56/108/19
f 56/109/19 21/110/19 20/111/20 57/112/20
f 57/113/20 20/114/20 19/115/21 58/116/21
f 58/117/21 19/118/21 18/119/22 59/120/22
f 59/121/22 18/122/22 17/123/23 60/124/23
f 60/125/23 17/126/23 16/127/24 61/128/24
f 61/129/24 16/130/24 15/131/9 62/132/9
f 62/133/9 15/134/9 14/135/6 63/136/6
f 63/137/6 14/138/6 13/139/8 64/140/8
f 64/141/8 13/142/8 12/143/25 65/144/25
f 75/145/3 72/146/3 41/147/3
f 35/148/5 87/149/5 70/15/5 77/150/5
f 11/77/3 10/151/3 42/76/3
f 73/9/3 74/152/3 67/7/3
f 65/153/25 12/154/25 11/155/26 66/156/26
f 85/157/4 77/158/4 78/10/4
f 21/31/4 22/70/4 25/69/4 26/32/4
f 84/159/4 85/157/4 83/12/4
f 85/157/4 78/10/4 83/12/4
f 78/10/4 80/63/4 81/160/4
f 78/10/4 81/160/4 82/11/4
f 67/161/27 72/162/27 76/163/28 68/164/28
f 89/165/5 86/86/5 34/85/5
f 32/83/1 23/82/1 51/1/1 49/3/1
f 41/147/3 72/146/3 67/7/3 74/152/3
f 77/150/5 85/166/5 35/148/5
f 87/149/5 88/13/5 70/15/5
f 69/167/3 78/168/3 77/169/3 70/170/3
f 71/171/29 86/172/29 53/173/29 52/174/29
f 89/175/4 54/176/4 53/177/4 86/178/4
f 33/179/3 54/180/3 89/181/3 34/182/3
f 35/183/29 85/184/29 84/185/29 36/186/29
f 83/187/9 37/188/9 36/189/30 84/190/30
f 82/191/6 81/17/7 38/16/6
f 81/17/7 80/192/8 39/18/8
f 4/193/31 1/194/31 2/195/16 3/196/16
f 39/197/8 80/198/8 79/199/25 40/200/25
f 40/201/25 79/202/25 75/203/26 41/204/26
f 68/205/28 76/206/28 78/207/32 69/208/32
f 42/209/27 10/210/27 9/211/28 43/212/28
f 43/213/28 9/214/28 8/215/33 44/216/33
f 44/217/33 8/218/33 7/219/34 45/220/34
f 45/221/34 7/222/34 6/223/14 30/224/14
f 69/6/2 64/92/2 65/64/2 68/67/2
f 48/225/13 25/226/13 24/227/35 32/228/35
f 31/229/11 28/230/11 1/231/31 4/232/31
usemtl Asphalt.082
f 44/233/4 45/234/4 38/235/4 39/236/4
f 48/237/4 32/238/4 33/239/4
f 33/239/4 34/240/4 36/241/4
f 34/240/4 35/242/4 36/241/4
f 47/243/4 48/237/4 33/239/4
f 46/244/4 47/243/4 33/239/4
f 33/239/4 36/241/4 3/245/4
f 4/246/4 36/241/4 31/247/4
f 41/248/4 42/249/4 43/250/4 40/251/4
f 36/241/4 4/246/4 3/245/4
f 3/245/4 46/244/4 33/239/4
f 31/247/4 36/241/4 29/252/4
f 40/251/4 43/250/4 44/233/4 39/236/4
f 30/253/4 29/252/4 36/241/4 37/254/4
f 45/234/4 30/253/4 37/254/4 38/235/4
f 35/148/5 34/85/5 88/13/5 87/149/5
f 42/76/3 41/147/3 74/152/3 73/9/3
f 33/80/1 32/83/1 49/3/1 50/84/1
