# Blender v3.4.1 OBJ File: ''
# www.blender.org
mtllib roadTile_215.mtl
o roadTile_215
v 0.000000 0.550000 0.000000
v 0.000000 0.000000 0.000000
v 3.000000 0.000000 -0.000000
v 3.000000 0.550000 0.000000
v 0.000000 0.550000 -0.375000
v 0.000000 0.000000 -0.375000
v 3.000000 0.550000 -0.375000
v 3.000000 0.000000 -0.375000
v 0.000000 0.000000 -0.750000
v 0.000000 0.000000 -2.250000
v 0.000000 0.000000 -2.625000
v 0.000000 0.000000 -3.000000
v 3.000000 0.000000 -3.000000
v 3.000000 0.000000 -2.625000
v 3.000000 0.000000 -2.250000
v 3.000000 0.000000 -0.750000
v 0.000000 0.630000 -0.375000
v 0.000000 0.630000 -0.750000
v 0.000000 0.455000 -0.750000
v 3.000000 0.630000 -0.375000
v 3.000000 0.455000 -0.750000
v 3.000000 0.630000 -0.750000
v 3.000000 0.455000 -2.250000
v 3.000000 0.550000 -2.625000
v 3.000000 0.630000 -2.625000
v 3.000000 0.630000 -2.250000
v 3.000000 0.550000 -3.000000
v 0.000000 0.550000 -3.000000
v 0.000000 0.550000 -2.625000
v 0.000000 0.630000 -2.625000
v 0.000000 0.455000 -2.250000
v 0.000000 0.630000 -2.250000
vt 0.000000 0.000000
vt 0.000000 0.550000
vt -0.375000 0.550000
vt -0.375000 0.000000
vt 0.000000 -0.000000
vt 3.000000 0.000000
vt 3.000000 0.375000
vt 0.000000 0.375000
vt 0.000000 0.550000
vt 0.000000 0.000000
vt 0.375000 0.000000
vt 0.375000 0.550000
vt -0.000000 0.375000
vt -3.000000 0.375000
vt -3.000000 0.000000
vt -3.000000 0.750000
vt -0.000000 0.750000
vt -0.000000 2.250000
vt -0.000000 2.625000
vt -3.000000 2.625000
vt -3.000000 2.250000
vt 3.000000 3.000000
vt -0.000000 3.000000
vt 0.000000 2.625000
vt 3.000000 2.625000
vt 3.000000 0.000000
vt 3.000000 0.550000
vt 2.625000 0.550000
vt 2.625000 0.000000
vt -3.000000 0.550000
vt -3.000000 0.000000
vt -2.625000 0.000000
vt -2.625000 0.550000
vt -0.000000 3.000000
vt -3.000000 3.000000
vt 3.000000 0.550000
vt 3.000000 0.000000
vt -0.000000 0.550000
vt -3.000000 0.550000
vt -3.000000 0.000000
vt -0.000000 0.000000
vt -3.000000 0.455000
vt -0.000000 0.455000
vt -0.000000 0.630000
vt -3.000000 0.630000
vt 2.250000 0.455000
vt 2.250000 0.000000
vt 2.250000 0.630000
vt 2.625000 0.630000
vt -0.750000 0.630000
vt -0.750000 0.455000
vt -0.375000 0.630000
vt -0.750000 0.000000
vt -3.000000 0.630000
vt -3.000000 0.550000
vt -0.000000 0.550000
vt -0.000000 0.630000
vt -2.250000 0.000000
vt -2.250000 0.455000
vt 0.750000 0.000000
vt 0.750000 0.455000
vt -2.250000 0.630000
vt -2.625000 0.630000
vt 0.750000 0.630000
vt 0.375000 0.630000
vt 0.000000 0.630000
vt 0.000000 0.550000
vt 3.000000 0.550000
vt 3.000000 0.630000
vt 0.000000 0.455000
vt 3.000000 0.455000
vt 3.000000 0.630000
vt 0.000000 0.630000
vt 0.000000 2.250000
vt 3.000000 2.250000
vt 3.000000 2.625000
vt 0.000000 2.625000
vt 3.000000 0.750000
vt 0.000000 0.750000
vt 0.000000 0.375000
vt 3.000000 0.375000
vt 3.000000 2.250000
vt 0.000000 2.250000
vt 0.000000 0.750000
vt 3.000000 0.750000
vn -1.0000 -0.0000 0.0000
vn 0.0000 1.0000 0.0000
vn 1.0000 -0.0000 0.0000
vn 0.0000 -1.0000 -0.0000
vn 0.0000 -0.0000 1.0000
vn 0.0000 0.0000 -1.0000
usemtl Grass.107
s 1
f 2/1/1 1/2/1 5/3/1 6/4/1
f 1/5/2 4/6/2 7/7/2 5/8/2
f 4/9/3 3/10/3 8/11/3 7/12/3
f 2/1/4 6/13/4 8/14/4 3/15/4
f 16/16/4 8/14/4 6/13/4 9/17/4
f 10/18/4 11/19/4 14/20/4 15/21/4
f 16/16/4 9/17/4 10/18/4 15/21/4
f 27/22/2 28/23/2 29/24/2 24/25/2
f 13/26/3 27/27/3 24/28/3 14/29/3
f 28/30/1 12/31/1 11/32/1 29/33/1
f 11/19/4 12/34/4 13/35/4 14/20/4
f 4/36/5 1/2/5 2/1/5 3/37/5
f 28/38/6 27/39/6 13/40/6 12/41/6
usemtl Stone.171
f 21/42/6 19/43/6 18/44/6 22/45/6
f 14/29/3 24/28/3 23/46/3 15/47/3
f 26/48/3 23/46/3 24/28/3 25/49/3
f 18/50/1 19/51/1 5/3/1 17/52/1
f 6/4/1 5/3/1 19/51/1 9/53/1
f 25/54/6 24/55/6 29/56/6 30/57/6
f 11/32/1 10/58/1 31/59/1 29/33/1
f 8/11/3 16/60/3 21/61/3 7/12/3
f 31/59/1 32/62/1 30/63/1 29/33/1
f 21/61/3 22/64/3 20/65/3 7/12/3
f 17/66/5 5/67/5 7/68/5 20/69/5
f 31/70/5 23/71/5 26/72/5 32/73/5
f 32/74/2 26/75/2 25/76/2 30/77/2
f 22/78/2 18/79/2 17/80/2 20/81/2
usemtl Water.031
f 23/82/2 31/83/2 19/84/2 21/85/2
f 31/59/1 10/58/1 9/53/1 19/51/1
f 21/61/3 16/60/3 15/47/3 23/46/3
