# Blender v3.4.1 OBJ File: ''
# www.blender.org
mtllib roadTile_053.mtl
o roadTile_053
v 3.000000 0.600001 -3.000000
v 3.000000 0.600000 -1.703930
v 3.000000 0.300000 -1.703930
v 3.000000 0.300000 -3.000000
v 0.000000 0.600001 -3.000000
v 0.000000 0.600000 -0.750000
v 0.685263 0.600000 -0.794914
v 1.358800 0.600000 -0.928889
v 2.009090 0.600000 -1.149630
v 2.625000 0.600000 -1.453370
v 0.000000 0.300000 -3.000000
v 0.000000 0.300000 -0.750000
v 0.000000 0.000000 -3.000000
v 3.000000 0.000000 -3.000000
v 0.000000 0.000000 -0.375000
v 0.000000 0.550000 -0.375000
v 0.000000 0.630000 -0.375000
v 0.000000 0.630000 -0.750000
v 3.000000 0.000000 -0.000000
v 0.000000 0.000000 0.000000
v 3.000000 0.000000 -1.253890
v 0.000000 0.550000 0.000000
v 3.000000 0.550000 0.000000
v 3.000000 0.550000 -1.253890
v 2.812500 0.550000 -1.128610
v 2.152590 0.550000 -0.803178
v 1.455860 0.550000 -0.566667
v 0.734210 0.550000 -0.423123
v 3.000000 0.630000 -1.703930
v 3.000000 0.630000 -1.253890
v 2.625000 0.630000 -1.453370
v 2.009090 0.630000 -1.149630
v 1.358800 0.630000 -0.928889
v 0.685263 0.630000 -0.794914
v 0.734210 0.630000 -0.423123
v 1.455860 0.630000 -0.566667
v 2.152590 0.630000 -0.803178
v 2.812500 0.630000 -1.128610
vt 2.625000 1.453370
vt 3.000000 1.703930
vt 3.000000 3.000000
vt -0.750000 0.600000
vt -3.000000 0.600000
vt -3.000000 0.300000
vt -0.750000 0.300000
vt 0.000000 3.000000
vt 2.009090 1.149630
vt -0.000000 0.750000
vt 0.685263 0.794914
vt 1.358800 0.928889
vt -0.000000 0.600000
vt -3.000000 0.600000
vt -3.000000 0.300000
vt -0.000000 0.300000
vt 3.000000 0.300000
vt 3.000000 0.600000
vt 1.703930 0.600000
vt 1.703930 0.300000
vt -3.000000 0.000000
vt -0.000000 0.000000
vt 1.560740 0.550000
vt 2.296530 0.550000
vt 2.296530 0.630000
vt 1.560740 0.630000
vt -3.000000 0.000000
vt -0.375000 0.000000
vt 3.000000 1.253890
vt 3.000000 1.703930
vt 2.625000 1.453370
vt 2.812500 1.128610
vt -2.997100 0.630000
vt -2.997100 0.600000
vt -2.310370 0.600000
vt -2.310370 0.630000
vt 1.253890 -0.000000
vt 3.000000 -0.000000
vt -0.375000 0.550000
vt 2.009090 1.149630
vt 1.358800 0.928889
vt 1.455860 0.566667
vt 2.152590 0.803178
vt 1.253890 0.550000
vt 1.703930 0.630000
vt 1.253890 0.630000
vt -3.441060 0.630000
vt -3.441060 0.600000
vt -2.990050 0.600000
vt -2.990050 0.630000
vt 0.802649 0.550000
vt 1.538430 0.550000
vt 1.538430 0.630000
vt 0.802649 0.630000
vt 0.685263 0.794914
vt 0.734210 0.423123
vt 0.000000 0.375000
vt -0.000000 0.750000
vt -0.375000 0.630000
vt -0.750000 0.630000
vt -2.272000 0.630000
vt -2.272000 0.600000
vt -1.585270 0.600000
vt -1.585270 0.630000
vt 0.024526 0.550000
vt 0.760311 0.550000
vt 0.760311 0.630000
vt 0.024526 0.630000
vt -1.513910 0.630000
vt -1.513910 0.600000
vt -0.827176 0.600000
vt -0.827176 0.630000
vt -0.735785 0.630000
vt -0.735785 0.600000
vt -0.049052 0.600000
vt -0.049052 0.630000
vt 2.285840 0.550000
vt 3.021620 0.550000
vt 3.021620 0.630000
vt 2.285840 0.630000
vt 2.965530 0.550000
vt 3.191030 0.550000
vt 3.191030 0.630000
vt 2.965530 0.630000
vt 3.000000 0.000000
vt 1.455860 0.566667
vt 0.734210 0.423123
vt -0.000000 3.000000
vt -3.000000 3.000000
vt -3.000000 1.253890
vt -0.000000 0.375000
vt -3.000000 0.000000
vt -0.000000 0.000000
vt 0.000000 0.550000
vt 0.000000 0.000000
vt 0.000000 0.550000
vt 3.000000 1.253890
vt 2.812500 1.128610
vt 2.152590 0.803178
vt 0.000000 0.375000
vt 0.000000 -0.000000
vt 3.000000 0.550000
vt 3.000000 0.000000
vn -0.0000 1.0000 0.0000
vn -1.0000 -0.0000 0.0000
vn 0.0000 0.0000 -1.0000
vn 1.0000 -0.0000 0.0000
vn 0.2588 0.0000 0.9659
vn 0.3827 0.0000 0.9239
vn -0.5000 0.0000 -0.8660
vn -0.3827 0.0000 -0.9239
vn -0.5556 0.0000 -0.8315
vn 0.1305 0.0000 0.9914
vn -0.2588 0.0000 -0.9659
vn 0.0654 0.0000 0.9979
vn -0.1305 0.0000 -0.9914
vn -0.0654 0.0000 -0.9979
vn 0.5000 0.0000 0.8660
vn 0.5556 0.0000 0.8315
vn -0.0000 -1.0000 -0.0000
vn 0.0000 -0.0000 1.0000
usemtl Asphalt.022
s 1
f 10/1/1 2/2/1 1/3/1
f 6/4/2 5/5/2 11/6/2 12/7/2
f 1/3/1 5/8/1 9/9/1
f 5/8/1 6/10/1 7/11/1
f 8/12/1 5/8/1 7/11/1
f 8/12/1 9/9/1 5/8/1
f 9/9/1 10/1/1 1/3/1
f 5/13/3 1/14/3 4/15/3 11/16/3
f 4/17/4 1/18/4 2/19/4 3/20/4
usemtl Stone.033
f 14/21/3 13/22/3 11/16/3 4/15/3
f 27/23/5 26/24/6 37/25/6 36/26/5
f 11/6/2 13/27/2 12/7/2
f 13/27/2 15/28/2 12/7/2
f 30/29/1 29/30/1 31/31/1 38/32/1
f 31/33/7 10/34/7 9/35/8 32/36/8
f 21/37/4 14/38/4 3/20/4
f 14/38/4 4/17/4 3/20/4
f 12/7/2 15/28/2 16/39/2 6/4/2
f 32/40/1 33/41/1 36/42/1 37/43/1
f 24/44/4 2/19/4 29/45/4 30/46/4
f 29/47/9 2/48/9 10/49/7 31/50/7
f 28/51/10 27/52/5 36/53/5 35/54/10
f 33/41/1 34/55/1 35/56/1 36/42/1
f 38/32/1 31/31/1 32/40/1 37/43/1
f 17/57/1 35/56/1 34/55/1 18/58/1
f 17/59/2 18/60/2 6/4/2 16/39/2
f 24/44/4 21/37/4 3/20/4 2/19/4
f 32/61/8 9/62/8 8/63/11 33/64/11
f 16/65/12 28/66/10 35/67/10 17/68/12
f 33/69/11 8/70/11 7/71/13 34/72/13
f 34/73/13 7/74/13 6/75/14 18/76/14
f 26/77/6 25/78/15 38/79/15 37/80/6
f 25/81/15 24/82/16 30/83/16 38/84/15
usemtl Grass.040
f 23/85/1 27/86/1 28/87/1
f 13/88/17 14/89/17 21/90/17 15/91/17
f 19/92/17 20/93/17 15/91/17 21/90/17
f 20/93/2 22/94/2 16/39/2 15/28/2
f 19/95/4 21/37/4 24/44/4 23/96/4
f 23/85/1 24/97/1 25/98/1
f 23/85/1 25/98/1 26/99/1
f 16/100/1 22/101/1 28/87/1
f 22/101/1 23/85/1 28/87/1
f 23/85/1 26/99/1 27/86/1
f 23/102/18 22/94/18 20/93/18 19/103/18
