# Blender v3.4.1 OBJ File: ''
# www.blender.org
mtllib roadTile_277.mtl
o roadTile_277
v 0.000000 0.630000 -0.562500
v 0.000000 0.630000 0.000000
v 3.000000 0.630000 0.000000
v 3.000000 0.630000 -0.562500
v 0.000000 0.000000 -1.875000
v 0.000000 0.000000 0.000000
v 0.000000 0.600000 -0.562500
v 0.000000 0.300000 -0.562500
v 0.000000 0.300000 -1.312500
v 0.000000 0.600000 -1.312500
v 0.000000 0.630000 -1.312500
v 0.000000 0.630000 -1.875000
v 3.000000 0.000000 -1.875000
v 3.000000 0.000000 0.000000
v 3.000000 0.630000 -1.875000
v 3.000000 0.630000 -1.312500
v 3.000000 0.600000 -1.312500
v 3.000000 0.300000 -1.312500
v 3.000000 0.300000 -0.562500
v 3.000000 0.600000 -0.562500
vt -1.875000 0.000000
vt 0.000000 0.000000
vt -1.312500 0.300000
vt 0.000000 0.000000
vt 1.875000 0.000000
vt 0.562500 0.300000
vt 0.562500 0.600000
vt 0.000000 0.630000
vt 0.000000 0.630000
vt -0.562500 0.630000
vt -0.562500 0.600000
vt -1.312500 0.630000
vt -1.875000 0.630000
vt -1.312500 0.600000
vt -0.562500 0.300000
vt 0.000000 0.000000
vt 0.000000 0.630000
vt -3.000000 0.630000
vt -3.000000 0.000000
vt 0.000000 1.312500
vt 3.000000 1.312500
vt 3.000000 1.875000
vt 0.000000 1.875000
vt -3.000000 0.630000
vt -3.000000 0.600000
vt 0.000000 0.600000
vt 0.000000 0.630000
vt 1.875000 0.630000
vt 1.312500 0.630000
vt 1.312500 0.600000
vt 0.562500 0.630000
vt 1.312500 0.300000
vt 3.000000 0.000000
vt 3.000000 0.630000
vt -3.000000 -0.000000
vt -0.000000 1.875000
vt -3.000000 1.875000
vt -0.000000 0.630000
vt -0.000000 0.600000
vt 3.000000 0.600000
vt 3.000000 0.630000
vt 3.000000 0.562500
vt -0.000000 0.562500
vt -0.000000 -0.000000
vt 3.000000 -0.000000
vt 0.000000 1.312500
vt 0.000000 0.562500
vt 3.000000 0.562500
vt 3.000000 1.312500
vn -1.0000 0.0000 0.0000
vn 1.0000 -0.0000 0.0000
vn 0.0000 0.0000 -1.0000
vn 0.0000 1.0000 0.0000
vn 0.0000 -0.0000 1.0000
vn 0.0000 -1.0000 -0.0000
usemtl Stone.233
s 1
f 5/1/1 6/2/1 9/3/1
f 14/4/2 13/5/2 19/6/2
f 20/7/2 3/8/2 14/4/2 19/6/2
f 2/9/1 1/10/1 7/11/1
f 11/12/1 12/13/1 10/14/1
f 7/11/1 8/15/1 6/2/1 2/9/1
f 6/2/1 8/15/1 9/3/1
f 5/16/3 12/17/3 15/18/3 13/19/3
f 11/20/4 16/21/4 15/22/4 12/23/4
f 4/24/3 20/25/3 7/26/3 1/27/3
f 15/28/2 16/29/2 17/30/2
f 4/31/2 3/8/2 20/7/2
f 17/30/2 18/32/2 13/5/2 15/28/2
f 13/5/2 18/32/2 19/6/2
f 10/14/1 12/13/1 5/1/1 9/3/1
f 14/33/5 3/34/5 2/9/5 6/2/5
f 14/35/6 6/2/6 5/36/6 13/37/6
f 11/38/5 10/39/5 17/40/5 16/41/5
f 4/42/4 1/43/4 2/44/4 3/45/4
usemtl Asphalt.189
f 7/11/1 10/14/1 9/3/1 8/15/1
f 10/46/4 7/47/4 20/48/4 17/49/4
f 17/30/2 20/7/2 19/6/2 18/32/2
