# Blender v3.4.1 OBJ File: ''
# www.blender.org
mtllib roadTile_287.mtl
o roadTile_287
v 3.000000 0.630000 -1.875000
v 3.000000 0.600000 -1.875000
v 3.000000 0.300000 -1.875000
v 3.000000 0.300000 -1.125000
v 3.000000 0.600000 -1.125000
v 3.000000 0.630000 -1.125000
v 3.000000 0.630000 0.000000
v 3.000000 0.000000 0.000000
v 3.000000 0.000000 -3.000000
v 3.000000 0.630000 -3.000000
v 2.853160 0.630000 -1.884620
v 2.853160 0.600000 -1.884620
v 1.875000 0.630000 -3.000000
v 1.884620 0.630000 -2.853160
v 1.913330 0.630000 -2.708830
v 1.960640 0.630000 -2.569480
v 2.025720 0.630000 -2.437500
v 2.107480 0.630000 -2.315140
v 2.204500 0.630000 -2.204500
v 2.315140 0.630000 -2.107480
v 2.437500 0.630000 -2.025720
v 2.569480 0.630000 -1.960640
v 2.708830 0.630000 -1.913330
v 1.125000 0.630000 -3.000000
v 1.125000 0.600001 -3.000000
v 1.125000 0.315000 -3.000000
v 1.875000 0.315000 -3.000000
v 1.875000 0.600001 -3.000000
v 0.000000 0.000000 -3.000000
v 0.000000 0.630000 -3.000000
v 1.141040 0.630000 -2.755260
v 1.141040 0.600001 -2.755260
v 1.858570 0.630000 -1.487540
v 1.877220 0.630000 -1.500000
v 1.858570 0.630000 -1.512460
v 1.674170 0.630000 -1.674170
v 1.512460 0.630000 -1.858570
v 1.376200 0.630000 -2.062500
v 1.267730 0.630000 -2.282470
v 1.188890 0.630000 -2.514710
v 0.000000 0.630000 0.000000
v 1.125000 0.630000 0.000000
v 1.141040 0.630000 -0.244737
v 1.188890 0.630000 -0.485286
v 1.267730 0.630000 -0.717531
v 1.376200 0.630000 -0.937500
v 1.512460 0.630000 -1.141430
v 1.674170 0.630000 -1.325830
v 1.858570 0.600000 -1.487540
v 1.877220 0.600000 -1.500000
v 1.674170 0.600000 -1.325830
v 1.512460 0.600000 -1.141430
v 1.376200 0.600000 -0.937500
v 1.267730 0.600000 -0.717531
v 1.188890 0.600000 -0.485286
v 1.141040 0.600000 -0.244737
v 1.125000 0.600000 0.000000
v 0.000000 0.000000 0.000000
v 1.875000 0.630000 0.000000
v 1.875000 0.600000 0.000000
v 1.875000 0.300000 0.000000
v 1.125000 0.300000 0.000000
v 2.853160 0.630000 -1.115380
v 2.708830 0.630000 -1.086670
v 2.569480 0.630000 -1.039360
v 2.437500 0.630000 -0.974279
v 2.315140 0.630000 -0.892522
v 2.204500 0.630000 -0.795495
v 2.107480 0.630000 -0.684857
v 2.025720 0.630000 -0.562500
v 1.960640 0.630000 -0.430519
v 1.913330 0.630000 -0.291171
v 1.884620 0.630000 -0.146842
v 2.853160 0.600000 -1.115380
v 1.858570 0.600000 -1.512460
v 1.884620 0.600000 -0.146842
v 1.913330 0.600000 -0.291171
v 1.960640 0.600000 -0.430519
v 2.025720 0.600000 -0.562500
v 2.107480 0.600000 -0.684857
v 2.204500 0.600000 -0.795495
v 2.315140 0.600000 -0.892522
v 2.437500 0.600000 -0.974279
v 2.569480 0.600000 -1.039360
v 2.708830 0.600000 -1.086670
v 2.708830 0.600000 -1.913330
v 2.569480 0.600000 -1.960640
v 2.437500 0.600000 -2.025720
v 2.315140 0.600000 -2.107480
v 2.204500 0.600000 -2.204500
v 2.107480 0.600000 -2.315140
v 2.025720 0.600000 -2.437500
v 1.960640 0.600000 -2.569480
v 1.913330 0.600000 -2.708830
v 1.884620 0.600001 -2.853160
v 1.188890 0.600000 -2.514710
v 1.267730 0.600000 -2.282470
v 1.376200 0.600000 -2.062500
v 1.512460 0.600000 -1.858570
v 1.674170 0.600000 -1.674170
vt 1.125000 0.300000
vt 0.000000 0.000000
vt 3.000000 0.000000
vt 2.708830 1.913330
vt 2.853160 1.884620
vt 3.000000 3.000000
vt -1.875000 0.315000
vt -3.000000 -0.000000
vt -0.000000 -0.000000
vt 1.141040 0.244737
vt 1.188890 0.485286
vt -0.000000 0.000000
vt 1.875000 0.300000
vt 1.125000 0.300000
vt 0.000000 0.000000
vt 1.913330 0.291171
vt 1.884620 0.146842
vt 3.000000 -0.000000
vt 3.000000 0.630000
vt 1.875000 0.630000
vt 1.875000 0.600000
vt 1.875000 0.600000
vt 3.000000 0.000000
vt 3.000000 0.630000
vt 1.125000 0.630000
vt 0.000000 0.630000
vt 1.125000 0.600000
vt 1.875000 0.300000
vt -0.154851 0.600000
vt -0.154851 0.630000
vt -0.400113 0.630000
vt -0.400113 0.600000
vt 3.000000 1.875000
vt 1.875000 3.000000
vt 1.884620 2.853160
vt 1.913330 2.708830
vt 1.960640 2.569480
vt 2.025720 2.437500
vt 2.107480 2.315140
vt 2.204500 2.204500
vt 2.315140 2.107480
vt 2.437500 2.025720
vt 2.569480 1.960640
vt -0.000000 0.630000
vt -1.125000 0.630000
vt -1.125000 0.600000
vt -1.875000 0.600000
vt -3.000000 0.630000
vt -1.875000 0.630000
vt -1.125000 0.315000
vt -1.290170 0.600000
vt -1.290170 0.630000
vt -1.437330 0.630000
vt -1.437330 0.600000
vt 1.858570 1.487540
vt 1.877220 1.500000
vt 1.858570 1.512460
vt 1.674170 1.674170
vt 1.674170 1.325830
vt 1.512460 1.858570
vt 1.512460 1.141430
vt 1.376200 2.062500
vt 1.376200 0.937500
vt 1.267730 2.282470
vt -0.000000 3.000000
vt 1.267730 0.717531
vt 1.188890 2.514710
vt 1.141040 2.755260
vt 1.125000 3.000000
vt 1.125000 0.000000
vt 2.378150 0.600000
vt 2.378150 0.630000
vt 2.132890 0.630000
vt 2.132890 0.600000
vt 2.100670 0.600000
vt 2.100670 0.630000
vt 1.855410 0.630000
vt 1.855410 0.600000
vt 1.789340 0.600000
vt 1.789340 0.630000
vt 1.544080 0.630000
vt 1.544080 0.600000
vt 1.449500 0.600000
vt 1.449500 0.630000
vt 1.204240 0.630000
vt 1.204240 0.600000
vt 1.086950 0.600000
vt 1.086950 0.630000
vt 0.841688 0.630000
vt 0.841688 0.600000
vt 0.707902 0.600000
vt 0.707902 0.630000
vt 0.462640 0.630000
vt 0.462640 0.600000
vt 0.318840 0.600000
vt 0.318840 0.630000
vt 0.073578 0.630000
vt 0.073578 0.600000
vt -0.754120 0.600000
vt -0.754120 0.630000
vt -0.901277 0.630000
vt -0.901277 0.600000
vt 1.125000 0.600000
vt 0.000000 0.630000
vt 1.875000 0.630000
vt 1.125000 0.630000
vt -3.000000 0.630000
vt -3.000000 0.000000
vt -2.920000 0.600000
vt -2.920000 0.630000
vt -3.067160 0.630000
vt -3.067160 0.600000
vt 1.875000 -0.000000
vt 3.000000 1.125000
vt 2.853160 1.115380
vt 2.708830 1.086670
vt 2.569480 1.039360
vt 2.437500 0.974279
vt 2.315140 0.892522
vt 2.204500 0.795495
vt 2.107480 0.684857
vt 2.025720 0.562500
vt 1.960640 0.430519
vt 0.351061 0.600000
vt 0.351061 0.630000
vt 0.203904 0.630000
vt 0.203904 0.600000
vt -1.802890 0.600000
vt -1.802890 0.630000
vt -1.950050 0.630000
vt -1.950050 0.600000
vt -2.767210 0.600000
vt -2.767210 0.630000
vt -2.914370 0.630000
vt -2.914370 0.600000
vt 0.400113 0.600000
vt 0.400113 0.630000
vt 0.154851 0.630000
vt 0.154851 0.600000
vt -2.868780 0.600000
vt -2.868780 0.630000
vt -3.015930 0.630000
vt -3.015930 0.600000
vt 1.486380 0.600000
vt 1.486380 0.630000
vt 1.241120 0.630000
vt 1.241120 0.600000
vt -0.122631 0.600000
vt -0.122631 0.630000
vt -0.269788 0.630000
vt -0.269788 0.600000
vt -0.511692 0.600000
vt -0.511692 0.630000
vt -0.658849 0.630000
vt -0.658849 0.600000
vt -2.420830 0.600000
vt -2.420830 0.630000
vt -2.567990 0.630000
vt -2.567990 0.600000
vt -2.181940 0.600000
vt -2.181940 0.630000
vt -2.329100 0.630000
vt -2.329100 0.600000
vt -1.593130 0.600000
vt -1.593130 0.630000
vt -1.740290 0.630000
vt -1.740290 0.600000
vt -2.283510 0.600000
vt -2.283510 0.630000
vt -2.430660 0.630000
vt -2.430660 0.600000
vt -1.253290 0.600000
vt -1.253290 0.630000
vt -1.400440 0.630000
vt -1.400440 0.600000
vt -1.904460 0.600000
vt -1.904460 0.630000
vt -2.051620 0.630000
vt -2.051620 0.600000
vt -0.890740 0.600000
vt -0.890740 0.630000
vt -1.037900 0.630000
vt -1.037900 0.600000
vt 2.479720 0.600000
vt 2.479720 0.630000
vt 2.234450 0.630000
vt 2.234450 0.600000
vt -2.617040 0.600000
vt -2.617040 0.630000
vt -2.764200 0.630000
vt -2.764200 0.600000
vt 0.950329 0.600000
vt 0.950329 0.630000
vt 0.705067 0.630000
vt 0.705067 0.600000
vt 1.999100 0.600000
vt 1.999100 0.630000
vt 1.753840 0.630000
vt 1.753840 0.600000
vt -0.705067 0.600000
vt -0.705067 0.630000
vt -0.727499 0.630000
vt -0.727499 0.600000
vt 1.950050 0.600000
vt 1.950050 0.630000
vt 1.802890 0.630000
vt 1.802890 0.600000
vt 1.437330 0.600000
vt 1.437330 0.630000
vt 1.290170 0.630000
vt 1.290170 0.600000
vt 0.901277 0.600000
vt 0.901277 0.630000
vt 0.754120 0.630000
vt 0.754120 0.600000
vt 0.000000 3.000000
vt -3.000000 3.000000
vt -3.000000 0.000000
vt -0.203903 0.600000
vt -0.203903 0.630000
vt -0.351060 0.630000
vt -0.351060 0.600000
vt 2.394210 0.600000
vt 2.394210 0.630000
vt 2.371780 0.630000
vt 2.371780 0.600000
vt 2.920000 0.600000
vt 2.920000 0.630000
vt 2.674740 0.630000
vt 2.674740 0.600000
vt 2.430660 0.600000
vt 2.430660 0.630000
vt 2.283510 0.630000
vt 2.283510 0.600000
vt 2.870950 0.600000
vt 2.870950 0.630000
vt 2.723790 0.630000
vt 2.723790 0.600000
vt -2.723790 0.600000
vt -2.723790 0.630000
vt -2.870950 0.630000
vt -2.870950 0.600000
vt 2.708830 1.086670
vt 2.853160 1.115380
vt 2.853160 1.884620
vt 2.708830 1.913330
vt 2.437500 2.025720
vt 2.315140 2.107480
vt 1.858570 1.512460
vt 1.877220 1.500000
vt 1.674170 1.674170
vt 2.204500 2.204500
vt 2.107480 2.315140
vt 1.512460 1.858570
vt 2.315140 0.892522
vt 2.437500 0.974279
vt 1.858570 1.487540
vt 1.267730 0.717531
vt 1.960640 0.430519
vt 2.025720 0.562500
vt 1.376200 0.937500
vt 1.125000 3.000000
vt 1.141040 2.755260
vt 1.884620 2.853160
vt 1.875000 3.000000
vt 2.204500 0.795495
vt 1.674170 1.325830
vt 1.141040 0.244737
vt 1.884620 0.146842
vt 1.913330 0.291171
vt 1.188890 0.485286
vt 2.107480 0.684857
vt 1.512460 1.141430
vt 1.125000 0.000000
vt 1.875000 0.000000
vt 1.913330 2.708830
vt 1.188890 2.514710
vt 1.376200 2.062500
vt 2.025720 2.437500
vt 1.960640 2.569480
vt 1.267730 2.282470
vt 2.569480 1.960640
vt 2.569480 1.039360
vt 3.000000 1.125000
vt 3.000000 1.875000
vn 1.0000 -0.0000 0.0000
vn -0.0000 1.0000 0.0000
vn 0.0000 0.0000 -1.0000
vn 0.0000 -0.0000 1.0000
vn 0.7071 0.0000 -0.7071
vn 0.6087 0.0000 -0.7934
vn -0.8660 0.0000 0.5000
vn -0.9239 0.0000 0.3827
vn 0.6087 0.0000 0.7934
vn 0.7071 0.0000 0.7071
vn 0.7934 0.0000 0.6088
vn 0.8660 0.0000 0.5000
vn 0.9239 0.0000 0.3827
vn 0.9659 0.0000 0.2588
vn 0.9914 0.0000 0.1305
vn 0.9979 0.0000 0.0654
vn -0.7934 0.0000 0.6087
vn -1.0000 0.0000 0.0000
vn -0.1305 0.0000 -0.9914
vn -0.0654 0.0000 -0.9979
vn -0.6087 0.0000 0.7934
vn -0.7071 0.0000 0.7071
vn -0.9659 0.0000 0.2588
vn -0.3827 0.0000 -0.9239
vn -0.2588 0.0000 -0.9659
vn 0.7934 0.0000 -0.6088
vn 0.9239 0.0000 -0.3827
vn 0.8660 0.0000 -0.5000
vn -0.9979 0.0000 -0.0654
vn -0.9914 0.0000 -0.1305
vn -0.9659 0.0000 -0.2588
vn -0.6088 0.0000 -0.7934
vn -0.5000 0.0000 -0.8660
vn -0.7071 0.0000 -0.7071
vn -0.8660 0.0000 -0.5000
vn -0.7934 0.0000 -0.6088
vn -0.9914 0.0000 0.1305
vn -0.9239 0.0000 -0.3827
vn 0.9914 0.0000 -0.1305
vn 0.9659 0.0000 -0.2588
vn 0.5555 0.0000 -0.8315
vn -0.2588 0.0000 0.9659
vn -0.3827 0.0000 0.9239
vn -0.5000 0.0000 0.8660
vn 0.0000 -1.0000 -0.0000
vn 0.5555 0.0000 0.8315
vn 0.9979 0.0000 -0.0654
vn -0.1305 0.0000 0.9914
vn -0.0654 0.0000 0.9979
vn -0.9979 0.0000 0.0654
usemtl Stone.243
s 1
f 4/1/1 8/2/1 9/3/1
f 23/4/2 11/5/2 10/6/2
f 27/7/3 9/8/3 29/9/3
f 43/10/2 44/11/2 41/12/2
f 61/13/4 62/14/4 58/15/4
f 72/16/2 73/17/2 7/18/2
f 10/19/1 1/20/1 2/21/1
f 60/22/4 61/13/4 8/23/4 7/24/4
f 6/25/1 7/26/1 5/27/1
f 9/3/1 10/19/1 2/21/1 3/28/1
f 9/3/1 3/28/1 4/1/1
f 100/29/5 36/30/5 35/31/6 75/32/6
f 1/33/2 10/6/2 11/5/2
f 10/6/2 13/34/2 14/35/2
f 15/36/2 10/6/2 14/35/2
f 15/36/2 16/37/2 10/6/2
f 16/37/2 17/38/2 10/6/2
f 17/38/2 18/39/2 10/6/2
f 18/39/2 19/40/2 10/6/2
f 19/40/2 20/41/2 10/6/2
f 20/41/2 21/42/2 10/6/2
f 21/42/2 22/43/2 10/6/2
f 22/43/2 23/4/2 10/6/2
f 30/44/3 24/45/3 25/46/3
f 28/47/3 10/48/3 9/8/3 27/7/3
f 13/49/3 10/48/3 28/47/3
f 29/9/3 26/50/3 27/7/3
f 92/51/7 17/52/7 16/53/8 93/54/8
f 33/55/2 34/56/2 35/57/2
f 33/55/2 35/57/2 36/58/2
f 48/59/2 33/55/2 36/58/2
f 48/59/2 36/58/2 37/60/2
f 47/61/2 48/59/2 37/60/2
f 47/61/2 37/60/2 38/62/2
f 46/63/2 47/61/2 38/62/2
f 38/62/2 39/64/2 30/65/2
f 45/66/2 46/63/2 41/12/2
f 39/64/2 40/67/2 30/65/2
f 44/11/2 45/66/2 41/12/2
f 31/68/2 24/69/2 30/65/2
f 40/67/2 31/68/2 30/65/2
f 41/12/2 42/70/2 43/10/2
f 49/71/9 33/72/9 48/73/10 51/74/10
f 51/75/10 48/76/10 47/77/11 52/78/11
f 52/79/11 47/80/11 46/81/12 53/82/12
f 53/83/12 46/84/12 45/85/13 54/86/13
f 54/87/13 45/88/13 44/89/14 55/90/14
f 55/91/14 44/92/14 43/93/15 56/94/15
f 56/95/15 43/96/15 42/97/16 57/98/16
f 91/99/17 18/100/17 17/101/7 92/102/7
f 57/103/4 41/104/4 58/15/4 62/14/4
f 7/24/4 59/105/4 60/22/4
f 42/106/4 41/104/4 57/103/4
f 8/23/4 61/13/4 58/15/4
f 41/104/18 30/107/18 29/108/18 58/15/18
f 74/109/19 63/110/19 6/111/20 5/112/20
f 59/113/2 7/18/2 73/17/2
f 7/18/2 6/114/2 63/115/2
f 64/116/2 7/18/2 63/115/2
f 64/116/2 65/117/2 7/18/2
f 65/117/2 66/118/2 7/18/2
f 66/118/2 67/119/2 7/18/2
f 67/119/2 68/120/2 7/18/2
f 68/120/2 69/121/2 7/18/2
f 69/121/2 70/122/2 7/18/2
f 70/122/2 71/123/2 7/18/2
f 71/123/2 72/16/2 7/18/2
f 89/124/21 20/125/21 19/126/22 90/127/22
f 29/9/3 30/44/3 25/46/3 26/50/3
f 5/27/1 7/26/1 8/2/1 4/1/1
f 41/12/2 46/63/2 38/62/2 30/65/2
f 93/128/8 16/129/8 15/130/23 94/131/23
f 84/132/24 65/133/24 64/134/25 85/135/25
f 99/136/26 37/137/26 36/138/5 100/139/5
f 85/140/25 64/141/25 63/142/19 74/143/19
f 97/144/27 39/145/27 38/146/28 98/147/28
f 60/148/29 59/149/29 73/150/30 76/151/30
f 76/152/30 73/153/30 72/154/31 77/155/31
f 82/156/32 67/157/32 66/158/33 83/159/33
f 81/160/34 68/161/34 67/162/32 82/163/32
f 79/164/35 70/165/35 69/166/36 80/167/36
f 94/168/23 15/169/23 14/170/37 95/171/37
f 78/172/38 71/173/38 70/174/35 79/175/35
f 80/176/36 69/177/36 68/178/34 81/179/34
f 77/180/31 72/181/31 71/182/38 78/183/38
f 32/184/39 31/185/39 40/186/40 96/187/40
f 83/188/33 66/189/33 65/190/24 84/191/24
f 98/192/28 38/193/28 37/194/26 99/195/26
f 96/196/40 40/197/40 39/198/27 97/199/27
f 75/200/6 35/201/6 34/202/41 50/203/41
f 86/204/42 23/205/42 22/206/43 87/207/43
f 87/208/43 22/209/43 21/210/44 88/211/44
f 88/212/44 21/213/44 20/214/21 89/215/21
f 29/216/45 9/217/45 8/218/45 58/15/45
f 90/219/22 19/220/22 18/221/17 91/222/17
f 50/223/46 34/224/46 33/225/9 49/226/9
f 25/227/47 24/228/47 31/229/39 32/230/39
f 12/231/48 11/232/48 23/233/42 86/234/42
f 2/235/49 1/236/49 11/237/48 12/238/48
f 95/239/37 14/240/37 13/241/50 28/242/50
usemtl Asphalt.196
f 85/243/2 74/244/2 12/245/2 86/246/2
f 88/247/2 89/248/2 75/249/2 50/250/2
f 100/251/2 90/252/2 91/253/2 99/254/2
f 82/255/2 83/256/2 50/250/2 49/257/2
f 54/258/2 78/259/2 79/260/2 53/261/2
f 25/262/2 32/263/2 95/264/2 28/265/2
f 81/266/2 82/255/2 49/257/2 51/267/2
f 56/268/2 76/269/2 77/270/2 55/271/2
f 79/260/2 80/272/2 52/273/2 53/261/2
f 57/274/2 60/275/2 76/269/2 56/268/2
f 94/276/2 95/264/2 32/263/2 96/277/2
f 80/272/2 81/266/2 51/267/2 52/273/2
f 77/270/2 78/259/2 54/258/2 55/271/2
f 75/249/2 89/248/2 90/252/2 100/251/2
f 98/278/2 92/279/2 93/280/2 97/281/2
f 98/278/2 99/254/2 91/253/2 92/279/2
f 87/282/2 88/247/2 50/250/2
f 50/250/2 83/256/2 84/283/2 87/282/2
f 87/282/2 84/283/2 85/243/2 86/246/2
f 97/281/2 93/280/2 94/276/2 96/277/2
f 3/28/1 2/21/1 5/27/1 4/1/1
f 61/13/4 60/22/4 57/103/4 62/14/4
f 74/244/2 5/284/2 2/285/2 12/245/2
f 26/50/3 25/46/3 28/47/3 27/7/3
