# Blender v3.4.1 OBJ File: ''
# www.blender.org
mtllib roadTile_079.mtl
o roadTile_079
v 2.437500 0.630000 -0.974279
v 2.569480 0.630000 -1.039360
v 2.569480 0.600000 -1.039360
v 2.437500 0.600000 -0.974279
v 3.000000 0.630000 0.000000
v 3.000000 0.630000 -1.125000
v 2.853160 0.630000 -1.115380
v 2.708830 0.630000 -1.086670
v 2.315140 0.630000 -0.892522
v 2.204500 0.630000 -0.795495
v 2.107480 0.630000 -0.684857
v 2.025720 0.630000 -0.562500
v 1.960640 0.630000 -0.430519
v 1.913330 0.630000 -0.291171
v 1.884620 0.630000 -0.146842
v 1.875000 0.630000 0.000000
v 3.000000 0.600000 -1.875000
v 3.000000 0.300000 -1.875000
v 3.000000 0.300000 -1.125000
v 3.000000 0.600000 -1.125000
v 3.000000 0.000000 0.000000
v 3.000000 0.000000 -3.000000
v 3.000000 0.630000 -3.000000
v 3.000000 0.630000 -1.875000
v 0.000000 0.600000 -1.875000
v 0.000000 0.600000 -1.125000
v 1.501490 0.600000 -1.125000
v 1.376200 0.600000 -0.937500
v 1.267730 0.600000 -0.717531
v 1.188890 0.600000 -0.485286
v 1.141040 0.600000 -0.244737
v 1.125000 0.600000 0.000000
v 1.875000 0.600000 0.000000
v 1.884620 0.600000 -0.146842
v 1.913330 0.600000 -0.291171
v 1.960640 0.600000 -0.430519
v 2.025720 0.600000 -0.562500
v 2.107480 0.600000 -0.684857
v 2.204500 0.600000 -0.795495
v 2.315140 0.600000 -0.892522
v 2.708830 0.600000 -1.086670
v 2.853160 0.600000 -1.115380
v 0.000000 0.630000 -1.875000
v 0.000000 0.630000 -3.000000
v 0.000000 0.300000 -1.125000
v 0.000000 0.300000 -1.875000
v 0.000000 0.000000 -3.000000
v 0.000000 0.000000 0.000000
v 0.000000 0.630000 0.000000
v 0.000000 0.630000 -1.125000
v 1.875000 0.300000 0.000000
v 1.125000 0.300000 0.000000
v 1.125000 0.630000 0.000000
v 1.141040 0.630000 -0.244737
v 1.376200 0.630000 -0.937500
v 1.501490 0.630000 -1.125000
v 1.188890 0.630000 -0.485286
v 1.267730 0.630000 -0.717531
vt 1.913330 0.291171
vt 1.884620 0.146842
vt 3.000000 -0.000000
vt 1.125000 0.300000
vt 0.000000 0.000000
vt 3.000000 0.000000
vt -1.125000 0.300000
vt -3.000000 0.000000
vt 0.000000 0.000000
vt 1.875000 0.300000
vt 1.125000 0.300000
vt -0.000000 1.125000
vt 1.188890 0.485286
vt 1.267730 0.717531
vt -2.767210 0.600000
vt -2.767210 0.630000
vt -2.914370 0.630000
vt -2.914370 0.600000
vt 1.875000 -0.000000
vt 3.000000 1.125000
vt 2.853160 1.115380
vt 2.708830 1.086670
vt 2.569480 1.039360
vt 2.437500 0.974279
vt 2.315140 0.892522
vt 2.204500 0.795495
vt 2.107480 0.684857
vt 2.025720 0.562500
vt 1.960640 0.430519
vt 1.875000 0.630000
vt 1.875000 0.600000
vt 3.000000 0.630000
vt -0.000000 0.000000
vt 1.141040 0.244737
vt 1.875000 0.300000
vt 1.125000 0.600000
vt 1.125000 0.630000
vt 0.000000 0.630000
vt 1.086950 0.600000
vt 1.086950 0.630000
vt 0.841688 0.630000
vt 0.841688 0.600000
vt 1.875000 0.600000
vt 3.000000 0.000000
vt 3.000000 0.630000
vt 3.000000 3.000000
vt 0.000000 3.000000
vt 0.000000 1.875000
vt 3.000000 1.875000
vt -2.420830 0.600000
vt -2.420830 0.630000
vt -2.567990 0.630000
vt -2.567990 0.600000
vt 1.125000 0.600000
vt 0.000000 0.630000
vt -1.875000 0.600000
vt -1.875000 0.630000
vt -3.000000 0.630000
vt -1.875000 0.300000
vt -1.125000 0.630000
vt -1.125000 0.600000
vt 0.000000 0.630000
vt -3.000000 0.630000
vt -3.000000 0.000000
vt 0.000000 0.000000
vt 0.000000 3.000000
vt -3.000000 3.000000
vt -3.000000 0.000000
vt -1.904460 0.600000
vt -1.904460 0.630000
vt -2.051620 0.630000
vt -2.051620 0.600000
vt 1.875000 0.630000
vt 1.125000 0.630000
vt -0.511692 0.600000
vt -0.511692 0.630000
vt -0.658849 0.630000
vt -0.658849 0.600000
vt -0.890740 0.600000
vt -0.890740 0.630000
vt -1.037900 0.630000
vt -1.037900 0.600000
vt -1.253290 0.600000
vt -1.253290 0.630000
vt -1.400440 0.630000
vt -1.400440 0.600000
vt -2.920000 0.600000
vt -2.920000 0.630000
vt -3.067160 0.630000
vt -3.067160 0.600000
vt -0.122631 0.600000
vt -0.122631 0.630000
vt -0.269788 0.630000
vt -0.269788 0.600000
vt -1.593130 0.600000
vt -1.593130 0.630000
vt -1.740290 0.630000
vt -1.740290 0.600000
vt -2.181940 0.600000
vt -2.181940 0.630000
vt -2.329100 0.630000
vt -2.329100 0.600000
vt 3.000000 0.600000
vt 3.000000 0.630000
vt 0.000000 0.630000
vt 0.000000 0.600000
vt 1.376200 0.937500
vt 1.501490 1.125000
vt 1.125000 0.000000
vt 0.318840 0.600000
vt 0.318840 0.630000
vt 0.073578 0.630000
vt 0.073578 0.600000
vt 1.544080 0.630000
vt 1.544080 0.600000
vt 1.769580 0.600000
vt 1.769580 0.630000
vt 0.000000 0.600000
vt 0.000000 0.630000
vt -1.501490 0.630000
vt -1.501490 0.600000
vt 1.449500 0.600000
vt 1.449500 0.630000
vt 1.204240 0.630000
vt 1.204240 0.600000
vt 0.707902 0.600000
vt 0.707902 0.630000
vt 0.462640 0.630000
vt 0.462640 0.600000
vt -2.868780 0.600000
vt -2.868780 0.630000
vt -3.015930 0.630000
vt -3.015930 0.600000
vt -2.617040 0.600000
vt -2.617040 0.630000
vt -2.764200 0.630000
vt -2.764200 0.600000
vt 2.853160 1.115380
vt 3.000000 1.125000
vt 3.000000 1.875000
vt -0.000000 1.875000
vt 1.501490 1.125000
vt -0.000000 1.125000
vt 1.913330 0.291171
vt 1.960640 0.430519
vt 1.267730 0.717531
vt 1.188890 0.485286
vt 1.141040 0.244737
vt 1.884620 0.146842
vt 2.708830 1.086670
vt 2.569480 1.039360
vt 2.437500 0.974279
vt 2.315140 0.892522
vt 2.204500 0.795495
vt 2.025720 0.562500
vt 1.376200 0.937500
vt 1.125000 0.000000
vt 1.875000 0.000000
vt 2.107480 0.684857
vn -0.0000 1.0000 0.0000
vn 1.0000 -0.0000 0.0000
vn -1.0000 0.0000 0.0000
vn 0.0000 -0.0000 1.0000
vn -0.3827 0.0000 -0.9239
vn -0.2588 0.0000 -0.9659
vn 0.9239 0.0000 0.3827
vn 0.9659 0.0000 0.2588
vn -0.6088 0.0000 -0.7934
vn -0.5000 0.0000 -0.8660
vn 0.0000 0.0000 -1.0000
vn 0.0000 -1.0000 -0.0000
vn -0.7934 0.0000 -0.6088
vn -0.7071 0.0000 -0.7071
vn -0.9914 0.0000 -0.1305
vn -0.9659 0.0000 -0.2588
vn -0.9239 0.0000 -0.3827
vn -0.8660 0.0000 -0.5000
vn -0.1305 0.0000 -0.9914
vn -0.0654 0.0000 -0.9979
vn -0.9979 0.0000 -0.0654
vn 0.9914 0.0000 0.1305
vn 0.9979 0.0000 0.0654
vn 0.8660 0.0000 0.5000
vn 0.8315 0.0000 0.5556
usemtl Stone.059
s 1
f 14/1/1 15/2/1 5/3/1
f 19/4/2 21/5/2 22/6/2
f 45/7/3 47/8/3 48/9/3
f 51/10/4 52/11/4 48/9/4
f 50/12/1 57/13/1 58/14/1
f 3/15/5 2/16/5 8/17/6 41/18/6
f 16/19/1 5/3/1 15/2/1
f 5/3/1 6/20/1 7/21/1
f 8/22/1 5/3/1 7/21/1
f 8/22/1 2/23/1 5/3/1
f 2/23/1 1/24/1 5/3/1
f 1/24/1 9/25/1 5/3/1
f 9/25/1 10/26/1 5/3/1
f 10/26/1 11/27/1 5/3/1
f 11/27/1 12/28/1 5/3/1
f 12/28/1 13/29/1 5/3/1
f 13/29/1 14/1/1 5/3/1
f 24/30/2 17/31/2 23/32/2
f 49/33/1 54/34/1 57/13/1 50/12/1
f 22/6/2 23/32/2 17/31/2 18/35/2
f 20/36/2 6/37/2 5/38/2
f 22/6/2 18/35/2 19/4/2
f 29/39/7 58/40/7 57/41/8 30/42/8
f 33/43/4 51/10/4 21/44/4 5/45/4
f 23/46/1 44/47/1 43/48/1 24/49/1
f 40/50/9 9/51/9 1/52/10 4/53/10
f 32/54/4 49/55/4 48/9/4 52/11/4
f 25/56/3 43/57/3 44/58/3
f 44/58/3 47/8/3 46/59/3 25/56/3
f 49/55/3 50/60/3 26/61/3
f 45/7/3 46/59/3 47/8/3
f 44/62/11 23/63/11 22/64/11 47/65/11
f 47/66/12 22/67/12 21/68/12 48/9/12
f 38/69/13 11/70/13 10/71/14 39/72/14
f 26/61/3 45/7/3 48/9/3 49/55/3
f 5/45/4 16/73/4 33/43/4
f 53/74/4 49/55/4 32/54/4
f 5/38/2 21/5/2 19/4/2 20/36/2
f 21/44/4 51/10/4 48/9/4
f 34/75/15 15/76/15 14/77/16 35/78/16
f 35/79/16 14/80/16 13/81/17 36/82/17
f 36/83/17 13/84/17 12/85/18 37/86/18
f 42/87/19 7/88/19 6/89/20 20/90/20
f 33/91/21 16/92/21 15/93/15 34/94/15
f 37/95/18 12/96/18 11/97/13 38/98/13
f 39/99/14 10/100/14 9/101/9 40/102/9
f 17/103/4 24/104/4 43/105/4 25/106/4
f 55/107/1 56/108/1 50/12/1
f 49/33/1 53/109/1 54/34/1
f 58/14/1 55/107/1 50/12/1
f 31/110/22 54/111/22 53/112/23 32/113/23
f 55/114/24 28/115/24 27/116/25 56/117/25
f 26/118/11 50/119/11 56/120/11 27/121/11
f 28/122/24 55/123/24 58/124/7 29/125/7
f 30/126/8 57/127/8 54/128/22 31/129/22
f 41/130/6 8/131/6 7/132/19 42/133/19
f 4/134/10 1/135/10 2/136/5 3/137/5
usemtl Asphalt.048
f 42/138/1 20/139/1 17/140/1
f 17/140/1 25/141/1 27/142/1
f 25/141/1 26/143/1 27/142/1
f 35/144/1 36/145/1 29/146/1 30/147/1
f 31/148/1 34/149/1 35/144/1 30/147/1
f 41/150/1 42/138/1 17/140/1
f 3/151/1 41/150/1 17/140/1
f 17/140/1 27/142/1 4/152/1
f 40/153/1 27/142/1 39/154/1
f 36/145/1 37/155/1 28/156/1 29/146/1
f 32/157/1 33/158/1 34/149/1 31/148/1
f 27/142/1 40/153/1 4/152/1
f 4/152/1 3/151/1 17/140/1
f 39/154/1 27/142/1 38/159/1
f 26/61/3 25/56/3 46/59/3 45/7/3
f 33/43/4 32/54/4 52/11/4 51/10/4
f 17/31/2 20/36/2 19/4/2 18/35/2
f 37/155/1 38/159/1 27/142/1 28/156/1
