# Blender v3.4.1 OBJ File: ''
# www.blender.org
mtllib roadTile_223.mtl
o roadTile_223
v 0.000000 0.600000 -2.250000
v 0.000000 0.300000 -2.250000
v 0.000000 0.300000 -0.750000
v 0.000000 0.600000 -0.750000
v 0.000000 1.736470 -2.250000
v 0.000000 0.000000 -3.000000
v 0.000000 0.000000 -0.000000
v 0.000000 1.736470 -0.750000
v 0.000000 2.200000 0.000000
v 0.000000 2.200001 -3.000000
v 3.000000 2.200000 0.000000
v 3.000000 2.200001 -3.000000
v 3.000000 0.000000 0.000000
v 3.000000 0.300000 -0.750000
v 3.000000 0.000000 -3.000000
v 3.000000 1.736470 -2.250000
v 3.000000 1.736470 -0.750000
v 3.000000 0.600000 -0.750000
v 3.000000 0.300000 -2.250000
v 3.000000 0.600000 -2.250000
vt -0.000000 0.750000
vt 3.000000 0.750000
vt 3.000000 2.250000
vt -0.000000 2.250000
vt 2.250000 0.600000
vt 0.750000 0.600000
vt 0.750000 0.300000
vt 2.250000 0.300000
vt -0.750000 0.600000
vt -2.250000 0.600000
vt -2.250000 0.300000
vt -0.750000 0.300000
vt -2.250000 1.736470
vt 3.000000 0.000000
vt 3.000000 2.200000
vt 2.250000 1.736470
vt -3.000000 0.000000
vt -0.000000 0.000000
vt -0.750000 1.736470
vt -0.000000 2.200000
vt -3.000000 2.200000
vt -0.000000 0.000000
vt 0.750000 1.736470
vt -0.000000 2.200000
vt -0.000000 3.000000
vt 0.000000 0.000000
vt 3.000000 -0.000000
vt 3.000000 3.000000
vt 3.000000 0.000000
vt 3.000000 2.200000
vt -3.000000 0.600000
vt 0.000000 0.600000
vt -0.000000 1.736470
vt -3.000000 1.736470
vt 0.000000 0.600000
vt 3.000000 0.600000
vt 3.000000 1.736470
vt 0.000000 1.736470
vt -3.000000 2.250000
vt -3.000000 0.750000
vt -0.000000 0.750000
vt -0.000000 2.250000
vt -0.000000 2.200000
vt -3.000000 2.200000
vt -3.000000 0.000000
vt -0.000000 0.000000
vt -0.000000 3.000000
vt -3.000000 3.000000
vt -3.000000 -0.000000
vn 0.0000 1.0000 0.0000
vn 1.0000 -0.0000 0.0000
vn -1.0000 0.0000 0.0000
vn -0.0000 -0.0000 1.0000
vn 0.0000 0.0000 -1.0000
vn 0.0000 -1.0000 -0.0000
usemtl Asphalt.148
s 1
f 4/1/1 18/2/1 20/3/1 1/4/1
f 20/5/2 18/6/2 14/7/2 19/8/2
f 4/9/3 1/10/3 2/11/3 3/12/3
usemtl Stone.179
f 5/13/3 2/11/3 1/10/3
f 20/5/2 15/14/2 12/15/2 16/16/2
f 6/17/3 3/12/3 2/11/3
f 7/18/3 3/12/3 6/17/3
f 3/12/3 7/18/3 4/9/3
f 8/19/3 9/20/3 10/21/3
f 5/13/3 10/21/3 6/17/3 2/11/3
f 14/7/2 13/22/2 15/14/2
f 9/20/3 8/19/3 4/9/3 7/18/3
f 12/15/2 17/23/2 16/16/2
f 11/24/2 17/23/2 12/15/2
f 17/23/2 14/7/2 18/6/2
f 14/7/2 15/14/2 19/8/2
f 19/8/2 15/14/2 20/5/2
f 8/19/3 10/21/3 5/13/3
f 10/25/1 9/26/1 11/27/1 12/28/1
f 7/18/4 13/29/4 11/30/4 9/20/4
f 18/31/5 4/32/5 8/33/5 17/34/5
f 17/23/2 11/24/2 13/22/2 14/7/2
f 1/35/4 20/36/4 16/37/4 5/38/4
f 16/39/6 17/40/6 8/41/6 5/42/6
f 10/43/5 12/44/5 15/45/5 6/46/5
f 7/18/6 6/47/6 15/48/6 13/49/6
