# Blender v3.4.1 OBJ File: ''
# www.blender.org
mtllib roadTile_264.mtl
o roadTile_264
v 0.750000 0.455000 -0.750001
v 0.750000 0.455000 -2.250000
v 0.750000 0.630000 -2.250000
v 0.750000 0.630000 -0.750001
v 3.000000 0.455000 -2.250000
v 3.000000 0.455000 -0.750001
v 3.000000 0.630000 -2.250000
v 3.000000 0.000000 -2.250000
v 3.000000 0.000000 -2.625000
v 3.000000 0.550000 -2.625000
v 3.000000 0.630000 -2.625000
v 3.000000 0.000000 -0.375000
v 3.000000 0.000000 0.000000
v 0.000000 0.000000 -0.000000
v 0.000000 0.000000 -3.000000
v 3.000000 0.000000 -3.000000
v 3.000000 0.000000 -0.750001
v 3.000000 0.550000 -0.375000
v 3.000000 0.550000 0.000000
v 3.000000 0.630000 -0.750001
v 3.000000 0.630000 -0.375000
v 0.375000 0.630000 -2.625000
v 0.375000 0.630000 -0.375000
v 0.375000 0.550000 -2.625000
v 0.375000 0.550000 -0.375000
v 3.000000 0.550000 -3.000000
v 0.000000 0.550000 -3.000000
v 0.000000 0.550000 0.000000
vt 0.750000 0.750001
vt 0.750000 2.250000
vt 0.375000 2.625000
vt 0.750000 0.455000
vt 3.000000 0.455000
vt 3.000000 0.630000
vt 0.750000 0.630000
vt 2.625000 0.000000
vt 2.625000 0.550000
vt 2.250000 0.455000
vt 2.250000 0.000000
vt 0.375000 0.630000
vt 0.375000 0.550000
vt 3.000000 0.550000
vt 3.000000 0.630000
vt 2.250000 0.630000
vt 2.625000 0.630000
vt 0.375000 0.550000
vt 0.375000 -0.000000
vt 0.750001 -0.000000
vt 0.750001 0.455000
vt -2.625000 0.630000
vt -2.625000 0.550000
vt -0.375000 0.550000
vt -0.375000 0.630000
vt 3.000000 2.250000
vt 3.000000 2.625000
vt 0.375000 0.375000
vt 3.000000 0.375000
vt 3.000000 0.750001
vt -3.000000 0.455000
vt -0.750000 0.455000
vt -0.750000 0.630000
vt -3.000000 0.630000
vt 0.750001 0.630000
vt 0.375000 0.630000
vt -3.000000 0.630000
vt -3.000000 0.550000
vt -0.375000 0.550000
vt -0.375000 0.630000
vt 0.750001 0.630000
vt 0.750001 0.455000
vt 2.250000 0.455000
vt 2.250000 0.630000
vt 3.000000 0.750001
vt 3.000000 2.250000
vt 0.750000 2.250000
vt 0.750000 0.750001
vt -0.000000 3.000000
vt -3.000000 2.625000
vt -3.000000 2.250000
vt 0.375000 2.625000
vt 0.000000 3.000000
vt 0.000000 0.000000
vt -0.000000 0.550000
vt -0.000000 0.000000
vt 3.000000 -0.000000
vt 3.000000 0.550000
vt -3.000000 0.750001
vt -3.000000 0.375000
vt -3.000000 0.000000
vt -3.000000 3.000000
vt 3.000000 2.625000
vt 3.000000 3.000000
vt 3.000000 0.000000
vt 0.375000 0.375000
vt 3.000000 0.375000
vt 0.000000 0.550000
vt 0.000000 -0.000000
vt 3.000000 0.000000
vt 3.000000 0.550000
vt -3.000000 0.550000
vt -3.000000 0.000000
vt 0.000000 0.000000
vt 0.000000 0.550000
vt -3.000000 0.550000
vt -3.000000 0.000000
vn 0.0000 1.0000 0.0000
vn 0.0000 0.0000 1.0000
vn 1.0000 0.0000 0.0000
vn -1.0000 0.0000 0.0000
vn 0.0000 0.0000 -1.0000
vn 0.0000 -1.0000 -0.0000
usemtl Stone.220
s 1
f 4/1/1 3/2/1 22/3/1
f 2/4/2 5/5/2 7/6/2 3/7/2
f 9/8/3 10/9/3 5/10/3 8/11/3
f 23/12/2 25/13/2 18/14/2 21/15/2
f 7/16/3 5/10/3 10/9/3 11/17/3
f 18/18/3 12/19/3 17/20/3 6/21/3
f 22/22/4 24/23/4 25/24/4 23/25/4
f 3/2/1 7/26/1 11/27/1
f 23/28/1 21/29/1 4/1/1
f 21/29/1 20/30/1 4/1/1
f 3/2/1 11/27/1 22/3/1
f 23/28/1 4/1/1 22/3/1
f 6/31/5 1/32/5 4/33/5 20/34/5
f 20/35/3 21/36/3 18/18/3 6/21/3
f 11/37/5 10/38/5 24/39/5 22/40/5
f 4/41/3 1/42/3 2/43/3 3/44/3
usemtl Water.044
f 6/45/1 5/46/1 2/47/1 1/48/1
f 6/21/3 17/20/3 8/11/3 5/10/3
usemtl Grass.121
f 15/49/6 9/50/6 8/51/6
f 24/52/1 27/53/1 28/54/1
f 28/55/2 14/56/2 13/57/2 19/58/2
f 8/51/6 17/59/6 14/56/6 15/49/6
f 17/59/6 12/60/6 14/56/6
f 12/60/6 13/61/6 14/56/6
f 15/49/6 16/62/6 9/50/6
f 24/52/1 10/63/1 26/64/1
f 28/54/1 19/65/1 25/66/1
f 19/65/1 18/67/1 25/66/1
f 24/52/1 26/64/1 27/53/1
f 28/54/1 25/66/1 24/52/1
f 19/68/3 13/69/3 12/19/3 18/18/3
f 16/70/3 26/71/3 10/9/3 9/8/3
f 26/72/5 16/73/5 15/74/5 27/75/5
f 27/76/4 15/77/4 14/56/4 28/55/4
