# Blender v3.4.1 OBJ File: ''
# www.blender.org
mtllib roadTile_270.mtl
o roadTile_270
v 0.000000 1.730000 -0.750000
v 0.000000 1.700000 -0.750000
v 0.000000 1.400000 -0.750000
v 0.000000 1.400000 -2.250000
v 0.000000 1.700000 -2.250000
v 0.000000 1.730000 -2.250000
v 0.000000 1.730000 -3.000000
v 0.000000 1.100001 -3.000000
v 0.000000 1.100000 0.000000
v 0.000000 1.730000 0.000000
v 3.000000 0.600000 -0.750000
v 3.000000 0.630000 -0.750000
v 3.000000 0.600000 -2.250000
v 3.000000 0.630000 -2.250000
v 3.000000 0.300000 -2.250000
v 3.000000 0.300000 -0.750000
v 3.000000 0.630000 0.000000
v 3.000000 0.000000 -0.000000
v 3.000000 0.000000 -3.000000
v 3.000000 0.630000 -3.000000
vt -2.250000 1.400000
vt -3.000000 1.100000
vt 0.000000 1.100000
vt 0.750000 0.300000
vt 0.000000 0.000000
vt 3.000000 0.000000
vt 0.000000 1.730000
vt -0.750000 1.730000
vt -0.750000 1.700000
vt 3.000000 0.630000
vt 2.250000 0.600000
vt 2.250000 0.300000
vt -2.250000 1.730000
vt -3.000000 1.730000
vt -2.250000 1.700000
vt -0.750000 1.400000
vt 0.750000 -2.599750
vt 0.750000 0.595561
vt -0.000000 0.595561
vt -0.000000 -2.599750
vt -3.000000 0.630000
vt -3.000000 0.000000
vt -0.000000 1.100000
vt -0.000000 1.730000
vt 2.250000 0.630000
vt 0.750000 0.600000
vt 0.000000 0.630000
vt 0.750000 0.630000
vt 3.000000 0.630000
vt 3.000000 -0.000000
vt 2.250000 0.595561
vt 2.250000 -2.599750
vt 3.000000 -2.599750
vt 3.000000 0.595561
vt 3.000000 0.630000
vt 0.000000 1.730000
vt 0.000000 1.700000
vt 3.000000 0.600000
vt -3.000000 0.630000
vt -3.000000 0.600000
vt -0.000000 1.700000
vt -0.000000 1.730000
vt -0.000000 -2.816630
vt 0.000000 0.378680
vt -3.000000 0.378680
vt -3.000000 -2.816630
vt 0.750000 -2.610080
vt 2.250000 -2.610080
vt 2.250000 0.585233
vt 0.750000 0.585233
vn -1.0000 0.0000 0.0000
vn 1.0000 -0.0000 0.0000
vn 0.3443 0.9389 0.0000
vn 0.0000 0.0000 -1.0000
vn 0.0000 -0.0000 1.0000
vn -0.3443 -0.9389 -0.0000
usemtl Stone.226
s 1
f 4/1/1 8/2/1 9/3/1
f 16/4/2 18/5/2 19/6/2
f 10/7/1 1/8/1 2/9/1
f 19/6/2 20/10/2 13/11/2 15/12/2
f 6/13/1 7/14/1 5/15/1
f 9/3/1 10/7/1 2/9/1 3/16/1
f 9/3/1 3/16/1 4/1/1
f 12/17/3 1/18/3 10/19/3 17/20/3
f 20/21/4 19/22/4 8/23/4 7/24/4
f 20/10/2 14/25/2 13/11/2
f 11/26/2 17/27/2 18/5/2 16/4/2
f 12/28/2 17/27/2 11/26/2
f 17/29/5 10/7/5 9/3/5 18/30/5
f 19/6/2 15/12/2 16/4/2
f 6/31/3 14/32/3 20/33/3 7/34/3
f 14/35/5 6/36/5 5/37/5 13/38/5
f 12/39/4 11/40/4 2/41/4 1/42/4
f 18/43/6 9/44/6 8/45/6 19/46/6
f 5/15/1 7/14/1 8/2/1 4/1/1
usemtl Asphalt.184
f 3/16/1 2/9/1 5/15/1 4/1/1
f 11/47/3 13/48/3 5/49/3 2/50/3
f 15/12/2 13/11/2 11/26/2 16/4/2
