# Blender v3.4.1 OBJ File: ''
# www.blender.org
mtllib roadTile_174.mtl
o roadTile_174
v 0.000000 0.000000 -0.000000
v 0.750000 0.000000 -0.000000
v 0.750000 0.455000 0.000000
v 0.750000 0.550000 0.000000
v 0.000000 0.550000 0.000000
v 3.000000 0.000000 -3.000000
v 3.000000 0.000000 0.000000
v 0.000000 0.000000 -3.000000
v 0.750000 0.000000 -3.000000
v 3.000000 0.455000 -3.000000
v 3.000000 0.455000 0.000000
v 0.750000 0.455000 -3.000000
v 0.000000 0.550000 -3.000000
v 0.750000 0.550000 -3.000000
vt 0.750000 0.455000
vt 0.750000 0.550000
vt 0.000000 0.550000
vt 0.000000 0.550000
vt -0.750000 0.455000
vt -0.750000 0.000000
vt 0.000000 0.000000
vt -0.000000 3.000000
vt -0.750000 3.000000
vt -0.750000 0.000000
vt -0.000000 0.000000
vt 0.000000 3.000000
vt 0.000000 0.000000
vt 0.750000 0.000000
vt 0.750000 3.000000
vt 3.000000 0.455000
vt 3.000000 0.550000
vt 0.000000 0.550000
vt 0.000000 0.455000
vt -0.750000 0.550000
vt 0.750000 0.000000
vt -3.000000 0.000000
vt -3.000000 3.000000
vt -3.000000 0.550000
vt -3.000000 0.000000
vt 0.750000 0.000000
vt 3.000000 0.000000
vt 3.000000 3.000000
vt 0.750000 3.000000
vt 3.000000 0.000000
vt 3.000000 0.455000
vt 3.000000 0.000000
vt 3.000000 0.455000
vt 0.000000 0.455000
vt 0.000000 0.000000
vt -3.000000 0.455000
vt -3.000000 0.000000
vn -0.0000 -0.0000 1.0000
vn 0.0000 0.0000 -1.0000
vn -0.0000 -1.0000 -0.0000
vn 0.0000 1.0000 0.0000
vn 1.0000 0.0000 0.0000
vn -1.0000 0.0000 -0.0000
usemtl Grass.080
s 1
f 3/1/1 4/2/1 5/3/1
f 13/4/2 12/5/2 9/6/2 8/7/2
f 8/8/3 9/9/3 2/10/3 1/11/3
f 13/12/4 5/13/4 4/14/4 14/15/4
f 12/16/5 14/17/5 4/18/5 3/19/5
f 14/20/2 12/5/2 13/4/2
f 1/11/1 2/21/1 3/1/1 5/3/1
f 7/22/3 2/10/3 9/9/3 6/23/3
f 13/24/6 8/25/6 1/11/6 5/3/6
usemtl Water.014
f 3/26/4 11/27/4 10/28/4 12/29/4
f 2/21/1 7/30/1 11/31/1 3/1/1
f 6/32/5 10/33/5 11/34/5 7/35/5
f 10/36/2 6/37/2 9/6/2 12/5/2
