# Blender v3.4.1 OBJ File: ''
# www.blender.org
mtllib roadTile_259.mtl
o roadTile_259
v 3.000000 1.385560 -1.741110
v 3.000000 1.410000 -1.500000
v 0.000000 1.410000 -1.500000
v 0.000000 1.385560 -1.741110
v 3.000000 1.650000 -3.000000
v 3.000000 1.385560 -1.258890
v 3.000000 1.650000 0.000000
v 3.000000 1.313220 -1.027600
v 3.000000 1.195930 -0.815525
v 3.000000 1.038460 -0.631311
v 3.000000 0.847222 -0.482450
v 3.000000 0.000000 -0.000000
v 0.000000 1.650000 0.000000
v 0.000000 0.000000 -0.000000
v 0.000000 0.847222 -0.482450
v 0.000000 1.038460 -0.631311
v 0.000000 1.195930 -0.815525
v 0.000000 1.313220 -1.027600
v 0.000000 1.385560 -1.258890
v 0.000000 1.650000 -3.000000
v 0.000000 0.000000 -3.000000
v 3.000000 0.000000 -3.000000
v 0.000000 0.630000 -2.625000
v 0.000000 0.300000 -2.250000
v 0.000000 0.300000 -0.750000
v 0.000000 0.630000 -0.375000
v 3.000000 0.630000 -0.375000
v 3.000000 0.300000 -0.750000
v 3.000000 0.300000 -2.250000
v 3.000000 0.600000 -2.250000
v 3.000000 0.630000 -2.625000
v 3.000000 0.847222 -2.517550
v 3.000000 1.038460 -2.368690
v 3.000000 1.139910 -2.250000
v 3.000000 1.195930 -2.184480
v 3.000000 1.275000 -2.041500
v 3.000000 1.313220 -1.972400
v 0.000000 1.313220 -1.972400
v 3.000000 1.275000 -0.958498
v 0.000000 1.275000 -0.958498
v 3.000000 1.139910 -0.750000
v 0.000000 1.139910 -0.750000
v 0.000000 1.275000 -2.041500
v 0.000000 1.195930 -2.184480
v 0.000000 1.139910 -2.250000
v 0.000000 1.038460 -2.368690
v 0.000000 0.847222 -2.517550
v 3.000000 0.630000 -2.250000
v 0.000000 0.630000 -2.250000
v 0.000000 0.600000 -2.250000
v 0.000000 0.600000 -0.750000
v 3.000000 0.600000 -0.750000
v 3.000000 0.630000 -0.750000
v 0.000000 0.630000 -0.750000
vt 3.000000 1.650000
vt 1.500000 1.410000
vt 1.741110 1.385560
vt 1.258890 1.385560
vt 0.000000 1.650000
vt 1.027600 1.313220
vt 0.815525 1.195930
vt 0.631311 1.038460
vt 0.482450 0.847222
vt 0.000000 -0.000000
vt 0.000000 1.650000
vt -0.482450 0.847222
vt -0.000000 -0.000000
vt -0.631311 1.038460
vt -0.815525 1.195930
vt -1.027600 1.313220
vt -1.258890 1.385560
vt -3.000000 1.650000
vt -3.000000 -0.000000
vt -2.625000 0.630000
vt -2.250000 0.300000
vt -0.750000 0.300000
vt -0.375000 0.630000
vt 0.375000 0.630000
vt 0.750000 0.300000
vt 3.000000 -0.000000
vt 2.250000 0.300000
vt 2.250000 0.600000
vt 2.625000 0.630000
vt 2.517550 0.847222
vt 2.368690 1.038460
vt 2.250000 1.139910
vt 2.184480 1.195930
vt 2.041500 1.275000
vt 1.972400 1.313220
vt -1.741110 1.385560
vt -1.972400 1.313220
vt -1.500000 1.410000
vt 0.958498 1.275000
vt 0.750000 1.139910
vt -0.750000 1.139910
vt -0.958498 1.275000
vt -2.041500 1.275000
vt -2.184480 1.195930
vt -2.250000 1.139910
vt -2.368690 1.038460
vt -2.517550 0.847222
vt 2.250000 0.630000
vt -2.250000 0.600000
vt -2.250000 0.630000
vt 0.750000 0.600000
vt 0.750000 0.630000
vt -0.750000 0.630000
vt -0.750000 0.600000
vt 3.000000 1.650000
vt 3.000000 -0.000000
vt 0.000000 -1.125770
vt 3.000000 -1.125770
vt 3.000000 -0.969623
vt 0.000000 -0.969623
vt 0.000000 -1.592470
vt 3.000000 -1.592470
vt 3.000000 -1.350130
vt 0.000000 -1.350130
vt 0.000000 0.000000
vt 3.000000 0.000000
vt 3.000000 3.000000
vt -0.000000 3.000000
vt -3.000000 -0.000000
vt -0.000000 -0.000000
vt -0.000000 1.650000
vt -3.000000 1.650000
vt -0.000000 0.973302
vt -3.000000 0.973302
vt -3.000000 0.730957
vt -0.000000 0.730957
vt 0.000000 0.375000
vt 3.000000 0.375000
vt 3.000000 0.750000
vt 0.000000 0.750000
vt 0.000000 1.634570
vt -3.000000 1.634570
vt -3.000000 1.392230
vt 0.000000 1.392230
vt 0.000000 -1.169400
vt 3.000000 -1.169400
vt 3.000000 -1.090440
vt 0.000000 -1.090440
vt -0.000000 0.629999
vt -3.000000 0.629999
vt -3.000000 0.599999
vt -0.000000 0.599999
vt 0.000000 -1.332780
vt 3.000000 -1.332780
vt 0.000000 1.615080
vt -3.000000 1.615080
vt -3.000000 1.372740
vt 0.000000 1.372740
vt -0.000000 1.207240
vt -3.000000 1.207240
vt -3.000000 0.964897
vt -0.000000 0.964897
vt 0.000000 -0.599168
vt 3.000000 -0.599168
vt 3.000000 -0.356823
vt 0.000000 -0.356823
vt 3.000000 -0.883421
vt 0.000000 -0.883421
vt -0.000000 1.310780
vt -3.000000 1.310780
vt -3.000000 1.154640
vt -0.000000 1.154640
vt -0.000000 1.455840
vt -3.000000 1.455840
vt -3.000000 1.292450
vt -0.000000 1.292450
vt 0.000000 0.599997
vt 3.000000 0.599997
vt 3.000000 0.629997
vt 0.000000 0.629997
vt 0.000000 -0.877864
vt 3.000000 -0.877864
vt 3.000000 -0.635520
vt 0.000000 -0.635520
vt -0.000000 1.396980
vt -3.000000 1.396980
vt 0.000000 2.250000
vt 3.000000 2.250000
vt 3.000000 2.625000
vt 0.000000 2.625000
vt -0.000000 1.534800
vt -3.000000 1.534800
vt -3.000000 0.000000
vt 0.000000 3.000000
vt -3.000000 3.000000
vt 0.000000 -1.490490
vt 3.000000 -1.490490
vt 3.000000 -1.248150
vt 0.000000 -1.248150
vt 0.000000 0.750000
vt 3.000000 0.750000
vt 3.000000 2.250000
vt 0.000000 2.250000
vn 1.0000 -0.0000 0.0000
vn -1.0000 0.0000 0.0000
vn -1.0000 -0.0001 -0.0001
vn 0.6244 0.0000 -0.7811
vn -0.2364 0.0000 0.9717
vn 0.0000 -0.0000 1.0000
vn 0.0000 -0.6907 0.7231
vn 0.0000 -0.7601 0.6498
vn 0.0000 -0.9797 0.2007
vn 0.0000 -1.0000 0.0000
vn 0.0000 1.0000 0.0000
vn 0.0000 0.0000 -1.0000
vn 0.0000 -0.5315 -0.8470
vn 0.0000 -0.4434 -0.8963
vn 0.0000 -0.9797 -0.2007
vn 0.0000 -0.8751 0.4840
vn 0.0000 -0.9194 0.3933
vn 0.0000 -0.8218 0.5698
vn 0.0000 -0.9194 -0.3933
vn 0.0000 -0.6907 -0.7231
vn 0.0000 -0.4434 0.8963
vn 0.0000 -0.5315 0.8470
vn 0.0000 -0.7601 -0.6498
vn 0.0000 -0.8751 -0.4840
vn 0.0000 -0.8218 -0.5698
usemtl Stone.215
s 1
f 5/1/1 2/2/1 1/3/1
f 5/1/1 6/4/1 2/2/1
f 7/5/1 6/4/1 5/1/1
f 6/4/1 7/5/1 8/6/1
f 8/6/1 7/5/1 9/7/1
f 9/7/1 7/5/1 10/8/1
f 10/8/1 7/5/1 11/9/1
f 11/9/1 7/5/1 12/10/1
f 13/11/2 15/12/2 14/13/2
f 15/12/2 13/11/2 16/14/2
f 16/14/2 13/11/2 17/15/2
f 17/15/2 13/11/2 18/16/2
f 18/16/2 13/11/2 19/17/2
f 19/17/2 13/11/2 20/18/2
f 21/19/2 23/20/2 20/18/2
f 21/19/2 24/21/2 23/20/2
f 21/19/2 25/22/2 24/21/2
f 14/13/2 25/22/2 21/19/2
f 25/22/2 14/13/2 26/23/2
f 14/13/2 15/12/2 26/23/2
f 11/9/1 12/10/1 27/24/1
f 12/10/1 28/25/1 27/24/1
f 28/25/1 12/10/1 22/26/1
f 28/25/1 22/26/1 29/27/1
f 29/27/1 22/26/1 30/28/1
f 30/28/1 22/26/1 31/29/1
f 5/1/1 31/29/1 22/26/1
f 5/1/1 32/30/1 31/29/1
f 5/1/1 33/31/1 32/30/1
f 5/1/1 34/32/1 33/31/1
f 5/1/1 35/33/1 34/32/1
f 5/1/1 36/34/1 35/33/1
f 5/1/1 37/35/1 36/34/1
f 5/1/1 1/3/1 37/35/1
f 4/36/2 20/18/2 38/37/2
f 3/38/2 20/18/2 4/36/2
f 19/17/2 20/18/2 3/38/2
f 8/6/1 9/7/1 39/39/1
f 9/7/1 10/8/1 41/40/1
f 16/14/2 17/15/2 42/41/2
f 17/15/2 18/16/2 40/42/3
f 38/37/2 20/18/2 43/43/2
f 43/43/2 20/18/2 44/44/2
f 44/44/2 20/18/2 45/45/2
f 45/45/2 20/18/2 46/46/2
f 46/46/2 20/18/2 47/47/2
f 47/47/2 20/18/2 23/20/2
f 31/29/1 48/48/1 30/28/1
f 23/20/2 50/49/2 49/50/2
f 50/49/2 23/20/2 24/21/2
f 52/51/4 53/52/1 28/25/1
f 25/22/2 54/53/2 51/54/5
f 25/22/2 26/23/2 54/53/2
f 27/24/1 28/25/1 53/52/1
f 7/55/6 13/11/6 14/13/6 12/56/6
f 46/57/7 33/58/7 34/59/8 45/60/8
f 4/61/9 1/62/9 2/63/10 3/64/10
f 13/65/11 7/66/11 5/67/11 20/68/11
f 22/69/12 21/70/12 20/71/12 5/72/12
f 15/73/13 11/74/13 27/75/14 26/76/14
f 26/77/11 27/78/11 53/79/11 54/80/11
f 3/81/10 2/82/10 6/83/15 19/84/15
f 43/85/16 36/86/16 37/87/17 38/88/17
f 54/89/12 53/90/12 52/91/12 51/92/12
f 44/93/18 35/94/18 36/86/16 43/85/16
f 19/95/15 6/96/15 8/97/19 18/98/19
f 16/99/20 10/100/20 11/101/13 15/102/13
f 23/103/21 31/104/21 32/105/22 47/106/22
f 45/60/8 34/59/8 35/107/18 44/108/18
f 42/109/23 41/110/23 10/111/20 16/112/20
f 40/113/24 39/114/24 9/115/25 17/116/25
f 50/117/6 30/118/6 48/119/6 49/120/6
f 47/121/22 32/122/22 33/123/7 46/124/7
f 17/125/25 9/126/25 41/110/23 42/109/23
f 49/127/11 48/128/11 31/129/11 23/130/11
f 18/131/19 8/132/19 39/114/24 40/113/24
f 12/133/10 14/13/10 21/134/10 22/135/10
f 38/136/17 37/137/17 1/138/9 4/139/9
usemtl Asphalt.176
f 29/27/1 30/28/1 52/51/4 28/25/1
f 25/22/2 51/54/5 50/49/2 24/21/2
f 51/140/11 52/141/11 30/142/11 50/143/11
