# Blender v3.4.1 OBJ File: ''
# www.blender.org
mtllib roadTile_054.mtl
o roadTile_054
v 1.143840 0.600000 -1.856160
v 1.402000 0.600000 -2.082550
v 1.402000 0.550000 -2.082550
v 1.143840 0.550000 -1.856160
v 3.000000 0.600000 -2.250000
v 3.000000 0.600000 -2.625000
v 2.657370 0.600000 -2.602540
v 2.320600 0.600000 -2.535560
v 1.995460 0.600000 -2.425180
v 1.687500 0.600000 -2.273320
v 0.917447 0.600000 -1.598000
v 0.726683 0.600000 -1.312500
v 0.574816 0.600000 -1.004540
v 0.464445 0.600000 -0.679400
v 0.397457 0.600000 -0.342631
v 0.375000 0.600000 0.000000
v 0.750000 0.600000 0.000000
v 0.769249 0.600000 -0.293684
v 0.826667 0.600000 -0.582343
v 0.921271 0.600000 -0.861038
v 1.051440 0.600000 -1.125000
v 1.214950 0.600000 -1.369710
v 1.409010 0.600000 -1.590990
v 1.630290 0.600000 -1.785050
v 1.875000 0.600000 -1.948560
v 2.138960 0.600000 -2.078730
v 2.417660 0.600000 -2.173330
v 2.706320 0.600000 -2.230750
v 3.000000 0.000000 -0.000000
v 3.000000 0.000000 -2.625000
v 3.000000 0.550000 -2.625000
v 3.000000 0.300000 -2.250000
v 3.000000 0.300000 0.000000
v 0.000000 0.000000 -3.000000
v 3.000000 0.000000 -3.000000
v 0.375000 0.000000 -0.000000
v 0.000000 0.000000 -0.000000
v 3.000000 0.550000 -3.000000
v 0.000000 0.550000 -3.000000
v 0.000000 0.550000 0.000000
v 0.375000 0.550000 0.000000
v 0.397457 0.550000 -0.342631
v 0.464445 0.550000 -0.679400
v 0.574816 0.550000 -1.004540
v 0.726683 0.550000 -1.312500
v 0.917447 0.550000 -1.598000
v 1.687500 0.550000 -2.273320
v 1.995460 0.550000 -2.425180
v 2.320600 0.550000 -2.535560
v 2.657370 0.550000 -2.602540
v 0.750000 0.300000 0.000000
v 3.000000 0.600000 0.000000
vt 2.625000 -0.000000
vt 2.625000 0.550000
vt 2.250000 0.300000
vt 0.375000 0.550000
vt 0.375000 -0.000000
vt 0.750000 0.300000
vt -2.770670 0.550000
vt -2.770670 0.600000
vt -3.114040 0.600000
vt -3.114040 0.550000
vt 1.875000 1.948560
vt 2.138960 2.078730
vt 1.995460 2.425180
vt 1.687500 2.273320
vt 0.375000 0.000000
vt 0.750000 0.000000
vt 0.769249 0.293684
vt 0.397457 0.342631
vt 0.826667 0.582343
vt 0.921271 0.861038
vt 0.574816 1.004540
vt 0.464445 0.679400
vt 0.726683 1.312500
vt 1.051440 1.125000
vt 1.214950 1.369710
vt 0.917447 1.598000
vt 1.409010 1.590990
vt 1.143840 1.856160
vt 2.417660 2.173330
vt 2.320600 2.535560
vt 1.402000 2.082550
vt 1.630290 1.785050
vt 2.706320 2.230750
vt 2.657370 2.602540
vt 3.000000 2.625000
vt 3.000000 2.250000
vt 0.000000 0.300000
vt 0.000000 -0.000000
vt 0.750000 0.600000
vt 0.375000 0.600000
vt -2.083840 0.550000
vt -2.083840 0.600000
vt -2.427200 0.600000
vt -2.427200 0.550000
vt -2.821890 0.550000
vt -2.821890 0.600000
vt -3.165260 0.600000
vt -3.165260 0.550000
vt 2.250000 0.600000
vt 2.625000 0.600000
vt 3.000000 -0.000000
vt 3.000000 0.300000
vt -0.024526 0.550000
vt -0.024526 0.600000
vt -0.367893 0.600000
vt -0.367893 0.550000
vt -0.413588 0.550000
vt -0.413588 0.600000
vt -0.756954 0.600000
vt -0.756954 0.550000
vt -0.792635 0.550000
vt -0.792635 0.600000
vt -1.136000 0.600000
vt -1.136000 0.550000
vt -1.155180 0.550000
vt -1.155180 0.600000
vt -1.498550 0.600000
vt -1.498550 0.550000
vt -1.495030 0.550000
vt -1.495030 0.600000
vt -1.838390 0.600000
vt -1.838390 0.550000
vt -1.806350 0.550000
vt -1.806350 0.600000
vt -2.149720 0.600000
vt -2.149720 0.550000
vt -2.322730 0.550000
vt -2.322730 0.600000
vt -2.666090 0.600000
vt -2.666090 0.550000
vt -2.518940 0.550000
vt -2.518940 0.600000
vt -2.862300 0.600000
vt -2.862300 0.550000
vt -2.669110 0.550000
vt -2.669110 0.600000
vt -3.012470 0.600000
vt -3.012470 0.550000
vt 1.143840 1.856160
vt 1.402000 2.082550
vt 0.000000 3.000000
vt 0.000000 3.000000
vt -3.000000 2.625000
vt -3.000000 0.000000
vt -0.375000 0.000000
vt -0.000000 0.000000
vt -3.000000 3.000000
vt 0.000000 0.000000
vt 0.464445 0.679400
vt 0.375000 0.000000
vt 0.397457 0.342631
vt 3.000000 2.625000
vt 3.000000 3.000000
vt 2.657370 2.602540
vt 2.320600 2.535560
vt 0.574816 1.004540
vt 1.995460 2.425180
vt 0.726683 1.312500
vt 0.917447 1.598000
vt 1.687500 2.273320
vt 0.000000 0.550000
vt -3.000000 0.550000
vt -3.000000 0.000000
vt -0.000000 0.550000
vt -3.000000 0.550000
vt -3.000000 0.000000
vt -0.000000 0.000000
vt 3.000000 -0.000000
vt 3.000000 0.550000
vt 3.000000 0.000000
vt 3.000000 0.600000
vt 0.000000 0.600000
vn 1.0000 0.0000 0.0000
vn -0.0000 -0.0000 1.0000
vn -0.2588 0.0000 -0.9659
vn -0.1305 0.0000 -0.9914
vn -0.0000 1.0000 0.0000
vn -0.7071 0.0000 -0.7071
vn -0.6088 0.0000 -0.7934
vn -0.0654 0.0000 -0.9979
vn -0.9979 0.0000 -0.0654
vn -0.9914 0.0000 -0.1305
vn -0.9659 0.0000 -0.2588
vn -0.9239 0.0000 -0.3827
vn -0.8660 0.0000 -0.5000
vn -0.7934 0.0000 -0.6088
vn -0.5000 0.0000 -0.8660
vn -0.3827 0.0000 -0.9239
vn 0.0000 -1.0000 -0.0000
vn -1.0000 -0.0000 0.0000
vn 0.0000 0.0000 -1.0000
usemtl Stone.034
s 1
f 30/1/1 31/2/1 32/3/1
f 41/4/2 36/5/2 51/6/2
f 49/7/3 8/8/3 7/9/4 50/10/4
f 25/11/5 26/12/5 9/13/5 10/14/5
f 16/15/5 17/16/5 18/17/5 15/18/5
f 19/19/5 20/20/5 13/21/5 14/22/5
f 12/23/5 21/24/5 22/25/5 11/26/5
f 11/26/5 22/25/5 23/27/5 1/28/5
f 26/12/5 27/29/5 8/30/5 9/13/5
f 20/20/5 21/24/5 12/23/5 13/21/5
f 2/31/5 24/32/5 25/11/5 10/14/5
f 27/29/5 28/33/5 7/34/5 8/30/5
f 6/35/5 7/34/5 28/33/5 5/36/5
f 15/18/5 18/17/5 19/19/5 14/22/5
f 33/37/1 29/38/1 32/3/1
f 29/38/1 30/1/1 32/3/1
f 51/6/2 17/39/2 16/40/2 41/4/2
f 24/32/5 2/31/5 1/28/5 23/27/5
f 4/41/6 1/42/6 2/43/7 3/44/7
f 50/45/4 7/46/4 6/47/8 31/48/8
f 5/49/1 32/3/1 31/2/1 6/50/1
f 36/5/2 29/51/2 51/6/2
f 29/51/2 33/52/2 51/6/2
f 41/53/9 16/54/9 15/55/10 42/56/10
f 42/57/10 15/58/10 14/59/11 43/60/11
f 43/61/11 14/62/11 13/63/12 44/64/12
f 44/65/12 13/66/12 12/67/13 45/68/13
f 45/69/13 12/70/13 11/71/14 46/72/14
f 46/73/14 11/74/14 1/75/6 4/76/6
f 3/77/7 2/78/7 10/79/15 47/80/15
f 47/81/15 10/82/15 9/83/16 48/84/16
f 48/85/16 9/86/16 8/87/3 49/88/3
usemtl Grass.041
f 4/89/5 3/90/5 39/91/5
f 34/92/17 30/93/17 29/94/17 36/95/17
f 37/96/17 34/92/17 36/95/17
f 34/92/17 35/97/17 30/93/17
f 39/91/5 40/98/5 43/99/5
f 40/98/5 41/100/5 42/101/5
f 40/98/5 42/101/5 43/99/5
f 31/102/5 38/103/5 50/104/5
f 38/103/5 39/91/5 49/105/5
f 50/104/5 38/103/5 49/105/5
f 39/91/5 43/99/5 44/106/5
f 48/107/5 49/105/5 39/91/5
f 39/91/5 44/106/5 45/108/5
f 39/91/5 45/108/5 46/109/5
f 47/110/5 48/107/5 39/91/5
f 3/90/5 47/110/5 39/91/5
f 39/91/5 46/109/5 4/89/5
f 40/111/2 37/96/2 36/5/2 41/4/2
f 39/112/18 34/113/18 37/96/18 40/111/18
f 39/114/19 38/115/19 35/116/19 34/117/19
f 35/118/1 38/119/1 31/2/1 30/1/1
usemtl Asphalt.023
f 19/19/5 18/17/5 52/120/5
f 52/121/2 17/39/2 51/6/2 33/52/2
f 17/16/5 52/120/5 18/17/5
f 52/120/5 5/36/5 28/33/5
f 27/29/5 52/120/5 28/33/5
f 27/29/5 26/12/5 52/120/5
f 26/12/5 25/11/5 52/120/5
f 25/11/5 24/32/5 52/120/5
f 24/32/5 23/27/5 52/120/5
f 23/27/5 22/25/5 52/120/5
f 22/25/5 21/24/5 52/120/5
f 21/24/5 20/20/5 52/120/5
f 20/20/5 19/19/5 52/120/5
f 5/49/1 52/122/1 33/37/1 32/3/1
