# Blender v3.4.1 OBJ File: ''
# www.blender.org
mtllib roadTile_093.mtl
o roadTile_093
v 1.141040 0.630000 -2.755260
v 1.125000 0.630000 -3.000000
v 1.125000 0.570000 -3.000000
v 1.141040 0.570000 -2.755260
v 1.875000 0.630000 -3.000000
v 1.188890 0.630000 -2.514710
v 1.267730 0.630000 -2.282470
v 1.376200 0.630000 -2.062500
v 2.382460 0.630000 -2.062500
v 2.315140 0.630000 -2.107480
v 2.204500 0.630000 -2.204500
v 2.107480 0.630000 -2.315140
v 2.025720 0.630000 -2.437500
v 1.960640 0.630000 -2.569480
v 1.913330 0.630000 -2.708830
v 1.884620 0.630000 -2.853160
v 3.000000 0.630000 -3.000000
v 3.000000 0.000000 -3.000000
v 0.000000 0.000000 -3.000000
v 0.000000 0.630000 -3.000000
v 0.937500 0.630000 -3.000000
v 0.937500 0.570000 -3.000000
v 1.875000 0.570000 -3.000000
v 2.062500 0.570000 -3.000000
v 2.062500 0.630000 -3.000000
v 3.000000 0.000000 0.000000
v 3.000000 0.630000 -2.062500
v 3.000000 0.570000 -2.062500
v 3.000000 0.570000 -1.875000
v 3.000000 0.630000 -1.875000
v 3.000000 0.630000 -1.125000
v 3.000000 0.570000 -1.125000
v 3.000000 0.570000 -0.937500
v 3.000000 0.630000 -0.937500
v 3.000000 0.630000 0.000000
v 0.000000 0.000000 0.000000
v 0.000000 0.630000 0.000000
v 0.000000 0.630000 -0.937500
v 0.000000 0.570000 -0.937500
v 0.000000 0.570000 -1.125000
v 0.000000 0.630000 -1.125000
v 0.000000 0.630000 -1.875000
v 0.000000 0.570000 -1.875000
v 0.000000 0.570000 -2.062500
v 0.000000 0.630000 -2.062500
v 1.501490 0.570000 -1.875000
v 2.877630 0.570000 -2.070520
v 2.757360 0.570000 -2.094440
v 2.641230 0.570000 -2.133860
v 2.531250 0.570000 -2.188100
v 2.429290 0.570000 -2.256230
v 2.337090 0.570000 -2.337090
v 2.256230 0.570000 -2.429290
v 2.188100 0.570000 -2.531250
v 2.133860 0.570000 -2.641230
v 2.094440 0.570000 -2.757360
v 2.070520 0.570000 -2.877630
v 1.884620 0.570000 -2.853160
v 1.913330 0.570000 -2.708830
v 1.960640 0.570000 -2.569480
v 2.025720 0.570000 -2.437500
v 2.107480 0.570000 -2.315140
v 2.204500 0.570000 -2.204500
v 2.315140 0.570000 -2.107480
v 2.382460 0.570000 -2.062500
v 1.376200 0.570000 -2.062500
v 1.267730 0.570000 -2.282470
v 1.188890 0.570000 -2.514710
v 0.955145 0.570000 -2.730790
v 1.007780 0.570000 -2.466190
v 1.094500 0.570000 -2.210720
v 1.167590 0.570000 -2.062500
v 1.276460 0.570000 -1.875000
v 1.363710 0.570000 -1.744430
v 1.541590 0.570000 -1.541590
v 1.744430 0.570000 -1.363710
v 1.968750 0.570000 -1.213820
v 2.148860 0.570000 -1.125000
v 2.755260 0.570000 -1.141040
v 2.514710 0.570000 -1.188890
v 2.282470 0.570000 -1.267730
v 2.062500 0.570000 -1.376200
v 1.858570 0.570000 -1.512460
v 1.674170 0.570000 -1.674170
v 1.512460 0.570000 -1.858570
v 1.501490 0.630000 -1.875000
v 1.512460 0.630000 -1.858570
v 1.674170 0.630000 -1.674170
v 1.858570 0.630000 -1.512460
v 2.062500 0.630000 -1.376200
v 2.282470 0.630000 -1.267730
v 2.514710 0.630000 -1.188890
v 2.755260 0.630000 -1.141040
v 2.877630 0.630000 -2.070520
v 2.070520 0.630000 -2.877630
v 2.094440 0.630000 -2.757360
v 2.133860 0.630000 -2.641230
v 2.188100 0.630000 -2.531250
v 2.256230 0.630000 -2.429290
v 2.337090 0.630000 -2.337090
v 2.429290 0.630000 -2.256230
v 2.531250 0.630000 -2.188100
v 2.641230 0.630000 -2.133860
v 2.757360 0.630000 -2.094440
v 0.955145 0.630000 -2.730790
v 1.167590 0.630000 -2.062500
v 1.094500 0.630000 -2.210720
v 1.007780 0.630000 -2.466190
v 1.276460 0.630000 -1.875000
v 2.148860 0.630000 -1.125000
v 1.968750 0.630000 -1.213820
v 1.744430 0.630000 -1.363710
v 1.541590 0.630000 -1.541590
v 1.363710 0.630000 -1.744430
vt -0.000000 0.570000
vt -0.000000 0.630000
vt -3.000000 0.630000
vt -3.000000 0.570000
vt -1.753840 0.570000
vt -1.753840 0.630000
vt -1.999100 0.630000
vt -1.999100 0.570000
vt -2.234450 0.570000
vt -2.234450 0.630000
vt -2.479720 0.630000
vt -2.479720 0.570000
vt -1.241120 0.570000
vt -1.241120 0.630000
vt -1.486380 0.630000
vt -1.486380 0.570000
vt -2.674740 0.570000
vt -2.674740 0.630000
vt -2.920000 0.630000
vt -2.920000 0.570000
vt 1.376200 2.062500
vt 2.107480 2.315140
vt 2.025720 2.437500
vt -3.000000 0.000000
vt -1.875000 0.570000
vt -2.062500 0.570000
vt 3.000000 0.000000
vt 1.875000 0.570000
vt 1.125000 0.570000
vt 0.000000 0.000000
vt -1.125000 0.570000
vt -1.875000 0.570000
vt 2.514710 1.188890
vt 2.755260 1.141040
vt 3.000000 1.875000
vt 2.757360 2.094440
vt 2.877630 2.070520
vt 3.000000 3.000000
vt -0.000000 2.062500
vt 1.007780 2.466190
vt 0.955145 2.730790
vt 0.000000 1.125000
vt 1.744430 1.363710
vt 1.541590 1.541590
vt 1.960640 2.569480
vt 1.267730 2.282470
vt 1.125000 3.000000
vt 1.141040 2.755260
vt 1.884620 2.853160
vt 1.875000 3.000000
vt 2.382460 2.062500
vt 2.315140 2.107480
vt 2.204500 2.204500
vt 1.363710 1.744430
vt 1.276460 1.875000
vt 0.000000 1.875000
vt -0.000000 0.000000
vt -1.125000 0.570000
vt -3.000000 0.630000
vt -2.062500 0.630000
vt -0.937500 0.570000
vt -0.000000 0.630000
vt -0.937500 0.630000
vt -0.000000 0.000000
vt 0.937500 0.570000
vt 0.937500 0.630000
vt -0.000000 0.630000
vt -3.000000 3.000000
vt -3.000000 -0.000000
vt -0.000000 3.000000
vt 2.062500 0.570000
vt 3.000000 0.630000
vt 0.000000 0.630000
vt 3.000000 0.000000
vt 3.000000 0.630000
vt 2.062500 0.630000
vt -3.000000 0.000000
vt -2.062500 0.570000
vt -2.062500 0.630000
vt -3.000000 0.630000
vt 0.000000 0.000000
vt 3.000000 0.000000
vt 3.000000 0.937500
vt 0.000000 0.937500
vt -0.937500 0.570000
vt 1.913330 2.708830
vt 1.188890 2.514710
vt -0.937500 0.630000
vt 3.000000 1.125000
vt 1.501490 1.875000
vt 1.512460 1.858570
vt 1.674170 1.674170
vt 1.858570 1.512460
vt 2.062500 1.376200
vt 2.282470 1.267730
vt 3.000000 2.062500
vt 2.062500 3.000000
vt 2.070520 2.877630
vt 2.094440 2.757360
vt 2.133860 2.641230
vt 2.188100 2.531250
vt 2.256230 2.429290
vt 2.337090 2.337090
vt 2.429290 2.256230
vt 2.531250 2.188100
vt 2.641230 2.133860
vt -1.125000 0.630000
vt -1.875000 0.630000
vt 1.167590 2.062500
vt 1.094500 2.210720
vt 1.875000 0.630000
vt 1.125000 0.630000
vt -1.875000 0.630000
vt -1.125000 0.630000
vt 0.937500 3.000000
vt 0.000000 3.000000
vt 2.148860 1.125000
vt 1.968750 1.213820
vt 2.382460 2.062500
vt 1.376200 2.062500
vt 1.501490 1.875000
vt 0.412376 0.570000
vt 0.412376 0.630000
vt 0.142588 0.630000
vt 0.142588 0.570000
vt 1.094500 2.210720
vt 1.267730 2.282470
vt 1.188890 2.514710
vt 1.007780 2.466190
vt 2.133860 2.641230
vt 2.094440 2.757360
vt 1.913330 2.708830
vt 1.960640 2.569480
vt 1.498650 0.570000
vt 1.498650 0.630000
vt 1.333390 0.630000
vt 1.333390 0.570000
vt 2.932260 0.570000
vt 2.932260 0.630000
vt 2.662470 0.630000
vt 2.662470 0.570000
vt 2.382460 0.570000
vt 2.382460 0.630000
vt 1.376200 0.630000
vt 1.376200 0.570000
vt 3.000000 1.875000
vt 3.000000 2.062500
vt 2.877630 2.070520
vt 2.757360 2.094440
vt 3.000000 0.937500
vt 3.000000 1.125000
vt 2.755260 1.141040
vt 0.000000 1.125000
vt 0.000000 0.937500
vt 2.148860 1.125000
vt 1.167590 2.062500
vt 2.514710 1.188890
vt 2.282470 1.267730
vt 2.062500 1.376200
vt 1.858570 1.512460
vt 1.744430 1.363710
vt 1.968750 1.213820
vt 1.674170 1.674170
vt 1.512460 1.858570
vt 1.363710 1.744430
vt 1.541590 1.541590
vt 1.276460 1.875000
vt 0.000000 1.875000
vt 0.000000 2.062500
vt 1.875000 3.000000
vt 1.884620 2.853160
vt 2.070520 2.877630
vt 2.062500 3.000000
vt 1.141040 2.755260
vt 1.125000 3.000000
vt 0.937500 3.000000
vt 0.955145 2.730790
vt 2.107480 2.315140
vt 2.256230 2.429290
vt 2.188100 2.531250
vt 2.025720 2.437500
vt 2.531250 2.188100
vt 2.429290 2.256230
vt 2.315140 2.107480
vt 2.204500 2.204500
vt 2.337090 2.337090
vt 2.641230 2.133860
vt -0.705067 0.570000
vt -0.705067 0.630000
vt -0.724825 0.630000
vt -0.724825 0.570000
vt -0.154851 0.570000
vt -0.154851 0.630000
vt -0.400113 0.630000
vt -0.400113 0.570000
vt 0.400113 0.570000
vt 0.400113 0.630000
vt 0.154851 0.630000
vt 0.154851 0.570000
vt 0.950329 0.570000
vt 0.950329 0.630000
vt 0.705067 0.630000
vt 0.705067 0.570000
vt 1.486380 0.570000
vt 1.486380 0.630000
vt 1.241120 0.630000
vt 1.241120 0.570000
vt 1.999100 0.570000
vt 1.999100 0.630000
vt 1.753840 0.630000
vt 1.753840 0.570000
vt 0.849840 0.570000
vt 0.849840 0.630000
vt 0.692804 0.630000
vt 0.692804 0.570000
vt -1.501490 0.570000
vt -1.501490 0.630000
vt -3.000000 0.630000
vt -3.000000 0.570000
vt 2.479720 0.570000
vt 2.479720 0.630000
vt 2.234450 0.630000
vt 2.234450 0.570000
vt 2.920000 0.570000
vt 2.920000 0.630000
vt 2.674740 0.630000
vt 2.674740 0.570000
vt 2.858680 0.570000
vt 2.858680 0.630000
vt 2.736050 0.630000
vt 2.736050 0.570000
vt -2.736050 0.570000
vt -2.736050 0.630000
vt -2.858680 0.630000
vt -2.858680 0.570000
vt -2.295770 0.570000
vt -2.295770 0.630000
vt -2.418400 0.630000
vt -2.418400 0.570000
vt -1.815160 0.570000
vt -1.815160 0.630000
vt -1.937790 0.630000
vt -1.937790 0.570000
vt -1.302440 0.570000
vt -1.302440 0.630000
vt -1.425070 0.630000
vt -1.425070 0.570000
vt -0.766383 0.570000
vt -0.766383 0.630000
vt -0.889014 0.630000
vt -0.889014 0.570000
vt -0.216167 0.570000
vt -0.216167 0.630000
vt -0.338797 0.630000
vt -0.338797 0.570000
vt 0.338797 0.570000
vt 0.338797 0.630000
vt 0.216167 0.630000
vt 0.216167 0.570000
vt 0.889014 0.570000
vt 0.889014 0.630000
vt 0.766383 0.630000
vt 0.766383 0.570000
vt 1.425070 0.570000
vt 1.425070 0.630000
vt 1.302440 0.630000
vt 1.302440 0.570000
vt 1.937790 0.570000
vt 1.937790 0.630000
vt 1.815160 0.630000
vt 1.815160 0.570000
vt 2.418400 0.570000
vt 2.418400 0.630000
vt 2.295770 0.630000
vt 2.295770 0.570000
vt 2.870950 0.570000
vt 2.870950 0.630000
vt 2.723790 0.630000
vt 2.723790 0.570000
vt 1.950050 0.570000
vt 1.950050 0.630000
vt 1.802890 0.630000
vt 1.802890 0.570000
vt 1.437330 0.570000
vt 1.437330 0.630000
vt 1.290170 0.630000
vt 1.290170 0.570000
vt 0.901277 0.570000
vt 0.901277 0.630000
vt 0.754120 0.630000
vt 0.754120 0.570000
vt 0.351060 0.570000
vt 0.351060 0.630000
vt 0.203903 0.630000
vt 0.203903 0.570000
vt -0.203903 0.570000
vt -0.203903 0.630000
vt -0.351060 0.630000
vt -0.351060 0.570000
vt -0.754120 0.570000
vt -0.754120 0.630000
vt -0.835077 0.630000
vt -0.835077 0.570000
vt 2.430660 0.570000
vt 2.430660 0.630000
vt 2.283510 0.630000
vt 2.283510 0.570000
vt 1.167590 0.570000
vt 1.167590 0.630000
vt -0.000000 0.630000
vt -0.000000 0.570000
vt 2.011370 0.570000
vt 2.011370 0.630000
vt 1.741580 0.630000
vt 1.741580 0.570000
vt 2.491980 0.570000
vt 2.491980 0.630000
vt 2.222190 0.630000
vt 2.222190 0.570000
vt -0.000000 0.570000
vt -0.000000 0.630000
vt -1.276460 0.630000
vt -1.276460 0.570000
vt 2.148860 0.570000
vt 2.148860 0.630000
vt 0.000000 0.630000
vt 0.000000 0.570000
vt -1.228860 0.570000
vt -1.228860 0.630000
vt -1.429680 0.630000
vt -1.429680 0.570000
vt -0.692804 0.570000
vt -0.692804 0.630000
vt -0.962592 0.630000
vt -0.962592 0.570000
vt -0.142588 0.570000
vt -0.142588 0.630000
vt -0.412376 0.630000
vt -0.412376 0.570000
vn 0.0000 0.0000 -1.0000
vn -0.9239 0.0000 0.3827
vn -0.9659 0.0000 0.2588
vn -0.9914 0.0000 0.1305
vn -0.8969 0.0000 0.4423
vn -0.9979 0.0000 0.0654
vn -0.0000 1.0000 0.0000
vn 1.0000 0.0000 0.0000
vn -1.0000 -0.0000 0.0000
vn 0.0000 -1.0000 -0.0000
vn 0.0000 -0.0000 1.0000
vn 0.7933 0.0000 -0.6088
vn 0.7071 0.0000 -0.7071
vn 0.9239 0.0000 -0.3827
vn 0.8969 0.0000 -0.4423
vn 0.9979 0.0000 -0.0654
vn 0.9914 0.0000 -0.1305
vn -0.7935 0.0000 0.6086
vn -0.8317 0.0000 0.5553
vn -0.7071 0.0000 0.7071
vn -0.6088 0.0000 0.7934
vn -0.5000 0.0000 0.8660
vn -0.3827 0.0000 0.9239
vn -0.2588 0.0000 0.9659
vn 0.8315 0.0000 -0.5556
vn -0.1305 0.0000 0.9914
vn -0.0654 0.0000 0.9979
vn -0.8660 0.0000 0.5000
vn -0.7933 0.0000 0.6088
vn -0.6088 0.0000 0.7933
vn 0.9659 0.0000 -0.2588
vn 0.8660 0.0000 -0.5000
vn 0.7934 0.0000 -0.6087
vn 0.6087 0.0000 -0.7934
vn 0.5556 0.0000 -0.8315
vn 0.5000 0.0000 -0.8660
vn 0.4423 0.0000 -0.8969
vn 0.6088 0.0000 -0.7934
usemtl Light_Asphalt
s 1
f 39/1/1 38/2/1 34/3/1 33/4/1
f 67/5/2 7/6/2 6/7/3 68/8/3
f 68/9/3 6/10/3 1/11/4 4/12/4
f 66/13/5 8/14/5 7/15/2 67/16/2
f 4/17/4 1/18/4 2/19/6 3/20/6
usemtl Stone.073
f 8/21/7 12/22/7 13/23/7
f 18/24/1 23/25/1 24/26/1
f 18/27/8 29/28/8 32/29/8
f 36/30/9 40/31/9 43/32/9
f 92/33/7 93/34/7 30/35/7
f 104/36/7 94/37/7 17/38/7
f 45/39/7 108/40/7 105/41/7
f 41/42/7 112/43/7 113/44/7
f 13/23/7 14/45/7 7/46/7 8/21/7
f 2/47/7 1/48/7 16/49/7 5/50/7
f 8/21/7 9/51/7 10/52/7
f 8/21/7 10/52/7 11/53/7
f 12/22/7 8/21/7 11/53/7
f 114/54/7 109/55/7 42/56/7 41/42/7
f 18/24/1 19/57/1 3/58/1
f 17/59/1 18/24/1 24/26/1 25/60/1
f 19/57/1 22/61/1 3/58/1
f 18/24/1 3/58/1 23/25/1
f 20/62/1 21/63/1 22/61/1 19/57/1
f 26/64/8 18/27/8 32/29/8
f 33/65/8 26/64/8 32/29/8
f 33/65/8 34/66/8 35/67/8 26/64/8
f 18/68/10 26/69/10 36/30/10 19/70/10
f 18/27/8 28/71/8 29/28/8
f 35/72/11 37/73/11 36/30/11 26/74/11
f 17/75/8 27/76/8 28/71/8 18/27/8
f 19/77/9 36/30/9 43/32/9
f 44/78/9 19/77/9 43/32/9
f 44/78/9 45/79/9 20/80/9 19/77/9
f 37/81/7 35/82/7 34/83/7 38/84/7
f 36/30/9 39/85/9 40/31/9
f 15/86/7 16/49/7 1/48/7 6/87/7
f 37/73/9 38/88/9 39/85/9 36/30/9
f 14/45/7 15/86/7 6/87/7 7/46/7
f 31/89/7 30/35/7 93/34/7
f 30/35/7 86/90/7 87/91/7
f 88/92/7 30/35/7 87/91/7
f 88/92/7 89/93/7 30/35/7
f 89/93/7 90/94/7 30/35/7
f 90/94/7 91/95/7 30/35/7
f 91/95/7 92/33/7 30/35/7
f 27/96/7 17/38/7 94/37/7
f 17/38/7 25/97/7 95/98/7
f 96/99/7 17/38/7 95/98/7
f 96/99/7 97/100/7 17/38/7
f 97/100/7 98/101/7 17/38/7
f 98/101/7 99/102/7 17/38/7
f 99/102/7 100/103/7 17/38/7
f 100/103/7 101/104/7 17/38/7
f 101/104/7 102/105/7 17/38/7
f 102/105/7 103/106/7 17/38/7
f 103/106/7 104/36/7 17/38/7
f 40/31/9 41/107/9 42/108/9 43/32/9
f 45/39/7 106/109/7 107/110/7
f 45/39/7 107/110/7 108/40/7
f 29/28/8 30/111/8 31/112/8 32/29/8
f 5/113/1 23/25/1 3/58/1 2/114/1
f 105/41/7 21/115/7 20/116/7 45/39/7
f 41/42/7 110/117/7 111/118/7
f 41/42/7 111/118/7 112/43/7
f 113/44/7 114/54/7 41/42/7
usemtl Grey_Asphalt.005
f 65/119/7 66/120/7 46/121/7
f 74/122/12 114/123/12 113/124/13 75/125/13
f 71/126/7 67/127/7 68/128/7 70/129/7
f 55/130/7 56/131/7 59/132/7 60/133/7
f 71/134/14 107/135/14 106/136/15 72/137/15
f 22/138/16 21/139/16 105/140/17 69/141/17
f 65/142/11 9/143/11 8/144/11 66/145/11
f 46/121/7 29/146/7 65/119/7
f 29/146/7 28/147/7 47/148/7
f 29/146/7 47/148/7 48/149/7
f 29/146/7 48/149/7 65/119/7
f 33/150/7 32/151/7 79/152/7
f 40/153/7 39/154/7 78/155/7
f 39/154/7 33/150/7 78/155/7
f 72/156/7 66/120/7 67/127/7 71/126/7
f 33/150/7 79/152/7 80/157/7
f 33/150/7 80/157/7 78/155/7
f 80/157/7 81/158/7 78/155/7
f 82/159/7 83/160/7 76/161/7 77/162/7
f 84/163/7 85/164/7 74/165/7 75/166/7
f 73/167/7 46/121/7 66/120/7 72/156/7
f 43/168/7 73/167/7 72/156/7 44/169/7
f 23/170/7 58/171/7 57/172/7 24/173/7
f 56/131/7 57/172/7 58/171/7 59/132/7
f 4/174/7 3/175/7 22/176/7 69/177/7
f 62/178/7 53/179/7 54/180/7 61/181/7
f 61/181/7 54/180/7 55/130/7 60/133/7
f 76/161/7 83/160/7 84/163/7 75/166/7
f 50/182/7 51/183/7 64/184/7 65/119/7
f 70/129/7 68/128/7 4/174/7 69/177/7
f 53/179/7 62/178/7 63/185/7 52/186/7
f 78/155/7 81/158/7 82/159/7 77/162/7
f 49/187/7 50/182/7 65/119/7
f 48/149/7 49/187/7 65/119/7
f 85/188/18 87/189/18 86/190/19 46/191/19
f 84/192/20 88/193/20 87/194/18 85/195/18
f 83/196/21 89/197/21 88/198/20 84/199/20
f 82/200/22 90/201/22 89/202/21 83/203/21
f 81/204/23 91/205/23 90/206/22 82/207/22
f 80/208/24 92/209/24 91/210/23 81/211/23
f 73/212/25 109/213/25 114/214/12 74/215/12
f 46/216/1 86/217/1 30/218/1 29/219/1
f 79/220/26 93/221/26 92/222/24 80/223/24
f 32/224/27 31/225/27 93/226/26 79/227/26
f 28/228/27 27/229/27 94/230/26 47/231/26
f 57/232/4 95/233/4 25/234/6 24/235/6
f 56/236/3 96/237/3 95/238/4 57/239/4
f 55/240/2 97/241/2 96/242/3 56/243/3
f 54/244/28 98/245/28 97/246/2 55/247/2
f 53/248/29 99/249/29 98/250/28 54/251/28
f 52/252/20 100/253/20 99/254/29 53/255/29
f 51/256/30 101/257/30 100/258/20 52/259/20
f 50/260/22 102/261/22 101/262/30 51/263/30
f 49/264/23 103/265/23 102/266/22 50/267/22
f 48/268/24 104/269/24 103/270/23 49/271/23
f 47/272/26 94/273/26 104/274/24 48/275/24
f 64/184/7 51/183/7 52/186/7 63/185/7
f 23/276/16 5/277/16 16/278/17 58/279/17
f 59/280/31 15/281/31 14/282/14 60/283/14
f 60/284/14 14/285/14 13/286/32 61/287/32
f 61/288/32 13/289/32 12/290/33 62/291/33
f 62/292/33 12/293/33 11/294/13 63/295/13
f 63/296/13 11/297/13 10/298/34 64/299/34
f 64/300/34 10/301/34 9/302/35 65/303/35
f 58/304/17 16/305/17 15/306/31 59/307/31
f 74/165/7 85/164/7 46/121/7 73/167/7
f 72/308/11 106/309/11 45/310/11 44/311/11
f 70/312/31 108/313/31 107/314/14 71/315/14
f 69/316/17 105/317/17 108/318/31 70/319/31
f 43/320/1 42/321/1 109/322/1 73/323/1
f 78/324/11 110/325/11 41/326/11 40/327/11
f 77/328/36 111/329/36 110/330/37 78/331/37
f 76/332/38 112/333/38 111/334/36 77/335/36
f 75/336/13 113/337/13 112/338/38 76/339/38
