# Blender v3.4.1 OBJ File: ''
# www.blender.org
mtllib roadTile_157.mtl
o roadTile_157
v 0.769249 0.550000 -2.706320
v 0.750000 0.550000 -3.000000
v 0.000000 0.550000 -3.000000
v 0.000000 0.550000 0.000000
v 3.000000 0.550000 0.000000
v 3.000000 0.550000 -0.750000
v 2.706320 0.550000 -0.769249
v 2.417660 0.550000 -0.826667
v 2.138960 0.550000 -0.921271
v 1.875000 0.550000 -1.051440
v 1.630290 0.550000 -1.214950
v 1.409010 0.550000 -1.409010
v 1.214950 0.550000 -1.630290
v 1.051440 0.550000 -1.875000
v 0.921271 0.550000 -2.138960
v 0.826667 0.550000 -2.417660
v 0.769249 0.455000 -2.706320
v 0.750000 0.455000 -3.000000
v 3.000000 0.455000 -0.750000
v 3.000000 0.455000 -1.875000
v 2.853160 0.455000 -1.884620
v 2.708830 0.455000 -1.913330
v 2.569480 0.455000 -1.960640
v 2.437500 0.455000 -2.025720
v 2.315140 0.455000 -2.107480
v 2.204500 0.455000 -2.204500
v 2.107480 0.455000 -2.315140
v 2.025720 0.455000 -2.437500
v 1.960640 0.455000 -2.569480
v 1.913330 0.455000 -2.708830
v 1.884620 0.455000 -2.853160
v 1.875000 0.455000 -3.000000
v 0.826667 0.455000 -2.417660
v 0.921271 0.455000 -2.138960
v 1.051440 0.455000 -1.875000
v 1.214950 0.455000 -1.630290
v 1.409010 0.455000 -1.409010
v 1.630290 0.455000 -1.214950
v 1.875000 0.455000 -1.051440
v 2.138960 0.455000 -0.921271
v 2.417660 0.455000 -0.826667
v 2.706320 0.455000 -0.769249
v 3.000000 0.000000 -0.750000
v 3.000000 0.000000 -1.875000
v 3.000000 0.000000 0.000000
v 0.000000 0.000000 -0.000000
v 0.000000 0.000000 -3.000000
v 0.750000 0.000000 -3.000000
v 1.875000 0.000000 -3.000000
v 3.000000 0.000000 -3.000000
v 3.000000 0.455000 -3.000000
vt 0.000000 0.000000
vt 1.409010 1.409010
vt 1.214950 1.630290
vt -1.875000 3.000000
vt -3.000000 3.000000
vt -3.000000 1.875000
vt 0.750000 0.455000
vt 0.750000 0.550000
vt 0.000000 0.550000
vt 0.769249 2.706320
vt 0.750000 3.000000
vt 0.000000 3.000000
vt 3.000000 0.000000
vt 2.138960 0.921271
vt 3.000000 0.750000
vt 2.706320 0.769249
vt 2.417660 0.826667
vt 0.826667 2.417660
vt 0.921271 2.138960
vt 1.051440 1.875000
vt 1.875000 1.051440
vt 1.630290 1.214950
vt -3.000000 0.750000
vt -0.000000 0.000000
vt -0.750000 3.000000
vt -3.000000 -0.000000
vt -0.000000 3.000000
vt 0.000000 0.550000
vt -0.750000 0.455000
vt -0.750000 0.000000
vt 0.000000 0.000000
vt -2.944520 0.550000
vt -2.944520 0.455000
vt -2.650210 0.455000
vt -2.650210 0.550000
vt -2.504240 0.550000
vt -2.504240 0.455000
vt -2.209930 0.455000
vt -2.209930 0.550000
vt -2.023630 0.550000
vt -2.023630 0.455000
vt -1.729310 0.455000
vt -1.729310 0.550000
vt -1.510910 0.550000
vt -1.510910 0.455000
vt -1.216600 0.455000
vt -1.216600 0.550000
vt -0.974855 0.550000
vt -0.974855 0.455000
vt -0.680541 0.455000
vt -0.680541 0.550000
vt -0.424639 0.550000
vt -0.424639 0.455000
vt -0.130325 0.455000
vt -0.130325 0.550000
vt 0.130325 0.550000
vt 0.130325 0.455000
vt 0.424639 0.455000
vt 0.424639 0.550000
vt 0.680541 0.550000
vt 0.680541 0.455000
vt 0.974855 0.455000
vt 0.974855 0.550000
vt 1.216600 0.550000
vt 1.216600 0.455000
vt 1.510910 0.455000
vt 1.510910 0.550000
vt 1.729310 0.550000
vt 1.729310 0.455000
vt 2.023630 0.455000
vt 2.023630 0.550000
vt 2.209930 0.550000
vt 2.209930 0.455000
vt 2.504240 0.455000
vt 2.504240 0.550000
vt 3.000000 0.550000
vt -0.000000 0.550000
vt 3.000000 0.000000
vt -0.750000 0.550000
vt -3.000000 0.550000
vt -3.000000 0.000000
vt 0.000000 0.000000
vt 0.750000 0.000000
vt 2.650210 0.550000
vt 2.650210 0.455000
vt 2.944520 0.455000
vt 2.944520 0.550000
vt 0.750000 3.000000
vt 0.769249 2.706320
vt 1.884620 2.853160
vt 1.875000 3.000000
vt 2.138960 0.921271
vt 2.569480 1.960640
vt 2.437500 2.025720
vt 1.875000 1.051440
vt 1.913330 2.708830
vt 0.826667 2.417660
vt 1.051440 1.875000
vt 1.214950 1.630290
vt 2.107480 2.315140
vt 2.025720 2.437500
vt 2.853160 1.884620
vt 2.708830 1.913330
vt 2.417660 0.826667
vt 2.706320 0.769249
vt 1.409010 1.409010
vt 2.204500 2.204500
vt 3.000000 0.750000
vt 3.000000 1.875000
vt 1.630290 1.214950
vt 2.315140 2.107480
vt 1.960640 2.569480
vt 0.921271 2.138960
vt 1.875000 0.000000
vt 1.875000 0.455000
vt -1.875000 0.455000
vt -1.875000 -0.000000
vt 3.000000 3.000000
vt -3.000000 0.455000
vt -3.000000 -0.000000
vt 3.000000 0.000000
vt 3.000000 0.455000
vn -0.0000 1.0000 0.0000
vn 0.0000 -1.0000 -0.0000
vn 1.0000 -0.0000 0.0000
vn 0.0000 0.0000 -1.0000
vn 0.0654 0.0000 -0.9979
vn 0.1305 0.0000 -0.9914
vn 0.2588 0.0000 -0.9659
vn 0.3827 0.0000 -0.9239
vn 0.5000 0.0000 -0.8660
vn 0.6088 0.0000 -0.7934
vn 0.7071 0.0000 -0.7071
vn 0.7934 0.0000 -0.6088
vn 0.8660 0.0000 -0.5000
vn 0.9239 0.0000 -0.3827
vn 0.9659 0.0000 -0.2588
vn 0.9914 0.0000 -0.1305
vn -0.0000 -0.0000 1.0000
vn -1.0000 0.0000 -0.0000
vn 0.9979 0.0000 -0.0654
usemtl Grass.063
s 1
f 4/1/1 12/2/1 13/3/1
f 49/4/2 50/5/2 44/6/2
f 19/7/3 6/8/3 5/9/3
f 1/10/1 2/11/1 3/12/1
f 4/1/1 5/13/1 9/14/1
f 5/13/1 6/15/1 7/16/1
f 5/13/1 7/16/1 8/17/1
f 1/10/1 3/12/1 16/18/1
f 3/12/1 4/1/1 15/19/1
f 16/18/1 3/12/1 15/19/1
f 5/13/1 8/17/1 9/14/1
f 14/20/1 15/19/1 4/1/1
f 4/1/1 9/14/1 10/21/1
f 4/1/1 10/21/1 11/22/1
f 13/3/1 14/20/1 4/1/1
f 4/1/1 11/22/1 12/2/1
f 43/23/2 46/24/2 48/25/2 44/6/2
f 43/23/2 45/26/2 46/24/2
f 46/24/2 47/27/2 48/25/2
f 48/25/2 49/4/2 44/6/2
f 3/28/4 18/29/4 48/30/4 47/31/4
f 6/32/5 19/33/5 42/34/6 7/35/6
f 7/36/6 42/37/6 41/38/7 8/39/7
f 8/40/7 41/41/7 40/42/8 9/43/8
f 9/44/8 40/45/8 39/46/9 10/47/9
f 10/48/9 39/49/9 38/50/10 11/51/10
f 11/52/10 38/53/10 37/54/11 12/55/11
f 12/56/11 37/57/11 36/58/12 13/59/12
f 13/60/12 36/61/12 35/62/13 14/63/13
f 14/64/13 35/65/13 34/66/14 15/67/14
f 15/68/14 34/69/14 33/70/15 16/71/15
f 16/72/15 33/73/15 17/74/16 1/75/16
f 5/76/17 4/77/17 46/24/17 45/78/17
f 2/79/4 18/29/4 3/28/4
f 46/24/18 4/77/18 3/80/18 47/81/18
f 45/82/3 43/83/3 19/7/3 5/9/3
f 1/84/16 17/85/16 18/86/19 2/87/19
usemtl Sand.004
f 18/88/1 17/89/1 31/90/1 32/91/1
f 40/92/1 23/93/1 24/94/1 39/95/1
f 30/96/1 31/90/1 17/89/1 33/97/1
f 35/98/1 36/99/1 27/100/1 28/101/1
f 21/102/1 22/103/1 41/104/1 42/105/1
f 37/106/1 26/107/1 27/100/1 36/99/1
f 19/108/1 20/109/1 21/102/1 42/105/1
f 22/103/1 23/93/1 40/92/1 41/104/1
f 37/106/1 38/110/1 25/111/1 26/107/1
f 35/98/1 28/101/1 29/112/1 34/113/1
f 29/112/1 30/96/1 33/97/1 34/113/1
f 19/7/3 43/83/3 44/114/3 20/115/3
f 24/94/1 25/111/1 38/110/1 39/95/1
f 48/30/4 18/29/4 32/116/4 49/117/4
usemtl Water.007
f 22/103/1 21/102/1 51/118/1
f 51/119/4 50/120/4 49/117/4 32/116/4
f 50/121/3 51/122/3 20/115/3 44/114/3
f 20/109/1 51/118/1 21/102/1
f 51/118/1 32/91/1 31/90/1
f 30/96/1 51/118/1 31/90/1
f 30/96/1 29/112/1 51/118/1
f 29/112/1 28/101/1 51/118/1
f 28/101/1 27/100/1 51/118/1
f 27/100/1 26/107/1 51/118/1
f 26/107/1 25/111/1 51/118/1
f 25/111/1 24/94/1 51/118/1
f 24/94/1 23/93/1 51/118/1
f 23/93/1 22/103/1 51/118/1
