# Blender v3.4.1 OBJ File: ''
# www.blender.org
mtllib roadTile_051.mtl
o roadTile_051
v 3.000000 0.600000 0.000000
v 3.000000 0.300000 0.000000
v 3.000000 0.300000 -3.000000
v 3.000000 0.600001 -3.000000
v 0.750000 0.600000 0.000000
v 0.750000 0.300000 0.000000
v 0.375000 1.730000 0.000000
v 0.375000 1.650000 0.000000
v 0.375000 0.000000 -0.000000
v 3.000000 0.000000 0.000000
v 0.750000 1.730000 0.000000
v 0.375000 0.630000 -3.000000
v 0.375000 0.550000 -3.000000
v 0.750000 0.630000 -3.000000
v 0.750000 0.600001 -3.000000
v 0.750000 0.300000 -3.000000
v 3.000000 0.000000 -3.000000
v 0.375000 0.000000 -3.000000
v 0.000000 0.000000 -0.000000
v 0.000000 0.000000 -3.000000
v 0.000000 1.650000 0.000000
v 0.000000 0.550000 -3.000000
vt 3.000000 0.600000
vt 0.750000 0.600000
vt 0.750000 0.300000
vt 3.000000 0.300000
vt -0.750000 0.600000
vt -3.000000 0.600000
vt -3.000000 0.300000
vt -0.750000 0.300000
vt 0.750000 0.000000
vt 3.000000 0.000000
vt 3.000000 3.000000
vt 0.750000 3.000000
vt 3.000000 0.600000
vt 0.000000 0.600000
vt 0.000000 0.300000
vt 3.000000 0.300000
vt 0.375000 0.000000
vt 0.375000 1.650000
vt -3.000000 0.000000
vt -0.375000 0.000000
vt 0.750000 1.730000
vt 0.375000 1.730000
vt 3.000000 0.000000
vt -0.375000 0.550000
vt -3.000000 0.630000
vt -3.000000 0.550000
vt -0.000000 1.650000
vt -0.000000 1.730000
vt 0.000000 0.000000
vt 3.000000 0.000000
vt -0.375000 0.630000
vt -0.750000 0.630000
vt -0.750000 -2.599750
vt -0.375000 -2.599750
vt -0.375000 0.595561
vt -0.750000 0.595561
vt 0.000000 0.600000
vt 3.000000 0.600000
vt 3.000000 0.630000
vt 0.000000 1.730000
vt 0.000000 1.650000
vt -0.000000 0.000000
vt -0.000000 3.000000
vt -0.375000 3.000000
vt -0.375000 0.000000
vt -3.000000 0.550000
vt -3.000000 0.000000
vt -3.000000 0.000000
vt -3.000000 3.000000
vt -0.375000 -2.627290
vt 0.000000 -2.627290
vt -0.000000 0.568020
vt -0.375000 0.568020
vt 0.000000 -0.000000
vt 0.000000 0.550000
vn -0.0000 -0.0000 1.0000
vn 0.0000 0.0000 -1.0000
vn 0.0000 1.0000 0.0000
vn 1.0000 0.0000 0.0000
vn -1.0000 -0.0000 0.0000
vn 0.0000 0.9389 -0.3443
vn -0.0000 -1.0000 -0.0000
usemtl Asphalt.020
s 1
f 1/1/1 5/2/1 6/3/1 2/4/1
f 15/5/2 4/6/2 3/7/2 16/8/2
f 5/9/3 1/10/3 4/11/3 15/12/3
f 4/13/4 1/14/4 2/15/4 3/16/4
usemtl Stone.031
f 9/17/1 5/2/1 8/18/1
f 17/19/2 18/20/2 16/8/2
f 11/21/1 7/22/1 8/18/1
f 9/17/1 10/23/1 6/3/1
f 10/23/1 2/4/1 6/3/1
f 6/3/1 5/2/1 9/17/1
f 5/2/1 11/21/1 8/18/1
f 16/8/2 18/20/2 13/24/2 15/5/2
f 12/25/5 13/26/5 8/27/5 7/28/5
f 3/7/2 17/19/2 16/8/2
f 10/29/4 17/30/4 3/16/4 2/15/4
f 12/31/2 14/32/2 15/5/2 13/24/2
f 14/33/6 12/34/6 7/35/6 11/36/6
f 5/37/4 15/38/4 14/39/4 11/40/4
usemtl Grass.038
f 21/41/1 19/42/1 9/17/1 8/18/1
f 20/43/7 18/44/7 9/45/7 19/42/7
f 22/46/5 20/47/5 19/42/5 21/41/5
f 10/48/7 9/45/7 18/44/7 17/49/7
f 13/50/6 22/51/6 21/52/6 8/53/6
f 20/54/2 22/55/2 13/24/2 18/20/2
