# Blender v3.4.1 OBJ File: ''
# www.blender.org
mtllib roadTile_118.mtl
o roadTile_118
v 2.625000 0.600000 0.000000
v 2.625000 0.600001 -3.000000
v 0.375000 0.600001 -3.000000
v 0.375000 0.600000 0.000000
v 2.625000 0.300000 0.000000
v 2.625000 0.300000 -3.000000
v 0.375000 0.300000 0.000000
v 0.000000 1.730000 0.000000
v 0.000000 0.000000 -0.000000
v 2.625000 0.000000 0.000000
v 0.375000 1.730000 0.000000
v 0.000000 0.630000 -3.000000
v 0.000000 0.000000 -3.000000
v 0.375000 0.630000 -3.000000
v 0.375000 0.300000 -3.000000
v 2.625000 0.000000 -3.000000
vt 3.000000 0.600000
vt 0.000000 0.600000
vt 0.000000 0.300000
vt 3.000000 0.300000
vt 2.625000 0.600000
vt 0.375000 0.600000
vt 0.375000 0.300000
vt 2.625000 0.300000
vt -0.375000 0.600000
vt -2.625000 0.600000
vt -2.625000 0.300000
vt -0.375000 0.300000
vt 0.375000 0.000000
vt 2.625000 0.000000
vt 2.625000 3.000000
vt 0.375000 3.000000
vt -0.000000 0.000000
vt -2.625000 0.000000
vt 0.000000 0.000000
vt 0.375000 1.730000
vt 0.000000 1.730000
vt 2.625000 0.000000
vt 0.000000 0.600000
vt 3.000000 0.600000
vt 3.000000 0.630000
vt 0.000000 1.730000
vt 0.000000 0.000000
vt 3.000000 0.000000
vt 0.000000 0.630000
vt -0.375000 0.630000
vt -2.625000 -0.000000
vt -0.000000 3.000000
vt -2.625000 3.000000
vt -3.000000 0.630000
vt -3.000000 0.000000
vt -0.375000 -2.599750
vt 0.000000 -2.599750
vt -0.000000 0.595561
vt -0.375000 0.595561
vn 1.0000 0.0000 0.0000
vn -0.0000 -0.0000 1.0000
vn 0.0000 0.0000 -1.0000
vn 0.0000 1.0000 0.0000
vn -0.0000 -1.0000 -0.0000
vn -1.0000 0.0000 -0.0000
vn 0.0000 0.9389 -0.3443
usemtl Asphalt.072
s 1
f 2/1/1 1/2/1 5/3/1 6/4/1
f 1/5/2 4/6/2 7/7/2 5/8/2
f 3/9/3 2/10/3 6/11/3 15/12/3
f 4/13/4 1/14/4 2/15/4 3/16/4
usemtl Stone.098
f 7/7/2 4/6/2 9/17/2
f 16/18/3 13/19/3 15/12/3
f 11/20/2 8/21/2 4/6/2
f 8/21/2 9/17/2 4/6/2
f 9/17/2 10/22/2 7/7/2
f 10/22/2 5/8/2 7/7/2
f 4/23/1 3/24/1 14/25/1 11/26/1
f 10/27/1 16/28/1 6/4/1 5/3/1
f 3/9/3 15/12/3 13/19/3 12/29/3
f 12/29/3 14/30/3 3/9/3
f 6/11/3 16/18/3 15/12/3
f 10/31/5 9/17/5 13/32/5 16/33/5
f 9/17/6 8/21/6 12/34/6 13/35/6
f 14/36/7 12/37/7 8/38/7 11/39/7
