# Blender v3.4.1 OBJ File: ''
# www.blender.org
mtllib roadTile_156.mtl
o roadTile_156
v 0.187500 0.630000 -1.128610
v 0.000000 0.630000 -1.253890
v 0.000000 0.550000 -1.253890
v 0.187500 0.550000 -1.128610
v 0.000000 0.630000 -1.703930
v 0.847406 0.630000 -0.803178
v 1.544140 0.630000 -0.566667
v 2.265790 0.630000 -0.423123
v 3.000000 0.630000 -0.375000
v 3.000000 0.630000 -0.750000
v 2.314740 0.630000 -0.794914
v 1.641200 0.630000 -0.928889
v 0.990912 0.630000 -1.149630
v 0.375000 0.630000 -1.453370
v 0.000000 0.600000 -1.703930
v 0.000000 0.300000 -1.703930
v 0.000000 0.300000 -3.000000
v 0.000000 0.000000 -3.000000
v 0.000000 0.000000 -1.253890
v 0.000000 0.600001 -3.000000
v 0.754448 0.600001 -3.000000
v 0.754448 0.300000 -3.000000
v 1.468970 0.000000 -3.000000
v 0.754448 0.630000 -3.000000
v 1.468970 0.630000 -3.000000
v 1.468970 0.550000 -3.000000
v 0.000000 0.000000 0.000000
v 3.000000 0.000000 -3.000000
v 3.000000 0.000000 -2.625000
v 3.000000 0.000000 -0.375000
v 3.000000 0.000000 -0.000000
v 0.000000 0.550000 0.000000
v 3.000000 0.550000 0.000000
v 3.000000 0.550000 -0.375000
v 2.265790 0.550000 -0.423123
v 1.544140 0.550000 -0.566667
v 0.847406 0.550000 -0.803178
v 3.000000 0.550000 -2.625000
v 3.000000 0.630000 -2.625000
v 3.000000 0.630000 -2.250000
v 3.000000 0.600000 -2.250000
v 3.000000 0.300000 -2.250000
v 3.000000 0.300000 -0.750000
v 3.000000 0.600000 -0.750000
v 3.000000 0.550000 -3.000000
v 1.708440 0.550000 -2.881910
v 2.126490 0.550000 -2.740000
v 2.559470 0.550000 -2.653870
v 1.708440 0.630000 -2.881910
v 2.559470 0.630000 -2.653870
v 2.126490 0.630000 -2.740000
v 1.125000 0.630000 -2.752400
v 1.564940 0.630000 -2.535450
v 2.029430 0.630000 -2.377780
v 2.510530 0.630000 -2.282080
v 1.125000 0.600001 -2.752400
v 0.375000 0.600000 -1.453370
v 0.990912 0.600000 -1.149630
v 1.641200 0.600000 -0.928889
v 2.314740 0.600000 -0.794914
v 2.510530 0.600000 -2.282080
v 2.029430 0.600000 -2.377780
v 1.564940 0.600000 -2.535450
vt -1.703930 0.300000
vt -3.000000 0.000000
vt -1.253890 0.000000
vt 0.375000 0.000000
vt 2.625000 0.000000
vt 0.750000 0.300000
vt 1.157420 0.600000
vt 1.157420 0.630000
vt 0.666892 0.630000
vt 0.666892 0.600000
vt -1.253890 0.550000
vt -1.703930 0.600000
vt 0.990912 1.149630
vt 0.375000 1.453370
vt 0.187500 1.128610
vt 0.847406 0.803178
vt 2.126490 2.740000
vt 2.029430 2.377780
vt 2.510530 2.282080
vt 2.559470 2.653870
vt -3.000000 0.300000
vt 0.946655 0.600000
vt 0.946655 0.630000
vt 0.495646 0.630000
vt 0.495646 0.600000
vt 1.564940 2.535450
vt 1.708440 2.881910
vt 1.468970 3.000000
vt 1.125000 2.752400
vt -1.468970 0.000000
vt -0.000000 0.000000
vt -0.754448 0.300000
vt -0.000000 0.300000
vt -1.253890 0.630000
vt -1.703930 0.630000
vt -0.754448 0.600000
vt -1.468970 0.550000
vt 0.750000 0.600000
vt 0.375000 0.550000
vt 0.009384 0.550000
vt 0.009384 0.630000
vt -0.257622 0.630000
vt -0.257622 0.550000
vt 2.625000 0.630000
vt 2.250000 0.630000
vt 2.250000 0.600000
vt 2.625000 0.550000
vt 2.250000 0.300000
vt -1.468970 0.630000
vt -0.754448 0.630000
vt 2.969050 0.550000
vt 2.969050 0.630000
vt 2.233270 0.630000
vt 2.233270 0.550000
vt 2.139710 0.550000
vt 2.139710 0.630000
vt 1.403920 0.630000
vt 1.403920 0.550000
vt -0.471120 0.550000
vt -0.471120 0.630000
vt -0.696624 0.630000
vt -0.696624 0.550000
vt 0.282148 0.600000
vt 0.282148 0.630000
vt -0.208376 0.630000
vt -0.208376 0.600000
vt 1.641200 0.928889
vt 1.544140 0.566667
vt 3.000000 2.625000
vt 3.000000 2.250000
vt 0.375000 0.630000
vt 0.750000 0.630000
vt 0.754448 3.000000
vt 0.000000 1.253890
vt 0.000000 1.703930
vt -2.380420 0.550000
vt -2.380420 0.630000
vt -2.821890 0.630000
vt -2.821890 0.550000
vt -1.551080 0.550000
vt -1.551080 0.630000
vt -1.992550 0.630000
vt -1.992550 0.550000
vt -0.691418 0.550000
vt -0.691418 0.630000
vt -1.132890 0.630000
vt -1.132890 0.550000
vt 3.000000 0.375000
vt 3.000000 0.750000
vt 2.314740 0.794914
vt 2.265790 0.423123
vt -0.593751 0.600000
vt -0.593751 0.630000
vt -1.039410 0.630000
vt -1.039410 0.600000
vt 0.306480 0.600000
vt 0.306480 0.630000
vt -0.380253 0.630000
vt -0.380253 0.600000
vt -0.568787 0.600000
vt -0.568787 0.630000
vt -1.255520 0.630000
vt -1.255520 0.600000
vt -1.428450 0.600000
vt -1.428450 0.630000
vt -2.115180 0.630000
vt -2.115180 0.600000
vt -2.257790 0.600000
vt -2.257790 0.630000
vt -2.944520 0.630000
vt -2.944520 0.600000
vt 2.846420 0.600000
vt 2.846420 0.630000
vt 2.355900 0.630000
vt 2.355900 0.600000
vt 2.017080 0.600000
vt 2.017080 0.630000
vt 1.526550 0.630000
vt 1.526550 0.600000
vt 1.280050 0.550000
vt 1.280050 0.630000
vt 0.544261 0.630000
vt 0.544261 0.550000
vt 0.404779 0.550000
vt 0.404779 0.630000
vt -0.331007 0.630000
vt -0.331007 0.550000
vt 2.314740 0.794914
vt 2.510530 2.282080
vt 2.029430 2.377780
vt 1.641200 0.928889
vt 3.000000 0.750000
vt 3.000000 2.250000
vt -0.000000 1.703930
vt 0.375000 1.453370
vt 1.125000 2.752400
vt 0.754448 3.000000
vt -0.000000 0.600000
vt 0.000000 3.000000
vt 1.564940 2.535450
vt 0.990912 1.149630
vt -3.000000 0.600000
vt 1.544140 0.566667
vt 0.847406 0.803178
vt 0.000000 0.000000
vt 2.126490 2.740000
vt 2.559470 2.653870
vt 3.000000 3.000000
vt -0.000000 1.253890
vt -1.468970 3.000000
vt -3.000000 2.625000
vt -3.000000 0.375000
vt -0.000000 3.000000
vt -3.000000 3.000000
vt 3.000000 -0.000000
vt 3.000000 0.550000
vt 0.000000 0.550000
vt 0.000000 0.000000
vt 0.000000 0.550000
vt 0.000000 0.000000
vt 3.000000 0.000000
vt 2.265790 0.423123
vt 3.000000 0.375000
vt 0.187500 1.128610
vt 0.000000 1.253890
vt -3.000000 0.000000
vt 3.000000 2.625000
vt 1.468970 3.000000
vt 1.708440 2.881910
vt 3.000000 0.000000
vt 3.000000 0.550000
vt -3.000000 0.550000
vt -3.000000 0.000000
vn -1.0000 -0.0000 0.0000
vn 1.0000 -0.0000 0.0000
vn -0.2588 0.0000 0.9659
vn -0.3827 0.0000 0.9239
vn -0.0000 1.0000 0.0000
vn 0.5556 0.0000 -0.8315
vn 0.5000 0.0000 -0.8660
vn 0.0000 0.0000 -1.0000
vn 0.4423 0.0000 -0.8969
vn 0.3827 0.0000 -0.9239
vn -0.0654 0.0000 0.9979
vn -0.1305 0.0000 0.9914
vn -0.5000 0.0000 0.8660
vn -0.5556 0.0000 0.8315
vn 0.1305 0.0000 -0.9914
vn 0.0654 0.0000 -0.9979
vn 0.2588 0.0000 -0.9659
vn -0.0000 -1.0000 -0.0000
vn 0.0000 -0.0000 1.0000
usemtl Stone.131
s 1
f 16/1/1 18/2/1 19/3/1
f 30/4/2 29/5/2 43/6/2
f 62/7/3 54/8/3 53/9/4 63/10/4
f 19/3/1 3/11/1 15/12/1 16/1/1
f 13/13/5 14/14/5 1/15/5 6/16/5
f 51/17/5 54/18/5 55/19/5 50/20/5
f 16/1/1 17/21/1 18/2/1
f 15/22/6 5/23/6 14/24/7 57/25/7
f 53/26/5 49/27/5 25/28/5 52/29/5
f 23/30/8 18/31/8 22/32/8
f 18/31/8 17/33/8 22/32/8
f 15/12/1 3/11/1 2/34/1 5/35/1
f 22/32/8 21/36/8 26/37/8 23/30/8
f 44/38/2 34/39/2 30/4/2 43/6/2
f 26/40/9 25/41/9 49/42/10 46/43/10
f 39/44/2 40/45/2 41/46/2 38/47/2
f 38/47/2 41/46/2 42/48/2 29/5/2
f 29/5/2 42/48/2 43/6/2
f 25/49/8 26/37/8 21/36/8 24/50/8
f 34/51/11 9/52/11 8/53/12 35/54/12
f 35/55/12 8/56/12 7/57/3 36/58/3
f 4/59/13 1/60/13 2/61/14 3/62/14
f 63/63/4 53/64/4 52/65/13 56/66/13
f 12/67/5 13/13/5 6/16/5 7/68/5
f 39/69/5 50/20/5 55/19/5 40/70/5
f 9/71/2 34/39/2 44/38/2 10/72/2
f 24/73/5 52/29/5 25/28/5
f 2/74/5 1/15/5 14/14/5 5/75/5
f 48/76/15 50/77/15 39/78/16 38/79/16
f 47/80/17 51/81/17 50/82/15 48/83/15
f 46/84/10 49/85/10 51/86/17 47/87/17
f 51/17/5 49/27/5 53/26/5 54/18/5
f 9/88/5 10/89/5 11/90/5 8/91/5
f 8/91/5 11/90/5 12/67/5 7/68/5
f 56/92/13 52/93/13 24/94/14 21/95/14
f 57/96/7 14/97/7 13/98/10 58/99/10
f 58/100/10 13/101/10 12/102/17 59/103/17
f 59/104/17 12/105/17 11/106/15 60/107/15
f 60/108/15 11/109/15 10/110/16 44/111/16
f 41/112/11 40/113/11 55/114/12 61/115/12
f 61/116/12 55/117/12 54/118/3 62/119/3
f 36/120/3 7/121/3 6/122/4 37/123/4
f 37/124/4 6/125/4 1/126/13 4/127/13
usemtl Asphalt.104
f 60/128/5 61/129/5 62/130/5 59/131/5
f 44/132/5 41/133/5 61/129/5 60/128/5
f 15/134/5 57/135/5 56/136/5 21/137/5
f 20/138/8 21/36/8 22/32/8 17/33/8
f 21/137/5 20/139/5 15/134/5
f 63/140/5 56/136/5 57/135/5 58/141/5
f 59/131/5 62/130/5 63/140/5 58/141/5
f 15/12/1 20/142/1 17/21/1 16/1/1
f 42/48/2 41/46/2 44/38/2 43/6/2
usemtl Grass.062
f 36/143/5 37/144/5 32/145/5
f 47/146/5 48/147/5 45/148/5
f 19/149/18 23/150/18 29/151/18 30/152/18
f 19/149/18 18/153/18 23/150/18
f 23/150/18 28/154/18 29/151/18
f 31/155/19 33/156/19 32/157/19 27/158/19
f 33/159/2 31/160/2 30/4/2 34/39/2
f 32/145/5 33/161/5 35/162/5
f 33/161/5 34/163/5 35/162/5
f 4/164/5 3/165/5 32/145/5
f 37/144/5 4/164/5 32/145/5
f 32/145/5 35/162/5 36/143/5
f 27/158/18 19/149/18 30/152/18 31/166/18
f 38/167/5 45/148/5 48/147/5
f 45/148/5 26/168/5 46/169/5
f 47/146/5 45/148/5 46/169/5
f 28/170/2 45/171/2 38/47/2 29/5/2
f 23/30/8 26/37/8 45/172/8 28/173/8
f 32/157/1 3/11/1 19/3/1 27/158/1
