# Blender v3.4.1 OBJ File: ''
# www.blender.org
mtllib roadTile_073.mtl
o roadTile_073
v 0.750000 0.600000 0.000000
v 0.769249 0.600000 -0.293684
v 0.769249 0.630000 -0.293684
v 0.750000 0.630000 0.000000
v 3.000000 0.600000 0.000000
v 3.000000 0.600000 -2.250000
v 2.706320 0.600000 -2.230750
v 2.417660 0.600000 -2.173330
v 2.138960 0.600000 -2.078730
v 1.875000 0.600000 -1.948560
v 1.630290 0.600000 -1.785050
v 1.409010 0.600000 -1.590990
v 1.214950 0.600000 -1.369710
v 1.051440 0.600000 -1.125000
v 0.921271 0.600000 -0.861038
v 0.826667 0.600000 -0.582343
v 3.000000 0.300000 0.000000
v 3.000000 0.300000 -2.250000
v 0.750000 0.300000 0.000000
v 0.000000 0.630000 0.000000
v 0.000000 0.000000 -0.000000
v 3.000000 0.000000 -0.000000
v 0.826667 0.630000 -0.582343
v 0.921271 0.630000 -0.861038
v 1.051440 0.630000 -1.125000
v 1.214950 0.630000 -1.369710
v 1.409010 0.630000 -1.590990
v 1.630290 0.630000 -1.785050
v 1.875000 0.630000 -1.948560
v 2.138960 0.630000 -2.078730
v 2.417660 0.630000 -2.173330
v 2.706320 0.630000 -2.230750
v 3.000000 0.630000 -2.250000
v 3.000000 0.630000 -3.000000
v 0.000000 0.630000 -3.000000
v 3.000000 0.000000 -3.000000
v 0.000000 0.000000 -3.000000
vt 1.409010 1.590990
vt 1.630290 1.785050
vt 0.000000 3.000000
vt 2.250000 0.300000
vt 0.000000 -0.000000
vt 3.000000 -0.000000
vt -0.000000 0.630000
vt -3.000000 0.630000
vt -3.000000 0.000000
vt -0.000000 0.000000
vt 3.000000 -0.000000
vt 3.000000 0.300000
vt 0.750000 0.300000
vt 0.750000 0.600000
vt 0.750000 0.630000
vt 0.000000 0.630000
vt 0.000000 -0.000000
vt 3.000000 0.630000
vt 2.250000 0.600000
vt 0.000000 0.000000
vt 0.921271 0.861038
vt 0.750000 -0.000000
vt 0.769249 0.293684
vt 0.826667 0.582343
vt 3.000000 2.250000
vt 3.000000 3.000000
vt 2.706320 2.230750
vt 2.138960 2.078730
vt 2.417660 2.173330
vt 1.051440 1.125000
vt 1.214950 1.369710
vt 1.875000 1.948560
vt 0.817161 0.630000
vt 0.817161 0.600000
vt 1.111480 0.600000
vt 1.111480 0.630000
vt 1.179710 0.630000
vt 1.179710 0.600000
vt 1.474020 0.600000
vt 1.474020 0.630000
vt 1.519550 0.630000
vt 1.519550 0.600000
vt 1.813870 0.600000
vt 1.813870 0.630000
vt 1.830880 0.630000
vt 1.830880 0.600000
vt 2.125190 0.600000
vt 2.125190 0.630000
vt -3.000000 0.630000
vt -3.000000 0.000000
vt 0.049052 0.630000
vt 0.049052 0.600000
vt 0.343366 0.600000
vt 0.343366 0.630000
vt 2.543460 0.630000
vt 2.543460 0.600000
vt 2.837780 0.600000
vt 2.837780 0.630000
vt 2.693630 0.630000
vt 2.693630 0.600000
vt 2.987950 0.600000
vt 2.987950 0.630000
vt 2.795200 0.630000
vt 2.795200 0.600000
vt 3.089510 0.600000
vt 3.089510 0.630000
vt 2.846420 0.630000
vt 2.846420 0.600000
vt 3.140730 0.600000
vt 3.140730 0.630000
vt 0.000000 3.000000
vt -3.000000 3.000000
vt -3.000000 0.000000
vt 2.250000 0.630000
vt 0.000000 0.300000
vt 0.438114 0.630000
vt 0.438114 0.600000
vt 0.732428 0.600000
vt 0.732428 0.630000
vt 2.347250 0.630000
vt 2.347250 0.600000
vt 2.641570 0.600000
vt 2.641570 0.630000
vt 2.108360 0.630000
vt 2.108360 0.600000
vt 2.402680 0.600000
vt 2.402680 0.630000
vt 0.826667 0.582343
vt 0.769249 0.293684
vt 3.000000 0.000000
vt 0.000000 0.600000
vt 0.750000 -0.000000
vt 3.000000 2.250000
vt 2.706320 2.230750
vt 2.417660 2.173330
vt 2.138960 2.078730
vt 1.875000 1.948560
vt 1.630290 1.785050
vt 1.409010 1.590990
vt 1.214950 1.369710
vt 1.051440 1.125000
vt 0.921271 0.861038
vt 3.000000 0.600000
vn 0.0000 1.0000 0.0000
vn 1.0000 0.0000 0.0000
vn 0.0000 0.0000 -1.0000
vn 0.0000 -0.0000 1.0000
vn 0.9659 0.0000 0.2588
vn 0.9239 0.0000 0.3827
vn 0.8660 0.0000 0.5000
vn 0.7934 0.0000 0.6088
vn 0.7071 0.0000 0.7071
vn -1.0000 -0.0000 0.0000
vn 0.9979 0.0000 0.0654
vn 0.9914 0.0000 0.1305
vn 0.5000 0.0000 0.8660
vn 0.3827 0.0000 0.9239
vn 0.2588 0.0000 0.9659
vn 0.1305 0.0000 0.9914
vn 0.0654 0.0000 0.9979
vn 0.0000 -1.0000 -0.0000
vn 0.6088 0.0000 0.7934
usemtl Stone.053
s 1
f 27/1/1 28/2/1 35/3/1
f 18/4/2 22/5/2 36/6/2
f 35/7/3 34/8/3 36/9/3 37/10/3
f 22/11/4 17/12/4 19/13/4
f 1/14/4 4/15/4 20/16/4
f 21/17/4 22/11/4 19/13/4
f 18/4/2 36/6/2 34/18/2 6/19/2
f 35/3/1 20/20/1 24/21/1
f 20/20/1 4/22/1 3/23/1
f 20/20/1 3/23/1 23/24/1
f 33/25/1 34/26/1 32/27/1
f 34/26/1 35/3/1 30/28/1
f 32/27/1 34/26/1 31/29/1
f 31/29/1 34/26/1 30/28/1
f 20/20/1 23/24/1 24/21/1
f 35/3/1 24/21/1 25/30/1
f 35/3/1 25/30/1 26/31/1
f 29/32/1 30/28/1 35/3/1
f 28/2/1 29/32/1 35/3/1
f 35/3/1 26/31/1 27/1/1
f 23/33/5 16/34/5 15/35/6 24/36/6
f 24/37/6 15/38/6 14/39/7 25/40/7
f 25/41/7 14/42/7 13/43/8 26/44/8
f 26/45/8 13/46/8 12/47/9 27/48/9
f 35/49/10 37/50/10 21/17/10 20/16/10
f 4/51/11 1/52/11 2/53/12 3/54/12
f 29/55/13 10/56/13 9/57/14 30/58/14
f 30/59/14 9/60/14 8/61/15 31/62/15
f 31/63/15 8/64/15 7/65/16 32/66/16
f 32/67/16 7/68/16 6/69/17 33/70/17
f 21/17/18 37/71/18 36/72/18 22/73/18
f 33/74/2 6/19/2 34/18/2
f 18/4/2 17/75/2 22/5/2
f 20/16/4 21/17/4 19/13/4 1/14/4
f 3/76/12 2/77/12 16/78/5 23/79/5
f 28/80/19 11/81/19 10/82/13 29/83/13
f 27/84/9 12/85/9 11/86/19 28/87/19
usemtl Asphalt.042
f 16/88/1 2/89/1 5/90/1
f 6/19/2 5/91/2 17/75/2 18/4/2
f 1/92/1 5/90/1 2/89/1
f 5/90/1 6/93/1 7/94/1
f 8/95/1 5/90/1 7/94/1
f 8/95/1 9/96/1 5/90/1
f 9/96/1 10/97/1 5/90/1
f 10/97/1 11/98/1 5/90/1
f 11/98/1 12/99/1 5/90/1
f 12/99/1 13/100/1 5/90/1
f 13/100/1 14/101/1 5/90/1
f 14/101/1 15/102/1 5/90/1
f 15/102/1 16/88/1 5/90/1
f 5/103/4 1/14/4 19/13/4 17/12/4
