# Blender v3.4.1 OBJ File: ''
# www.blender.org
mtllib roadTile_278.mtl
o roadTile_278
v 2.250000 0.600001 -3.000000
v 2.250000 0.600000 -2.250000
v 2.250000 0.630000 -2.250000
v 2.250000 0.630000 -3.000000
v 2.250000 0.600000 0.000000
v 2.250000 0.600000 -0.750000
v 3.000000 0.600000 -0.750000
v 3.000000 0.600000 -2.250000
v 0.750000 0.600001 -3.000000
v 0.750000 0.600000 -2.250000
v 0.000000 0.600000 -2.250000
v 0.000000 0.600000 -0.750000
v 0.750000 0.600000 -0.750000
v 0.750000 0.600000 0.000000
v 2.250000 0.630000 0.000000
v 2.250000 0.630000 -0.750000
v 0.000000 0.000000 -0.000000
v 3.000000 0.000000 -0.000000
v 3.000000 0.630000 0.000000
v 2.250000 0.300000 0.000000
v 0.750000 0.300000 0.000000
v 0.750000 0.630000 0.000000
v 0.000000 0.630000 0.000000
v 0.000000 0.000000 -3.000000
v 3.000000 0.000000 -3.000000
v 0.000000 0.630000 -3.000000
v 0.000000 0.630000 -0.750000
v 0.000000 0.300000 -0.750000
v 0.000000 0.300000 -2.250000
v 0.000000 0.630000 -2.250000
v 0.750000 0.630000 -3.000000
v 0.750000 0.300000 -3.000000
v 2.250000 0.300000 -3.000000
v 3.000000 0.630000 -3.000000
v 0.750000 0.630000 -2.250000
v 3.000000 0.630000 -2.250000
v 3.000000 0.300000 -2.250000
v 3.000000 0.300000 -0.750000
v 3.000000 0.630000 -0.750000
v 0.750000 0.630000 -0.750000
vt -0.000000 0.000000
vt 3.000000 0.000000
vt 0.750000 0.300000
vt -3.000000 0.000000
vt -0.750000 0.300000
vt -2.250000 0.300000
vt -3.000000 0.000000
vt -0.000000 0.000000
vt 0.000000 -0.000000
vt 3.000000 -0.000000
vt 2.250000 0.300000
vt -0.750000 0.630000
vt -0.750000 0.600000
vt -0.000000 0.600000
vt -0.000000 0.630000
vt 2.250000 0.600000
vt 3.000000 0.630000
vt 3.000000 0.630000
vt 2.250000 0.630000
vt 2.250000 0.600000
vt 0.750000 0.630000
vt -0.000000 0.630000
vt 0.750000 0.600000
vt 2.250000 0.300000
vt -0.750000 0.630000
vt -0.750000 0.600000
vt 0.000000 0.600000
vt 0.000000 0.630000
vt -2.250000 0.630000
vt -3.000000 0.630000
vt -2.250000 0.600000
vt -2.250000 0.300000
vt -0.750000 0.630000
vt -0.750000 0.600000
vt -0.000000 0.630000
vt -0.750000 0.630000
vt -0.750000 0.600000
vt -2.250000 0.630000
vt -3.000000 0.630000
vt -2.250000 0.600000
vt -0.750000 0.300000
vt 2.250000 0.630000
vt 2.250000 0.600000
vt 3.000000 0.600000
vt 3.000000 0.630000
vt -0.000000 0.630000
vt -0.000000 0.600000
vt 0.750000 0.600000
vt 0.750000 0.630000
vt 3.000000 2.250000
vt 3.000000 3.000000
vt 2.250000 3.000000
vt 2.250000 2.250000
vt 2.250000 0.630000
vt 2.250000 0.600000
vt 3.000000 0.600000
vt 3.000000 0.630000
vt 0.750000 0.630000
vt 0.000000 0.630000
vt 0.750000 0.600000
vt 2.250000 0.630000
vt 0.750000 0.300000
vt 0.000000 2.250000
vt 0.750000 2.250000
vt 0.750000 3.000000
vt 0.000000 3.000000
vt -3.000000 0.630000
vt -3.000000 0.600000
vt -2.250000 0.600000
vt -2.250000 0.630000
vt 2.250000 0.000000
vt 3.000000 0.000000
vt 3.000000 0.750000
vt 2.250000 0.750000
vt 0.750000 0.000000
vt 0.750000 0.750000
vt 0.000000 0.750000
vt 0.000000 0.000000
vt -3.000000 3.000000
vt -3.000000 0.000000
vt -0.000000 3.000000
vt 0.000000 0.630000
vt 0.000000 0.600000
vt 0.750000 0.600000
vt 0.750000 0.630000
vt -3.000000 0.630000
vt -3.000000 0.600000
vt -2.250000 0.600000
vt -2.250000 0.630000
vt 0.750000 0.750000
vt 0.750000 0.000000
vt 2.250000 0.000000
vt 2.250000 0.750000
vt 3.000000 2.250000
vt 2.250000 2.250000
vt 3.000000 0.750000
vt 0.750000 3.000000
vt 0.750000 2.250000
vt 2.250000 3.000000
vt 0.000000 2.250000
vt 0.000000 0.750000
vn -0.0000 -0.0000 1.0000
vn -1.0000 0.0000 -0.0000
vn 0.0000 0.0000 -1.0000
vn 1.0000 -0.0000 0.0000
vn 0.0000 1.0000 0.0000
vn 0.0000 -1.0000 -0.0000
usemtl Stone.234
s 1
f 17/1/1 18/2/1 21/3/1
f 24/4/2 17/1/2 28/5/2
f 33/6/3 25/7/3 24/8/3
f 18/9/4 25/10/4 37/11/4
f 16/12/2 6/13/2 5/14/2 15/15/2
f 8/16/4 37/11/4 25/10/4 34/17/4
f 19/18/1 15/19/1 5/20/1
f 22/21/1 23/22/1 14/23/1
f 5/20/1 20/24/1 18/2/1 19/18/1
f 18/2/1 20/24/1 21/3/1
f 40/25/3 13/26/3 12/27/3 27/28/3
f 30/29/2 26/30/2 11/31/2
f 14/23/1 23/22/1 17/1/1 21/3/1
f 11/31/2 26/30/2 24/4/2 29/32/2
f 23/22/2 27/33/2 12/34/2
f 28/5/2 29/32/2 24/4/2
f 12/34/2 28/5/2 17/1/2 23/22/2
f 26/35/3 31/36/3 9/37/3
f 4/38/3 34/39/3 1/40/3
f 9/37/3 32/41/3 24/8/3 26/35/3
f 24/8/3 32/41/3 33/6/3
f 35/42/4 10/43/4 9/44/4 31/45/4
f 30/46/1 11/47/1 10/48/1 35/49/1
f 36/50/5 34/51/5 4/52/5 3/53/5
f 3/54/1 2/55/1 8/56/1 36/57/1
f 39/58/4 19/59/4 7/60/4
f 1/40/3 34/39/3 25/7/3 33/6/3
f 34/17/4 36/61/4 8/16/4
f 37/11/4 38/62/4 18/9/4
f 30/63/5 35/64/5 31/65/5 26/66/5
f 39/67/3 7/68/3 6/69/3 16/70/3
f 15/71/5 19/72/5 39/73/5 16/74/5
f 22/75/5 40/76/5 27/77/5 23/78/5
f 25/79/6 18/80/6 17/1/6 24/81/6
f 22/82/4 14/83/4 13/84/4 40/85/4
f 7/60/4 19/59/4 18/9/4 38/62/4
f 4/86/2 1/87/2 2/88/2 3/89/2
usemtl Asphalt.190
f 13/90/5 14/91/5 5/92/5 6/93/5
f 8/94/5 2/95/5 6/93/5 7/96/5
f 9/97/5 10/98/5 2/95/5 1/99/5
f 10/98/5 11/100/5 12/101/5 13/90/5
f 2/95/5 10/98/5 13/90/5 6/93/5
f 12/34/2 11/31/2 29/32/2 28/5/2
f 9/37/3 1/40/3 33/6/3 32/41/3
f 8/16/4 7/60/4 38/62/4 37/11/4
f 5/20/1 14/23/1 21/3/1 20/24/1
