# Blender v3.4.1 OBJ File: ''
# www.blender.org
mtllib roadTile_057.mtl
o roadTile_057
v 2.071110 0.600000 -1.641200
v 1.850370 0.600000 -0.990912
v 1.850370 0.630000 -0.990912
v 2.071110 0.630000 -1.641200
v 0.000000 0.600000 0.000000
v 1.296070 0.600000 0.000000
v 1.546630 0.600000 -0.375000
v 2.205090 0.600000 -2.314740
v 2.250000 0.600001 -3.000000
v 0.000000 0.600001 -3.000000
v 0.000000 0.300000 0.000000
v 1.296070 0.300000 0.000000
v 0.000000 0.300000 -3.000000
v 2.250000 0.300000 -3.000000
v 2.250000 0.630000 -3.000000
v 2.625000 0.630000 -3.000000
v 2.625000 0.550000 -3.000000
v 2.625000 0.000000 -3.000000
v 0.000000 0.000000 -3.000000
v 2.205090 0.630000 -2.314740
v 1.296070 0.630000 0.000000
v 1.746110 0.630000 0.000000
v 1.871390 0.630000 -0.187500
v 2.196820 0.630000 -0.847406
v 2.433330 0.630000 -1.544140
v 2.576880 0.630000 -2.265790
v 1.546630 0.630000 -0.375000
v 0.000000 0.000000 0.000000
v 1.746110 0.000000 -0.000000
v 1.746110 0.550000 0.000000
v 3.000000 0.000000 -3.000000
v 3.000000 0.000000 -0.000000
v 3.000000 0.550000 -3.000000
v 2.576880 0.550000 -2.265790
v 2.433330 0.550000 -1.544140
v 2.196820 0.550000 -0.847406
v 1.871390 0.550000 -0.187500
v 3.000000 0.550000 0.000000
vt 1.296070 0.300000
vt 0.000000 0.000000
vt 1.746110 0.000000
vt 0.000000 -0.000000
vt 0.000000 0.300000
vt -2.250000 0.300000
vt -2.625000 -0.000000
vt -2.700450 0.630000
vt -2.700450 0.600000
vt -2.013720 0.600000
vt -2.013720 0.630000
vt 0.995860 0.630000
vt 0.995860 0.550000
vt 1.731640 0.550000
vt 1.731640 0.630000
vt 1.746110 0.550000
vt 1.296070 0.600000
vt 2.576880 2.265790
vt 2.205090 2.314740
vt 2.071110 1.641200
vt 2.433330 1.544140
vt 1.850370 0.990912
vt 1.546630 0.375000
vt 1.871390 0.187500
vt 2.196820 0.847406
vt 2.625000 3.000000
vt 2.250000 3.000000
vt -2.625000 0.630000
vt -2.625000 0.550000
vt -2.250000 0.600000
vt -2.250000 0.630000
vt 0.000000 0.300000
vt 1.746110 0.630000
vt 1.296070 0.630000
vt 1.746110 0.000000
vt 1.296070 0.000000
vt -3.000000 0.000000
vt -3.000000 0.300000
vt 2.429470 0.630000
vt 2.429470 0.550000
vt 3.165260 0.550000
vt 3.165260 0.630000
vt 1.989190 0.630000
vt 1.989190 0.550000
vt 2.724980 0.550000
vt 2.724980 0.630000
vt 1.508580 0.630000
vt 1.508580 0.550000
vt 2.244360 0.550000
vt 2.244360 0.630000
vt -3.140730 0.630000
vt -3.140730 0.600000
vt -2.454000 0.600000
vt -2.454000 0.630000
vt 0.970086 0.630000
vt 0.970086 0.550000
vt 1.195590 0.550000
vt 1.195590 0.630000
vt -2.219840 0.630000
vt -2.219840 0.600000
vt -1.533110 0.600000
vt -1.533110 0.630000
vt -1.171060 0.630000
vt -1.171060 0.600000
vt -0.720056 0.600000
vt -0.720056 0.630000
vt -1.707120 0.630000
vt -1.707120 0.600000
vt -1.020390 0.600000
vt -1.020390 0.630000
vt 2.205090 2.314740
vt 2.250000 3.000000
vt -0.000000 3.000000
vt 0.000000 0.600000
vt 0.000000 -0.000000
vt 1.850370 0.990912
vt 1.296070 0.000000
vt 1.546630 0.375000
vt 2.071110 1.641200
vt -3.000000 0.600000
vt 0.000000 0.600000
vt 2.433330 1.544140
vt 2.196820 0.847406
vt 3.000000 0.000000
vt 0.000000 0.550000
vt 0.000000 -0.000000
vt 3.000000 -0.000000
vt 3.000000 0.550000
vt -1.746110 0.000000
vt -2.625000 3.000000
vt -3.000000 3.000000
vt -3.000000 0.000000
vt 0.000000 3.000000
vt 3.000000 3.000000
vt 2.576880 2.265790
vt 2.625000 3.000000
vt 1.871390 0.187500
vt 1.746110 0.000000
vt -3.000000 0.550000
vt -3.000000 -0.000000
vt 3.000000 -0.000000
vt 3.000000 0.550000
vn 0.0000 -0.0000 1.0000
vn 0.0000 0.0000 -1.0000
vn -0.9914 0.0000 -0.1305
vn -0.9659 0.0000 -0.2588
vn 0.8660 0.0000 0.5000
vn 0.9239 0.0000 0.3827
vn -0.0000 1.0000 0.0000
vn -1.0000 0.0000 0.0000
vn 0.9914 0.0000 0.1305
vn 0.9979 0.0000 0.0654
vn 0.9659 0.0000 0.2588
vn -0.9979 0.0000 -0.0654
vn 0.8315 0.0000 0.5556
vn -0.9239 0.0000 -0.3827
vn -0.8660 -0.0000 -0.5000
vn -0.8315 -0.0000 -0.5556
vn 1.0000 0.0000 0.0000
vn 0.0000 -1.0000 -0.0000
usemtl Stone.037
s 1
f 12/1/1 28/2/1 29/3/1
f 19/4/2 13/5/2 14/6/2
f 18/7/2 19/4/2 14/6/2
f 20/8/3 8/9/3 1/10/4 4/11/4
f 23/12/5 37/13/5 36/14/6 24/15/6
f 29/3/1 30/16/1 6/17/1 12/1/1
f 26/18/7 20/19/7 4/20/7 25/21/7
f 3/22/7 27/23/7 23/24/7 24/25/7
f 16/26/7 15/27/7 20/19/7 26/18/7
f 16/28/2 17/29/2 9/30/2 15/31/2
f 4/20/7 3/22/7 24/25/7 25/21/7
f 17/29/2 18/7/2 14/6/2 9/30/2
f 12/1/1 11/32/1 28/2/1
f 6/17/1 30/16/1 22/33/1 21/34/1
f 22/35/7 23/24/7 27/23/7 21/36/7
f 19/37/8 28/2/8 11/32/8 13/38/8
f 26/39/9 34/40/9 17/41/10 16/42/10
f 25/43/11 35/44/11 34/45/9 26/46/9
f 24/47/6 36/48/6 35/49/11 25/50/11
f 15/51/12 9/52/12 8/53/3 20/54/3
f 22/55/13 30/56/13 37/57/5 23/58/5
f 4/59/4 1/60/4 2/61/14 3/62/14
f 27/63/15 7/64/15 6/65/16 21/66/16
f 3/67/14 2/68/14 7/69/15 27/70/15
usemtl Asphalt.026
f 8/71/7 9/72/7 10/73/7
f 6/17/1 5/74/1 11/32/1 12/1/1
f 10/73/7 5/75/7 2/76/7
f 5/75/7 6/77/7 7/78/7
f 2/76/7 5/75/7 7/78/7
f 2/76/7 1/79/7 10/73/7
f 1/79/7 8/71/7 10/73/7
f 5/74/8 10/80/8 13/38/8 11/32/8
f 10/81/2 9/30/2 14/6/2 13/5/2
usemtl Grass.044
f 35/82/7 36/83/7 38/84/7
f 38/85/17 32/86/17 31/87/17 33/88/17
f 29/89/18 18/90/18 31/91/18 32/92/18
f 29/89/18 28/2/18 19/93/18 18/90/18
f 38/84/7 33/94/7 34/95/7
f 33/94/7 17/96/7 34/95/7
f 37/97/7 30/98/7 38/84/7
f 36/83/7 37/97/7 38/84/7
f 38/84/7 34/95/7 35/82/7
f 33/99/2 31/100/2 18/7/2 17/29/2
f 32/101/1 38/102/1 30/16/1 29/3/1
