# Blender v3.4.1 OBJ File: ''
# www.blender.org
mtllib roadTile_067.mtl
o roadTile_067
v 0.877778 0.630000 -2.470570
v 1.097070 0.630000 -3.000000
v 0.000000 0.630000 -3.000000
v 0.000000 0.630000 0.000000
v 1.097070 0.630000 0.000000
v 0.877778 0.630000 -0.529429
v 0.750000 0.630000 -1.500000
v 0.877778 0.600000 -2.470570
v 1.097070 0.600001 -3.000000
v 0.750000 0.600000 -1.500000
v 0.877778 0.600000 -0.529429
v 1.097070 0.600000 0.000000
v 3.000000 0.630000 0.000000
v 2.839190 0.630000 0.000000
v 2.839190 0.600000 0.000000
v 2.839190 0.315000 0.000000
v 1.097070 0.315000 0.000000
v 0.000000 0.000000 0.000000
v 3.000000 0.000000 -0.000000
v 3.000000 0.630000 -3.000000
v 2.839190 0.630000 -3.000000
v 2.551440 0.630000 -2.625000
v 2.326670 0.630000 -2.082340
v 2.250000 0.630000 -1.500000
v 2.326670 0.630000 -0.917657
v 2.551440 0.630000 -0.375000
v 3.000000 0.000000 -3.000000
v 0.000000 0.000000 -3.000000
v 1.097070 0.315000 -3.000000
v 2.839190 0.315000 -3.000000
v 2.839190 0.600001 -3.000000
v 2.551440 0.600000 -2.625000
v 2.551440 0.600000 -0.375000
v 2.326670 0.600000 -0.917657
v 2.250000 0.600000 -1.500000
v 2.326670 0.600000 -2.082340
vt 0.000000 3.000000
vt 0.000000 0.000000
vt 0.750000 1.500000
vt 1.097070 0.315000
vt 0.000000 0.000000
vt 3.000000 0.000000
vt 2.250000 1.500000
vt 2.326670 0.917657
vt 3.000000 0.000000
vt -1.097070 0.315000
vt -2.839190 0.315000
vt -3.000000 0.000000
vt 0.877778 2.470570
vt 1.097070 3.000000
vt 1.097070 0.000000
vt 0.877778 0.529429
vt 2.564010 0.600000
vt 2.564010 0.630000
vt 1.585060 0.630000
vt 1.585060 0.600000
vt 1.389270 0.600000
vt 1.389270 0.630000
vt 0.410326 0.630000
vt 0.410326 0.600000
vt 0.153217 0.600000
vt 0.153217 0.630000
vt -0.419832 0.630000
vt -0.419832 0.600000
vt 0.629940 0.600000
vt 0.629940 0.630000
vt 0.042572 0.630000
vt 0.042572 0.600000
vt 3.000000 0.630000
vt 2.839190 0.315000
vt 2.839190 0.630000
vt 2.839190 0.600000
vt 1.097070 0.630000
vt 0.000000 0.630000
vt 1.097070 0.600000
vt 2.839190 0.000000
vt 2.551440 0.375000
vt 3.000000 3.000000
vt 2.839190 3.000000
vt 2.551440 2.625000
vt 2.326670 2.082340
vt -3.000000 0.000000
vt 0.000000 3.000000
vt -3.000000 3.000000
vt -3.000000 0.630000
vt -3.000000 0.000000
vt -0.606115 0.600000
vt -0.606115 0.630000
vt -1.193480 0.630000
vt -1.193480 0.600000
vt 0.000000 0.630000
vt -1.097070 0.630000
vt -1.097070 0.600000
vt -2.839190 0.630000
vt -3.000000 0.630000
vt -2.839190 0.600000
vt 0.000000 0.000000
vt 1.728390 0.600000
vt 1.728390 0.630000
vt 1.255710 0.630000
vt 1.255710 0.600000
vt -3.635770 0.600000
vt -3.635770 0.630000
vt -4.108450 0.630000
vt -4.108450 0.600000
vt -2.814210 0.600000
vt -2.814210 0.630000
vt -3.401580 0.630000
vt -3.401580 0.600000
vt 3.000000 -0.000000
vt 3.000000 0.630000
vt -0.000000 0.630000
vt -0.000000 0.000000
vt -1.780850 0.600000
vt -1.780850 0.630000
vt -2.368220 0.630000
vt -2.368220 0.600000
vt 3.191470 0.600000
vt 3.191470 0.630000
vt 2.618420 0.630000
vt 2.618420 0.600000
vt 2.551440 2.625000
vt 2.839190 3.000000
vt 1.097070 3.000000
vt 1.097070 0.000000
vt 2.551440 0.375000
vt 2.326670 0.917657
vt 0.877778 0.529429
vt 2.326670 2.082340
vt 0.877778 2.470570
vt 2.250000 1.500000
vt 0.750000 1.500000
vt 2.839190 0.000000
vn -0.0000 1.0000 0.0000
vn 0.0000 -0.0000 1.0000
vn 0.0000 0.0000 -1.0000
vn 0.9659 0.0000 0.2588
vn 1.0000 0.0000 0.0000
vn 0.9659 0.0000 -0.2588
vn 0.9239 0.0000 -0.3827
vn -0.8660 0.0000 0.5000
vn -0.9659 0.0000 0.2588
vn -0.0000 -1.0000 -0.0000
vn -1.0000 0.0000 0.0000
vn -0.7934 0.0000 0.6088
vn -0.8660 0.0000 -0.5000
vn -0.7934 0.0000 -0.6088
vn -0.9659 0.0000 -0.2588
vn 0.9239 0.0000 0.3827
usemtl Stone.047
s 1
f 3/1/1 4/2/1 7/3/1
f 17/4/2 18/5/2 19/6/2
f 24/7/1 25/8/1 13/9/1
f 29/10/3 30/11/3 27/12/3
f 1/13/1 2/14/1 3/1/1
f 4/2/1 5/15/1 6/16/1
f 7/3/1 1/13/1 3/1/1
f 4/2/1 6/16/1 7/3/1
f 8/17/4 1/18/4 7/19/5 10/20/5
f 10/21/5 7/22/5 6/23/6 11/24/6
f 11/25/6 6/26/6 5/27/7 12/28/7
f 33/29/8 26/30/8 25/31/9 34/32/9
f 19/6/2 13/33/2 16/34/2
f 13/33/2 14/35/2 15/36/2
f 15/36/2 16/34/2 13/33/2
f 5/37/2 4/38/2 12/39/2
f 19/6/2 16/34/2 17/4/2
f 14/40/1 13/9/1 26/41/1
f 13/9/1 20/42/1 24/7/1
f 26/41/1 13/9/1 25/8/1
f 20/42/1 21/43/1 22/44/1
f 22/44/1 23/45/1 20/42/1
f 23/45/1 24/7/1 20/42/1
f 19/46/10 18/5/10 28/47/10 27/48/10
f 4/38/11 3/49/11 28/50/11 18/5/11
f 34/51/9 25/52/9 24/53/11 35/54/11
f 12/39/2 4/38/2 18/5/2 17/4/2
f 3/55/3 2/56/3 9/57/3
f 21/58/3 20/59/3 31/60/3
f 20/59/3 27/12/3 30/11/3
f 31/60/3 20/59/3 30/11/3
f 28/61/3 29/10/3 27/12/3
f 15/62/12 14/63/12 26/64/8 33/65/8
f 9/57/3 29/10/3 28/61/3 3/55/3
f 32/66/13 22/67/13 21/68/14 31/69/14
f 36/70/15 23/71/15 22/72/13 32/73/13
f 27/74/5 20/75/5 13/76/5 19/77/5
f 35/78/11 24/79/11 23/80/15 36/81/15
f 9/82/16 2/83/16 1/84/4 8/85/4
usemtl Asphalt.036
f 32/86/1 31/87/1 9/88/1
f 12/89/1 33/90/1 34/91/1 11/92/1
f 36/93/1 32/86/1 9/88/1 8/94/1
f 35/95/1 36/93/1 8/94/1 10/96/1
f 12/89/1 15/97/1 33/90/1
f 11/92/1 34/91/1 35/95/1 10/96/1
f 30/11/3 29/10/3 9/57/3 31/60/3
f 17/4/2 16/34/2 15/36/2 12/39/2
