# Blender v3.4.1 OBJ File: ''
# www.blender.org
mtllib roadTile_207.mtl
o roadTile_207
v 3.000000 0.000000 -0.000000
v 3.000000 0.000000 -0.375000
v 3.000000 1.650000 -0.375000
v 3.000000 1.650000 0.000000
v 0.000000 0.000000 -0.000000
v 0.000000 0.000000 -0.375000
v 0.000000 0.000000 -0.750000
v 0.000000 0.000000 -2.250000
v 0.000000 0.000000 -2.625000
v 0.000000 0.000000 -3.000000
v 3.000000 0.000000 -3.000000
v 3.000000 0.000000 -2.625000
v 3.000000 0.000000 -2.250000
v 3.000000 0.000000 -0.750000
v 2.625000 1.650000 0.000000
v 2.625000 1.100000 0.000000
v 0.375000 1.100000 0.000000
v 0.375000 1.650000 0.000000
v 0.000000 1.650000 0.000000
v 2.625000 1.650000 -0.375000
v 3.000000 1.730000 -0.375000
v 2.625000 1.730000 -0.375000
v 3.000000 0.455000 -0.750000
v 3.000000 1.730000 -0.750000
v 2.625000 1.100000 -0.750000
v 2.625000 1.730000 -0.750000
v 0.000000 0.455000 -0.750000
v 0.000000 1.730000 -0.750000
v 0.375000 1.730000 -0.750000
v 0.375000 1.100000 -0.750000
v 2.625000 1.100000 -2.250000
v 2.625000 1.730000 -2.250000
v 3.000000 0.455000 -2.250000
v 3.000000 1.730000 -2.250000
v 0.375000 1.100000 -2.250000
v 0.375000 1.730000 -2.250000
v 0.000000 1.730000 -2.250000
v 0.000000 0.455000 -2.250000
v 3.000000 1.650000 -2.625000
v 3.000000 1.730000 -2.625000
v 3.000000 1.650000 -3.000000
v 2.625000 1.650000 -3.000000
v 2.625000 1.650000 -2.625000
v 2.625000 1.730000 -3.000000
v 2.625000 1.730000 -2.625000
v 2.250000 1.730000 -3.000000
v 2.250000 1.730000 0.000000
v 2.625000 1.730000 0.000000
v 0.750000 1.730000 -3.000000
v 0.750000 1.700001 -3.000000
v 0.750000 1.400000 -3.000000
v 2.250000 1.400000 -3.000000
v 2.250000 1.700001 -3.000000
v 2.625000 1.100001 -3.000000
v 0.375000 1.100001 -3.000000
v 0.375000 1.650000 -3.000000
v 0.375000 1.730000 -3.000000
v 0.750000 1.730000 0.000000
v 0.750000 1.700000 0.000000
v 0.000000 1.730000 -0.375000
v 0.375000 1.730000 -0.375000
v 0.375000 1.730000 0.000000
v 0.375000 1.730000 -2.625000
v 0.000000 1.730000 -2.625000
v 0.000000 1.650000 -0.375000
v 0.375000 1.650000 -0.375000
v 2.250000 1.700000 0.000000
v 2.250000 1.400000 0.000000
v 0.750000 1.400000 0.000000
v 0.000000 1.650000 -2.625000
v 0.375000 1.650000 -2.625000
v 0.000000 1.650000 -3.000000
vt -0.000000 0.000000
vt -0.000000 0.375000
vt -3.000000 0.375000
vt -3.000000 0.000000
vt -3.000000 0.750000
vt -0.000000 0.750000
vt -0.000000 2.250000
vt -0.000000 2.625000
vt -3.000000 2.625000
vt -3.000000 2.250000
vt 0.375000 3.000000
vt -0.000000 3.000000
vt -0.000000 2.625000
vt 0.375000 2.625000
vt 3.000000 0.000000
vt 3.000000 1.650000
vt 2.625000 1.100000
vt 2.625000 1.650000
vt 0.375000 1.650000
vt 0.000000 1.650000
vt 0.375000 1.100000
vt 3.000000 3.000000
vt 2.625000 3.000000
vt 2.625000 2.625000
vt 3.000000 2.625000
vt -0.375000 1.650000
vt -0.375000 0.000000
vt -2.625000 1.100000
vt -3.000000 -0.000000
vt -0.000000 -0.000000
vt -0.375000 1.100000
vt -0.000001 0.000000
vt 0.374999 0.000000
vt 0.374999 0.375000
vt -0.000001 0.375000
vt 3.000000 0.000000
vt 3.000000 1.650000
vt 2.625000 1.650000
vt 2.625000 0.000000
vt 2.625000 0.000000
vt 3.000000 0.000000
vt 3.000000 0.375000
vt 2.625000 0.375000
vt -0.000000 3.000000
vt -3.000000 3.000000
vt 0.000000 1.650000
vt 0.000000 0.000000
vt 0.375000 0.000000
vt 0.375000 1.650000
vt -0.000000 1.650000
vt -0.375000 1.650000
vt -2.625000 1.650000
vt -3.000000 1.650000
vt -3.000000 1.650000
vt -3.000000 0.000000
vt -2.625000 0.000000
vt -2.625000 1.650000
vt 0.750000 0.455000
vt 2.250000 1.730000
vt 2.250000 0.455000
vt 2.625000 0.375000
vt 2.625000 0.750000
vt 2.250000 0.000000
vt 0.375000 2.625000
vt 0.375000 2.250000
vt 0.750000 3.000000
vt -0.750000 1.730000
vt -0.750000 0.455000
vt -2.250000 0.455000
vt -0.375000 1.730000
vt -0.375000 1.650000
vt 0.000000 1.650000
vt 0.000000 1.730000
vt 0.750000 1.400000
vt 0.750000 1.700000
vt 2.625000 1.730000
vt 2.625000 1.650000
vt 3.000000 1.650000
vt 3.000000 1.730000
vt 0.750000 0.000000
vt 0.750000 1.730000
vt 0.375000 1.730000
vt -2.625000 1.100000
vt -2.625000 1.730000
vt -3.000000 1.730000
vt -0.000000 0.455000
vt -0.000000 1.730000
vt -0.375000 1.100000
vt -0.375000 1.730000
vt -3.000000 0.455000
vt 3.000000 0.455000
vt 3.000000 1.730000
vt 2.625000 1.100000
vt 2.625000 1.730000
vt 0.375000 1.730000
vt 0.000000 1.730000
vt 0.375000 1.100000
vt 0.000000 0.455000
vt 2.250000 0.000000
vt 2.625000 1.730000
vt 3.000000 1.650000
vt 3.000000 1.730000
vt 2.625000 1.730000
vt 2.625000 1.650000
vt 3.000000 2.625000
vt 2.625000 2.625000
vt 2.625000 2.250000
vt 3.000000 2.250000
vt 3.000000 0.375000
vt 3.000000 0.750000
vt 2.625000 3.000000
vt 2.250000 3.000000
vt -3.000000 1.730000
vt -3.000000 1.650000
vt -2.625000 1.650000
vt -2.625000 1.730000
vt 2.625000 0.000000
vt 0.750000 1.730000
vt 0.375000 1.730000
vt -0.750000 1.700000
vt -0.375000 1.730000
vt -0.750000 1.730000
vt -0.750000 1.400000
vt -2.250000 1.400000
vt 0.000000 1.730000
vt -3.000000 1.730000
vt -3.000000 1.700000
vt 0.000000 1.700000
vt -0.000000 2.625000
vt -0.000000 2.250000
vt 0.375000 0.375000
vt 0.375000 0.000000
vt 0.750000 0.000000
vt -2.250000 1.100000
vt -0.750000 1.100000
vt -0.750000 1.730000
vt -2.250000 1.730000
vt 0.375000 0.750000
vt 0.375000 3.000000
vt -0.375000 2.250000
vt -2.625000 2.250000
vt -2.625000 0.750000
vt -0.375000 0.750000
vt -0.000000 1.650000
vt -0.000000 1.730000
vt -0.375000 1.730000
vt -0.375000 1.650000
vt -0.750000 0.000000
vt -0.375000 1.730000
vt -0.000000 0.375000
vt -0.000000 0.750000
vt 0.000000 1.730000
vt -0.000000 1.650000
vt 0.375000 1.650000
vt 0.375000 1.730000
vt -0.000000 1.700000
vt 3.000000 1.700000
vt 3.000000 1.730000
vt -0.000000 1.730000
vt -2.250000 1.700000
vt 2.250000 1.700000
vt 2.625000 1.730000
vt 2.250000 1.730000
vt 2.250000 1.400000
vt -2.250000 1.730000
vt -2.625000 1.730000
vt -0.000000 1.650000
vt 0.375000 1.650000
vt 0.375000 1.730000
vt -0.000000 1.730000
vt 0.750000 1.100000
vt 2.250000 1.100000
vt 2.250000 1.730000
vt 0.750000 1.730000
vt -2.250000 -0.000000
vt -2.250000 1.730000
vt -2.625000 1.730000
vt -3.000000 1.650000
vt -2.625000 1.650000
vt -2.625000 1.730000
vt -3.000000 1.730000
vt 2.250000 0.000000
vt 2.250000 3.000000
vt 0.750000 3.000000
vt 0.750000 0.000000
vt 3.000000 2.250000
vt 0.000000 2.250000
vt 0.000000 0.750000
vt 3.000000 0.750000
vn 0.0000 -1.0000 -0.0000
vn 0.0000 1.0000 0.0000
vn 0.0000 -0.0000 1.0000
vn -1.0000 -0.0000 0.0000
vn 0.0000 0.0000 -1.0000
vn 1.0000 0.0000 0.0000
usemtl Grass.106
s 1
f 5/1/1 6/2/1 2/3/1 1/4/1
f 14/5/1 2/3/1 6/2/1 7/6/1
f 8/7/1 9/8/1 12/9/1 13/10/1
f 14/5/1 7/6/1 8/7/1 13/10/1
f 56/11/2 72/12/2 70/13/2 71/14/2
f 1/15/3 4/16/3 16/17/3
f 4/16/3 15/18/3 16/17/3
f 18/19/3 19/20/3 17/21/3
f 19/20/3 5/1/3 17/21/3
f 41/22/2 42/23/2 43/24/2 39/25/2
f 5/1/4 19/20/4 65/26/4 6/27/4
f 54/28/5 11/29/5 10/30/5 55/31/5
f 19/32/2 18/33/2 66/34/2 65/35/2
f 11/36/6 41/37/6 39/38/6 12/39/6
f 15/40/2 4/41/2 3/42/2 20/43/2
f 9/8/1 10/44/1 11/45/1 12/9/1
f 4/46/6 1/47/6 2/48/6 3/49/6
f 10/30/5 72/50/5 55/31/5
f 72/50/5 56/51/5 55/31/5
f 42/52/5 41/53/5 54/28/5
f 41/53/5 11/29/5 54/28/5
f 17/21/3 5/1/3 1/15/3 16/17/3
f 72/54/4 10/55/4 9/56/4 70/57/4
usemtl Stone.163
f 3/49/6 2/48/6 23/58/6
f 39/38/6 34/59/6 33/60/6
f 22/61/2 26/62/2 47/63/2
f 63/64/2 36/65/2 49/66/2
f 65/26/4 28/67/4 27/68/4
f 70/57/4 9/56/4 38/69/4
f 63/70/5 71/71/5 70/72/5 64/73/5
f 69/74/3 59/75/3 18/19/3 17/21/3
f 22/76/3 20/77/3 3/78/3 21/79/3
f 14/80/6 23/58/6 2/48/6
f 23/58/6 24/81/6 3/49/6
f 24/81/6 21/82/6 3/49/6
f 25/83/5 26/84/5 24/85/5
f 27/86/5 28/87/5 30/88/5
f 28/87/5 29/89/5 30/88/5
f 25/83/5 24/85/5 23/90/5
f 33/91/3 34/92/3 31/93/3
f 34/92/3 32/94/3 31/93/3
f 36/95/3 37/96/3 35/97/3
f 37/96/3 38/98/3 35/97/3
f 25/83/5 23/90/5 27/86/5 30/88/5
f 33/60/6 13/99/6 12/39/6
f 39/38/6 40/100/6 34/59/6
f 33/60/6 12/39/6 39/38/6
f 42/101/6 44/102/6 45/103/6 43/104/6
f 40/105/2 45/106/2 32/107/2 34/108/2
f 22/61/2 21/109/2 24/110/2 26/62/2
f 45/106/2 44/111/2 46/112/2
f 40/113/5 39/114/5 43/115/5 45/116/5
f 32/107/2 45/106/2 46/112/2
f 26/62/2 32/107/2 46/112/2
f 46/112/2 47/63/2 26/62/2
f 47/63/2 48/117/2 22/61/2
f 59/75/3 58/118/3 62/119/3 18/19/3
f 35/97/3 38/98/3 33/91/3 31/93/3
f 50/120/5 56/51/5 57/121/5 49/122/5
f 55/31/5 56/51/5 50/120/5 51/123/5
f 55/31/5 51/123/5 54/28/5
f 51/123/5 52/124/5 54/28/5
f 47/125/4 46/126/4 53/127/4 67/128/4
f 63/64/2 64/129/2 37/130/2 36/65/2
f 61/131/2 62/132/2 58/133/2
f 35/134/4 30/135/4 29/136/4 36/137/4
f 29/138/2 61/131/2 58/133/2
f 36/65/2 29/138/2 58/133/2
f 58/133/2 49/66/2 36/65/2
f 49/66/2 57/139/2 63/64/2
f 35/140/1 31/141/1 25/142/1 30/143/1
f 18/144/4 62/145/4 61/146/4 66/147/4
f 27/68/4 7/148/4 6/27/4
f 65/26/4 60/149/4 28/67/4
f 27/68/4 6/27/4 65/26/4
f 60/150/2 61/131/2 29/138/2 28/151/2
f 60/152/3 65/153/3 66/154/3 61/155/3
f 59/156/6 50/157/6 49/158/6 58/159/6
f 52/124/5 53/160/5 42/52/5 54/28/5
f 67/161/3 15/18/3 48/162/3 47/163/3
f 16/17/3 15/18/3 67/161/3 68/164/3
f 16/17/3 68/164/3 17/21/3
f 68/164/3 69/74/3 17/21/3
f 53/160/5 46/165/5 44/166/5 42/52/5
f 15/167/6 20/168/6 22/169/6 48/170/6
f 25/171/6 31/172/6 32/173/6 26/174/6
f 8/175/4 38/69/4 9/56/4
f 38/69/4 37/176/4 70/57/4
f 37/176/4 64/177/4 70/57/4
f 56/178/4 71/179/4 63/180/4 57/181/4
usemtl Asphalt.134
f 67/182/2 53/183/2 50/184/2 59/185/2
f 51/123/5 50/120/5 53/160/5 52/124/5
f 68/164/3 67/161/3 59/75/3 69/74/3
usemtl Water.030
f 23/58/6 14/80/6 13/99/6 33/60/6
f 33/186/2 38/187/2 27/188/2 23/189/2
f 38/69/4 8/175/4 7/148/4 27/68/4
