# Blender v3.4.1 OBJ File: ''
# www.blender.org
mtllib roadTile_161.mtl
o roadTile_161
v 3.000000 0.600000 -2.250000
v 3.000000 0.600000 -0.750000
v 3.000000 0.300000 -0.750000
v 3.000000 0.300000 -2.250000
v 0.000000 1.700000 -2.250000
v 0.000000 1.700000 -0.750000
v 3.000000 0.630000 -2.250000
v 0.000000 1.730000 -2.250000
v 3.000000 0.000000 -0.375000
v 3.000000 0.000000 -2.625000
v 3.000000 0.550000 -2.625000
v 3.000000 0.630000 -2.625000
v 3.000000 0.630000 -0.750000
v 3.000000 0.630000 -0.375000
v 3.000000 0.550000 -0.375000
v 3.000000 0.000000 -0.000000
v 0.000000 1.100000 0.000000
v 0.000000 1.100000 -0.375000
v 0.000000 1.100001 -2.625000
v 0.000000 1.100001 -3.000000
v 3.000000 0.000000 -3.000000
v 0.000000 1.650000 0.000000
v 3.000000 0.550000 0.000000
v 0.000000 1.650000 -0.375000
v 0.000000 1.650000 -2.625000
v 0.000000 1.730000 -0.375000
v 0.000000 1.730000 -0.750000
v 0.000000 1.400000 -0.750000
v 0.000000 1.400000 -2.250000
v 0.000000 1.730000 -2.625000
v 0.000000 1.650000 -3.000000
v 3.000000 0.550000 -3.000000
vt 0.750000 -2.610080
vt 2.250000 -2.610080
vt 2.250000 0.585233
vt 0.750000 0.585233
vt -0.750000 1.400000
vt -0.750000 1.700000
vt -2.250000 1.700000
vt -2.250000 1.400000
vt 2.250000 0.300000
vt 2.250000 0.600000
vt 0.750000 0.600000
vt 0.750000 0.300000
vt 0.375000 -0.000000
vt 2.625000 -0.000000
vt -2.625000 1.100000
vt -0.375000 1.100000
vt 0.750000 -2.599750
vt 0.750000 0.595561
vt 0.375000 0.595561
vt 0.375000 -2.599750
vt 3.000000 0.630000
vt 0.000000 1.730000
vt 0.000000 1.650000
vt 3.000000 0.550000
vt -0.375000 1.650000
vt -2.250000 1.730000
vt -2.625000 1.730000
vt -2.625000 1.650000
vt 2.625000 0.630000
vt 2.250000 0.630000
vt 2.625000 0.550000
vt -3.000000 0.630000
vt -3.000000 0.550000
vt -0.000000 1.650000
vt -0.000000 1.730000
vt 0.750000 0.630000
vt 0.375000 0.630000
vt 0.375000 0.550000
vt -0.375000 1.730000
vt -0.750000 1.730000
vt 3.000000 0.630000
vt 0.000000 1.730000
vt 0.000000 1.700000
vt 3.000000 0.600000
vt -3.000000 0.630000
vt -3.000000 0.600000
vt -0.000000 1.700000
vt -0.000000 1.730000
vt 2.250000 0.595561
vt 2.250000 -2.599750
vt 2.625000 -2.599750
vt 2.625000 0.595561
vt -2.625000 -2.816630
vt -0.375000 -2.816630
vt -0.375000 0.378680
vt -2.625000 0.378680
vt -3.000000 0.378680
vt -3.000000 -2.816630
vt -0.000000 1.100000
vt -0.000000 1.650000
vt -3.000000 0.550000
vt -3.000000 0.000000
vt -0.000000 0.378680
vt -0.000000 -2.816630
vt -3.000000 1.650000
vt -3.000000 1.100000
vt 3.000000 0.000000
vt 3.000000 0.550000
vt 3.000000 0.568020
vt 2.625000 0.568020
vt 2.625000 -2.627290
vt 3.000000 -2.627290
vt 3.000000 0.550000
vt 0.000000 1.650000
vt 0.000000 1.100000
vt 3.000000 -0.000000
vt 0.000000 -2.627290
vt 0.375000 -2.627290
vt 0.375000 0.568020
vt 0.000000 0.568020
vt 0.000000 0.550000
vt 0.000000 0.000000
vn 0.3443 0.9389 0.0000
vn -1.0000 0.0000 -0.0000
vn 1.0000 -0.0000 0.0000
vn 0.0000 0.0000 1.0000
vn -0.0000 0.0000 -1.0000
vn -0.3443 -0.9389 -0.0000
usemtl Asphalt.106
s 1
f 2/1/1 1/2/1 5/3/1 6/4/1
f 28/5/2 6/6/2 5/7/2 29/8/2
f 4/9/3 1/10/3 2/11/3 3/12/3
usemtl Stone.133
f 9/13/3 10/14/3 3/12/3
f 19/15/2 18/16/2 29/8/2
f 13/17/1 27/18/1 26/19/1 14/20/1
f 14/21/4 26/22/4 24/23/4 15/24/4
f 24/25/2 6/6/2 28/5/2 18/16/2
f 5/7/2 8/26/2 30/27/2 25/28/2
f 12/29/3 7/30/3 1/10/3 11/31/3
f 11/31/3 1/10/3 4/9/3 10/14/3
f 10/14/3 4/9/3 3/12/3
f 12/32/5 11/33/5 25/34/5 30/35/5
f 2/11/3 13/36/3 14/37/3 15/38/3
f 26/39/2 27/40/2 6/6/2 24/25/2
f 5/7/2 25/28/2 19/15/2 29/8/2
f 18/16/2 28/5/2 29/8/2
f 7/41/4 8/42/4 5/43/4 1/44/4
f 13/45/5 2/46/5 6/47/5 27/48/5
f 8/49/1 7/50/1 12/51/1 30/52/1
f 3/12/3 2/11/3 15/38/3 9/13/3
usemtl Grass.067
f 10/53/6 9/54/6 18/55/6 19/56/6
f 20/57/6 21/58/6 10/53/6 19/56/6
f 20/59/5 31/60/5 32/61/5 21/62/5
f 17/63/6 18/55/6 9/54/6 16/64/6
f 25/28/2 31/65/2 20/66/2 19/15/2
f 21/67/3 32/68/3 11/31/3 10/14/3
f 31/69/1 25/70/1 11/71/1 32/72/1
f 23/73/4 22/74/4 17/75/4 16/76/4
f 23/77/1 15/78/1 24/79/1 22/80/1
f 23/81/3 16/82/3 9/13/3 15/38/3
f 22/74/2 24/25/2 18/16/2 17/75/2
