# Blender v3.4.1 OBJ File: ''
# www.blender.org
mtllib roadTile_209.mtl
o roadTile_209
v 0.000000 1.730000 -2.250000
v 0.000000 1.100000 -2.250000
v 0.000000 1.100000 0.000000
v 0.000000 1.730000 0.000000
v 0.000000 1.730000 -0.375000
v 0.000000 1.700000 -0.375000
v 0.000000 1.400000 -0.375000
v 0.000000 1.400000 -1.875000
v 0.000000 1.700000 -1.875000
v 0.000000 1.730000 -1.875000
v 2.370000 0.000000 -2.250000
v 2.370000 1.100000 -2.250000
v 3.000000 1.730000 -2.250000
v 3.000000 0.000000 -2.250000
v 2.370000 0.000000 -0.000000
v 2.370000 1.100000 0.000000
v 3.000000 0.000000 -0.000000
v 3.000000 1.730000 0.000000
v 3.000000 1.730000 -1.875000
v 3.000000 1.700000 -1.875000
v 3.000000 1.400000 -1.875000
v 3.000000 1.400000 -0.375000
v 3.000000 1.700000 -0.375000
v 3.000000 1.730000 -0.375000
vt -2.250000 1.100000
vt 0.000000 1.100000
vt -0.375000 1.400000
vt -2.370000 1.100000
vt -0.000000 1.730000
vt -3.000000 1.730000
vt 2.370000 1.100000
vt 3.000000 0.000000
vt 3.000000 1.730000
vt -1.875000 1.730000
vt -2.250000 1.730000
vt -1.875000 1.700000
vt -0.375000 1.700000
vt 0.000000 1.730000
vt -0.375000 1.730000
vt -1.875000 1.400000
vt -3.000000 0.000000
vt -2.370000 0.000000
vt -0.000000 1.100000
vt -3.000000 2.250000
vt -3.000000 0.000000
vt -2.370000 0.000000
vt -2.370000 2.250000
vt 0.000000 0.000000
vt -0.000000 2.250000
vt -2.370000 2.250000
vt -2.370000 0.000000
vt 2.370000 -0.000000
vt -3.000000 1.730000
vt -3.000000 1.700000
vt -0.000000 1.700000
vt -0.000000 1.730000
vt 0.375000 1.730000
vt 0.000000 1.730000
vt 0.375000 1.700000
vt 0.000000 0.000000
vt 0.375000 1.400000
vt 2.250000 0.000000
vt 2.250000 1.730000
vt 1.875000 1.400000
vt 1.875000 1.730000
vt 1.875000 1.700000
vt 3.000000 0.375000
vt 0.000000 0.375000
vt 0.000000 0.000000
vt 3.000000 0.000000
vt -0.000000 1.100000
vt -2.250000 1.100000
vt -2.250000 0.000000
vt -0.000000 0.000000
vt 0.000000 1.730000
vt 0.000000 1.700000
vt 3.000000 1.700000
vt 3.000000 1.730000
vt 0.000000 1.875000
vt 3.000000 1.875000
vt 3.000000 2.250000
vt 0.000000 2.250000
vt 3.000000 0.375000
vt 3.000000 1.875000
vt 0.000000 1.875000
vt 0.000000 0.375000
vn -1.0000 -0.0000 -0.0000
vn 0.0000 0.0000 -1.0000
vn 0.0000 -0.0000 1.0000
vn 0.0000 -1.0000 -0.0000
vn 1.0000 0.0000 0.0000
vn 0.0000 1.0000 0.0000
usemtl Stone.165
s 1
f 2/1/1 3/2/1 7/3/1
f 12/4/2 1/5/2 13/6/2
f 16/7/3 17/8/3 18/9/3
f 10/10/1 1/11/1 9/12/1
f 6/13/1 7/3/1 3/2/1 4/14/1
f 4/14/1 5/15/1 6/13/1
f 7/3/1 8/16/1 2/1/1
f 14/17/2 11/18/2 12/4/2
f 12/4/2 2/19/2 1/5/2
f 13/6/2 14/17/2 12/4/2
f 14/20/4 17/21/4 15/22/4 11/23/4
f 3/24/4 2/25/4 12/26/4 16/27/4
f 18/9/3 4/14/3 16/7/3
f 4/14/3 3/2/3 16/7/3
f 16/7/3 15/28/3 17/8/3
f 24/29/2 23/30/2 6/31/2 5/32/2
f 24/33/5 18/34/5 23/35/5
f 18/34/5 17/36/5 22/37/5
f 23/35/5 18/34/5 22/37/5
f 14/38/5 13/39/5 21/40/5
f 13/39/5 19/41/5 20/42/5
f 20/42/5 21/40/5 13/39/5
f 9/12/1 1/11/1 2/1/1 8/16/1
f 24/43/6 5/44/6 4/45/6 18/46/6
f 22/37/5 17/36/5 14/38/5 21/40/5
f 16/47/1 12/48/1 11/49/1 15/50/1
f 10/51/3 9/52/3 20/53/3 19/54/3
f 10/55/6 19/56/6 13/57/6 1/58/6
usemtl Asphalt.136
f 23/59/6 20/60/6 9/61/6 6/62/6
f 6/13/1 9/12/1 8/16/1 7/3/1
f 20/42/5 23/35/5 22/37/5 21/40/5
