# Blender v3.4.1 OBJ File: ''
# www.blender.org
mtllib roadTile_168.mtl
o roadTile_168
v 0.000000 0.000000 -0.000000
v 3.000000 0.000000 0.000000
v 3.000000 0.550000 0.000000
v 0.000000 0.550000 0.000000
v 3.000000 0.000000 -0.750001
v 0.000000 0.000000 -3.000000
v 3.000000 0.000000 -3.000000
v 3.000000 0.000000 -2.250000
v 3.000000 0.455000 -0.750001
v 3.000000 0.550000 -0.750001
v 3.000000 0.455000 -2.250000
v 3.000000 0.550000 -3.000000
v 3.000000 0.550000 -2.250000
v 0.000000 0.550000 -3.000000
v 0.750000 0.550000 -0.750001
v 0.750000 0.550000 -2.250000
v 0.750000 0.455000 -0.750001
v 0.750000 0.455000 -2.250000
vt -0.000000 3.000000
vt -3.000000 3.000000
vt -3.000000 2.250000
vt 0.750001 0.455000
vt 0.750001 0.550000
vt 0.000000 0.550000
vt 0.750000 0.750001
vt 0.750000 2.250000
vt 0.000000 3.000000
vt -3.000000 0.750001
vt -3.000000 0.000000
vt -0.000000 0.000000
vt 3.000000 0.550000
vt 2.250000 0.455000
vt 2.250000 0.000000
vt 3.000000 0.000000
vt -3.000000 0.550000
vt -3.000000 0.000000
vt 0.000000 0.000000
vt 0.000000 0.550000
vt 2.250000 0.550000
vt 3.000000 0.455000
vt 3.000000 0.550000
vt 0.750000 0.550000
vt 0.750000 0.455000
vt 3.000000 0.000000
vt 3.000000 0.750001
vt 3.000000 2.250000
vt 3.000000 3.000000
vt 0.000000 0.000000
vt -3.000000 0.550000
vt -3.000000 0.000000
vt -0.000000 0.550000
vt -3.000000 0.455000
vt -0.750000 0.455000
vt -0.750000 0.550000
vt -3.000000 0.550000
vt 0.750001 0.550000
vt 0.750001 0.455000
vt 2.250000 0.455000
vt 2.250000 0.550000
vt 0.000000 -0.000000
vt 0.750001 -0.000000
vt 3.000000 -0.000000
vt 3.000000 0.550000
vt 3.000000 0.750001
vt 3.000000 2.250000
vt 0.750000 2.250000
vt 0.750000 0.750001
vn 0.0000 -1.0000 -0.0000
vn 1.0000 -0.0000 0.0000
vn 0.0000 1.0000 0.0000
vn 0.0000 0.0000 -1.0000
vn 0.0000 0.0000 1.0000
vn -1.0000 0.0000 -0.0000
usemtl Grass.074
s 1
f 6/1/1 7/2/1 8/3/1
f 9/4/2 10/5/2 3/6/2
f 15/7/3 16/8/3 14/9/3
f 5/10/1 2/11/1 1/12/1
f 12/13/2 11/14/2 8/15/2 7/16/2
f 12/17/4 7/18/4 6/19/4 14/20/4
f 13/21/2 11/14/2 12/13/2
f 5/10/1 1/12/1 6/1/1 8/3/1
f 11/22/5 13/23/5 16/24/5 18/25/5
f 3/26/3 10/27/3 15/7/3
f 16/8/3 13/28/3 12/29/3
f 4/30/3 3/26/3 15/7/3
f 16/8/3 12/29/3 14/9/3
f 4/30/3 15/7/3 14/9/3
f 14/31/6 6/32/6 1/12/6 4/33/6
f 9/34/4 17/35/4 15/36/4 10/37/4
f 15/38/2 17/39/2 18/40/2 16/41/2
f 2/42/2 5/43/2 9/4/2 3/6/2
f 4/33/5 1/12/5 2/44/5 3/45/5
usemtl Water.011
f 9/46/3 11/47/3 18/48/3 17/49/3
f 9/4/2 5/43/2 8/15/2 11/14/2
