# Blender v3.4.1 OBJ File: ''
# www.blender.org
mtllib roadTile_222.mtl
o roadTile_222
v 3.000000 0.000000 -3.000000
v 3.000000 0.300000 -0.750000
v 3.000000 0.000000 -0.000000
v 3.000000 0.300000 -2.250000
v 3.000000 0.600000 -2.250000
v 3.000000 1.275000 -2.250000
v 3.000000 1.650000 -3.000000
v 3.000000 1.275000 -0.750000
v 3.000000 1.650000 0.000000
v 2.406570 0.630000 0.000000
v 0.000000 0.000000 -0.000000
v 0.593435 0.630000 0.000000
v 0.000000 1.650000 0.000000
v 0.593435 1.275000 0.000000
v 0.593435 0.630000 -0.750000
v 0.593435 1.275000 -0.750000
v 2.406570 0.630000 -0.750000
v 2.406570 1.275000 -0.750000
v 3.000000 0.600000 -0.750000
v 0.000000 0.600000 -0.750000
v 0.000000 1.275000 -0.750000
v 2.406570 1.275000 0.000000
v 0.000000 1.650000 -3.000000
v 0.593435 1.275000 -3.000000
v 0.593435 0.630000 -3.000000
v 0.000000 0.000000 -3.000000
v 2.406570 0.630000 -3.000000
v 0.593435 0.630000 -2.250000
v 2.406570 0.630000 -2.250000
v 0.000000 1.275000 -2.250000
v 0.000000 0.600000 -2.250000
v 2.406570 1.275000 -2.250000
v 0.593435 1.275000 -2.250000
v 0.000000 0.300000 -0.750000
v 0.000000 0.300000 -2.250000
v 2.406570 1.275000 -3.000000
vt 3.000000 -0.000000
vt 0.750000 0.300000
vt 0.000000 -0.000000
vt 2.250000 0.300000
vt 2.250000 0.600000
vt -3.000000 -0.000000
vt -2.250000 0.600000
vt -2.250000 1.275000
vt -3.000000 1.650000
vt 3.000000 1.650000
vt 0.750000 1.275000
vt 2.250000 1.275000
vt 0.000000 1.650000
vt 2.406570 0.630000
vt 3.000000 -0.000000
vt 3.000000 1.650000
vt 0.000000 -0.000000
vt 0.593435 0.630000
vt 0.000000 1.650000
vt 0.593435 1.275000
vt -0.593435 0.630000
vt -2.406570 0.630000
vt -3.000000 0.600000
vt 2.406570 1.275000
vt -0.593435 1.275000
vt -0.000000 1.650000
vt -3.000000 1.650000
vt -0.593435 0.630000
vt -0.000000 -0.000000
vt -3.000000 -0.000000
vt -2.406570 0.630000
vt 0.000000 0.600000
vt 3.000000 0.600000
vt 0.593435 0.630000
vt -0.750000 1.275000
vt -0.750000 0.300000
vt -2.250000 0.300000
vt 0.750000 0.600000
vt -0.750000 0.600000
vt -2.406570 1.275000
vt -0.593435 0.000000
vt -0.593435 0.750000
vt -2.406570 0.750000
vt -2.406570 0.000000
vt 3.000000 1.275000
vt 2.406570 1.275000
vt 2.406570 0.630000
vt 0.000000 1.275000
vt 0.593435 1.275000
vt -0.000000 0.600000
vt -0.000000 1.275000
vt -0.750000 1.275000
vt -0.750000 0.630000
vt -0.000000 0.630000
vt 0.000000 0.000000
vt 3.000000 0.000000
vt 3.000000 3.000000
vt -0.000000 3.000000
vt 0.593435 3.000000
vt 0.593435 2.250000
vt 2.406570 2.250000
vt 2.406570 3.000000
vt -3.000000 0.000000
vt 0.000000 3.000000
vt -3.000000 3.000000
vt -3.000000 1.275000
vt -2.406570 1.275000
vt -0.000000 2.250000
vt -0.593435 2.250000
vt -0.000000 0.750000
vt 2.406570 -0.000000
vt 2.406570 0.750000
vt 0.593435 0.750000
vt 0.593435 0.000000
vt -2.406570 2.250000
vt -3.000000 2.250000
vt -3.000000 0.750000
vt -0.000000 1.275000
vt -0.593435 1.275000
vt 0.000000 0.630000
vt 0.750000 0.630000
vt 0.750000 1.275000
vt 0.000000 1.275000
vt -0.593435 3.000000
vt -2.406570 3.000000
vt 3.000000 1.275000
vt 2.250000 1.275000
vt 2.250000 0.630000
vt 3.000000 0.630000
vt -3.000000 0.630000
vt -2.250000 0.630000
vt -2.250000 1.275000
vt -3.000000 1.275000
vt 0.000000 0.750000
vt 3.000000 0.750000
vt 3.000000 2.250000
vt 0.000000 2.250000
vn 1.0000 0.0000 0.0000
vn -1.0000 0.0000 0.0000
vn 0.0000 -0.0000 1.0000
vn 0.0000 0.0000 -1.0000
vn 0.0000 -1.0000 0.0000
vn 0.0000 1.0000 0.0000
usemtl Stone.178
s 1
f 1/1/1 2/2/1 3/3/1
f 2/2/1 1/1/1 4/4/1
f 4/4/1 1/1/1 5/5/1
f 26/6/2 31/7/2 30/8/2 23/9/2
f 7/10/1 8/11/1 6/12/1
f 9/13/1 8/11/1 7/10/1
f 7/10/1 6/12/1 5/5/1 1/1/1
f 10/14/3 3/15/3 9/16/3
f 3/15/3 10/14/3 11/17/3
f 12/18/3 11/17/3 10/14/3
f 11/17/3 12/18/3 13/19/3
f 13/19/3 12/18/3 14/20/3
f 15/21/4 17/22/4 19/23/4
f 10/14/3 9/16/3 22/24/3
f 22/24/3 9/16/3 14/20/3
f 13/19/3 14/20/3 9/16/3
f 24/25/4 23/26/4 7/27/4
f 25/28/4 23/26/4 24/25/4
f 25/28/4 26/29/4 23/26/4
f 26/29/4 25/28/4 1/30/4
f 1/30/4 25/28/4 27/31/4
f 31/32/3 5/33/3 28/34/3
f 21/35/2 23/9/2 30/8/2
f 21/35/2 13/19/2 23/9/2
f 3/3/1 2/2/1 8/11/1 9/13/1
f 11/17/2 34/36/2 26/6/2
f 26/6/2 34/36/2 35/37/2
f 8/11/1 2/2/1 19/38/2
f 26/6/2 35/37/2 31/7/2
f 34/36/2 21/35/2 20/39/2
f 7/27/4 36/40/4 24/25/4
f 7/27/4 27/31/4 36/40/4
f 27/31/4 7/27/4 1/30/4
f 14/41/5 16/42/5 18/43/5 22/44/5
f 6/45/3 32/46/3 29/47/3 5/33/3
f 30/48/3 31/32/3 28/34/3 33/49/3
f 20/50/4 15/21/4 19/23/4
f 22/51/2 18/52/2 17/53/2 10/54/2
f 13/55/6 9/56/6 7/57/6 23/58/6
f 25/59/6 28/60/6 29/61/6 27/62/6
f 3/63/5 11/17/5 26/64/5 1/65/5
f 8/66/4 19/23/4 17/22/4 18/67/4
f 34/36/2 11/17/2 13/19/2 21/35/2
f 5/33/3 29/47/3 28/34/3
f 30/68/5 33/69/5 16/42/5 21/70/5
f 10/71/6 17/72/6 15/73/6 12/74/6
f 32/75/5 6/76/5 8/77/5 18/43/5
f 21/78/4 16/79/4 15/21/4 20/50/4
f 12/80/1 15/81/1 16/82/1 14/83/1
f 33/69/5 24/84/5 36/85/5 32/75/5
f 16/42/5 33/69/5 32/75/5 18/43/5
f 24/86/1 33/87/1 28/88/1 25/89/1
f 27/90/2 29/91/2 32/92/2 36/93/2
usemtl Asphalt.147
f 20/94/6 19/95/6 5/96/6 31/97/6
f 34/36/2 20/39/2 31/7/2 35/37/2
f 4/4/1 5/5/1 19/38/2 2/2/1
