# Blender v3.4.1 OBJ File: ''
# www.blender.org
mtllib roadTile_114.mtl
o roadTile_114
v 2.576880 0.000000 -2.265790
v 2.625000 0.000000 -3.000000
v 2.625000 0.630000 -3.000000
v 2.576880 0.630000 -2.265790
v 0.000000 0.000000 -3.000000
v 2.433330 0.000000 -1.544140
v 2.196820 0.000000 -0.847406
v 1.871390 0.000000 -0.187500
v 1.746110 0.000000 -0.000000
v 0.000000 0.000000 0.000000
v 0.000000 0.300000 -3.000000
v 2.250000 0.300000 -3.000000
v 2.250000 0.600001 -3.000000
v 2.250000 0.630000 -3.000000
v 0.000000 0.600001 -3.000000
v 0.000000 0.300000 0.000000
v 0.000000 0.600000 0.000000
v 1.296070 0.600000 0.000000
v 1.296070 0.300000 0.000000
v 1.746110 0.630000 0.000000
v 1.296070 0.630000 0.000000
v 1.546630 0.600000 -0.375000
v 1.850370 0.600000 -0.990912
v 2.071110 0.600000 -1.641200
v 2.205090 0.600000 -2.314740
v 1.546630 0.630000 -0.375000
v 1.871390 0.630000 -0.187500
v 2.196820 0.630000 -0.847406
v 2.433330 0.630000 -1.544140
v 2.205090 0.630000 -2.314740
v 2.071110 0.630000 -1.641200
v 1.850370 0.630000 -0.990912
vt -1.871390 0.187500
vt -1.746110 0.000000
vt -0.000000 -0.000000
vt 1.296070 0.300000
vt 1.746110 0.000000
vt -2.700450 0.630000
vt -2.700450 0.600000
vt -2.013720 0.600000
vt -2.013720 0.630000
vt 0.000000 3.000000
vt -2.625000 3.000000
vt -2.576880 2.265790
vt -2.433330 1.544140
vt -2.196820 0.847406
vt 0.000000 -0.000000
vt 0.000000 0.300000
vt -2.250000 0.300000
vt -2.250000 0.600000
vt -2.250000 0.630000
vt -2.625000 0.630000
vt -2.625000 -0.000000
vt -3.000000 0.000000
vt 0.000000 0.300000
vt -3.000000 0.300000
vt 1.989190 0.630000
vt 1.989190 0.000000
vt 2.724980 0.000000
vt 2.724980 0.630000
vt 1.296070 0.630000
vt 1.296070 0.600000
vt 1.746110 0.630000
vt -1.171060 0.630000
vt -1.171060 0.600000
vt -0.720056 0.600000
vt -0.720056 0.630000
vt 1.508580 0.630000
vt 1.508580 0.000000
vt 2.244360 0.000000
vt 2.244360 0.630000
vt 2.071110 1.641200
vt 1.850370 0.990912
vt 2.196820 0.847406
vt 2.433330 1.544140
vt 2.576880 2.265790
vt 2.205090 2.314740
vt 2.625000 3.000000
vt 2.250000 3.000000
vt 1.746110 0.000000
vt 1.871390 0.187500
vt 1.546630 0.375000
vt 1.296070 0.000000
vt 0.970086 0.630000
vt 0.970086 0.000000
vt 1.195590 0.000000
vt 1.195590 0.630000
vt 0.995860 0.630000
vt 0.995860 0.000000
vt 1.731640 0.000000
vt 1.731640 0.630000
vt -3.140730 0.630000
vt -3.140730 0.600000
vt -2.454000 0.600000
vt -2.454000 0.630000
vt 2.429470 0.630000
vt 2.429470 0.000000
vt 3.165260 0.000000
vt 3.165260 0.630000
vt -2.219840 0.630000
vt -2.219840 0.600000
vt -1.533110 0.600000
vt -1.533110 0.630000
vt -1.707120 0.630000
vt -1.707120 0.600000
vt -1.020390 0.600000
vt -1.020390 0.630000
vt 2.205090 2.314740
vt 2.250000 3.000000
vt -0.000000 3.000000
vt 0.000000 0.600000
vt -3.000000 0.600000
vt 0.000000 -0.000000
vt 1.850370 0.990912
vt 1.296070 0.000000
vt 1.546630 0.375000
vt 2.071110 1.641200
vt 0.000000 0.600000
vn 0.0000 -1.0000 -0.0000
vn 0.0000 -0.0000 1.0000
vn -0.9914 0.0000 -0.1305
vn -0.9659 0.0000 -0.2588
vn 0.0000 0.0000 -1.0000
vn -1.0000 0.0000 0.0000
vn 0.9659 -0.0000 0.2588
vn 0.9914 -0.0000 0.1305
vn -0.8660 -0.0000 -0.5000
vn -0.8315 -0.0000 -0.5556
vn 0.9239 -0.0000 0.3827
vn 0.0000 1.0000 0.0000
vn 0.8315 -0.0000 0.5556
vn 0.8660 -0.0000 0.5000
vn -0.9979 0.0000 -0.0654
vn 0.9979 0.0000 0.0654
vn -0.9239 0.0000 -0.3827
usemtl Stone.094
s 1
f 8/1/1 9/2/1 10/3/1
f 19/4/2 10/3/2 9/5/2
f 30/6/3 25/7/3 24/8/4 31/9/4
f 5/10/1 2/11/1 1/12/1
f 6/13/1 5/10/1 1/12/1
f 7/14/1 8/1/1 10/3/1
f 5/15/5 11/16/5 12/17/5
f 13/18/5 14/19/5 3/20/5
f 2/21/5 5/15/5 12/17/5
f 6/13/1 7/14/1 10/3/1 5/10/1
f 5/22/6 10/3/6 16/23/6 11/24/6
f 29/25/7 6/26/7 1/27/8 4/28/8
f 21/29/2 18/30/2 20/31/2
f 3/20/5 2/21/5 12/17/5 13/18/5
f 19/4/2 16/23/2 10/3/2
f 26/32/9 22/33/9 18/34/10 21/35/10
f 28/36/11 7/37/11 6/38/7 29/39/7
f 19/4/2 9/5/2 20/31/2 18/30/2
f 31/40/12 32/41/12 28/42/12 29/43/12
f 4/44/12 30/45/12 31/40/12 29/43/12
f 3/46/12 14/47/12 30/45/12 4/44/12
f 20/48/12 27/49/12 26/50/12 21/51/12
f 32/41/12 26/50/12 27/49/12 28/42/12
f 20/52/13 9/53/13 8/54/14 27/55/14
f 27/56/14 8/57/14 7/58/11 28/59/11
f 14/60/15 13/61/15 25/62/3 30/63/3
f 4/64/8 1/65/8 2/66/16 3/67/16
f 31/68/4 24/69/4 23/70/17 32/71/17
f 32/72/17 23/73/17 22/74/9 26/75/9
usemtl Asphalt.068
f 25/76/12 13/77/12 15/78/12
f 17/79/6 15/80/6 11/24/6 16/23/6
f 15/78/12 17/81/12 23/82/12
f 17/81/12 18/83/12 22/84/12
f 23/82/12 17/81/12 22/84/12
f 23/82/12 24/85/12 15/78/12
f 24/85/12 25/76/12 15/78/12
f 18/30/2 17/79/2 16/23/2 19/4/2
f 15/86/5 13/18/5 12/17/5 11/16/5
