# Blender v3.4.1 OBJ File: ''
# www.blender.org
mtllib roadTile_216.mtl
o roadTile_216
v 0.000000 1.650000 -2.250000
v 0.000000 1.650000 -2.625000
v 0.000000 0.000000 -2.625000
v 0.000000 0.000000 -2.250000
v 0.000000 1.555000 -2.250000
v 3.000000 0.550000 -2.250000
v 3.000000 0.550000 -2.625000
v 3.000000 0.000000 -2.250000
v 3.000000 0.000000 -2.625000
v 3.000000 0.455000 -2.250000
v 0.000000 0.000000 -3.000000
v 3.000000 0.000000 -3.000000
v 3.000000 0.000000 -0.750000
v 3.000000 0.000000 -0.375000
v 3.000000 0.000000 -0.000000
v 0.000000 0.000000 -0.000000
v 0.000000 0.000000 -0.375000
v 0.000000 0.000000 -0.750000
v 0.000000 1.650000 -3.000000
v 3.000000 0.550000 -3.000000
v 3.000000 0.455000 -0.750000
v 0.000000 1.555000 -0.750000
v 0.000000 1.650000 -0.375000
v 0.000000 1.650000 -0.750000
v 0.000000 1.650000 0.000000
v 3.000000 0.550000 0.000000
v 3.000000 0.550000 -0.375000
v 3.000000 0.550000 -0.750000
vt 2.625000 0.550000
vt 2.250000 0.550000
vt 2.250000 0.455000
vt -0.375000 1.650000
vt -0.750000 1.650000
vt -0.750000 1.555000
vt -2.250000 1.555000
vt -2.250000 1.650000
vt -2.625000 1.650000
vt -0.375000 0.000000
vt -0.750000 0.000000
vt -3.000000 0.550000
vt -3.000000 0.455000
vt -0.000000 1.555000
vt -0.000000 1.650000
vt 0.750000 -2.627290
vt 0.750000 0.568020
vt 0.375000 0.568020
vt 0.375000 -2.627290
vt 0.375000 0.000000
vt 0.750000 0.000000
vt 0.750000 0.455000
vt 0.375000 0.550000
vt -2.625000 0.000000
vt -2.250000 0.000000
vt 2.250000 0.568020
vt 2.250000 -2.627290
vt 2.625000 -2.627290
vt 2.625000 0.568020
vt 0.750000 0.550000
vt 2.625000 0.000000
vt 2.250000 0.000000
vt 0.000000 1.555000
vt 3.000000 0.455000
vt 3.000000 0.550000
vt 0.000000 1.650000
vt 3.000000 0.550000
vt 0.000000 1.650000
vt 0.000000 -0.000000
vt 3.000000 -0.000000
vt 3.000000 0.000000
vt 3.000000 0.550000
vt 0.000000 0.550000
vt 0.000000 0.000000
vt -3.000000 2.250000
vt -3.000000 0.750000
vt -0.000000 0.750000
vt -0.000000 2.250000
vt -0.000000 0.375000
vt -3.000000 0.375000
vt -3.000000 0.000000
vt 0.000000 0.568020
vt 0.000000 -2.627290
vt -3.000000 2.625000
vt -0.000000 2.625000
vt -3.000000 1.650000
vt -3.000000 0.000000
vt 0.000000 3.000000
vt -3.000000 3.000000
vt -3.000000 0.550000
vt -3.000000 -0.000000
vt -0.000000 -0.000000
vt -0.000000 1.650000
vt 3.000000 -2.627290
vt 3.000000 0.568020
vt 2.250000 -2.659990
vt 2.250000 0.535316
vt 0.750000 0.535316
vt 0.750000 -2.659990
vn 1.0000 0.0000 0.0000
vn -1.0000 0.0000 0.0000
vn 0.0000 0.0000 -1.0000
vn 0.3443 0.9389 0.0000
vn 0.0000 0.0000 1.0000
vn 0.0000 -1.0000 -0.0000
usemtl Stone.172
s 1
f 7/1/1 6/2/1 10/3/1
f 23/4/2 24/5/2 22/6/2
f 5/7/2 1/8/2 2/9/2
f 17/10/2 23/4/2 22/6/2 18/11/2
f 28/12/3 21/13/3 22/14/3 24/15/3
f 28/16/4 24/17/4 23/18/4 27/19/4
f 14/20/1 13/21/1 21/22/1 27/23/1
f 3/24/2 4/25/2 5/7/2 2/9/2
f 1/26/4 6/27/4 7/28/4 2/29/4
f 21/22/1 28/30/1 27/23/1
f 9/31/1 7/1/1 10/3/1 8/32/1
f 5/33/5 10/34/5 6/35/5 1/36/5
usemtl Grass.108
f 26/37/5 25/38/5 16/39/5 15/40/5
f 12/41/1 20/42/1 7/1/1 9/31/1
f 26/43/1 15/44/1 14/20/1 27/23/1
f 8/45/6 13/46/6 18/47/6 4/48/6
f 17/49/6 18/47/6 13/46/6 14/50/6
f 17/49/6 14/50/6 15/51/6 16/39/6
f 25/52/4 26/53/4 27/19/4 23/18/4
f 9/54/6 8/45/6 4/48/6 3/55/6
f 19/56/2 11/57/2 3/24/2 2/9/2
f 11/58/6 12/59/6 9/54/6 3/55/6
f 16/39/2 25/38/2 23/4/2 17/10/2
f 20/60/3 12/61/3 11/62/3 19/63/3
f 20/64/4 19/65/4 2/29/4 7/28/4
usemtl Water.032
f 5/7/2 4/25/2 18/11/2 22/6/2
f 10/66/4 5/67/4 22/68/4 21/69/4
f 21/22/1 13/21/1 8/32/1 10/3/1
