# Blender v3.4.1 OBJ File: ''
# www.blender.org
mtllib roadTile_241.mtl
o roadTile_241
v 0.000000 0.000000 0.000000
v 3.000000 0.000000 -0.000000
v 3.000000 1.260000 0.000000
v 0.000000 1.260000 0.000000
v 0.000000 0.000000 -3.000000
v 3.000000 0.000000 -3.000000
v 0.000000 1.260000 -3.000000
v 0.000000 1.260000 -0.750000
v 0.000000 0.600000 -0.750000
v 0.000000 0.300000 -0.750000
v 0.000000 0.300000 -2.250000
v 0.000000 0.600000 -2.250000
v 0.000000 1.260000 -2.250000
v 3.000000 1.260000 -3.000000
v 3.000000 1.260000 -2.250000
v 3.000000 0.600000 -2.250000
v 3.000000 0.300000 -2.250000
v 3.000000 0.300000 -0.750000
v 3.000000 0.600000 -0.750000
v 3.000000 1.260000 -0.750000
vt -3.000000 0.000000
vt 0.000000 0.000000
vt -0.750000 0.300000
vt 0.000000 0.000000
vt 3.000000 0.000000
vt 2.250000 0.300000
vt -3.000000 0.000000
vt -0.000000 3.000000
vt -3.000000 3.000000
vt 3.000000 0.750000
vt 0.000000 0.750000
vt 0.000000 0.000000
vt 3.000000 0.000000
vt 3.000000 1.260000
vt 2.250000 1.260000
vt 2.250000 0.600000
vt -3.000000 1.260000
vt -2.250000 0.600000
vt -2.250000 1.260000
vt -0.750000 0.600000
vt -2.250000 0.300000
vt 0.000000 2.250000
vt 3.000000 2.250000
vt 3.000000 3.000000
vt 0.000000 3.000000
vt 0.000000 1.260000
vt 0.750000 0.600000
vt 0.750000 1.260000
vt 0.750000 0.300000
vt 0.000000 1.260000
vt -0.750000 1.260000
vt -3.000000 1.260000
vt -3.000000 0.000000
vt -0.000000 0.000000
vt -0.000000 1.260000
vt -3.000000 1.260000
vt -3.000000 0.600000
vt -0.000000 0.600000
vt -0.000000 1.260000
vt 0.000000 1.260000
vt 0.000000 0.600000
vt 3.000000 0.600000
vt 3.000000 1.260000
vt 3.000000 -0.000000
vt 3.000000 1.260000
vt 3.000000 0.750000
vt 3.000000 2.250000
vt 0.000000 2.250000
vt 0.000000 0.750000
vn -1.0000 -0.0000 -0.0000
vn 1.0000 0.0000 0.0000
vn 0.0000 -1.0000 -0.0000
vn 0.0000 1.0000 0.0000
vn 0.0000 0.0000 -1.0000
vn 0.0000 -0.0000 1.0000
usemtl Stone.197
s 1
f 5/1/1 1/2/1 10/3/1
f 2/4/2 6/5/2 17/6/2
f 2/7/3 1/2/3 5/8/3 6/9/3
f 20/10/4 8/11/4 4/12/4 3/13/4
f 14/14/2 15/15/2 16/16/2 6/5/2
f 7/17/1 5/1/1 12/18/1 13/19/1
f 9/20/1 10/3/1 1/2/1
f 11/21/1 12/18/1 5/1/1
f 10/3/1 11/21/1 5/1/1
f 13/22/4 15/23/4 14/24/4 7/25/4
f 3/26/2 2/4/2 19/27/2 20/28/2
f 16/16/2 17/6/2 6/5/2
f 18/29/2 19/27/2 2/4/2
f 17/6/2 18/29/2 2/4/2
f 4/30/1 8/31/1 9/20/1 1/2/1
f 14/32/5 6/33/5 5/34/5 7/35/5
f 20/36/5 19/37/5 9/38/5 8/39/5
f 13/40/6 12/41/6 16/42/6 15/43/6
f 4/30/6 1/2/6 2/44/6 3/45/6
usemtl Asphalt.164
f 9/20/1 12/18/1 11/21/1 10/3/1
f 19/46/4 16/47/4 12/48/4 9/49/4
f 16/16/2 19/27/2 18/29/2 17/6/2
