# Blender v3.4.1 OBJ File: ''
# www.blender.org
mtllib roadTile_202.mtl
o roadTile_202
v 0.000000 1.730000 -0.750000
v 0.000000 1.730000 0.000000
v 3.000000 1.730000 0.000000
v 3.000000 1.730000 -0.750000
v 0.000000 1.730000 -3.000000
v 0.000000 1.100001 -3.000000
v 0.000000 1.100000 0.000000
v 0.000000 1.700000 -0.750000
v 0.000000 1.400000 -0.750000
v 0.000000 1.400000 -2.250000
v 0.000000 1.700000 -2.250000
v 0.000000 1.730000 -2.250000
v 2.370000 0.000000 -3.000000
v 3.000000 1.730000 -3.000000
v 3.000000 0.000000 -3.000000
v 2.370000 0.000000 -0.000000
v 3.000000 0.000000 -0.000000
v 3.000000 1.730000 -2.250000
v 3.000000 1.700000 -2.250000
v 3.000000 1.400000 -2.250000
v 3.000000 1.400000 -0.750000
v 3.000000 1.700000 -0.750000
vt -3.000000 1.100000
vt 0.000000 1.100000
vt -0.750000 1.400000
vt 2.370000 -0.000000
vt 3.000000 0.000000
vt 3.000000 1.730000
vt -3.000000 1.730000
vt -3.000000 1.700000
vt -0.000000 1.700000
vt -0.000000 1.730000
vt -2.250000 1.730000
vt -3.000000 1.730000
vt -2.250000 1.700000
vt -0.000000 1.100000
vt -0.000000 1.730000
vt -3.000000 1.730000
vt -2.370000 0.000000
vt -2.250000 1.400000
vt 0.000000 1.730000
vt -0.750000 1.730000
vt -0.750000 1.700000
vt -3.000000 0.000000
vt -3.000000 3.000000
vt -3.000000 0.000000
vt -2.370000 0.000000
vt -2.370000 3.000000
vt 0.000000 1.730000
vt 0.000000 1.700000
vt 3.000000 1.700000
vt 3.000000 1.730000
vt 2.250000 1.400000
vt 0.750000 1.400000
vt 0.000000 0.000000
vt 3.000000 0.000000
vt 0.750000 1.730000
vt 0.000000 1.730000
vt 0.750000 1.700000
vt 3.000000 1.730000
vt 2.250000 1.730000
vt 2.250000 1.700000
vt 0.000000 0.463099
vt -3.000000 0.463099
vt -3.000000 -2.149730
vt -0.000000 -2.149730
vt 0.000000 2.250000
vt 3.000000 2.250000
vt 3.000000 3.000000
vt 0.000000 3.000000
vt 3.000000 0.750000
vt 0.000000 0.750000
vt 0.000000 0.000000
vt 3.000000 0.000000
vt 3.000000 0.750000
vt 3.000000 2.250000
vt 0.000000 2.250000
vt 0.000000 0.750000
vn -1.0000 -0.0000 -0.0000
vn 0.0000 -0.0000 1.0000
vn 0.0000 0.0000 -1.0000
vn 0.0000 -1.0000 -0.0000
vn 1.0000 0.0000 0.0000
vn -0.4210 -0.9071 -0.0000
vn 0.0000 1.0000 0.0000
usemtl Stone.158
s 1
f 6/1/1 7/2/1 9/3/1
f 16/4/2 17/5/2 3/6/2
f 4/7/3 22/8/3 8/9/3 1/10/3
f 12/11/1 5/12/1 11/13/1
f 6/14/3 5/15/3 14/16/3 13/17/3
f 11/13/1 5/12/1 6/1/1 10/18/1
f 2/19/1 1/20/1 8/21/1
f 9/3/1 10/18/1 6/1/1
f 15/22/3 13/17/3 14/16/3
f 7/2/2 16/4/2 3/6/2 2/19/2
f 15/23/4 17/24/4 16/25/4 13/26/4
f 12/27/2 11/28/2 19/29/2 18/30/2
f 20/31/5 21/32/5 17/33/5 15/34/5
f 4/35/5 3/36/5 22/37/5
f 3/36/5 17/33/5 21/32/5
f 22/37/5 3/36/5 21/32/5
f 15/34/5 14/38/5 20/31/5
f 14/38/5 18/39/5 19/40/5
f 14/38/5 19/40/5 20/31/5
f 8/21/1 9/3/1 7/2/1 2/19/1
f 7/41/6 6/42/6 13/43/6 16/44/6
f 12/45/7 18/46/7 14/47/7 5/48/7
f 4/49/7 1/50/7 2/51/7 3/52/7
usemtl Asphalt.131
f 19/40/5 22/37/5 21/32/5 20/31/5
f 22/53/7 19/54/7 11/55/7 8/56/7
f 8/21/1 11/13/1 10/18/1 9/3/1
