# Blender v3.4.1 OBJ File: ''
# www.blender.org
mtllib roadTile_136.mtl
o roadTile_136
v 0.031944 0.630000 -0.694857
v 0.000000 0.630000 -0.937500
v 0.000000 0.000000 -0.937500
v 0.031944 0.000000 -0.694857
v 2.437500 0.630000 -0.562500
v 0.937500 0.630000 -0.562500
v 0.840443 0.630000 -0.575278
v 0.750000 0.630000 -0.612741
v 0.672335 0.630000 -0.672335
v 0.612740 0.630000 -0.750000
v 0.575278 0.630000 -0.840443
v 0.562500 0.630000 -0.937500
v 0.575278 0.630000 -1.034560
v 0.612740 0.630000 -1.125000
v 0.672335 0.630000 -1.202670
v 0.750000 0.630000 -1.262260
v 0.840443 0.630000 -1.299720
v 0.937500 0.630000 -1.312500
v 2.437500 0.630000 -1.312500
v 2.437500 0.630000 -1.875000
v 0.937500 0.630000 -1.875000
v 0.694857 0.630000 -1.843060
v 0.468750 0.630000 -1.749400
v 0.274587 0.630000 -1.600410
v 0.125601 0.630000 -1.406250
v 0.031944 0.630000 -1.180140
v 0.125601 0.630000 -0.468750
v 0.274587 0.630000 -0.274587
v 0.468750 0.630000 -0.125601
v 0.694857 0.630000 -0.031944
v 0.937500 0.630000 0.000000
v 2.437500 0.630000 0.000000
v 2.437500 0.600000 -0.562500
v 0.937500 0.600000 -0.562500
v 2.437500 0.000000 0.000000
v 2.437500 0.000000 -1.875000
v 2.437500 0.600000 -1.312500
v 2.437500 0.300000 -1.312500
v 2.437500 0.300000 -0.562500
v 0.937500 0.000000 -0.000000
v 0.694857 0.000000 -0.031944
v 0.468750 0.000000 -0.125601
v 0.274587 0.000000 -0.274587
v 0.125601 0.000000 -0.468750
v 0.031944 0.000000 -1.180140
v 0.125601 0.000000 -1.406250
v 0.274587 0.000000 -1.600410
v 0.468750 0.000000 -1.749400
v 0.694857 0.000000 -1.843060
v 0.937500 0.000000 -1.875000
v 0.937500 0.600000 -1.312500
v 0.840443 0.600000 -1.299720
v 0.750000 0.600000 -1.262260
v 0.672335 0.600000 -1.202670
v 0.612740 0.600000 -1.125000
v 0.575278 0.600000 -1.034560
v 0.562500 0.600000 -0.937500
v 0.575278 0.600000 -0.840443
v 0.612740 0.600000 -0.750000
v 0.672335 0.600000 -0.672335
v 0.750000 0.600000 -0.612741
v 0.840443 0.600000 -0.575278
vt 0.000000 -0.000000
vt 1.875000 -0.000000
vt 0.562500 0.300000
vt 0.937500 0.562500
vt 0.937500 0.000000
vt 2.437500 -0.000000
vt 2.437500 0.562500
vt -0.385003 0.000000
vt -0.385003 0.630000
vt -0.629740 0.630000
vt -0.629740 0.000000
vt 0.750000 0.612741
vt 0.672335 0.672335
vt 0.274587 0.274587
vt 0.468750 0.125601
vt 0.468750 1.749400
vt 0.750000 1.262260
vt 0.840443 1.299720
vt 0.694857 1.843060
vt 0.125601 0.468750
vt 0.612740 0.750000
vt 0.575278 0.840443
vt 0.031944 0.694857
vt 0.562500 0.937500
vt -0.000000 0.937500
vt 0.937500 1.312500
vt 0.937500 1.875000
vt 0.694857 0.031944
vt 0.840443 0.575278
vt 0.575278 1.034560
vt 0.031944 1.180140
vt 0.672335 1.202670
vt 0.274587 1.600410
vt 0.612740 1.125000
vt 0.125601 1.406250
vt -0.694857 1.843060
vt -0.937500 1.875000
vt -0.937500 0.000000
vt -0.694857 0.031944
vt 2.437500 1.312500
vt 2.437500 1.875000
vt -0.274587 1.600410
vt -0.274587 0.274587
vt 1.875000 0.630000
vt 1.312500 0.630000
vt 1.312500 0.600000
vt 0.562500 0.630000
vt 0.000000 0.630000
vt 0.562500 0.600000
vt 1.312500 0.300000
vt -1.102530 0.000000
vt -1.102530 0.630000
vt -1.347270 0.630000
vt -1.347270 0.000000
vt -0.468750 0.125601
vt -0.125601 0.468750
vt -0.031944 1.180140
vt -0.031944 0.694857
vt 0.000000 0.937500
vt -0.125601 1.406250
vt -0.468750 1.749400
vt 2.437500 0.600000
vt 2.437500 0.630000
vt 0.937500 0.630000
vt 0.937500 0.600000
vt 1.100800 0.600000
vt 1.100800 0.630000
vt 1.002900 0.630000
vt 1.002900 0.600000
vt 0.929480 0.000000
vt 0.929480 0.630000
vt 0.684743 0.630000
vt 0.684743 0.000000
vt 0.629740 0.000000
vt 0.629740 0.630000
vt 0.385003 0.630000
vt 0.385003 0.000000
vt 1.273850 0.600000
vt 1.273850 0.630000
vt 1.175960 0.630000
vt 1.175960 0.600000
vt 1.363430 0.600000
vt 1.363430 0.630000
vt 1.265540 0.630000
vt 1.265540 0.600000
vt -1.192110 0.000000
vt -1.192110 0.630000
vt -1.436850 0.630000
vt -1.436850 0.000000
vt -0.937500 -0.000000
vt -0.937500 0.630000
vt -2.437500 0.630000
vt -2.437500 -0.000000
vt -0.929480 0.000000
vt -0.929480 0.630000
vt -1.174220 0.630000
vt -1.174220 0.000000
vt -0.937500 0.600000
vt -0.937500 0.630000
vt -2.437500 0.630000
vt -2.437500 0.600000
vt -2.437500 0.000000
vt -2.437500 1.875000
vt -1.192110 0.000000
vt -1.192110 0.630000
vt -1.436850 0.630000
vt -1.436850 0.000000
vt -1.102530 0.000000
vt -1.102530 0.630000
vt -1.347270 0.630000
vt -1.347270 0.000000
vt 2.437500 0.000000
vt 2.437500 0.630000
vt 0.937500 0.630000
vt 0.937500 0.000000
vt 0.295423 0.000000
vt 0.295423 0.630000
vt 0.050687 0.630000
vt 0.050687 0.000000
vt -0.050687 0.000000
vt -0.050687 0.630000
vt -0.295423 0.630000
vt -0.295423 0.000000
vt 1.363430 0.600000
vt 1.363430 0.630000
vt 1.265540 0.630000
vt 1.265540 0.600000
vt -0.684743 0.000000
vt -0.684743 0.630000
vt -0.929480 0.630000
vt -0.929480 0.000000
vt 1.273850 0.600000
vt 1.273850 0.630000
vt 1.175960 0.630000
vt 1.175960 0.600000
vt 1.100800 0.600000
vt 1.100800 0.630000
vt 1.002900 0.630000
vt 1.002900 0.600000
vt 0.856059 0.600000
vt 0.856059 0.630000
vt 0.758164 0.630000
vt 0.758164 0.600000
vt 0.556319 0.600000
vt 0.556319 0.630000
vt 0.458424 0.630000
vt 0.458424 0.600000
vt 0.222002 0.600000
vt 0.222002 0.630000
vt 0.124108 0.630000
vt 0.124108 0.600000
vt -0.124108 0.600000
vt -0.124108 0.630000
vt -0.222002 0.630000
vt -0.222002 0.600000
vt -0.458424 0.600000
vt -0.458424 0.630000
vt -0.556319 0.630000
vt -0.556319 0.600000
vt -0.758164 0.600000
vt -0.758164 0.630000
vt -0.856059 0.630000
vt -0.856059 0.600000
vt -1.174220 0.630000
vt -1.174220 0.000000
vt 0.575278 0.840443
vt 0.672335 0.672335
vt 0.840443 1.299720
vt 0.750000 0.612741
vt 0.937500 0.562500
vt 0.937500 1.312500
vt 2.437500 1.312500
vt 2.437500 0.562500
vt 0.840443 0.575278
vt 0.750000 1.262260
vt 0.672335 1.202670
vt 0.612740 1.125000
vt 0.575278 1.034560
vt 0.562500 0.937500
vt 0.612740 0.750000
vn 1.0000 0.0000 0.0000
vn -0.0000 1.0000 0.0000
vn -0.8660 -0.0000 0.5000
vn -0.9659 -0.0000 0.2588
vn -0.0000 -1.0000 -0.0000
vn -0.5000 0.0000 -0.8660
vn -0.2588 0.0000 -0.9659
vn 0.0000 0.0000 1.0000
vn 0.0654 0.0000 0.9979
vn 0.2588 0.0000 0.9659
vn -0.0654 -0.0000 0.9979
vn -0.2588 -0.0000 0.9659
vn -0.5000 -0.0000 0.8660
vn 0.5000 0.0000 0.8660
vn 0.7071 0.0000 0.7071
vn 0.8660 0.0000 0.5000
vn -0.8660 0.0000 -0.5000
vn -0.7071 0.0000 -0.7071
vn -0.0654 0.0000 -0.9979
vn 0.0000 0.0000 -1.0000
vn 0.0654 0.0000 -0.9979
vn -0.9659 0.0000 -0.2588
vn -0.7071 -0.0000 0.7071
vn -1.0000 0.0000 -0.0000
vn 0.9659 0.0000 0.2588
vn 0.9659 0.0000 -0.2588
vn 0.8660 0.0000 -0.5000
vn 0.7071 0.0000 -0.7071
vn 0.5000 0.0000 -0.8660
vn 0.2588 0.0000 -0.9659
usemtl Stone.116
s 1
f 35/1/1 36/2/1 39/3/1
f 6/4/2 31/5/2 32/6/2 5/7/2
f 44/8/3 27/9/3 1/10/4 4/11/4
f 8/12/2 9/13/2 28/14/2 29/15/2
f 23/16/2 16/17/2 17/18/2 22/19/2
f 27/20/2 28/14/2 9/13/2 10/21/2
f 27/20/2 10/21/2 11/22/2 1/23/2
f 11/22/2 12/24/2 2/25/2 1/23/2
f 17/18/2 18/26/2 21/27/2 22/19/2
f 30/28/2 31/5/2 6/4/2 7/29/2
f 13/30/2 26/31/2 2/25/2 12/24/2
f 15/32/2 16/17/2 23/16/2 24/33/2
f 13/30/2 14/34/2 25/35/2 26/31/2
f 49/36/5 50/37/5 40/38/5 41/39/5
f 30/28/2 7/29/2 8/12/2 29/15/2
f 18/26/2 19/40/2 20/41/2 21/27/2
f 47/42/5 49/36/5 41/39/5 43/43/5
f 20/44/1 19/45/1 37/46/1
f 5/47/1 32/48/1 33/49/1
f 37/46/1 38/50/1 36/2/1 20/44/1
f 36/2/1 38/50/1 39/3/1
f 48/51/6 23/52/6 22/53/7 49/54/7
f 14/34/2 15/32/2 24/33/2 25/35/2
f 41/39/5 42/55/5 43/43/5
f 43/43/5 44/56/5 45/57/5
f 44/56/5 4/58/5 45/57/5
f 4/58/5 3/59/5 45/57/5
f 45/57/5 46/60/5 47/42/5
f 47/42/5 48/61/5 49/36/5
f 45/57/5 47/42/5 43/43/5
f 37/62/8 19/63/8 18/64/9 51/65/9
f 51/66/9 18/67/9 17/68/10 52/69/10
f 40/70/11 31/71/11 30/72/12 41/73/12
f 41/74/12 30/75/12 29/76/13 42/77/13
f 52/78/10 17/79/10 16/80/14 53/81/14
f 54/82/15 15/83/15 14/84/16 55/85/16
f 46/86/17 25/87/17 24/88/18 47/89/18
f 50/90/19 21/91/19 20/92/20 36/93/20
f 49/94/7 22/95/7 21/96/19 50/97/19
f 34/98/21 6/99/21 5/100/20 33/101/20
f 35/102/5 40/38/5 50/37/5 36/103/5
f 47/104/18 24/105/18 23/106/6 48/107/6
f 45/108/22 26/109/22 25/110/17 46/111/17
f 35/112/8 32/113/8 31/114/11 40/115/11
f 42/116/13 29/117/13 28/118/23 43/119/23
f 43/120/23 28/121/23 27/122/3 44/123/3
f 53/124/14 16/125/14 15/126/15 54/127/15
f 4/128/4 1/129/4 2/130/24 3/131/24
f 55/132/16 14/133/16 13/134/25 56/135/25
f 56/136/25 13/137/25 12/138/1 57/139/1
f 57/140/1 12/141/1 11/142/26 58/143/26
f 58/144/26 11/145/26 10/146/27 59/147/27
f 59/148/27 10/149/27 9/150/28 60/151/28
f 60/152/28 9/153/28 8/154/29 61/155/29
f 61/156/29 8/157/29 7/158/30 62/159/30
f 62/160/30 7/161/30 6/162/21 34/163/21
f 33/49/1 32/48/1 35/1/1 39/3/1
f 3/131/24 2/130/24 26/164/22 45/165/22
usemtl Asphalt.089
f 58/166/2 60/167/2 52/168/2
f 61/169/2 34/170/2 51/171/2 52/168/2
f 37/172/2 51/171/2 34/170/2 33/173/2
f 61/169/2 62/174/2 34/170/2
f 52/168/2 53/175/2 54/176/2
f 54/176/2 55/177/2 52/168/2
f 55/177/2 56/178/2 52/168/2
f 56/178/2 57/179/2 58/166/2
f 58/166/2 59/180/2 60/167/2
f 60/167/2 61/169/2 52/168/2
f 56/178/2 58/166/2 52/168/2
f 38/50/1 37/46/1 33/49/1 39/3/1
