# Blender v3.4.1 OBJ File: ''
# www.blender.org
mtllib roadTile_126.mtl
o roadTile_126
v 2.625000 0.000000 -2.625000
v 2.625000 0.000000 0.000000
v 2.282370 0.000000 -0.022457
v 1.945600 0.000000 -0.089445
v 1.620460 0.000000 -0.199816
v 1.312500 0.000000 -0.351683
v 1.027000 0.000000 -0.542447
v 0.768845 0.000000 -0.768845
v 0.542447 0.000000 -1.027000
v 0.351683 0.000000 -1.312500
v 0.199816 0.000000 -1.620460
v 0.089445 0.000000 -1.945600
v 0.022457 0.000000 -2.282370
v 0.000000 0.000000 -2.625000
v 2.625000 1.730000 0.000000
v 2.625000 0.300000 -2.625000
v 2.625000 0.300000 -0.375000
v 2.625000 0.600000 -0.375000
v 2.625000 1.730000 -0.375000
v 2.282370 1.730000 -0.022457
v 0.375000 1.730000 -2.625000
v 0.000000 1.730000 -2.625000
v 0.022457 1.730000 -2.282370
v 0.089445 1.730000 -1.945600
v 0.199816 1.730000 -1.620460
v 0.351683 1.730000 -1.312500
v 0.542447 1.730000 -1.027000
v 0.768845 1.730000 -0.768845
v 1.027000 1.730000 -0.542447
v 1.312500 1.730000 -0.351683
v 1.620460 1.730000 -0.199816
v 1.945600 1.730000 -0.089444
v 2.331320 1.730000 -0.394249
v 2.042660 1.730000 -0.451667
v 1.763960 1.730000 -0.546271
v 1.500000 1.730000 -0.676443
v 1.255290 1.730000 -0.839955
v 1.034010 1.730000 -1.034010
v 0.839955 1.730000 -1.255290
v 0.676443 1.730000 -1.500000
v 0.546271 1.730000 -1.763960
v 0.451667 1.730000 -2.042660
v 0.394249 1.730000 -2.331320
v 0.375000 0.600000 -2.625000
v 0.375000 0.300000 -2.625000
v 0.394249 0.600000 -2.331320
v 2.625000 0.600000 -2.625000
v 0.451667 0.600000 -2.042660
v 0.546271 0.600000 -1.763960
v 0.676443 0.600000 -1.500000
v 0.839955 0.600000 -1.255290
v 1.034010 0.600000 -1.034010
v 1.255290 0.600000 -0.839955
v 1.500000 0.600000 -0.676443
v 1.763960 0.600000 -0.546271
v 2.042660 0.600000 -0.451667
v 2.331320 0.600000 -0.394249
vt -0.089445 1.945600
vt -0.022457 2.282370
vt -2.625000 2.625000
vt 0.375000 0.300000
vt 0.375000 0.600000
vt -0.000000 0.000000
vt -0.375000 0.600000
vt -0.375000 0.300000
vt 0.000000 -0.000000
vt 0.000000 2.625000
vt -2.625000 0.000000
vt -2.282370 0.022457
vt -1.945600 0.089445
vt -1.620460 0.199816
vt -1.312500 0.351683
vt -1.027000 0.542447
vt -0.768845 0.768845
vt -0.542447 1.027000
vt -0.351683 1.312500
vt -0.199816 1.620460
vt 0.375000 1.730000
vt -0.000000 1.730000
vt 2.625000 0.000000
vt 2.625000 0.300000
vt -2.234130 0.000000
vt -1.890770 0.000000
vt -1.890770 1.730000
vt -2.234130 1.730000
vt 2.625000 0.000000
vt 2.625000 0.375000
vt 2.331320 0.394249
vt 2.282370 0.022457
vt 2.042660 0.451667
vt 1.945600 0.089445
vt 1.027000 0.542447
vt 1.255290 0.839955
vt 1.034010 1.034010
vt 0.768845 0.768845
vt 1.763960 0.546271
vt 1.500000 0.676443
vt 1.312500 0.351683
vt 1.620460 0.199816
vt 0.451667 2.042660
vt 0.394249 2.331320
vt 0.022457 2.282370
vt 0.089445 1.945600
vt 0.839955 1.255290
vt 0.542447 1.027000
vt 0.676443 1.500000
vt 0.351683 1.312500
vt 0.546271 1.763960
vt 0.199816 1.620460
vt -0.000000 2.625000
vt 0.375000 2.625000
vt -2.625000 0.300000
vt -2.625000 -0.000000
vt 0.000000 1.730000
vt -0.375000 1.730000
vt 2.276010 0.000000
vt 2.619380 0.000000
vt 2.619380 1.730000
vt 2.276010 1.730000
vt -1.813600 0.000000
vt -1.470230 0.000000
vt -1.470230 1.730000
vt -1.813600 1.730000
vt -2.619380 -0.000000
vt -2.276010 0.000000
vt -2.276010 1.730000
vt -2.619380 1.730000
vt -1.364970 0.000000
vt -1.021600 0.000000
vt -1.021600 1.730000
vt -1.364970 1.730000
vt -0.895919 0.000000
vt -0.552553 0.000000
vt -0.552553 1.730000
vt -0.895919 1.730000
vt -0.414480 0.000000
vt -0.071113 0.000000
vt -0.071113 1.730000
vt -0.414480 1.730000
vt 0.071113 0.000000
vt 0.414480 0.000000
vt 0.414480 1.730000
vt 0.071113 1.730000
vt 0.552553 0.000000
vt 0.895919 0.000000
vt 0.895919 1.730000
vt 0.552553 1.730000
vt 1.021600 0.000000
vt 1.364970 0.000000
vt 1.364970 1.730000
vt 1.021600 1.730000
vt 1.470230 0.000000
vt 1.813600 0.000000
vt 1.813600 1.730000
vt 1.470230 1.730000
vt 1.890770 0.000000
vt 2.234130 0.000000
vt 2.234130 1.730000
vt 1.890770 1.730000
vt 2.300540 1.730000
vt 2.300540 0.600000
vt 2.594850 0.600000
vt 2.594850 1.730000
vt 1.915290 1.730000
vt 1.915290 0.600000
vt 2.209610 0.600000
vt 2.209610 1.730000
vt 1.494760 1.730000
vt 1.494760 0.600000
vt 1.789070 0.600000
vt 1.789070 1.730000
vt 1.046130 1.730000
vt 1.046130 0.600000
vt 1.340440 0.600000
vt 1.340440 1.730000
vt 0.577079 1.730000
vt 0.577079 0.600000
vt 0.871393 0.600000
vt 0.871393 1.730000
vt 0.095640 1.730000
vt 0.095640 0.600000
vt 0.389954 0.600000
vt 0.389954 1.730000
vt -0.389954 1.730000
vt -0.389954 0.600000
vt -0.095640 0.600000
vt -0.095640 1.730000
vt -0.871393 1.730000
vt -0.871393 0.600000
vt -0.577079 0.600000
vt -0.577079 1.730000
vt -1.340440 1.730000
vt -1.340440 0.600000
vt -1.046130 0.600000
vt -1.046130 1.730000
vt -1.789070 1.730000
vt -1.789070 0.600000
vt -1.494760 0.600000
vt -1.494760 1.730000
vt -2.209610 1.730000
vt -2.209610 0.600000
vt -1.915290 0.600000
vt -1.915290 1.730000
vt -2.594850 1.730000
vt -2.594850 0.600000
vt -2.300540 0.600000
vt -2.300540 1.730000
vt 2.042660 0.451667
vt 2.331320 0.394249
vt 2.625000 2.625000
vt 2.625000 0.375000
vt 0.375000 2.625000
vt 0.394249 2.331320
vt 0.451667 2.042660
vt 0.546271 1.763960
vt 0.676443 1.500000
vt 0.839955 1.255290
vt 1.034010 1.034010
vt 1.255290 0.839955
vt 1.500000 0.676443
vt 1.763960 0.546271
vt -2.625000 0.600000
vt 2.625000 0.600000
vn 0.0000 -1.0000 -0.0000
vn 1.0000 0.0000 0.0000
vn -0.0000 0.0000 -1.0000
vn -0.9914 -0.0000 0.1305
vn -0.9659 -0.0000 0.2588
vn -0.0000 1.0000 0.0000
vn -0.1305 -0.0000 0.9914
vn -0.0654 -0.0000 0.9979
vn -0.9239 -0.0000 0.3827
vn -0.9979 -0.0000 0.0654
vn -0.8660 -0.0000 0.5000
vn -0.7934 -0.0000 0.6088
vn -0.7071 -0.0000 0.7071
vn -0.6088 -0.0000 0.7934
vn -0.5000 -0.0000 0.8660
vn -0.3827 -0.0000 0.9239
vn -0.2588 -0.0000 0.9659
vn 0.9914 0.0000 -0.1305
vn 0.9979 0.0000 -0.0654
vn 0.9659 0.0000 -0.2588
vn 0.9239 0.0000 -0.3827
vn 0.8660 0.0000 -0.5000
vn 0.7934 0.0000 -0.6088
vn 0.7071 0.0000 -0.7071
vn 0.6088 0.0000 -0.7934
vn 0.5000 0.0000 -0.8660
vn 0.3827 0.0000 -0.9239
vn 0.2588 0.0000 -0.9659
vn 0.1305 0.0000 -0.9914
vn 0.0654 0.0000 -0.9979
usemtl Stone.106
s 1
f 12/1/1 13/2/1 1/3/1
f 17/4/2 18/5/2 2/6/2
f 44/7/3 45/8/3 14/9/3
f 14/10/1 1/3/1 13/2/1
f 1/3/1 2/11/1 3/12/1
f 4/13/1 1/3/1 3/12/1
f 4/13/1 5/14/1 1/3/1
f 5/14/1 6/15/1 1/3/1
f 6/15/1 7/16/1 1/3/1
f 7/16/1 8/17/1 1/3/1
f 8/17/1 9/18/1 1/3/1
f 9/18/1 10/19/1 1/3/1
f 10/19/1 11/20/1 1/3/1
f 11/20/1 12/1/1 1/3/1
f 19/21/2 15/22/2 18/5/2
f 15/22/2 2/6/2 18/5/2
f 2/6/2 1/23/2 17/4/2
f 1/23/2 16/24/2 17/4/2
f 13/25/4 12/26/5 24/27/5 23/28/4
f 15/29/6 19/30/6 33/31/6 20/32/6
f 20/32/6 33/31/6 34/33/6 32/34/6
f 29/35/6 37/36/6 38/37/6 28/38/6
f 35/39/6 36/40/6 30/41/6 31/42/6
f 42/43/6 43/44/6 23/45/6 24/46/6
f 28/38/6 38/37/6 39/47/6 27/48/6
f 27/48/6 39/47/6 40/49/6 26/50/6
f 40/49/6 41/51/6 25/52/6 26/50/6
f 41/51/6 42/43/6 24/46/6 25/52/6
f 22/53/6 23/45/6 43/44/6 21/54/6
f 30/41/6 36/40/6 37/36/6 29/35/6
f 16/55/3 1/56/3 45/8/3
f 1/56/3 14/9/3 45/8/3
f 14/9/3 22/57/3 44/7/3
f 22/57/3 21/58/3 44/7/3
f 3/59/7 2/60/8 15/61/8 20/62/7
f 12/63/5 11/64/9 25/65/9 24/66/5
f 34/33/6 35/39/6 31/42/6 32/34/6
f 14/67/10 13/68/4 23/69/4 22/70/10
f 11/71/9 10/72/11 26/73/11 25/74/9
f 10/75/11 9/76/12 27/77/12 26/78/11
f 9/79/12 8/80/13 28/81/13 27/82/12
f 8/83/13 7/84/14 29/85/14 28/86/13
f 7/87/14 6/88/15 30/89/15 29/90/14
f 6/91/15 5/92/16 31/93/16 30/94/15
f 5/95/16 4/96/17 32/97/17 31/98/16
f 4/99/17 3/100/7 20/101/7 32/102/17
f 43/103/18 46/104/18 44/105/19 21/106/19
f 42/107/20 48/108/20 46/109/18 43/110/18
f 41/111/21 49/112/21 48/113/20 42/114/20
f 40/115/22 50/116/22 49/117/21 41/118/21
f 39/119/23 51/120/23 50/121/22 40/122/22
f 38/123/24 52/124/24 51/125/23 39/126/23
f 37/127/25 53/128/25 52/129/24 38/130/24
f 36/131/26 54/132/26 53/133/25 37/134/25
f 35/135/27 55/136/27 54/137/26 36/138/26
f 34/139/28 56/140/28 55/141/27 35/142/27
f 33/143/29 57/144/29 56/145/28 34/146/28
f 19/147/30 18/148/30 57/149/29 33/150/29
usemtl Asphalt.080
f 56/151/6 57/152/6 47/153/6
f 18/154/6 47/153/6 57/152/6
f 47/153/6 44/155/6 46/156/6
f 48/157/6 47/153/6 46/156/6
f 48/157/6 49/158/6 47/153/6
f 49/158/6 50/159/6 47/153/6
f 50/159/6 51/160/6 47/153/6
f 51/160/6 52/161/6 47/153/6
f 52/161/6 53/162/6 47/153/6
f 53/162/6 54/163/6 47/153/6
f 54/163/6 55/164/6 47/153/6
f 55/164/6 56/151/6 47/153/6
f 44/7/3 47/165/3 16/55/3 45/8/3
f 47/166/2 18/5/2 17/4/2 16/24/2
