# Blender v3.4.1 OBJ File: ''
# www.blender.org
mtllib roadTile_151.mtl
o roadTile_151
v 0.000000 0.550000 -3.000000
v 0.000000 0.000000 -3.000000
v 0.000000 0.000000 0.000000
v 0.000000 1.650000 0.000000
v 3.000000 0.550000 -3.000000
v 3.000000 0.000000 -3.000000
v 3.000000 0.000000 -0.000000
v 3.000000 0.550000 0.000000
vt 3.000000 0.550000
vt 0.000000 1.650000
vt 0.000000 -0.000000
vt 3.000000 0.000000
vt -3.000000 3.000000
vt -3.000000 0.000000
vt 0.000000 3.000000
vt -0.000000 0.550000
vt -3.000000 0.550000
vt -3.000000 0.000000
vt -0.000000 0.000000
vt -3.000000 0.550000
vt -3.000000 0.000000
vt -3.000000 -2.627290
vt -0.000000 -2.627290
vt -0.000000 0.568020
vt 0.000000 -2.627290
vt 0.000000 0.550000
vt 0.000000 -0.000000
vt 3.000000 -0.000000
vt 3.000000 0.550000
vn 0.0000 -0.0000 1.0000
vn 0.0000 -1.0000 -0.0000
vn 0.0000 0.0000 -1.0000
vn -1.0000 -0.0000 0.0000
vn 0.0000 0.9389 -0.3442
vn -0.0000 0.9389 -0.3443
vn 0.3442 0.9389 -0.0000
vn 0.3443 0.9389 0.0000
vn 1.0000 0.0000 0.0000
usemtl Grass.057
s 1
f 8/1/1 4/2/1 3/3/1 7/4/1
f 6/5/2 7/6/2 3/3/2 2/7/2
f 1/8/3 5/9/3 6/10/3 2/11/3
f 3/3/4 4/2/4 1/12/4 2/13/4
f 5/14/5 1/15/6 4/16/7 8/17/8
f 8/18/9 7/19/9 6/20/9 5/21/9
