# Blender v3.4.1 OBJ File: ''
# www.blender.org
mtllib roadTile_292.mtl
o roadTile_292
v 0.000000 0.630000 0.000000
v 0.000000 0.000000 0.000000
v 3.000000 0.000000 -0.000000
v 3.000000 0.630000 0.000000
v 0.000000 0.000000 -3.000000
v 0.000000 0.630000 -0.750000
v 0.000000 0.600000 -0.750000
v 0.000000 0.300000 -0.750000
v 0.000000 0.300000 -2.250000
v 0.000000 0.600000 -2.250000
v 0.000000 0.630000 -2.250000
v 0.000000 0.630000 -3.000000
v 3.000000 0.000000 -3.000000
v 3.000000 0.630000 -3.000000
v 0.750000 0.630000 -3.000000
v 2.250000 0.630000 -3.000000
v 3.000000 0.600000 -2.250000
v 3.000000 0.300000 -2.250000
v 3.000000 0.300000 -0.750000
v 3.000000 0.600000 -0.750000
v 3.000000 0.630000 -0.750000
v 3.000000 0.630000 -2.250000
v 2.250000 0.600000 -2.250000
v 0.750000 0.600000 -2.250000
v 2.250000 0.630000 -2.250000
v 0.750000 0.630000 -2.250000
vt -3.000000 -0.000000
vt 0.000000 -0.000000
vt -2.250000 0.300000
vt -0.750000 0.630000
vt -2.250000 0.630000
vt -3.000000 0.000000
vt 0.750000 0.300000
vt 0.000000 -0.000000
vt 3.000000 -0.000000
vt -3.000000 0.630000
vt -2.250000 0.600000
vt -2.250000 0.630000
vt 2.250000 0.600000
vt 3.000000 0.630000
vt 2.250000 0.630000
vt 0.000000 0.630000
vt 0.000000 0.600000
vt 0.750000 0.600000
vt 0.750000 0.630000
vt 0.000000 0.630000
vt 0.750000 0.600000
vt 0.000000 0.630000
vt -0.750000 0.630000
vt -0.750000 0.600000
vt -2.250000 0.630000
vt -3.000000 0.630000
vt -2.250000 0.600000
vt -0.750000 0.300000
vt 0.750000 2.272180
vt 2.250000 2.272180
vt 2.250000 3.022780
vt 0.750000 3.022780
vt -3.000000 0.630000
vt -0.000000 0.000000
vt -0.000000 0.630000
vt 2.250000 0.630000
vt 2.250000 0.600000
vt 3.000000 0.630000
vt 0.750000 0.630000
vt 2.250000 0.300000
vt 2.250000 0.600000
vt 3.000000 0.600000
vt 3.000000 0.630000
vt 2.250000 0.630000
vt 3.000000 0.000000
vt 3.000000 0.750000
vt 0.000000 0.750000
vt 0.000000 0.000000
vt -3.000000 0.630000
vt -3.000000 0.600000
vt -0.000000 0.600000
vt -0.000000 0.630000
vt 3.000000 2.250000
vt 3.000000 3.000000
vt 2.250000 3.000000
vt 2.250000 2.250000
vt -3.000000 3.000000
vt -3.000000 0.000000
vt 0.000000 3.000000
vt -0.000000 3.000000
vt 0.000000 2.250000
vt 0.750000 2.250000
vt 0.750000 3.000000
vt 3.000000 0.630000
vt 3.000000 0.000000
vt 3.000000 0.750000
vt 2.250000 2.250000
vt 0.750000 2.250000
vt 0.000000 0.750000
vt 0.000000 2.250000
vt 3.000000 2.250000
vn -1.0000 -0.0000 0.0000
vn 0.0000 0.0000 -1.0000
vn 1.0000 -0.0000 0.0000
vn 0.0000 0.0000 1.0000
vn -0.0000 0.9998 0.0200
vn 0.0000 0.9992 0.0400
vn 0.0000 1.0000 0.0000
vn 0.0000 -1.0000 -0.0000
usemtl Stone.248
s 1
f 5/1/1 2/2/1 9/3/1
f 15/4/2 16/5/2 13/6/2
f 19/7/3 3/8/3 13/9/3
f 16/10/1 23/11/1 25/12/1
f 24/13/3 15/14/3 26/15/3
f 11/16/4 10/17/4 24/18/4 26/19/4
f 4/20/3 3/8/3 19/7/3 20/21/3
f 1/22/1 6/23/1 7/24/1
f 11/25/1 12/26/1 10/27/1
f 7/24/1 8/28/1 2/2/1 1/22/1
f 2/2/1 8/28/1 9/3/1
f 24/29/5 23/30/5 16/31/6 15/32/6
f 16/5/2 14/33/2 13/6/2
f 13/6/2 5/34/2 15/4/2
f 5/34/2 12/35/2 15/4/2
f 22/36/3 17/37/3 14/38/3
f 10/27/1 12/26/1 5/1/1 9/3/1
f 20/21/3 21/39/3 4/20/3
f 13/9/3 18/40/3 19/7/3
f 23/41/4 17/42/4 22/43/4 25/44/4
f 4/45/7 21/46/7 6/47/7 1/48/7
f 21/49/2 20/50/2 7/51/2 6/52/2
f 22/53/7 14/54/7 16/55/7 25/56/7
f 13/57/8 3/58/8 2/2/8 5/59/8
f 12/60/7 11/61/7 26/62/7 15/63/7
f 13/9/3 14/38/3 17/37/3 18/40/3
f 4/64/4 1/22/4 2/2/4 3/65/4
usemtl Asphalt.201
f 20/66/7 23/67/5 24/68/5 7/69/7
f 10/70/7 7/69/7 24/68/5
f 20/66/7 17/71/7 23/67/5
f 7/24/1 10/27/1 9/3/1 8/28/1
f 17/37/3 20/21/3 19/7/3 18/40/3
