# Blender v3.4.1 OBJ File: ''
# www.blender.org
mtllib roadTile_159.mtl
o roadTile_159
v 0.692910 0.550000 -0.287013
v 0.724444 0.550000 -0.194114
v 0.724444 0.455000 -0.194114
v 0.692910 0.455000 -0.287013
v 0.000000 0.550000 0.000000
v 0.750000 0.550000 0.000000
v 0.743584 0.550000 -0.097895
v 0.649519 0.550000 -0.375000
v 0.595015 0.550000 -0.456571
v 0.530330 0.550000 -0.530330
v 0.456571 0.550000 -0.595015
v 0.375000 0.550000 -0.649519
v 0.287013 0.550000 -0.692910
v 0.194114 0.550000 -0.724444
v 0.097895 0.550000 -0.743584
v 0.000000 0.550000 -0.750000
v 0.000000 0.000000 0.000000
v 0.750000 0.000000 -0.000000
v 0.750000 0.455000 0.000000
v 0.000000 0.000000 -0.750000
v 0.000000 0.000000 -3.000000
v 3.000000 0.000000 -3.000000
v 3.000000 0.000000 -0.000000
v 0.000000 0.455000 -0.750000
v 0.000000 0.455000 -3.000000
v 3.000000 0.455000 -3.000000
v 0.097895 0.455000 -0.743584
v 0.194114 0.455000 -0.724444
v 0.287013 0.455000 -0.692910
v 0.375000 0.455000 -0.649519
v 0.456571 0.455000 -0.595015
v 0.530330 0.455000 -0.530330
v 0.595015 0.455000 -0.456571
v 0.649519 0.455000 -0.375000
v 0.743584 0.455000 -0.097895
v 3.000000 0.455000 0.000000
vt 0.194114 0.724444
vt 0.097895 0.743584
vt 0.000000 0.000000
vt 0.750000 0.455000
vt 0.750000 0.550000
vt 0.000000 0.550000
vt -0.750000 0.000000
vt -0.000000 0.750000
vt -3.000000 3.000000
vt 0.049052 0.455000
vt 0.049052 0.550000
vt -0.049052 0.550000
vt -0.049052 0.455000
vt 0.000000 0.750000
vt 0.750000 0.000000
vt 0.743584 0.097895
vt 0.724444 0.194114
vt 0.692910 0.287013
vt 0.649519 0.375000
vt 0.595015 0.456571
vt 0.530330 0.530330
vt 0.456571 0.595015
vt 0.375000 0.649519
vt 0.287013 0.692910
vt -0.750000 0.455000
vt -0.750000 0.000000
vt 0.000000 0.000000
vt -0.000000 3.000000
vt -3.000000 0.000000
vt -0.750000 0.550000
vt 0.049052 0.455000
vt 0.049052 0.550000
vt -0.049052 0.550000
vt -0.049052 0.455000
vt 0.049052 0.455000
vt 0.049052 0.550000
vt -0.049052 0.550000
vt -0.049052 0.455000
vt 0.049052 0.455000
vt 0.049052 0.550000
vt -0.049052 0.550000
vt -0.049052 0.455000
vt 0.049052 0.455000
vt 0.049052 0.550000
vt -0.049052 0.550000
vt -0.049052 0.455000
vt 0.049052 0.455000
vt 0.049052 0.550000
vt -0.049052 0.550000
vt -0.049052 0.455000
vt 0.049052 0.455000
vt 0.049052 0.550000
vt -0.049052 0.550000
vt -0.049052 0.455000
vt 0.049052 0.455000
vt 0.049052 0.550000
vt -0.049052 0.550000
vt -0.049052 0.455000
vt 0.049052 0.455000
vt 0.049052 0.550000
vt -0.049052 0.550000
vt -0.049052 0.455000
vt 0.049052 0.455000
vt 0.049052 0.550000
vt -0.049052 0.550000
vt -0.049052 0.455000
vt 0.049052 0.455000
vt 0.049052 0.550000
vt -0.049052 0.550000
vt -0.049052 0.455000
vt 0.750000 0.000000
vt 0.049052 0.455000
vt 0.049052 0.550000
vt -0.049052 0.550000
vt -0.049052 0.455000
vt 3.000000 3.000000
vt 0.530330 0.530330
vt 0.595015 0.456571
vt -3.000000 -0.000000
vt -0.000000 -0.000000
vt -0.000000 0.455000
vt -3.000000 0.455000
vt 3.000000 0.000000
vt 0.000000 3.000000
vt 0.456571 0.595015
vt 0.287013 0.692910
vt 0.194114 0.724444
vt 0.000000 0.750000
vt 0.097895 0.743584
vt 0.743584 0.097895
vt 0.750000 0.000000
vt 0.724444 0.194114
vt 0.375000 0.649519
vt 0.692910 0.287013
vt 0.649519 0.375000
vt 3.000000 0.455000
vt 0.000000 0.455000
vt 0.000000 0.000000
vt 3.000000 0.000000
vt 3.000000 0.455000
vt 3.000000 0.000000
vt -3.000000 0.455000
vt -3.000000 0.000000
vn -0.0000 1.0000 0.0000
vn 0.0000 -0.0000 1.0000
vn -0.0000 -1.0000 -0.0000
vn 0.9659 0.0000 -0.2588
vn 0.9914 0.0000 -0.1305
vn -1.0000 -0.0000 -0.0000
vn 0.0654 0.0000 -0.9979
vn 0.1305 0.0000 -0.9914
vn 0.2588 0.0000 -0.9659
vn 0.3827 0.0000 -0.9239
vn 0.5000 0.0000 -0.8660
vn 0.6088 0.0000 -0.7934
vn 0.7071 0.0000 -0.7071
vn 0.9979 0.0000 -0.0654
vn 0.7934 0.0000 -0.6088
vn 0.8660 0.0000 -0.5000
vn 0.9239 0.0000 -0.3827
vn 0.0000 0.0000 -1.0000
vn 1.0000 0.0000 0.0000
usemtl Grass.065
s 1
f 14/1/1 15/2/1 5/3/1
f 19/4/2 6/5/2 5/6/2
f 18/7/3 20/8/3 22/9/3
f 3/10/4 2/11/4 7/12/5 35/13/5
f 16/14/1 5/3/1 15/2/1
f 5/3/1 6/15/1 7/16/1
f 2/17/1 5/3/1 7/16/1
f 2/17/1 1/18/1 5/3/1
f 1/18/1 8/19/1 5/3/1
f 8/19/1 9/20/1 5/3/1
f 9/20/1 10/21/1 5/3/1
f 10/21/1 11/22/1 5/3/1
f 11/22/1 12/23/1 5/3/1
f 12/23/1 13/24/1 5/3/1
f 13/24/1 14/1/1 5/3/1
f 5/6/6 24/25/6 20/26/6 17/27/6
f 18/7/3 17/27/3 20/8/3
f 20/8/3 21/28/3 22/9/3
f 22/9/3 23/29/3 18/7/3
f 16/30/6 24/25/6 5/6/6
f 24/31/7 16/32/7 15/33/8 27/34/8
f 27/35/8 15/36/8 14/37/9 28/38/9
f 28/39/9 14/40/9 13/41/10 29/42/10
f 29/43/10 13/44/10 12/45/11 30/46/11
f 30/47/11 12/48/11 11/49/12 31/50/12
f 31/51/12 11/52/12 10/53/13 32/54/13
f 35/55/5 7/56/5 6/57/14 19/58/14
f 32/59/13 10/60/13 9/61/15 33/62/15
f 33/63/15 9/64/15 8/65/16 34/66/16
f 34/67/16 8/68/16 1/69/17 4/70/17
f 17/27/2 18/71/2 19/4/2 5/6/2
f 4/72/17 1/73/17 2/74/4 3/75/4
usemtl Water.009
f 26/76/1 32/77/1 33/78/1
f 22/79/18 21/80/18 25/81/18 26/82/18
f 36/83/1 26/76/1 33/78/1
f 26/76/1 25/84/1 31/85/1
f 29/86/1 25/84/1 28/87/1
f 25/84/1 24/88/1 27/89/1
f 25/84/1 27/89/1 28/87/1
f 35/90/1 19/91/1 36/83/1
f 3/92/1 35/90/1 36/83/1
f 25/84/1 29/86/1 30/93/1
f 25/84/1 30/93/1 31/85/1
f 4/94/1 3/92/1 36/83/1
f 34/95/1 4/94/1 36/83/1
f 26/76/1 31/85/1 32/77/1
f 33/78/1 34/95/1 36/83/1
f 26/96/19 36/97/19 23/98/19 22/99/19
f 36/100/2 19/4/2 18/71/2 23/101/2
f 20/26/6 24/25/6 25/102/6 21/103/6
