# Blender v3.4.1 OBJ File: ''
# www.blender.org
mtllib roadTile_109.mtl
o roadTile_109
v 0.000000 0.630000 -0.375000
v 0.000000 0.630000 0.000000
v 3.000000 0.630000 0.000000
v 3.000000 0.630000 -0.375000
v 0.000000 0.000000 -2.250000
v 0.000000 0.000000 0.000000
v 0.000000 0.600000 -0.375000
v 0.000000 0.300000 -0.375000
v 0.000000 0.300000 -1.875000
v 0.000000 0.600000 -1.875000
v 0.000000 0.630000 -1.875000
v 0.000000 0.630000 -2.250000
v 3.000000 0.000000 -2.250000
v 3.000000 0.000000 -0.000000
v 3.000000 0.630000 -2.250000
v 3.000000 0.630000 -1.875000
v 3.000000 0.600000 -1.875000
v 3.000000 0.300000 -1.875000
v 3.000000 0.300000 -0.375000
v 3.000000 0.600000 -0.375000
v 1.125000 0.600000 -1.687500
v 1.125000 0.600000 -1.312500
v 1.125000 0.600000 -0.375000
v 1.875000 0.600000 -0.375000
v 1.875000 0.600000 -0.562500
v 1.875000 0.600000 -1.125000
v 1.875000 0.600000 -1.687500
v 1.875000 0.600000 -1.500000
v 1.125000 0.600000 -1.500000
v 1.875000 0.600000 -1.312500
v 1.125000 0.600000 -1.125000
v 1.125000 0.600000 -0.750000
v 1.125000 0.600000 -0.937500
v 1.875000 0.600000 -0.750000
v 1.875000 0.600000 -0.937500
v 1.125000 0.600000 -0.562500
vt -2.250000 0.000000
vt 0.000000 0.000000
vt -1.875000 0.300000
vt -0.000000 0.000000
vt 2.250000 0.000000
vt 0.375000 0.300000
vt -1.125000 0.600000
vt -0.000000 0.630000
vt -3.000000 0.630000
vt -0.375000 0.600000
vt -0.375000 0.300000
vt 0.000000 0.630000
vt 3.000000 0.630000
vt 0.000000 0.630000
vt 0.000000 0.600000
vt 3.000000 0.600000
vt 1.875000 0.600000
vt 1.875000 0.300000
vt 2.250000 0.630000
vt -0.375000 0.630000
vt -1.875000 0.630000
vt -2.250000 0.630000
vt -1.875000 0.600000
vt 0.375000 0.600000
vt -0.000000 0.630000
vt 0.000000 1.875000
vt 3.000000 1.875000
vt 3.000000 2.250000
vt 0.000000 2.250000
vt 1.875000 0.630000
vt 0.375000 0.630000
vt -3.000000 0.600000
vt -1.875000 0.600000
vt -0.000000 0.600000
vt -0.000000 -0.000000
vt -0.000000 0.630000
vt -3.000000 0.630000
vt -3.000000 0.000000
vt 0.000000 2.250000
vt -3.000000 2.250000
vt -3.000000 0.000000
vt 3.000000 0.375000
vt 0.000000 0.375000
vt 0.000000 -0.000000
vt 3.000000 0.000000
vt 3.000000 -0.000000
vt 3.000000 0.630000
vt 0.000000 1.875000
vt 1.125000 1.687500
vt 3.000000 1.875000
vt 1.125000 1.312500
vt 0.000000 0.375000
vt 1.125000 0.375000
vt 3.000000 0.375000
vt 1.875000 0.562500
vt 1.875000 0.375000
vt 1.875000 1.687500
vt 1.875000 1.125000
vt 1.875000 1.500000
vt 1.875000 1.312500
vt 1.125000 1.500000
vt 1.125000 0.750000
vt 1.125000 1.125000
vt 1.125000 0.937500
vt 1.875000 0.750000
vt 1.875000 0.937500
vt 1.125000 0.562500
vn -1.0000 0.0000 0.0000
vn 1.0000 0.0000 0.0000
vn 0.0000 0.0000 -1.0000
vn 0.0000 0.0000 1.0000
vn 0.0000 1.0000 0.0000
vn 0.0000 -1.0000 -0.0000
vn -0.0001 1.0000 0.0000
vn -0.4999 0.5001 -0.7071
vn 0.4440 0.4441 -0.7782
vn 0.5529 0.5529 -0.6233
vn 0.8154 0.0758 -0.5739
vn 0.5014 0.5014 -0.7052
vn -0.4304 0.4304 -0.7934
vn -0.5530 0.5529 -0.6233
vn 0.4064 0.4065 -0.8183
vn -0.4441 0.4440 -0.7782
usemtl Stone.089
s 1
f 5/1/1 6/2/1 9/3/1
f 14/4/2 13/5/2 19/6/2
f 23/7/3 1/8/3 4/9/3
f 7/10/1 8/11/1 6/2/1 2/12/1
f 16/13/4 11/14/4 10/15/4 17/16/4
f 17/17/2 18/18/2 13/5/2 15/19/2
f 2/12/1 1/20/1 7/10/1
f 11/21/1 12/22/1 10/23/1
f 20/24/2 3/25/2 14/4/2 19/6/2
f 6/2/1 8/11/1 9/3/1
f 11/26/5 16/27/5 15/28/5 12/29/5
f 10/23/1 12/22/1 5/1/1 9/3/1
f 15/19/2 16/30/2 17/17/2
f 4/31/2 3/25/2 20/24/2
f 13/5/2 18/18/2 19/6/2
f 4/9/3 20/32/3 24/33/3
f 23/7/3 7/34/3 1/8/3
f 4/9/3 24/33/3 23/7/3
f 5/35/3 12/36/3 15/37/3 13/38/3
f 5/39/6 13/40/6 14/41/6 6/2/6
f 4/42/5 1/43/5 2/44/5 3/45/5
f 14/46/4 3/47/4 2/12/4 6/2/4
usemtl Asphalt.063
f 10/48/5 21/49/5 17/50/5
f 22/51/5 7/52/5 23/53/7
f 20/54/5 25/55/5 24/56/5
f 17/50/5 27/57/5 26/58/5
f 17/50/5 21/49/5 27/57/5
f 28/59/8 26/58/5 27/57/5
f 28/59/8 30/60/9 26/58/5
f 22/51/5 29/61/10 21/49/5
f 32/62/11 31/63/12 22/51/5
f 31/63/12 32/62/11 33/64/13
f 34/65/14 25/55/5 35/66/15
f 32/62/11 23/53/7 36/67/16
f 22/51/5 23/53/7 32/62/11
f 35/66/15 25/55/5 26/58/5
f 7/52/5 22/51/5 21/49/5 10/48/5
f 7/10/1 10/23/1 9/3/1 8/11/1
f 17/17/2 20/24/2 19/6/2 18/18/2
f 29/61/10 22/51/5 30/60/9 28/59/8
f 17/50/5 26/58/5 25/55/5 20/54/5
f 32/62/11 36/67/16 25/55/5 34/65/14
f 31/63/12 33/64/13 35/66/15 26/58/5
usemtl White.002
f 23/53/7 24/56/5 25/55/5 36/67/16
f 32/62/11 34/65/14 35/66/15 33/64/13
f 31/63/12 26/58/5 30/60/9 22/51/5
f 29/61/10 28/59/8 27/57/5 21/49/5
