# Blender v3.4.1 OBJ File: ''
# www.blender.org
mtllib roadTile_104.mtl
o roadTile_104
v 3.000000 0.600001 -3.000000
v 0.000000 0.600001 -3.000000
v 0.000000 0.600000 -2.062500
v 3.000000 0.600000 -2.062500
v 0.000000 0.300000 -3.000000
v 3.000000 0.300000 -3.000000
v 0.000000 0.300000 0.000000
v 0.000000 0.600000 0.000000
v 0.000000 0.600000 -0.937500
v 0.000000 0.570000 -0.937500
v 0.000000 0.570000 -1.125000
v 0.000000 0.600000 -1.125000
v 0.000000 0.600000 -1.875000
v 0.000000 0.570000 -1.875000
v 0.000000 0.570000 -2.062500
v 3.000000 0.300000 0.000000
v 3.000000 0.600000 0.000000
v 3.000000 0.000000 0.000000
v 0.000000 0.000000 -0.000000
v 3.000000 0.000000 -3.000000
v 0.000000 0.000000 -3.000000
v 3.000000 0.570000 -2.062500
v 3.000000 0.570000 -1.875000
v 3.000000 0.600000 -1.875000
v 3.000000 0.600000 -1.125000
v 3.000000 0.570000 -1.125000
v 3.000000 0.570000 -0.937500
v 3.000000 0.600000 -0.937500
vt -3.000000 0.300000
vt -1.875000 0.570000
vt -2.062500 0.570000
vt 0.000000 0.300000
vt 1.125000 0.570000
vt 0.937500 0.570000
vt -3.000000 0.300000
vt -0.000000 0.300000
vt -0.000000 0.600000
vt -3.000000 0.600000
vt 0.000000 0.600000
vt 0.937500 0.600000
vt -0.000000 0.300000
vt -1.125000 0.570000
vt -3.000000 0.600000
vt -2.062500 0.600000
vt -0.937500 0.570000
vt 3.000000 0.600000
vt 0.000000 0.600000
vt 3.000000 0.300000
vt 3.000000 0.600000
vt 2.062500 0.600000
vt 2.062500 0.570000
vt 3.000000 0.300000
vt 1.875000 0.570000
vt 0.000000 0.937500
vt 0.000000 0.000000
vt 3.000000 0.000000
vt 3.000000 0.937500
vt 1.125000 0.600000
vt 1.875000 0.600000
vt 3.000000 1.875000
vt 0.000000 1.875000
vt 0.000000 1.125000
vt 3.000000 1.125000
vt -1.875000 0.600000
vt -1.125000 0.600000
vt -0.937500 0.600000
vt 3.000000 2.062500
vt 3.000000 3.000000
vt 0.000000 3.000000
vt 0.000000 2.062500
vt 0.000000 118.110001
vt 0.000000 0.000000
vt 118.110001 0.000000
vt 118.110001 118.110001
vt 0.000000 -0.000000
vt 3.000000 0.000000
vt 0.000000 -0.000000
vt 3.000000 -0.000000
vt -3.000000 -0.000000
vt 0.000000 -0.000000
vt -3.000000 0.000000
vt -0.000000 3.000000
vt -3.000000 3.000000
vt -3.000000 0.000000
vt -0.000000 0.570000
vt -0.000000 0.600000
vt -3.000000 0.600000
vt -3.000000 0.570000
vt 3.000000 0.570000
vt 3.000000 0.600000
vt -0.000000 0.600000
vt -0.000000 0.570000
vt 0.000000 0.570000
vt 3.000000 0.570000
vt 3.000000 0.600000
vt 0.000000 0.600000
vt 0.000000 2.062500
vt 0.000000 1.875000
vt 3.000000 1.875000
vt 3.000000 2.062500
vt 0.000000 0.570000
vt 0.000000 0.600000
vt -3.000000 0.600000
vt -3.000000 0.570000
vt 3.000000 1.125000
vt 0.000000 1.125000
vt 0.000000 0.937500
vt 3.000000 0.937500
vn -1.0000 -0.0000 0.0000
vn 1.0000 -0.0000 0.0000
vn 0.0000 0.0000 -1.0000
vn -0.0000 -0.0000 1.0000
vn 0.0000 1.0000 0.0000
vn 0.0000 -1.0000 -0.0000
usemtl Asphalt.058
s 1
f 5/1/1 14/2/1 15/3/1
f 16/4/2 26/5/2 27/6/2
f 6/7/3 5/8/3 2/9/3 1/10/3
f 17/11/2 16/4/2 27/6/2 28/12/2
f 5/1/1 7/13/1 11/14/1
f 2/15/1 5/1/1 15/3/1 3/16/1
f 7/13/1 10/17/1 11/14/1
f 5/1/1 11/14/1 14/2/1
f 17/18/4 8/19/4 7/13/4 16/20/4
f 1/21/2 4/22/2 22/23/2 6/24/2
f 16/4/2 6/24/2 23/25/2
f 6/24/2 22/23/2 23/25/2
f 16/4/2 23/25/2 26/5/2
f 9/26/5 8/27/5 17/28/5 28/29/5
f 25/30/2 26/5/2 23/25/2 24/31/2
f 24/32/5 13/33/5 12/34/5 25/35/5
f 13/36/1 14/2/1 11/14/1 12/37/1
f 8/19/1 9/38/1 10/17/1 7/13/1
f 4/39/5 1/40/5 2/41/5 3/42/5
usemtl FrontColor.007
f 5/43/5 7/44/5 16/45/5 6/46/5
usemtl Stone.084
f 19/47/4 18/48/4 16/20/4 7/13/4
f 18/49/2 20/50/2 6/24/2 16/4/2
f 20/51/3 21/52/3 5/8/3 6/7/3
f 21/53/1 19/47/1 7/13/1 5/1/1
f 19/47/6 21/54/6 20/55/6 18/56/6
usemtl Grey_Asphalt.016
f 10/57/3 9/58/3 28/59/3 27/60/3
f 26/61/4 25/62/4 12/63/4 11/64/4
f 15/65/4 22/66/4 4/67/4 3/68/4
f 15/69/5 14/70/5 23/71/5 22/72/5
f 14/73/3 13/74/3 24/75/3 23/76/3
f 26/77/5 11/78/5 10/79/5 27/80/5
