# Blender v3.4.1 OBJ File: ''
# www.blender.org
mtllib roadTile_115.mtl
o roadTile_115
v 0.000000 0.600000 -1.746110
v 0.000000 0.300000 -1.746110
v 0.000000 0.300000 -0.450043
v 0.000000 0.600000 -0.450043
v 1.296070 0.600000 -1.746110
v 1.296070 0.300000 -1.746110
v 1.746110 0.000000 -1.746110
v 0.000000 0.000000 -1.746110
v 1.296070 0.630000 -1.746110
v 1.746110 0.630000 -1.746110
v 1.462610 0.000000 -1.321830
v 0.977476 0.000000 -0.768634
v 0.424283 0.000000 -0.283497
v 0.000000 0.000000 0.000000
v 1.462610 0.630000 -1.321830
v 0.000000 0.630000 -0.450043
v 0.000000 0.630000 0.000000
v 0.424283 0.630000 -0.283497
v 0.977476 0.630000 -0.768634
v 1.165110 0.630000 -1.550110
v 0.712311 0.630000 -1.033800
v 0.195998 0.630000 -0.581004
v 0.195998 0.600000 -0.581004
v 0.712311 0.600000 -1.033800
v 1.165110 0.600000 -1.550110
vt 0.712311 1.033800
vt 1.165110 1.550110
vt 0.000000 1.746110
vt -0.000000 0.600000
vt -1.296070 0.600000
vt -1.296070 0.300000
vt -0.000000 0.300000
vt 1.296070 1.746110
vt 0.000000 0.450043
vt 0.195998 0.581004
vt -0.450043 0.600000
vt -1.746110 0.600000
vt -1.746110 0.300000
vt -0.450043 0.300000
vt -0.977476 0.768634
vt -0.424283 0.283497
vt -0.000000 1.746110
vt -1.933640 0.630000
vt -1.933640 0.600000
vt -1.246910 0.600000
vt -1.246910 0.630000
vt -1.746110 0.000000
vt -0.000000 -0.000000
vt -1.296070 0.630000
vt -1.746110 0.630000
vt -0.000000 0.000000
vt -1.746110 1.746110
vt -1.462610 1.321830
vt 0.712311 1.033800
vt 0.195998 0.581004
vt 0.424283 0.283497
vt 0.977476 0.768634
vt 1.296070 1.746110
vt 1.165110 1.550110
vt 1.462610 1.321830
vt 1.746110 1.746110
vt -0.000000 0.450043
vt 0.000000 0.000000
vt -0.000000 0.630000
vt -1.746110 0.000000
vt -0.450043 0.630000
vt -0.485755 0.630000
vt -0.485755 0.600000
vt -0.250030 0.600000
vt -0.250030 0.630000
vt -1.217170 0.630000
vt -1.217170 0.600000
vt -0.530442 0.600000
vt -0.530442 0.630000
vt 0.510281 0.000000
vt 0.510281 0.630000
vt 1.911640 0.000000
vt 2.421920 0.000000
vt 2.421920 0.630000
vt 1.911640 0.630000
vt 1.222380 0.000000
vt 1.958170 0.000000
vt 1.958170 0.630000
vt 1.222380 0.630000
vt 0.505915 0.000000
vt 1.241700 0.000000
vt 1.241700 0.630000
vt 0.505915 0.630000
vt -2.171890 0.630000
vt -2.171890 0.600000
vt -1.936170 0.600000
vt -1.936170 0.630000
vn 0.0000 1.0000 0.0000
vn 0.0000 0.0000 -1.0000
vn -1.0000 0.0000 -0.0000
vn 0.0000 -1.0000 -0.0000
vn -0.7934 0.0000 -0.6088
vn -0.7071 0.0000 -0.7071
vn -0.6088 0.0000 -0.7934
vn -0.5556 0.0000 -0.8315
vn 0.5556 -0.0000 0.8315
vn 0.6088 -0.0000 0.7934
vn 0.7934 -0.0000 0.6088
vn 0.8315 0.0000 0.5556
vn 0.7071 -0.0000 0.7071
vn -0.8315 0.0000 -0.5556
usemtl Asphalt.069
s 1
f 24/1/1 25/2/1 1/3/1
f 1/4/2 5/5/2 6/6/2 2/7/2
f 5/8/1 1/3/1 25/2/1
f 1/3/1 4/9/1 23/10/1
f 24/1/1 1/3/1 23/10/1
f 4/11/3 1/12/3 2/13/3 3/14/3
usemtl Stone.095
f 12/15/4 13/16/4 8/17/4
f 20/18/5 25/19/5 24/20/6 21/21/6
f 7/22/2 8/23/2 6/6/2
f 8/23/2 2/7/2 6/6/2
f 5/5/2 9/24/2 10/25/2
f 14/26/4 8/17/4 13/16/4
f 8/17/4 7/27/4 11/28/4
f 12/15/4 8/17/4 11/28/4
f 21/29/1 22/30/1 18/31/1 19/32/1
f 9/33/1 20/34/1 15/35/1 10/36/1
f 15/35/1 20/34/1 21/29/1 19/32/1
f 16/37/1 17/38/1 18/31/1 22/30/1
f 4/11/3 3/14/3 14/26/3 17/39/3
f 2/13/3 8/40/3 3/14/3
f 8/40/3 14/26/3 3/14/3
f 10/25/2 7/22/2 6/6/2 5/5/2
f 17/39/3 16/41/3 4/11/3
f 22/42/7 23/43/7 4/44/8 16/45/8
f 21/46/6 24/47/6 23/48/7 22/49/7
f 14/26/9 13/50/10 18/51/10 17/39/9
f 11/52/11 7/53/12 10/54/12 15/55/11
f 12/56/13 11/57/11 15/58/11 19/59/13
f 13/60/10 12/61/13 19/62/13 18/63/10
f 9/64/14 5/65/14 25/66/5 20/67/5
