# Blender v3.4.1 OBJ File: ''
# www.blender.org
mtllib roadTile_133.mtl
o roadTile_133
v 2.437500 0.600000 -1.312500
v 0.562500 0.600000 -1.312500
v 0.562500 0.600000 -0.562500
v 2.437500 0.600000 -0.562500
v 2.437500 0.630000 -1.312500
v 0.562500 0.630000 -1.312500
v 2.437500 0.630000 -0.562500
v 0.562500 0.630000 -0.562500
v 2.437500 0.630000 -1.875000
v 0.000000 0.630000 -1.875000
v 0.000000 0.630000 0.000000
v 2.437500 0.630000 0.000000
v 2.437500 0.000000 0.000000
v 2.437500 0.000000 -1.875000
v 2.437500 0.300000 -1.312500
v 2.437500 0.300000 -0.562500
v 0.000000 0.000000 -0.000000
v 0.000000 0.000000 -1.875000
vt 1.312500 0.600000
vt 0.562500 0.600000
vt 0.562500 0.300000
vt 1.312500 0.300000
vt 2.437500 0.562500
vt 2.437500 1.312500
vt 0.562500 1.312500
vt 0.562500 0.562500
vt 0.562500 1.312500
vt 0.000000 1.875000
vt 0.000000 0.000000
vt 0.000000 -0.000000
vt 1.875000 -0.000000
vt 2.437500 0.600000
vt 2.437500 0.630000
vt 0.562500 0.630000
vt 0.562500 0.600000
vt -2.437500 0.630000
vt -2.437500 0.600000
vt -0.562500 0.600000
vt -0.562500 0.630000
vt 2.437500 0.000000
vt 2.437500 0.562500
vt 0.562500 0.562500
vt 2.437500 1.312500
vt 2.437500 1.875000
vt 0.000000 -0.000000
vt 0.000000 0.630000
vt -2.437500 0.630000
vt -2.437500 -0.000000
vt 1.875000 0.630000
vt 1.312500 0.630000
vt 0.562500 0.630000
vt 0.000000 0.630000
vt 2.437500 0.000000
vt 2.437500 0.630000
vt -0.000000 0.630000
vt -0.000000 0.000000
vt -1.875000 0.630000
vt -1.875000 0.000000
vt -0.000000 1.875000
vt -2.437500 1.875000
vt -2.437500 0.000000
vt -22.145700 24.803101
vt -51.673199 24.803101
vt -51.673199 23.622000
vt -22.145700 23.622000
vn 1.0000 -0.0000 0.0000
vn 0.0000 1.0000 0.0000
vn 0.0000 0.0000 1.0000
vn 0.0000 0.0000 -1.0000
vn -1.0000 0.0000 -0.0000
vn 0.0000 -1.0000 -0.0000
usemtl Asphalt.086
s 1
f 1/1/1 4/2/1 16/3/1 15/4/1
f 4/5/2 1/6/2 2/7/2 3/8/2
usemtl Stone.113
f 6/9/2 10/10/2 11/11/2
f 13/12/1 14/13/1 16/3/1
f 1/14/3 5/15/3 6/16/3 2/17/3
f 7/18/4 4/19/4 3/20/4 8/21/4
f 12/22/2 7/23/2 8/24/2
f 6/9/2 5/25/2 9/26/2
f 11/11/2 12/22/2 8/24/2
f 6/9/2 9/26/2 10/10/2
f 11/11/2 8/24/2 6/9/2
f 18/27/4 10/28/4 9/29/4 14/30/4
f 9/31/1 5/32/1 1/1/1
f 7/33/1 12/34/1 4/2/1
f 1/1/1 15/4/1 14/13/1 9/31/1
f 14/13/1 15/4/1 16/3/1
f 13/35/3 12/36/3 11/37/3 17/38/3
f 17/38/5 11/37/5 10/39/5 18/40/5
f 4/2/1 12/34/1 13/12/1 16/3/1
f 18/41/6 14/42/6 13/43/6 17/38/6
usemtl FrontColor.009
f 8/44/5 6/45/5 2/46/5 3/47/5
