# Blender v3.4.1 OBJ File: ''
# www.blender.org
mtllib roadTile_076.mtl
o roadTile_076
v 3.000000 0.600000 -0.750001
v 3.000000 0.300000 -0.750001
v 3.000000 0.300000 -2.250000
v 3.000000 0.600000 -2.250000
v 3.000000 0.630000 0.000000
v 3.000000 0.000000 0.000000
v 3.000000 0.000000 -3.000000
v 3.000000 0.630000 -3.000000
v 3.000000 0.630000 -2.250000
v 3.000000 0.630000 -0.750001
v 0.000000 0.000000 -0.000000
v 0.000000 0.630000 0.000000
v 0.000000 0.000000 -3.000000
v 0.000000 0.630000 -3.000000
v 1.305890 0.630000 -2.224440
v 1.500000 0.630000 -2.250000
v 1.500000 0.630000 -0.750001
v 1.305890 0.630000 -0.775556
v 1.125000 0.630000 -0.850481
v 0.969670 0.630000 -0.969670
v 0.850481 0.630000 -1.125000
v 0.775556 0.630000 -1.305890
v 0.750000 0.630000 -1.500000
v 0.775556 0.630000 -1.694110
v 0.850481 0.630000 -1.875000
v 0.969670 0.630000 -2.030330
v 1.125000 0.630000 -2.149520
v 1.305890 0.600000 -2.224440
v 1.500000 0.600000 -2.250000
v 1.305890 0.600000 -0.775556
v 1.500000 0.600000 -0.750001
v 1.125000 0.600000 -2.149520
v 0.969670 0.600000 -2.030330
v 0.850481 0.600000 -1.875000
v 0.775556 0.600000 -1.694110
v 0.750000 0.600000 -1.500000
v 0.775556 0.600000 -1.305890
v 0.850481 0.600000 -1.125000
v 0.969670 0.600000 -0.969670
v 1.125000 0.600000 -0.850481
vt 0.969670 0.969670
vt 1.500000 0.750001
vt 1.500000 2.250000
vt 1.305890 2.224440
vt 3.000000 2.250000
vt 3.000000 0.750001
vt 1.125000 0.850481
vt 1.305890 0.775556
vt 1.125000 2.149520
vt 0.969670 2.030330
vt 0.850481 1.875000
vt 0.775556 1.694110
vt 0.750000 1.500000
vt 0.775556 1.305890
vt 0.850481 1.125000
vt 2.250000 0.600000
vt 0.750001 0.600000
vt 0.750001 0.300000
vt 2.250000 0.300000
vt 0.000000 -0.000000
vt 3.000000 -0.000000
vt 0.750000 1.500000
vt 0.775556 1.694110
vt 0.000000 3.000000
vt 1.500000 0.630000
vt 1.500000 0.600000
vt 3.000000 0.600000
vt 3.000000 0.630000
vt 0.750001 0.630000
vt 0.000000 0.630000
vt 3.000000 0.630000
vt 2.250000 0.630000
vt -0.000000 3.000000
vt -3.000000 3.000000
vt -3.000000 0.000000
vt -0.000000 0.000000
vt -3.000000 0.630000
vt -3.000000 0.000000
vt -0.000000 0.630000
vt 1.585060 0.630000
vt 1.585060 0.600000
vt 1.780850 0.600000
vt 1.780850 0.630000
vt 1.500000 2.250000
vt 3.000000 2.250000
vt 3.000000 3.000000
vt 0.000000 0.000000
vt 3.000000 -0.000000
vt 1.500000 0.750001
vt 3.000000 0.750001
vt 1.305890 2.224440
vt 1.305890 0.775556
vt 1.125000 0.850481
vt 1.125000 2.149520
vt 0.969670 2.030330
vt 0.969670 0.969670
vt 0.850481 1.125000
vt 0.850481 1.875000
vt 0.775556 1.305890
vt 1.861950 0.630000
vt 1.861950 0.600000
vt 2.057740 0.600000
vt 2.057740 0.630000
vt -0.909689 0.630000
vt -0.909689 0.600000
vt -0.713899 0.600000
vt -0.713899 0.630000
vt -0.374782 0.630000
vt -0.374782 0.600000
vt -0.178993 0.600000
vt -0.178993 0.630000
vt 0.178994 0.630000
vt 0.178994 0.600000
vt 0.374783 0.600000
vt 0.374783 0.630000
vt 0.713900 0.630000
vt 0.713900 0.600000
vt 0.909689 0.600000
vt 0.909689 0.630000
vt 1.193480 0.630000
vt 1.193480 0.600000
vt 1.389270 0.600000
vt 1.389270 0.630000
vt 1.585060 0.630000
vt 1.585060 0.600000
vt 1.780850 0.600000
vt 1.780850 0.630000
vt 1.861950 0.630000
vt 1.861950 0.600000
vt 2.057740 0.600000
vt 2.057740 0.630000
vt 2.005280 0.630000
vt 2.005280 0.600000
vt 2.201070 0.600000
vt 2.201070 0.630000
vt 2.005280 0.630000
vt 2.005280 0.600000
vt 2.201070 0.600000
vt 2.201070 0.630000
vt -3.000000 0.630000
vt -3.000000 0.000000
vt 0.000000 0.000000
vt 0.000000 0.630000
vt -1.389270 0.630000
vt -1.389270 0.600000
vt -1.193480 0.600000
vt -1.193480 0.630000
vt 3.000000 -0.000000
vt 3.000000 0.630000
vt -3.000000 0.630000
vt -3.000000 0.600000
vt -1.500000 0.600000
vt -1.500000 0.630000
vn -0.0000 1.0000 0.0000
vn 1.0000 0.0000 0.0000
vn 0.0654 0.0000 0.9979
vn 0.0000 0.0000 1.0000
vn 0.0000 -1.0000 -0.0000
vn -1.0000 0.0000 -0.0000
vn 0.2588 0.0000 0.9659
vn 0.5000 0.0000 0.8660
vn 0.2588 0.0000 -0.9659
vn 0.5000 0.0000 -0.8660
vn 0.7071 0.0000 -0.7071
vn 0.8660 0.0000 -0.5000
vn 0.9659 0.0000 -0.2588
vn 0.9659 0.0000 0.2588
vn 0.8660 0.0000 0.5000
vn 0.7071 0.0000 0.7071
vn 0.0000 0.0000 -1.0000
vn 0.0654 0.0000 -0.9979
usemtl Asphalt.045
s 1
f 39/1/1 31/2/1 29/3/1 28/4/1
f 4/5/1 29/3/1 31/2/1 1/6/1
f 40/7/1 30/8/1 39/1/1
f 30/8/1 31/2/1 39/1/1
f 28/4/1 32/9/1 33/10/1
f 33/10/1 34/11/1 28/4/1
f 34/11/1 35/12/1 28/4/1
f 35/12/1 36/13/1 37/14/1
f 37/14/1 38/15/1 39/1/1
f 35/12/1 37/14/1 28/4/1
f 37/14/1 39/1/1 28/4/1
f 4/16/2 1/17/2 2/18/2 3/19/2
usemtl Stone.056
f 2/18/2 6/20/2 7/21/2
f 23/22/1 24/23/1 14/24/1
f 16/25/3 29/26/3 4/27/4 9/28/4
f 10/29/2 5/30/2 1/17/2
f 4/16/2 3/19/2 7/21/2 8/31/2
f 8/31/2 9/32/2 4/16/2
f 3/19/2 2/18/2 7/21/2
f 13/33/5 7/34/5 6/35/5 11/36/5
f 14/37/6 13/38/6 11/36/6 12/39/6
f 15/40/7 28/41/7 29/42/3 16/43/3
f 16/44/1 9/45/1 8/46/1
f 12/47/1 5/48/1 17/49/1
f 5/48/1 10/50/1 17/49/1
f 16/44/1 8/46/1 14/24/1
f 15/51/1 16/44/1 14/24/1
f 12/47/1 17/49/1 18/52/1
f 12/47/1 18/52/1 19/53/1
f 27/54/1 15/51/1 14/24/1
f 26/55/1 27/54/1 14/24/1
f 12/47/1 19/53/1 20/56/1
f 12/47/1 20/56/1 21/57/1
f 25/58/1 26/55/1 14/24/1
f 24/23/1 25/58/1 14/24/1
f 14/24/1 12/47/1 23/22/1
f 12/47/1 21/57/1 22/59/1
f 12/47/1 22/59/1 23/22/1
f 27/60/8 32/61/8 28/62/7 15/63/7
f 18/64/9 30/65/9 40/66/10 19/67/10
f 19/68/10 40/69/10 39/70/11 20/71/11
f 20/72/11 39/73/11 38/74/12 21/75/12
f 21/76/12 38/77/12 37/78/13 22/79/13
f 22/80/13 37/81/13 36/82/2 23/83/2
f 23/84/2 36/85/2 35/86/14 24/87/14
f 24/88/14 35/89/14 34/90/15 25/91/15
f 25/92/15 34/93/15 33/94/16 26/95/16
f 26/96/16 33/97/16 32/98/8 27/99/8
f 8/100/17 7/101/17 13/102/17 14/103/17
f 17/104/18 31/105/18 30/106/9 18/107/9
f 12/39/4 11/36/4 6/108/4 5/109/4
f 10/110/17 1/111/17 31/112/18 17/113/18
f 1/17/2 5/30/2 6/20/2 2/18/2
