# Blender v3.4.1 OBJ File: ''
# www.blender.org
mtllib roadTile_274.mtl
o roadTile_274
v 1.125000 1.650000 -1.406250
v 1.125000 0.000000 -1.406250
v 1.125000 0.000000 -0.843750
v 1.125000 1.650000 -0.843750
v 1.875000 0.000000 -1.406250
v 1.875000 1.650000 -1.406250
v 1.875000 0.000000 -0.843750
v 1.875000 1.650000 -0.843750
v 3.000000 1.650000 -2.250000
v 0.000000 1.650000 -2.250000
v 0.000000 1.650000 0.000000
v 3.000000 1.650000 0.000000
v 3.000000 2.280000 -2.250000
v 3.000000 2.280000 -1.875000
v 3.000000 2.250000 -1.875000
v 3.000000 1.950000 -1.875000
v 3.000000 1.950000 -0.375000
v 3.000000 2.250000 -0.375000
v 3.000000 2.280000 -0.375000
v 3.000000 2.280000 0.000000
v 0.000000 2.280000 -2.250000
v 0.000000 2.280000 0.000000
v 0.000000 2.280000 -0.375000
v 0.000000 2.250000 -0.375000
v 0.000000 1.950000 -0.375000
v 0.000000 1.950000 -1.875000
v 0.000000 2.250000 -1.875000
v 0.000000 2.280000 -1.875000
vt -1.125000 1.406250
vt -3.000000 2.250000
vt -1.875000 1.406250
vt -0.000000 2.250000
vt -3.000000 0.000000
vt -1.875000 0.843750
vt -1.125000 0.843750
vt -0.000000 -0.000000
vt 1.875000 1.950000
vt 0.375000 1.950000
vt 0.000000 1.650000
vt -0.375000 1.950000
vt -1.875000 1.950000
vt -2.250000 1.650000
vt -1.875000 1.650000
vt -1.875000 -0.000000
vt -1.125000 -0.000000
vt -1.125000 1.650000
vt -1.875000 0.843750
vt -1.125000 0.843750
vt -1.125000 1.406250
vt -1.875000 1.406250
vt 1.406250 1.650000
vt 0.843750 1.650000
vt 0.843750 0.000000
vt 1.406250 0.000000
vt 1.125000 1.650000
vt 1.125000 0.000000
vt 1.875000 0.000000
vt 1.875000 1.650000
vt 0.000000 2.280000
vt 0.000000 2.250000
vt 3.000000 2.250000
vt 3.000000 2.280000
vt -1.875000 2.250000
vt -2.250000 2.280000
vt 2.250000 2.280000
vt 1.875000 2.280000
vt 1.875000 2.250000
vt 0.375000 2.280000
vt 0.000000 2.280000
vt 0.375000 2.250000
vt 2.250000 1.650000
vt 0.000000 1.875000
vt 3.000000 1.875000
vt 3.000000 2.250000
vt 0.000000 2.250000
vt 0.000000 2.280000
vt -0.375000 2.280000
vt -0.375000 2.250000
vt -1.875000 2.280000
vt 0.000000 1.650000
vt 3.000000 0.375000
vt 0.000000 0.375000
vt 0.000000 0.000000
vt 3.000000 0.000000
vt 3.000000 1.650000
vt 3.000000 2.280000
vt -3.000000 2.280000
vt -3.000000 2.250000
vt -0.000000 2.250000
vt -0.000000 2.280000
vt -0.843750 1.650000
vt -1.406250 1.650000
vt -1.406250 0.000000
vt -0.843750 0.000000
vt -0.000000 2.280000
vt -3.000000 2.280000
vt -3.000000 1.650000
vt -0.000000 1.650000
vt 0.000000 1.875000
vt 0.000000 0.375000
vt 3.000000 0.375000
vt 3.000000 1.875000
vn 0.0000 -1.0000 0.0000
vn 1.0000 -0.0000 0.0000
vn -1.0000 -0.0000 -0.0000
vn 0.0000 0.0000 -1.0000
vn 0.0000 -0.0000 1.0000
vn 0.0000 1.0000 0.0000
usemtl Stone.230
s 1
f 1/1/1 9/2/1 6/3/1
f 1/1/1 10/4/1 9/2/1
f 6/3/1 9/2/1 12/5/1 8/6/1
f 4/7/1 12/5/1 11/8/1
f 12/5/1 4/7/1 8/6/1
f 16/9/2 17/10/2 12/11/2
f 25/12/3 26/13/3 10/14/3
f 6/15/4 5/16/4 2/17/4 1/18/4
f 7/19/1 3/20/1 2/21/1 5/22/1
f 6/23/2 8/24/2 7/25/2 5/26/2
f 4/27/5 3/28/5 7/29/5 8/30/5
f 4/7/1 1/1/1 6/3/1 8/6/1
f 28/31/5 27/32/5 15/33/5 14/34/5
f 27/35/3 21/36/3 10/14/3 26/13/3
f 13/37/2 14/38/2 15/39/2
f 19/40/2 20/41/2 18/42/2
f 15/39/2 16/9/2 9/43/2 13/37/2
f 9/43/2 16/9/2 12/11/2
f 28/44/6 14/45/6 13/46/6 21/47/6
f 18/42/2 20/41/2 12/11/2 17/10/2
f 22/48/3 23/49/3 24/50/3
f 28/51/3 21/36/3 27/35/3
f 1/1/1 4/7/1 11/8/1 10/4/1
f 11/52/3 25/12/3 10/14/3
f 19/53/6 23/54/6 22/55/6 20/56/6
f 24/50/3 25/12/3 11/52/3 22/48/3
f 12/57/5 20/58/5 22/48/5 11/52/5
f 19/59/4 18/60/4 24/61/4 23/62/4
f 4/63/3 1/64/3 2/65/3 3/66/3
f 21/67/4 13/68/4 9/69/4 10/70/4
usemtl Asphalt.186
f 27/35/3 26/13/3 25/12/3 24/50/3
f 15/39/2 18/42/2 17/10/2 16/9/2
f 27/71/6 24/72/6 18/73/6 15/74/6
