# Blender v3.4.1 OBJ File: ''
# www.blender.org
mtllib roadTile_099.mtl
o roadTile_099
v 3.000000 0.600000 -1.125000
v 0.000000 0.600000 -1.125000
v 0.000000 0.570000 -1.125000
v 3.000000 0.570000 -1.125000
v 0.000000 0.600000 -1.875000
v 3.000000 0.600000 -1.875000
v 0.000000 0.300000 -3.000000
v 0.000000 0.300000 -0.752313
v 0.000000 0.600000 -0.752313
v 0.000000 0.600000 -0.937500
v 0.000000 0.570000 -0.937500
v 0.000000 0.570000 -1.875000
v 0.000000 0.570000 -2.062500
v 0.000000 0.600000 -2.062500
v 0.000000 0.600001 -3.000000
v 0.000000 0.000000 -3.000000
v 0.000000 0.000000 -0.000000
v 0.000000 0.630000 0.000000
v 0.000000 0.630000 -0.752313
v 3.000000 0.300000 -3.000000
v 3.000000 0.000000 -3.000000
v 3.000000 0.600001 -3.000000
v 3.000000 0.600000 -2.062500
v 3.000000 0.570000 -2.062500
v 3.000000 0.600000 -0.937500
v 3.000000 0.600000 -0.750000
v 3.000000 0.300000 -0.750000
v 3.000000 0.570000 -1.875000
v 3.000000 0.570000 -0.937500
v 3.000000 0.630000 -0.750000
v 3.000000 0.630000 0.000000
v 3.000000 0.000000 0.000000
vt 0.000000 2.062500
vt 0.000000 1.875000
vt 3.000000 1.875000
vt 3.000000 2.062500
vt 3.000000 1.125000
vt 0.000000 1.125000
vt 0.000000 0.937500
vt 3.000000 0.937500
vt 0.000000 0.570000
vt 3.000000 0.570000
vt 3.000000 0.600000
vt 0.000000 0.600000
vt -0.000000 0.570000
vt -0.000000 0.600000
vt -3.000000 0.600000
vt -3.000000 0.570000
vt 3.000000 0.570000
vt 3.000000 0.600000
vt -0.000000 0.600000
vt -0.000000 0.570000
vt 0.000000 0.570000
vt 0.000000 0.600000
vt -3.000000 0.600000
vt -3.000000 0.570000
vt -0.752313 0.300000
vt -1.125000 0.570000
vt -1.875000 0.570000
vt 0.750000 0.300000
vt 1.125000 0.570000
vt 0.937500 0.570000
vt 3.000000 1.875000
vt 0.000000 1.875000
vt 0.000000 1.125000
vt 3.000000 1.125000
vt 3.000000 0.600000
vt 2.062500 0.600000
vt 2.062500 0.570000
vt 3.000000 0.300000
vt -3.000000 0.300000
vt -2.062500 0.570000
vt -0.752313 0.600000
vt -0.937500 0.570000
vt -0.937500 0.600000
vt -3.000000 0.300000
vt -0.000000 0.300000
vt -0.000000 0.600000
vt -3.000000 0.600000
vt 3.000000 2.062500
vt 3.000000 3.000000
vt 0.000000 3.000000
vt 0.000000 2.062500
vt 0.937500 0.600000
vt 0.750000 0.600000
vt 1.875000 0.570000
vt -2.062500 0.600000
vt -3.000000 0.600000
vt 3.000000 0.937500
vt 0.000000 0.937500
vt 0.000000 0.752313
vt 3.000000 0.750000
vt -1.125000 0.600000
vt -1.875000 0.600000
vt 1.125000 0.600000
vt 1.875000 0.600000
vt -3.000000 0.000000
vt -0.000000 -0.000000
vt -0.752313 0.630000
vt 0.000000 0.630000
vt 0.000000 0.630000
vt 0.000000 -0.000000
vt 0.000000 0.000000
vt 3.000000 0.000000
vt 3.000000 0.750000
vt 0.000000 0.752313
vt 3.000000 0.000000
vt 3.000000 0.630000
vt 3.000000 -0.000000
vt 0.750000 0.630000
vt -2.999420 0.630000
vt -2.999420 0.600000
vt 0.000580 0.600000
vt 0.000580 0.630000
vt -3.000000 -0.000000
vt -0.000000 -0.000000
vt -0.000000 3.000000
vt -3.000000 3.000000
vt -3.000000 0.000000
vn 0.0000 1.0000 0.0000
vn 0.0000 0.0000 1.0000
vn 0.0000 0.0000 -1.0000
vn -1.0000 -0.0000 -0.0000
vn 1.0000 -0.0000 0.0000
vn 0.0008 0.0000 -1.0000
vn 0.0000 -1.0000 -0.0000
usemtl Grey_Asphalt.011
s 1
f 13/1/1 12/2/1 28/3/1 24/4/1
f 4/5/1 3/6/1 11/7/1 29/8/1
f 13/9/2 24/10/2 23/11/2 14/12/2
f 11/13/3 10/14/3 25/15/3 29/16/3
f 4/17/2 1/18/2 2/19/2 3/20/2
f 12/21/3 5/22/3 6/23/3 28/24/3
usemtl Asphalt.057
f 8/25/4 3/26/4 12/27/4
f 27/28/5 4/29/5 29/30/5
f 6/31/1 5/32/1 2/33/1 1/34/1
f 22/35/5 23/36/5 24/37/5 20/38/5
f 7/39/4 8/25/4 12/27/4
f 13/40/4 7/39/4 12/27/4
f 8/25/4 9/41/4 11/42/4
f 9/41/4 10/43/4 11/42/4
f 8/25/4 11/42/4 3/26/4
f 20/44/3 7/45/3 15/46/3 22/47/3
f 23/48/1 22/49/1 15/50/1 14/51/1
f 29/30/5 25/52/5 26/53/5
f 27/28/5 20/38/5 28/54/5
f 20/38/5 24/37/5 28/54/5
f 29/30/5 26/53/5 27/28/5
f 27/28/5 28/54/5 4/29/5
f 13/40/4 14/55/4 15/56/4 7/39/4
f 25/57/1 10/58/1 9/59/1 26/60/1
f 3/26/4 2/61/4 5/62/4 12/27/4
f 1/63/5 4/29/5 28/54/5 6/64/5
usemtl Stone.079
f 8/25/4 16/65/4 17/66/4
f 19/67/4 9/41/4 18/68/4
f 31/69/5 32/70/5 27/28/5 26/53/5
f 8/25/4 7/39/4 16/65/4
f 8/25/4 17/66/4 18/68/4 9/41/4
f 18/71/1 31/72/1 30/73/1 19/74/1
f 17/66/2 32/75/2 31/76/2 18/68/2
f 21/77/5 20/38/5 27/28/5
f 26/53/5 30/78/5 31/69/5
f 32/70/5 21/77/5 27/28/5
f 30/79/6 26/80/6 9/81/6 19/82/6
f 21/83/3 16/84/3 7/45/3 20/44/3
f 17/66/7 16/85/7 21/86/7 32/87/7
