# Blender v3.4.1 OBJ File: ''
# www.blender.org
mtllib roadTile_163.mtl
o roadTile_163
v 3.000000 0.550000 -3.000000
v 3.000000 0.000000 -3.000000
v 0.000000 0.000000 -3.000000
v 0.000000 0.550000 -3.000000
v 3.000000 0.000000 -0.000000
v 3.000000 0.550000 0.000000
v 0.000000 0.000000 0.000000
v 0.000000 0.550000 0.000000
vt -3.000000 3.000000
vt -3.000000 0.000000
vt -0.000000 -0.000000
vt 0.000000 3.000000
vt 3.000000 0.550000
vt 0.000000 0.550000
vt 3.000000 0.000000
vt -3.000000 0.550000
vt -3.000000 0.000000
vt 3.000000 3.000000
vt 0.000000 3.000000
vt 0.000000 -0.000000
vt 3.000000 0.000000
vt -0.000000 0.550000
vt -3.000000 0.550000
vt -3.000000 0.000000
vt -0.000000 0.000000
vt 0.000000 0.550000
vt 0.000000 -0.000000
vt 3.000000 -0.000000
vt 3.000000 0.550000
vn 0.0000 -1.0000 -0.0000
vn 0.0000 -0.0000 1.0000
vn -1.0000 -0.0000 0.0000
vn 0.0000 1.0000 0.0000
vn 0.0000 0.0000 -1.0000
vn 1.0000 0.0000 0.0000
usemtl Grass.069
s 1
f 2/1/1 5/2/1 7/3/1 3/4/1
f 6/5/2 8/6/2 7/3/2 5/7/2
f 4/8/3 3/9/3 7/3/3 8/6/3
f 1/10/4 4/11/4 8/12/4 6/13/4
f 4/14/5 1/15/5 2/16/5 3/17/5
f 6/18/6 5/19/6 2/20/6 1/21/6
