# Blender v3.4.1 OBJ File: ''
# www.blender.org
mtllib roadTile_040.mtl
o roadTile_040
v 0.000000 0.000000 -0.000000
v 0.000000 0.550000 0.000000
v 0.000000 0.550000 -3.000000
v 0.000000 0.000000 -3.000000
v 3.000000 0.000000 0.000000
v 3.000000 0.550000 0.000000
v 3.000000 0.000000 -3.000000
v 3.000000 0.000000 -2.437500
v 3.000000 0.000000 -0.562500
v 3.000000 0.550000 -3.000000
v 3.000000 0.550000 -2.437500
v 0.562500 0.550000 -0.562500
v 0.562500 0.550000 -2.437500
v 3.000000 0.550000 -0.562500
v 0.562500 0.630000 -0.562500
v 0.562500 0.630000 -2.437500
v 3.000000 0.630000 -1.125000
v 1.125000 0.630000 -1.125000
v 1.125000 0.630000 -1.875000
v 3.000000 0.630000 -1.875000
v 3.000000 0.630000 -2.437500
v 3.000000 0.630000 -0.562500
v 3.000000 0.600000 -1.125000
v 1.125000 0.600000 -1.125000
v 3.000000 0.600000 -1.875000
v 1.125000 0.600000 -1.875000
v 3.000000 0.300000 -1.875000
v 3.000000 0.300000 -1.125000
vt -3.000000 0.562500
vt -3.000000 0.000000
vt 0.000000 0.000000
vt 0.562500 2.437500
vt 0.000000 3.000000
vt 0.000000 0.000000
vt 3.000000 0.550000
vt -0.000000 0.550000
vt 3.000000 0.000000
vt -0.000000 3.000000
vt -3.000000 3.000000
vt -3.000000 2.437500
vt 3.000000 0.000000
vt 3.000000 0.550000
vt 2.437500 0.550000
vt 2.437500 0.000000
vt 3.000000 2.437500
vt 3.000000 3.000000
vt 3.000000 0.000000
vt 0.562500 0.562500
vt 3.000000 0.562500
vt 0.000000 0.550000
vt 0.000000 0.000000
vt 0.562500 0.000000
vt 0.562500 0.550000
vt -0.000000 0.550000
vt -3.000000 0.550000
vt -3.000000 0.000000
vt -0.000000 0.000000
vt -3.000000 -0.000000
vt -3.000000 0.550000
vt 1.125000 1.875000
vt 0.562500 2.437500
vt 0.562500 0.562500
vt 1.125000 0.300000
vt 3.000000 0.550000
vt 3.000000 0.630000
vt 0.562500 0.630000
vt 0.562500 0.550000
vt 1.875000 0.600000
vt 1.875000 0.300000
vt -0.562500 0.550000
vt -0.562500 0.630000
vt -2.437500 0.630000
vt -2.437500 0.550000
vt -3.000000 0.630000
vt -3.000000 0.600000
vt -1.125000 0.600000
vt -1.125000 0.630000
vt 3.000000 0.562500
vt 3.000000 1.125000
vt 1.125000 1.125000
vt 3.000000 1.875000
vt 3.000000 2.437500
vt 3.000000 0.600000
vt 3.000000 0.630000
vt 1.125000 0.630000
vt 1.125000 0.600000
vt -0.562500 0.550000
vt -0.562500 0.630000
vt -3.000000 0.630000
vt -3.000000 0.550000
vt 1.125000 0.600000
vt 2.437500 0.630000
vt 1.875000 0.630000
vt 1.125000 0.630000
vt 0.562500 0.630000
vt 3.000000 1.125000
vt 3.000000 1.875000
vt 1.125000 1.875000
vt 1.125000 1.125000
vt -44.291302 24.803101
vt -73.818901 24.803101
vt -73.818901 23.622000
vt -44.291302 23.622000
vn 0.0000 -1.0000 -0.0000
vn -0.0000 1.0000 0.0000
vn -0.0000 -0.0000 1.0000
vn 1.0000 0.0000 0.0000
vn 0.0000 0.0000 -1.0000
vn -1.0000 0.0000 -0.0000
usemtl Grass.027
s 1
f 9/1/1 5/2/1 1/3/1
f 13/4/2 3/5/2 2/6/2
f 6/7/3 2/8/3 1/3/3 5/9/3
f 4/10/1 7/11/1 8/12/1
f 7/13/4 10/14/4 11/15/4 8/16/4
f 13/4/2 11/17/2 10/18/2
f 2/6/2 6/19/2 12/20/2
f 6/19/2 14/21/2 12/20/2
f 13/4/2 10/18/2 3/5/2
f 2/6/2 12/20/2 13/4/2
f 8/12/1 9/1/1 1/3/1 4/10/1
f 6/22/4 5/23/4 9/24/4 14/25/4
f 3/26/5 10/27/5 7/28/5 4/29/5
f 4/30/6 1/3/6 2/8/6 3/31/6
usemtl Stone.021
f 19/32/2 16/33/2 15/34/2
f 9/24/4 8/16/4 28/35/4
f 14/36/3 22/37/3 15/38/3 12/39/3
f 11/15/4 25/40/4 27/41/4 8/16/4
f 12/42/6 15/43/6 16/44/6 13/45/6
f 17/46/5 23/47/5 24/48/5 18/49/5
f 22/50/2 17/51/2 18/52/2
f 19/32/2 20/53/2 21/54/2
f 15/34/2 22/50/2 18/52/2
f 19/32/2 21/54/2 16/33/2
f 15/34/2 18/52/2 19/32/2
f 25/55/3 20/56/3 19/57/3 26/58/3
f 13/59/5 16/60/5 21/61/5 11/62/5
f 28/35/4 23/63/4 14/25/4 9/24/4
f 21/64/4 20/65/4 25/40/4 11/15/4
f 8/16/4 27/41/4 28/35/4
f 23/63/4 17/66/4 22/67/4 14/25/4
usemtl Asphalt.010
f 23/68/2 25/69/2 26/70/2 24/71/2
f 25/40/4 23/63/4 28/35/4 27/41/4
usemtl FrontColor.003
f 18/72/6 19/73/6 26/74/6 24/75/6
