# Blender v3.4.1 OBJ File: ''
# www.blender.org
mtllib roadTile_256.mtl
o roadTile_256
v 1.945600 1.730000 -0.089444
v 1.620460 1.730000 -0.199816
v 1.620460 0.000000 -0.199816
v 1.945600 0.000000 -0.089445
v 0.375000 1.730000 -2.625000
v 0.000000 1.730000 -2.625000
v 0.022457 1.730000 -2.282370
v 0.089445 1.730000 -1.945600
v 0.199816 1.730000 -1.620460
v 0.351683 1.730000 -1.312500
v 0.542447 1.730000 -1.027000
v 0.768845 1.730000 -0.768845
v 1.027000 1.730000 -0.542447
v 1.312500 1.730000 -0.351683
v 2.282370 1.730000 -0.022457
v 2.625000 1.730000 0.000000
v 2.625000 1.730000 -0.375000
v 2.326910 1.730000 -0.381827
v 2.032630 1.730000 -0.429783
v 1.747790 1.730000 -0.517946
v 1.477870 1.730000 -0.644626
v 1.228050 1.730000 -0.807391
v 1.003120 1.730000 -1.003120
v 0.807391 1.730000 -1.228050
v 0.644626 1.730000 -1.477870
v 0.517946 1.730000 -1.747790
v 0.429783 1.730000 -2.032630
v 0.381827 1.730000 -2.326910
v 2.250000 0.000000 -2.625000
v 0.000000 0.000000 -2.625000
v 0.375000 0.600000 -2.625000
v 0.375000 0.300000 -2.625000
v 1.875000 0.300000 -2.625000
v 1.875000 0.600000 -2.625000
v 1.875000 1.730000 -2.625000
v 2.250000 1.730000 -2.625000
v 2.253210 0.000000 -2.576050
v 2.262780 0.000000 -2.527940
v 2.278550 0.000000 -2.481490
v 2.300240 0.000000 -2.437500
v 2.327490 0.000000 -2.396710
v 2.359830 0.000000 -2.359830
v 2.396710 0.000000 -2.327490
v 2.437500 0.000000 -2.300240
v 2.481490 0.000000 -2.278550
v 2.527940 0.000000 -2.262780
v 2.576050 0.000000 -2.253210
v 2.625000 0.000000 -2.250000
v 2.625000 0.000000 0.000000
v 2.282370 0.000000 -0.022457
v 1.312500 0.000000 -0.351683
v 1.027000 0.000000 -0.542447
v 0.768845 0.000000 -0.768845
v 0.542447 0.000000 -1.027000
v 0.351683 0.000000 -1.312500
v 0.199816 0.000000 -1.620460
v 0.089445 0.000000 -1.945600
v 0.022457 0.000000 -2.282370
v 2.253210 1.730000 -2.576050
v 2.625000 1.730000 -1.875000
v 2.625000 1.730000 -2.250000
v 2.576050 1.730000 -2.253210
v 2.527940 1.730000 -2.262780
v 2.481490 1.730000 -2.278550
v 2.437500 1.730000 -2.300240
v 2.396710 1.730000 -2.327490
v 2.359830 1.730000 -2.359830
v 2.327490 1.730000 -2.396710
v 2.300240 1.730000 -2.437500
v 2.278550 1.730000 -2.481490
v 2.262780 1.730000 -2.527940
v 1.884150 1.730000 -2.528140
v 1.905370 1.730000 -2.433190
v 1.938320 1.730000 -2.341650
v 1.982480 1.730000 -2.254960
v 2.037170 1.730000 -2.174490
v 2.101510 1.730000 -2.101510
v 2.174490 1.730000 -2.037170
v 2.254960 1.730000 -1.982480
v 2.341650 1.730000 -1.938320
v 2.433190 1.730000 -1.905370
v 2.528140 1.730000 -1.884150
v 2.625000 0.600000 -1.875000
v 2.625000 0.300000 -1.875000
v 2.625000 0.300000 -0.375000
v 2.625000 0.600000 -0.375000
v 2.528140 0.600000 -1.884150
v 1.884150 0.600000 -2.528140
v 0.381827 0.600000 -2.326910
v 0.429783 0.600000 -2.032630
v 0.517946 0.600000 -1.747790
v 0.644626 0.600000 -1.477870
v 0.807391 0.600000 -1.228050
v 1.003120 0.600000 -1.003120
v 1.228050 0.600000 -0.807391
v 1.477870 0.600000 -0.644626
v 1.747790 0.600000 -0.517946
v 2.032630 0.600000 -0.429783
v 2.326910 0.600000 -0.381827
v 2.433190 0.600000 -1.905370
v 2.341650 0.600000 -1.938320
v 2.254960 0.600000 -1.982480
v 2.174490 0.600000 -2.037170
v 2.101510 0.600000 -2.101510
v 2.037170 0.600000 -2.174490
v 1.982480 0.600000 -2.254960
v 1.938320 0.600000 -2.341650
v 1.905370 0.600000 -2.433190
vt -2.250000 0.000000
vt -0.000000 0.000000
vt -1.875000 0.300000
vt 0.000000 0.000000
vt 2.250000 0.000000
vt 0.375000 0.300000
vt 0.429783 2.032630
vt 0.381827 2.326910
vt 0.022457 2.282370
vt 0.089445 1.945600
vt 2.282370 0.022457
vt 2.326910 0.381827
vt 2.032630 0.429783
vt 1.945600 0.089445
vt 1.747790 0.517946
vt 1.620460 0.199816
vt 1.477870 0.644626
vt 1.312500 0.351683
vt 1.228050 0.807391
vt 1.003120 1.003120
vt 0.768845 0.768845
vt 1.027000 0.542447
vt 0.807391 1.228050
vt 0.542447 1.027000
vt 0.644626 1.477870
vt 0.351683 1.312500
vt 1.938320 2.341650
vt 2.278550 2.481490
vt 2.262780 2.527940
vt 1.905370 2.433190
vt 2.253210 2.576050
vt 2.250000 2.625000
vt 1.875000 2.625000
vt 1.884150 2.528140
vt 0.000000 2.625000
vt 0.375000 2.625000
vt -0.000000 1.730000
vt -0.375000 0.600000
vt -0.375000 1.730000
vt -0.375000 0.300000
vt -1.875000 1.730000
vt -2.250000 1.730000
vt -1.875000 0.600000
vt -2.396710 2.327490
vt -2.437500 2.300240
vt -1.312500 0.351683
vt -1.027000 0.542447
vt -2.576050 2.253210
vt -2.625000 2.250000
vt -2.625000 -0.000000
vt -2.282370 0.022457
vt -2.527940 2.262780
vt -1.945600 0.089445
vt -2.253210 2.576050
vt -2.262780 2.527940
vt -0.089445 1.945600
vt -0.022457 2.282370
vt -2.481490 2.278550
vt -1.620460 0.199816
vt -2.300240 2.437500
vt -0.351683 1.312500
vt -0.199816 1.620460
vt -2.278550 2.481490
vt -2.359830 2.359830
vt -0.768845 0.768845
vt -2.327490 2.396710
vt -0.542447 1.027000
vt -2.250000 2.625000
vt 0.000000 2.625000
vt 1.813600 0.000000
vt 1.813600 1.730000
vt 1.470230 1.730000
vt 1.470230 0.000000
vt 1.982480 2.254960
vt 2.037170 2.174490
vt 2.327490 2.396710
vt 2.300240 2.437500
vt 2.396710 2.327490
vt 2.174490 2.037170
vt 2.254960 1.982480
vt 2.437500 2.300240
vt 2.101510 2.101510
vt 2.359830 2.359830
vt 2.481490 2.278550
vt 2.341650 1.938320
vt 2.576050 2.253210
vt 2.527940 2.262780
vt 2.433190 1.905370
vt 2.528140 1.884150
vt 2.625000 2.250000
vt 2.625000 1.875000
vt 2.250000 1.730000
vt 1.875000 0.600000
vt 1.875000 1.730000
vt 1.875000 0.300000
vt 0.375000 1.730000
vt 0.000000 1.730000
vt 0.375000 0.600000
vt 1.516490 1.730000
vt 1.516490 0.600000
vt 1.814660 0.600000
vt 1.814660 1.730000
vt -2.423170 0.000000
vt -2.423170 1.730000
vt -2.472220 1.730000
vt -2.472220 0.000000
vt -2.037920 0.000000
vt -2.037920 1.730000
vt -2.086980 1.730000
vt -2.086980 0.000000
vt 1.063980 1.730000
vt 1.063980 0.600000
vt 1.362150 0.600000
vt 1.362150 1.730000
vt 0.588193 1.730000
vt 0.588193 0.600000
vt 0.886360 0.600000
vt 0.886360 1.730000
vt -0.699710 -0.000000
vt -0.699710 1.730000
vt -0.748762 1.730000
vt -0.748762 -0.000000
vt -0.218271 -0.000000
vt -0.218271 1.730000
vt -0.267323 1.730000
vt -0.267323 -0.000000
vt -1.362150 1.730000
vt -1.362150 0.600000
vt -1.063980 0.600000
vt -1.063980 1.730000
vt -2.615720 1.730000
vt -2.615720 0.600000
vt -2.317560 0.600000
vt -2.317560 1.730000
vt 2.234130 0.000000
vt 2.234130 1.730000
vt 1.890770 1.730000
vt 1.890770 0.000000
vt 1.364970 0.000000
vt 1.364970 1.730000
vt 1.021600 1.730000
vt 1.021600 0.000000
vt 2.086980 -0.000000
vt 2.086980 1.730000
vt 2.037920 1.730000
vt 2.037920 -0.000000
vt 0.517946 1.747790
vt 0.199816 1.620460
vt 2.339780 1.730000
vt 2.339780 0.600000
vt 2.437070 0.600000
vt 2.437070 1.730000
vt -2.437070 1.730000
vt -2.437070 0.600000
vt -2.339780 0.600000
vt -2.339780 1.730000
vt -2.056400 1.730000
vt -2.056400 0.600000
vt -1.959110 0.600000
vt -1.959110 1.730000
vt 0.098257 1.730000
vt 0.098257 0.600000
vt 0.396424 0.600000
vt 0.396424 1.730000
vt -1.644060 1.730000
vt -1.644060 0.600000
vt -1.546770 0.600000
vt -1.546770 1.730000
vt 0.895919 0.000000
vt 0.895919 1.730000
vt 0.552553 1.730000
vt 0.552553 0.000000
vt -1.021600 0.000000
vt -1.021600 1.730000
vt -1.364970 1.730000
vt -1.364970 0.000000
vt 0.186634 1.730000
vt 0.186634 0.600000
vt 0.283926 0.600000
vt 0.283926 1.730000
vt 0.653484 1.730000
vt 0.653484 0.600000
vt 0.750776 0.600000
vt 0.750776 1.730000
vt 1.109260 1.730000
vt 1.109260 0.600000
vt 1.206550 0.600000
vt 1.206550 1.730000
vt -1.890770 0.000000
vt -1.890770 1.730000
vt -2.234130 1.730000
vt -2.234130 0.000000
vt -0.396424 1.730000
vt -0.396424 0.600000
vt -0.098257 0.600000
vt -0.098257 1.730000
vt 1.937040 1.730000
vt 1.937040 0.600000
vt 2.235210 0.600000
vt 2.235210 1.730000
vt 2.472220 -0.000000
vt 2.472220 1.730000
vt 2.423170 1.730000
vt 2.423170 -0.000000
vt 2.317560 1.730000
vt 2.317560 0.600000
vt 2.615720 0.600000
vt 2.615720 1.730000
vt -1.617390 0.000000
vt -1.617390 1.730000
vt -1.666440 1.730000
vt -1.666440 0.000000
vt -1.168760 0.000000
vt -1.168760 1.730000
vt -1.217810 1.730000
vt -1.217810 0.000000
vt 2.625000 0.000000
vt 2.625000 0.375000
vt -1.470230 0.000000
vt -1.470230 1.730000
vt -1.813600 1.730000
vt -1.813600 0.000000
vt 0.267323 -0.000000
vt 0.267323 1.730000
vt 0.218271 1.730000
vt 0.218271 -0.000000
vt -0.886360 1.730000
vt -0.886360 0.600000
vt -0.588193 0.600000
vt -0.588193 1.730000
vt 0.748762 -0.000000
vt 0.748762 1.730000
vt 0.699710 1.730000
vt 0.699710 -0.000000
vt -1.814660 1.730000
vt -1.814660 0.600000
vt -1.516490 0.600000
vt -1.516490 1.730000
vt -2.235210 1.730000
vt -2.235210 0.600000
vt -1.937040 0.600000
vt -1.937040 1.730000
vt 1.217810 -0.000000
vt 1.217810 1.730000
vt 1.168760 1.730000
vt 1.168760 -0.000000
vt 2.619380 0.000000
vt 2.619380 1.730000
vt 2.276010 1.730000
vt 2.276010 0.000000
vt 1.666440 -0.000000
vt 1.666440 1.730000
vt 1.617390 1.730000
vt 1.617390 -0.000000
vt -0.750776 1.730000
vt -0.750776 0.600000
vt -0.653484 0.600000
vt -0.653484 1.730000
vt -0.283926 1.730000
vt -0.283926 0.600000
vt -0.186634 0.600000
vt -0.186634 1.730000
vt 0.414480 0.000000
vt 0.414480 1.730000
vt 0.071113 1.730000
vt 0.071113 0.000000
vt -0.071113 0.000000
vt -0.071113 1.730000
vt -0.414480 1.730000
vt -0.414480 0.000000
vt -0.552553 0.000000
vt -0.552553 1.730000
vt -0.895919 1.730000
vt -0.895919 0.000000
vt -1.206550 1.730000
vt -1.206550 0.600000
vt -1.109260 0.600000
vt -1.109260 1.730000
vt 1.546770 1.730000
vt 1.546770 0.600000
vt 1.644060 0.600000
vt 1.644060 1.730000
vt 1.959110 1.730000
vt 1.959110 0.600000
vt 2.056400 0.600000
vt 2.056400 1.730000
vt -2.276010 0.000000
vt -2.276010 1.730000
vt -2.619380 1.730000
vt -2.619380 0.000000
vt 2.032630 0.429783
vt 2.433190 1.905370
vt 2.341650 1.938320
vt 1.747790 0.517946
vt 1.228050 0.807391
vt 2.174490 2.037170
vt 2.101510 2.101510
vt 1.003120 1.003120
vt 1.938320 2.341650
vt 0.517946 1.747790
vt 0.644626 1.477870
vt 1.982480 2.254960
vt 0.375000 2.625000
vt 0.381827 2.326910
vt 1.884150 2.528140
vt 1.875000 2.625000
vt 1.905370 2.433190
vt 0.429783 2.032630
vt 2.625000 0.375000
vt 2.625000 1.875000
vt 2.528140 1.884150
vt 2.326910 0.381827
vt 2.254960 1.982480
vt 1.477870 0.644626
vt 2.037170 2.174490
vt 0.807391 1.228050
vn 0.0000 0.0000 -1.0000
vn 1.0000 0.0000 0.0000
vn 0.0000 1.0000 -0.0000
vn 0.0000 -1.0000 -0.0000
vn -0.2588 -0.0000 0.9659
vn -0.3827 -0.0000 0.9239
vn 0.9325 0.0000 -0.3611
vn 0.9735 0.0000 -0.2288
vn 0.1305 0.0000 -0.9914
vn 0.0654 0.0000 -0.9979
vn 0.2588 0.0000 -0.9659
vn 0.8737 0.0000 -0.4865
vn 0.7980 0.0000 -0.6026
vn 0.6087 0.0000 -0.7934
vn 0.4999 0.0000 -0.8661
vn 0.7071 0.0000 -0.7071
vn 0.3611 0.0000 -0.9325
vn 0.4865 0.0000 -0.8737
vn 0.0229 0.0000 -0.9997
vn 0.0921 0.0000 -0.9958
vn -0.1305 -0.0000 0.9914
vn -0.5000 -0.0000 0.8660
vn 0.9914 0.0000 -0.1305
vn 0.9659 0.0000 -0.2588
vn -0.1564 -0.0000 0.9877
vn -0.0940 -0.0000 0.9956
vn -0.9956 -0.0000 0.0940
vn -0.9877 -0.0000 0.1564
vn -0.9603 -0.0000 0.2789
vn -0.9178 -0.0000 0.3971
vn -0.6088 -0.0000 0.7934
vn -0.8660 -0.0000 0.5000
vn -0.9239 -0.0000 0.3827
vn -0.7071 -0.0000 0.7071
vn -0.6129 -0.0000 0.7901
vn -0.5090 -0.0000 0.8608
vn -0.3971 -0.0000 0.9178
vn -0.9659 -0.0000 0.2588
vn -0.9914 -0.0000 0.1305
vn 0.6026 0.0000 -0.7980
vn 0.9958 0.0000 -0.0921
vn 0.9979 0.0000 -0.0654
vn 0.9997 0.0000 -0.0229
vn 0.3827 0.0000 -0.9239
vn 0.7934 0.0000 -0.6087
vn 0.8661 0.0000 -0.4999
vn 0.2288 0.0000 -0.9735
vn 0.9239 0.0000 -0.3827
vn -0.0654 -0.0000 0.9979
vn -0.8608 -0.0000 0.5090
vn -0.7901 -0.0000 0.6129
vn -0.7934 -0.0000 0.6088
vn -0.2789 -0.0000 0.9603
vn -0.9979 -0.0000 0.0654
usemtl Stone.212
s 1
f 29/1/1 30/2/1 33/3/1
f 49/4/2 48/5/2 85/6/2
f 27/7/3 28/8/3 7/9/3 8/10/3
f 15/11/3 18/12/3 19/13/3 1/14/3
f 1/14/3 19/13/3 20/15/3 2/16/3
f 20/15/3 21/17/3 14/18/3 2/16/3
f 22/19/3 23/20/3 12/21/3 13/22/3
f 12/21/3 23/20/3 24/23/3 11/24/3
f 11/24/3 24/23/3 25/25/3 10/26/3
f 21/17/3 22/19/3 13/22/3 14/18/3
f 74/27/3 70/28/3 71/29/3 73/30/3
f 59/31/3 36/32/3 35/33/3 72/34/3
f 6/35/3 7/9/3 28/8/3 5/36/3
f 30/2/1 6/37/1 31/38/1
f 6/37/1 5/39/1 31/38/1
f 31/38/1 32/40/1 30/2/1
f 35/41/1 36/42/1 34/43/1
f 36/42/1 29/1/1 34/43/1
f 33/3/1 34/43/1 29/1/1
f 30/2/1 32/40/1 33/3/1
f 43/44/4 44/45/4 51/46/4 52/47/4
f 47/48/4 48/49/4 49/50/4 50/51/4
f 46/52/4 47/48/4 50/51/4 4/53/4
f 37/54/4 38/55/4 57/56/4 58/57/4
f 44/45/4 45/58/4 3/59/4 51/46/4
f 40/60/4 55/61/4 56/62/4 39/63/4
f 42/64/4 43/44/4 52/47/4 53/65/4
f 41/66/4 54/67/4 55/61/4 40/60/4
f 42/64/4 53/65/4 54/67/4 41/66/4
f 39/63/4 56/62/4 57/56/4 38/55/4
f 29/68/4 37/54/4 58/57/4 30/69/4
f 4/70/5 1/71/5 2/72/6 3/73/6
f 45/58/4 46/52/4 4/53/4 3/59/4
f 75/74/3 76/75/3 68/76/3 69/77/3
f 66/78/3 78/79/3 79/80/3 65/81/3
f 77/82/3 67/83/3 68/76/3 76/75/3
f 64/84/3 65/81/3 79/80/3 80/85/3
f 62/86/3 63/87/3 81/88/3 82/89/3
f 63/87/3 64/84/3 80/85/3 81/88/3
f 61/90/3 62/86/3 82/89/3 60/91/3
f 48/5/2 61/92/2 83/93/2
f 61/92/2 60/94/2 83/93/2
f 83/93/2 84/95/2 48/5/2
f 17/96/2 16/97/2 86/98/2
f 16/97/2 49/4/2 86/98/2
f 85/6/2 86/98/2 49/4/2
f 48/5/2 84/95/2 85/6/2
f 26/99/7 91/100/7 90/101/8 27/102/8
f 47/103/9 62/104/9 61/105/10 48/106/10
f 46/107/11 63/108/11 62/109/9 47/110/9
f 25/111/12 92/112/12 91/113/7 26/114/7
f 24/115/13 93/116/13 92/117/12 25/118/12
f 43/119/14 66/120/14 65/121/15 44/122/15
f 42/123/16 67/124/16 66/125/14 43/126/14
f 20/127/17 97/128/17 96/129/18 21/130/18
f 17/131/19 86/132/19 99/133/20 18/134/20
f 50/135/21 15/136/21 1/137/5 4/138/5
f 3/139/6 2/140/6 14/141/22 51/142/22
f 37/143/23 59/144/23 71/145/24 38/146/24
f 75/74/3 69/77/3 70/28/3 74/27/3
f 71/29/3 59/31/3 72/34/3 73/30/3
f 26/147/3 27/7/3 8/10/3 9/148/3
f 66/78/3 67/83/3 77/82/3 78/79/3
f 25/25/3 26/147/3 9/148/3 10/26/3
f 82/149/25 87/150/25 83/151/26 60/152/26
f 35/153/27 34/154/27 88/155/28 72/156/28
f 72/157/28 88/158/28 108/159/29 73/160/29
f 23/161/16 94/162/16 93/163/13 24/164/13
f 73/165/29 108/166/29 107/167/30 74/168/30
f 51/169/22 14/170/22 13/171/31 52/172/31
f 55/173/32 10/174/32 9/175/33 56/176/33
f 77/177/34 104/178/34 103/179/35 78/180/35
f 78/181/35 103/182/35 102/183/36 79/184/36
f 79/185/36 102/186/36 101/187/37 80/188/37
f 57/189/38 8/190/38 7/191/39 58/192/39
f 22/193/40 95/194/40 94/195/16 23/196/16
f 27/197/8 90/198/8 89/199/41 28/200/41
f 29/201/42 36/202/42 59/203/23 37/204/23
f 28/205/41 89/206/41 31/207/43 5/208/43
f 45/209/44 64/210/44 63/211/11 46/212/11
f 44/213/15 65/214/15 64/215/44 45/216/44
f 16/217/3 17/218/3 18/12/3 15/11/3
f 56/219/33 9/220/33 8/221/38 57/222/38
f 41/223/45 68/224/45 67/225/16 42/226/16
f 21/227/18 96/228/18 95/229/40 22/230/40
f 40/231/46 69/232/46 68/233/45 41/234/45
f 19/235/47 98/236/47 97/237/17 20/238/17
f 18/239/20 99/240/20 98/241/47 19/242/47
f 39/243/48 70/244/48 69/245/46 40/246/46
f 49/247/49 16/248/49 15/249/21 50/250/21
f 38/251/24 71/252/24 70/253/48 39/254/48
f 75/255/50 106/256/50 105/257/51 76/258/51
f 76/259/51 105/260/51 104/261/34 77/262/34
f 52/263/31 13/264/31 12/265/34 53/266/34
f 53/267/34 12/268/34 11/269/52 54/270/52
f 54/271/52 11/272/52 10/273/32 55/274/32
f 74/275/30 107/276/30 106/277/50 75/278/50
f 80/279/37 101/280/37 100/281/53 81/282/53
f 81/283/53 100/284/53 87/285/25 82/286/25
f 58/287/39 7/288/39 6/289/54 30/290/54
usemtl Asphalt.173
f 31/38/1 34/43/1 33/3/1 32/40/1
f 98/291/3 100/292/3 101/293/3 97/294/3
f 95/295/3 103/296/3 104/297/3 94/298/3
f 107/299/3 91/300/3 92/301/3 106/302/3
f 31/303/3 89/304/3 88/305/3 34/306/3
f 108/307/3 88/305/3 89/304/3 90/308/3
f 86/309/3 83/310/3 87/311/3 99/312/3
f 99/312/3 87/311/3 100/292/3 98/291/3
f 97/294/3 101/293/3 102/313/3 96/314/3
f 96/314/3 102/313/3 103/296/3 95/295/3
f 105/315/3 93/316/3 94/298/3 104/297/3
f 106/302/3 92/301/3 93/316/3 105/315/3
f 90/308/3 91/300/3 107/299/3 108/307/3
f 83/93/2 86/98/2 85/6/2 84/95/2
