# Blender v3.4.1 OBJ File: ''
# www.blender.org
mtllib roadTile_117.mtl
o roadTile_117
v 2.625000 0.600000 0.000000
v 2.625000 0.600001 -3.000000
v 0.375000 0.600001 -3.000000
v 0.375000 0.600000 0.000000
v 2.625000 0.300000 0.000000
v 2.625000 0.300000 -3.000000
v 0.375000 0.300000 0.000000
v 0.000000 1.730000 0.000000
v 0.000000 0.000000 -0.000000
v 2.625000 0.000000 0.000000
v 0.375000 1.730000 0.000000
v 0.000000 1.730000 -3.000000
v 0.000000 0.000000 -3.000000
v 0.375000 1.730000 -3.000000
v 2.625000 0.000000 -3.000000
v 0.375000 0.300000 -3.000000
vt 3.000000 0.600000
vt 0.000000 0.600000
vt 0.000000 0.300000
vt 3.000000 0.300000
vt 2.625000 0.600000
vt 0.375000 0.600000
vt 0.375000 0.300000
vt 2.625000 0.300000
vt -0.375000 0.600000
vt -2.625000 0.600000
vt -2.625000 0.300000
vt -0.375000 0.300000
vt 0.375000 0.000000
vt 2.625000 0.000000
vt 2.625000 3.000000
vt 0.375000 3.000000
vt -0.000000 0.000000
vt 0.000000 0.000000
vt 0.375000 1.730000
vt 0.000000 1.730000
vt 2.625000 0.000000
vt 3.000000 0.600000
vt 3.000000 1.730000
vt 0.000000 1.730000
vt 0.000000 0.600000
vt -0.000000 3.000000
vt -2.625000 3.000000
vt -2.625000 -0.000000
vt -2.625000 0.000000
vt 0.000000 1.730000
vt -0.375000 1.730000
vt 0.000000 0.000000
vt 3.000000 0.000000
vt 0.375000 0.000000
vt 0.375000 3.000000
vt 0.000000 3.000000
vt -0.000000 0.000000
vt -3.000000 1.730000
vt -3.000000 0.000000
vn 1.0000 0.0000 0.0000
vn -0.0000 -0.0000 1.0000
vn 0.0000 0.0000 -1.0000
vn 0.0000 1.0000 0.0000
vn -0.0000 -1.0000 -0.0000
vn -1.0000 0.0000 -0.0000
usemtl Asphalt.071
s 1
f 2/1/1 1/2/1 5/3/1 6/4/1
f 1/5/2 4/6/2 7/7/2 5/8/2
f 3/9/3 2/10/3 6/11/3 16/12/3
f 4/13/4 1/14/4 2/15/4 3/16/4
usemtl Stone.097
f 7/7/2 4/6/2 9/17/2
f 3/9/3 16/12/3 13/18/3
f 11/19/2 8/20/2 4/6/2
f 8/20/2 9/17/2 4/6/2
f 9/17/2 10/21/2 7/7/2
f 10/21/2 5/8/2 7/7/2
f 3/22/1 14/23/1 11/24/1 4/25/1
f 13/26/5 15/27/5 10/28/5 9/17/5
f 6/11/3 15/29/3 16/12/3
f 15/29/3 13/18/3 16/12/3
f 13/18/3 12/30/3 3/9/3
f 12/30/3 14/31/3 3/9/3
f 10/32/1 15/33/1 6/4/1 5/3/1
f 11/34/4 14/35/4 12/36/4 8/37/4
f 9/17/6 8/20/6 12/38/6 13/39/6
