# Blender v3.4.1 OBJ File: ''
# www.blender.org
mtllib roadTile_145.mtl
o roadTile_145
v 3.000000 0.455000 0.000000
v 1.875000 0.455000 0.000000
v 1.875000 0.000000 -0.000000
v 3.000000 0.000000 0.000000
v 0.750000 0.455000 -3.000000
v 3.000000 0.455000 -3.000000
v 0.750000 0.455000 0.000000
v 0.750000 0.000000 -0.000000
v 3.000000 0.000000 -3.000000
v 0.000000 0.000000 -0.000000
v 0.000000 0.000000 -3.000000
v 0.750000 0.000000 -3.000000
v 0.000000 0.550000 -3.000000
v 0.750000 0.550000 -3.000000
v 0.000000 0.550000 0.000000
v 0.750000 0.550000 0.000000
vt 3.000000 0.000000
vt 3.000000 0.455000
vt 1.875000 0.455000
vt 1.875000 0.000000
vt -3.000000 0.000000
vt -0.750000 0.000000
vt -0.750000 0.455000
vt -3.000000 0.455000
vt 3.000000 3.000000
vt 0.750000 3.000000
vt 1.875000 0.000000
vt 3.000000 -0.000000
vt 3.000000 0.000000
vt 3.000000 0.455000
vt 0.000000 0.455000
vt 0.000000 0.000000
vt 0.750000 0.000000
vt 0.750000 0.455000
vt 0.750000 0.000000
vt 0.750000 0.550000
vt 0.000000 0.550000
vt 3.000000 0.455000
vt 3.000000 0.550000
vt 0.000000 0.550000
vt 0.000000 0.455000
vt -3.000000 3.000000
vt -3.000000 0.000000
vt -1.875000 0.000000
vt -0.750000 3.000000
vt -3.000000 0.550000
vt -3.000000 0.000000
vt -0.000000 0.000000
vt -0.750000 0.000000
vt 0.000000 0.550000
vt 0.000000 0.000000
vt 0.000000 3.000000
vt 0.000000 0.000000
vt 0.750000 0.000000
vt 0.750000 3.000000
vt -0.750000 0.550000
vt -0.000000 3.000000
vn -0.0000 -0.0000 1.0000
vn 0.0000 0.0000 -1.0000
vn 0.0000 1.0000 0.0000
vn 1.0000 0.0000 0.0000
vn -0.0000 -1.0000 -0.0000
vn -1.0000 0.0000 -0.0000
usemtl Water.005
s 1
f 4/1/1 1/2/1 2/3/1 3/4/1
f 9/5/2 12/6/2 5/7/2 6/8/2
f 6/9/3 5/10/3 2/11/3 1/12/3
f 9/13/4 6/14/4 1/15/4 4/16/4
usemtl Sand.002
f 7/17/3 2/11/3 5/10/3
f 7/18/1 8/19/1 3/4/1 2/3/1
usemtl Grass.051
f 7/18/1 16/20/1 15/21/1
f 5/22/4 14/23/4 16/24/4 7/25/4
f 9/26/5 4/27/5 3/28/5 12/29/5
f 13/30/6 11/31/6 10/32/6 15/21/6
f 3/28/5 8/33/5 12/29/5
f 13/34/2 5/7/2 12/6/2 11/35/2
f 13/36/3 15/37/3 16/38/3 14/39/3
f 14/40/2 5/7/2 13/34/2
f 10/32/1 8/19/1 7/18/1 15/21/1
f 8/33/5 10/32/5 11/41/5 12/29/5
