# Blender v3.4.1 OBJ File: ''
# www.blender.org
mtllib roadTile_070.mtl
o roadTile_070
v 2.205090 0.600000 -2.314740
v 2.071110 0.600000 -1.641200
v 2.071110 0.630000 -1.641200
v 2.205090 0.630000 -2.314740
v 0.000000 0.600000 0.000000
v 1.296070 0.600000 0.000000
v 1.546630 0.600000 -0.375000
v 1.850370 0.600000 -0.990912
v 2.250000 0.600001 -3.000000
v 0.000000 0.600001 -3.000000
v 0.000000 0.300000 0.000000
v 1.296070 0.300000 0.000000
v 0.000000 0.300000 -3.000000
v 2.250000 0.300000 -3.000000
v 3.000000 0.000000 -3.000000
v 0.000000 0.000000 -3.000000
v 2.250000 0.630000 -3.000000
v 3.000000 0.630000 -3.000000
v 3.000000 0.000000 -0.000000
v 0.000000 0.000000 0.000000
v 3.000000 0.630000 0.000000
v 1.850370 0.630000 -0.990912
v 1.546630 0.630000 -0.375000
v 1.296070 0.630000 0.000000
vt 2.071110 1.641200
vt 1.850370 0.990912
vt 3.000000 0.000000
vt -1.707120 0.630000
vt -1.707120 0.600000
vt -1.020390 0.600000
vt -1.020390 0.630000
vt -3.000000 -0.000000
vt 0.000000 -0.000000
vt -2.250000 0.300000
vt 0.000000 0.300000
vt -2.250000 0.600000
vt -2.250000 0.630000
vt -3.000000 0.630000
vt -1.171060 0.630000
vt -1.171060 0.600000
vt -0.720056 0.600000
vt -0.720056 0.630000
vt -3.140730 0.630000
vt -3.140730 0.600000
vt -2.454000 0.600000
vt -2.454000 0.630000
vt 3.000000 3.000000
vt 2.250000 3.000000
vt 2.205090 2.314740
vt 1.546630 0.375000
vt 1.296070 0.000000
vt -2.219840 0.630000
vt -2.219840 0.600000
vt -1.533110 0.600000
vt -1.533110 0.630000
vt 3.000000 0.630000
vt 1.296070 0.600000
vt 1.296070 0.300000
vt 3.000000 0.000000
vt -3.000000 0.000000
vt 0.000000 0.000000
vt 0.000000 0.300000
vt -3.000000 0.300000
vt -2.700450 0.630000
vt -2.700450 0.600000
vt -2.013720 0.600000
vt -2.013720 0.630000
vt 1.296070 0.630000
vt 0.000000 0.630000
vt 0.000000 -0.000000
vt 3.000000 -0.000000
vt 3.000000 0.630000
vt 2.205090 2.314740
vt 2.250000 3.000000
vt -0.000000 3.000000
vt 0.000000 0.600000
vt 0.000000 -0.000000
vt 1.850370 0.990912
vt 1.296070 0.000000
vt 1.546630 0.375000
vt 2.071110 1.641200
vt -3.000000 0.600000
vt 0.000000 0.600000
vt 0.000000 118.110001
vt -118.110001 118.110001
vt -118.110001 0.000000
vn 0.0000 1.0000 0.0000
vn -0.9239 0.0000 -0.3827
vn -0.8660 -0.0000 -0.5000
vn 0.0000 0.0000 -1.0000
vn -0.8315 -0.0000 -0.5556
vn -0.9979 0.0000 -0.0654
vn -0.9914 0.0000 -0.1305
vn -0.9659 0.0000 -0.2588
vn 0.0000 -0.0000 1.0000
vn -1.0000 0.0000 0.0000
vn 1.0000 0.0000 0.0000
vn 0.0000 -1.0000 -0.0000
usemtl Stone.050
s 1
f 3/1/1 22/2/1 21/3/1
f 22/4/2 8/5/2 7/6/3 23/7/3
f 15/8/4 16/9/4 14/10/4
f 16/9/4 13/11/4 14/10/4
f 9/12/4 17/13/4 18/14/4
f 23/15/3 7/16/3 6/17/5 24/18/5
f 17/19/6 9/20/6 1/21/7 4/22/7
f 21/3/1 18/23/1 3/1/1
f 18/23/1 17/24/1 4/25/1
f 18/23/1 4/25/1 3/1/1
f 23/26/1 24/27/1 21/3/1
f 22/2/1 23/26/1 21/3/1
f 3/28/8 2/29/8 8/30/2 22/31/2
f 21/32/9 6/33/9 12/34/9 19/35/9
f 16/36/10 20/37/10 11/38/10 13/39/10
f 4/40/7 1/41/7 2/42/8 3/43/8
f 12/34/9 11/38/9 20/37/9
f 20/37/9 19/35/9 12/34/9
f 18/14/4 15/8/4 14/10/4 9/12/4
f 21/32/9 24/44/9 6/33/9
f 21/45/11 19/46/11 15/47/11 18/48/11
usemtl Asphalt.039
f 1/49/1 9/50/1 10/51/1
f 6/33/9 5/52/9 11/38/9 12/34/9
f 10/51/1 5/53/1 8/54/1
f 5/53/1 6/55/1 7/56/1
f 8/54/1 5/53/1 7/56/1
f 8/54/1 2/57/1 10/51/1
f 2/57/1 1/49/1 10/51/1
f 5/52/10 10/58/10 13/39/10 11/38/10
f 10/59/4 9/12/4 14/10/4 13/11/4
usemtl FrontColor.006
f 20/37/12 16/60/12 15/61/12 19/62/12
