# Blender v3.4.1 OBJ File: ''
# www.blender.org
mtllib roadTile_025.mtl
o roadTile_025
v 0.000000 0.000000 -3.000000
v 0.000000 0.000000 -2.625000
v 0.000000 0.550000 -2.625000
v 0.000000 0.550000 -3.000000
v 3.000000 0.000000 -0.000000
v 0.000000 0.000000 0.000000
v 0.000000 0.000000 -0.375000
v 3.000000 0.000000 -3.000000
v 3.000000 0.000000 -2.625000
v 3.000000 0.000000 -0.375000
v 0.000000 0.550000 0.000000
v 3.000000 0.550000 0.000000
v 0.000000 0.550000 -0.375000
v 3.000000 0.550000 -0.375000
v 3.000000 0.550000 -2.625000
v 3.000000 0.630000 -2.625000
v 3.000000 0.630000 -2.250000
v 3.000000 0.600000 -2.250000
v 3.000000 0.300000 -2.250000
v 3.000000 0.300000 -0.750000
v 3.000000 0.600000 -0.750000
v 3.000000 0.630000 -0.750000
v 3.000000 0.630000 -0.375000
v 3.000000 0.550000 -3.000000
v 0.000000 0.630000 -2.625000
v 0.000000 0.630000 -2.250000
v 0.000000 0.630000 -0.375000
v 0.000000 0.630000 -0.750000
v 0.000000 0.600000 -0.750000
v 0.000000 0.300000 -0.750000
v 0.000000 0.300000 -2.250000
v 0.000000 0.600000 -2.250000
v 1.875000 0.600000 -0.750000
v 1.125000 0.600000 -0.750000
v 1.875000 0.600000 -0.937500
v 1.875000 0.600000 -1.125000
v 1.875000 0.600000 -1.500000
v 1.875000 0.600000 -1.875000
v 1.875000 0.600000 -2.062500
v 1.125000 0.600000 -2.062500
v 1.125000 0.600000 -1.312500
v 1.125000 0.600000 -0.937500
v 1.125000 0.600000 -1.125000
v 1.875000 0.600000 -1.312500
v 1.125000 0.600000 -1.500000
v 1.125000 0.600000 -1.687500
v 1.875000 0.600000 -1.687500
v 1.125000 0.600000 -1.875000
vt -0.000000 -0.000000
vt -0.000000 0.375000
vt -3.000000 0.375000
vt -3.000000 0.000000
vt 3.000000 0.550000
vt 0.000000 0.550000
vt 3.000000 0.000000
vt -0.375000 0.550000
vt -0.375000 0.000000
vt 0.000000 0.000000
vt 3.000000 0.000000
vt 3.000000 0.375000
vt 0.000000 0.375000
vt 0.000000 0.550000
vt 0.000000 0.000000
vt 0.375000 0.000000
vt 0.375000 0.550000
vt 3.000000 0.000000
vt 3.000000 0.550000
vt 2.625000 0.550000
vt 2.625000 0.000000
vt -0.000000 0.550000
vt -3.000000 0.550000
vt -3.000000 0.000000
vt -0.000000 0.000000
vt -3.000000 3.000000
vt -3.000000 2.625000
vt 0.000000 2.625000
vt 0.000000 3.000000
vt -3.000000 0.550000
vt -3.000000 0.000000
vt -2.625000 0.000000
vt -2.625000 0.550000
vt 3.000000 3.000000
vt 0.000000 3.000000
vt 0.000000 2.625000
vt 3.000000 2.625000
vt 0.750000 0.300000
vt -2.250000 0.300000
vt -1.125000 0.600000
vt -0.000000 0.630000
vt -3.000000 0.630000
vt -2.250000 0.600000
vt 3.000000 0.750000
vt 0.000000 0.750000
vt 0.000000 0.375000
vt 3.000000 0.375000
vt -0.375000 0.630000
vt -0.750000 0.630000
vt -0.750000 0.600000
vt 2.625000 0.630000
vt 2.250000 0.630000
vt 2.250000 0.600000
vt 2.250000 0.300000
vt 0.750000 0.600000
vt 0.750000 0.630000
vt 0.375000 0.630000
vt -0.000000 0.550000
vt -0.000000 0.630000
vt -3.000000 0.630000
vt -3.000000 0.550000
vt -2.250000 0.630000
vt -2.625000 0.630000
vt -0.750000 0.300000
vt 0.000000 2.250000
vt 3.000000 2.250000
vt 3.000000 2.625000
vt 0.000000 2.625000
vt 3.000000 0.550000
vt 3.000000 0.630000
vt 0.000000 0.630000
vt 0.000000 0.550000
vt -3.000000 0.600000
vt -1.875000 0.600000
vt -0.000000 0.600000
vt 3.000000 0.630000
vt 0.000000 0.630000
vt 0.000000 0.600000
vt 3.000000 0.600000
vt 3.000000 2.250000
vt 1.875000 0.750000
vt 3.000000 0.750000
vt 1.875000 0.937500
vt 1.875000 1.125000
vt 1.875000 1.500000
vt 1.875000 1.875000
vt 1.875000 2.062500
vt 1.125000 2.062500
vt 0.000000 2.250000
vt 1.125000 1.312500
vt 0.000000 0.750000
vt 1.125000 0.750000
vt 1.125000 0.937500
vt 1.875000 1.312500
vt 1.125000 1.875000
vt 1.125000 1.687500
vt 1.875000 1.687500
vt 1.125000 1.500000
vt 1.125000 1.125000
vn 0.0000 -1.0000 -0.0000
vn 0.0000 -0.0000 1.0000
vn -1.0000 -0.0000 0.0000
vn 0.0000 1.0000 0.0000
vn 1.0000 -0.0000 0.0000
vn 0.0000 0.0000 -1.0000
vn -0.4989 0.4989 -0.7086
vn 0.4441 0.4440 -0.7782
vn 0.1302 0.7162 -0.6857
vn -0.4675 0.4675 -0.7502
vn 0.4304 0.4304 -0.7934
vn 0.5838 0.5221 -0.6218
vn 0.5612 0.5608 -0.6088
usemtl Grass.013
s 1
f 6/1/1 7/2/1 10/3/1 5/4/1
f 12/5/2 11/6/2 6/1/2 5/7/2
f 6/1/3 11/6/3 13/8/3 7/9/3
f 11/10/4 12/11/4 14/12/4 13/13/4
f 12/14/5 5/15/5 10/16/5 14/17/5
f 8/18/5 24/19/5 15/20/5 9/21/5
f 4/22/6 24/23/6 8/24/6 1/25/6
f 8/26/1 9/27/1 2/28/1 1/29/1
f 9/27/1 10/3/1 7/2/1 2/28/1
f 4/30/3 1/31/3 2/32/3 3/33/3
f 24/34/4 4/35/4 3/36/4 15/37/4
usemtl Stone.010
f 10/16/5 9/21/5 20/38/5
f 2/32/3 7/9/3 31/39/3
f 34/40/6 28/41/6 22/42/6
f 31/39/3 32/43/3 3/33/3 2/32/3
f 22/44/4 28/45/4 27/46/4 23/47/4
f 27/48/3 28/49/3 29/50/3 13/8/3
f 16/51/5 17/52/5 18/53/5 15/20/5
f 15/20/5 18/53/5 19/54/5 9/21/5
f 9/21/5 19/54/5 20/38/5
f 21/55/5 22/56/5 23/57/5 14/17/5
f 3/58/6 25/59/6 16/60/6 15/61/6
f 20/38/5 21/55/5 14/17/5 10/16/5
f 32/43/3 26/62/3 25/63/3 3/33/3
f 13/8/3 29/50/3 30/64/3 7/9/3
f 7/9/3 30/64/3 31/39/3
f 26/65/4 17/66/4 16/67/4 25/68/4
f 14/69/2 23/70/2 27/71/2 13/72/2
f 22/42/6 21/73/6 33/74/6
f 34/40/6 29/75/6 28/41/6
f 22/42/6 33/74/6 34/40/6
f 17/76/2 26/77/2 32/78/2 18/79/2
usemtl Asphalt
f 18/80/4 33/81/4 21/82/4
f 18/80/4 35/83/4 33/81/4
f 18/80/4 36/84/4 35/83/4
f 18/80/4 37/85/4 36/84/4
f 18/80/4 38/86/4 37/85/4
f 18/80/4 39/87/4 38/86/4
f 18/80/4 40/88/4 39/87/4
f 32/89/4 40/88/4 18/80/4
f 41/90/4 29/91/4 34/92/4
f 41/90/4 34/92/4 42/93/7
f 37/85/4 44/94/8 36/84/4
f 38/86/4 48/95/9 46/96/10 47/97/11
f 41/90/4 45/98/12 46/96/10
f 38/86/4 47/97/11 37/85/4
f 18/53/5 21/55/5 20/38/5 19/54/5
f 40/88/4 46/96/10 48/95/9
f 40/88/4 41/90/4 46/96/10
f 41/90/4 42/93/7 43/99/13
f 29/50/3 32/43/3 31/39/3 30/64/3
f 29/91/4 41/90/4 40/88/4 32/89/4
f 36/84/4 43/99/13 42/93/7 35/83/4
f 45/98/12 41/90/4 44/94/8 37/85/4
usemtl White
f 43/99/13 36/84/4 44/94/8 41/90/4
f 34/92/4 33/81/4 35/83/4 42/93/7
f 45/98/12 37/85/4 47/97/11 46/96/10
f 48/95/9 38/86/4 39/87/4 40/88/4
