# Blender v3.4.1 OBJ File: ''
# www.blender.org
mtllib roadTile_204.mtl
o roadTile_204
v 0.000000 1.700000 -2.250000
v 0.000000 1.400000 -2.250000
v 0.000000 1.400000 -0.750000
v 0.000000 1.700000 -0.750000
v 0.000000 1.730000 -3.000000
v 0.000000 1.100001 -3.000000
v 0.000000 1.100000 0.000000
v 0.000000 1.730000 0.000000
v 0.000000 1.730000 -0.750000
v 0.000000 1.730000 -2.250000
v 2.370000 0.000000 -3.000000
v 1.270000 1.100001 -3.000000
v 3.000000 1.730000 -3.000000
v 3.000000 0.000000 -3.000000
v 2.370000 0.000000 -0.000000
v 1.270000 1.100000 0.000000
v 3.000000 0.000000 -0.000000
v 3.000000 1.730000 0.000000
v 3.000000 1.730000 -2.250000
v 3.000000 1.700000 -2.250000
v 3.000000 1.400000 -2.250000
v 3.000000 1.400000 -0.750000
v 3.000000 1.700000 -0.750000
v 3.000000 1.730000 -0.750000
vt 2.250000 1.700000
vt 0.750000 1.700000
vt 0.750000 1.400000
vt 2.250000 1.400000
vt 3.000000 0.750000
vt 3.000000 2.250000
vt 0.000000 2.250000
vt 0.000000 0.750000
vt -0.750000 1.700000
vt -2.250000 1.700000
vt -2.250000 1.400000
vt -0.750000 1.400000
vt -3.000000 1.100000
vt 0.000000 1.100000
vt -1.270000 1.100000
vt -0.000000 1.730000
vt -3.000000 1.730000
vt 2.370000 -0.000000
vt 3.000000 0.000000
vt 3.000000 1.730000
vt 3.000000 0.750000
vt 0.000000 0.750000
vt 0.000000 0.000000
vt 3.000000 0.000000
vt -2.250000 1.730000
vt -3.000000 1.730000
vt 0.000000 1.730000
vt 0.000000 0.000000
vt 3.000000 0.000000
vt -0.750000 1.730000
vt -3.000000 0.000000
vt -2.370000 0.000000
vt -0.000000 1.100000
vt -3.000000 3.000000
vt -3.000000 0.000000
vt -2.370000 0.000000
vt -2.370000 3.000000
vt 0.000000 0.000000
vt -0.000000 3.000000
vt -1.270000 3.000000
vt -1.270000 0.000000
vt 1.270000 1.100000
vt 0.750000 1.730000
vt 0.000000 1.730000
vt 3.000000 1.730000
vt 2.250000 1.730000
vt 0.000000 1.730000
vt 0.000000 1.700000
vt 3.000000 1.700000
vt 3.000000 1.730000
vt -0.000000 -0.120208
vt -3.000000 -0.120208
vt -3.000000 -1.675840
vt -0.000000 -1.675840
vt -3.000000 1.730000
vt -3.000000 1.700000
vt -0.000000 1.700000
vt -0.000000 1.730000
vt 0.000000 2.250000
vt 3.000000 2.250000
vt 3.000000 3.000000
vt 0.000000 3.000000
vn 1.0000 0.0000 0.0000
vn 0.0000 1.0000 0.0000
vn -1.0000 0.0000 -0.0000
vn 0.0000 0.0000 -1.0000
vn 0.0000 -0.0000 1.0000
vn 0.0000 -1.0000 -0.0000
vn -0.7071 -0.7071 -0.0000
usemtl Asphalt.133
s 1
f 20/1/1 23/2/1 22/3/1 21/4/1
f 23/5/2 20/6/2 1/7/2 4/8/2
f 4/9/3 1/10/3 2/11/3 3/12/3
usemtl Stone.160
f 6/13/3 7/14/3 3/12/3
f 12/15/4 5/16/4 13/17/4
f 15/18/5 17/19/5 18/20/5
f 24/21/2 9/22/2 8/23/2 18/24/2
f 10/25/3 5/26/3 1/10/3
f 4/9/3 3/12/3 7/14/3 8/27/3
f 21/4/1 22/3/1 17/28/1 14/29/1
f 8/27/3 9/30/3 4/9/3
f 3/12/3 2/11/3 6/13/3
f 14/31/4 11/32/4 13/17/4
f 11/32/4 12/15/4 13/17/4
f 12/15/4 6/33/4 5/16/4
f 14/34/6 17/35/6 15/36/6 11/37/6
f 7/38/6 6/39/6 12/40/6 16/41/6
f 18/20/5 8/27/5 16/42/5
f 8/27/5 7/14/5 16/42/5
f 16/42/5 15/18/5 18/20/5
f 24/43/1 18/44/1 23/2/1
f 18/44/1 17/28/1 22/3/1
f 23/2/1 18/44/1 22/3/1
f 14/29/1 13/45/1 21/4/1
f 13/45/1 19/46/1 20/1/1
f 13/45/1 20/1/1 21/4/1
f 10/47/5 1/48/5 20/49/5 19/50/5
f 1/10/3 5/26/3 6/13/3 2/11/3
f 16/51/7 12/52/7 11/53/7 15/54/7
f 24/55/4 23/56/4 4/57/4 9/58/4
f 10/59/2 19/60/2 13/61/2 5/62/2
