# Blender v3.4.1 OBJ File: ''
# www.blender.org
mtllib roadTile_300.mtl
o roadTile_300
v 0.187500 0.630000 -0.753607
v 0.000000 0.630000 -0.878891
v 0.000000 0.000000 -0.878891
v 0.187500 0.000000 -0.753607
v 0.000000 0.630000 -1.328930
v 0.847406 0.630000 -0.428178
v 1.544140 0.630000 -0.191667
v 2.265790 0.630000 -0.048123
v 3.000000 0.630000 0.000000
v 3.000000 0.630000 -0.375000
v 2.314740 0.630000 -0.419914
v 1.641200 0.630000 -0.553889
v 0.990912 0.630000 -0.774632
v 0.375000 0.630000 -1.078370
v 0.000000 0.600000 -1.328930
v 0.000000 0.300000 -1.328930
v 0.000000 0.300000 -2.625000
v 0.000000 0.000000 -2.625000
v 0.000000 0.600000 -2.625000
v 0.754448 0.600000 -2.625000
v 0.754448 0.300000 -2.625000
v 1.468970 0.000000 -2.625000
v 0.754448 0.630000 -2.625000
v 1.468970 0.630000 -2.625000
v 3.000000 0.000000 -2.250000
v 3.000000 0.000000 -0.000000
v 2.265790 0.000000 -0.048123
v 1.544140 0.000000 -0.191667
v 0.847406 0.000000 -0.428178
v 1.708440 0.000000 -2.506910
v 2.126490 0.000000 -2.365000
v 2.559470 0.000000 -2.278870
v 3.000000 0.630000 -2.250000
v 3.000000 0.630000 -1.875000
v 3.000000 0.600000 -1.875000
v 3.000000 0.300000 -1.875000
v 3.000000 0.300000 -0.375000
v 3.000000 0.600000 -0.375000
v 2.559470 0.630000 -2.278870
v 2.126490 0.630000 -2.365000
v 1.708440 0.630000 -2.506910
v 1.125000 0.630000 -2.377400
v 1.564940 0.630000 -2.160450
v 2.029430 0.630000 -2.002780
v 2.510530 0.630000 -1.907080
v 1.125000 0.600000 -2.377400
v 0.375000 0.600000 -1.078370
v 0.990912 0.600000 -0.774632
v 1.641200 0.600000 -0.553889
v 2.314740 0.600000 -0.419914
v 2.510530 0.600000 -1.907080
v 2.029430 0.600000 -2.002780
v 1.564940 0.600000 -2.160450
vt -1.328930 0.300000
vt -2.625000 0.000000
vt -0.878891 -0.000000
vt 0.000000 0.000000
vt 2.250000 0.000000
vt 1.875000 0.300000
vt -0.878891 0.630000
vt -1.328930 0.600000
vt -3.000000 0.000000
vt -2.265790 0.048123
vt -2.559470 2.278870
vt -3.000000 2.250000
vt -0.847406 0.428178
vt -1.708440 2.506910
vt -2.126490 2.365000
vt -1.544140 0.191667
vt 2.126490 2.365000
vt 2.029430 2.002780
vt 2.510530 1.907080
vt 2.559470 2.278870
vt -1.328930 0.630000
vt 1.875000 0.600000
vt 2.250000 0.630000
vt -2.625000 0.300000
vt -0.385412 0.600000
vt -0.385412 0.630000
vt -0.831072 0.630000
vt -0.831072 0.600000
vt -1.468970 -0.000000
vt -0.000000 0.000000
vt -0.754448 0.300000
vt -0.000000 0.300000
vt 1.564940 2.160450
vt 1.708440 2.506910
vt 1.468970 2.625000
vt 1.125000 2.377400
vt -0.754448 0.600000
vt -0.754448 0.630000
vt -1.468970 0.630000
vt 3.000000 0.000000
vt 3.000000 0.375000
vt 2.314740 0.419914
vt 2.265790 0.048123
vt 0.990912 0.774632
vt 0.375000 1.078370
vt 0.187500 0.753607
vt 0.847406 0.428178
vt 0.000000 0.878891
vt 0.000000 1.328930
vt 0.375000 0.630000
vt -0.000000 0.630000
vt 0.375000 0.600000
vt 0.375000 0.300000
vt 1.875000 0.630000
vt 2.993580 -0.000000
vt 2.993580 0.630000
vt 2.257790 0.630000
vt 2.257790 -0.000000
vt 2.212870 -0.000000
vt 2.212870 0.630000
vt 1.477080 0.630000
vt 1.477080 -0.000000
vt 1.400590 -0.000000
vt 1.400590 0.630000
vt 0.664801 0.630000
vt 0.664801 -0.000000
vt 1.277960 0.600000
vt 1.277960 0.630000
vt 0.787432 0.630000
vt 0.787432 0.600000
vt 1.641200 0.553889
vt 1.544140 0.191667
vt 3.000000 2.250000
vt 3.000000 1.875000
vt -1.468970 2.625000
vt -0.187500 0.753607
vt 0.754448 2.625000
vt -0.000000 2.625000
vt -0.000000 0.878891
vt 0.448006 0.600000
vt 0.448006 0.630000
vt -0.042517 0.630000
vt -0.042517 0.600000
vt -1.624240 0.000000
vt -1.624240 0.630000
vt -2.065710 0.630000
vt -2.065710 0.000000
vt -0.811958 0.000000
vt -0.811958 0.630000
vt -1.253430 0.630000
vt -1.253430 0.000000
vt -0.156475 -0.000000
vt -0.156475 0.630000
vt -0.423480 0.630000
vt -0.423480 -0.000000
vt 0.738316 0.600000
vt 0.738316 0.630000
vt 0.287307 0.630000
vt 0.287307 0.600000
vt 0.140622 0.600000
vt 0.140622 0.630000
vt -0.546111 0.630000
vt -0.546111 0.600000
vt -0.689327 0.600000
vt -0.689327 0.630000
vt -1.376060 0.630000
vt -1.376060 0.600000
vt -1.501610 0.600000
vt -1.501610 0.630000
vt -2.188340 0.630000
vt -2.188340 0.600000
vt -2.282320 0.600000
vt -2.282320 0.630000
vt -2.969050 0.630000
vt -2.969050 0.600000
vt -0.262781 -0.000000
vt -0.262781 0.630000
vt -0.488285 0.630000
vt -0.488285 -0.000000
vt 2.870950 0.600000
vt 2.870950 0.630000
vt 2.380420 0.630000
vt 2.380420 0.600000
vt 2.090230 0.600000
vt 2.090230 0.630000
vt 1.599710 0.630000
vt 1.599710 0.600000
vt 0.570637 -0.000000
vt 0.570637 0.630000
vt -0.165148 0.630000
vt -0.165148 -0.000000
vt -2.404950 -0.000000
vt -2.404950 0.630000
vt -2.846420 0.630000
vt -2.846420 -0.000000
vt 3.000000 0.375000
vt 3.000000 1.875000
vt 2.510530 1.907080
vt 2.314740 0.419914
vt -0.000000 0.600000
vt 2.029430 2.002780
vt 1.641200 0.553889
vt -0.000000 1.328930
vt 0.375000 1.078370
vt 1.125000 2.377400
vt 0.754448 2.625000
vt 0.000000 2.625000
vt 1.564940 2.160450
vt 0.990912 0.774632
vt -2.625000 0.600000
vn -1.0000 -0.0000 0.0000
vn 1.0000 0.0000 0.0000
vn -0.0000 -1.0000 -0.0000
vn 0.0000 1.0000 0.0000
vn -0.5000 0.0000 0.8660
vn -0.5556 0.0000 0.8315
vn 0.0000 0.0000 -1.0000
vn -0.0654 -0.0000 0.9979
vn -0.1305 -0.0000 0.9914
vn -0.2588 -0.0000 0.9659
vn -0.3827 -0.0000 0.9239
vn 0.2588 0.0000 -0.9659
vn 0.1305 0.0000 -0.9914
vn 0.3827 0.0000 -0.9239
vn 0.4423 0.0000 -0.8969
vn 0.5556 0.0000 -0.8315
vn 0.5000 0.0000 -0.8660
vn 0.0654 0.0000 -0.9979
usemtl Stone.256
s 1
f 16/1/1 18/2/1 3/3/1
f 26/4/2 25/5/2 36/6/2
f 16/1/1 3/3/1 2/7/1 15/8/1
f 26/9/3 27/10/3 32/11/3 25/12/3
f 29/13/3 30/14/3 31/15/3 28/16/3
f 40/17/4 44/18/4 45/19/4 39/20/4
f 5/21/1 15/8/1 2/7/1
f 35/22/2 36/6/2 25/5/2 33/23/2
f 16/1/1 17/24/1 18/2/1
f 46/25/5 42/26/5 23/27/6 20/28/6
f 22/29/7 18/30/7 21/31/7
f 18/30/7 17/32/7 21/31/7
f 43/33/4 41/34/4 24/35/4 42/36/4
f 20/37/7 23/38/7 24/39/7
f 9/40/4 10/41/4 11/42/4 8/43/4
f 13/44/4 14/45/4 1/46/4 6/47/4
f 24/39/7 22/29/7 21/31/7 20/37/7
f 2/48/4 1/46/4 14/45/4 5/49/4
f 10/50/2 9/51/2 38/52/2
f 38/52/2 9/51/2 26/4/2 37/53/2
f 33/23/2 34/54/2 35/22/2
f 36/6/2 37/53/2 26/4/2
f 26/55/8 9/56/8 8/57/9 27/58/9
f 27/59/9 8/60/9 7/61/10 28/62/10
f 28/63/10 7/64/10 6/65/11 29/66/11
f 52/67/10 44/68/10 43/69/11 53/70/11
f 12/71/4 13/44/4 6/47/4 7/72/4
f 33/73/4 39/20/4 45/19/4 34/74/4
f 22/75/3 30/14/3 29/13/3 4/76/3
f 23/77/4 42/36/4 24/35/4
f 18/78/3 22/75/3 4/76/3 3/79/3
f 53/80/11 43/81/11 42/82/5 46/83/5
f 31/84/12 40/85/12 39/86/13 32/87/13
f 30/88/14 41/89/14 40/90/12 31/91/12
f 22/92/15 24/93/15 41/94/14 30/95/14
f 40/17/4 41/34/4 43/33/4 44/18/4
f 31/15/3 32/11/3 27/10/3 28/16/3
f 8/43/4 11/42/4 12/71/4 7/72/4
f 15/96/16 5/97/16 14/98/17 47/99/17
f 47/100/17 14/101/17 13/102/14 48/103/14
f 48/104/14 13/105/14 12/106/12 49/107/12
f 49/108/12 12/109/12 11/110/13 50/111/13
f 50/112/13 11/113/13 10/114/18 38/115/18
f 4/116/5 1/117/5 2/118/6 3/119/6
f 35/120/8 34/121/8 45/122/9 51/123/9
f 51/124/9 45/125/9 44/126/10 52/127/10
f 29/128/11 6/129/11 1/130/5 4/131/5
f 32/132/13 39/133/13 33/134/18 25/135/18
usemtl Asphalt.209
f 36/6/2 35/22/2 38/52/2 37/53/2
f 38/136/4 35/137/4 51/138/4 50/139/4
f 19/140/7 20/37/7 21/31/7 17/32/7
f 50/139/4 51/138/4 52/141/4 49/142/4
f 15/143/4 47/144/4 46/145/4 20/146/4
f 20/146/4 19/147/4 15/143/4
f 49/142/4 52/141/4 53/148/4 48/149/4
f 53/148/4 46/145/4 47/144/4 48/149/4
f 15/8/1 19/150/1 17/24/1 16/1/1
