# Blender v3.4.1 OBJ File: ''
# www.blender.org
mtllib roadTile_217.mtl
o roadTile_217
v 2.250000 0.300000 -3.000000
v 0.750000 0.300000 -3.000000
v 0.750000 0.600001 -3.000000
v 2.250000 0.600001 -3.000000
v 0.375000 0.000000 -3.000000
v 0.375000 0.550000 -3.000000
v 0.375000 0.630000 -3.000000
v 0.750000 0.630000 -3.000000
v 2.250000 0.630000 -3.000000
v 2.625000 0.630000 -3.000000
v 2.625000 0.550000 -3.000000
v 2.625000 0.000000 -3.000000
v 0.000000 0.550000 -3.000000
v 0.000000 0.000000 -3.000000
v 0.000000 0.550000 -2.625000
v 0.375000 0.550000 -2.625000
v 0.000000 0.000000 -2.625000
v 0.375000 0.000000 -0.000000
v 0.000000 0.000000 0.000000
v 0.000000 0.000000 -0.375000
v 0.000000 0.000000 -0.750000
v 0.000000 0.000000 -2.250000
v 2.625000 0.000000 -0.000000
v 2.625000 0.550000 0.000000
v 2.625000 0.630000 0.000000
v 2.250000 0.630000 0.000000
v 2.250000 0.600000 0.000000
v 2.250000 0.300000 0.000000
v 0.750000 0.300000 0.000000
v 0.750000 0.600000 0.000000
v 0.750000 0.630000 0.000000
v 0.375000 0.630000 0.000000
v 0.375000 0.550000 0.000000
v 3.000000 0.550000 0.000000
v 3.000000 0.000000 -0.000000
v 3.000000 0.550000 -0.375000
v 2.625000 0.550000 -0.375000
v 3.000000 0.000000 -0.375000
v 3.000000 0.000000 -3.000000
v 3.000000 0.000000 -2.625000
v 3.000000 0.000000 -2.250000
v 3.000000 0.000000 -0.750000
v 3.000000 0.550000 -3.000000
v 2.625000 0.550000 -2.625000
v 3.000000 0.550000 -2.625000
v 2.625000 0.630000 -2.625000
v 2.625000 0.630000 -0.750000
v 2.625000 0.630000 -2.250000
v 3.000000 0.630000 -2.250000
v 3.000000 0.630000 -2.625000
v 2.625000 0.630000 -0.375000
v 3.000000 0.630000 -0.375000
v 3.000000 0.630000 -0.750000
v 2.625000 0.455000 -2.250000
v 2.625000 0.455000 -0.750000
v 3.000000 0.455000 -2.250000
v 3.000000 0.455000 -0.750000
v 0.375000 0.630000 -2.625000
v 0.000000 0.630000 -2.625000
v 0.000000 0.630000 -2.250000
v 0.375000 0.630000 -2.250000
v 0.375000 0.630000 -0.750000
v 0.000000 0.630000 -0.750000
v 0.000000 0.630000 -0.375000
v 0.375000 0.630000 -0.375000
v 0.000000 0.455000 -2.250000
v 0.375000 0.455000 -2.250000
v 0.000000 0.455000 -0.750000
v 0.375000 0.455000 -0.750000
v 0.000000 0.550000 -0.375000
v 0.000000 0.550000 0.000000
v 0.375000 0.550000 -0.375000
vt 2.250000 3.000000
vt 0.750000 3.000000
vt 0.750000 0.000000
vt 2.250000 0.000000
vt 0.750000 0.600000
vt 0.750000 0.300000
vt 2.250000 0.300000
vt 2.250000 0.600000
vt -2.250000 0.600000
vt -2.250000 0.300000
vt -0.750000 0.300000
vt -0.750000 0.600000
vt -0.375000 0.000000
vt -2.625000 0.000000
vt 2.625000 0.000000
vt 0.375000 0.000000
vt 2.625000 0.375000
vt 2.625000 0.750000
vt 2.250000 0.000000
vt 0.375000 0.750000
vt 0.375000 0.375000
vt 0.750000 0.000000
vt 0.750000 0.630000
vt 0.375000 0.630000
vt 0.375000 0.550000
vt 2.625000 0.630000
vt 2.250000 0.630000
vt 2.625000 0.550000
vt -0.375000 0.550000
vt -2.625000 3.000000
vt -2.625000 0.000000
vt -0.375000 0.000000
vt -0.375000 3.000000
vt -0.375000 0.455000
vt -0.000000 0.455000
vt -0.000000 0.630000
vt -0.375000 0.630000
vt 0.750000 0.630000
vt 0.375000 0.630000
vt 0.375000 0.550000
vt 0.750000 0.455000
vt -2.250000 0.630000
vt -2.625000 0.630000
vt -2.625000 0.550000
vt 3.000000 0.550000
vt 3.000000 0.630000
vt 2.625000 0.630000
vt 2.625000 0.550000
vt 3.000000 2.625000
vt 2.625000 2.625000
vt 2.625000 2.250000
vt 3.000000 2.250000
vt 3.000000 0.375000
vt 3.000000 0.750000
vt 2.625000 3.000000
vt 2.250000 3.000000
vt 0.750000 0.455000
vt 2.250000 0.455000
vt 2.250000 0.630000
vt 0.750000 0.630000
vt 2.625000 0.000000
vt 2.625000 0.455000
vt 3.000000 0.455000
vt 3.000000 0.630000
vt 2.625000 0.630000
vt 0.000000 2.250000
vt 0.375000 2.250000
vt 0.375000 2.625000
vt 0.000000 2.625000
vt -0.375000 0.000000
vt -0.375000 0.550000
vt -0.750000 0.455000
vt -0.750000 0.000000
vt -2.250000 0.630000
vt -2.625000 0.630000
vt -2.625000 0.550000
vt -2.250000 0.455000
vt -2.250000 0.455000
vt -0.750000 0.455000
vt -0.750000 0.630000
vt -2.250000 0.630000
vt -3.000000 0.630000
vt -3.000000 0.455000
vt -2.625000 0.455000
vt -2.625000 0.630000
vt -2.625000 0.000000
vt -2.250000 0.000000
vt -0.750000 0.630000
vt -0.375000 0.630000
vt -0.000000 0.550000
vt 0.375000 0.550000
vt 0.375000 0.630000
vt -0.000000 0.630000
vt -0.375000 0.630000
vt -0.750000 0.630000
vt 2.625000 0.630000
vt 2.625000 0.550000
vt 3.000000 0.550000
vt 3.000000 0.630000
vt -3.000000 0.630000
vt -3.000000 0.600000
vt 0.000000 0.600000
vt 0.000000 0.630000
vt 0.750000 3.000000
vt 0.375000 3.000000
vt -0.000000 0.630000
vt -0.000000 0.600000
vt 3.000000 0.600000
vt 3.000000 0.630000
vt 0.375000 0.000000
vt 0.000000 0.750000
vt 0.000000 0.375000
vt -3.000000 0.550000
vt -2.625000 0.550000
vt -2.625000 0.630000
vt -3.000000 0.630000
vt 2.625000 0.000000
vt 2.625000 0.550000
vt 2.250000 0.455000
vt 2.250000 0.000000
vt -0.375000 0.630000
vt -0.375000 0.550000
vt -0.000000 0.550000
vt -0.000000 0.630000
vt 0.000000 0.630000
vt 0.000000 0.455000
vt 0.375000 0.455000
vt 0.375000 0.630000
vt 0.375000 0.000000
vt 0.750000 0.000000
vt 2.250000 0.630000
vt 2.625000 0.630000
vt 0.000000 0.550000
vt 0.000000 0.630000
vt -0.375000 0.630000
vt -0.375000 0.550000
vt 0.000000 0.630000
vt 0.000000 0.550000
vt 0.375000 0.550000
vt 0.375000 0.630000
vt -3.000000 0.630000
vt -3.000000 0.550000
vt -2.625000 0.550000
vt -2.625000 0.630000
vt -0.000000 2.250000
vt -0.000000 2.625000
vt -3.000000 0.750000
vt -3.000000 0.375000
vt 0.375000 3.000000
vt -0.000000 3.000000
vt 0.000000 2.625000
vt 0.375000 2.625000
vt -3.000000 0.550000
vt -3.000000 0.000000
vt -0.000000 3.000000
vt -0.000000 0.750000
vt -0.000000 0.000000
vt -0.000000 0.375000
vt 2.625000 0.000000
vt 3.000000 0.000000
vt 3.000000 0.375000
vt 2.625000 0.375000
vt 0.000000 0.550000
vt 0.000000 0.000000
vt -3.000000 0.550000
vt -3.000000 -0.000000
vt -3.000000 0.000000
vt -3.000000 2.250000
vt -3.000000 3.000000
vt -3.000000 2.625000
vt 3.000000 3.000000
vt 2.625000 3.000000
vt 2.625000 2.625000
vt 3.000000 2.625000
vt 3.000000 0.000000
vt 3.000000 0.550000
vt -0.000000 0.000000
vt -0.000000 0.550000
vt 0.000000 0.550000
vt 0.000000 -0.000000
vt 0.375000 0.000000
vt 0.375000 0.375000
vt 0.000000 0.375000
vt 3.000000 0.000000
vt 3.000000 0.550000
vt 3.000000 0.750000
vt 3.000000 2.250000
vt 2.625000 2.250000
vt 2.625000 0.750000
vt 0.000000 2.250000
vt 0.000000 0.750000
vt 0.375000 0.750000
vt 0.375000 2.250000
vn 0.0000 1.0000 0.0000
vn 0.0000 -0.0000 1.0000
vn 0.0000 0.0000 -1.0000
vn 0.0000 -1.0000 -0.0000
vn 1.0000 0.0000 0.0000
vn -1.0000 -0.0000 0.0000
usemtl Asphalt.142
s 1
f 4/1/1 3/2/1 30/3/1 27/4/1
f 30/5/2 29/6/2 28/7/2 27/8/2
f 4/9/3 1/10/3 2/11/3 3/12/3
usemtl Stone.173
f 5/13/3 1/10/3 12/14/3
f 23/15/2 29/6/2 18/16/2
f 51/17/1 47/18/1 26/19/1
f 62/20/1 65/21/1 31/22/1
f 30/5/2 31/23/2 32/24/2 33/25/2
f 25/26/2 26/27/2 27/8/2 24/28/2
f 6/29/3 3/12/3 2/11/3 5/13/3
f 5/13/3 2/11/3 1/10/3
f 12/30/4 23/31/4 18/32/4 5/33/4
f 69/34/3 68/35/3 63/36/3 62/37/3
f 29/6/2 30/5/2 33/25/2 18/16/2
f 53/38/5 52/39/5 36/40/5 57/41/5
f 4/9/3 9/42/3 10/43/3 11/44/3
f 1/10/3 4/9/3 11/44/3 12/14/3
f 23/15/2 28/7/2 29/6/2
f 11/45/5 10/46/5 46/47/5 44/48/5
f 50/49/1 46/50/1 48/51/1 49/52/1
f 51/17/1 52/53/1 53/54/1 47/18/1
f 46/50/1 10/55/1 9/56/1
f 55/57/5 54/58/5 48/59/5 47/60/5
f 48/51/1 46/50/1 9/56/1
f 47/18/1 48/51/1 9/56/1
f 9/56/1 26/19/1 47/18/1
f 26/19/1 25/61/1 51/17/1
f 54/62/2 56/63/2 49/64/2 48/65/2
f 60/66/1 61/67/1 58/68/1 59/69/1
f 20/70/6 70/71/6 68/72/6 21/73/6
f 60/74/6 59/75/6 15/76/6 66/77/6
f 67/78/6 69/79/6 62/80/6 61/81/6
f 53/82/3 57/83/3 55/84/3 47/85/3
f 15/76/6 17/86/6 22/87/6 66/77/6
f 63/88/6 68/72/6 70/71/6 64/89/6
f 24/90/5 37/91/5 51/92/5 25/93/5
f 7/94/3 8/95/3 3/12/3 6/29/3
f 51/96/2 37/97/2 36/98/2 52/99/2
f 9/100/6 4/101/6 27/102/6 26/103/6
f 8/104/1 7/105/1 58/68/1
f 31/106/5 30/107/5 3/108/5 8/109/5
f 31/22/1 8/104/1 61/67/1
f 8/104/1 58/68/1 61/67/1
f 65/21/1 32/110/1 31/22/1
f 61/67/1 62/20/1 31/22/1
f 62/20/1 63/111/1 64/112/1 65/21/1
f 6/113/6 16/114/6 58/115/6 7/116/6
f 24/28/2 27/8/2 28/7/2 23/15/2
f 40/117/5 45/118/5 56/119/5 41/120/5
f 58/121/3 16/122/3 15/123/3 59/124/3
f 60/125/2 66/126/2 67/127/2 61/128/2
f 36/40/5 38/129/5 42/130/5 57/41/5
f 49/131/5 56/119/5 45/118/5 50/132/5
f 33/133/6 32/134/6 65/135/6 72/136/6
f 64/137/2 70/138/2 72/139/2 65/140/2
f 50/141/3 45/142/3 44/143/3 46/144/3
usemtl Grass.109
f 22/145/4 17/146/4 5/33/4
f 42/147/4 38/148/4 23/31/4
f 6/149/1 13/150/1 15/151/1 16/152/1
f 13/153/6 14/154/6 17/86/6 15/76/6
f 17/146/4 14/155/4 5/33/4
f 5/33/4 18/32/4 21/156/4
f 18/32/4 19/157/4 20/158/4
f 20/158/4 21/156/4 18/32/4
f 21/156/4 22/145/4 5/33/4
f 24/159/1 34/160/1 36/161/1 37/162/1
f 34/163/5 35/164/5 38/129/5 36/40/5
f 43/165/3 39/166/3 12/14/3 11/44/3
f 38/148/4 35/167/4 23/31/4
f 23/31/4 12/30/4 41/168/4
f 12/30/4 39/169/4 40/170/4
f 40/170/4 41/168/4 12/30/4
f 41/168/4 42/147/4 23/31/4
f 43/171/1 11/172/1 44/173/1 45/174/1
f 35/175/2 34/176/2 24/28/2 23/15/2
f 14/177/3 13/178/3 6/29/3 5/13/3
f 19/157/6 71/179/6 70/71/6 20/70/6
f 71/180/1 33/181/1 72/182/1 70/183/1
f 71/179/2 19/157/2 18/16/2 33/25/2
f 39/184/5 43/185/5 45/118/5 40/117/5
usemtl Water.033
f 66/77/6 22/87/6 21/73/6 68/72/6
f 57/41/5 42/130/5 41/120/5 56/119/5
f 57/186/1 56/187/1 54/188/1 55/189/1
f 66/190/1 68/191/1 69/192/1 67/193/1
