# Blender v3.4.1 OBJ File: ''
# www.blender.org
mtllib roadTile_152.mtl
o roadTile_152
v 0.000000 1.650000 -3.000000
v 0.000000 0.000000 -3.000000
v 0.000000 0.000000 -0.000000
v 0.000000 1.650000 0.000000
v 3.000000 0.000000 -3.000000
v 3.000000 0.550000 -3.000000
v 3.000000 0.000000 -0.000000
v 3.000000 0.550000 0.000000
vt 3.000000 0.550000
vt 0.000000 1.650000
vt 0.000000 -0.000000
vt 3.000000 -0.000000
vt 3.000000 0.550000
vt 0.000000 0.550000
vt 0.000000 0.000000
vt 3.000000 0.000000
vt -3.000000 1.650000
vt -3.000000 0.000000
vt -3.000000 0.550000
vt -3.000000 -0.000000
vt -0.000000 -0.000000
vt -0.000000 1.650000
vt -3.000000 0.000000
vt 0.000000 3.000000
vt -3.000000 3.000000
vt 0.000000 -2.627290
vt 3.000000 -2.627290
vt 3.000000 0.568020
vt -0.000000 0.568020
vn 0.0000 -0.0000 1.0000
vn 1.0000 0.0000 0.0000
vn -1.0000 -0.0000 0.0000
vn 0.0000 0.0000 -1.0000
vn 0.0000 -1.0000 -0.0000
vn 0.3443 0.9389 0.0000
usemtl Grass.058
s 1
f 8/1/1 4/2/1 3/3/1 7/4/1
f 6/5/2 8/6/2 7/7/2 5/8/2
f 4/2/3 1/9/3 2/10/3 3/3/3
f 6/11/4 5/12/4 2/13/4 1/14/4
f 7/15/5 3/3/5 2/16/5 5/17/5
f 8/18/6 6/19/6 1/20/6 4/21/6
