# Blender v3.4.1 OBJ File: ''
# www.blender.org
mtllib roadTile_214.mtl
o roadTile_214
v 3.000000 1.730000 0.000000
v 3.000000 0.000000 -0.000000
v 3.000000 0.000000 -2.250000
v 3.000000 1.730000 -2.250000
v 3.000000 1.730000 -1.875000
v 3.000000 1.700000 -1.875000
v 3.000000 1.400000 -1.875000
v 3.000000 1.400000 -0.375000
v 3.000000 1.700000 -0.375000
v 3.000000 1.730000 -0.375000
v 0.000000 1.730000 0.000000
v 0.000000 1.100000 0.000000
v 1.270000 1.100000 0.000000
v 2.370000 0.000000 -0.000000
v 0.000000 1.730000 -2.250000
v 0.000000 1.100000 -2.250000
v 0.000000 1.730000 -0.375000
v 0.000000 1.700000 -0.375000
v 0.000000 1.400000 -0.375000
v 0.000000 1.400000 -1.875000
v 0.000000 1.700000 -1.875000
v 0.000000 1.730000 -1.875000
v 2.370000 0.000000 -2.250000
v 1.270000 1.100000 -2.250000
vt 2.370000 -0.000000
vt 3.000000 0.000000
vt 3.000000 1.730000
vt -2.250000 1.100000
vt 0.000000 1.100000
vt -0.375000 1.400000
vt -1.270000 1.100000
vt -0.000000 1.730000
vt -3.000000 1.730000
vt 0.375000 1.730000
vt 0.000000 1.730000
vt 0.375000 1.700000
vt 0.000000 0.000000
vt 0.375000 1.400000
vt 2.250000 0.000000
vt 2.250000 1.730000
vt 1.875000 1.400000
vt 1.875000 1.730000
vt 1.875000 1.700000
vt -1.875000 1.700000
vt -2.250000 1.730000
vt -1.875000 1.400000
vt 0.000000 1.730000
vt 1.270000 1.100000
vt -1.875000 1.730000
vt -0.375000 1.700000
vt -0.375000 1.730000
vt -3.000000 0.000000
vt -2.370000 0.000000
vt -0.000000 1.100000
vt -3.000000 2.250000
vt -3.000000 0.000000
vt -2.370000 0.000000
vt -2.370000 2.250000
vt 0.000000 0.000000
vt -0.000000 2.250000
vt -1.270000 2.250000
vt -1.270000 0.000000
vt 3.000000 0.375000
vt 0.000000 0.375000
vt 0.000000 0.000000
vt 3.000000 0.000000
vt -0.000000 -0.120208
vt -2.250000 -0.120208
vt -2.250000 -1.675840
vt -0.000000 -1.675840
vt -3.000000 1.730000
vt -3.000000 1.700000
vt -0.000000 1.700000
vt -0.000000 1.730000
vt 0.000000 1.730000
vt 0.000000 1.700000
vt 3.000000 1.700000
vt 3.000000 1.730000
vt 0.000000 1.875000
vt 3.000000 1.875000
vt 3.000000 2.250000
vt 0.000000 2.250000
vt 3.000000 0.375000
vt 3.000000 1.875000
vt 0.000000 1.875000
vt 0.000000 0.375000
vn 0.0000 -0.0000 1.0000
vn -1.0000 0.0000 -0.0000
vn 0.0000 0.0000 -1.0000
vn 1.0000 0.0000 0.0000
vn 0.0000 -1.0000 -0.0000
vn 0.0000 1.0000 0.0000
vn -0.7071 -0.7071 -0.0000
usemtl Stone.170
s 1
f 14/1/1 2/2/1 1/3/1
f 16/4/2 12/5/2 19/6/2
f 24/7/3 15/8/3 4/9/3
f 10/10/4 1/11/4 9/12/4
f 1/11/4 2/13/4 8/14/4
f 9/12/4 1/11/4 8/14/4
f 3/15/4 4/16/4 7/17/4
f 4/16/4 5/18/4 6/19/4
f 6/19/4 7/17/4 4/16/4
f 21/20/2 15/21/2 16/4/2 20/22/2
f 1/3/1 11/23/1 13/24/1
f 11/23/1 12/5/1 13/24/1
f 13/24/1 14/1/1 1/3/1
f 22/25/2 15/21/2 21/20/2
f 18/26/2 19/6/2 12/5/2 11/23/2
f 11/23/2 17/27/2 18/26/2
f 19/6/2 20/22/2 16/4/2
f 3/28/3 23/29/3 4/9/3
f 23/29/3 24/7/3 4/9/3
f 24/7/3 16/30/3 15/8/3
f 3/31/5 2/32/5 14/33/5 23/34/5
f 12/35/5 16/36/5 24/37/5 13/38/5
f 10/39/6 17/40/6 11/41/6 1/42/6
f 8/14/4 2/13/4 3/15/4 7/17/4
f 13/43/7 24/44/7 23/45/7 14/46/7
f 10/47/3 9/48/3 18/49/3 17/50/3
f 22/51/1 21/52/1 6/53/1 5/54/1
f 22/55/6 5/56/6 4/57/6 15/58/6
usemtl Asphalt.141
f 6/19/4 9/12/4 8/14/4 7/17/4
f 9/59/6 6/60/6 21/61/6 18/62/6
f 18/26/2 21/20/2 20/22/2 19/6/2
