# Blender v3.4.1 OBJ File: ''
# www.blender.org
mtllib roadTile_189.mtl
o roadTile_189
v 3.000000 0.550000 0.000000
v 3.000000 0.550000 -0.750000
v 0.000000 1.650000 -0.750000
v 0.000000 1.650000 0.000000
v 3.000000 0.000000 -0.000000
v 3.000000 0.000000 -0.750000
v 3.000000 0.455000 -0.750000
v 0.000000 0.000000 -2.250000
v 0.000000 0.000000 -3.000000
v 3.000000 0.000000 -3.000000
v 3.000000 0.000000 -2.250000
v 0.000000 0.000000 -0.000000
v 0.000000 0.000000 -0.750000
v 0.000000 1.555000 -2.250000
v 0.000000 1.650000 -2.250000
v 0.000000 1.650000 -3.000000
v 0.000000 1.555000 -0.750000
v 3.000000 0.455000 -2.250000
v 3.000000 0.550000 -2.250000
v 3.000000 0.550000 -3.000000
vt 0.750000 0.455000
vt 0.750000 0.550000
vt 0.000000 0.550000
vt -2.250000 1.555000
vt -2.250000 1.650000
vt -3.000000 1.650000
vt 3.000000 -2.627290
vt 3.000000 0.568020
vt 2.250000 0.568020
vt 2.250000 -2.627290
vt 3.000000 0.550000
vt 0.000000 1.650000
vt 0.000000 -0.000000
vt 3.000000 -0.000000
vt -0.000000 0.750000
vt -3.000000 0.750000
vt -3.000000 0.000000
vt 0.000000 0.000000
vt 0.750000 0.000000
vt -0.000000 2.250000
vt -3.000000 2.250000
vt -0.750000 1.650000
vt -0.750000 1.555000
vt 3.000000 0.000000
vt 3.000000 0.550000
vt 2.250000 0.455000
vt 2.250000 0.000000
vt -0.750000 0.000000
vt 0.000000 3.000000
vt -3.000000 3.000000
vt 2.250000 0.550000
vt -3.000000 0.000000
vt -2.250000 0.000000
vt -3.000000 0.550000
vt -3.000000 0.455000
vt -0.000000 1.555000
vt -0.000000 1.650000
vt 0.000000 1.555000
vt 3.000000 0.455000
vt 3.000000 0.550000
vt 0.000000 1.650000
vt -3.000000 0.550000
vt -3.000000 -0.000000
vt -0.000000 -0.000000
vt -0.000000 1.650000
vt 0.000000 0.568020
vt 0.000000 -2.627290
vt 0.750000 -2.627290
vt 0.750000 0.568020
vt 2.250000 -2.659990
vt 2.250000 0.535316
vt 0.750000 0.535316
vt 0.750000 -2.659990
vn 1.0000 -0.0000 0.0000
vn -1.0000 0.0000 0.0000
vn 0.3443 0.9389 0.0000
vn 0.0000 -0.0000 1.0000
vn 0.0000 -1.0000 -0.0000
vn 0.0000 0.0000 -1.0000
usemtl Grass.095
s 1
f 7/1/1 2/2/1 1/3/1
f 14/4/2 15/5/2 16/6/2
f 20/7/3 16/8/3 15/9/3 19/10/3
f 1/11/4 4/12/4 12/13/4 5/14/4
f 12/13/5 13/15/5 6/16/5 5/17/5
f 5/18/1 6/19/1 7/1/1 1/3/1
f 8/20/5 11/21/5 6/16/5 13/15/5
f 4/12/2 3/22/2 17/23/2
f 10/24/1 20/25/1 18/26/1 11/27/1
f 12/13/2 4/12/2 17/23/2 13/28/2
f 9/29/5 10/30/5 11/21/5 8/20/5
f 20/25/1 19/31/1 18/26/1
f 9/32/2 8/33/2 14/4/2 16/6/2
f 2/34/6 7/35/6 17/36/6 3/37/6
f 14/38/4 18/39/4 19/40/4 15/41/4
f 20/42/6 10/43/6 9/44/6 16/45/6
f 4/46/3 1/47/3 2/48/3 3/49/3
usemtl Water.023
f 7/1/1 6/19/1 11/27/1 18/26/1
f 18/50/3 14/51/3 17/52/3 7/53/3
f 14/4/2 8/33/2 13/28/2 17/23/2
