# Blender v3.4.1 OBJ File: ''
# www.blender.org
mtllib roadTile_170.mtl
o roadTile_170
v 3.000000 1.650000 -3.000000
v 3.000000 1.650000 -2.625000
v 3.000000 0.000000 -2.625000
v 3.000000 0.000000 -3.000000
v 0.000000 1.650000 -3.000000
v 0.000000 1.650000 -2.625000
v 0.000000 1.100001 -3.000000
v 0.000000 1.100001 -2.625000
v 0.000000 1.100000 -2.250000
v 3.000000 0.000000 -2.250000
v 0.000000 1.730000 -2.625000
v 0.000000 1.100000 -0.750000
v 0.000000 1.100000 -0.375000
v 0.000000 1.650000 -0.375000
v 0.000000 1.730000 -0.375000
v 0.000000 1.730000 -0.750000
v 0.000000 1.700000 -0.750000
v 0.000000 1.400000 -0.750000
v 0.000000 1.400000 -2.250000
v 0.000000 1.700000 -2.250000
v 0.000000 1.730000 -2.250000
v 3.000000 1.730000 -2.625000
v 3.000000 1.730000 -2.250000
v 3.000000 1.700000 -2.250000
v 3.000000 1.400000 -2.250000
v 3.000000 1.400000 -0.750000
v 3.000000 1.700000 -0.750000
v 3.000000 1.730000 -0.750000
v 3.000000 1.730000 -0.375000
v 3.000000 1.650000 -0.375000
v 3.000000 0.000000 -0.375000
v 3.000000 0.000000 -0.750000
v 3.000000 1.100000 -0.750000
v 3.000000 1.100000 -2.250000
v 3.000000 1.650000 0.000000
v 0.000000 1.650000 0.000000
v 3.000000 0.000000 -0.000000
v 0.000000 1.100000 0.000000
vt 3.000000 3.000000
vt 0.000000 3.000000
vt 0.000000 2.625000
vt 3.000000 2.625000
vt -3.000000 1.650000
vt -3.000000 1.100000
vt -2.625000 1.100000
vt -2.625000 1.650000
vt -3.000000 0.378680
vt -3.000000 -2.816630
vt -2.625000 -2.816630
vt -2.625000 0.378680
vt 0.000000 0.000000
vt 3.000000 0.000000
vt 3.000000 0.375000
vt 0.000000 0.375000
vt 3.000000 -0.000000
vt 3.000000 1.650000
vt 2.625000 1.650000
vt 2.625000 -0.000000
vt -0.000000 -2.816630
vt 0.000000 0.378680
vt -0.375000 0.378680
vt -0.375000 -2.816630
vt 3.000000 1.650000
vt 0.000000 1.650000
vt 0.000000 1.100000
vt 3.000000 -0.000000
vt 0.000000 1.650000
vt 0.000000 -0.000000
vt 0.375000 -0.000000
vt 0.375000 1.650000
vt -0.375000 1.650000
vt -0.375000 1.100000
vt -3.000000 1.650000
vt -3.000000 -0.000000
vt -0.000000 1.100000
vt -0.000000 1.650000
vt -3.000000 0.000000
vt -0.000000 1.100000
vt -3.000000 1.100000
vt 0.000000 1.100000
vt 3.000000 0.000000
vt 3.000000 1.100000
vt -2.250000 -2.816630
vt -2.250000 0.378680
vt 3.000000 1.650000
vt 3.000000 1.730000
vt 0.000000 1.730000
vt 0.000000 1.650000
vt 2.625000 1.730000
vt 2.250000 1.730000
vt 2.250000 1.700000
vt -0.750000 1.400000
vt -0.750000 1.100000
vt -2.250000 1.400000
vt -2.250000 1.700000
vt 0.375000 1.730000
vt 0.750000 1.700000
vt 0.750000 1.730000
vt -0.750000 1.700000
vt 2.250000 1.100000
vt 2.250000 0.000000
vt -0.375000 1.730000
vt -0.750000 1.730000
vt 0.750000 0.000000
vt 0.750000 1.100000
vt 2.250000 1.400000
vt 0.750000 1.400000
vt -2.625000 1.730000
vt -2.250000 1.730000
vt -2.250000 1.100000
vt 0.000000 1.730000
vt 0.000000 1.700000
vt 3.000000 1.700000
vt 3.000000 1.730000
vt -3.000000 2.250000
vt -3.000000 0.750000
vt -0.000000 0.750000
vt -0.000000 2.250000
vt 0.000000 2.250000
vt 3.000000 2.250000
vt 3.000000 2.625000
vt 0.000000 2.625000
vt -3.000000 1.730000
vt -3.000000 1.700000
vt -0.000000 1.700000
vt -0.000000 1.730000
vt -0.750000 0.378680
vt -0.750000 -2.816630
vt 3.000000 0.750000
vt 0.000000 0.750000
vt 0.000000 0.375000
vt 3.000000 0.375000
vt -0.000000 1.650000
vt -0.000000 1.730000
vt -3.000000 1.730000
vt -3.000000 1.650000
vt 118.110001 64.960602
vt 0.000000 64.960602
vt 0.000000 43.307098
vt 118.110001 0.000000
vt -118.110001 64.960602
vt -118.110001 -0.000000
vt -0.000000 43.307098
vt -0.000000 64.960602
vt 3.000000 0.750000
vt 3.000000 2.250000
vt 0.000000 2.250000
vt 0.000000 0.750000
vn 0.0000 1.0000 0.0000
vn -1.0000 0.0000 -0.0000
vn -0.3443 -0.9389 0.0000
vn 1.0000 0.0000 0.0000
vn 0.0000 -0.0000 1.0000
vn 0.0000 0.0000 -1.0000
vn 0.0000 -1.0000 -0.0000
usemtl Grass.076
s 1
f 1/1/1 5/2/1 6/3/1 2/4/1
f 5/5/2 7/6/2 8/7/2 6/8/2
f 7/9/3 4/10/3 3/11/3 8/12/3
f 36/13/1 35/14/1 30/15/1 14/16/1
f 4/17/4 1/18/4 2/19/4 3/20/4
f 37/21/3 38/22/3 13/23/3 31/24/3
f 35/25/5 36/26/5 38/27/5 37/28/5
f 35/29/4 37/30/4 31/31/4 30/32/4
f 38/27/2 36/26/2 14/33/2 13/34/2
f 1/35/6 4/36/6 7/37/6 5/38/6
usemtl Stone.138
f 32/39/6 12/40/6 33/41/6
f 9/42/5 10/43/5 34/44/5
f 10/45/3 9/46/3 8/12/3 3/11/3
f 30/47/5 29/48/5 15/49/5 14/50/5
f 22/51/4 23/52/4 24/53/4 2/19/4
f 13/34/2 14/33/2 18/54/2 12/55/2
f 19/56/2 20/57/2 6/8/2
f 29/58/4 30/32/4 27/59/4 28/60/4
f 18/54/2 14/33/2 17/61/2
f 34/62/4 10/63/4 3/20/4
f 15/64/2 16/65/2 17/61/2 14/33/2
f 34/62/4 3/20/4 2/19/4
f 31/31/4 32/66/4 33/67/4
f 2/19/4 24/53/4 25/68/4
f 30/32/4 31/31/4 33/67/4
f 26/69/4 27/59/4 30/32/4
f 34/62/4 2/19/4 25/68/4
f 11/70/2 6/8/2 20/57/2 21/71/2
f 26/69/4 30/32/4 33/67/4
f 8/7/2 9/72/2 19/56/2 6/8/2
f 21/73/5 20/74/5 24/75/5 23/76/5
f 9/72/2 12/55/2 18/54/2 19/56/2
f 34/77/7 33/78/7 12/79/7 9/80/7
f 21/81/1 23/82/1 22/83/1 11/84/1
f 26/69/4 33/67/4 34/62/4 25/68/4
f 28/85/6 27/86/6 17/87/6 16/88/6
f 12/89/3 32/90/3 31/24/3 13/23/3
f 28/91/1 16/92/1 15/93/1 29/94/1
f 6/95/6 11/96/6 22/97/6 2/98/6
usemtl FrontColor.010
f 30/99/5 14/100/5 13/101/5 31/102/5
f 2/103/6 3/104/6 8/105/6 6/106/6
usemtl Asphalt.111
f 24/53/4 27/59/4 26/69/4 25/68/4
f 27/107/1 24/108/1 20/109/1 17/110/1
f 17/61/2 20/57/2 19/56/2 18/54/2
