# Blender v3.4.1 OBJ File: ''
# www.blender.org
mtllib roadTile_123.mtl
o roadTile_123
v 3.000000 0.600000 0.000000
v 3.000000 0.300000 0.000000
v 3.000000 0.300000 -3.000000
v 3.000000 0.600001 -3.000000
v 0.000000 0.600000 0.000000
v 0.000000 0.300000 0.000000
v 0.000000 0.600000 -2.250000
v 0.000000 0.300000 -2.250000
v 0.000000 1.730000 -2.625000
v 0.000000 0.000000 -2.625000
v 0.000000 0.000000 0.000000
v 0.000000 1.730000 -2.250000
v 0.048947 1.730000 -2.628210
v 0.048947 0.000000 -2.628210
v 0.750000 1.730000 -3.000000
v 0.375000 1.730000 -3.000000
v 0.371792 1.730000 -2.951050
v 0.362222 1.730000 -2.902940
v 0.346455 1.730000 -2.856490
v 0.324760 1.730000 -2.812500
v 0.297508 1.730000 -2.771710
v 0.265165 1.730000 -2.734830
v 0.228286 1.730000 -2.702490
v 0.187500 1.730000 -2.675240
v 0.143506 1.730000 -2.653550
v 0.097057 1.730000 -2.637780
v 0.097895 1.730000 -2.256420
v 0.194114 1.730000 -2.275560
v 0.287013 1.730000 -2.307090
v 0.375000 1.730000 -2.350480
v 0.456571 1.730000 -2.404980
v 0.530330 1.730000 -2.469670
v 0.595015 1.730000 -2.543430
v 0.649519 1.730000 -2.625000
v 0.692910 1.730000 -2.712990
v 0.724444 1.730000 -2.805890
v 0.743584 1.730000 -2.902110
v 3.000000 0.000000 -3.000000
v 0.375000 0.000000 -3.000000
v 0.750000 0.600001 -3.000000
v 0.750000 0.300000 -3.000000
v 3.000000 0.000000 -0.000000
v 0.097057 0.000000 -2.637780
v 0.143506 0.000000 -2.653550
v 0.187500 0.000000 -2.675240
v 0.228286 0.000000 -2.702490
v 0.265165 0.000000 -2.734830
v 0.297508 0.000000 -2.771710
v 0.324760 0.000000 -2.812500
v 0.346455 0.000000 -2.856490
v 0.362222 0.000000 -2.902940
v 0.371792 0.000000 -2.951050
v 0.743584 0.600001 -2.902110
v 0.724444 0.600001 -2.805890
v 0.692910 0.600000 -2.712990
v 0.649519 0.600000 -2.625000
v 0.595015 0.600000 -2.543430
v 0.530330 0.600000 -2.469670
v 0.456571 0.600000 -2.404980
v 0.375000 0.600000 -2.350480
v 0.287013 0.600000 -2.307090
v 0.194114 0.600000 -2.275560
v 0.097895 0.600000 -2.256420
vt 0.530330 2.469670
vt 0.456571 2.404980
vt 3.000000 0.000000
vt 3.000000 0.600000
vt 0.000000 0.600000
vt 0.000000 0.300000
vt 3.000000 0.300000
vt -2.250000 0.600000
vt -2.250000 0.300000
vt 3.000000 0.600000
vt 0.000000 0.600000
vt 0.000000 0.300000
vt 3.000000 0.300000
vt 3.000000 3.000000
vt 0.595015 2.543430
vt 0.750000 3.000000
vt 0.743584 2.902110
vt 0.724444 2.805890
vt -0.000000 2.250000
vt 0.000000 -0.000000
vt 0.097895 2.256420
vt 0.194114 2.275560
vt 0.287013 2.307090
vt 0.692910 2.712990
vt 0.649519 2.625000
vt 0.375000 2.350480
vt -0.750000 0.600000
vt -3.000000 0.600000
vt -3.000000 0.300000
vt -0.750000 0.300000
vt -2.625000 -0.000000
vt -0.375000 -0.000000
vt -3.000000 0.000000
vt -0.265165 2.734830
vt -0.297508 2.771710
vt -0.171683 0.000000
vt -0.171683 1.730000
vt -0.220736 1.730000
vt -0.220736 0.000000
vt -2.250000 1.730000
vt -2.625000 1.730000
vt 0.000000 -0.000000
vt 2.206470 1.730000
vt 2.206470 0.600000
vt 2.304570 0.600000
vt 2.304570 1.730000
vt 0.324760 2.812500
vt 0.297508 2.771710
vt 0.595015 2.543430
vt 0.649519 2.625000
vt 0.375000 2.350480
vt 0.187500 2.675240
vt 0.143506 2.653550
vt 0.287013 2.307090
vt 0.530330 2.469670
vt 0.265165 2.734830
vt 0.456571 2.404980
vt 0.228286 2.702490
vt 0.362222 2.902940
vt 0.346455 2.856490
vt 0.692910 2.712990
vt 0.724444 2.805890
vt 0.097057 2.637780
vt 0.194114 2.275560
vt 0.048947 2.628210
vt 0.000000 2.625000
vt -0.000000 2.250000
vt 0.097895 2.256420
vt 0.371792 2.951050
vt 0.743584 2.902110
vt -3.000000 -0.000000
vt -0.375000 1.730000
vt -0.750000 1.730000
vt -3.000000 3.000000
vt -0.228286 2.702490
vt -0.143506 2.653550
vt -0.097057 2.637780
vt -0.000000 2.625000
vt -0.048947 2.628210
vt -0.371792 2.951050
vt -0.375000 3.000000
vt -0.362222 2.902940
vt -0.187500 2.675240
vt -0.346455 2.856490
vt -0.324760 2.812500
vt 2.445360 1.730000
vt 2.445360 0.600000
vt 2.543460 0.600000
vt 2.543460 1.730000
vt 0.000000 0.000000
vt 3.000000 0.000000
vt -0.560745 0.000000
vt -0.560745 1.730000
vt -0.609797 1.730000
vt -0.609797 0.000000
vt -0.939792 0.000000
vt -0.939792 1.730000
vt -0.988845 1.730000
vt -0.988845 0.000000
vt -1.302340 0.000000
vt -1.302340 1.730000
vt -1.351390 1.730000
vt -1.351390 0.000000
vt -1.642180 0.000000
vt -1.642180 1.730000
vt -1.691240 1.730000
vt -1.691240 0.000000
vt -1.953510 0.000000
vt -1.953510 1.730000
vt -2.002560 1.730000
vt -2.002560 0.000000
vt -2.230990 0.000000
vt -2.230990 1.730000
vt -2.280050 1.730000
vt -2.280050 -0.000000
vt -2.469880 -0.000000
vt -2.469880 1.730000
vt -2.518940 1.730000
vt -2.518940 -0.000000
vt -2.666090 -0.000000
vt -2.666090 1.730000
vt -2.715140 1.730000
vt -2.715140 -0.000000
vt -2.816260 -0.000000
vt -2.816260 1.730000
vt -2.865320 1.730000
vt -2.865320 -0.000000
vt -2.917830 0.000000
vt -2.917830 1.730000
vt -2.966880 1.730000
vt -2.966880 0.000000
vt -2.969050 0.000000
vt -2.969050 1.730000
vt -3.018100 1.730000
vt -3.018100 0.000000
vt 2.944520 1.730000
vt 2.944520 0.600000
vt 3.042630 0.600000
vt 3.042630 1.730000
vt 2.893300 1.730000
vt 2.893300 0.600000
vt 2.991410 0.600000
vt 2.991410 1.730000
vt 2.791740 1.730000
vt 2.791740 0.600000
vt 2.889840 0.600000
vt 2.889840 1.730000
vt 2.641570 1.730000
vt 2.641570 0.600000
vt 2.739670 0.600000
vt 2.739670 1.730000
vt 0.375000 3.000000
vt 0.750000 3.000000
vt 3.000000 0.000000
vt 1.928990 1.730000
vt 1.928990 0.600000
vt 2.027090 0.600000
vt 2.027090 1.730000
vt 1.617660 1.730000
vt 1.617660 0.600000
vt 1.715760 0.600000
vt 1.715760 1.730000
vt 1.277810 1.730000
vt 1.277810 0.600000
vt 1.375920 0.600000
vt 1.375920 1.730000
vt 0.915266 1.730000
vt 0.915266 0.600000
vt 1.013370 0.600000
vt 1.013370 1.730000
vt 0.536219 1.730000
vt 0.536219 0.600000
vt 0.634323 0.600000
vt 0.634323 1.730000
vt 0.147157 1.730000
vt 0.147157 0.600000
vt 0.245262 0.600000
vt 0.245262 1.730000
vn 0.0000 1.0000 0.0000
vn 0.0000 -0.0000 1.0000
vn -1.0000 -0.0000 0.0000
vn 1.0000 0.0000 0.0000
vn 0.0000 0.0000 -1.0000
vn -0.0000 -1.0000 -0.0000
vn -0.0654 0.0000 -0.9979
vn -0.1305 0.0000 -0.9914
vn 0.7071 -0.0000 0.7071
vn 0.7934 -0.0000 0.6088
vn 0.8660 -0.0000 0.5000
vn -0.2588 0.0000 -0.9659
vn -0.3827 0.0000 -0.9239
vn -0.4999 0.0000 -0.8661
vn -0.6087 0.0000 -0.7934
vn -0.7071 0.0000 -0.7071
vn -0.7934 0.0000 -0.6087
vn -0.8660 0.0000 -0.5000
vn -0.9239 0.0000 -0.3827
vn -0.9659 0.0000 -0.2588
vn -0.9914 0.0000 -0.1305
vn -0.9979 0.0000 -0.0654
vn 0.9914 -0.0000 0.1305
vn 0.9979 0.0000 0.0654
vn 0.9659 -0.0000 0.2588
vn 0.9239 -0.0000 0.3827
vn 0.6088 -0.0000 0.7934
vn 0.5000 -0.0000 0.8660
vn 0.3827 -0.0000 0.9239
vn 0.2588 -0.0000 0.9659
vn 0.1305 -0.0000 0.9914
vn 0.0654 -0.0000 0.9979
usemtl Asphalt.077
s 1
f 58/1/1 59/2/1 1/3/1
f 1/4/2 5/5/2 6/6/2 2/7/2
f 5/5/3 7/8/3 8/9/3 6/6/3
f 4/10/4 1/11/4 2/12/4 3/13/4
f 1/3/1 4/14/1 57/15/1
f 4/14/1 40/16/1 53/17/1
f 4/14/1 53/17/1 54/18/1
f 7/19/1 5/20/1 63/21/1
f 5/20/1 1/3/1 59/2/1
f 63/21/1 5/20/1 62/22/1
f 62/22/1 5/20/1 61/23/1
f 4/14/1 54/18/1 55/24/1
f 4/14/1 55/24/1 56/25/1
f 61/23/1 5/20/1 60/26/1
f 60/26/1 5/20/1 59/2/1
f 4/14/1 56/25/1 57/15/1
f 1/3/1 57/15/1 58/1/1
f 40/27/5 4/28/5 3/29/5 41/30/5
usemtl Stone.103
f 8/9/3 7/8/3 10/31/3
f 40/27/5 41/30/5 39/32/5
f 42/33/6 47/34/6 48/35/6
f 10/36/7 9/37/7 13/38/8 14/39/8
f 12/40/3 9/41/3 7/8/3
f 9/41/3 10/31/3 7/8/3
f 10/31/3 11/42/3 8/9/3
f 11/42/3 6/6/3 8/9/3
f 32/43/9 58/44/9 57/45/10 33/46/10
f 20/47/1 21/48/1 33/49/1 34/50/1
f 30/51/1 24/52/1 25/53/1 29/54/1
f 32/55/1 33/49/1 21/48/1 22/56/1
f 30/51/1 31/57/1 23/58/1 24/52/1
f 18/59/1 19/60/1 35/61/1 36/62/1
f 35/61/1 19/60/1 20/47/1 34/50/1
f 25/53/1 26/63/1 28/64/1 29/54/1
f 32/55/1 22/56/1 23/58/1 31/57/1
f 13/65/1 9/66/1 12/67/1 27/68/1
f 26/63/1 13/65/1 27/68/1 28/64/1
f 17/69/1 18/59/1 36/62/1 37/70/1
f 3/29/5 38/71/5 41/30/5
f 38/71/5 39/32/5 41/30/5
f 39/32/5 16/72/5 40/27/5
f 16/72/5 15/73/5 40/27/5
f 38/74/6 42/33/6 48/35/6
f 42/33/6 11/42/6 46/75/6
f 44/76/6 11/42/6 43/77/6
f 11/42/6 10/78/6 14/79/6
f 11/42/6 14/79/6 43/77/6
f 52/80/6 39/81/6 38/74/6
f 51/82/6 52/80/6 38/74/6
f 11/42/6 44/76/6 45/83/6
f 11/42/6 45/83/6 46/75/6
f 50/84/6 51/82/6 38/74/6
f 49/85/6 50/84/6 38/74/6
f 42/33/6 46/75/6 47/34/6
f 48/35/6 49/85/6 38/74/6
f 33/86/10 57/87/10 56/88/11 34/89/11
f 42/90/4 38/91/4 3/13/4 2/12/4
f 14/92/8 13/93/8 26/94/12 43/95/12
f 43/96/12 26/97/12 25/98/13 44/99/13
f 44/100/13 25/101/13 24/102/14 45/103/14
f 45/104/14 24/105/14 23/106/15 46/107/15
f 46/108/15 23/109/15 22/110/16 47/111/16
f 47/112/16 22/113/16 21/114/17 48/115/17
f 48/116/17 21/117/17 20/118/18 49/119/18
f 49/120/18 20/121/18 19/122/19 50/123/19
f 50/124/19 19/125/19 18/126/20 51/127/20
f 51/128/20 18/129/20 17/130/21 52/131/21
f 52/132/21 17/133/21 16/134/22 39/135/22
f 37/136/23 53/137/23 40/138/24 15/139/24
f 36/140/25 54/141/25 53/142/23 37/143/23
f 35/144/26 55/145/26 54/146/25 36/147/25
f 34/148/11 56/149/11 55/150/26 35/151/26
f 16/152/1 17/69/1 37/70/1 15/153/1
f 11/42/2 42/154/2 2/7/2 6/6/2
f 31/155/27 59/156/27 58/157/9 32/158/9
f 30/159/28 60/160/28 59/161/27 31/162/27
f 29/163/29 61/164/29 60/165/28 30/166/28
f 28/167/30 62/168/30 61/169/29 29/170/29
f 27/171/31 63/172/31 62/173/30 28/174/30
f 12/175/32 7/176/32 63/177/31 27/178/31
