# Blender v3.4.1 OBJ File: ''
# www.blender.org
mtllib roadTile_245.mtl
o roadTile_245
v 0.000000 1.730000 0.000000
v 0.000000 1.730000 -0.750000
v 0.000000 1.400000 -0.750000
v 0.000000 1.400000 -2.250000
v 0.000000 1.730000 -2.250000
v 0.000000 1.730000 -3.000000
v 0.000000 0.000000 -3.000000
v 0.000000 0.000000 0.000000
v 3.000000 1.730000 0.000000
v 3.000000 1.730000 -0.750000
v 3.000000 0.000000 -0.000000
v 3.000000 0.000000 -3.000000
v 3.000000 1.730000 -3.000000
v 3.000000 1.730000 -2.250000
v 3.000000 0.600000 -2.250000
v 3.000000 0.300000 -2.250000
v 3.000000 0.300000 -0.750000
v 3.000000 0.600000 -0.750000
vt 0.000000 0.000000
vt 3.000000 0.000000
vt 2.250000 0.300000
vt 3.000000 1.730000
vt 0.000000 1.730000
vt 3.000000 0.600000
vt -3.000000 1.730000
vt -3.000000 0.600000
vt -0.000000 1.730000
vt 0.000000 0.000000
vt 0.000000 1.730000
vt -0.750000 1.400000
vt -0.750000 1.730000
vt -3.000000 1.730000
vt -3.000000 0.000000
vt -2.250000 1.400000
vt -2.250000 1.730000
vt 3.000000 -0.000000
vt 3.000000 1.730000
vt -3.000000 0.000000
vt -0.000000 3.000000
vt -3.000000 3.000000
vt -3.000000 1.730000
vt -3.000000 0.000000
vt -0.000000 0.000000
vt -0.000000 1.730000
vt 3.000000 0.750000
vt 0.000000 0.750000
vt 0.000000 0.000000
vt 3.000000 0.000000
vt 3.000000 1.730000
vt 2.250000 1.730000
vt 2.250000 0.600000
vt 0.750000 0.300000
vt 0.750000 0.600000
vt 0.000000 1.730000
vt 0.750000 1.730000
vt 0.000000 2.250000
vt 3.000000 2.250000
vt 3.000000 3.000000
vt 0.000000 3.000000
vt 2.250000 0.609809
vt 0.750000 0.609809
vt 0.750000 -2.595950
vt 2.250000 -2.595950
vn 1.0000 0.0000 0.0000
vn 0.0000 -0.0000 1.0000
vn 0.0000 0.0000 -1.0000
vn -1.0000 0.0000 -0.0000
vn 0.0000 -1.0000 -0.0000
vn 0.0000 1.0000 0.0000
vn 0.3525 0.9358 0.0000
usemtl Stone.201
s 1
f 11/1/1 12/2/1 16/3/1
f 14/4/2 5/5/2 15/6/2
f 10/7/3 18/8/3 2/9/3
f 8/10/4 1/11/4 3/12/4
f 1/11/4 2/13/4 3/12/4
f 6/14/4 7/15/4 4/16/4
f 4/16/4 5/17/4 6/14/4
f 1/11/2 8/10/2 11/18/2 9/19/2
f 11/20/5 8/10/5 7/21/5 12/22/5
f 13/23/3 12/24/3 7/25/3 6/26/3
f 10/27/6 2/28/6 1/29/6 9/30/6
f 13/31/1 14/32/1 15/33/1 12/2/1
f 8/10/4 3/12/4 4/16/4 7/15/4
f 15/33/1 16/3/1 12/2/1
f 17/34/1 18/35/1 11/1/1
f 16/3/1 17/34/1 11/1/1
f 9/36/1 11/1/1 18/35/1 10/37/1
f 5/38/6 14/39/6 13/40/6 6/41/6
usemtl Asphalt.165
f 3/12/4 2/13/4 5/17/4 4/16/4
f 5/42/7 2/43/7 18/44/7 15/45/7
f 15/33/1 18/35/1 17/34/1 16/3/1
