# Blender v3.4.1 OBJ File: ''
# www.blender.org
mtllib roadTile_146.mtl
o roadTile_146
v 0.000000 0.550000 0.000000
v 0.750000 0.550000 0.000000
v 0.750000 0.550000 -3.000000
v 0.000000 0.550000 -3.000000
v 0.000000 0.000000 -0.000000
v 0.750000 0.000000 -0.000000
v 0.750000 0.455000 0.000000
v 3.000000 0.000000 -3.000000
v 3.000000 0.000000 0.000000
v 1.875000 0.000000 -0.000000
v 0.000000 0.000000 -3.000000
v 0.750000 0.000000 -3.000000
v 1.875000 0.000000 -3.000000
v 3.000000 0.455000 -3.000000
v 3.000000 0.455000 0.000000
v 1.875000 0.455000 -3.000000
v 1.875000 0.455000 0.000000
v 0.750000 0.455000 -3.000000
vt 0.750000 0.455000
vt 0.750000 0.550000
vt 0.000000 0.550000
vt 3.000000 0.455000
vt 3.000000 0.550000
vt 0.000000 0.550000
vt 0.000000 0.455000
vt 0.000000 0.550000
vt -0.750000 0.455000
vt -0.750000 0.000000
vt 0.000000 0.000000
vt -0.750000 0.000000
vt -0.000000 0.000000
vt -0.000000 3.000000
vt -0.750000 3.000000
vt -3.000000 0.550000
vt -3.000000 0.000000
vt 0.000000 3.000000
vt 0.000000 0.000000
vt 0.750000 0.000000
vt 0.750000 3.000000
vt 0.750000 0.000000
vt -1.875000 3.000000
vt -1.875000 0.000000
vt -3.000000 0.000000
vt -3.000000 3.000000
vt -0.750000 0.550000
vt 3.000000 0.000000
vt 3.000000 0.455000
vt 0.000000 0.455000
vt 0.000000 0.000000
vt 3.000000 0.000000
vt 3.000000 0.455000
vt 1.875000 0.455000
vt 1.875000 0.000000
vt -3.000000 0.455000
vt -3.000000 0.000000
vt -1.875000 0.000000
vt -1.875000 0.455000
vt 3.000000 0.000000
vt 3.000000 3.000000
vt 1.875000 3.000000
vt 1.875000 0.000000
vt 0.750000 3.000000
vt 0.750000 0.000000
vn -0.0000 -0.0000 1.0000
vn 1.0000 0.0000 0.0000
vn 0.0000 0.0000 -1.0000
vn -0.0000 -1.0000 -0.0000
vn -1.0000 0.0000 -0.0000
vn 0.0000 1.0000 0.0000
usemtl Grass.052
s 1
f 7/1/1 2/2/1 1/3/1
f 18/4/2 3/5/2 2/6/2 7/7/2
f 4/8/3 18/9/3 12/10/3 11/11/3
f 6/12/4 5/13/4 11/14/4 12/15/4
f 4/16/5 11/17/5 5/13/5 1/3/5
f 4/18/6 1/19/6 2/20/6 3/21/6
f 5/13/1 6/22/1 7/1/1 1/3/1
f 12/15/4 13/23/4 10/24/4 6/12/4
f 9/25/4 10/24/4 13/23/4 8/26/4
f 3/27/3 18/9/3 4/8/3
usemtl Water.006
f 8/28/2 14/29/2 15/30/2 9/31/2
f 9/32/1 15/33/1 17/34/1 10/35/1
f 14/36/3 8/37/3 13/38/3 16/39/3
f 15/40/6 14/41/6 16/42/6 17/43/6
usemtl Sand.003
f 7/1/1 6/22/1 10/35/1 17/34/1
f 12/10/3 18/9/3 16/39/3 13/38/3
f 18/44/6 7/45/6 17/43/6 16/42/6
