# Blender v3.4.1 OBJ File: ''
# www.blender.org
mtllib roadTile_254.mtl
o roadTile_254
v 0.000000 1.700000 -1.875000
v 0.000000 1.400000 -1.875000
v 0.000000 1.400000 -0.375000
v 0.000000 1.700000 -0.375000
v 0.000000 1.730000 -2.250000
v 0.000000 1.100000 -2.250000
v 0.000000 1.100000 -1.875000
v 0.000000 1.100000 -0.375000
v 0.000000 1.100000 0.000000
v 0.000000 1.730000 0.000000
v 0.000000 1.730000 -0.375000
v 0.000000 1.730000 -1.875000
v 3.000000 1.730000 -2.250000
v 3.000000 0.000000 -2.250000
v 3.000000 1.730000 -1.875000
v 3.000000 0.000000 -1.875000
v 3.000000 1.700000 -1.875000
v 3.000000 1.400000 -1.875000
v 3.000000 1.400000 -0.375000
v 3.000000 1.700000 -0.375000
v 3.000000 1.730000 -0.375000
v 3.000000 1.730000 0.000000
v 3.000000 0.000000 -0.000000
v 3.000000 0.000000 -0.375000
v 3.000000 1.100000 -0.375000
v 3.000000 1.100000 -1.875000
vt 3.000000 0.375000
vt 3.000000 1.875000
vt 0.000000 1.875000
vt 0.000000 0.375000
vt 1.875000 1.700000
vt 0.375000 1.700000
vt 0.375000 1.400000
vt 1.875000 1.400000
vt -0.375000 1.700000
vt -1.875000 1.700000
vt -1.875000 1.400000
vt -0.375000 1.400000
vt 0.000000 1.100000
vt 3.000000 0.000000
vt 3.000000 1.100000
vt -3.000000 0.000000
vt -0.000000 1.100000
vt -3.000000 1.100000
vt -1.875000 1.730000
vt -2.250000 1.730000
vt 0.000000 1.100000
vt -0.000000 1.730000
vt -3.000000 1.730000
vt -3.000000 1.700000
vt -0.000000 1.700000
vt -0.000000 1.730000
vt -0.375000 1.100000
vt -2.250000 1.100000
vt -1.875000 1.100000
vt -0.375000 1.730000
vt 0.375000 1.100000
vt 1.875000 1.100000
vt 1.875000 -0.000000
vt 2.250000 -0.000000
vt 2.250000 1.730000
vt 1.875000 1.730000
vt 0.000000 -0.000000
vt 0.375000 -0.000000
vt 0.375000 1.730000
vt 0.000000 1.730000
vt 0.000000 1.730000
vt 0.000000 1.700000
vt 3.000000 1.700000
vt 3.000000 1.730000
vt -0.375000 0.378680
vt -0.375000 -2.816630
vt -0.000000 -2.816630
vt -0.000000 0.378680
vt -0.000000 1.100000
vt -0.000000 1.730000
vt -3.000000 1.730000
vt -3.000000 0.000000
vt 0.000000 1.875000
vt 3.000000 1.875000
vt 3.000000 2.250000
vt 0.000000 2.250000
vt 3.000000 0.375000
vt 0.000000 0.375000
vt 0.000000 0.000000
vt 3.000000 0.000000
vt -3.000000 1.875000
vt -3.000000 0.375000
vt -0.000000 0.375000
vt -0.000000 1.875000
vt -1.875000 -2.816630
vt -1.875000 0.378680
vt -2.250000 0.378680
vt -2.250000 -2.816630
vt 0.000000 43.307098
vt 118.110001 0.000000
vt 118.110001 68.110199
vt 0.000000 68.110199
vn 0.0000 1.0000 0.0000
vn 1.0000 0.0000 0.0000
vn -1.0000 0.0000 -0.0000
vn 0.0000 -0.0000 1.0000
vn 0.0000 0.0000 -1.0000
vn -0.3443 -0.9389 -0.0000
vn 0.0000 -1.0000 -0.0000
usemtl Asphalt.171
s 1
f 20/1/1 17/2/1 1/3/1 4/4/1
f 17/5/2 20/6/2 19/7/2 18/8/2
f 4/9/3 1/10/3 2/11/3 3/12/3
usemtl Stone.210
f 7/13/4 16/14/4 26/15/4
f 24/16/5 8/17/5 25/18/5
f 12/19/3 5/20/3 1/10/3
f 9/21/3 10/22/3 4/9/3 3/12/3
f 21/23/5 20/24/5 4/25/5 11/26/5
f 8/27/3 9/21/3 3/12/3
f 6/28/3 7/29/3 2/11/3
f 10/22/3 11/30/3 4/9/3
f 18/8/2 19/7/2 25/31/2 26/32/2
f 26/32/2 16/33/2 14/34/2
f 14/34/2 13/35/2 26/32/2
f 13/35/2 15/36/2 17/5/2
f 17/5/2 18/8/2 13/35/2
f 13/35/2 18/8/2 26/32/2
f 23/37/2 24/38/2 25/31/2
f 21/39/2 22/40/2 20/6/2
f 22/40/2 23/37/2 25/31/2
f 20/6/2 22/40/2 19/7/2
f 19/7/2 22/40/2 25/31/2
f 12/41/4 1/42/4 17/43/4 15/44/4
f 8/45/6 24/46/6 23/47/6 9/48/6
f 6/49/5 5/50/5 13/51/5 14/52/5
f 1/10/3 5/20/3 6/28/3 2/11/3
f 12/53/1 15/54/1 13/55/1 5/56/1
f 21/57/1 11/58/1 10/59/1 22/60/1
f 3/12/3 2/11/3 7/29/3 8/27/3
f 26/61/7 25/62/7 8/63/7 7/64/7
f 16/65/6 7/66/6 6/67/6 14/68/6
usemtl FrontColor.011
f 9/69/4 23/70/4 22/71/4 10/72/4
