# Blender v3.4.1 OBJ File: ''
# www.blender.org
mtllib roadTile_220.mtl
o roadTile_220
v 0.000000 1.650000 0.000000
v 0.000000 1.275000 -0.750000
v 0.000000 0.600000 -0.750000
v 0.000000 1.650000 -3.000000
v 0.935000 1.650000 -3.000000
v 0.935000 1.650000 0.000000
v 0.000000 0.000000 -3.000000
v 3.000000 0.630000 -3.000000
v 3.000000 0.000000 -3.000000
v 0.000000 0.300000 -2.250000
v 0.000000 0.300000 -0.750000
v 0.000000 0.000000 0.000000
v 3.000000 0.000000 -0.000000
v 3.000000 0.630000 0.000000
v 3.000000 0.630000 -2.250000
v 3.000000 0.600000 -2.250000
v 3.000000 0.300000 -2.250000
v 3.000000 0.300000 -0.750000
v 3.000000 0.600000 -0.750000
v 3.000000 0.630000 -0.750000
v 1.271220 1.483930 -0.750000
v 1.271220 1.483930 -2.250000
v 0.000000 1.275000 -2.250000
v 0.000000 0.600000 -2.250000
vt -0.000000 1.650000
vt -0.750000 1.275000
vt -0.750000 0.600000
vt -3.000000 1.650000
vt -3.000000 0.000000
vt -2.250000 0.300000
vt -0.750000 0.300000
vt 0.000000 0.000000
vt 2.250000 0.300000
vt 0.750000 0.300000
vt 0.000000 -0.000000
vt 2.250000 -0.482580
vt 3.000000 -0.107580
vt 0.000000 -0.107580
vt -1.271220 1.483930
vt -3.000000 0.600000
vt -0.000000 0.600000
vt -2.250000 1.275000
vt -2.250000 0.600000
vt 3.000000 0.600000
vt 1.271220 1.483930
vt 0.000000 0.600000
vt 3.000000 -0.000000
vt 3.000000 0.630000
vt 0.935000 1.650000
vt -0.000000 -0.000000
vt -0.000000 1.650000
vt -0.935000 1.650000
vt 2.250000 1.495050
vt 0.750000 1.495050
vt 0.750000 0.206772
vt 2.250000 0.206772
vt 0.750000 0.600000
vt 0.000000 0.630000
vt 3.000000 0.630000
vt 2.250000 0.630000
vt 2.250000 0.600000
vt 0.750000 0.630000
vt 0.000000 -2.410760
vt 0.750000 -2.410760
vt 0.750000 -0.482580
vt 3.000000 -0.000000
vt 3.000000 -2.410760
vt 2.250000 -2.410760
vt -3.000000 0.630000
vt -3.000000 -0.000000
vt -0.000000 1.275000
vt -3.000000 0.630000
vt -3.000000 0.000000
vt 0.000000 3.000000
vt -3.000000 3.000000
vt 3.000000 0.630000
vt 0.000000 1.275000
vt 0.935000 0.000000
vt 0.935000 3.000000
vt -0.000000 3.000000
vt 0.000000 0.000000
vt 0.000000 0.750000
vt 3.000000 0.750000
vt 3.000000 2.250000
vt 0.000000 2.250000
vn -1.0000 -0.0000 0.0000
vn 1.0000 -0.0000 0.0000
vn 0.4429 0.8966 -0.0000
vn 0.0000 0.0000 -1.0000
vn 0.0000 -0.0000 1.0000
vn 0.1622 -0.9868 -0.0000
vn 0.0000 -1.0000 -0.0000
vn 0.0000 1.0000 0.0000
usemtl Stone.176
s 1
f 1/1/1 2/2/1 3/3/1
f 2/2/1 1/1/1 4/4/1
f 7/5/1 10/6/1 4/4/1
f 7/5/1 11/7/1 10/6/1
f 12/8/1 11/7/1 7/5/1
f 11/7/1 12/8/1 1/1/1
f 17/9/2 18/10/2 13/11/2
f 22/12/3 5/13/3 6/14/3
f 21/15/4 19/16/4 3/17/4
f 2/2/1 4/4/1 23/18/1
f 23/18/1 4/4/1 24/19/1
f 24/19/1 4/4/1 10/6/1
f 16/20/5 22/21/5 24/22/5
f 11/7/1 1/1/1 3/3/1
f 13/23/5 14/24/5 6/25/5 12/8/5
f 7/26/4 4/27/4 5/28/4
f 6/25/5 1/1/5 12/8/5
f 22/29/6 21/30/6 2/31/6 23/32/6
f 19/33/2 14/34/2 13/11/2 18/10/2
f 8/35/2 15/36/2 16/37/2
f 20/38/2 14/34/2 19/33/2
f 6/14/3 14/39/3 20/40/3 21/41/3
f 9/42/2 17/9/2 13/11/2
f 8/43/3 5/13/3 22/12/3 15/44/3
f 5/28/4 8/45/4 9/46/4 7/26/4
f 6/14/3 21/41/3 22/12/3
f 3/17/4 2/47/4 21/15/4
f 21/15/4 20/48/4 19/16/4
f 13/49/7 12/8/7 7/50/7 9/51/7
f 16/37/2 17/9/2 9/42/2 8/35/2
f 15/52/5 22/21/5 16/20/5
f 22/21/5 23/53/5 24/22/5
f 6/54/8 5/55/8 4/56/8 1/57/8
usemtl Asphalt.145
f 3/58/8 19/59/8 16/60/8 24/61/8
f 17/9/2 16/37/2 19/33/2 18/10/2
f 11/7/1 3/3/1 24/19/1 10/6/1
