# Blender v3.4.1 OBJ File: ''
# www.blender.org
mtllib roadTile_165.mtl
o roadTile_165
v 0.000000 1.700000 -0.750000
v 0.000000 1.700000 -2.250000
v 0.000000 1.400000 -2.250000
v 0.000000 1.400000 -0.750000
v 3.000000 0.600000 -2.250000
v 3.000000 0.600000 -0.750000
v 3.000000 0.630000 -2.250000
v 0.000000 1.730000 -2.250000
v 3.000000 0.000000 -0.375000
v 3.000000 0.000000 -2.625000
v 3.000000 0.550000 -2.625000
v 3.000000 0.630000 -2.625000
v 3.000000 0.300000 -2.250000
v 3.000000 0.300000 -0.750000
v 3.000000 0.630000 -0.750000
v 3.000000 0.630000 -0.375000
v 3.000000 0.550000 -0.375000
v 1.500000 0.000000 -0.000000
v 1.500000 0.000000 -3.000000
v 3.000000 0.000000 -3.000000
v 3.000000 0.000000 -0.000000
v 1.500000 0.550000 0.000000
v 1.500000 0.550000 -3.000000
v 0.000000 1.650000 0.000000
v 0.000000 1.100000 0.000000
v 3.000000 0.550000 0.000000
v 0.000000 1.650000 -0.375000
v 0.000000 1.100000 -0.375000
v 0.000000 1.650000 -2.625000
v 0.000000 1.100001 -2.625000
v 0.000000 1.730000 -0.375000
v 0.000000 1.730000 -0.750000
v 0.000000 1.730000 -2.625000
v 0.000000 1.650000 -3.000000
v 0.000000 1.100001 -3.000000
v 3.000000 0.550000 -3.000000
vt 0.750000 -2.610080
vt 2.250000 -2.610080
vt 2.250000 0.585233
vt 0.750000 0.585233
vt 2.250000 0.300000
vt 2.250000 0.600000
vt 0.750000 0.600000
vt 0.750000 0.300000
vt -0.750000 1.400000
vt -0.750000 1.700000
vt -2.250000 1.700000
vt -2.250000 1.400000
vt 0.375000 -0.000000
vt 2.625000 -0.000000
vt -2.625000 1.100000
vt -0.375000 1.100000
vt 0.750000 -2.599750
vt 0.750000 0.595561
vt 0.375000 0.595561
vt 0.375000 -2.599750
vt 3.000000 0.630000
vt 0.000000 1.730000
vt 0.000000 1.650000
vt 3.000000 0.550000
vt 0.375000 0.550000
vt 0.750000 0.630000
vt 0.375000 0.630000
vt -0.375000 1.730000
vt -0.750000 1.730000
vt -0.375000 1.650000
vt 3.000000 0.630000
vt 0.000000 1.730000
vt 0.000000 1.700000
vt 3.000000 0.600000
vt -2.625000 1.650000
vt -2.250000 1.730000
vt -2.625000 1.730000
vt -3.000000 0.630000
vt -3.000000 0.600000
vt -0.000000 1.700000
vt -0.000000 1.730000
vt 2.250000 0.595561
vt 2.250000 -2.599750
vt 2.625000 -2.599750
vt 2.625000 0.595561
vt -3.000000 0.630000
vt -3.000000 0.550000
vt -0.000000 1.650000
vt -0.000000 1.730000
vt 2.625000 0.550000
vt 2.625000 0.630000
vt 2.250000 0.630000
vt -1.500000 0.550000
vt -0.000000 1.650000
vt -3.000000 0.550000
vt -2.625000 0.378680
vt -3.000000 0.378680
vt -3.000000 -1.218970
vt -3.000000 0.000000
vt -1.500000 0.000000
vt -3.000000 0.375000
vt -1.500000 3.000000
vt -3.000000 3.000000
vt -3.000000 2.625000
vt 3.000000 -0.000000
vt 3.000000 0.550000
vt 1.500000 0.550000
vt 1.500000 -0.000000
vt 0.000000 1.650000
vt 0.000000 1.100000
vt -0.375000 0.378680
vt -0.000000 -1.218970
vt -3.000000 0.000000
vt -0.000000 0.000000
vt -0.000000 0.550000
vt -3.000000 0.550000
vt -3.000000 1.650000
vt -3.000000 1.100000
vt -0.000000 1.100000
vt -0.000000 0.378680
vt -1.500000 0.000000
vt -3.000000 0.000000
vt 3.000000 0.568020
vt 2.625000 0.568020
vt 2.625000 -2.627290
vt 3.000000 -2.627290
vt 3.000000 0.000000
vt 3.000000 0.550000
vt 0.000000 -2.627290
vt 0.375000 -2.627290
vt 0.375000 0.568020
vt 0.000000 0.568020
vt 0.000000 0.550000
vt 0.000000 0.000000
vn 0.3443 0.9389 0.0000
vn 1.0000 -0.0000 0.0000
vn -1.0000 0.0000 -0.0000
vn 0.0000 0.0000 1.0000
vn -0.0000 0.0000 -1.0000
vn -0.3443 -0.9389 -0.0000
vn 0.0000 -1.0000 -0.0000
usemtl Asphalt.109
s 1
f 6/1/1 5/2/1 2/3/1 1/4/1
f 13/5/2 5/6/2 6/7/2 14/8/2
f 4/9/3 1/10/3 2/11/3 3/12/3
usemtl Stone.136
f 9/13/2 10/14/2 14/8/2
f 30/15/3 28/16/3 3/12/3
f 15/17/1 32/18/1 31/19/1 16/20/1
f 16/21/4 31/22/4 27/23/4 17/24/4
f 14/8/2 6/7/2 17/25/2 9/13/2
f 6/7/2 15/26/2 16/27/2 17/25/2
f 31/28/3 32/29/3 1/10/3 27/30/3
f 27/30/3 1/10/3 4/9/3 28/16/3
f 10/14/2 13/5/2 14/8/2
f 7/31/4 8/32/4 2/33/4 5/34/4
f 2/11/3 29/35/3 30/15/3 3/12/3
f 2/11/3 8/36/3 33/37/3 29/35/3
f 28/16/3 4/9/3 3/12/3
f 15/38/5 6/39/5 1/40/5 32/41/5
f 8/42/1 7/43/1 12/44/1 33/45/1
f 12/46/5 11/47/5 29/48/5 33/49/5
f 11/50/2 5/6/2 13/5/2 10/14/2
f 12/51/2 7/52/2 5/6/2 11/50/2
usemtl Grass.071
f 23/53/5 34/54/5 36/55/5
f 30/56/6 35/57/6 23/58/6
f 21/59/7 18/60/7 9/61/7
f 19/62/7 20/63/7 10/64/7
f 21/65/4 26/66/4 22/67/4 18/68/4
f 26/66/4 24/69/4 22/67/4
f 24/69/4 25/70/4 22/67/4
f 24/69/3 27/30/3 28/16/3 25/70/3
f 28/71/6 30/56/6 23/58/6 22/72/6
f 19/73/3 18/74/3 22/75/3 23/76/3
f 29/35/3 34/77/3 35/78/3 30/15/3
f 23/53/5 35/79/5 34/54/5
f 19/62/7 10/64/7 9/61/7 18/60/7
f 22/72/6 25/80/6 28/71/6
f 19/81/5 23/53/5 36/55/5 20/82/5
f 34/83/1 29/84/1 11/85/1 36/86/1
f 20/87/2 36/88/2 11/50/2 10/14/2
f 26/89/1 17/90/1 27/91/1 24/92/1
f 26/93/2 21/94/2 9/13/2 17/25/2
