# Blender v3.4.1 OBJ File: ''
# www.blender.org
mtllib roadTile_075.mtl
o roadTile_075
v 0.000000 0.630000 0.000000
v 0.000000 0.000000 0.000000
v 3.000000 0.000000 -0.000000
v 3.000000 0.630000 0.000000
v 0.000000 0.000000 -3.000000
v 0.000000 0.630000 -0.750000
v 0.000000 0.600000 -0.750000
v 0.000000 0.300000 -0.750000
v 0.000000 0.300000 -2.250000
v 0.000000 0.600000 -2.250000
v 0.000000 0.630000 -2.250000
v 0.000000 0.630000 -3.000000
v 3.000000 0.000000 -3.000000
v 3.000000 0.630000 -3.000000
v 3.000000 0.600000 -2.250000
v 3.000000 0.300000 -2.250000
v 3.000000 0.300000 -0.750000
v 3.000000 0.600000 -0.750000
v 3.000000 0.630000 -0.750000
v 3.000000 0.630000 -2.250000
v 1.875000 0.600000 -0.750000
v 1.875000 0.600000 -0.937500
v 1.875000 0.600000 -1.312500
v 1.875000 0.600000 -1.500000
v 1.875000 0.600000 -1.875000
v 1.875000 0.600000 -2.062500
v 1.125000 0.600000 -2.062500
v 1.125000 0.600000 -1.687500
v 1.125000 0.600000 -0.750000
v 1.125000 0.600000 -0.937500
v 1.875000 0.600000 -1.125000
v 1.125000 0.600000 -1.125000
v 1.125000 0.600000 -1.312500
v 1.125000 0.600000 -1.500000
v 1.875000 0.600000 -1.687500
v 1.125000 0.600000 -1.875000
vt -3.000000 -0.000000
vt 0.000000 -0.000000
vt -2.250000 0.300000
vt 0.750000 0.300000
vt -0.000000 -0.000000
vt 3.000000 -0.000000
vt -1.125000 0.600000
vt -0.000000 0.630000
vt -3.000000 0.630000
vt 3.000000 0.750000
vt 0.000000 0.750000
vt 0.000000 -0.000000
vt 3.000000 0.000000
vt 3.000000 0.630000
vt 0.000000 0.630000
vt 3.000000 0.000000
vt -0.000000 0.630000
vt 0.750000 0.600000
vt -0.750000 0.630000
vt -0.750000 0.600000
vt -2.250000 0.630000
vt -3.000000 0.630000
vt -2.250000 0.600000
vt -0.750000 0.300000
vt 3.000000 3.000000
vt -0.000000 3.000000
vt 0.000000 2.250000
vt 3.000000 2.250000
vt 3.000000 0.630000
vt 0.000000 0.630000
vt 0.000000 0.600000
vt 3.000000 0.600000
vt 2.250000 0.630000
vt 2.250000 0.600000
vt 3.000000 0.630000
vt 0.750000 0.630000
vt 2.250000 0.300000
vt -3.000000 0.600000
vt -1.875000 0.600000
vt -0.000000 0.600000
vt -3.000000 3.000000
vt -3.000000 0.000000
vt 0.000000 3.000000
vt -0.000000 0.630000
vt -3.000000 0.630000
vt -3.000000 0.000000
vt -0.000000 0.000000
vt 3.000000 2.250000
vt 1.875000 0.750000
vt 3.000000 0.750000
vt 1.875000 0.937500
vt 1.875000 1.312500
vt 1.875000 1.500000
vt 1.875000 1.875000
vt 1.875000 2.062500
vt 1.125000 2.062500
vt 0.000000 2.250000
vt 1.125000 1.687500
vt 0.000000 0.750000
vt 1.125000 0.750000
vt 1.875000 1.125000
vt 1.875000 1.687500
vt 1.125000 1.875000
vt 1.125000 1.312500
vt 1.125000 1.500000
vt 1.125000 0.937500
vt 1.125000 1.125000
vn -1.0000 0.0000 0.0000
vn 1.0000 -0.0000 0.0000
vn 0.0000 0.0000 -1.0000
vn 0.0000 1.0000 0.0000
vn 0.0000 -0.0000 1.0000
vn 0.0000 -1.0000 -0.0000
vn -0.5838 0.5221 -0.6218
vn 0.4440 0.4441 -0.7782
vn 0.1756 0.6929 -0.6993
vn 0.0000 0.9999 0.0141
vn 0.5610 0.5610 -0.6088
vn -0.5274 0.5274 -0.6662
usemtl Stone.055
s 1
f 5/1/1 2/2/1 9/3/1
f 17/4/2 3/5/2 13/6/2
f 29/7/3 6/8/3 19/9/3
f 19/10/4 6/11/4 1/12/4 4/13/4
f 4/14/5 1/15/5 2/2/5 3/16/5
f 4/17/2 3/5/2 17/4/2 18/18/2
f 1/15/1 6/19/1 7/20/1
f 11/21/1 12/22/1 10/23/1
f 7/20/1 8/24/1 2/2/1 1/15/1
f 2/2/1 8/24/1 9/3/1
f 14/25/4 12/26/4 11/27/4 20/28/4
f 20/29/5 11/30/5 10/31/5 15/32/5
f 20/33/2 15/34/2 14/35/2
f 10/23/1 12/22/1 5/1/1 9/3/1
f 18/18/2 19/36/2 4/17/2
f 13/6/2 16/37/2 17/4/2
f 13/6/2 14/35/2 15/34/2 16/37/2
f 19/9/3 18/38/3 21/39/3
f 29/7/3 7/40/3 6/8/3
f 19/9/3 21/39/3 29/7/3
f 13/41/6 3/42/6 2/2/6 5/43/6
f 12/44/3 14/45/3 13/46/3 5/47/3
usemtl Asphalt.044
f 15/48/4 21/49/4 18/50/4
f 15/48/4 22/51/4 21/49/4
f 15/48/4 23/52/4 22/51/4
f 15/48/4 24/53/4 23/52/4
f 15/48/4 25/54/4 24/53/4
f 15/48/4 26/55/4 25/54/4
f 15/48/4 27/56/4 26/55/4
f 10/57/4 27/56/4 15/48/4
f 28/58/4 7/59/4 29/60/4
f 31/61/7 22/51/4 23/52/4
f 25/54/4 35/62/8 24/53/4
f 28/58/4 36/63/9 27/56/4
f 28/58/4 33/64/10 34/65/11
f 28/58/4 30/66/12 33/64/10
f 28/58/4 29/60/4 30/66/12
f 33/64/10 30/66/12 32/67/11
f 7/59/4 28/58/4 27/56/4 10/57/4
f 15/34/2 18/18/2 17/4/2 16/37/2
f 36/63/9 28/58/4 35/62/8 25/54/4
f 31/61/7 32/67/11 30/66/12 22/51/4
f 24/53/4 34/65/11 33/64/10 23/52/4
f 7/20/1 10/23/1 9/3/1 8/24/1
usemtl White.001
f 36/63/9 25/54/4 26/55/4 27/56/4
f 32/67/11 31/61/7 23/52/4 33/64/10
f 29/60/4 21/49/4 22/51/4 30/66/12
f 34/65/11 24/53/4 35/62/8 28/58/4
