# Blender v3.4.1 OBJ File: ''
# www.blender.org
mtllib roadTile_140.mtl
o roadTile_140
v 0.000000 0.000000 -0.000000
v 3.000000 0.000000 0.000000
v 3.000000 0.550000 0.000000
v 0.000000 1.650000 0.000000
v 3.000000 0.000000 -3.000000
v 0.000000 0.000000 -3.000000
v 3.000000 0.550000 -3.000000
v 0.000000 0.550000 -3.000000
vt -0.000000 -0.000000
vt -0.000000 1.650000
vt -3.000000 0.550000
vt -3.000000 0.000000
vt -3.000000 0.550000
vt -3.000000 -0.000000
vt 0.000000 -0.000000
vt 0.000000 0.550000
vt -0.000000 3.000000
vt -3.000000 3.000000
vt -3.000000 0.000000
vt 3.000000 0.550000
vt 3.000000 0.000000
vt 3.000000 3.000000
vt 2.121320 -1.630010
vt -0.000000 0.759554
vt 3.000000 0.000000
vt 3.000000 0.550000
vt 0.000000 0.550000
vt 0.000000 0.000000
vt 3.000000 0.000000
vn -1.0000 0.0000 -0.0000
vn 0.0000 0.0000 -1.0000
vn 0.0000 -1.0000 -0.0000
vn -0.0000 -0.0000 1.0000
vn 0.0000 1.0000 -0.0000
vn 0.3255 0.8877 -0.3255
vn 1.0000 0.0000 0.0000
usemtl Grass.046
s 1
f 1/1/1 4/2/1 8/3/1 6/4/1
f 7/5/2 5/6/2 6/7/2 8/8/2
f 6/9/3 5/10/3 2/11/3 1/1/3
f 3/12/4 4/2/4 1/1/4 2/13/4
f 7/14/5 8/15/6 4/16/6 3/17/5
f 7/18/7 3/19/7 2/20/7 5/21/7
