# Blender v3.4.1 OBJ File: ''
# www.blender.org
mtllib roadTile_224.mtl
o roadTile_224
v 0.000000 0.000000 -0.000000
v 0.000000 0.000000 -3.000000
v 3.000000 0.000000 -3.000000
v 3.000000 0.000000 -0.000000
v 0.000000 0.300000 -0.750000
v 0.000000 1.736470 -0.750000
v 0.000000 2.200000 0.000000
v 0.000000 2.200001 -3.000000
v 3.000000 1.650000 0.000000
v 3.000000 1.650000 -3.000000
v 3.000000 1.275000 -0.750000
v 3.000000 0.600000 -0.750000
v 3.000000 0.300000 -0.750000
v 3.000000 0.300000 -2.250000
v 3.000000 0.600000 -2.250000
v 3.000000 1.275000 -2.250000
v 0.000000 1.736470 -2.250000
v 0.000000 0.600000 -0.750000
v 0.000000 0.600000 -2.250000
v 0.000000 0.300000 -2.250000
vt -0.000000 -0.000000
vt -0.750000 0.300000
vt -3.000000 -0.000000
vt 0.000000 -0.000000
vt 0.750000 0.600000
vt 0.750000 1.275000
vt 0.000000 1.650000
vt -0.750000 1.736470
vt 0.000000 2.200000
vt -3.000000 2.200000
vt 3.000000 1.650000
vt 2.250000 1.275000
vt 2.250000 0.600000
vt 3.000000 -0.000000
vt 0.750000 0.300000
vt 2.250000 0.300000
vt -2.250000 1.736470
vt -2.250000 0.600000
vt -2.250000 0.300000
vt -0.750000 0.600000
vt -0.000000 0.396721
vt 0.000000 -2.653280
vt 3.000000 -2.653280
vt 3.000000 0.396721
vt -3.000000 1.650000
vt -3.000000 -0.000000
vt -0.000000 -0.000000
vt -0.000000 2.200000
vt 0.000000 0.600000
vt 3.000000 0.600000
vt 3.000000 1.275000
vt 0.000000 1.736470
vt -3.000000 0.000000
vt -0.000000 3.000000
vt -3.000000 3.000000
vt -0.000000 0.600000
vt -0.000000 1.736470
vt -3.000000 1.275000
vt -3.000000 0.600000
vt 3.000000 1.650000
vt 3.000000 -0.000000
vt -2.250000 0.264008
vt -2.250000 -2.771280
vt -0.750000 -2.771280
vt -0.750000 0.264008
vt 0.000000 0.750000
vt 3.000000 0.750000
vt 3.000000 2.250000
vt 0.000000 2.250000
vn -1.0000 -0.0000 0.0000
vn 1.0000 -0.0000 0.0000
vn 0.6262 0.0000 -0.7797
vn 0.1803 0.9836 0.0000
vn -0.0000 0.0000 -1.0000
vn 0.0000 -0.0000 1.0000
vn 0.0000 -1.0000 -0.0000
vn -0.1520 -0.9884 -0.0000
vn 0.0000 1.0000 0.0000
usemtl Stone.180
s 1
f 1/1/1 5/2/1 2/3/1
f 4/4/2 12/5/2 11/6/2 9/7/2
f 6/8/1 7/9/1 8/10/1
f 9/7/2 11/6/2 10/11/2
f 10/11/2 16/12/2 15/13/2 3/14/2
f 12/5/2 4/4/2 13/15/2
f 3/14/2 13/15/2 4/4/2
f 13/15/2 3/14/2 14/16/2
f 14/16/2 3/14/2 15/13/2
f 10/11/2 11/6/2 16/12/2
f 17/17/1 8/10/1 19/18/1
f 6/8/1 8/10/1 17/17/1
f 19/18/1 8/10/1 20/19/1
f 2/3/1 20/19/1 8/10/1
f 2/3/1 5/2/1 20/19/1
f 5/2/1 6/8/1 18/20/3
f 7/21/4 9/22/4 10/23/4 8/24/4
f 10/25/5 3/26/5 2/27/5 8/28/5
f 19/29/6 15/30/6 16/31/6 17/32/6
f 4/33/7 1/1/7 2/34/7 3/35/7
f 18/36/5 6/37/5 11/38/5 12/39/5
f 9/40/6 7/9/6 1/1/6 4/41/6
f 7/9/1 6/8/1 5/2/1 1/1/1
f 17/42/8 16/43/8 11/44/8 6/45/8
usemtl Asphalt.149
f 14/16/2 15/13/2 12/5/2 13/15/2
f 5/2/1 18/20/3 19/18/1 20/19/1
f 18/46/9 12/47/9 15/48/9 19/49/9
