# Blender v3.4.1 OBJ File: ''
# www.blender.org
mtllib roadTile_010.mtl
o roadTile_010
v 0.000000 0.000000 -0.000000
v 3.000000 0.000000 -0.000000
v 3.000000 0.550000 0.000000
v 0.000000 1.650000 0.000000
v 0.000000 0.000000 -3.000000
v 0.391579 0.000000 -2.974330
v 0.776457 0.000000 -2.897780
v 1.148050 0.000000 -2.771640
v 1.500000 0.000000 -2.598080
v 1.826280 0.000000 -2.380060
v 2.121320 0.000000 -2.121320
v 2.380060 0.000000 -1.826280
v 2.598080 0.000000 -1.500000
v 2.771640 0.000000 -1.148050
v 2.897780 0.000000 -0.776457
v 2.974330 0.000000 -0.391579
v 0.000000 0.550000 -3.000000
v 0.391579 0.550000 -2.974330
v 0.776457 0.550000 -2.897780
v 1.148050 0.550000 -2.771640
v 1.500000 0.550000 -2.598080
v 1.826280 0.550000 -2.380060
v 2.121320 0.550000 -2.121320
v 2.380060 0.550000 -1.826280
v 2.598080 0.550000 -1.500000
v 2.771640 0.550000 -1.148050
v 2.897780 0.550000 -0.776457
v 2.974330 0.550000 -0.391579
vt -2.897780 0.776457
vt -2.974330 0.391579
vt -0.000000 0.000000
vt -0.000000 0.569094
vt -0.196209 -2.620190
vt 0.196209 -2.620190
vt -0.196209 -2.620190
vt 0.196209 -2.620190
vt -0.196209 -2.620190
vt 0.196209 -2.620190
vt -0.196209 -2.620190
vt 0.196209 -2.620190
vt -0.196209 -2.620190
vt 0.196209 -2.620190
vt -0.196209 -2.620190
vt 0.196209 -2.620190
vt -0.196209 -2.620190
vt 0.196209 -2.620190
vt -0.196209 -2.620190
vt 0.196209 -2.620190
vt -0.196209 -2.620190
vt 0.196209 -2.620190
vt -0.196209 -2.620190
vt 0.196209 -2.620190
vt -0.196209 -2.620190
vt 0.196209 -2.620190
vt -0.196209 -2.620190
vt 0.196209 -2.620190
vt -3.000000 0.000000
vt 0.000000 3.000000
vt -0.391579 2.974330
vt -0.776457 2.897780
vt -1.148050 2.771640
vt -1.500000 2.598080
vt -1.826280 2.380060
vt -2.121320 2.121320
vt -2.380060 1.826280
vt -2.598080 1.500000
vt -2.771640 1.148050
vt 3.000000 0.550000
vt 0.000000 1.650000
vt 3.000000 -0.000000
vt -3.000000 0.550000
vt -3.000000 0.000000
vt -0.196209 0.550000
vt -0.196209 0.000000
vt 0.196209 0.000000
vt 0.196209 0.550000
vt -0.196209 0.550000
vt -0.196209 0.000000
vt 0.196209 0.000000
vt 0.196209 0.550000
vt -0.196209 0.550000
vt -0.196209 0.000000
vt 0.196209 0.000000
vt 0.196209 0.550000
vt -0.196209 0.550000
vt -0.196209 0.000000
vt 0.196209 0.000000
vt 0.196209 0.550000
vt -0.196209 0.550000
vt -0.196209 0.000000
vt 0.196209 0.000000
vt 0.196209 0.550000
vt -0.196209 0.550000
vt -0.196209 0.000000
vt 0.196209 0.000000
vt 0.196209 0.550000
vt -0.196209 0.550000
vt -0.196209 0.000000
vt 0.196209 0.000000
vt 0.196209 0.550000
vt -0.196209 0.550000
vt -0.196209 0.000000
vt 0.196209 0.000000
vt 0.196209 0.550000
vt -0.196209 0.550000
vt -0.196209 0.000000
vt 0.196209 0.000000
vt 0.196209 0.550000
vt -0.196209 0.550000
vt -0.196209 0.000000
vt 0.196209 0.000000
vt 0.196209 0.550000
vt -0.196209 0.550000
vt -0.196209 0.000000
vt 0.196209 0.000000
vt 0.196209 0.550000
vt -0.196209 0.550000
vt -0.196209 0.000000
vt 0.196209 0.000000
vt 0.196209 0.550000
vn 0.0000 -1.0000 -0.0000
vn 0.2222 0.9493 -0.2222
vn 0.0449 0.9389 -0.3413
vn 0.0226 0.9386 -0.3442
vn 0.0891 0.9389 -0.3325
vn 0.1317 0.9389 -0.3180
vn 0.1721 0.9389 -0.2981
vn 0.2096 0.9389 -0.2731
vn 0.2434 0.9389 -0.2434
vn 0.2731 0.9389 -0.2096
vn 0.2981 0.9389 -0.1721
vn 0.3180 0.9389 -0.1317
vn 0.3325 0.9389 -0.0891
vn 0.3413 0.9389 -0.0449
vn 0.3442 0.9386 -0.0226
vn 0.0000 -0.0000 1.0000
vn -1.0000 -0.0000 0.0000
vn 0.1305 0.0000 -0.9914
vn 0.0654 0.0000 -0.9979
vn 0.9979 -0.0000 -0.0654
vn 0.9914 -0.0000 -0.1305
vn 0.9659 0.0000 -0.2588
vn 0.9239 0.0000 -0.3827
vn 0.8660 0.0000 -0.5000
vn 0.7934 0.0000 -0.6088
vn 0.7071 0.0000 -0.7071
vn 0.6088 0.0000 -0.7934
vn 0.5000 0.0000 -0.8660
vn 0.3827 0.0000 -0.9239
vn 0.2588 0.0000 -0.9659
usemtl Stone.008
s 1
f 15/1/1 16/2/1 1/3/1
f 4/4/2 18/5/3 17/6/4
f 4/4/2 19/7/5 18/8/3
f 4/4/2 20/9/6 19/10/5
f 4/4/2 21/11/7 20/12/6
f 4/4/2 22/13/8 21/14/7
f 4/4/2 23/15/9 22/16/8
f 4/4/2 24/17/10 23/18/9
f 4/4/2 25/19/11 24/20/10
f 4/4/2 26/21/12 25/22/11
f 4/4/2 27/23/13 26/24/12
f 4/4/2 28/25/14 27/26/13
f 4/4/2 3/27/15 28/28/14
f 2/29/1 1/3/1 16/2/1
f 1/3/1 5/30/1 6/31/1
f 7/32/1 1/3/1 6/31/1
f 7/32/1 8/33/1 1/3/1
f 8/33/1 9/34/1 1/3/1
f 9/34/1 10/35/1 1/3/1
f 10/35/1 11/36/1 1/3/1
f 11/36/1 12/37/1 1/3/1
f 12/37/1 13/38/1 1/3/1
f 13/38/1 14/39/1 1/3/1
f 14/39/1 15/1/1 1/3/1
f 3/40/16 4/41/16 1/3/16 2/42/16
f 1/3/17 4/41/17 17/43/17 5/44/17
f 18/45/18 6/46/18 5/47/19 17/48/19
f 3/49/20 2/50/20 16/51/21 28/52/21
f 28/53/21 16/54/21 15/55/22 27/56/22
f 27/57/22 15/58/22 14/59/23 26/60/23
f 26/61/23 14/62/23 13/63/24 25/64/24
f 25/65/24 13/66/24 12/67/25 24/68/25
f 24/69/25 12/70/25 11/71/26 23/72/26
f 23/73/26 11/74/26 10/75/27 22/76/27
f 22/77/27 10/78/27 9/79/28 21/80/28
f 21/81/28 9/82/28 8/83/29 20/84/29
f 20/85/29 8/86/29 7/87/30 19/88/30
f 19/89/30 7/90/30 6/91/18 18/92/18
