# Blender v3.4.1 OBJ File: ''
# www.blender.org
mtllib roadTile_074.mtl
o roadTile_074
v 2.009090 0.600000 -1.149630
v 1.358800 0.600000 -0.928889
v 1.358800 0.630000 -0.928889
v 2.009090 0.630000 -1.149630
v 0.000000 0.600001 -3.000000
v 0.000000 0.600000 -0.750000
v 0.685263 0.600000 -0.794914
v 2.625000 0.600000 -1.453370
v 3.000000 0.600000 -1.703930
v 3.000000 0.600001 -3.000000
v 0.000000 0.300000 -3.000000
v 0.000000 0.300000 -0.750000
v 3.000000 0.300000 -3.000000
v 3.000000 0.300000 -1.703930
v 3.000000 0.630000 -1.703930
v 3.000000 0.630000 0.000000
v 3.000000 0.000000 -0.000000
v 3.000000 0.000000 -3.000000
v 2.625000 0.630000 -1.453370
v 0.685263 0.630000 -0.794914
v 0.000000 0.630000 -0.750000
v 0.000000 0.630000 0.000000
v 0.000000 0.000000 -3.000000
v 0.000000 0.000000 0.000000
vt 3.000000 0.000000
vt 2.009090 1.149630
vt 1.358800 0.928889
vt -0.750000 0.300000
vt -3.000000 0.000000
vt -0.000000 0.000000
vt -3.000000 0.000000
vt -0.000000 0.000000
vt -0.000000 0.300000
vt -3.000000 0.300000
vt 3.000000 -0.000000
vt 3.000000 0.300000
vt 1.703930 0.300000
vt 1.703930 0.600000
vt 1.703930 0.630000
vt 0.000000 0.630000
vt 0.000000 -0.000000
vt -0.000000 0.630000
vt -0.750000 0.600000
vt -3.000000 3.000000
vt -3.000000 0.000000
vt -0.000000 3.000000
vt -1.513910 0.630000
vt -1.513910 0.600000
vt -0.827176 0.600000
vt -0.827176 0.630000
vt 3.000000 1.703930
vt 2.625000 1.453370
vt -0.000000 0.750000
vt 0.000000 0.000000
vt 0.685263 0.794914
vt -0.735785 0.630000
vt -0.735785 0.600000
vt -0.049052 0.600000
vt -0.049052 0.630000
vt -0.750000 0.630000
vt -3.000000 0.300000
vt 3.000000 0.630000
vt 3.000000 0.000000
vt -2.272000 0.630000
vt -2.272000 0.600000
vt -1.585270 0.600000
vt -1.585270 0.630000
vt -2.997100 0.630000
vt -2.997100 0.600000
vt -2.310370 0.600000
vt -2.310370 0.630000
vt -3.441060 0.630000
vt -3.441060 0.600000
vt -2.990050 0.600000
vt -2.990050 0.630000
vt 2.625000 1.453370
vt 3.000000 1.703930
vt 3.000000 3.000000
vt -3.000000 0.600000
vt 0.000000 3.000000
vt 2.009090 1.149630
vt -0.000000 0.750000
vt 0.685263 0.794914
vt 1.358800 0.928889
vt -0.000000 0.600000
vt -3.000000 0.600000
vt 3.000000 0.600000
vn -0.0000 1.0000 0.0000
vn -1.0000 -0.0000 0.0000
vn 0.0000 0.0000 -1.0000
vn 1.0000 0.0000 0.0000
vn 0.0000 -1.0000 -0.0000
vn -0.2588 0.0000 -0.9659
vn -0.1305 0.0000 -0.9914
vn -0.0654 0.0000 -0.9979
vn 0.0000 -0.0000 1.0000
vn -0.3827 0.0000 -0.9239
vn -0.5000 0.0000 -0.8660
vn -0.5556 0.0000 -0.8315
usemtl Stone.054
s 1
f 16/1/1 4/2/1 3/3/1
f 12/4/2 23/5/2 24/6/2
f 18/7/3 23/8/3 11/9/3 13/10/3
f 18/11/4 13/12/4 14/13/4
f 9/14/4 15/15/4 16/16/4
f 17/17/4 18/11/4 14/13/4
f 12/4/2 24/6/2 22/18/2 6/19/2
f 18/20/5 17/21/5 24/6/5 23/22/5
f 3/23/6 2/24/6 7/25/7 20/26/7
f 16/1/1 15/27/1 19/28/1
f 16/1/1 19/28/1 4/2/1
f 21/29/1 22/30/1 20/31/1
f 22/30/1 16/1/1 3/3/1
f 20/31/1 22/30/1 3/3/1
f 20/32/7 7/33/7 6/34/8 21/35/8
f 16/16/4 17/17/4 14/13/4 9/14/4
f 21/36/2 6/19/2 22/18/2
f 12/4/2 11/37/2 23/5/2
f 16/38/9 22/18/9 24/6/9 17/39/9
f 4/40/10 1/41/10 2/42/6 3/43/6
f 19/44/11 8/45/11 1/46/10 4/47/10
f 15/48/12 9/49/12 8/50/11 19/51/11
usemtl Asphalt.043
f 8/52/1 9/53/1 10/54/1
f 6/19/2 5/55/2 11/37/2 12/4/2
f 10/54/1 5/56/1 1/57/1
f 5/56/1 6/58/1 7/59/1
f 2/60/1 5/56/1 7/59/1
f 2/60/1 1/57/1 5/56/1
f 1/57/1 8/52/1 10/54/1
f 5/61/3 10/62/3 13/10/3 11/9/3
f 10/63/4 9/14/4 14/13/4 13/12/4
