# Blender v3.4.1 OBJ File: ''
# www.blender.org
mtllib roadTile_239.mtl
o roadTile_239
v 0.000000 1.730000 -0.750000
v 0.000000 1.730000 0.000000
v 3.000000 1.730000 0.000000
v 3.000000 1.730000 -0.750000
v 0.000000 1.730000 -3.000000
v 0.000000 0.000000 -3.000000
v 0.000000 0.000000 0.000000
v 0.000000 0.600000 -0.750000
v 0.000000 0.300000 -0.750000
v 0.000000 0.300000 -2.250000
v 0.000000 0.600000 -2.250000
v 0.000000 1.730000 -2.250000
v 3.000000 0.000000 -3.000000
v 3.000000 1.730000 -3.000000
v 3.000000 0.000000 -0.000000
v 3.000000 1.730000 -2.250000
v 3.000000 0.600000 -2.250000
v 3.000000 0.300000 -2.250000
v 3.000000 0.300000 -0.750000
v 3.000000 0.600000 -0.750000
vt -3.000000 0.000000
vt 0.000000 0.000000
vt -0.750000 0.300000
vt 0.000000 0.000000
vt 3.000000 0.000000
vt 2.250000 0.300000
vt -3.000000 1.730000
vt -3.000000 0.600000
vt -0.000000 0.600000
vt -0.000000 1.730000
vt 0.000000 1.730000
vt 0.750000 0.600000
vt 0.750000 1.730000
vt -3.000000 1.730000
vt -2.250000 0.600000
vt -2.250000 1.730000
vt -0.750000 0.600000
vt -2.250000 0.300000
vt -3.000000 0.000000
vt -0.000000 3.000000
vt -3.000000 3.000000
vt 3.000000 1.730000
vt 2.250000 1.730000
vt 2.250000 0.600000
vt 0.750000 0.300000
vt 0.000000 2.250000
vt 3.000000 2.250000
vt 3.000000 3.000000
vt 0.000000 3.000000
vt 0.000000 1.730000
vt 3.000000 -0.000000
vt 3.000000 1.730000
vt 0.000000 1.730000
vt 0.000000 0.600000
vt 3.000000 0.600000
vt 3.000000 1.730000
vt -3.000000 1.730000
vt -3.000000 0.000000
vt -0.000000 0.000000
vt -0.000000 1.730000
vt -0.750000 1.730000
vt 3.000000 0.750000
vt 0.000000 0.750000
vt 0.000000 0.000000
vt 3.000000 0.000000
vt 3.000000 0.750000
vt 3.000000 2.250000
vt 0.000000 2.250000
vt 0.000000 0.750000
vn -1.0000 -0.0000 -0.0000
vn 1.0000 0.0000 0.0000
vn 0.0000 0.0000 -1.0000
vn 0.0000 -1.0000 -0.0000
vn 0.0000 1.0000 0.0000
vn 0.0000 -0.0000 1.0000
usemtl Stone.195
s 1
f 6/1/1 7/2/1 9/3/1
f 15/4/2 13/5/2 18/6/2
f 4/7/3 20/8/3 8/9/3 1/10/3
f 3/11/2 15/4/2 20/12/2 4/13/2
f 5/14/1 6/1/1 11/15/1 12/16/1
f 8/17/1 9/3/1 7/2/1
f 10/18/1 11/15/1 6/1/1
f 9/3/1 10/18/1 6/1/1
f 15/19/4 7/2/4 6/20/4 13/21/4
f 14/22/2 16/23/2 17/24/2 13/5/2
f 17/24/2 18/6/2 13/5/2
f 19/25/2 20/12/2 15/4/2
f 18/6/2 19/25/2 15/4/2
f 12/26/5 16/27/5 14/28/5 5/29/5
f 2/30/6 7/2/6 15/31/6 3/32/6
f 12/33/6 11/34/6 17/35/6 16/36/6
f 14/37/3 13/38/3 6/39/3 5/40/3
f 2/30/1 1/41/1 8/17/1 7/2/1
f 4/42/5 1/43/5 2/44/5 3/45/5
usemtl Asphalt.162
f 20/46/5 17/47/5 11/48/5 8/49/5
f 17/24/2 20/12/2 19/25/2 18/6/2
f 8/17/1 11/15/1 10/18/1 9/3/1
